<svg width="71" height="2" viewBox="0 0 71 2" fill="none" xmlns="http://www.w3.org/2000/svg">
<path d="M1.595 0.074013C3.08023 -0.100774 4.09404 0.0849402 5.47185 0.114539C8.50492 0.179566 12.5047 0.120999 15.6068 0.125647C17.9548 0.12917 20.3407 0.141643 22.6745 0.151647C22.7942 0.15214 22.8656 0.171302 22.9199 0.171544C23.4309 0.173799 24.2877 0.156438 24.7946 0.158971C25.8609 0.164255 27.7163 0.16127 28.6929 0.179234C29.1076 0.186841 29.533 0.190012 29.6942 0.235629C29.8457 0.237952 29.9284 0.196736 29.968 0.194493C29.9685 0.194533 29.9689 0.194574 29.9694 0.194615C30.0968 0.187657 30.4186 0.216556 30.4897 0.214756C30.5003 0.214474 30.4349 0.184621 30.6072 0.193638C30.6226 0.194413 30.6084 0.214711 30.7535 0.215C30.7912 0.21507 31.2765 0.183944 31.4151 0.182042C31.8766 0.175847 32.9787 0.200283 33.5304 0.199864C33.6148 0.199864 33.6634 0.18799 33.7525 0.187779C33.7985 0.187656 33.8676 0.200544 33.8817 0.200474C33.9438 0.200016 34.215 0.141485 34.1176 0.256991C34.4007 0.249667 34.3173 0.211481 34.3237 0.18668C34.6311 0.183099 34.7792 0.237498 34.8595 0.179845C36.3709 0.186803 37.8823 0.19376 39.3936 0.200718C39.3941 0.191319 39.3945 0.18192 39.395 0.172521C39.8405 0.210063 39.9933 0.146561 40.2476 0.201084C40.4044 0.189081 40.5613 0.177078 40.7181 0.165075C44.7484 0.20206 48.7692 0.158099 52.7541 0.158239C52.9223 0.158239 52.9643 0.178239 53.2416 0.17838C53.5478 0.17852 53.9785 0.155276 54.3821 0.155553C54.7362 0.155765 55.2584 0.174685 55.6532 0.177648C55.7423 0.178282 55.8068 0.165615 55.8168 0.165685C55.8758 0.16618 55.8787 0.186234 55.936 0.186803C56.0044 0.187437 56.0871 0.172581 56.1662 0.173497C56.4617 0.176806 56.7837 0.171685 56.8211 0.172032C57.0013 0.173931 57.0411 0.193544 57.0559 0.19376C57.2564 0.196154 57.1812 0.178452 57.2311 0.179479C57.4902 0.184903 57.6733 0.229093 58.028 0.18668C58.0183 0.203078 58.0086 0.219476 57.999 0.235873C58.2704 0.2451 58.0911 0.201529 58.1466 0.193638C58.1692 0.190715 58.7534 0.196036 58.7985 0.196812C58.9554 0.199629 58.9596 0.22142 58.9732 0.221714C59.0062 0.222418 59.401 0.197687 59.6034 0.216709C59.8429 0.239251 59.561 0.283578 59.6205 0.291902C59.6305 0.293311 59.8813 0.288768 59.9149 0.302644C59.9521 0.317573 59.7353 0.317256 59.7386 0.323517C59.741 0.327815 60.1009 0.358589 60.0319 0.379302C59.9765 0.400076 59.4881 0.373439 59.3846 0.383208C59.3675 0.384825 59.3997 0.410465 59.3846 0.411405C59.3239 0.414856 58.1986 0.415627 58.1471 0.411405C58.2057 0.399727 58.2643 0.38805 58.3229 0.376372C58.245 0.375192 58.1671 0.374012 58.0892 0.372832C58.1999 0.363474 58.3107 0.354115 58.4215 0.344757C58.2569 0.248603 57.761 0.346078 57.7406 0.394072C57.7317 0.416264 58.0348 0.473363 57.7528 0.506617C57.7957 0.512313 57.8385 0.51801 57.8814 0.523706C57.9698 0.514348 58.0582 0.504989 58.1466 0.495631C58.0877 0.489731 58.0289 0.483831 57.97 0.477931C57.9917 0.471258 58.0133 0.464585 58.035 0.457912C58.2002 0.447211 58.3654 0.43651 58.5306 0.425809C58.6156 0.430741 58.5979 0.450441 58.6563 0.45425C59.3845 0.502227 58.9095 0.441176 59.3862 0.449978C59.4543 0.460557 59.5224 0.471136 59.5904 0.481715C59.5664 0.437962 59.7776 0.465434 60.033 0.44656C60.0025 0.46072 59.972 0.47488 59.9415 0.489039C60.3115 0.481501 61.0615 0.552889 60.8591 0.474758C60.9439 0.481431 61.0286 0.488104 61.1134 0.494776C61.185 0.482 61.2566 0.469224 61.3282 0.456448C61.4271 0.457912 61.5261 0.459377 61.625 0.460842C61.6255 0.467759 61.6259 0.474676 61.6264 0.481593C61.5475 0.481634 61.4686 0.481675 61.3897 0.481715C61.4489 0.502792 61.5081 0.523869 61.5673 0.544946C61.6256 0.541447 61.6838 0.537947 61.742 0.534448C61.4978 0.514514 61.8198 0.481954 61.8978 0.454128C62.1037 0.443845 62.2352 0.479965 62.3043 0.481593C62.3368 0.482368 62.7191 0.418644 62.5692 0.488673C62.7659 0.480169 62.9626 0.471665 63.1594 0.463161C63.2363 0.468532 63.3132 0.473903 63.3901 0.479274C63.2232 0.511893 63.707 0.551194 63.3506 0.564721C63.0844 0.574866 63.0189 0.544368 62.8926 0.54458C62.7787 0.544729 62.7185 0.56527 62.5946 0.566185C61.7614 0.571963 61.0827 0.568194 60.2914 0.559106C60.1351 0.557279 59.9928 0.56735 59.8878 0.565941C59.7693 0.564317 59.9178 0.538554 59.7668 0.544824C59.6081 0.551452 59.5738 0.572477 59.5319 0.572899C59.5059 0.573138 59.4233 0.554223 59.3472 0.554223C59.0348 0.554227 58.5769 0.572517 58.5325 0.572411C58.4824 0.5722 57.5987 0.555132 57.5564 0.552026C57.534 0.550335 57.5805 0.480487 57.3858 0.554955C57.325 0.556339 57.2643 0.557722 57.2035 0.559106C57.2133 0.545149 57.2232 0.531193 57.233 0.517237C56.8731 0.570145 56.9969 0.540545 56.6499 0.544702C55.819 0.554704 54.5934 0.542944 53.6847 0.547875C53.4818 0.549005 53.4045 0.565715 53.1644 0.566918C52.9414 0.567974 52.359 0.518111 52.4857 0.587181C51.9894 0.527373 51.9097 0.630507 51.6612 0.566185C51.6312 0.575544 51.6011 0.584902 51.571 0.594261C51.3014 0.554105 51.2182 0.589397 50.9237 0.594261C50.7968 0.596374 50.9431 0.553663 50.687 0.601219C50.6381 0.597679 50.5891 0.594139 50.5402 0.590599C50.5516 0.580264 50.563 0.569929 50.5743 0.559594C50.2899 0.568048 50.2716 0.562663 50.304 0.601341C50.1667 0.594301 50.0294 0.587262 49.8921 0.580223C49.875 0.592918 49.858 0.605613 49.8409 0.618308C49.9067 0.642522 53.0246 0.606006 53.4588 0.594383C53.968 0.623118 54.991 0.587193 55.4024 0.594017C55.567 0.596764 55.6398 0.625476 55.8793 0.628928C56.1189 0.632377 56.4203 0.6063 56.5478 0.605369C56.9727 0.602128 58.9856 0.607856 57.6165 0.643576C57.6559 0.657573 57.6953 0.67157 57.7346 0.685567C58.2787 0.637805 58.0817 0.667208 58.5331 0.672139C58.7231 0.674244 59.175 0.642988 59.1498 0.706562C58.7969 0.718398 58.422 0.698078 58.1152 0.698994C58.0847 0.699093 57.7214 0.72812 57.5345 0.720233C57.3658 0.713034 57.4819 0.65243 57.1149 0.720478C56.8424 0.654005 56.6848 0.714311 56.6128 0.720722C56.4884 0.731837 56.4747 0.69903 56.3503 0.69521C56.2149 0.69099 56.1216 0.712767 56.1031 0.712909C55.9173 0.713402 54.9495 0.716372 54.9051 0.703144C54.944 0.697326 54.9829 0.691507 55.0219 0.685689C54.7705 0.676325 54.8231 0.70987 54.757 0.713886C54.7078 0.713764 54.6586 0.713642 54.6094 0.71352C54.6289 0.706562 54.6484 0.699604 54.6679 0.692646C54.371 0.694126 54.5982 0.718304 54.1768 0.71767C53.9093 0.717244 53.633 0.690682 53.607 0.692646C53.5993 0.69321 53.6835 0.711118 53.5745 0.71352C53.3939 0.717464 53.0818 0.717009 53.0469 0.692646C52.9584 0.696095 52.966 0.719935 52.9542 0.720478C52.9029 0.722802 52.0196 0.730908 51.8614 0.732318C51.4229 0.736193 50.9348 0.73111 50.4598 0.735126C50.4109 0.735527 50.4421 0.720229 50.3931 0.720722C50.3146 0.721505 49.9112 0.745515 49.8509 0.74721C49.7005 0.751365 49.3049 0.741842 49.2426 0.748797C49.2338 0.749783 49.364 0.770461 49.2117 0.776872C49.0427 0.783965 49.1337 0.756154 49.1245 0.755877C48.7805 0.746367 48.5633 0.76569 48.3285 0.769426C48.2524 0.770624 48.112 0.749694 48.0046 0.755877C47.9922 0.756579 48.0167 0.775921 48.0046 0.776872C47.8423 0.787017 47.6905 0.751122 47.6202 0.748797C47.4484 0.743114 47.542 0.769604 47.533 0.769792C47.4186 0.770638 47.2645 0.761081 47.0905 0.762346C46.3145 0.767983 45.6812 0.769601 44.8563 0.767839C44.7527 0.767628 44.6297 0.748943 44.6139 0.748919C44.5649 0.74906 44.5789 0.771018 44.4373 0.770525C44.1387 0.769398 43.8619 0.770459 43.5663 0.770037C43.5067 0.769948 43.4814 0.749603 43.436 0.749163C43.2838 0.747895 42.7647 0.801169 42.7562 0.734881C42.4541 0.793563 42.2534 0.742986 42.0103 0.743548C41.4343 0.744816 40.5325 0.756772 39.9584 0.749163C39.8375 0.747532 39.7808 0.730548 39.7135 0.729633C39.5929 0.727947 38.9034 0.737435 38.8674 0.734759C38.7966 0.729616 38.839 0.654821 38.4749 0.719989C38.2615 0.724632 38.2867 0.693935 38.2426 0.69228C37.8985 0.679951 37.5638 0.748462 37.6264 0.685689C37.2258 0.702734 36.9662 0.737424 36.8028 0.678731C36.8049 0.707374 36.6165 0.724555 36.3895 0.713642C36.6219 0.665526 36.5932 0.634775 37.1554 0.643576C37.1642 0.643717 37.1474 0.66443 37.1562 0.664571C37.2365 0.66597 37.404 0.655513 37.5408 0.656637C37.6777 0.657764 37.6017 0.671924 37.6565 0.671651C37.7066 0.671369 37.7049 0.651548 37.7775 0.651266C38.013 0.65049 38.2213 0.645027 38.3552 0.644674C38.4396 0.644469 38.534 0.661886 38.5995 0.661886C38.8527 0.661743 39.3892 0.648143 39.7113 0.650045C39.7785 0.650489 39.7503 0.670031 39.8971 0.671651C39.9143 0.67184 39.9769 0.651462 40.1054 0.647238C40.234 0.643012 40.3337 0.653131 40.4164 0.651022C40.4854 0.649261 40.4565 0.631158 40.5981 0.630026C40.7161 0.62911 42.0528 0.642152 42.1254 0.64504C42.2298 0.649204 42.2794 0.674628 42.3431 0.671529C42.3544 0.670865 42.3733 0.64631 42.4122 0.644552C43.0531 0.615533 44.4715 0.649033 45.2038 0.648825C46.7345 0.648472 48.1466 0.634024 49.6908 0.628317C49.7184 0.624045 49.7459 0.619773 49.7735 0.6155C49.6174 0.615338 49.4613 0.615175 49.3052 0.615012C49.3042 0.603456 49.3032 0.591901 49.3022 0.580345C49.0912 0.578515 49.1191 0.605845 49.1251 0.622336C49.047 0.615338 48.9689 0.608339 48.8908 0.601341C48.8234 0.641611 48.3026 0.614828 48.0341 0.61489C47.8595 0.61489 47.6517 0.630242 47.5596 0.62905C47.365 0.626586 47.3701 0.601737 47.3548 0.601341C47.3289 0.600777 47.0573 0.622693 46.8613 0.621848C46.5717 0.620641 46.5404 0.582486 46.1439 0.61489C45.6358 0.595095 45.0729 0.605057 44.5253 0.608298C44.6296 0.57303 44.1389 0.606411 43.9175 0.605857C42.5674 0.602405 40.908 0.587337 39.5402 0.573387C39.3644 0.571627 39.2316 0.55085 39.1336 0.551537C39.0805 0.55189 39.0574 0.576384 38.9836 0.573143C38.9706 0.57252 38.9616 0.549616 38.8243 0.546167C38.4827 0.537501 37.6316 0.575725 37.4162 0.531763C36.2481 0.538558 35.0799 0.545353 33.9118 0.552148C33.8824 0.542789 33.8531 0.533431 33.8238 0.524072C33.6018 0.571897 32.7246 0.543794 32.2967 0.546044C31.5438 0.55006 30.5831 0.564931 29.9233 0.566552C29.78 0.566904 29.6625 0.553337 29.5268 0.553613C29.4684 0.553753 29.3958 0.571343 29.3351 0.571434C28.6529 0.572773 27.7293 0.554655 27.0418 0.555077C25.481 0.555993 24.0111 0.553326 22.4296 0.554101C17.1022 0.556848 11.8055 0.582716 6.52354 0.572289C6.45273 0.572148 6.45626 0.551923 6.40139 0.551782C6.07743 0.550795 5.35399 0.567467 4.98812 0.566552C4.69662 0.565847 4.23393 0.534923 4.13361 0.566063C5.16924 0.613196 6.26338 0.60965 7.34148 0.622824C7.41813 0.623752 7.42765 0.642979 7.43709 0.643332C7.61163 0.650012 7.50141 0.623534 7.75452 0.622336C7.83912 0.621935 8.62047 0.683314 8.52751 0.622214C8.71463 0.646656 10.0337 0.658873 10.2883 0.650778C10.3656 0.648312 10.3108 0.63021 10.3262 0.629294C10.3928 0.625296 10.4229 0.650255 10.4825 0.6509C10.6412 0.65245 11.0449 0.632205 11.1216 0.632346C11.2982 0.632562 11.8273 0.65288 12.0604 0.648092C12.274 0.643724 12.234 0.617652 12.4187 0.615256C12.5643 0.613436 12.4057 0.635367 12.7307 0.641989C12.8918 0.645229 13.4553 0.629541 13.5923 0.629538C13.7292 0.629538 13.8815 0.64514 14.0703 0.643942C14.3423 0.642251 14.934 0.633564 15.2108 0.628561C15.2274 0.62828 15.2676 0.607998 15.3083 0.60842C15.3927 0.609271 15.3674 0.634319 15.431 0.636862C15.4948 0.639398 16.5984 0.636338 16.7858 0.636618C16.915 0.636759 17.0042 0.621838 17.0756 0.62197C17.1316 0.622111 17.1376 0.642976 17.1948 0.643209C17.2125 0.643209 17.3631 0.625087 17.5136 0.62551C17.6557 0.625935 18.1956 0.643169 18.2581 0.643332C18.2988 0.643402 18.2542 0.628575 18.3746 0.628928C18.4843 0.629291 18.5563 0.648543 18.6189 0.648825C18.764 0.649451 18.9262 0.633034 19.0801 0.632956C19.5227 0.632745 19.4999 0.656594 19.5265 0.657369C19.6001 0.659523 19.6296 0.637679 19.6538 0.637228C19.7558 0.635397 20.0059 0.631362 20.0969 0.630515C20.2102 0.629458 20.2582 0.650219 20.3785 0.650289C20.4683 0.650275 20.6494 0.630036 20.8541 0.62905C21.3156 0.626725 21.8643 0.622904 22.3175 0.623679C22.4526 0.62389 22.4734 0.642838 22.5147 0.643332C22.7318 0.645932 22.8533 0.624744 22.9153 0.625022C23.3572 0.626924 24.1456 0.660166 24.5558 0.662984C24.7228 0.664111 25.4539 0.648762 25.8664 0.65151C25.9135 0.651795 25.8694 0.666652 25.9219 0.664327C26.0475 0.658752 26.0358 0.6285 26.0996 0.629416C26.1303 0.629951 26.2004 0.647006 26.29 0.648702C26.7544 0.657509 27.0737 0.644247 27.2856 0.645163C29.3202 0.653969 31.395 0.661894 33.2951 0.664571C33.5069 0.664853 33.7696 0.646855 34.0894 0.664327C34.0993 0.673726 34.1091 0.683125 34.119 0.692524C34.1302 0.683288 34.1414 0.674052 34.1526 0.664815C34.5148 0.659813 34.6517 0.647925 35.0217 0.659688C35.0536 0.660675 35.1508 0.703583 35.211 0.650289C35.5775 0.688897 35.3764 0.649976 35.6484 0.646383C35.9204 0.642791 36.1848 0.65469 36.4485 0.657369C36.5931 0.676462 35.9864 0.720496 35.9469 0.720356C35.8832 0.720185 35.817 0.693689 35.7557 0.69228C35.574 0.688067 35.3983 0.709094 35.3575 0.685444C35.1227 0.710449 35.415 0.697956 35.3857 0.720478C35.229 0.71116 35.0722 0.701842 34.9155 0.692524C34.8357 0.769126 33.9697 0.66923 34.0299 0.727557C33.961 0.71588 33.8921 0.704202 33.8232 0.692524C33.5211 0.765699 33.3435 0.714174 32.9405 0.692402C32.9696 0.701761 32.9987 0.711119 33.0277 0.720478C33.0195 0.724383 32.6639 0.739348 32.791 0.699482C32.4265 0.75201 32.4418 0.664636 32.115 0.727802C31.9209 0.735904 32.0376 0.699215 31.69 0.699848C31.4841 0.700201 31.2285 0.719383 30.9983 0.720722C30.9453 0.720969 30.9222 0.699726 30.8751 0.699726C30.8279 0.699735 30.8049 0.720563 30.7478 0.721088C30.6298 0.722215 30.4768 0.707594 30.403 0.709003C30.3369 0.710205 30.2424 0.728575 30.0831 0.731464C29.5268 0.741675 29.6949 0.715441 29.607 0.706562C29.5126 0.697122 29.4447 0.731688 29.2565 0.72768C29.2376 0.727257 29.2865 0.705717 29.2251 0.706562C29.1756 0.707224 29.1507 0.730638 28.9868 0.735004C28.9215 0.736765 27.908 0.741781 27.7536 0.742205C27.517 0.742839 26.9899 0.723022 26.745 0.723163C26.6506 0.723167 26.5498 0.741965 26.4495 0.741839C26.1173 0.741417 25.5854 0.739825 25.1641 0.73891C24.7847 0.738059 24.1187 0.696567 23.9109 0.734027C23.3781 0.738887 23.2487 0.706876 23.2086 0.70644C23.1 0.705242 23.0497 0.726449 22.9128 0.727435C21.1396 0.739763 18.8046 0.725745 17.1252 0.727435C13.2294 0.731522 9.3124 0.74311 5.40306 0.734515C5.39258 0.743914 5.38211 0.753313 5.37164 0.762713C5.83369 0.768772 6.37669 0.785101 6.83284 0.788835C7.44181 0.793762 8.34516 0.75462 8.79185 0.818863C8.6107 0.824497 8.31556 0.799865 8.32085 0.832901C8.64469 0.835261 8.96853 0.837621 9.29237 0.839981C9.28271 0.824722 9.27305 0.809464 9.26339 0.794206C9.60151 0.789768 9.94734 0.793094 10.2866 0.79091C10.3456 0.79055 10.3038 0.776699 10.3552 0.776628C10.4126 0.776578 10.3737 0.790676 10.3844 0.790788C10.5295 0.790929 10.5734 0.776667 10.5911 0.776872C10.6365 0.777436 10.6012 0.791012 10.7322 0.794816C10.9752 0.801922 11.1492 0.765856 11.0921 0.825943C11.1706 0.825943 11.249 0.825943 11.3275 0.825943C11.3478 0.809586 11.3681 0.793229 11.3884 0.776872C11.871 0.84291 12.0935 0.72707 12.3602 0.818985C12.4481 0.804948 12.5361 0.79091 12.624 0.776872C12.6736 0.793229 12.7231 0.809586 12.7727 0.825943C12.7824 0.811905 12.792 0.797868 12.8017 0.78383C13.2755 0.794181 13.78 0.777329 14.2331 0.778947C14.5488 0.780075 14.6244 0.785617 14.904 0.784563C15.5259 0.782167 14.9083 0.810021 15.4251 0.840103C15.3982 0.822891 15.3713 0.80568 15.3444 0.788469C15.43 0.782162 15.5155 0.775855 15.6011 0.769548C15.6607 0.783586 15.7203 0.797624 15.7799 0.811661C16.0442 0.73885 16.2154 0.797624 16.2514 0.797624C16.2805 0.797496 16.3804 0.753663 16.6932 0.790788C16.5635 0.73086 16.9318 0.790436 16.9613 0.790788C16.9893 0.791031 17.348 0.777652 17.4935 0.778215C17.608 0.778642 17.8522 0.791542 18.0227 0.79091C18.1733 0.790348 18.158 0.770004 18.169 0.769792C18.3543 0.768102 18.2382 0.78391 18.3721 0.784685C18.5061 0.785458 18.61 0.768121 18.6389 0.76967C18.6535 0.770496 18.6048 0.789447 18.6714 0.791276C18.8502 0.796268 19.1736 0.779675 19.3783 0.780168C19.4509 0.780321 19.5423 0.796398 19.6232 0.796891C19.747 0.797592 19.805 0.776238 19.8769 0.776872C19.902 0.777151 20.0618 0.810137 20.2604 0.80507C20.2982 0.804053 20.4093 0.734252 20.5568 0.833145C20.5681 0.819229 20.5795 0.805314 20.5909 0.791398C21.2571 0.756947 21.4425 0.869995 21.7387 0.76967C22.2225 0.780875 21.8904 0.819955 21.9435 0.825943C21.9778 0.829727 22.1355 0.818983 22.1528 0.819596C22.1835 0.820793 22.1782 0.833337 22.2119 0.833267C22.8285 0.830942 22.5547 0.807259 22.75 0.792253C23.2144 0.756534 23.5768 0.835834 22.769 0.812028C22.769 0.819026 22.769 0.826024 22.769 0.833023C22.9679 0.826334 23.4728 0.829511 23.3042 0.865004C23.1714 0.892973 21.9736 0.874719 22.652 0.913953C22.806 0.92283 22.8858 0.896566 23.1525 0.945812C23.3289 0.948484 23.3543 0.884685 23.5932 0.910291C23.5539 0.888034 23.5146 0.865777 23.4754 0.843521C23.8011 0.814509 24.2029 0.853426 24.4531 0.840957C24.5381 0.836708 24.8444 0.730596 24.773 0.836685C24.9159 0.83007 25.5891 0.849613 25.7142 0.840103C25.7442 0.837806 25.7834 0.781323 26.2187 0.801042C26.249 0.808121 26.2792 0.815201 26.3095 0.822281C25.9113 0.84285 26.6145 0.863772 26.4235 0.917371C26.3586 0.89328 26.0429 0.878586 25.992 0.866469C25.9053 0.845615 26.1637 0.818738 25.8344 0.826065C25.6268 0.915646 26.2203 0.874424 26.1296 0.959484C26.5619 0.919778 26.6051 0.957663 26.703 0.95924C27.1213 0.96565 27.3846 0.956635 27.7793 0.966564C27.8755 0.949092 27.1609 0.92387 27.0724 0.931409C27.3982 0.869481 26.8375 0.866679 26.6009 0.903455C26.581 0.884738 26.5612 0.866022 26.5413 0.847305C26.8493 0.85745 27.1498 0.862662 27.4549 0.847305C27.4747 0.854303 27.4946 0.861302 27.5145 0.8683C27.446 0.878839 27.3776 0.889377 27.3092 0.899915C27.5629 0.917173 27.4107 0.862594 27.7487 0.910413C27.7592 0.889336 27.7697 0.86826 27.7801 0.847183C28.1043 0.854181 28.4284 0.86118 28.7525 0.868178C28.9212 0.825914 29.5449 0.841657 29.4307 0.896376C29.6824 0.900239 29.3716 0.871117 29.6075 0.857802C29.7102 0.852025 29.9109 0.850402 29.9604 0.865126C29.9391 0.917234 29.6388 0.923701 29.5479 0.959484C29.6031 0.971028 30.9996 0.933826 30.8751 0.994761C30.9866 1.00209 30.9353 0.970695 31.1364 0.962658C31.7 0.940254 32.5729 1.0023 33.0267 0.924451C32.4938 0.881123 32.3362 0.927013 31.9278 0.928845C31.667 0.930043 30.0767 0.937431 30.432 0.882338C30.3736 0.889336 30.3152 0.896335 30.2567 0.903333C30.1977 0.886936 30.1387 0.870538 30.0796 0.85414C30.246 0.851781 30.4124 0.849421 30.5788 0.847061C30.6185 0.863418 30.6582 0.879774 30.6979 0.896131C30.7163 0.884454 30.7346 0.872776 30.7529 0.861098C30.823 0.858779 30.893 0.85646 30.9631 0.85414C30.9434 0.868178 30.9237 0.882216 30.9041 0.896253C31.012 0.898654 31.12 0.901055 31.228 0.903455C31.1989 0.884698 31.1698 0.86594 31.1408 0.847183C31.6493 0.842465 31.4771 0.854213 31.7591 0.889296C31.9697 0.892883 31.614 0.856829 32.0595 0.847671C32.5775 0.837036 32.2377 0.894351 32.9086 0.882094C32.9182 0.872735 32.9279 0.863377 32.9376 0.854018C33.0851 0.863377 33.2326 0.872735 33.3801 0.882094C33.3606 0.870457 33.3411 0.85882 33.3216 0.847183C33.6261 0.851692 34.0457 0.829483 34.1466 0.875136C33.838 0.853155 33.841 0.932867 33.9213 0.947521C34.0869 0.97759 36.5342 0.949616 37.0086 0.947643C37.6152 0.945108 38.0736 0.970641 38.6277 0.931409C38.2522 0.89923 36.9319 0.925592 36.6817 0.903333C36.6569 0.901149 36.6639 0.828077 36.5046 0.910291C35.9912 0.896347 35.3776 0.919641 34.7362 0.917249C34.7558 0.896213 34.7754 0.875177 34.795 0.85414C35.1892 0.898878 35.554 0.800613 35.5027 0.882338C35.5812 0.882338 35.6596 0.882338 35.7381 0.882338C35.7381 0.86826 35.7381 0.854181 35.7381 0.840103C35.8563 0.840103 35.9746 0.840103 36.0929 0.840103C36.0929 0.854181 36.0929 0.86826 36.0929 0.882338C36.1908 0.882338 36.2888 0.882338 36.3867 0.882338C36.3969 0.8683 36.4071 0.854263 36.4173 0.840225C36.7107 0.869381 37.7106 0.791424 37.271 0.875258C37.4088 0.875258 37.5466 0.875258 37.6844 0.875258C37.6839 0.864964 37.6835 0.854669 37.683 0.844375C37.7422 0.842992 37.8014 0.841608 37.8607 0.840225C37.8412 0.849543 37.8217 0.85886 37.8022 0.868178C38.0736 0.851484 38.3309 0.900537 38.5091 0.8683C38.3915 0.861261 38.274 0.854222 38.1564 0.847183C38.3819 0.860554 38.7972 0.832849 38.8344 0.832779C38.9476 0.832639 39.0074 0.85345 39.1301 0.854507C39.2409 0.855409 39.2257 0.839417 39.2463 0.839981C39.844 0.856259 39.6162 0.942833 39.8952 0.840347C39.925 0.854344 39.9547 0.868341 39.9844 0.882338C40.0239 0.87066 40.0634 0.858982 40.103 0.847305C40.2795 0.848403 40.456 0.849502 40.6325 0.850601C40.5736 0.833104 40.5148 0.815608 40.4559 0.798112C40.7205 0.790303 40.8439 0.825383 40.8695 0.826187C40.942 0.828228 40.9752 0.806209 40.9976 0.806168C42.0757 0.808071 41.4209 0.827458 41.9596 0.910169C42.1517 0.877711 41.9574 0.845171 41.9301 0.81215C42.1855 0.82764 42.2653 0.818497 42.5349 0.820328C42.605 0.820827 42.6805 0.838642 42.7248 0.838882C42.7631 0.839093 42.883 0.820162 42.975 0.820084C43.1284 0.819943 43.3326 0.831228 43.5427 0.830948C43.7174 0.830666 44.252 0.817295 44.625 0.817154C44.7841 0.817155 44.7472 0.83299 44.7883 0.833023C44.8054 0.833023 44.9294 0.814055 45.0315 0.813981C45.8641 0.813558 46.7174 0.825562 47.5542 0.825211C48.1437 0.824999 48.7427 0.809746 49.3333 0.811295C49.459 0.811647 49.3925 0.825572 49.4474 0.826065C49.4662 0.826189 49.4889 0.801891 49.6833 0.811661C49.7535 0.815184 49.6727 0.832178 49.7418 0.833023C49.7754 0.833426 49.7896 0.812126 49.9861 0.807267C50.343 0.798394 50.5349 0.826789 50.5668 0.825943C50.6268 0.824308 50.6093 0.80668 50.6889 0.806046C51.0783 0.802947 51.4034 0.799958 51.7509 0.798478C51.9131 0.797774 53.032 0.79421 53.0935 0.79738C53.2309 0.804423 53.103 0.841234 53.2793 0.839981C53.3286 0.830663 53.378 0.821345 53.4274 0.812028C53.3489 0.804948 53.2705 0.797868 53.192 0.790788C53.408 0.802623 53.6529 0.785882 53.8128 0.786516C53.8424 0.78666 54.1142 0.803353 54.2529 0.80153C54.194 0.808447 54.135 0.815364 54.0761 0.822281C54.0969 0.828181 54.1178 0.834081 54.1386 0.839981C54.416 0.831036 54.7093 0.831267 54.9937 0.832535C55.0963 0.832966 55.0616 0.8473 55.1654 0.847793C55.7701 0.850816 55.6174 0.791217 56.1992 0.903089C56.0028 0.892947 55.2861 0.907178 55.1819 0.903455C55.1093 0.900849 54.8279 0.80632 54.9311 0.903333C54.3505 0.902911 54.8548 0.849403 54.3125 0.861098C54.3234 0.872939 54.3342 0.884779 54.345 0.89662C54.1557 0.904084 54.0159 0.910067 53.9008 0.889174C53.8623 0.946615 53.219 0.913009 52.8662 0.916883C52.3564 0.922378 51.7804 0.936389 51.2753 0.938855C51.1013 0.939691 51.0027 0.917178 50.9809 0.917249C50.949 0.917411 50.8593 0.937127 50.7956 0.937268C50.5578 0.93783 49.8343 0.9045 49.6543 0.95924C51.0693 0.95924 52.4844 0.95924 53.8995 0.95924C53.7216 0.932333 55.153 0.929704 55.2255 0.931042C55.2927 0.932245 55.2362 0.951136 55.2561 0.952282C55.4048 0.960384 55.5318 0.932995 55.579 0.932995C55.615 0.932999 55.6877 0.94585 55.8157 0.945568C55.8392 0.945528 55.8457 0.931938 55.871 0.931897C56.0379 0.931897 56.2028 0.932089 56.3704 0.932019C56.3806 0.932151 56.4229 0.952003 56.4652 0.952038C56.5076 0.952038 56.5495 0.932203 56.5603 0.932141C56.6942 0.932282 56.9238 0.945183 57.0513 0.945324C57.0955 0.945318 57.0649 0.930781 57.1144 0.93092C57.2666 0.931273 57.2165 0.959731 57.4047 0.952404C57.4678 0.949935 57.4637 0.928173 57.5846 0.931042C57.6701 0.933086 57.6609 0.971868 57.6745 0.973277C57.6932 0.97498 57.9885 0.944353 58.0851 0.969738C57.874 1.03675 58.316 0.973234 58.2947 0.944958C58.4117 0.952079 58.5287 0.959199 58.6457 0.96632C58.6856 0.959158 58.7256 0.951997 58.7655 0.944836C59.2375 0.977103 59.5255 0.957729 59.9899 0.967662C60.0124 0.968156 60.4037 0.984076 60.3854 0.994151C60.1512 1.01148 59.9175 1.01227 59.7676 0.980235C59.5209 1.04132 59.5167 0.99264 59.1184 1.00074C58.985 1.00349 58.9755 1.02006 58.9602 1.02027C58.4416 1.02851 57.6109 1.03565 57.2615 0.987193C57.1635 1.0003 57.5156 1.00549 57.3787 1.01515C57.3041 1.02043 55.507 1.03591 56.0811 0.980113C56.0215 0.981659 55.962 0.983206 55.9024 0.984752C55.8428 1.03745 55.5464 1.0254 55.5801 0.972911C55.552 0.983653 55.5239 0.994395 55.4958 1.00514C55.4404 1.01423 55.3747 1.01909 55.2827 1.02198C54.9302 1.03297 52.8331 1.01469 52.7216 1.02223C52.7191 1.03468 52.7165 1.04713 52.714 1.05958C53.6405 1.07367 54.5392 1.04273 55.5495 1.07838C55.5201 1.0667 55.4908 1.05502 55.4614 1.04334C55.8645 1.0597 56.2676 1.07606 56.6708 1.09241C56.2441 1.11355 55.5654 1.1313 55.1175 1.1139C55.0379 1.11079 55.0962 1.09451 55.0779 1.09254C55.0301 1.08741 54.9788 1.11567 54.8071 1.11841C54.6353 1.12116 54.2039 1.10113 54.1644 1.10169C54.0882 1.10285 53.8824 1.13518 53.7527 1.13477C53.5821 1.13421 53.6964 1.1142 53.6622 1.11378C53.5206 1.11181 53.3937 1.12172 53.2828 1.12025C53.1181 1.11805 52.776 1.08286 52.6609 1.13453C52.7786 1.13689 52.8962 1.13925 53.0138 1.14161C52.3759 1.16014 51.8772 1.09409 51.2487 1.14503C51.1059 1.20759 51.6252 1.19913 51.1862 1.22583C51.2659 1.22494 51.3456 1.22404 51.4253 1.22315C51.444 1.21005 51.4627 1.19694 51.4814 1.18384C51.6187 1.1932 51.756 1.20256 51.8933 1.21192C51.8542 1.20024 51.815 1.18856 51.7758 1.17688C52.2626 1.16808 52.7542 1.1561 52.9242 1.21888C52.9342 1.2037 52.9442 1.18852 52.9542 1.17334C53.4062 1.1918 54.0848 1.12747 53.958 1.21192C53.9794 1.20744 54.0008 1.20297 54.0222 1.19849C54.2954 1.21575 54.1787 1.18083 54.2814 1.17688C54.3107 1.17577 54.8417 1.1938 54.6064 1.21888C55.1245 1.23804 54.9647 1.15911 55.1074 1.15564C55.4391 1.19475 56.0356 1.13609 55.7848 1.19788C55.8342 1.2002 55.8836 1.20252 55.933 1.20484C56.0952 1.15623 56.2552 1.21123 56.4311 1.22962C56.4906 1.23072 56.5502 1.23181 56.6098 1.23291C56.6497 1.21656 56.6896 1.2002 56.7295 1.18384C57.2901 1.26169 57.1126 1.04879 57.3687 1.22766C57.3288 1.23837 57.2889 1.24907 57.249 1.25977C57.1544 1.26485 57.0598 1.26994 56.9652 1.27503C57.3468 1.27975 57.7284 1.28447 58.11 1.28919C58.5944 1.33932 58.8701 1.28492 59.4082 1.32458C59.4585 1.31982 59.5089 1.31506 59.5593 1.3103C59.508 1.35081 59.3125 1.34486 59.6766 1.36304C59.7076 1.39168 59.4617 1.39538 59.3497 1.37341C59.3227 1.36805 59.5525 1.34611 59.2941 1.34534C59.1185 1.34478 59.4375 1.3792 58.9112 1.36645C58.9307 1.37345 58.9502 1.38045 58.9697 1.38745C58.9126 1.38725 58.8556 1.38704 58.7985 1.38684C58.7478 1.37064 58.697 1.35445 58.6463 1.33826C58.5159 1.36165 58.4427 1.39442 58.1447 1.38745C58.2255 1.37731 58.1158 1.34479 57.9684 1.34534C57.9684 1.35705 57.9684 1.36877 57.9684 1.38049C57.6113 1.38803 57.7346 1.35365 57.4378 1.38049C57.4081 1.37117 57.3784 1.36186 57.3487 1.35254C57.187 1.39093 56.5917 1.41706 56.7003 1.3595C56.5333 1.41544 56.1826 1.3902 56.0521 1.34546C56.0421 1.3571 56.0321 1.36873 56.0221 1.38037C55.9527 1.38273 55.8832 1.38509 55.8138 1.38745C55.7751 1.38041 55.7363 1.37337 55.6976 1.36633C55.6484 1.37337 55.5992 1.38041 55.55 1.38745C55.5203 1.37577 55.4906 1.36409 55.4609 1.35242C55.3818 1.36641 55.3027 1.38041 55.2236 1.39441C55.1752 1.38509 55.1269 1.37577 55.0785 1.36645C55.0735 1.39081 54.594 1.39624 54.4601 1.38025C54.4202 1.38733 54.3803 1.39441 54.3404 1.40149C54.3209 1.38989 54.3014 1.37829 54.2819 1.3667C54.2522 1.37597 54.2225 1.38525 54.1928 1.39453C54.1244 1.38525 54.0559 1.37597 53.9875 1.3667C53.7084 1.42355 53.6994 1.37367 53.6357 1.37402C53.5175 1.37467 53.1152 1.41028 53.048 1.40844C52.9808 1.4066 52.9483 1.38619 52.8941 1.38428C52.0002 1.35222 52.3676 1.40698 52.1883 1.41565C52.0915 1.42037 52.023 1.40133 51.9375 1.40344C51.7911 1.40696 51.0529 1.43215 51.0104 1.42968C50.9485 1.42613 51.0942 1.33636 50.8931 1.3595C50.8865 1.4077 50.4565 1.35905 50.6575 1.42627C50.4804 1.42037 50.3034 1.41447 50.1264 1.40857C50.1464 1.4657 49.9281 1.42896 49.6903 1.43213C49.3533 1.43657 48.5946 1.47414 48.6224 1.41552C48.5417 1.42899 48.4609 1.44246 48.3802 1.45593C47.828 1.43748 47.2863 1.45681 46.7381 1.45752C45.1112 1.4597 43.3462 1.44698 41.727 1.43542C41.6491 1.43485 41.6603 1.4157 41.6043 1.41528C41.3098 1.41317 40.5444 1.42671 40.132 1.42248C39.9998 1.42114 39.9355 1.40247 39.8936 1.40161C39.7514 1.39858 39.785 1.42319 39.7195 1.42248C39.6162 1.42135 39.0697 1.39851 38.8815 1.39612C38.7883 1.39493 38.678 1.41448 38.5689 1.40844C38.5595 1.40795 38.5769 1.3878 38.5689 1.38745C38.3701 1.38498 38.4897 1.4024 38.4224 1.40149C37.9427 1.39494 37.4299 1.39454 36.9095 1.39038C36.7802 1.38932 36.5825 1.37512 36.4715 1.37378C36.4292 1.3733 36.5051 1.38859 36.3588 1.38733C36.3087 1.38689 36.2916 1.36701 36.2351 1.36572C35.9914 1.3603 35.9098 1.42419 35.7004 1.3728C35.2962 1.37618 34.5926 1.39259 34.2238 1.39294C34.1365 1.393 34.0941 1.38126 34.0109 1.38147C33.9519 1.38161 33.8481 1.3998 33.756 1.40002C33.664 1.40023 33.5187 1.38291 33.3416 1.38354C33.1553 1.38418 32.9235 1.39447 32.8815 1.39441C32.8307 1.39441 32.8071 1.37253 32.7564 1.3728C32.6029 1.37351 32.1922 1.39501 31.9945 1.39734C31.7821 1.3998 31.6546 1.38919 31.582 1.3894C31.5148 1.3897 31.4364 1.40816 31.4057 1.40832C31.3579 1.4086 31.3466 1.38703 31.2859 1.38721C31.1868 1.38756 31.0847 1.40113 30.936 1.40149C28.2593 1.40818 25.635 1.39632 23.0309 1.38061C22.7406 1.37885 22.5766 1.39399 22.1488 1.38708C21.9753 1.38427 22.0484 1.362 21.9134 1.36621C21.8532 1.36811 21.8684 1.38562 21.7923 1.38647C21.456 1.39014 21.0641 1.37386 20.9183 1.37414C20.8605 1.37423 20.7945 1.39412 20.6759 1.39441C19.7926 1.39666 18.7475 1.39108 17.7969 1.39453C17.2935 1.39636 16.5315 1.4065 15.9538 1.40783C14.3576 1.41157 12.6405 1.40696 11.1848 1.40893C8.98664 1.41182 6.79909 1.43021 4.60569 1.40844C5.63186 1.45656 7.0292 1.45255 8.17162 1.45776C11.4714 1.4727 14.9849 1.44474 18.3667 1.4458C19.5433 1.44615 21.0269 1.44504 22.3151 1.45617C22.3735 1.45667 22.4946 1.44137 22.6209 1.44299C22.6477 1.44337 22.9803 1.47127 23.0924 1.47155C22.9862 1.42195 23.4252 1.46616 23.5609 1.46496C23.7321 1.4634 24.0891 1.43862 24.4897 1.45263C24.8532 1.46531 24.7529 1.48439 24.773 1.48559C24.9015 1.49332 24.9464 1.46258 25.0449 1.45947C25.4473 1.44707 27.5174 1.46493 28.0951 1.46606C28.2444 1.46634 28.2487 1.48589 28.2823 1.48596C28.3714 1.48609 28.4982 1.46678 28.6409 1.46691C28.8982 1.4672 29.1945 1.48564 29.3361 1.48571C29.6749 1.48592 30.3176 1.46416 30.7578 1.46374C30.8816 1.46361 30.874 1.48395 30.9301 1.48388C31.1768 1.48352 31.8193 1.45956 32.1256 1.45935C32.623 1.45899 33.1347 1.47214 33.6404 1.46545C33.6724 1.47452 33.7045 1.4836 33.7365 1.49267C33.7871 1.48315 33.8377 1.47363 33.8882 1.46411C34.7432 1.47136 35.6136 1.45093 36.4639 1.45227C36.5619 1.45241 37.0469 1.46977 37.1278 1.46984C37.195 1.46984 37.2612 1.44737 37.361 1.45068C37.5007 1.45527 37.3692 1.49808 37.5974 1.48583C37.6588 1.48252 37.5993 1.4642 37.7225 1.45849C37.7633 1.45659 38.5535 1.44917 38.596 1.45044C38.6668 1.45257 38.7299 1.49183 38.7482 1.49267C38.8432 1.4971 38.8391 1.46698 38.9029 1.46423C39.0909 1.45601 39.3366 1.47627 39.3671 1.47583C39.7365 1.47026 40.4271 1.44621 40.8148 1.46045C40.8684 1.46243 40.862 1.48486 40.8714 1.48559C40.9321 1.49024 40.9699 1.4647 41.0276 1.46411C41.3386 1.46122 41.8256 1.47842 42.1384 1.48278C42.1744 1.48326 42.2504 1.47097 42.3147 1.47216C42.6782 1.47907 42.5603 1.49878 42.5809 1.49963C42.6299 1.50172 42.716 1.47998 42.8464 1.47863C43.1821 1.47504 43.826 1.47816 44.186 1.47985C44.4556 1.48119 44.4515 1.50609 44.4693 1.50659C44.5071 1.50748 44.6121 1.4876 44.7897 1.48535C45.1313 1.48091 45.0924 1.50047 45.2328 1.49963C45.2446 1.49963 45.2241 1.48048 45.3798 1.47851C45.6808 1.47471 46.3569 1.49353 46.6791 1.49255C46.803 1.4922 46.832 1.47374 46.9588 1.47338C47.16 1.47275 47.614 1.49272 47.6498 1.49267C47.6598 1.49267 47.6823 1.47143 47.7413 1.47143C47.8062 1.47143 47.8701 1.48237 47.9184 1.48229C48.194 1.482 48.6687 1.44494 48.5368 1.52075C48.6251 1.50203 48.7134 1.48331 48.8017 1.4646C49.3788 1.46833 49.9394 1.46083 50.5112 1.45703C50.6398 1.45618 50.7472 1.47054 50.8557 1.46984C50.9643 1.46914 51.4431 1.44539 51.5231 1.44494C51.6659 1.44417 52.4774 1.44167 52.5783 1.44336C52.7754 1.4466 52.9666 1.47793 53.0469 1.4718C53.1112 1.46687 53.0517 1.44921 53.1744 1.44421C53.3869 1.43556 53.7479 1.45823 53.8128 1.45788C53.8405 1.45774 53.7886 1.44398 54.0482 1.44299C54.188 1.44243 54.2631 1.45759 54.3139 1.45752C54.3297 1.45744 54.306 1.43285 54.5828 1.43615C54.774 1.43848 54.8555 1.45745 54.8756 1.45752C54.9057 1.45764 54.9784 1.4374 55.0993 1.43811C55.382 1.43987 55.8988 1.46308 56.1673 1.46484C56.2192 1.46519 56.2015 1.44074 56.4086 1.44299C56.5567 1.44461 56.5308 1.46406 56.5863 1.46484C56.6742 1.46604 56.8052 1.44222 56.9993 1.44299C57.2436 1.44398 59.0575 1.46868 59.1514 1.47509C59.2145 1.47939 59.2878 1.47966 59.3191 1.49023C59.2922 1.50036 59.2654 1.51049 59.2386 1.52062C58.9608 1.48507 59.0729 1.5257 58.9992 1.52831C58.8924 1.53205 58.4899 1.52686 58.3925 1.53588C58.3578 1.53914 58.4372 1.56077 58.2509 1.57189C58.0509 1.58379 57.9619 1.54529 57.8822 1.59789C57.5984 1.53949 57.3258 1.60148 57.6545 1.61803C57.8379 1.62726 59.6378 1.64812 60.0054 1.65136C60.3034 1.65396 60.8615 1.63831 61.228 1.64232C61.4434 1.64472 61.9738 1.64743 61.9514 1.6754C62.1426 1.67893 61.9402 1.65108 61.9804 1.64721C62.0643 1.63912 62.661 1.65835 62.7739 1.65758C63.331 1.65392 64.0339 1.62265 64.5751 1.65795C64.5499 1.66544 64.5247 1.67292 64.4995 1.68041C64.3779 1.69415 63.8138 1.67451 63.7501 1.71044C64.5751 1.71044 65.4 1.71044 66.225 1.71044C66.2097 1.67986 67.2329 1.68027 67.2813 1.69408C67.2633 1.70889 67.2454 1.7237 67.2274 1.73851C66.6492 1.6823 66.7011 1.7566 66.3128 1.71715C66.1547 1.71659 66.2024 1.74107 66.1245 1.74571C65.3493 1.79192 66.1121 1.6955 65.5187 1.7174C65.6973 1.75289 65.2113 1.76586 64.9935 1.77037C64.9439 1.77136 64.2929 1.76236 64.2156 1.76293C63.7813 1.7661 63.0355 1.78554 62.6041 1.7661C62.2642 1.76377 62.0772 1.78906 61.7686 1.79491C61.5343 1.79935 61.6015 1.78158 61.4912 1.78136C61.2599 1.78086 61.1838 1.83496 61.0357 1.75951C60.8789 1.76891 60.722 1.77831 60.5652 1.78771C60.5652 1.77599 60.5652 1.76427 60.5652 1.75255C60.4667 1.75255 60.3682 1.75255 60.2697 1.75255C60.2407 1.76423 60.2118 1.77591 60.1828 1.78758C59.8702 1.77159 60.0007 1.74337 59.9423 1.71019C59.8747 1.70791 59.8072 1.70564 59.7397 1.70336C59.6874 1.72883 59.6351 1.7543 59.5829 1.77977C59.2813 1.7777 58.9798 1.77562 58.6782 1.77355C58.6587 1.76187 58.6392 1.75019 58.6197 1.73851C58.6191 1.75019 58.6185 1.76187 58.6178 1.77355C58.1072 1.77595 57.5966 1.77835 57.086 1.78075C56.9501 1.79948 57.7683 1.81368 57.8302 1.8148C58.1749 1.821 59.0901 1.80222 59.0913 1.84386C59.3055 1.81279 59.9505 1.8205 60.1511 1.85777C59.8466 1.85553 59.5421 1.8533 59.2375 1.85106C59.2474 1.86501 59.2572 1.87897 59.2671 1.89293C58.8876 1.83664 58.8321 1.83974 58.4421 1.89293C58.4417 1.87421 58.4413 1.85549 58.441 1.83678C58.169 1.90186 57.6883 1.79146 57.6745 1.87181C57.5297 1.8653 57.3849 1.85879 57.2401 1.85228C56.9274 1.86207 57.4129 1.92387 56.1887 1.89964C56.1043 1.89795 56.1219 1.87748 55.995 1.87889C55.9584 1.87931 55.7489 1.90909 55.3482 1.90599C55.2857 1.90549 55.281 1.88774 55.2161 1.88548C55.0662 1.88013 54.7677 1.91525 54.9032 1.85802C54.3097 1.84132 54.5557 1.8883 54.3716 1.90696C54.2489 1.91935 54.2735 1.88549 54.1673 1.89317C54.0359 1.90269 54.1324 1.93683 53.6062 1.92112C53.6652 1.91881 53.7242 1.91649 53.7833 1.91417C53.7536 1.90489 53.7239 1.89561 53.6942 1.88634C53.3938 1.9086 53.4222 1.87607 53.2806 1.9282C53.0623 1.90496 52.8734 1.9031 52.5748 1.90733C51.9947 1.91557 52.2921 1.97176 51.6301 1.8961C51.5228 1.90672 51.4156 1.91734 51.3083 1.92796C51.132 1.90563 51.2746 1.87769 51.0115 1.87205C51.2174 1.92722 50.6622 1.9071 50.5684 1.95628C50.5585 1.94456 50.5487 1.93284 50.5389 1.92112C50.4801 1.92112 50.4213 1.92112 50.3625 1.92112C50.3624 1.93052 50.3622 1.93992 50.362 1.94932C50.2837 1.94228 50.2054 1.93524 50.1272 1.9282C50.0683 1.93752 50.0094 1.94684 49.9506 1.95616C49.8538 1.9365 49.757 1.91685 49.6602 1.8972C49.5995 1.89586 49.5387 1.89451 49.478 1.89317C49.4972 1.90717 49.5164 1.92116 49.5357 1.93516C49.4576 1.93048 49.3795 1.9258 49.3014 1.92112C49.3922 1.94409 49.3351 1.97102 49.092 1.97032C48.8914 1.96975 49.1174 1.92182 48.686 1.94175C48.6559 1.94317 48.6026 1.97736 48.195 1.98265C47.7061 1.98898 47.9436 1.96422 47.8564 1.96336C47.8393 1.96322 47.69 1.98042 47.5501 1.98289C47.4707 1.98429 47.3943 1.9704 47.3838 1.97044C47.3348 1.97107 47.3205 1.99072 47.2527 1.99143C47.0804 1.99313 46.8492 1.9835 46.6804 1.98448C46.6037 1.9849 46.5316 1.99654 46.4973 1.99668C46.4442 1.99682 46.3769 1.97904 46.3232 1.97911C46.1249 1.97948 45.824 2.03848 45.7319 1.95652C45.5413 2.03188 45.1421 1.94077 45.1713 1.99131C44.662 1.97224 43.3035 2.03424 43.3434 1.94932C43.0549 2.02193 43.0807 1.96935 42.9598 1.97044C42.8247 1.97164 42.8947 1.98572 42.7873 1.98509C42.5366 1.98361 42.2969 1.97756 42.0474 1.97727C42.0866 1.96564 42.1257 1.954 42.1649 1.94236C41.9029 1.93863 41.9931 1.96571 41.7259 1.97093C41.2343 1.98044 41.4415 1.95883 41.3689 1.92833C41.3884 1.95778 40.8088 1.9532 40.7498 1.94932C40.7146 1.94696 40.8688 1.909 40.5139 1.92125C40.5333 1.93292 40.5527 1.9446 40.5721 1.95628C40.4104 1.94031 39.9711 1.96057 39.8966 1.95665C39.8624 1.95481 39.6793 1.86064 39.5117 1.93516C39.4915 1.92348 39.4713 1.91181 39.4511 1.90013C39.265 1.91417 39.0789 1.9282 38.8929 1.94224C38.8632 1.92121 38.8335 1.90017 38.8037 1.87913C38.7447 1.87913 38.6857 1.87913 38.6266 1.87913C38.6658 1.89781 38.705 1.91649 38.7442 1.93516C38.3796 1.92671 37.9342 1.95616 37.859 1.89317C37.781 1.90485 37.7029 1.91653 37.6248 1.9282C37.5739 1.90725 37.5231 1.88629 37.4723 1.86534C37.1107 1.87063 37.1047 1.88463 36.8575 1.90696C36.8671 1.89061 36.8768 1.87425 36.8864 1.85789C36.7041 1.88086 36.3712 1.90225 36.108 1.90513C35.9829 1.90647 35.7681 1.88393 35.7386 1.88597C35.7088 1.88812 35.4154 1.97668 35.3835 1.90001C34.9516 1.93396 34.7614 1.89928 34.5862 1.90013C34.4723 1.9007 34.4204 1.9191 34.2918 1.921C34.1077 1.92375 33.9224 1.91485 33.8162 1.91612C33.7554 1.91689 33.744 1.93484 33.7021 1.93541C33.504 1.93814 33.6201 1.9198 33.4113 1.921C33.392 1.92121 33.2393 1.9431 33.0673 1.94029C32.9711 1.93873 32.7222 1.91411 32.7003 1.91417C32.6029 1.91459 32.6807 1.96382 32.3479 1.90696C32.3576 1.91632 32.3672 1.92568 32.3769 1.93504C31.965 1.95878 31.9 1.91706 31.8168 1.91417C31.8062 1.91393 31.7059 1.93006 31.6459 1.92784C31.5445 1.92404 31.5037 1.90196 31.4812 1.90098C31.4022 1.8976 31.1358 1.90732 30.9617 1.88597C30.9983 1.94881 30.3884 1.97116 30.2532 1.90001C30.1452 1.91404 30.0373 1.92808 29.9293 1.94212C29.8804 1.9304 29.8316 1.91868 29.7828 1.90696C29.7531 1.91864 29.7234 1.93032 29.6937 1.942C29.5363 1.91628 29.3789 1.89057 29.2216 1.86485C29.2116 1.89061 29.2015 1.91636 29.1915 1.94212C29.1475 1.93919 29.1034 1.93626 29.0593 1.93333C29.0249 1.91286 28.9905 1.8924 28.9562 1.87193C28.9011 1.87584 28.846 1.87974 28.7909 1.88365C28.7773 1.89846 28.7637 1.91327 28.75 1.92808C28.454 1.94516 28.6061 1.80389 28.0421 1.92808C27.9543 1.9164 27.8665 1.90473 27.7788 1.89305C27.6797 1.94988 27.494 1.91547 27.3441 1.92186C27.2385 1.92636 27.2442 1.94894 27.1003 1.94944C26.9563 1.94994 26.9615 1.92835 26.9503 1.9282C26.8329 1.92688 26.7444 1.94591 26.6583 1.94212C26.6453 1.94156 26.6128 1.91592 26.5031 1.91429C26.3934 1.91267 26.3272 1.93994 26.1638 1.9348C26.08 1.93219 26.0558 1.91059 25.9815 1.90867C25.6274 1.89937 25.2709 2.00877 25.0054 1.87901C24.9455 1.89545 24.5114 1.953 24.3255 1.94969C24.0366 1.9444 24.1479 1.91895 24.033 1.91429C24.0165 1.91358 23.9285 1.92218 23.6861 1.92064C23.6427 1.92036 23.6528 1.93473 23.6465 1.93492C23.3639 1.93464 22.8151 1.92329 22.5047 1.92125C22.4769 1.92103 22.3317 1.96109 22.0857 1.90721C21.721 1.94701 21.0342 1.8615 20.5532 1.92149C20.4866 1.92276 20.4056 1.90843 20.3761 1.90892C20.1218 1.91336 20.215 1.95686 19.6402 1.89317C19.6867 1.91536 19.5523 1.93538 19.3623 1.9337C19.0767 1.93116 19.2796 1.88979 19.05 1.89317C19.05 1.90485 19.05 1.91653 19.05 1.9282C18.522 1.89679 18.4169 1.94672 17.887 1.947C17.6964 1.94707 17.4149 1.92119 17.3695 1.92112C17.3519 1.9212 17.1434 1.94935 17.1235 1.94957C17.0114 1.95041 16.9481 1.93743 16.8513 1.93736C16.5315 1.93708 16.1499 1.97371 16.2189 1.90721C16.131 1.92125 16.0431 1.93528 15.9551 1.94932C15.6229 1.87831 15.3745 1.97618 15.3048 1.90721C15.2454 1.92145 15.186 1.93569 15.1266 1.94993C13.7017 1.94273 12.2768 1.93553 10.8519 1.92833C10.7952 1.95052 10.1739 1.94264 10.142 1.93919C9.9957 1.92355 10.1502 1.87515 9.85166 1.88621C9.81862 1.90741 9.78558 1.92861 9.75253 1.94981C9.37726 1.95671 9.55776 1.93562 9.40965 1.92125C9.34775 1.92386 9.36774 1.94031 9.28397 1.94151C8.8296 1.94806 7.89793 1.94884 7.40107 1.95018C7.30088 1.95046 7.316 1.93508 7.28488 1.93504C7.19934 1.93518 7.03051 1.95456 6.85884 1.95457C5.79729 1.95443 4.29305 1.9435 3.22439 1.92723C3.15181 1.9261 3.14282 1.90776 3.09385 1.90684C3.02597 1.90565 2.87435 1.92048 2.80296 1.91893C2.73571 1.91752 2.69264 1.90359 2.62068 1.90196C2.29141 1.89435 1.8487 1.91789 1.49641 1.87681C1.46678 1.87335 1.09768 1.79951 1.08933 1.79466C1.04035 1.76592 1.36835 1.72076 0.829594 1.6787C1.31111 1.64199 1.16069 1.57711 0.535187 1.5454C0.848914 1.53722 1.16264 1.52905 1.47637 1.52087C1.47682 1.51318 1.47727 1.50549 1.47772 1.4978C1.19213 1.45968 0.908786 1.447 0.474518 1.44348C0.48806 1.43636 0.501602 1.42924 0.515144 1.42212C0.898706 1.38654 1.3614 1.37996 1.6535 1.33142C1.22512 1.29549 0.796731 1.25956 0.368347 1.22364C0.389744 1.21802 0.41114 1.21241 0.432537 1.20679C0.637891 1.19221 1.08645 1.18365 1.25698 1.17005C1.90832 1.1182 0.686927 1.13125 0.887554 1.09962C1.57523 1.10076 2.2629 1.10189 2.95057 1.10303C2.97468 1.07974 0.329179 1.0154 0.35643 0.94508C0.572563 0.94036 0.788696 0.93564 1.00483 0.93092C0.908499 0.913058 0.812169 0.895196 0.715839 0.877333C0.742382 0.871677 0.768925 0.866022 0.795467 0.860366C1.16011 0.846491 1.52476 0.832616 1.8894 0.818741C0.780754 0.832688 0.265554 0.822564 0 0.681905C0.0300636 0.678324 0.0601273 0.674743 0.0901909 0.671163C0.330361 0.759158 1.46405 0.730696 2.06654 0.713154C1.94374 0.687378 1.41324 0.70729 1.30113 0.691792C1.26936 0.687349 1.38015 0.669458 1.30655 0.660299C1.11418 0.636487 0.294453 0.605849 0.413578 0.576683C0.490291 0.557943 1.80925 0.532231 2.06654 0.534204C1.46347 0.500529 0.842097 0.490787 0.237259 0.449856C0.619039 0.392791 0.957157 0.322955 1.65404 0.319855C1.86645 0.289913 0.391197 0.248434 0.356972 0.232089C0.612287 0.214552 0.867602 0.197015 1.12292 0.179479C0.906965 0.184158 0.691012 0.188837 0.47506 0.193516C0.474428 0.187657 0.473796 0.181798 0.473164 0.175939C1.03258 0.148744 1.54437 0.0988287 2.18462 0.10221C2.16397 0.0712114 1.78088 0.0742948 1.595 0.074013ZM62.8625 1.83714C62.8754 1.86285 62.6407 1.85863 62.5085 1.85814C62.5284 1.86282 62.5482 1.8675 62.5681 1.87218C62.286 1.86731 61.761 1.85745 61.7415 1.90733C61.5403 1.91353 61.6292 1.87015 61.5644 1.86522C61.539 1.86325 61.2763 1.88849 61.0663 1.85777C61.0163 1.85789 60.9664 1.85802 60.9165 1.85814C60.9068 1.87449 60.8972 1.89085 60.8875 1.90721C60.8179 1.88735 60.7483 1.8675 60.6787 1.84764C61.4063 1.84414 62.1338 1.84064 62.8614 1.83714C62.8618 1.83714 62.8621 1.83714 62.8625 1.83714ZM55.6101 1.85826C55.3452 1.84903 54.9393 1.83446 55.0213 1.87926C55.1887 1.8769 55.3561 1.87454 55.5235 1.87218C55.5524 1.86754 55.5812 1.8629 55.6101 1.85826ZM29.2525 1.82298C29.0312 1.77888 28.8274 1.81703 28.4852 1.80907C28.4856 1.81838 28.4861 1.8277 28.4865 1.83702C28.6265 1.81465 28.9964 1.82953 29.2525 1.82298ZM69.437 1.66857C69.4857 1.67203 69.5345 1.67549 69.5832 1.67894C69.3849 1.72904 69.3495 1.69374 69.1252 1.6986C69.1117 1.6989 69.1164 1.71037 69.1117 1.71044C69.0568 1.71121 69.006 1.69741 68.9565 1.69762C68.8609 1.69804 68.7829 1.71203 68.6136 1.71154C68.4826 1.71111 68.4814 1.68912 68.4354 1.68969C68.3962 1.69023 68.0076 1.75071 67.7575 1.7246C67.2818 1.67486 69.2918 1.66392 69.437 1.66857ZM70.8467 1.70995C70.7997 1.71015 70.7526 1.71036 70.7056 1.71056C70.847 1.67676 70.5616 1.6819 70.3521 1.68261C70.3586 1.6502 70.8017 1.66406 71 1.65441C70.9489 1.67292 70.8978 1.69144 70.8467 1.70995ZM64.8984 1.64049C65.0825 1.63719 65.0518 1.67764 65.0442 1.68969C64.9856 1.68969 64.927 1.68969 64.8684 1.68969C64.8784 1.67329 64.8884 1.65689 64.8984 1.64049ZM66.2827 1.62646C66.2255 1.65393 65.8259 1.66595 65.6365 1.6682C65.6282 1.66821 65.6802 1.65313 65.5463 1.65453C65.5061 1.65497 65.1104 1.70984 65.1975 1.64757C65.559 1.64053 65.9206 1.63349 66.2822 1.62646C66.2824 1.62646 66.2825 1.62646 66.2827 1.62646ZM66.6863 1.64269C66.611 1.65132 66.5357 1.65994 66.4604 1.66857C66.4215 1.65567 66.3826 1.64277 66.3437 1.62987C66.4293 1.62662 66.515 1.62336 66.6007 1.62011C66.6292 1.62764 66.6577 1.63516 66.6863 1.64269ZM10.0369 1.60607C10.0544 1.61986 10.0719 1.63366 10.0895 1.64745C10.1573 1.65591 10.4872 1.59585 10.3828 1.58422C10.2675 1.5915 10.1522 1.59879 10.0369 1.60607ZM8.6437 1.57714C8.57509 1.57018 8.50647 1.56323 8.43786 1.55627C8.35895 1.57966 8.28005 1.60306 8.20114 1.62646C8.54391 1.64223 8.90863 1.66041 8.84981 1.59142C8.92827 1.59142 9.00672 1.59142 9.08517 1.59142C9.01911 1.61995 9.028 1.62935 9.23333 1.64745C9.27823 1.60776 9.49054 1.62798 9.73357 1.61925C9.5568 1.61693 9.38003 1.61462 9.20326 1.6123C9.20326 1.6053 9.20326 1.5983 9.20326 1.5913C9.59728 1.59383 9.10757 1.54944 8.8509 1.57726C8.83067 1.56795 8.81045 1.55863 8.79023 1.54931C8.74138 1.55859 8.69254 1.56786 8.6437 1.57714ZM37.1237 1.5913C37.0749 1.58426 37.026 1.57722 36.9772 1.57018C36.7879 1.66187 37.1733 1.57489 37.4476 1.64745C37.357 1.59233 37.7753 1.59464 37.7992 1.59093C37.7511 1.57238 37.703 1.55383 37.6548 1.53527C37.4778 1.55395 37.3007 1.57262 37.1237 1.5913ZM35.7392 1.52807C35.9085 1.57379 35.0765 1.5766 34.7974 1.56652C34.7296 1.56404 34.6086 1.53894 34.5596 1.54211C34.5299 1.55138 34.5002 1.56066 34.4705 1.56994C34.4353 1.53788 33.8903 1.57392 33.6756 1.59118C33.6554 1.5795 33.6352 1.56782 33.6149 1.55615C33.5367 1.56078 33.4584 1.56542 33.3801 1.57006C33.3899 1.55842 33.3998 1.54679 33.4096 1.53515C33.3504 1.54915 33.2912 1.56314 33.232 1.57714C32.9995 1.59271 33.1428 1.52927 32.9682 1.54907C32.774 1.57105 33.0921 1.60883 33.0862 1.63341C33.2438 1.62707 33.6021 1.61288 33.762 1.61217C33.8538 1.61179 33.7497 1.65585 34.1455 1.60522C34.2323 1.61702 34.319 1.62882 34.4058 1.64062C34.565 1.62186 34.7243 1.6031 34.8836 1.58434C34.9133 1.60066 34.943 1.61698 34.9727 1.63329C34.9897 1.63585 35.358 1.5988 35.3383 1.58654C35.4875 1.61773 35.7938 1.62329 36.1164 1.62487C36.1475 1.616 36.1786 1.60713 36.2096 1.59826C35.8976 1.61741 36.1103 1.58887 36.0173 1.57189C35.9636 1.5621 35.7993 1.54286 35.7392 1.52807ZM12.211 1.5703C11.687 1.61011 12.0114 1.57727 11.445 1.57726C11.4846 1.59834 11.5241 1.61942 11.5637 1.64049C11.8421 1.60198 12.3003 1.62759 12.2115 1.5703C12.2113 1.5703 12.2112 1.5703 12.211 1.5703ZM6.66871 1.64037C6.96843 1.62762 6.81802 1.59484 7.19794 1.58434C7.19812 1.58434 7.1983 1.58434 7.19848 1.58434C7.00203 1.58198 6.80558 1.57962 6.60912 1.57726C6.62899 1.5983 6.64885 1.61934 6.66871 1.64037ZM24.1898 1.61486C24.4772 1.62402 24.4207 1.60762 24.6814 1.64037C25.0697 1.60064 24.741 1.60625 24.741 1.57018C24.6523 1.58076 24.5635 1.59134 24.4748 1.60192C24.2596 1.56819 24.4637 1.55121 24.4637 1.54797C24.4635 1.54797 24.4633 1.54797 24.4631 1.54797C24.4631 1.53714 24.4701 1.53486 24.3876 1.52831C24.3217 1.55716 24.2558 1.58601 24.1898 1.61486ZM25.4197 1.5703C25.3212 1.59426 25.2769 1.62501 25.5359 1.64037C25.5361 1.64037 25.5363 1.64037 25.5365 1.64037C25.5573 1.58684 25.8057 1.63005 25.9189 1.62646C25.9486 1.62064 25.9783 1.61482 26.008 1.609C25.8119 1.5961 25.6158 1.5832 25.4197 1.5703ZM29.7532 1.52111C29.7543 1.58025 29.5369 1.58588 29.8429 1.64037C29.9023 1.63931 29.9617 1.63826 30.0211 1.6372C30.0601 1.62422 30.0991 1.61124 30.1381 1.59826C30.8917 1.70527 31.1163 1.52305 29.8429 1.59118C29.8427 1.59122 29.8425 1.59126 29.8424 1.5913C29.8126 1.5679 29.7829 1.54451 29.7532 1.52111ZM28.4261 1.52612C28.4165 1.55716 28.407 1.58821 28.3974 1.61925C28.231 1.54436 28.016 1.61582 27.6897 1.56298C27.6602 1.57242 27.6306 1.58186 27.6011 1.5913C27.4792 1.57053 26.2813 1.56454 26.5408 1.6123C26.6541 1.63315 26.9009 1.60483 26.9221 1.60546C26.9941 1.6078 27.088 1.63447 27.2095 1.63293C27.2797 1.63199 27.4277 1.60064 27.5711 1.6007C27.8915 1.60084 28.4763 1.68501 28.8976 1.60534C28.928 1.6147 28.9583 1.62405 28.9887 1.63341C29.3013 1.6277 29.1969 1.59805 29.4878 1.63341C29.6888 1.48595 28.3184 1.64069 28.6038 1.52111C28.6036 1.52111 28.6034 1.52111 28.6032 1.52111C28.5442 1.52278 28.4852 1.52445 28.4261 1.52612ZM19.8179 1.5703C19.799 1.54382 19.4364 1.58468 19.5216 1.52123C19.4032 1.54333 19.2849 1.56542 19.1665 1.58752C19.1674 1.59342 19.1683 1.59932 19.1692 1.60522C19.2869 1.60058 19.4045 1.59594 19.5221 1.5913C19.5226 1.60066 19.523 1.61002 19.5235 1.61938C19.6988 1.58552 20.4303 1.60027 20.4081 1.63341C20.4472 1.61942 20.4862 1.60542 20.5253 1.59142C20.8753 1.62954 21.1763 1.58901 21.5575 1.62621C21.587 1.61462 21.6166 1.60302 21.6461 1.59142C21.6653 1.60078 21.6845 1.61014 21.7038 1.6195C21.8426 1.62068 21.9815 1.62186 22.1203 1.62304C22.5728 1.58536 21.6936 1.53657 21.587 1.54211C21.5729 1.54288 21.5751 1.56711 21.4866 1.57092C21.3293 1.57759 20.4494 1.55347 20.1773 1.56945C20.175 1.55338 20.1726 1.53731 20.1703 1.52123C20.0528 1.53759 19.9353 1.55395 19.8179 1.5703ZM31.4346 1.58434C31.4545 1.6007 31.4744 1.61706 31.4942 1.63341C31.837 1.61708 32.0528 1.63136 31.965 1.57726C31.9648 1.57726 31.9646 1.57726 31.9644 1.57726C31.7878 1.57962 31.6112 1.58198 31.4346 1.58434ZM56.9083 1.59826C56.8993 1.56574 56.7354 1.55359 56.5237 1.5769C56.5339 1.58634 56.5441 1.59578 56.5543 1.60522C56.6646 1.57753 56.8023 1.62579 57.1428 1.61938C57.1428 1.60302 57.1428 1.58666 57.1428 1.5703C57.0647 1.57962 56.9865 1.58894 56.9083 1.59826ZM31.1389 1.57726C31.0344 1.55798 30.7412 1.61649 30.9341 1.61938C31.0816 1.62156 31.1949 1.58762 31.1389 1.57726ZM5.48973 1.60876C5.56719 1.61217 5.64465 1.61559 5.72211 1.61901C5.76247 1.60509 5.80282 1.59118 5.84318 1.57726C5.843 1.57726 5.84282 1.57726 5.84264 1.57726C5.725 1.58776 5.60736 1.59826 5.48973 1.60876ZM23.2075 1.61754C23.4702 1.61551 23.7329 1.61348 23.9957 1.61144C23.9983 1.60237 24.0009 1.59329 24.0035 1.58422C23.7403 1.61733 23.6345 1.58164 23.5731 1.57946C23.5734 1.57946 23.5737 1.57946 23.5739 1.57946C23.3769 1.57228 23.1892 1.56699 23.0027 1.55615C23.071 1.57661 23.1392 1.59708 23.2075 1.61754ZM22.3069 1.5603C22.3512 1.62441 22.409 1.63187 22.8126 1.58678C22.7966 1.57889 22.7806 1.571 22.7647 1.5631C22.5555 1.56782 22.4335 1.58262 22.4703 1.54919C22.4158 1.55289 22.3614 1.55659 22.3069 1.5603ZM26.4211 1.5808C26.3726 1.56039 25.9882 1.58089 26.0091 1.59118C26.0174 1.59526 26.5155 1.62082 26.4211 1.5808ZM59.8266 1.5841C59.7381 1.57942 59.6495 1.57474 59.5609 1.57006C59.6787 1.5631 59.7966 1.55615 59.9144 1.54919C59.8851 1.56082 59.8559 1.57246 59.8266 1.5841ZM60.799 1.49291C60.8621 1.50109 60.6568 1.55873 61.0343 1.5736C60.7596 1.57482 60.4849 1.57604 60.2101 1.57726C60.339 1.56795 60.4678 1.55863 60.5966 1.54931C60.5742 1.53275 60.5517 1.51619 60.5292 1.49963C60.6191 1.49739 60.709 1.49515 60.799 1.49291ZM61.0939 1.53515C60.946 1.49134 61.725 1.48805 61.7976 1.4934C61.8137 1.49468 61.8906 1.52789 61.9189 1.53503C61.8013 1.53507 61.6836 1.53511 61.566 1.53515C61.6053 1.54561 61.6447 1.55606 61.6841 1.56652C61.5464 1.5701 61.4087 1.57368 61.271 1.57726C61.3299 1.56677 61.3888 1.55627 61.4476 1.54577C61.3297 1.54223 61.2118 1.53869 61.0939 1.53515ZM57.9684 1.54577C58.0669 1.54687 58.1654 1.54797 58.2639 1.54907C58.2442 1.53271 58.2245 1.51635 58.2048 1.49999C58.1459 1.49999 58.0869 1.49999 58.028 1.49999C58.0081 1.51525 57.9882 1.53051 57.9684 1.54577ZM59.9753 1.52465C59.8319 1.60341 59.4411 1.43123 59.8979 1.49499C59.9439 1.50147 59.9889 1.51704 59.9753 1.52465ZM62.0895 1.5028C62.3958 1.44538 62.3267 1.57216 62.0375 1.53503C62.023 1.53305 62.0665 1.50704 62.0895 1.5028ZM64.3857 1.50097C64.4105 1.5014 64.4539 1.54244 64.6907 1.50341C64.7298 1.50809 64.7689 1.51277 64.808 1.51745C64.7165 1.53652 63.9339 1.54787 64.042 1.5072C64.1618 1.50656 64.2618 1.4997 64.3857 1.50097ZM63.6279 1.34912C63.5105 1.35026 63.393 1.3514 63.2755 1.35254C63.3143 1.3654 63.353 1.37825 63.3917 1.39111C63.334 1.39461 63.2762 1.39811 63.2184 1.40161C63.1196 1.37943 63.0209 1.35726 62.9221 1.33508C63.1774 1.33154 63.4327 1.328 63.688 1.32446C63.668 1.33268 63.648 1.3409 63.6279 1.34912ZM60.5051 1.31738C60.7311 1.33352 61.008 1.31634 61.375 1.31909C61.3752 1.31913 61.3754 1.31917 61.3756 1.31921C61.3939 1.3194 61.4263 1.33706 61.4853 1.33777C61.5355 1.33833 62.5268 1.31893 62.4495 1.34888C62.0659 1.37571 61.9227 1.33491 61.8306 1.40149C61.8119 1.38745 61.7932 1.37341 61.7745 1.35937C61.4057 1.33507 61.3005 1.38366 61.0934 1.40149C61.0942 1.39091 61.095 1.38033 61.0958 1.36975C60.9575 1.36869 60.8192 1.36763 60.6809 1.36658C60.7004 1.37353 60.7199 1.38049 60.7394 1.38745C60.6904 1.38745 60.6415 1.38745 60.5926 1.38745C60.4734 1.3561 60.3222 1.3488 60.5051 1.31738ZM64.1607 1.36658C64.2692 1.28633 65.3273 1.3413 65.8106 1.32446C65.5569 1.37278 65.1638 1.33948 64.8871 1.33899C64.3521 1.33808 64.7219 1.36765 64.6311 1.38061C64.5863 1.38702 64.2828 1.33558 64.1607 1.36658ZM59.6796 1.33142C59.9463 1.3379 60.0956 1.31943 60.3263 1.34888C60.307 1.35474 60.2877 1.36059 60.2684 1.36645C60.1893 1.36109 59.5451 1.34417 59.6796 1.33142ZM66.5189 1.34546C66.0037 1.31664 66.2578 1.3893 65.9899 1.33484C66.1663 1.33138 66.3426 1.32792 66.5189 1.32446C66.5189 1.33146 66.5189 1.33846 66.5189 1.34546ZM30.5493 1.27539C30.3322 1.27356 30.0897 1.25891 29.9599 1.28919C30.1074 1.29386 30.2549 1.29854 30.4025 1.30322C30.4514 1.29395 30.5003 1.28467 30.5493 1.27539ZM36.7402 0.979625C36.6906 0.972368 36.4946 0.993785 36.474 0.993785C36.4356 0.993784 36.4461 0.983235 36.4455 0.980479C36.1943 0.982391 36.4261 1.01511 36.2402 1.02223C36.2084 1.0234 35.7718 1.00723 35.5943 1.00855C35.321 1.0106 35.0482 1.00848 34.9461 1.00904C34.7738 1.00996 34.4539 1.03451 34.1707 1.03578C34.0539 1.03626 34.0132 1.01661 33.8958 1.0171C33.1422 1.02041 31.6588 1.04739 30.9902 1.03492C30.825 1.03182 30.6675 1.00609 30.5801 1.00819C30.5112 1.01759 30.4424 1.02699 30.3735 1.03639C30.1616 0.951776 30.0908 1.02703 29.8624 1.03492C29.7173 1.03991 29.6495 1.01484 29.63 1.0149C29.5008 1.0154 29.4371 1.02733 29.3356 1.02931C29.2217 1.03149 29.0581 1.02018 29.0174 1.02223C28.9924 1.0236 29.0722 1.05692 28.6303 1.05628C28.18 1.05563 27.7354 1.0521 27.2775 1.05055C27.4302 1.15114 27.5618 1.08229 27.7487 1.07862C27.7989 1.07763 27.7671 1.09361 27.8108 1.0929C27.9341 1.091 28.1702 1.07531 28.2723 1.07911C28.3825 1.08321 28.3448 1.12023 28.4846 1.10657C28.4917 1.10587 28.4693 1.09058 28.5022 1.08802C28.8327 1.06273 28.9408 1.08932 29.3586 1.0901C29.6354 1.09066 31.3165 1.07548 31.3742 1.08546C31.6752 1.139 29.9038 1.13936 29.6966 1.13514C29.6241 1.13365 29.7002 1.11677 29.6341 1.11353C29.6061 1.11224 29.3542 1.14442 29.1054 1.1471C28.8044 1.15034 28.1997 1.12838 27.9129 1.12916C25.4475 1.13585 23.0163 1.1164 20.5532 1.11597C20.5007 1.11597 20.4316 1.13526 20.2604 1.13526C17.0668 1.13491 13.7569 1.1197 10.5225 1.12879C9.8174 1.13076 9.11807 1.1489 8.40644 1.13453C8.31815 1.14861 8.22985 1.16268 8.14156 1.17676C8.3674 1.16557 8.78124 1.19741 8.81894 1.19788C8.83251 1.19802 8.91814 1.18215 9.05619 1.18299C9.25034 1.18411 9.33548 1.19788 9.35141 1.19788C9.40079 1.19792 9.36844 1.18328 9.4156 1.18335C9.7673 1.18399 10.0394 1.17983 10.3622 1.17969C10.7268 1.17956 10.9116 1.20682 11.1772 1.17688C11.2072 1.18856 11.2373 1.20024 11.2674 1.21192C11.4657 1.16141 12.6471 1.16701 13.1256 1.16968C13.2766 1.17053 13.2501 1.19104 13.3009 1.19104C13.3332 1.19102 13.3205 1.16416 13.7155 1.16944C13.9144 1.17212 13.9665 1.19168 14.0663 1.19104C14.1204 1.19067 14.1116 1.17127 14.1895 1.17127C14.6397 1.17127 15.0073 1.17756 15.4481 1.18116C15.572 1.18214 15.5734 1.19834 15.6011 1.19812C15.7032 1.1974 15.8808 1.16998 16.1404 1.17005C16.5676 1.17019 17.4191 1.17028 17.7684 1.1836C17.8198 1.18557 17.8623 1.205 17.9 1.20472C17.9572 1.20422 17.9797 1.18395 17.9897 1.18384C18.1809 1.18349 18.0659 1.20234 18.1939 1.19776C18.2629 1.19529 18.3349 1.17217 18.4954 1.16956C18.7072 1.16611 18.6655 1.19355 18.754 1.1908C18.7634 1.19037 18.7662 1.17129 18.8531 1.17066C19.183 1.1684 19.6615 1.164 19.9736 1.16407C20.0633 1.16407 20.13 1.17691 20.255 1.17713C20.507 1.17755 21.9392 1.16937 22.0567 1.17676C22.0691 1.17754 21.9417 1.20568 22.1447 1.20484C22.2037 1.19312 22.2626 1.1814 22.3216 1.16968C22.4202 1.18844 22.5187 1.2072 22.6173 1.22596C22.6138 1.16115 23.1938 1.15114 23.188 1.21741C23.2515 1.2201 23.3149 1.22278 23.3784 1.22547C23.5106 1.17968 23.5986 1.19658 23.854 1.16968C23.8938 1.18372 23.9336 1.19776 23.9734 1.2118C23.9835 1.20244 23.9935 1.19308 24.0035 1.18372C24.1398 1.23444 24.3634 1.18351 24.3905 1.18323C24.4949 1.18211 24.5734 1.195 24.6224 1.19458C24.8053 1.19325 25.2012 1.17548 25.4149 1.18372C25.4249 1.18414 25.415 1.20582 25.4758 1.2085C25.5854 1.21333 25.5961 1.18159 25.7423 1.21888C25.7718 1.20952 25.8014 1.20016 25.8309 1.1908C25.8622 1.19564 25.8935 1.20048 25.9249 1.20533C26.1098 1.20284 26.2947 1.20036 26.4796 1.19788C26.3114 1.23459 26.5049 1.25508 26.6878 1.2262C26.7497 1.2164 26.6948 1.19406 26.7155 1.19068C26.7438 1.1861 27.5736 1.19747 27.6285 1.21192C27.6677 1.20488 27.707 1.19784 27.7463 1.1908C27.7662 1.20488 27.786 1.21896 27.8059 1.23304C27.8275 1.22811 27.8492 1.22319 27.8709 1.21826C28.0868 1.24306 28.6474 1.18619 28.749 1.19068C28.8032 1.19307 28.7544 1.25308 29.0147 1.24695C29.0237 1.23047 29.0327 1.21399 29.0417 1.19751C29.1013 1.19515 29.1609 1.19279 29.2205 1.19043C29.3323 1.1919 29.4951 1.22046 29.5003 1.23999C29.5352 1.22827 29.5702 1.21656 29.6051 1.20484C29.6989 1.24302 30.1993 1.22949 30.4006 1.20533C30.4594 1.21684 30.5183 1.22836 30.5771 1.23987C30.6562 1.22587 30.7353 1.21188 30.8144 1.19788C30.9976 1.19366 30.8041 1.21693 30.8431 1.21888C30.9257 1.22289 31.3467 1.18358 31.319 1.23255C31.3764 1.23267 31.4338 1.23279 31.4912 1.23291C31.5208 1.21892 31.5503 1.20492 31.5798 1.19092C31.6784 1.23918 31.8489 1.22214 32.1987 1.23975C32.228 1.22864 32.2574 1.21753 32.2867 1.20642C32.3949 1.22221 32.503 1.238 32.6112 1.25379C32.6334 1.23539 32.6556 1.217 32.6778 1.19861C32.7248 1.19597 32.7719 1.19332 32.8189 1.19068C32.9145 1.23188 33.0861 1.18736 33.1735 1.20435C33.3009 1.22915 33.2024 1.2587 32.9657 1.26441C32.9834 1.29441 33.6883 1.28063 33.8508 1.27844C33.8401 1.27258 33.8293 1.26673 33.8186 1.26087C33.6524 1.2655 33.4862 1.27014 33.32 1.27478C33.1807 1.19933 33.6321 1.21956 33.8392 1.20984C33.8581 1.20891 33.9655 1.18032 34.1742 1.18299C34.2551 1.18404 34.5704 1.22583 34.6306 1.22815C35.1167 1.24723 34.7593 1.18753 35.2348 1.23987C35.1357 1.19978 35.409 1.23309 35.6934 1.22534C35.7418 1.22402 36.1524 1.19152 36.1801 1.19068C36.353 1.18546 36.1648 1.2209 36.4149 1.21167C36.445 1.20236 36.475 1.19304 36.5051 1.18372C36.5633 1.18372 36.6216 1.18372 36.6798 1.18372C37.0331 1.26676 37.1154 1.20561 37.241 1.19776C37.2917 1.19459 37.2264 1.21625 37.358 1.21167C37.4075 1.20997 37.4625 1.19195 37.5958 1.19068C38.0129 1.18674 38.1545 1.2639 38.5381 1.1836C38.5969 1.19524 38.6558 1.20687 38.7146 1.21851C38.7544 1.20455 38.7941 1.1906 38.8338 1.17664C39.1376 1.21714 39.028 1.17566 39.1377 1.17615C39.4275 1.17742 40.0205 1.18536 40.0724 1.21875C40.3225 1.14205 40.6216 1.22858 40.7202 1.22559C40.7788 1.21627 40.8374 1.20695 40.896 1.19764C40.9649 1.20699 41.0338 1.21635 41.1027 1.22571C41.0692 1.15038 41.4259 1.22446 41.4602 1.22559C41.4997 1.22672 42.0484 1.20442 42.2527 1.20484C42.4566 1.20526 42.8121 1.22567 42.8434 1.22571C42.8794 1.22571 43.2266 1.20524 43.498 1.20545C43.7355 1.20567 45.1427 1.23475 45.054 1.20118C44.9619 1.19188 44.8309 1.18382 44.7176 1.17945C44.3659 1.16606 42.3016 1.14891 41.7741 1.14356C40.7161 1.13292 39.6127 1.1349 38.55 1.12757C38.4874 1.12715 38.4779 1.10762 38.4243 1.10718C38.3429 1.10662 38.1362 1.12616 38.056 1.12574C37.7562 1.12405 37.3915 1.12086 37.231 1.12037C36.8722 1.11938 36.6262 1.10762 36.3548 1.10572C36.2698 1.10516 35.8402 1.12936 35.5458 1.11915C35.4924 1.11365 35.4391 1.10816 35.3857 1.10267C35.5374 1.09626 35.9353 1.07967 36.12 1.07777C36.3949 1.07502 36.5382 1.09086 36.6397 1.09058C36.7247 1.09037 37.1589 1.07234 37.3566 1.07191C37.418 1.07177 37.4306 1.09224 37.4831 1.09217C37.7681 1.09168 38.1435 1.09113 38.3907 1.07105C38.2898 1.0776 38.9199 1.09017 38.953 1.0901C39.0096 1.09009 39.0711 1.07093 39.1867 1.07093C39.4091 1.07094 39.3809 1.11101 39.6588 1.07093C39.7276 1.08261 39.7964 1.09429 39.8652 1.10596C39.8694 1.05258 40.7387 1.12519 40.9859 1.06031C40.9924 1.05298 39.8628 1.03219 39.7696 1.03114C39.2102 1.02473 38.3824 1.03782 37.8395 1.02845C37.6762 1.02563 37.1625 0.99318 37.1237 0.993785C37.0612 0.9947 37.1177 1.01327 37.0907 1.01393C36.5379 1.02773 36.8137 0.990419 36.7402 0.979625ZM61.0934 1.28223C60.9254 1.28003 60.7575 1.27783 60.5896 1.27564C60.6018 1.26392 60.614 1.2522 60.6262 1.24048C60.7031 1.24504 60.78 1.2496 60.8569 1.25415C60.916 1.24715 60.9752 1.24016 61.0343 1.23316C61.054 1.24951 61.0737 1.26587 61.0934 1.28223ZM61.5072 1.23316C61.6528 1.22726 61.6599 1.25197 61.6935 1.25318C61.7938 1.25684 61.8806 1.24685 61.9779 1.24719C61.8658 1.30589 61.627 1.27899 61.5072 1.23316ZM58.4995 1.21204C58.5323 1.21485 58.7515 1.27804 59.0008 1.21924C59.1873 1.23792 59.3739 1.25659 59.5604 1.27527C59.2435 1.24674 58.805 1.2764 58.6498 1.27527C58.5909 1.27484 58.5796 1.25544 58.5325 1.25513C58.2611 1.25358 57.9972 1.29753 57.9694 1.23328C58.2261 1.25195 58.4576 1.20859 58.4995 1.21204ZM60.1376 1.23487C60.181 1.24829 60.2244 1.26172 60.2678 1.27515C60.1109 1.27515 59.954 1.27515 59.7971 1.27515C59.8395 1.26156 59.882 1.24797 59.9244 1.23438C59.9954 1.23454 60.0665 1.2347 60.1376 1.23487ZM48.0663 1.19043C48.1631 1.1906 48.2599 1.19076 48.3567 1.19092C48.3514 1.18114 48.2406 1.18117 48.1999 1.17457C48.2 1.17457 48.2002 1.17457 48.2004 1.17457C48.155 1.1671 48.1744 1.1545 48.0918 1.14893C48.0833 1.16277 48.0748 1.1766 48.0663 1.19043ZM8.02428 1.13477C7.86205 1.13407 6.36396 1.134 6.49158 1.16968C6.5559 1.18751 7.06827 1.17196 7.21933 1.17225C7.42298 1.17261 7.97295 1.2112 8.02428 1.13477ZM5.3711 1.12781C5.34514 1.16338 6.28141 1.16903 6.37295 1.16285C6.35351 1.15778 6.32355 1.14649 6.29765 1.14393C6.17138 1.13167 5.57294 1.13753 5.3711 1.12781ZM42.6465 1.08778C42.722 1.10576 42.7974 1.12374 42.8729 1.14173C42.853 1.11833 42.8332 1.09494 42.8133 1.07154C42.7577 1.07695 42.7021 1.08236 42.6465 1.08778ZM35.325 1.11353C34.0677 1.11239 32.8103 1.11125 31.553 1.11011C31.6636 1.10039 31.7742 1.09066 31.8848 1.08094C32.9682 1.08439 34.1236 1.09424 35.1698 1.07923C35.2216 1.09066 35.2733 1.1021 35.325 1.11353ZM58.1452 1.1067C57.8231 1.10635 57.554 1.12353 57.2035 1.0962C57.5375 1.06971 57.7029 1.11069 58.0274 1.07166C58.0276 1.07166 58.0278 1.07166 58.028 1.07166C58.067 1.08334 58.1061 1.09502 58.1452 1.1067ZM50.9527 1.09962C51.0507 1.08326 51.1486 1.0669 51.2466 1.05055C51.1288 1.05055 51.0109 1.05055 50.8931 1.05055C50.913 1.0669 50.9328 1.08326 50.9527 1.09962ZM24.3575 1.02259C24.0205 1.05829 23.1585 0.993678 22.8847 1.03663C22.867 1.03945 23.0298 1.05757 22.7666 1.09266C22.9654 1.08547 23.1057 1.07814 23.1206 1.05055C23.1796 1.0599 23.2386 1.06926 23.2977 1.07862C23.3956 1.07154 23.4936 1.06446 23.5916 1.05738C23.5809 1.08486 23.5887 1.08339 23.7392 1.06458C23.8078 1.07154 23.8764 1.0785 23.945 1.08546C23.9741 1.07382 24.0031 1.06218 24.0322 1.05055C24.0916 1.06682 24.151 1.0831 24.2104 1.09937C24.442 1.08172 24.301 1.05018 24.3575 1.02259ZM25.537 1.02931C25.4822 1.02326 23.9199 1.04299 24.63 1.09779C24.8145 1.09604 24.999 1.09429 25.1836 1.09254C25.0307 1.00179 25.5336 1.08294 25.5749 1.08485C25.7726 1.09371 26.0244 1.07213 26.1678 1.07325C26.2911 1.07424 26.3644 1.09051 26.4511 1.0901C26.7466 1.08869 27.2132 1.08809 27.2775 1.05055C27.0478 1.04976 26.8145 1.04936 26.5757 1.0503C26.3231 1.05129 26.1011 1.01585 25.6267 1.06446C25.5094 1.05924 25.5512 1.03086 25.537 1.02931ZM51.5415 1.05433C51.5297 1.09205 52.126 1.08303 52.1298 1.06812C52.131 1.05939 51.9368 1.05959 51.9091 1.05628C51.9089 1.05628 51.9087 1.05628 51.9085 1.05628C51.897 1.05484 51.9556 1.0404 51.8644 1.03639C51.7568 1.04237 51.6491 1.04835 51.5415 1.05433ZM10.3543 1.05042C10.2737 1.02926 8.43251 1.03687 8.37827 1.04701C8.36354 1.04982 8.38408 1.0591 8.37827 1.06446C8.80782 1.0346 9.41847 1.06994 9.8262 1.07227C9.93986 1.0729 9.90589 1.05791 9.91233 1.05763C9.9126 1.05763 9.91287 1.05763 9.91314 1.05763C9.97764 1.05759 10.2688 1.09422 10.3543 1.05042ZM22.295 1.05384C22.3733 1.05974 22.4516 1.06564 22.5298 1.07154C22.5497 1.05986 22.5696 1.04819 22.5894 1.03651C22.5893 1.03651 22.5891 1.03651 22.5889 1.03651C22.4909 1.04229 22.393 1.04806 22.295 1.05384ZM19.5831 1.01539C19.6021 1.02361 19.6212 1.03183 19.6402 1.04005C19.8373 1.04119 20.0344 1.04233 20.2315 1.04347C20.2116 1.0481 20.1917 1.05274 20.1719 1.05738C20.4699 1.06978 20.5933 1.0409 20.752 1.04505C20.7518 1.04505 20.7517 1.04505 20.7515 1.04505C20.7686 1.04554 20.7892 1.06266 20.8528 1.06324C20.9985 1.06458 21.416 1.07095 21.4665 1.05372C21.5733 1.01695 20.7329 1.0344 20.5763 1.03272C20.5054 1.03195 20.4203 1.01696 20.3772 1.01661C20.33 1.01628 20.2657 1.03652 20.1508 1.0359C20.1171 1.03569 19.7442 1.01188 19.5831 1.01539ZM16.1044 1.03993C16.1651 1.05845 16.292 1.04056 16.3386 1.04359C16.3498 1.0443 16.2632 1.05981 16.3682 1.06446C16.3979 1.05388 16.4276 1.0433 16.4573 1.03272C16.3396 1.03512 16.222 1.03753 16.1044 1.03993ZM52.5434 1.03651C52.5262 1.03253 52.2061 1.03399 52.1907 1.03651C51.999 1.07032 52.662 1.06666 52.5434 1.03651ZM60.6218 0.997813C60.4746 0.948661 62.2217 0.996982 62.391 0.994395C62.3825 1.02529 61.9669 0.994228 62.1846 1.03663C61.9769 1.01331 61.4026 1.02569 61.2675 1.01893C61.1855 1.01484 61.1648 0.988161 61.1524 0.987315C61.1038 0.98431 60.6737 1.01514 60.6218 0.997813ZM63.8346 1.01539C63.6685 1.00953 63.5025 1.00367 63.3365 0.997813C63.5324 0.994314 63.7283 0.990814 63.9242 0.987315C63.8943 0.996674 63.8644 1.00603 63.8346 1.01539ZM64.0434 1.00135C64.0381 0.97141 64.6016 0.994219 64.7497 0.987315C64.5828 1.03825 64.3042 0.990229 64.0434 1.00135ZM54.6668 0.95924C54.4071 0.939443 54.2956 1.03071 54.6113 0.990977C54.6209 0.989664 54.6776 0.960289 54.6668 0.95924ZM24.2773 0.894178C24.2331 0.893615 23.6825 0.864022 23.6506 0.878676C23.5498 0.925424 23.9111 0.906676 24.0322 0.924329C24.2275 0.952932 23.9403 0.976501 24.4171 0.95924C24.3976 0.968598 24.3781 0.977957 24.3586 0.987315C24.6376 0.990414 24.5463 0.925586 24.5964 0.917249C24.6117 0.914715 24.7862 0.920165 24.8177 0.916028C25.2109 0.8638 24.3184 0.894614 24.2773 0.894178ZM48.2394 0.952282C47.7225 0.924806 47.9449 0.965122 47.4144 0.962658C47.3967 0.98323 48.1721 0.970318 48.2394 0.952282ZM29.3107 0.931164C28.7761 0.939263 28.3364 0.912358 27.8378 0.948498C27.8703 1.00416 29.4494 0.945537 29.3107 0.931164ZM4.19212 0.87477C6.27216 0.973892 8.67142 0.94126 10.886 0.939709C11.1274 0.939568 11.1505 0.961635 11.2378 0.95924C11.295 0.957688 11.285 0.939915 11.3611 0.939831C14.1092 0.936943 16.7405 0.913691 19.3729 0.924329C19.5387 0.925033 20.3454 0.963202 20.5178 0.905653C20.6481 0.861992 20.0686 0.896034 19.972 0.895643C19.8994 0.895361 19.8963 0.874843 19.848 0.87477C19.7966 0.874699 19.839 0.888718 19.7794 0.888929C19.5269 0.889915 19.2513 0.884436 19.023 0.885634C16.7836 0.897117 14.6049 0.893832 12.3773 0.891859C12.1076 0.891647 12.1631 0.875206 12.1495 0.875136C12.1493 0.875177 12.1491 0.875217 12.149 0.875258C10.7032 0.873708 9.05209 0.910588 7.52078 0.896498C6.44246 0.885186 5.36415 0.873875 4.28583 0.862563C4.25459 0.866632 4.22335 0.870701 4.19212 0.87477ZM25.4189 0.95216C25.2844 0.890163 25.2543 0.952673 24.7716 0.92738C24.7323 0.93796 24.6931 0.948539 24.6538 0.959118C24.9091 0.956798 25.1644 0.954479 25.4197 0.95216C25.4195 0.95216 25.4192 0.95216 25.4189 0.95216ZM22.2308 0.929578C22.1493 0.845845 21.0699 0.905021 20.5838 0.889052C20.4947 0.931102 21.2013 0.912212 21.3679 0.916639C21.4511 0.918823 21.8967 0.962071 22.2354 0.938122C22.2339 0.935274 22.2324 0.932426 22.2308 0.929578ZM58.7939 0.87477C58.7154 0.877211 58.6368 0.879652 58.5583 0.882094C58.7548 0.891371 58.9513 0.900648 59.1479 0.909925C58.8343 0.903944 58.5208 0.897962 58.2072 0.891981C58.2657 0.874607 58.3241 0.857233 58.3825 0.839859C58.5196 0.851496 58.6568 0.863133 58.7939 0.87477ZM57.7766 0.883681C58.3257 0.877138 57.7525 0.923649 57.6155 0.902967C57.5334 0.890568 57.7206 0.884385 57.7766 0.883681ZM56.3485 0.853774C56.6045 0.823272 57.122 0.821171 56.9381 0.882094C56.6613 0.853561 56.4829 0.87727 56.0817 0.860854C56.1403 0.849176 56.1989 0.837499 56.2574 0.825821C56.2577 0.825821 56.258 0.825821 56.2583 0.825821C56.2883 0.835139 56.3184 0.844457 56.3485 0.853774ZM58.0274 0.846816C58.387 0.881816 57.3459 0.869849 57.6731 0.846816C57.6885 0.84576 58.0132 0.845478 58.0274 0.846816ZM6.49158 0.811783C6.44825 0.831691 6.72485 0.831319 6.81686 0.832657C7.21573 0.838573 7.72729 0.829911 8.1421 0.832657C8.11086 0.826106 8.07962 0.819555 8.04839 0.813004C7.52945 0.812597 7.01051 0.81219 6.49158 0.811783ZM9.43971 0.832779C9.72473 0.832779 10.0097 0.832779 10.2948 0.832779C10.3213 0.832779 10.4459 0.815696 10.3533 0.811539C10.0487 0.818619 9.74423 0.825699 9.43971 0.832779ZM27.2181 0.832779C26.9996 0.821631 27.6289 0.764488 27.6006 0.825699C27.4731 0.828059 27.3456 0.830419 27.2181 0.832779ZM29.2516 0.808366C29.1146 0.814184 28.9775 0.820003 28.8405 0.825821C28.8403 0.818782 28.8401 0.811743 28.84 0.804704C28.9772 0.805924 29.1144 0.807145 29.2516 0.808366ZM5.3711 0.797746C5.51626 0.821834 5.86257 0.818127 6.07854 0.818619C5.92979 0.797923 5.57524 0.808098 5.3711 0.797746ZM23.9439 0.808121C23.9616 0.824537 23.0923 0.820406 23.3933 0.79152C23.5768 0.797054 23.7604 0.802588 23.9439 0.808121ZM22.1783 0.78383C22.3647 0.780239 22.5092 0.785878 22.4708 0.811661C22.3719 0.810563 22.2731 0.809464 22.1742 0.808366C22.1756 0.800187 22.1769 0.792009 22.1783 0.78383ZM55.3737 0.804704C55.0595 0.807023 54.7453 0.809342 54.4311 0.811661C54.4428 0.804622 54.4544 0.797583 54.4661 0.790544C54.769 0.788265 55.0719 0.785987 55.3748 0.783708C55.3744 0.790707 55.374 0.797705 55.3737 0.804704ZM5.19342 0.734515C4.97765 0.739113 4.76188 0.743711 4.54611 0.748309C4.76206 0.753029 4.97801 0.757749 5.19397 0.762468C5.19397 0.75311 5.19397 0.743752 5.19397 0.734393C5.19379 0.734434 5.1936 0.734475 5.19342 0.734515ZM59.6777 0.71352C58.7179 0.680692 59.9425 0.64599 60.1958 0.694233C60.1961 0.694193 60.1963 0.694152 60.1966 0.694111C60.2188 0.698375 60.1719 0.718994 60.2088 0.727313C60.1111 0.717996 60.0134 0.708678 59.9157 0.69936C59.8266 0.710956 59.7375 0.722553 59.6484 0.734149C59.6191 0.729592 59.5897 0.725035 59.5604 0.720478C59.5995 0.718158 59.6386 0.715839 59.6777 0.71352ZM63.5513 0.69521C64.4215 0.699017 63.5311 0.750578 63.1003 0.709858C63.1034 0.700434 63.4711 0.694858 63.5513 0.69521ZM61.2705 0.706318C61.1334 0.710997 60.9962 0.715676 60.8591 0.720356C60.8416 0.714456 60.824 0.708556 60.8065 0.702656C60.9118 0.696797 61.0171 0.690937 61.1223 0.685078C61.1717 0.692158 61.2211 0.699238 61.2705 0.706318ZM56.7604 0.615256C56.5397 0.608775 56.2582 0.674378 56.9668 0.657125C56.9664 0.650086 56.9661 0.643047 56.9657 0.636008C56.9375 0.637132 56.8546 0.643735 56.8501 0.643209C56.8371 0.641449 56.8524 0.617943 56.7604 0.615256ZM65.1628 0.509791C65.1876 0.507112 65.201 0.432862 65.4588 0.509669C65.5367 0.504989 65.6146 0.50031 65.6926 0.495631C65.7127 0.511988 65.7328 0.528345 65.7529 0.544702C65.4514 0.53202 65.4194 0.565115 65.3976 0.565819C65.2974 0.568916 65.3715 0.551894 65.3069 0.55166C65.1399 0.551096 64.7605 0.562526 64.9326 0.513941C64.9945 0.496539 65.138 0.512468 65.1628 0.509791ZM64.5732 0.467556C64.6097 0.473753 64.4919 0.495474 64.5195 0.501612C64.5437 0.506966 64.9071 0.529125 64.8088 0.565819C64.7491 0.564273 64.6894 0.562727 64.6298 0.561181C64.6095 0.551131 64.5893 0.54108 64.5691 0.53103C64.5113 0.540307 64.4535 0.549584 64.3958 0.558861C64.2984 0.534062 64.0912 0.501935 64.3373 0.481715C64.2468 0.483831 64.1563 0.485947 64.0659 0.488063C64.019 0.499944 63.9722 0.511825 63.9253 0.523706C63.9499 0.5056 63.9744 0.487493 63.999 0.469387C64.1904 0.468776 64.3818 0.468166 64.5732 0.467556ZM67.3775 0.474513C67.3664 0.483872 67.3554 0.49323 67.3444 0.502589C67.6766 0.485191 68.194 0.478575 67.9002 0.537256C67.4502 0.542138 67.0001 0.547021 66.55 0.551904C66.5201 0.544864 66.4903 0.537825 66.4604 0.530786C66.7962 0.557907 66.6924 0.4425 66.9845 0.475612C67.0337 0.481225 66.8908 0.521583 67.2003 0.495753C67.1893 0.486354 67.1783 0.476955 67.1673 0.467556C67.2373 0.469875 67.3074 0.472194 67.3775 0.474513ZM70.2335 0.488551C69.6647 0.475024 70.2913 0.440872 70.3963 0.469265C70.3961 0.469265 70.3959 0.469265 70.3958 0.469265C70.6836 0.546958 70.0646 0.50942 70.0269 0.509913C69.9767 0.510601 69.8598 0.566222 69.5867 0.485133C69.8023 0.486273 70.0179 0.487412 70.2335 0.488551ZM68.3763 0.474635C68.4241 0.472804 68.3977 0.486929 68.4183 0.48672C68.4185 0.48672 68.4187 0.48672 68.4189 0.48672C68.7234 0.483691 69.4476 0.471044 69.5261 0.516626C69.3007 0.52043 68.2922 0.53028 68.2312 0.499293C68.2795 0.491074 68.3279 0.482855 68.3763 0.474635ZM66.2337 0.50857C66.0468 0.479058 66.4676 0.475129 66.5779 0.488795C66.5988 0.491756 66.4274 0.539141 66.2337 0.50857ZM51.8944 0.4324C51.4831 0.450154 52.0235 0.467873 51.8365 0.495631C51.915 0.493271 51.9936 0.490911 52.0721 0.488551C52.0129 0.469834 51.9537 0.451117 51.8944 0.4324ZM33.1428 0.376372C33.047 0.373092 33.0924 0.390037 33.0841 0.390287C33.0211 0.389815 32.9617 0.376011 32.9376 0.377471C32.4907 0.405338 32.7879 0.41957 32.7924 0.422879C32.8018 0.439644 32.6844 0.45926 32.8471 0.47842C32.9459 0.472479 33.0446 0.466538 33.1434 0.460598C33.1924 0.469916 33.2414 0.479233 33.2905 0.488551C33.4867 0.46856 33.2299 0.463076 33.2008 0.436551C33.1896 0.426124 33.3742 0.413641 33.1428 0.376372ZM51.1575 0.37625C51.0908 0.405699 50.9273 0.442848 51.0879 0.472438C51.088 0.472438 51.0882 0.472438 51.0884 0.472438C51.1181 0.477852 51.239 0.480829 51.2761 0.488429C51.5409 0.449196 51.4394 0.408651 51.1575 0.37625ZM34.9144 0.323639C35.0737 0.330516 35.2329 0.337392 35.3922 0.344268C35.3895 0.361927 35.3868 0.379586 35.3841 0.397245C35.2989 0.392485 35.2136 0.387724 35.1284 0.382963C35.0985 0.39102 35.0686 0.399076 35.0388 0.407133C35.1446 0.427274 35.2504 0.447415 35.3562 0.467556C35.4837 0.460516 35.6111 0.453477 35.7386 0.446438C35.68 0.43712 35.6214 0.427803 35.5628 0.418485C35.8744 0.408199 35.8066 0.45114 36.0644 0.467556C36.1527 0.451199 36.241 0.434842 36.3293 0.418485C36.4572 0.434923 36.585 0.451361 36.7128 0.4678C36.9276 0.46012 36.9465 0.447601 36.8019 0.428861C36.9087 0.407445 37.0257 0.441128 37.1543 0.4324C37.1649 0.431697 37.1449 0.411526 37.1543 0.411283C37.8193 0.397686 37.784 0.450653 37.8902 0.452908C37.9652 0.454455 38.2644 0.41871 38.2691 0.406522C38.2749 0.390098 37.6525 0.325332 38.6272 0.323639C38.1233 0.278841 37.5504 0.324442 37.9208 0.390165C37.7613 0.383552 37.058 0.39995 37.0132 0.397978C36.9478 0.395001 36.9708 0.370066 36.8889 0.369414C36.8405 0.369062 36.7123 0.42606 36.3293 0.37625C36.2804 0.385608 36.2315 0.394967 36.1825 0.404325C36.1367 0.396635 36.0908 0.388945 36.0449 0.381255C36.1394 0.35383 36.2338 0.326406 36.3282 0.298982C35.9542 0.32878 35.6438 0.272801 35.416 0.319977C35.2191 0.314486 35.1234 0.309059 35.208 0.284944C35.1489 0.284944 35.0898 0.284944 35.0306 0.284944C34.9919 0.297842 34.9532 0.310741 34.9144 0.323639ZM49.949 0.418363C49.7532 0.390983 49.6829 0.450052 49.7133 0.453396C49.885 0.471777 50.0508 0.432607 49.949 0.418363ZM33.4982 0.407743C33.7141 0.422961 33.9301 0.438178 34.1461 0.453396C34.1461 0.43472 34.1461 0.416044 34.1461 0.397367C33.9301 0.400826 33.7141 0.404284 33.4982 0.407743ZM51.9546 0.39041C51.9744 0.404407 51.9943 0.418403 52.0141 0.4324C52.2507 0.381274 52.4855 0.454629 52.6024 0.43948C52.6278 0.436171 52.5766 0.411456 52.5282 0.406156C52.4981 0.402845 51.9965 0.385689 51.9546 0.39041ZM61.8016 0.397123C61.7135 0.406522 61.6254 0.415921 61.5373 0.425321C61.5421 0.409574 61.547 0.393827 61.5519 0.378081C61.5954 0.375151 61.6389 0.372222 61.6824 0.369292C61.7222 0.378569 61.7619 0.387846 61.8016 0.397123ZM60.799 0.422147C60.6418 0.420886 60.4846 0.419624 60.3274 0.418363C60.9269 0.40392 60.4349 0.396872 60.799 0.376372C60.799 0.39163 60.799 0.406889 60.799 0.422147ZM59.208 0.390287C59.2273 0.380888 59.2467 0.371489 59.266 0.36209C59.4232 0.36209 59.5803 0.36209 59.7375 0.36209C59.6381 0.329458 59.5387 0.296825 59.4393 0.264193C59.3817 0.264111 59.3241 0.26403 59.2665 0.263949C59.247 0.306062 59.2275 0.348175 59.208 0.390287ZM28.8971 0.306184C28.8021 0.30562 28.4715 0.334137 28.4857 0.344635C28.623 0.357533 28.7603 0.370431 28.8976 0.38333C28.8983 0.364613 28.8989 0.345896 28.8995 0.327179C28.919 0.336497 28.9384 0.345815 28.9578 0.355132C29.0359 0.348134 29.114 0.341135 29.1921 0.334137C29.2314 0.350494 29.2708 0.366851 29.3101 0.383208C29.3497 0.364531 29.3892 0.345855 29.4288 0.327179C29.0517 0.294068 29.0647 0.327163 28.9862 0.326813C28.9464 0.326655 28.9212 0.315066 28.9071 0.309235C28.9038 0.308218 28.9004 0.307201 28.8971 0.306184ZM33.6474 0.288606C33.1972 0.283956 32.9399 0.333232 32.6142 0.292024C32.8231 0.379804 34.172 0.289135 34.6477 0.362334C34.697 0.348256 34.7464 0.334178 34.7958 0.320099C34.5368 0.332636 34.3574 0.30364 34.2311 0.29947C34.1308 0.296159 34.1413 0.310911 34.1336 0.3107C34.1332 0.3107 34.1329 0.3107 34.1325 0.3107C33.8977 0.304642 33.825 0.29044 33.6474 0.288606ZM52.289 0.321564C52.1681 0.299321 51.9564 0.301545 51.954 0.334015C52.0718 0.343414 52.1896 0.352813 52.3075 0.362212C52.2833 0.353899 52.3097 0.325368 52.289 0.321564ZM59.0252 0.299592C58.9308 0.289024 58.7077 0.298285 58.8039 0.326325C58.8212 0.331301 59.0434 0.311591 58.9131 0.362212C59.1295 0.36143 59.0789 0.305666 59.0252 0.299592ZM41.341 0.355132C41.4205 0.354196 41.4999 0.353261 41.5794 0.352325C41.5979 0.339223 41.6164 0.326121 41.6349 0.313019C41.5369 0.327057 41.439 0.341095 41.341 0.355132ZM53.3101 0.299104C53.4157 0.363223 53.5962 0.300825 53.7944 0.353545C53.8676 0.353952 53.9408 0.354359 54.0141 0.354766C54.0142 0.354766 54.0144 0.354766 54.0146 0.354766C54.0166 0.33727 54.0186 0.319774 54.0206 0.302277C53.7837 0.30122 53.5469 0.300162 53.3101 0.299104ZM36.3873 0.323517C36.4362 0.331655 36.4851 0.339793 36.5341 0.34793C36.6212 0.33845 36.7083 0.328969 36.7954 0.319489C36.7483 0.312694 36.7012 0.305899 36.6541 0.299104C36.5651 0.307242 36.4762 0.315379 36.3873 0.323517ZM54.5972 0.293611C54.3411 0.285579 54.2448 0.34132 54.5723 0.341461C54.7103 0.341461 54.8655 0.302003 54.5972 0.293611ZM24.0046 0.326935C24.0923 0.331696 24.1801 0.336456 24.2678 0.341217C24.2977 0.329498 24.3276 0.31778 24.3575 0.306062C24.2399 0.313019 24.1222 0.319977 24.0046 0.326935ZM60.2397 0.305939C60.2294 0.317658 60.2191 0.329376 60.2088 0.341095C60.1305 0.338735 60.0522 0.336375 59.974 0.334015C59.9936 0.322378 60.0133 0.310741 60.033 0.299104C60.1019 0.301382 60.1708 0.303661 60.2397 0.305939ZM24.595 0.334137C24.6652 0.336375 24.7353 0.338613 24.8055 0.340851C24.8526 0.335154 24.8997 0.329458 24.9469 0.323761C24.8812 0.318105 24.8156 0.31245 24.75 0.306794C24.6983 0.315908 24.6467 0.325023 24.595 0.334137ZM57.0247 0.298982C56.9262 0.284892 56.5326 0.328792 56.8872 0.339996C57.1131 0.347109 57.0395 0.301125 57.0247 0.298982ZM57.5559 0.284944C57.1806 0.258102 57.462 0.394338 57.9099 0.306062C57.459 0.318165 57.5779 0.286565 57.5559 0.284944ZM60.8561 0.214634C60.8655 0.214704 60.8733 0.234293 60.9487 0.235019C61.2202 0.237555 61.5785 0.245295 61.7726 0.246493C62.2394 0.249381 63.669 0.213969 63.8362 0.270662C63.871 0.282569 63.7909 0.318145 63.805 0.319977C63.8466 0.325087 64.0857 0.307824 64.0415 0.334015C63.8068 0.333811 63.5722 0.333608 63.3376 0.333404C63.3952 0.314932 63.4528 0.296459 63.5104 0.277986C62.9257 0.287848 63.1192 0.286709 62.9511 0.326935C62.8521 0.311351 62.7532 0.295767 62.6542 0.280183C62.4388 0.295849 62.2234 0.311514 62.008 0.327179C62.0568 0.315501 62.1057 0.303824 62.1545 0.292146C61.83 0.270518 61.9202 0.284701 61.7426 0.313019C61.7422 0.301342 61.7418 0.289664 61.7415 0.277986C61.4281 0.306449 61.3671 0.271451 61.2987 0.271028C61.1582 0.270341 60.9792 0.408508 60.4436 0.271028C60.2178 0.337149 60.2229 0.202635 60.0902 0.271028C59.7079 0.196573 60.4349 0.22352 60.7789 0.225986C60.7791 0.225986 60.7793 0.225986 60.7795 0.225986C60.8054 0.226197 60.7642 0.21366 60.8561 0.214634ZM58.8925 0.283113C59.1239 0.222418 58.2097 0.216737 58.5122 0.304353C58.5573 0.307201 58.6023 0.310049 58.6474 0.312897C58.7293 0.302969 58.8111 0.293041 58.893 0.283113C58.8928 0.283113 58.8927 0.283113 58.8925 0.283113ZM50.3024 0.242831C49.4556 0.267771 49.9371 0.302686 50.2239 0.268587C50.2811 0.261824 50.3124 0.252552 50.3024 0.242831ZM33.0042 0.241977C32.9918 0.24926 32.9794 0.256543 32.9671 0.263827C33.251 0.25701 33.8002 0.285105 33.7926 0.235995C33.5298 0.237989 33.267 0.239983 33.0042 0.241977ZM35.2506 0.209873C35.1896 0.206911 34.9404 0.199919 34.9705 0.218296C35.0785 0.231316 35.1865 0.244337 35.2944 0.257357C35.3447 0.249219 35.395 0.241081 35.4453 0.232944C35.3751 0.230176 35.2671 0.210648 35.2506 0.209873Z" fill="white"/>
</svg>
