<svg width="156" height="264" viewBox="0 0 156 264" fill="none" xmlns="http://www.w3.org/2000/svg">
<path opacity="0.7" d="M156 211.444L136.302 231L156 250.556L142.458 264L122.76 244.444L103.062 264L89.5186 250.556L109.217 231L89.5186 211.444L103.062 198L122.76 217.556L142.458 198L156 211.444ZM62.2607 211.444L42.5625 231L62.2607 250.73L50.8281 261.904L31.1299 242.35L11.4316 261.904L0 250.73L19.6982 231L0 211.444L11.4316 200.27L31.1299 219.825L50.8281 200.27L62.2607 211.444ZM122.76 221.746L103.062 202.365L93.7402 211.619L113.438 231.175L93.916 250.73L103.237 259.984L122.76 240.254L142.458 259.81L151.779 250.556L132.081 231L151.779 211.444L142.458 202.19L122.76 221.746ZM59 155.324L29.3955 185L0 155.324L10.498 144.801L29.3955 163.953L48.502 144.801L59 155.324ZM59 82.9238L29.3955 112.6L0 82.9238L10.498 72.4004L29.3955 91.5527L48.502 72.4004L59 82.9238ZM59 10.5234L29.3955 40.1992L0 10.5234L10.498 0L29.3955 19.1523L48.502 0L59 10.5234Z" fill="url(#paint0_linear_77462_306)"/>
<defs>
<linearGradient id="paint0_linear_77462_306" x1="0" y1="0" x2="148.583" y2="-4.11024" gradientUnits="userSpaceOnUse">
<stop stop-color="#CBF93E"/>
<stop offset="1" stop-color="#F4FE3F"/>
</linearGradient>
</defs>
</svg>
