<svg width="32" height="32" viewBox="0 0 32 32" fill="none" xmlns="http://www.w3.org/2000/svg">
<mask id="mask0_77473_93" style="mask-type:alpha" maskUnits="userSpaceOnUse" x="0" y="0" width="32" height="32">
<rect width="32" height="32" fill="#D9D9D9"/>
</mask>
<g mask="url(#mask0_77473_93)">
<path d="M30.7878 30.6721C30.7499 30.7411 30.6892 30.856 30.5983 30.9367L30.6638 30.9981C30.5777 31.0365 30.5078 31.0832 30.497 31.1459L30.4569 31.1085C30.456 31.112 30.4557 31.1157 30.4553 31.1192C30.5053 31.4472 30.8734 30.5427 30.9979 31.0866C31.0358 31.1907 30.5485 32.025 30.4797 31.9994C30.4803 31.9989 30.4807 31.9979 30.4813 31.9973C30.2961 31.9343 30.125 31.7052 30.1445 31.4894C30.1409 31.486 30.1295 31.4773 30.1266 31.4734C30.2377 31.106 30.5438 30.7153 30.7878 30.6721ZM14.0925 0.0200834C14.0893 0.0480615 14.086 0.0778551 14.061 0.213736C14.0524 0.272576 14.0282 0.381679 14.0047 0.58397C13.9962 0.676394 13.9749 0.822406 13.9776 1.11265C14.0251 1.41119 13.8772 1.60047 14.3405 2.60799C14.901 1.694 15.5312 0.784772 17.0508 0.255881H17.0519C17.1656 0.215307 17.1582 0.617653 17.3665 0.538624C17.3998 0.529906 17.7466 0.408663 18.0283 0.679996C18.2572 0.948023 18.1911 1.06539 18.2027 1.12278C18.1911 1.2674 18.1755 1.27456 18.1631 1.32977C18.1423 1.40066 18.1307 1.45667 18.135 1.49728C18.1391 1.58938 18.1899 1.65931 18.266 1.74375C18.4194 1.90767 18.6857 2.09784 18.9202 2.4202C19.0372 2.58489 18.1541 2.44352 18.0879 2.433C17.8462 2.39869 17.394 2.07424 17.3422 2.07717C16.9326 2.10468 18.5622 2.92248 18.4106 3.19641C18.401 3.20145 18.1278 3.00813 18.0862 3.0145C17.9556 3.03378 18.0331 3.16763 17.8945 3.17774C17.5714 3.20459 16.7722 2.81902 17.0871 3.29937C17.1283 3.36084 18.0507 3.83171 17.8712 4.03824C17.7977 4.12294 17.5688 4.53362 17.4402 4.61333C17.3136 4.69096 17.0758 4.44294 17.0584 4.44368C16.4963 4.51478 16.4094 4.30836 15.7614 4.11559C15.7479 4.11155 15.7348 4.10867 15.723 4.10546C16.3072 4.45279 16.9495 4.65955 17.3979 4.6368C18.3544 4.64287 18.5191 4.48593 18.7344 4.42128C19.1196 4.25595 19.2355 4.13296 19.3263 4.03664C19.2815 3.8849 19.1848 3.69439 19.1552 3.57251C19.343 3.79943 19.8531 4.22822 19.8543 4.31138C19.8219 4.74708 18.985 5.11495 18.5238 5.7347C18.4545 5.82764 18.7499 5.8941 18.6667 6.04092C18.3565 6.58435 18.0487 7.69789 17.2349 7.94277C17.1863 7.95749 17.141 7.96774 17.0985 7.97371C16.5652 8.05301 16.5008 7.45672 16.1757 7.6819C16.005 7.80456 16.7495 8.39616 16.7546 8.4501C16.8234 8.96546 16.3171 9.04577 16.2532 9.44824C16.2411 9.53066 16.6148 9.62961 16.6003 9.69791C16.5528 9.93447 16.2904 10.0765 16.2174 10.2879C16.1856 10.3829 16.4528 10.4944 16.3918 10.5664C16.2477 10.7395 16.0505 10.8604 15.7116 10.9308C15.6806 10.9373 15.4173 10.6618 15.332 10.8006C15.1946 11.0273 14.8085 11.2014 14.921 11.5928C14.9552 11.7099 15.5479 12.0006 15.0515 11.9743C14.9472 11.9685 14.2574 11.5778 14.7737 12.0767C14.8593 12.16 15.5246 12.8979 14.9064 12.8054C14.7435 12.7812 14.1027 12.613 14.1471 12.7537C14.1555 12.7738 14.5013 12.8743 14.4932 12.9692C14.4588 13.3011 14.2804 13.5803 14.2403 13.9172C14.2308 14.0072 14.6183 14.0489 14.5928 14.1781C14.5233 14.5337 14.2486 14.8883 13.9971 15.149C13.9038 15.2441 13.6657 15.0386 13.6316 15.0327C13.0799 14.9414 13.6994 15.3233 13.7188 15.3859C13.819 15.7668 13.4103 15.8347 13.3744 16.1253C13.3639 16.2047 13.7025 16.2982 13.7242 16.3248C13.9321 16.5929 13.415 16.2294 13.3099 16.2928C13.0143 16.4683 12.9086 16.7654 12.8318 17.0418C12.8048 17.1427 13.22 17.1989 13.1913 17.2872C13.0281 17.8152 12.7642 18.3169 12.3569 18.71C12.2797 18.7827 12.0174 18.6094 11.9442 18.6011C11.9309 18.5996 11.9182 18.5983 11.9063 18.5974C11.9 18.5971 11.8938 18.5975 11.8879 18.5974C11.8318 18.6391 11.7791 18.6809 11.7292 18.7217C11.7712 18.8504 11.9822 19.0379 12.007 19.0807C12.1387 19.3129 12.025 19.3682 11.9404 19.4568C11.9677 19.4435 11.9949 19.4304 12.0227 19.42C12.113 19.3851 12.0257 19.6923 12.1798 19.5683C12.6775 19.1576 13.0609 18.5487 13.1112 18.966C13.1134 18.9855 12.8493 19.219 12.874 19.2674C13.0424 19.5858 13.4959 19.0941 13.8239 19.2397C14.0793 19.3526 14.2593 19.9727 14.5035 20.2128C13.894 21.0866 14.3067 21.0665 14.8213 20.5243C14.9887 20.668 15.2093 20.7585 15.3363 20.957C15.379 21.0241 15.1738 21.2576 15.1625 21.2915C15.0014 21.8064 15.4697 21.2564 15.5237 21.2568C16.0457 21.292 16.1646 21.8361 16.6864 21.8095C16.7452 21.8044 16.8101 21.7914 16.8819 21.7678C16.9076 21.7605 17.2998 21.1341 17.1369 21.6606C17.1263 21.6972 16.8211 21.9125 17.0037 22.0437C17.1828 22.1731 17.3866 22.7247 17.8295 22.559C17.9373 22.5195 18.3738 22.0651 18.3099 22.5521C18.301 22.6182 18.188 22.799 18.1642 22.918C18.0911 23.2983 18.4613 22.6477 18.2947 23.2685C18.1282 23.8896 18.1572 24.4252 18.6435 24.1621C18.6586 24.1549 18.9746 23.6486 19.0653 23.698C19.21 23.7783 19.3754 23.9838 19.5359 24.0485C19.6123 24.079 19.7114 23.7269 19.7281 23.7225C20.3199 23.7523 20.5538 24.2045 21.0457 24.5675C21.1358 24.6348 21.6278 24.3004 21.6619 24.7468C21.6956 25.2346 20.7471 26.7849 21.3868 26.5996C21.4329 26.5866 21.5085 26.5135 21.6008 26.4091C22.025 25.9265 22.8558 24.8009 22.7011 25.8111C23.5055 25.8822 23.7966 26.7378 24.6414 26.7724C24.6796 26.774 25.1186 26.2958 25.1835 26.3472C25.2778 26.4249 25.1645 26.7076 25.223 26.7708C25.465 27.0394 25.8799 27.0181 26.1333 27.2547C26.2292 27.3441 26.0054 27.5621 26.1155 27.667C26.226 27.7724 26.5621 27.517 26.6023 27.7999C26.6323 28.0154 26.2167 28.7511 26.3034 28.9501C26.8455 28.332 26.9429 28.4339 27.2792 28.4379C27.344 28.4384 27.4952 28.1911 27.5359 28.1803C27.7079 28.1343 27.6137 28.3669 27.7904 28.3094C27.833 28.2957 28.0232 28.0898 28.0693 28.0666C28.4666 27.8661 28.2269 28.5029 28.1814 28.6108C28.0155 29.0257 28.3231 28.8134 28.3022 29.0194C28.2789 29.2234 28 29.2432 28.0357 29.4142C28.0906 29.6707 28.2672 29.865 28.4424 30.0378L28.4332 30.0288C28.4984 30.0974 28.5628 30.1623 28.6195 30.2261C28.7021 30.3165 28.9178 30.0005 28.9363 30.0069C29.1832 30.1254 29.0663 30.5819 29.7139 30.1787C28.4101 31.6138 29.9577 30.1632 29.9219 30.6919C29.9186 30.7343 29.264 31.373 29.0906 31.3838C28.9173 31.3945 29.0158 31.0819 28.7581 31.1139C28.6954 31.1212 27.9287 31.5534 27.8711 31.57C27.4259 31.6908 28.4045 30.7379 28.4511 30.678C28.9516 30.0303 28.1032 30.4806 28.0119 30.4785C27.9944 30.4779 27.9773 30.4769 27.961 30.4753L27.9854 30.4993C27.6068 30.4721 27.5488 30.1835 27.237 30.1643C27.0248 30.1497 26.3953 30.7857 26.3245 30.6828C26.0967 30.3501 26.8222 29.3263 25.816 29.8858C25.6014 30.006 25.0221 30.7938 25.3113 30.0346C25.3319 29.9878 25.6198 29.316 25.2404 29.5812C25.1928 29.6148 25.0122 29.8349 24.9815 29.841C24.7822 29.8797 24.8548 29.6487 24.6739 29.6468C24.4929 29.6449 24.2612 29.6736 24.1882 29.5022C24.1456 29.4002 24.3531 28.8991 24.3885 28.7655C24.4933 28.383 24.0193 28.801 24.2066 28.3824C24.3896 27.9585 24.93 27.4887 24.8922 27.1117C24.4707 27.7179 24.0299 28.335 23.6044 28.9437C23.223 28.6632 22.9421 28.2171 22.4948 28.0095C22.4395 27.9848 22.299 28.3594 22.236 28.343C21.9709 28.271 21.8945 27.9139 21.5883 27.8884C21.3768 27.8732 21.0341 28.0939 20.7874 28.1424C20.7597 28.148 20.7328 28.1512 20.7072 28.1514C20.937 27.3301 20.4855 27.4434 20.2691 27.2675C20.1937 27.2062 20.2898 27.0025 20.2567 26.9084C20.13 26.5592 19.9408 27.2886 19.8289 27.3683C19.3504 27.7074 19.999 26.1534 19.6469 26.049C19.6287 26.0431 19.0508 26.7742 18.9976 26.8124C18.6587 27.0649 19.091 26.512 18.9971 26.4C18.8252 26.1951 18.7588 25.9337 18.3911 26.0613C18.2837 26.0998 17.8699 26.5307 17.8983 26.0703C17.9021 26.0101 18.0348 25.7449 18.0267 25.7215C17.8625 25.332 17.4661 26.1763 17.1656 26.3878C16.8638 26.5986 16.8783 25.8955 16.9073 25.7038C16.9786 25.2078 17.1006 25.5666 17.1283 25.5283C17.4554 25.0613 17.2295 25.0635 17.1093 24.9543C17.4882 24.1214 17.2728 24.0795 16.9831 24.8439C16.9519 24.9277 17.0994 24.9036 17.1093 24.9543C16.5946 25.7046 16.3097 25.6967 16.4476 24.8279C16.5143 24.421 16.8312 24.0687 16.4167 24.0447C16.2288 24.0327 15.9875 24.618 15.7642 24.694C15.4719 24.7907 15.2954 24.5859 15.1322 24.367C15.0285 24.2128 14.9338 24.0553 14.7845 24.0127C14.6601 23.9779 14.5829 24.334 14.4916 24.32C14.2444 24.2812 14.21 23.9576 13.9419 23.9492C13.9173 23.9488 13.7686 24.281 13.7042 24.2475C13.2145 23.996 12.9293 23.5433 12.4402 23.2114C12.2052 23.053 11.6552 22.9171 11.4238 22.6977C11.2302 22.518 11.0815 22.2343 10.9283 21.9567C10.8345 22.1284 10.7436 22.2935 10.6592 22.4491C10.1011 23.4787 9.48435 24.2763 9.31833 25.1448C9.30862 25.1973 9.72026 25.2518 9.71852 25.2963C9.69905 25.5195 9.66501 25.7067 9.66112 25.6745C9.65014 25.7485 9.64044 25.8474 9.61184 26.089C9.60376 26.1536 9.59481 26.2308 9.57393 26.36C9.48715 26.6047 9.73355 26.3373 9.11797 27.7028C8.93082 27.9857 8.98457 28.0781 8.23961 28.7815C7.62606 29.4288 5.72441 30.0623 4.41262 29.5401C3.78352 29.3377 3.31255 28.9968 3.07938 28.797C2.89662 28.6419 2.75953 28.4992 2.64886 28.3718C2.43393 28.1244 2.29235 27.8943 2.22972 27.7876C1.98957 27.3639 1.95416 27.2121 1.9048 27.0872C1.82271 26.8507 1.8017 26.7579 1.77754 26.6684C1.63647 26.0796 1.61314 25.9139 1.52627 25.6206C1.50466 25.545 1.13669 25.7172 1.08926 25.5961C0.990733 25.3562 0.966487 25.0503 1.05623 24.8007C1.09889 24.6748 1.45322 24.7842 1.48945 24.6604C1.5146 24.5807 1.5316 24.4979 1.53981 24.4128C1.56173 24.2162 1.5345 24.0167 1.46345 23.8292C1.42042 23.7205 1.04847 23.9439 1.02319 23.7977C0.843395 22.7883 0.644176 21.8116 1.02427 20.7345C1.05026 20.6596 1.84798 20.4974 1.67465 20.3696C1.44945 20.3871 1.18608 20.4213 0.946295 20.447C0.625756 19.0064 0.718603 17.5319 0.57264 16.0708C0.565712 16.0095 0.153157 16.1691 0.138875 16.05C0.0559457 15.3628 -0.149358 14.7076 0.183822 13.9556C0.217806 13.8808 0.971818 13.819 0.831491 13.6291C0.806148 13.5976 0.664869 13.2976 0.491952 13.2423C0.465865 13.2343 0.12237 13.3369 0.0988019 13.237C0.0577441 13.0556 0.0296619 12.8687 0.0154064 12.6859C-0.0166101 12.2818 0.0124617 11.8633 0.105842 11.4584C0.129089 11.3622 0.514869 11.4108 0.534191 11.3405C0.66858 10.8523 0.313867 10.384 0.587803 9.92944C0.772724 9.63298 1.43129 9.62686 2.03802 9.38049C2.12275 9.33865 2.11127 9.21234 2.47286 9.12762C3.37433 8.86967 4.40231 8.75588 5.36355 8.48158C5.58115 8.42544 5.17733 7.92019 5.77457 8.07987C5.83338 8.12968 6.10132 8.51192 6.27819 8.51786C6.40755 8.54427 6.76306 8.3856 6.93561 8.45597C7.10765 8.5266 6.81132 8.67431 7.01304 8.77126C7.21675 8.86661 7.63526 8.75116 7.72299 8.98038C7.92108 9.50677 7.88828 10.1726 7.78797 10.6918C7.75667 10.8523 7.51357 10.8054 7.48147 10.9196C7.41856 11.1361 7.559 11.3196 7.47822 11.5368C7.45035 11.6092 7.07085 11.573 7.04933 11.6478C7.03733 11.6924 7.02816 11.7371 7.02171 11.7817C6.9669 12.1378 7.07746 12.4591 7.05366 12.8204C6.96838 14.0921 6.98134 15.3346 7.02442 16.5819C7.12634 16.6302 7.24167 16.6924 7.28706 16.6587C7.47206 16.5157 7.73059 16.3595 7.90657 16.1706C7.79167 15.8874 7.53672 15.6373 7.37803 15.3154C7.16111 14.8748 7.28256 14.5195 7.84212 14.3797C7.8991 14.3238 7.95951 14.2702 8.02679 14.2234C8.07448 14.0204 8.2456 13.8147 8.42264 13.6584C8.44457 13.6457 8.46701 13.6341 8.48871 13.6222C8.51097 13.5385 8.54232 13.4578 8.57481 13.3773C8.41813 13.2783 8.14118 13.1813 8.13509 13.1698C7.8188 12.5772 8.3145 12.4198 8.53907 11.923C8.64635 11.6878 8.70357 11.1545 8.72265 10.8476C8.73557 10.6057 8.94986 10.5286 8.91868 10.2858C8.91468 10.253 8.5885 10.1685 8.57915 10.1556C8.28798 9.78615 9.018 10.1766 9.1732 10.1791C9.41003 10.1837 9.60045 10.1862 9.73314 10.1604C9.79564 10.0627 9.86281 9.96744 9.93676 9.87662C9.93272 9.85741 9.92783 9.83692 9.92105 9.81527C9.89264 9.73208 8.88036 9.09409 8.87157 8.93824C8.8619 8.73889 9.22475 8.96413 9.20515 8.75419C9.20249 8.73579 8.96311 8.63662 9.02103 8.53439C9.28938 8.05813 9.68728 7.59648 9.93297 7.09294C9.96766 7.02422 9.55512 6.91679 9.59939 6.81393C9.81044 6.32836 10.1242 5.83613 10.5622 5.51491C10.6712 5.43645 10.8735 5.65583 10.9608 5.67922C11.4875 5.82077 10.979 5.22688 10.99 5.18362C11.0263 5.01817 11.0853 4.87761 11.1622 4.74937C11.4432 4.25894 12.073 4.08186 12.1906 3.41674C12.198 3.37128 11.6864 2.67677 12.3482 2.93074C12.3927 2.94857 13.0699 3.20623 12.724 2.84698C12.7023 2.82456 12.3466 2.70366 12.4581 2.59732C12.5714 2.48927 12.4916 2.15959 12.9433 2.19401C13.0863 2.20469 13.7747 2.43732 13.3917 1.98222C13.3655 1.94999 12.4171 1.05284 13.2314 1.40659C13.3654 1.46491 14.163 1.94818 13.8666 1.51169C13.8083 1.42819 13.5885 1.39173 13.5331 1.23001C13.4465 0.982561 13.7783 0.906679 13.5114 0.532756C13.4637 0.466441 12.9759 0.0432813 13.4513 0.173192C13.5263 0.193084 13.7866 0.365662 13.845 0.330568C13.9834 0.248948 14.0361 0.123455 14.0686 0.0446234C14.084 0.00776754 14.0947 -0.0209257 14.0925 0.0200834ZM30.8593 30.6188L30.9725 30.7249C30.9194 30.674 30.8562 30.66 30.7878 30.6721C30.8063 30.6385 30.8194 30.6155 30.8279 30.6129C30.8433 30.6091 30.8561 30.6135 30.8593 30.6188ZM27.478 29.2685C27.5918 29.0301 27.2239 29.0906 27.0832 29.3864C26.9686 29.6229 27.3342 29.5628 27.478 29.2685ZM25.4884 28.2123C25.5632 27.7 24.42 29.172 24.8451 29.0173C24.8708 29.007 25.4837 28.2419 25.4884 28.2123ZM23.4463 27.3731C23.561 26.7707 23.0075 27.4358 22.908 27.8927C22.803 28.3461 23.4079 27.5547 23.4463 27.3731ZM3.84131 24.551C3.76128 24.6847 3.74207 24.7868 3.67993 24.8439C3.57432 25.0569 3.57497 25.0853 3.54726 25.164C3.42239 25.7135 3.53933 25.3675 3.56567 25.3998C3.65622 25.3297 3.93184 25.3839 3.99727 25.3752C4.1985 25.3436 4.23041 25.2669 4.19114 25.1698C4.12563 24.9672 3.85558 24.7295 3.85051 24.6892C3.84557 24.6421 3.84354 24.5961 3.84131 24.551ZM7.24428 24.352C7.27888 24.6341 7.16457 25.014 7.28977 25.2307C7.31546 25.2655 7.65373 25.1514 7.72299 25.1816C7.73829 25.1822 7.75347 25.1979 7.74194 25.1432C7.72788 25.1038 7.7494 25.1099 7.62172 24.8449C7.58385 24.7783 7.5538 24.6957 7.37424 24.4699C7.32149 24.4129 7.29169 24.3719 7.23994 24.3184C7.24138 24.3291 7.24272 24.3403 7.24428 24.352ZM14.4921 20.2389C14.8479 19.9721 15.0146 20.022 14.8208 20.5232C14.715 20.4218 14.5967 20.3392 14.4921 20.2389ZM2.32719 9.91077C1.90003 9.90283 1.90524 10.1672 2.33044 10.0495C2.34752 10.0448 2.34475 9.91116 2.32719 9.91077ZM19.1081 3.5117C18.9869 3.30623 19.1478 3.34568 19.146 3.51383C19.1462 3.53071 19.1499 3.55057 19.1552 3.57251C19.1363 3.54972 19.1196 3.52988 19.1081 3.5117ZM16.8505 0.844307C16.8156 0.820351 16.5218 1.05026 16.5434 1.08117C16.9193 1.66568 17.426 1.28514 16.8505 0.844307Z" fill="#B564D4"/>
</g>
</svg>
