<svg xmlns="http://www.w3.org/2000/svg" width="104" height="59" fill="none"><path fill="#fff" d="M79.188 28.688q.484 0 .78.312a.95.95 0 0 1 .266.75q-.015.203-.093.375l-1.016 2.188q-.796 1.75-1.594 2.828-.765 1.062-2.234 1.078-1.485-.015-2.25-1.078-.797-1.08-1.594-2.828l-1.016-2.188a1.1 1.1 0 0 1-.093-.375.95.95 0 0 1 .265-.75q.297-.312.782-.312.531 0 .78.218.267.204.423.532l.734 1.812q.282.64.547 1.219.282.562.625 1.031.36.47.797.5.422-.03.797-.5.328-.468.594-1.031.28-.579.562-1.219l.734-1.812q.157-.329.407-.532.265-.218.796-.218m-37.438.187q.438 0 .75.297a.97.97 0 0 1 .328.719v5.25a.95.95 0 0 1-.328.734 1.08 1.08 0 0 1-.75.281q-.938-.078-1.031-1.015v-3.766q0-.39-.407-.406h-5.468a.72.72 0 0 0-.516.265 1.5 1.5 0 0 0-.328.563 2.2 2.2 0 0 0 0 1.281q.11.312.328.563a.68.68 0 0 0 .516.234h4q.437 0 .734.313a.97.97 0 0 1 .313.734.97.97 0 0 1-.313.734.97.97 0 0 1-.734.313h-3.938q-1.093-.015-1.812-.61-.704-.609-1.016-1.359a4.3 4.3 0 0 1-.297-1.578q0-.781.313-1.531.313-.766 1.015-1.36.705-.61 2.078-.656zm25.734 0q.438 0 .75.297a.97.97 0 0 1 .329.719v5.25q0 .437-.329.734a1.08 1.08 0 0 1-.75.281q-.937-.078-1.03-1.015v-3.766q0-.39-.407-.406h-5.469a.72.72 0 0 0-.516.265 1.5 1.5 0 0 0-.328.563 2.2 2.2 0 0 0 0 1.281q.11.312.328.563a.68.68 0 0 0 .516.234h4q.438 0 .734.313a.97.97 0 0 1 .313.734.97.97 0 0 1-.312.734.97.97 0 0 1-.735.313h-3.937q-1.095-.015-1.813-.61-.703-.609-1.016-1.359a4.3 4.3 0 0 1-.296-1.578q0-.781.312-1.531.312-.766 1.016-1.36.702-.61 2.078-.656zm35.204 0q.437 0 .734.313a.97.97 0 0 1 .312.734q0 .436-.312.75a1 1 0 0 1-.734.297H96.75a.67.67 0 0 0-.516.25 1.7 1.7 0 0 0-.343.562q-.11.328-.11.625v2.735q-.093.937-1.031 1.015a1.14 1.14 0 0 1-.766-.281.97.97 0 0 1-.312-.734v-2.72h.016q0-.811.312-1.577.297-.75 1-1.344.719-.61 1.813-.625zM54.578 26.5q.438 0 .75.297a.9.9 0 0 1 .328.719v7.437q-.015.438-.328.734a1.08 1.08 0 0 1-.75.282h-6.562q-1.376-.048-2.078-.64-.705-.61-1.016-1.36a4.1 4.1 0 0 1-.313-1.547q0-.813.297-1.563.313-.765 1.016-1.359.718-.61 1.812-.625h3.938q.438 0 .734.313a.97.97 0 0 1 .313.734q0 .436-.313.75a1 1 0 0 1-.734.297h-4a.67.67 0 0 0-.516.25 1.5 1.5 0 0 0-.328.562 2.2 2.2 0 0 0-.094.625q0 .329.094.657a1.7 1.7 0 0 0 .328.562.74.74 0 0 0 .516.25h5.469q.405-.016.406-.406v-5.953q.093-.938 1.031-1.016m36.25 2.375q.438 0 .734.297a.89.89 0 0 1 .313.687q0 .422-.312.72a1.03 1.03 0 0 1-.735.28h-5.844a.9.9 0 0 0-.609.235 1.44 1.44 0 0 0-.375.61 2.6 2.6 0 0 0 0 1.5q.124.374.375.608.265.219.61.235h5.843q.438 0 .734.281a.87.87 0 0 1 .313.672q0 .406-.312.688a1.03 1.03 0 0 1-.735.28h-5.656q-1.376-.046-2.078-.64-.703-.61-1.016-1.36a4.1 4.1 0 0 1-.312-1.546q0-.813.296-1.563.313-.765 1.016-1.359.72-.61 1.813-.625zm0 2.813q.36 0 .61.218.25.203.25.485 0 .297-.266.515a.87.87 0 0 1-.594.203h-5.11a.94.94 0 0 1-.609-.203.67.67 0 0 1-.25-.515q0-.282.25-.5a.94.94 0 0 1 .61-.203z"/><path fill="#B564D4" d="M55.715 56.162c-.069.126-.178.337-.342.485l.118.112c-.155.07-.281.156-.3.27l-.073-.068-.003.02c-.017.278.276.05.463-.173.202-.217.374-.39.516.113.068.19-.81 1.718-.935 1.67l.003-.003c-.334-.116-.642-.535-.607-.93-.007-.006-.027-.022-.032-.03.2-.672.752-1.387 1.192-1.466M25.607.052c-.005.051-.011.106-.056.354-.016.108-.06.308-.102.678a9 9 0 0 0-.049.968c.086.546-.18.893.655 2.737 1.01-1.673 2.147-3.337 4.887-4.306h.002c.205-.074.192.663.568.518.1-.026.126-.05.395-.064.228-.012.592.102.798.323a1.08 1.08 0 0 1 .315.81c-.021.265-.05.278-.072.38a.9.9 0 0 0-.05.306c.007.168.099.296.236.451.276.3.757.648 1.18 1.238.21.302-1.382.043-1.501.024-.436-.063-1.252-.657-1.345-.652-.739.05 2.2 1.548 1.927 2.05-.018.008-.51-.345-.585-.334-.236.036-.096.28-.346.299-.583.05-2.024-.657-1.456.223.074.112 1.738.974 1.414 1.352-.133.155-.546.907-.777 1.053-.229.142-.658-.312-.689-.31-1.014.13-1.17-.248-2.339-.601q-.036-.011-.07-.019c1.054.636 2.213 1.015 3.021.973a6 6 0 0 0 1.743-.17c.275-.072.49-.15.667-.225.695-.302.904-.527 1.068-.704-.08-.277-.255-.626-.309-.85.339.416 1.259 1.201 1.261 1.353-.058.798-1.567 1.471-2.4 2.606-.124.17.408.292.258.56-.56.995-1.114 3.034-2.582 3.482q-.13.04-.246.056c-.961.146-1.077-.946-1.664-.534-.308.225 1.035 1.308 1.044 1.406.124.944-.789 1.09-.904 1.828-.022.15.652.332.626.457-.086.433-.559.693-.69 1.08-.058.174.424.378.314.51-.26.316-.616.537-1.227.666-.056.012-.53-.492-.684-.238-.248.415-.944.734-.741 1.45.061.215 1.13.747.235.699-.188-.01-1.432-.726-.501.187.154.153 1.354 1.503.24 1.334-.294-.044-1.45-.352-1.37-.095.015.037.639.221.624.395-.062.607-.384 1.119-.456 1.735-.017.165.682.241.636.478-.126.65-.621 1.3-1.074 1.777-.169.174-.598-.202-.66-.213-.995-.167.123.532.158.647.18.697-.557.821-.622 1.353-.018.146.592.317.631.365.375.491-.557-.174-.747-.058-.533.321-.723.865-.862 1.371-.049.185.7.288.648.45-.294.966-.77 1.884-1.504 2.604-.14.133-.613-.184-.745-.2l-.068-.006h-.033a8 8 0 0 0-.286.227c.075.236.456.579.5.657.238.425.033.527-.12.689q.074-.037.149-.067c.163-.064.005.498.283.271.898-.752 1.59-1.867 1.68-1.103.004.036-.472.464-.428.552.304.583 1.122-.317 1.713-.05.46.206.785 1.341 1.226 1.78-1.1 1.6-.355 1.563.573.571.302.263.7.429.929.792.076.123-.293.55-.314.612-.29.943.554-.064.652-.063.94.064 1.155 1.06 2.096 1.011q.159-.012.353-.076c.046-.013.753-1.16.46-.196-.02.067-.57.461-.24.701.322.237.69 1.247 1.489.944.194-.073.981-.905.866-.013-.016.12-.22.452-.263.67-.132.696.536-.495.236.641s-.248 2.118.629 1.636c.027-.013.597-.94.76-.85.261.148.56.524.849.642.138.056.316-.589.346-.597 1.068.055 1.49.883 2.377 1.547.162.123 1.05-.489 1.11.328.062.894-1.649 3.731-.495 3.392.083-.024.219-.157.386-.349.765-.883 2.263-2.943 1.984-1.094 1.45.13 1.975 1.696 3.499 1.76.069.002.86-.873.977-.779.17.142-.034.66.072.776.436.491 1.184.452 1.641.885.173.164-.23.563-.032.755.2.193.805-.275.878.243.054.395-.696 1.742-.54 2.106.978-1.131 1.154-.945 1.76-.938.117.001.39-.452.464-.471.31-.084.14.341.459.236.076-.025.42-.402.502-.444.717-.367.285.798.203.996-.3.76.255.37.217.748-.041.373-.544.41-.48.722.099.47.417.826.733 1.142l-.016-.017c.117.126.233.245.336.362.149.165.538-.413.571-.402.445.217.234 1.053 1.402.315-2.351 2.627.44-.029.375.94-.006.077-1.186 1.246-1.499 1.266-.312.02-.135-.553-.6-.494-.112.013-1.495.804-1.599.835-.803.22.962-1.523 1.046-1.633.903-1.186-.627-.361-.792-.365l-.092-.006.044.044c-.683-.05-.787-.578-1.35-.614-.382-.026-1.517 1.138-1.645.95-.41-.61.898-2.483-.917-1.46-.387.22-1.432 1.663-.91.273.037-.085.556-1.315-.128-.83-.086.062-.412.465-.467.476-.36.07-.228-.352-.554-.356-.327-.003-.745.05-.876-.264-.077-.187.297-1.105.36-1.35.19-.7-.665.066-.327-.7.33-.776 1.304-1.636 1.236-2.326-.76 1.11-1.555 2.239-2.322 3.353-.688-.513-1.195-1.33-2.001-1.71-.1-.045-.353.64-.467.61-.478-.131-.616-.785-1.168-.832-.381-.028-1 .377-1.444.465a1 1 0 0 1-.145.017c.415-1.504-.4-1.296-.79-1.618-.136-.112.037-.485-.022-.657-.229-.64-.57.695-.772.841-.863.621.307-2.224-.328-2.415-.033-.01-1.075 1.328-1.17 1.398-.612.462.167-.55-.002-.755-.31-.375-.43-.854-1.093-.62-.193.07-.94.859-.888.016.007-.11.246-.596.231-.638-.296-.713-1.01.832-1.553 1.22-.544.385-.518-.902-.465-1.253.128-.908.348-.25.398-.32.59-.856.183-.852-.034-1.052.683-1.524.295-1.601-.228-.202-.056.154.21.11.228.202-.928 1.374-1.442 1.36-1.193-.231.12-.745.691-1.39-.056-1.434-.34-.022-.774 1.05-1.177 1.189-.527.177-.845-.198-1.14-.599-.186-.282-.357-.57-.626-.648-.225-.064-.364.588-.529.562-.446-.07-.508-.663-.991-.678-.044-.001-.313.607-.429.545-.883-.46-1.397-1.289-2.28-1.896-.423-.29-1.415-.539-1.832-.94-.35-.33-.617-.849-.894-1.357l-.485.901c-1.006 1.885-2.119 3.345-2.418 4.935-.017.096.725.196.722.277-.035.409-.097.752-.104.693-.02.135-.037.316-.089.758-.014.119-.03.26-.068.497-.023.136-.041.259-.104.539-.034.15-.058.256-.143.543a7.3 7.3 0 0 1-1.04 2.119 7 7 0 0 1-1.12 1.231c-1.106 1.185-4.535 2.345-6.9 1.389A7.2 7.2 0 0 1 4.97 51.95 7.2 7.2 0 0 1 3.629 49.6c-.148-.433-.186-.603-.23-.767-.148-.608-.188-.844-.256-1.142a13 13 0 0 0-.197-.776c-.039-.138-.702.177-.788-.045-.177-.439-.221-.999-.06-1.456.078-.23.717-.03.782-.257q.068-.219.09-.453c.04-.36-.009-.725-.137-1.068-.078-.2-.748.21-.794-.058-.324-1.848-.683-3.636.002-5.607.047-.137 1.485-.434 1.173-.668-.406.032-.881.094-1.314.141-.578-2.637-.41-5.336-.673-8.01-.013-.113-.757.18-.783-.039-.15-1.257-.52-2.457.081-3.834.062-.136 1.421-.25 1.168-.597-.045-.058-.3-.607-.612-.708-.047-.015-.666.173-.709-.01a7 7 0 0 1-.15-1.009 7.6 7.6 0 0 1 .163-2.247c.042-.176.737-.087.772-.216.243-.893-.397-1.75.097-2.583.333-.542 1.521-.553 2.615-1.005.153-.076.132-.307.784-.462 1.626-.473 3.48-.68 5.213-1.183.188-.047.12-.31.106-.557-.005-.116.028-.167.12-.202.095-.027.232-.096.515.024.037.01.214.274.383.455.172.183.357.315.526.346.233.049.874-.242 1.185-.113.31.13-.224.4.14.577.367.175 1.122-.037 1.28.383.357.964.298 2.183.117 3.133-.056.294-.495.208-.552.417-.114.396.14.732-.006 1.13-.05.132-.735.066-.774.203a2 2 0 0 0-.05.245c-.098.652.101 1.24.058 1.901-.154 2.328-.13 4.603-.053 6.886.184.089.392.203.474.14.334-.261.8-.547 1.117-.893-.207-.518-.667-.976-.953-1.565-.391-.807-.172-1.457.837-1.713q.153-.155.333-.286c.086-.372.395-.748.714-1.034q.06-.035.119-.067c.04-.153.097-.3.155-.448-.282-.181-.782-.359-.793-.38-.57-1.085.324-1.373.729-2.282.193-.43.296-1.407.33-1.969.024-.443.41-.584.354-1.028-.007-.06-.595-.215-.612-.239-.525-.676.791.039 1.071.043.427.009.77.014 1.01-.034q.169-.269.367-.52a1 1 0 0 0-.028-.112c-.051-.152-1.877-1.32-1.893-1.605-.017-.365.637.047.602-.337-.005-.034-.436-.215-.332-.402.484-.872 1.201-1.717 1.645-2.639.062-.126-.682-.322-.602-.51.38-.89.946-1.79 1.736-2.379.197-.143.562.258.719.301.95.26.033-.828.053-.907.065-.303.172-.56.31-.795.507-.898 1.643-1.222 1.855-2.44.013-.083-.91-1.354.284-.89.08.034 1.301.505.678-.152-.04-.041-.681-.263-.48-.457.204-.198.06-.802.875-.739.258.02 1.5.446.809-.387-.048-.06-1.758-1.702-.29-1.054.242.107 1.68.991 1.146.192-.105-.153-.501-.22-.601-.515-.157-.453.442-.592-.04-1.277-.085-.121-.965-.896-.108-.658.135.036.605.352.71.288.25-.15.345-.379.403-.523.028-.068.047-.12.043-.045m30.237 56.013.204.194a.36.36 0 0 0-.333-.097c.033-.061.057-.103.072-.108.028-.007.051 0 .057.01m-6.098-2.472c.205-.437-.458-.326-.712.216-.206.432.453.322.712-.216m-3.588-1.934c.135-.937-1.927 1.757-1.16 1.474.047-.019 1.152-1.42 1.16-1.474m-3.682-1.536c.206-1.103-.792.115-.971.951-.19.83.901-.619.97-.95M7.124 45.008a4 4 0 0 0-.294.485c-.093.183-.137.299-.166.374a4 4 0 0 0-.073.212c-.118.415-.091.423-.097.483.003.04.014.042.027.037.026-.014.062-.06.103-.088.163-.129.66-.03.778-.045.363-.058.42-.198.35-.376-.118-.371-.605-.806-.614-.88q-.01-.103-.014-.202m6.134-.415c.062.516-.144 1.212.082 1.608.046.064.656-.145.781-.09.028.001.055.03.034-.07a1 1 0 0 0-.04-.134c-.028-.076-.047-.15-.177-.412a3.7 3.7 0 0 0-.446-.686 4 4 0 0 0-.241-.27zm13.07-7.53c.642-.488.942-.397.593.521-.191-.186-.404-.337-.593-.52M4.391 18.158c-.77-.014-.761.47.005.254.031-.008.026-.253-.005-.254M34.652 6.443c-.218-.376.072-.304.069.004q.001.047.016.108-.052-.062-.085-.112m-4.07-4.882c-.064-.044-.594.377-.555.433.678 1.07 1.592.374.554-.433"/></svg>