<svg width="37" height="26" viewBox="0 0 37 26" fill="none" xmlns="http://www.w3.org/2000/svg">
<path d="M8.91093 3.14794C10.8555 3.68085 11.9213 4.59556 13.5614 5.43553C17.1701 7.28333 22.0596 9.45848 25.8081 11.2046C28.6421 12.5174 31.5477 13.9121 34.322 15.0267C34.4599 15.0806 34.5313 15.1479 34.5933 15.1712C34.7403 15.2265 34.9079 15.2848 35.0784 15.3367C35.1652 15.3637 35.2461 15.3835 35.4181 15.4386C35.4756 15.4597 35.554 15.4759 35.7647 15.5868C35.8887 15.6906 36.0462 15.5938 36.4894 16.3334C37.0049 17.3061 36.2137 18.3127 36.07 18.3765C35.4189 18.8503 35.4892 18.6954 35.3542 18.7666C34.6793 18.9791 34.3305 19.0396 33.9727 19.1196C32.5488 19.4173 30.139 19.9206 28.8568 20.1589C28.3125 20.2592 27.7572 20.3723 27.5283 20.3284C27.329 20.3667 27.24 20.4704 27.1893 20.486C27.1887 20.486 27.1881 20.4861 27.1875 20.4861C27.0241 20.5357 26.5936 20.5704 26.5016 20.5943C26.4879 20.5979 26.5857 20.6376 26.3581 20.669C26.3378 20.6719 26.3478 20.6281 26.1587 20.6691C26.1091 20.6797 25.4929 20.8796 25.3136 20.9237C24.717 21.0685 23.2789 21.3457 22.5679 21.5153C22.4587 21.541 22.4014 21.579 22.2869 21.6066C22.2278 21.6209 22.1331 21.6169 22.1147 21.6215C22.0342 21.6415 21.7138 21.839 21.7846 21.5844C21.4232 21.6866 21.5487 21.735 21.5521 21.7852C21.1606 21.8876 20.9439 21.8295 20.8686 21.9669C18.9299 22.4328 17.0208 22.9477 15.1613 23.5617C15.1667 23.5797 15.1722 23.5976 15.1777 23.6156C14.6053 23.7309 14.4656 23.9172 14.1189 23.9269C13.9359 24.0192 13.7551 24.1121 13.5763 24.2059C12.969 24.4267 12.3567 24.6705 11.7563 24.9204C11.4676 25.0408 11.1222 25.1899 10.96 25.2729C10.8467 25.3513 11.2911 25.0346 11.3367 24.9251C11.3651 24.8777 11.3534 24.932 11.4831 24.6695C11.5335 24.5369 11.6535 24.3527 11.6212 23.8452C11.7548 23.4074 10.5122 22.2003 10.0476 22.3584C8.73277 22.5305 9.4122 22.5156 9.22079 22.5528C9.16172 22.5863 9.15938 22.5901 9.15855 22.5903C9.15963 22.5898 9.18298 22.5737 9.20957 22.5544C9.31498 22.478 9.44575 22.378 9.57683 22.2774C10.6319 21.4633 11.7192 20.6141 12.8807 19.8082C14.0396 19.0107 15.1746 18.3095 16.2621 17.5838C17.2577 17.2474 18.7914 14.472 18.3295 16.8415C18.4726 17.1829 18.4893 17.0312 18.3634 16.9164C18.2113 16.7549 17.7662 16.458 17.3537 16.151C16.9939 15.8814 16.4552 15.4468 16.0327 15.1382C15.9365 15.0679 15.8534 15.0398 15.8421 15.0316C15.7778 14.9846 15.7994 14.9507 15.7377 14.9054C15.6631 14.8507 15.5578 14.8122 15.4715 14.7486C15.1541 14.5148 14.7974 14.2737 14.7564 14.2436C14.5623 14.1008 14.5405 14.0371 14.525 14.0255C14.3099 13.8664 14.3705 13.953 14.3169 13.9123C14.0412 13.7023 13.8915 13.4869 13.4548 13.2781C13.4846 13.2591 13.5143 13.2401 13.5441 13.221C13.2589 12.9937 13.4035 13.2047 13.3338 13.1741C13.3049 13.1608 12.6741 12.6931 12.6259 12.656C12.4572 12.5269 12.4793 12.489 12.4647 12.4777C12.4293 12.4504 11.9702 12.178 11.7724 11.9859C11.5386 11.759 11.8975 11.9118 11.8426 11.851C11.8334 11.8409 11.5556 11.6485 11.5355 11.5992C11.513 11.5456 11.7475 11.7185 11.7516 11.7059C11.7537 11.697 11.3999 11.3605 11.4993 11.3822C11.584 11.3933 12.0826 11.8248 12.2067 11.8908C12.2272 11.9017 12.2225 11.8348 12.24 11.8452C12.3098 11.8889 13.5355 12.7734 13.5873 12.8199C13.5096 12.7929 13.432 12.7659 13.3547 12.739C13.4379 12.8017 13.5222 12.8652 13.6055 12.9279C13.4738 12.8565 13.3423 12.785 13.2101 12.7128C13.2776 12.9987 13.9317 13.2278 14.0106 13.1661C14.046 13.1368 13.7815 12.807 14.1283 12.9735C14.088 12.9306 14.0476 12.8877 14.0078 12.8452C13.9009 12.7916 13.7932 12.7374 13.6862 12.6836C13.7436 12.7393 13.8001 12.7944 13.858 12.8504C13.8265 12.8443 13.7948 12.838 13.7634 12.8319C13.572 12.7209 13.3777 12.6075 13.1861 12.4957C13.0994 12.421 13.1417 12.4028 13.0822 12.3505C12.3469 11.6999 12.7915 12.1729 12.2837 11.7816C12.2225 11.7108 12.1602 11.6392 12.0993 11.5684C12.0738 11.6581 11.8772 11.4466 11.5779 11.273C11.6276 11.2744 11.6775 11.276 11.7275 11.2776C11.317 10.9955 10.5936 10.2776 10.7184 10.5657C10.6347 10.4865 10.5518 10.4078 10.4683 10.3284C10.3756 10.2908 10.2834 10.2535 10.1907 10.2156C10.0855 10.1327 9.98107 10.0501 9.87643 9.96711C9.88431 9.95573 9.89219 9.94434 9.90008 9.93296C9.98492 9.99717 10.0698 10.0612 10.1548 10.1253C10.1164 10.0435 10.0782 9.96183 10.0401 9.88008C9.97329 9.83827 9.90674 9.79658 9.84022 9.75482C10.0775 9.98499 9.69336 9.77524 9.57638 9.75586C9.34397 9.60449 9.24699 9.43871 9.17517 9.37939C9.14135 9.35167 8.65505 9.13689 8.90072 9.1498C8.68045 9.00093 8.46128 8.85196 8.24192 8.70194C8.16692 8.62963 8.09222 8.5574 8.01729 8.48488C8.23428 8.5724 7.77113 8.10843 8.16473 8.38337C8.4587 8.58824 8.4909 8.69039 8.62523 8.79451C8.74653 8.88852 8.83532 8.90546 8.96846 9.0062C9.86377 9.68415 10.5875 10.2383 11.432 10.8857C11.5986 11.0134 11.7645 11.1104 11.8767 11.1964C12.003 11.2932 11.812 11.2169 11.9826 11.3265C12.163 11.4423 12.2243 11.4349 12.2703 11.4675C12.2989 11.4878 12.3665 11.584 12.4487 11.6439C12.7879 11.8914 13.3072 12.2213 13.3556 12.2564C13.4093 12.2963 14.3523 13.015 14.3952 13.0527C14.4178 13.073 14.2857 13.1504 14.5846 13.1808C14.653 13.2263 14.7195 13.2702 14.7881 13.3158C14.7611 13.3308 14.7341 13.3458 14.707 13.3608C15.1614 13.5547 14.9924 13.5069 15.3751 13.7691C16.2859 14.3971 17.6469 15.3641 18.5224 16.066C18.7093 16.2204 18.8048 16.2558 18.9726 16.4294C19.2341 16.8145 18.9699 16.2512 19.1338 16.3991C19.0074 16.4044 18.9382 16.7807 18.6748 16.8367C18.6614 16.8733 18.6457 16.9115 18.63 16.9493C18.3161 17.1055 18.2905 17.2113 17.9897 17.4436C17.8601 17.5419 17.9646 17.3632 17.749 17.6323C17.6938 17.6624 17.6368 17.6935 17.5807 17.7238C17.5809 17.6985 17.5813 17.673 17.5818 17.6476C17.2876 17.8717 17.2594 17.8757 17.3386 17.9158C17.1823 18.0049 17.0238 18.094 16.8655 18.1819C16.8607 18.2155 16.8557 18.2492 16.851 18.2828C16.8931 18.2783 17.8115 17.6985 18.6048 17.0368C19.5675 16.1502 19.0356 16.547 18.7856 16.1699C18.3895 15.7289 17.2223 14.9835 16.7879 14.6545C16.6143 14.5234 16.5684 14.42 16.312 14.2288C16.0554 14.0375 15.6972 13.8469 15.5569 13.7495C15.09 13.4273 12.9031 11.8467 14.4358 12.8567C14.4092 12.8033 14.383 12.7501 14.3564 12.6966C13.7079 12.3495 13.957 12.4559 13.4717 12.0942C13.2668 11.9415 12.7398 11.6364 12.8423 11.5535C13.2389 11.8126 13.6225 12.1394 13.9577 12.3778C13.9904 12.4011 14.4198 12.6376 14.6148 12.7961C14.7896 12.9387 14.5931 12.9475 15.0722 13.1219C15.2926 13.4422 15.5328 13.4649 15.6199 13.5111C15.768 13.5892 15.7459 13.654 15.876 13.7559C16.0195 13.8683 16.1454 13.9044 16.1661 13.9188C16.3702 14.0618 17.4212 14.8073 17.4516 14.8639C17.4039 14.8436 17.3543 14.822 17.3056 14.8012C17.5649 15.0122 17.5469 14.9167 17.6232 14.9623C17.6764 15.0014 17.728 15.0396 17.7806 15.0785C17.7517 15.0745 17.7225 15.0704 17.693 15.066C18.011 15.297 17.8002 15.0782 18.2415 15.4122C18.5215 15.6247 18.756 15.8878 18.7814 15.9054C18.7894 15.9107 18.7332 15.8158 18.8389 15.8996C19.0216 16.0408 19.2526 16.2861 19.2429 16.3561C19.3106 16.4274 19.3327 16.3814 19.3414 16.3905C19.4743 16.4649 19.3031 16.6897 19.0664 16.928C18.7045 17.2884 18.1652 17.662 17.6584 18.0214C17.6056 18.0586 17.6219 18.0103 17.5697 18.0472C17.486 18.1073 17.0701 18.4437 17.0041 18.4906C16.843 18.6075 16.3914 18.8784 16.329 18.935C16.3202 18.9431 16.4884 18.8836 16.325 19.0045C16.1435 19.1385 16.2152 19.026 16.2046 19.0322C15.809 19.2645 15.5851 19.4531 15.3247 19.6287C15.2399 19.6859 15.0594 19.7517 14.9447 19.84C14.9315 19.8502 14.9801 19.8649 14.9674 19.8754C14.796 20.0095 14.5846 20.0605 14.5037 20.1074C14.3027 20.2242 14.4379 20.1998 14.4278 20.2067C14.3004 20.2915 14.1141 20.3902 13.921 20.5216C13.0528 21.1155 12.3646 21.6278 11.4809 22.2953C11.3686 22.3804 11.2157 22.4505 11.1986 22.4637C11.1467 22.5039 11.1887 22.5268 11.0371 22.6424C10.7191 22.8845 10.4276 23.1152 10.116 23.3521C10.056 23.3976 10.0009 23.3882 9.95701 23.4199C9.91469 23.4506 9.85644 23.5021 9.8005 23.549C9.79275 23.557 9.7655 23.5744 9.79464 23.561C9.58502 23.4733 10.7502 23.7877 10.4255 24.1851C10.3596 24.3083 10.3825 24.251 10.3782 24.2592C10.4135 24.2164 10.3175 24.2939 10.3601 24.2605C10.4784 24.1817 10.6589 24.1089 10.6873 24.1682C10.9918 23.8997 11.2823 23.888 11.5776 23.7623C12.2825 23.4605 13.3794 23.0051 14.1033 22.7675C14.2544 22.7174 14.3388 22.7239 14.4216 22.6971C14.5735 22.6458 15.4329 22.3391 15.4795 22.3312C15.5727 22.3122 15.5633 22.4708 15.9837 22.2014C16.2521 22.1076 16.237 22.177 16.2939 22.1628C16.7359 22.052 17.1244 21.7957 17.0798 21.9396C17.5789 21.7571 17.8923 21.5977 18.1322 21.6526C18.1136 21.5983 18.3459 21.4977 18.6419 21.4402C18.3694 21.6145 18.4237 21.6607 17.702 21.8468C17.6906 21.8498 17.701 21.8038 17.6895 21.8068C17.5849 21.8336 17.379 21.9146 17.204 21.9636C17.0304 22.0122 17.1196 21.9566 17.0494 21.9778C16.9852 21.9974 16.9984 22.0348 16.9066 22.0627C16.6102 22.1527 16.3473 22.245 16.1806 22.2976C16.0723 22.3318 15.946 22.335 15.8619 22.3617C15.5443 22.4618 14.8773 22.7101 14.4765 22.8465C14.3942 22.8743 14.4137 22.8258 14.2312 22.8867C14.2108 22.8935 14.1438 22.9602 13.9895 23.0247C13.8313 23.0907 13.7016 23.1168 13.6024 23.158C13.5178 23.1931 13.5655 23.2138 13.3928 23.281C13.2458 23.3302 11.602 23.9662 11.5135 24.003C11.3842 24.0487 11.3039 24.0278 11.2292 24.0667C11.2157 24.0739 11.2141 24.1281 11.1675 24.1521C10.9892 24.2458 10.7074 24.3741 10.51 24.4821C10.5026 24.4816 10.4261 24.5513 10.5635 24.4346C10.6447 24.3484 10.5655 24.4344 10.5776 24.4223C10.3184 24.1891 11.6741 25.4394 10.0259 23.2663C9.11173 23.4811 9.82813 23.29 9.76556 23.2732C9.89122 23.1819 10.0316 23.0761 10.1701 22.9724C10.7319 22.5495 11.3136 22.121 11.7102 21.8229C13.35 20.5634 14.9978 19.5327 16.6964 18.4085C16.7221 18.3814 16.7481 18.3541 16.7737 18.327C16.601 18.4403 16.4276 18.5529 16.2536 18.6651C16.24 18.6465 16.2263 18.6278 16.2126 18.6091C15.9754 18.7582 16.0359 18.7839 16.0605 18.8073C15.9656 18.8519 15.8707 18.8963 15.7755 18.9407C15.7439 19.0569 15.1292 19.3865 14.8259 19.5812C14.6283 19.7079 14.4107 19.885 14.3045 19.9512C14.0823 20.0896 14.0594 20.0457 14.042 20.0561C14.0105 20.0753 13.7299 20.3114 13.5068 20.4616C13.1778 20.6838 13.0963 20.6464 12.6952 21.0128C12.1102 21.384 11.5135 21.858 10.9333 22.3128C11.0012 22.1713 10.5195 22.6272 10.2849 22.8078C10.1077 22.9435 9.92183 23.0866 9.74426 23.2164C9.70388 23.2458 9.6551 23.2805 9.6298 23.2967C9.68991 23.2905 9.3033 23.3675 9.93323 23.2083C12.018 24.7695 10.3205 24.3697 10.6285 24.4547C10.618 24.4673 10.6243 24.4591 10.6295 24.4532C10.3666 24.6766 10.621 24.4805 10.6886 24.4628C11.0949 24.275 11.5655 24.0853 12.0292 23.8991C12.9516 23.5289 13.884 23.1956 14.7397 22.9178C14.9583 22.8467 15.1399 22.8299 15.2599 22.7887C15.3256 22.7663 15.3392 22.7102 15.4346 22.6858C15.4513 22.6817 15.475 22.7218 15.65 22.6725C16.0833 22.5482 17.1341 22.1502 17.4326 22.1571C18.9069 21.7142 20.4039 21.321 21.9125 20.9466C21.9548 20.9558 21.9977 20.9648 22.0397 20.974C22.3033 20.8122 23.4543 20.6012 24.0091 20.4711C24.9851 20.2404 26.2301 19.9355 27.0897 19.7461C27.2754 19.7052 27.4363 19.6982 27.612 19.6597C27.6872 19.6433 27.7761 19.5882 27.8551 19.571C28.7434 19.3772 29.9594 19.1572 30.8574 18.968C31.876 18.7529 32.8691 18.549 33.871 18.3318C34.124 18.2766 34.3721 18.2219 34.6365 18.1578C34.7667 18.1259 34.9002 18.0932 35.061 18.0436C35.1598 18.0053 35.1737 18.0377 35.4702 17.8606C35.7731 18.0655 35.6737 16.0379 35.4133 16.2767C35.2584 16.1919 35.2067 16.1843 35.1608 16.167C34.6286 16.0063 34.2298 15.8562 33.7374 15.6627C27.2446 12.9736 20.8201 9.86891 14.4422 6.86368C14.3568 6.82309 14.3784 6.78852 14.3122 6.75696C13.9203 6.5699 13.0324 6.18754 12.5911 5.97704C12.2381 5.80878 11.7069 5.48936 11.5583 5.48801C12.7693 6.16456 14.0952 6.78284 15.3874 7.42127C15.4787 7.46639 15.4746 7.50696 15.4856 7.51294C15.6916 7.62485 15.5809 7.5141 15.8879 7.65619C15.9898 7.70335 16.8832 8.25996 16.8224 8.09622C17.0277 8.24705 18.6123 9.01965 18.9281 9.14999C19.0235 9.18937 18.9728 9.12556 18.9921 9.1326C19.0759 9.16312 19.0909 9.22532 19.1619 9.26011C19.3533 9.35348 19.8594 9.54632 19.9506 9.58942C20.1667 9.69131 20.7878 10.0274 21.0747 10.1512C21.3364 10.2641 21.3082 10.1934 21.5358 10.2946C21.714 10.374 21.5042 10.3242 21.8908 10.5197C22.0803 10.6155 22.7768 10.9063 22.9447 10.9845C23.1122 11.0627 23.2779 11.1744 23.511 11.2804C23.8449 11.4323 24.5612 11.7462 24.9063 11.8952C24.9267 11.9041 24.9927 11.89 25.0415 11.9135C25.1427 11.9623 25.0911 11.9936 25.1655 12.0337C25.2393 12.0738 26.5803 12.687 26.809 12.7924C26.9642 12.8641 27.0848 12.8867 27.1725 12.9272C27.2409 12.9589 27.2308 13.0002 27.2999 13.0324C27.3222 13.0427 27.5147 13.0911 27.7009 13.1773C27.8743 13.2578 28.5131 13.5868 28.5883 13.6212C28.6385 13.6442 28.5963 13.5924 28.7436 13.66C28.8773 13.7215 28.9475 13.7955 29.0216 13.8297C29.2044 13.9138 29.4038 13.9677 29.5978 14.0547C30.1331 14.2944 30.0902 14.3268 30.1209 14.3423C30.2082 14.3859 30.2608 14.3615 30.2899 14.3734C30.4187 14.4268 30.7216 14.5521 30.8366 14.6009C30.9765 14.6602 31.0134 14.7218 31.1637 14.7878C31.2731 14.8357 31.5111 14.8955 31.7592 15.0005C32.3263 15.2405 32.9956 15.515 33.5496 15.7378C33.7108 15.8026 33.7262 15.849 33.774 15.8689C34.0369 15.9773 34.1988 15.9918 34.2747 16.0204C34.4075 16.0703 34.5653 16.1321 34.7304 16.1935C34.8153 16.225 34.895 16.2537 34.9949 16.2886C34.8125 16.4393 36.3619 15.8006 35.3386 17.7322C34.5558 18.0565 34.3898 17.9789 34.0731 18.0653C33.8471 18.1146 32.8995 18.3485 32.3562 18.4566C32.2933 18.4692 32.3445 18.4281 32.2774 18.447C32.1183 18.4918 32.1445 18.5481 32.0595 18.5641C32.0164 18.572 31.9228 18.5568 31.803 18.5784C31.1905 18.6888 30.7779 18.8024 30.5018 18.8586C27.8362 19.4005 25.1271 19.9673 22.6597 20.539C22.3849 20.6028 22.0525 20.718 21.6303 20.7836C21.6132 20.7683 21.5961 20.7531 21.579 20.7379C21.5689 20.7593 21.5588 20.7807 21.5487 20.8022C21.0806 20.9255 20.912 20.9912 20.428 21.0876C20.3867 21.0959 20.2411 21.044 20.1891 21.1671C19.6988 21.2117 19.976 21.2215 19.6277 21.3185C19.2781 21.4163 18.9355 21.4825 18.5956 21.5694C18.3998 21.5826 19.1569 21.2874 19.2059 21.2756C19.2874 21.2545 19.3863 21.2834 19.467 21.2653C19.7017 21.2129 19.9201 21.1139 19.9831 21.1467C20.2725 21.0217 19.903 21.1412 19.9297 21.088C20.1352 21.0549 20.3424 21.022 20.5489 20.9898C20.6158 20.8142 21.783 20.7361 21.6778 20.6421C21.7723 20.6434 21.8677 20.6447 21.9623 20.6461C22.3189 20.411 22.5751 20.4564 23.1073 20.3777C23.0653 20.3682 23.0233 20.3587 22.9814 20.3493C22.9902 20.3391 23.4458 20.2032 23.2985 20.319C23.7486 20.1077 23.7677 20.2827 24.1649 20.063C24.414 19.9901 24.2781 20.0958 24.7303 19.9929C24.9983 19.932 25.3224 19.8206 25.6224 19.7516C25.6914 19.7358 25.7306 19.7707 25.792 19.7571C25.8533 19.7436 25.8742 19.6963 25.9487 19.6789C26.1026 19.6427 26.3072 19.6278 26.4035 19.6039C26.4896 19.5826 26.604 19.52 26.8112 19.4691C27.532 19.2918 27.3253 19.3906 27.4433 19.3832C27.5699 19.3752 27.6449 19.2883 27.8919 19.2435C27.9166 19.239 27.8622 19.2948 27.9416 19.276C28.0053 19.261 28.029 19.208 28.2413 19.1537C28.324 19.132 29.646 18.841 29.8499 18.7975C30.1587 18.731 30.8562 18.625 31.1771 18.5575C31.3005 18.5316 31.4247 18.4672 31.5562 18.4399C31.991 18.3496 32.6905 18.2064 33.2392 18.0912C33.742 17.9855 34.6238 17.8806 34.9157 17.7119C35.0311 17.6631 35.0369 17.7262 35.3418 17.5049C35.7378 15.9036 34.9492 16.6639 35.0248 16.4965C34.9013 16.4523 34.8232 16.4222 34.7638 16.3952C34.6426 16.3409 34.5982 16.3081 34.5736 16.2994C34.444 16.2525 34.3685 16.2709 34.2009 16.2115C32.0197 15.4161 29.1772 14.0714 27.145 13.1467C22.4137 10.98 17.6692 8.76403 12.9486 6.51738C12.9279 6.52842 12.9073 6.53946 12.8866 6.5505C13.4413 6.82583 14.083 7.16487 14.6311 7.43168C15.3634 7.78808 16.4894 8.23219 16.9746 8.60261C16.7487 8.50869 16.4157 8.29739 16.3933 8.35989C16.7817 8.54808 17.174 8.73801 17.5612 8.9254C17.5624 8.89222 17.5639 8.85922 17.5652 8.82613C17.9802 9.01157 18.3939 9.21347 18.8069 9.40273C18.8784 9.43551 18.8398 9.38677 18.9018 9.41572C18.971 9.44815 18.9121 9.45162 18.925 9.45792C19.0993 9.54014 19.1651 9.53953 19.1865 9.55001C19.2413 9.57698 19.1869 9.58147 19.3427 9.66301C19.6313 9.81426 19.8701 9.84661 19.7507 9.9233C19.8451 9.96762 19.9416 10.0129 20.0366 10.0575C20.0752 10.0394 20.1137 10.0213 20.1522 10.0033C20.6777 10.3956 21.0477 10.313 21.2918 10.6302C21.4109 10.655 21.5296 10.6796 21.6478 10.7038C21.6939 10.7615 21.7397 10.8191 21.7855 10.8766C21.809 10.8566 21.8325 10.8366 21.856 10.8166C22.4246 11.1053 23.042 11.3563 23.5949 11.6173C23.9741 11.7963 24.0649 11.8508 24.4025 12.0053C25.1583 12.3509 24.388 12.0549 24.9874 12.3992C24.9695 12.353 24.9516 12.3067 24.9336 12.2604C25.0426 12.297 25.1486 12.3323 25.2599 12.3699C25.3211 12.4292 25.3819 12.4883 25.4424 12.5472C25.8215 12.5622 25.9829 12.7662 26.0261 12.7861C26.0626 12.8027 26.2147 12.7764 26.5679 13.0208C26.4607 12.8395 26.8565 13.1529 26.891 13.1695C26.9282 13.1871 27.3684 13.3598 27.5493 13.4438C27.6902 13.5092 27.9721 13.6664 28.1823 13.7607C28.3652 13.8428 28.3626 13.7968 28.3761 13.8026C28.6004 13.9008 28.449 13.8667 28.612 13.9424C28.7758 14.0184 28.9109 14.0415 28.947 14.0612C28.9644 14.0709 28.8883 14.0781 28.9696 14.1188C29.1867 14.228 29.5921 14.374 29.8388 14.4853C29.9291 14.526 30.0276 14.6052 30.1236 14.649C30.2712 14.7162 30.3647 14.7109 30.4503 14.7502C30.4786 14.7634 30.6521 14.9124 30.8936 15.0074C30.9387 15.0249 31.1372 14.9596 31.2325 15.2169C31.2577 15.1975 31.2833 15.1783 31.3086 15.159C32.1529 15.4506 32.2908 15.7522 32.7305 15.7186C33.3161 15.9852 32.8789 15.8887 32.9393 15.9268C32.9796 15.9516 33.1805 16.0103 33.2018 16.0202C33.2384 16.0376 33.2226 16.0583 33.2629 16.0744C34.0246 16.3731 33.7071 16.1942 33.9548 16.2578C34.5526 16.4048 34.9409 16.7102 33.9648 16.3039C33.9599 16.317 33.9549 16.3301 33.95 16.3432C34.2013 16.428 34.8201 16.6407 34.5893 16.639C34.4053 16.6508 32.9386 16.0401 33.7474 16.4391C33.9323 16.5287 34.0486 16.5189 34.3494 16.7286C34.5697 16.8101 34.6316 16.694 34.9299 16.841C34.8915 16.7814 34.8519 16.7231 34.8153 16.6653C34.886 16.8525 35.1882 15.9849 35.2048 17.3635C34.9173 17.5559 34.8795 17.505 34.744 17.5487C34.5086 17.6028 34.2892 17.6385 34.1302 17.6876C34.0212 17.7214 33.664 18.0169 33.7125 17.7891C33.5272 17.8438 32.6401 17.9922 32.4769 18.0458C32.4398 18.0582 32.4123 18.1797 31.834 18.2606C31.7917 18.255 31.749 18.2495 31.7059 18.2441C32.2192 18.0944 31.2905 18.2464 31.518 18.0892C31.609 18.1193 32.0331 18.0604 32.1039 18.0703C32.2256 18.0874 31.8984 18.2111 32.3267 18.1061C32.5624 17.8734 31.7999 18.1179 31.8839 17.9264C31.3344 18.1228 31.263 18.0603 31.1352 18.0838C30.5848 18.1861 30.2441 18.2761 29.7237 18.3655C29.6046 18.4263 30.5511 18.2785 30.6623 18.2399C30.2622 18.4505 30.9985 18.3016 31.2902 18.1653C31.3234 18.1966 31.3584 18.2276 31.3922 18.2587C30.9862 18.3231 30.5902 18.3954 30.1971 18.5095C30.1684 18.5013 30.1397 18.493 30.1108 18.4848C30.1961 18.4453 30.2792 18.4063 30.366 18.3665C30.0262 18.4027 30.2482 18.4675 29.7868 18.467C29.7818 18.5111 29.7769 18.5552 29.7719 18.5994C29.3436 18.6754 28.9168 18.7515 28.4917 18.8278C28.2878 18.9576 27.4675 19.1014 27.5934 18.9625C27.2626 19.0258 27.6805 18.9954 27.3788 19.0877C27.2473 19.1278 26.9855 19.1878 26.9148 19.173C26.9203 19.0652 27.3106 18.9675 27.4136 18.8721C27.3369 18.8641 25.528 19.3351 25.6649 19.1809C25.5163 19.1987 25.5969 19.2451 25.3375 19.319C24.612 19.5252 23.4461 19.6622 22.8905 19.9516C23.6038 19.8753 23.7886 19.7396 24.32 19.6157C24.6592 19.535 26.7317 19.0638 26.2916 19.2735C26.3651 19.2431 26.4384 19.2128 26.5116 19.1825C26.5956 19.1978 26.6791 19.2132 26.7637 19.2283C26.5473 19.2802 26.3305 19.3323 26.1152 19.3844C26.0564 19.3638 25.9976 19.3432 25.9387 19.3226C25.9197 19.3507 25.9008 19.3788 25.8818 19.4069C25.791 19.4316 25.7012 19.4561 25.6108 19.4809C25.6304 19.4478 25.65 19.4147 25.6696 19.3816C25.5279 19.408 25.3853 19.4346 25.2438 19.4611C25.2898 19.4893 25.3358 19.5175 25.3818 19.5458C24.7212 19.7022 24.9404 19.6295 24.5574 19.6434C24.2813 19.6981 24.7606 19.664 24.1843 19.8128C23.5143 19.9868 23.9311 19.7735 23.0634 19.9985C23.055 20.0196 23.0467 20.0408 23.0383 20.0619C22.8421 20.0881 22.6461 20.1146 22.45 20.1413C22.4806 20.158 22.5113 20.1748 22.5419 20.1915C22.1453 20.2749 21.6089 20.4488 21.4579 20.3914C21.8673 20.3382 21.8282 20.184 21.7164 20.1805C21.4849 20.1659 18.3275 21.019 17.723 21.2087C16.9471 21.4337 16.3443 21.561 15.6628 21.8593C16.1583 21.7633 17.8319 21.2184 18.1671 21.1767C18.1999 21.1723 18.232 21.3148 18.3911 21.1008C19.0571 20.9476 19.8422 20.6959 20.6728 20.4961C20.6576 20.5432 20.6424 20.5902 20.6273 20.6373C20.0937 20.677 19.6729 20.9883 19.6979 20.8131C19.5958 20.8393 19.4948 20.8654 19.3944 20.8915C19.4015 20.9187 19.4086 20.946 19.4156 20.9732C19.2602 21.0136 19.1118 21.0526 18.9573 21.0937C18.9501 21.0665 18.9429 21.0392 18.9357 21.012C18.808 21.046 18.6856 21.0788 18.5574 21.1135C18.5515 21.1442 18.5457 21.1749 18.5399 21.2055C18.1469 21.2489 16.9126 21.7662 17.4261 21.4439C17.2511 21.4942 17.0741 21.5458 16.898 21.598C16.9044 21.6175 16.9108 21.6371 16.9172 21.6567C16.8418 21.6819 16.7672 21.707 16.6934 21.732C16.7126 21.7068 16.7319 21.6816 16.7513 21.6563C16.4146 21.7917 16.0589 21.799 15.8517 21.932C16.0047 21.8985 16.1579 21.8657 16.3125 21.833C16.0175 21.8948 15.5095 22.1149 15.4611 22.1311C15.3175 22.1779 15.2293 22.1629 15.0738 22.2121C14.9354 22.2561 14.9625 22.2809 14.9364 22.2884C14.1738 22.5116 14.4037 22.252 14.1211 22.5677C14.0753 22.5542 14.0281 22.5413 13.9812 22.5283C13.9391 22.568 13.898 22.6076 13.8571 22.6471C13.6339 22.7251 13.4147 22.8035 13.1943 22.8844C13.281 22.8891 13.3644 22.8952 13.4507 22.9005C13.1283 23.0371 12.95 23.0317 12.9186 23.0419C12.8258 23.0733 12.802 23.13 12.7747 23.1407C11.4439 23.6664 12.2383 23.308 11.5106 23.4291C11.2999 23.5878 11.5632 23.5479 11.6226 23.5947C11.2976 23.6973 11.2075 23.7546 10.8793 23.8944C10.7954 23.9302 10.689 23.9391 10.6373 23.9622C10.5918 23.9826 10.4639 24.0831 10.3686 24.1334C10.1225 24.0264 10.911 24.8544 9.85577 23.6796C9.93434 23.6362 10.0565 23.5505 10.1655 23.4675C10.3473 23.3295 10.8987 22.8659 11.2935 22.5628C11.465 22.4313 11.4425 22.4886 11.4868 22.4548C11.5054 22.4406 11.6137 22.3102 11.7242 22.2263C12.6127 21.5511 13.5682 20.8905 14.512 20.2842C15.1764 19.8526 15.8362 19.3998 16.4985 18.9743C16.6392 18.8839 16.5801 18.9554 16.642 18.9163C16.6632 18.9028 16.6623 18.8458 16.8891 18.7206C16.971 18.6753 16.8998 18.7627 16.9777 18.7136C17.0154 18.6896 17.0085 18.6438 17.2199 18.4916C17.6048 18.2142 17.8439 18.1159 17.8774 18.0908C17.9412 18.0425 17.9023 18.0267 17.9866 17.966C18.4018 17.6653 18.7437 17.4059 19.0606 17.1149C19.3505 16.905 19.6413 16.3123 19.3659 16.1776C19.27 16.0503 19.4288 16.1106 19.277 15.9585C19.2209 15.9289 19.1641 15.9007 19.1058 15.8726C19.1682 15.9489 19.2267 16.0254 19.2798 16.1024C19.1231 15.9005 18.8597 15.7248 18.6994 15.5945C18.6715 15.5706 18.4124 15.3253 18.2632 15.2183C18.3337 15.2542 18.4025 15.2891 18.4736 15.3264C18.459 15.3002 18.444 15.2739 18.4297 15.2481C18.1279 15.0403 17.8143 14.8101 17.5083 14.5854C17.3986 14.505 17.4521 14.5082 17.3409 14.4268C16.6892 13.9512 16.786 14.168 16.2817 13.5343C16.484 13.7026 17.2803 14.236 17.3882 14.3237C17.4634 14.384 17.6561 14.7573 17.6592 14.5198C18.2833 14.9765 17.6803 14.6652 18.2719 15.0757C18.2747 15.0482 18.2774 15.0206 18.2799 14.993C18.4905 15.1319 18.6444 15.2355 18.7376 15.3624C18.845 15.3013 19.4955 15.8899 19.7131 16.24C20.0418 16.6897 19.2521 17.3305 18.7674 17.7231C18.5856 17.8653 18.4534 17.9045 18.4299 17.9221C18.3954 17.9478 18.3226 18.0492 18.2537 18.0985C17.9988 18.2853 17.1606 18.7668 17.0187 18.9886C18.4107 18.0602 21.1077 16.4418 18.8258 15.2535C18.9849 15.4337 17.4548 14.299 17.3732 14.2449C17.3008 14.1899 17.385 14.2039 17.3643 14.1862C17.2142 14.0583 17.0411 14.002 16.9915 13.9665C16.9528 13.9388 16.8888 13.8615 16.7486 13.7623C16.7226 13.7439 16.6997 13.761 16.6726 13.7417C16.4907 13.6121 16.3119 13.4845 16.1288 13.3545C16.1179 13.3464 16.0951 13.2815 16.0487 13.2484C16.0017 13.215 15.934 13.2155 15.9222 13.2073C15.7756 13.1027 15.542 12.9048 15.4021 12.8048C15.3543 12.7708 15.3706 12.8181 15.317 12.7796C15.1513 12.6606 15.2398 12.6538 15.0256 12.5189C14.9535 12.4736 14.9339 12.5131 14.8052 12.414C14.7136 12.3435 14.7698 12.2883 14.7565 12.2754C14.7385 12.2584 14.3808 12.0776 14.3061 11.9613C14.6127 12.0164 14.0592 11.7754 14.0495 11.838C13.9308 11.7351 13.8126 11.6323 13.6934 11.5286C13.6416 11.5089 13.5905 11.4896 13.5388 11.4699C13.065 11.0473 12.731 10.852 12.2421 10.4678C12.2186 10.4496 11.8165 10.1131 11.8482 10.1113C12.1201 10.2695 12.3735 10.4539 12.4966 10.6235C12.8357 10.7204 12.7814 10.8018 13.222 11.1022C13.3697 11.2027 13.3995 11.1833 13.4163 11.1949C13.9866 11.5887 14.8984 12.2242 15.222 12.5736C15.3436 12.6282 14.9663 12.3462 15.127 12.4371C15.2146 12.4874 17.1886 13.8534 16.4999 13.5004C16.5662 13.5438 16.6334 13.5878 16.6999 13.6314C16.8241 13.5904 17.1353 13.8421 17.0368 13.9008C17.0793 13.9048 17.1227 13.9094 17.166 13.9139C17.2369 13.9423 17.3147 13.986 17.4169 14.0524C17.8123 14.2992 20.0789 16.0038 19.9757 16.3201C20.0007 16.3172 20.0258 16.3148 20.051 16.3129C19.4045 15.0662 18.2182 14.6412 17.1924 13.7527C17.2108 13.7946 17.2299 13.8369 17.248 13.8786C16.827 13.5371 16.4088 13.2002 15.9871 12.8601C16.4776 13.1572 17.2368 13.6522 17.7038 14.0324C17.7875 14.1004 17.7045 14.0807 17.7221 14.0983C17.768 14.1441 17.8556 14.1374 18.0462 14.2694C18.2351 14.3992 18.6776 14.7791 18.7198 14.8111C18.802 14.8704 19.0631 14.9904 19.1995 15.1032C19.3799 15.253 19.2331 15.1841 19.2687 15.2147C19.414 15.341 19.56 15.4452 19.6691 15.5579C19.8319 15.7246 20.1101 16.1308 20.2151 16.3824C20.1929 16.1379 20.0673 15.9552 19.9602 15.8147C20.8256 16.8955 19.4629 17.5236 18.9916 18.0709C18.9099 18.2918 19.4753 17.8337 19.0202 18.2524C19.1088 18.183 19.1962 18.1129 19.2813 18.0422C19.2854 18.0053 19.2889 17.9687 19.2919 17.9324C19.4481 17.8287 19.6112 17.7121 19.7678 17.5837C19.7088 17.6092 19.6533 17.6297 19.5956 17.6512C20.1387 17.2646 20.4039 16.1286 20.1726 15.8392C20.1375 15.8419 20.1028 15.8458 20.0685 15.8504C19.667 15.2586 18.8312 14.8424 19.0758 14.8072C19.0477 14.7966 19.0193 14.7858 18.9903 14.7747C18.7168 14.5208 18.8009 14.6741 18.6841 14.5955C18.6529 14.5732 18.0962 14.1182 18.3827 14.2668C17.8424 13.8237 17.9231 14.0798 17.7637 13.9726C17.4498 13.6493 16.7282 13.28 17.0754 13.3755C17.0235 13.3329 16.9732 13.2913 16.922 13.2491C16.6884 13.2022 16.5766 12.9877 16.4078 12.8225C16.3436 12.7742 16.2806 12.7267 16.2169 12.6787C16.1543 12.6743 16.0915 12.6698 16.0295 12.6658C15.5097 12.1048 15.455 12.5884 15.3848 12.099C15.4408 12.1126 15.4965 12.1261 15.552 12.1393C15.6614 12.2049 15.7691 12.2691 15.8788 12.3348C15.4686 12.0311 15.0598 11.7276 14.6517 11.423C14.1856 10.9645 13.823 10.8372 13.2907 10.351C13.2309 10.3192 13.1706 10.287 13.1109 10.2552C13.2142 10.2302 13.4168 10.3933 13.0473 10.078C13.0478 10.0073 13.3166 10.1948 13.411 10.3179C13.4338 10.3478 13.1608 10.2031 13.4377 10.4069C13.6269 10.5457 13.3228 10.2401 13.8755 10.6726C13.8627 10.6461 13.85 10.6196 13.8372 10.593C13.8983 10.6379 13.9596 10.6827 14.0211 10.7278C14.0571 10.7938 14.0924 10.8592 14.1284 10.9252C14.2975 10.9895 14.4141 10.993 14.7288 11.2364C14.6295 11.19 14.7096 11.3277 14.8707 11.4419C14.8844 11.4229 14.898 11.4038 14.9117 11.3848C15.3068 11.6493 15.1344 11.6104 15.487 11.7964C15.5083 11.8345 15.5303 11.8731 15.5517 11.9113C15.7712 11.9737 16.45 12.3926 16.2648 12.4021C16.5125 12.441 16.8633 12.7523 16.955 12.9275C16.9794 12.9162 17.0037 12.905 17.028 12.8937C17.1065 12.9438 17.1845 12.9935 17.2636 13.0441C17.2982 13.086 17.3322 13.1276 17.3657 13.1688C17.428 13.196 17.4906 13.2233 17.5515 13.2496C17.5703 13.2917 17.5899 13.3345 17.6085 13.3765C17.71 13.4148 17.8121 13.4535 17.9161 13.4939C17.9584 13.5473 17.9996 13.5999 18.0422 13.6537C18.0752 13.6169 18.6062 13.9893 18.7334 14.1246C18.7866 14.1464 18.8368 14.1662 18.8901 14.1884C18.8977 14.2231 18.9049 14.2575 18.9118 14.2917C18.9562 14.3019 18.9998 14.3116 19.043 14.3211C19.1082 14.3939 19.1698 14.4645 19.2346 14.5385C19.6116 14.6895 19.5616 14.7828 19.6314 14.8395C19.7593 14.9349 20.2785 15.3406 20.3371 15.433C20.4017 15.5162 20.4192 15.6036 20.481 15.705C20.9347 18.2805 20.3859 17.0686 20.3942 17.4913C20.2887 17.6441 20.1825 17.7017 20.0871 17.8059C19.9245 18.0076 19.1187 18.7026 19.0679 18.7252C18.994 18.7704 19.0513 18.5069 18.8532 18.7078C18.9017 18.7933 18.3614 19.0538 18.6649 19.0054C18.4573 19.1364 18.252 19.2621 18.0447 19.387C18.1313 19.4665 17.8431 19.5715 17.5775 19.7531C17.2012 20.0118 16.3838 20.6243 16.3523 20.5052C16.2757 20.5862 16.1993 20.6671 16.123 20.7479C15.4823 21.115 14.8957 21.5325 14.3111 21.9364C13.4444 22.5352 12.5454 23.2081 11.6507 23.8896C11.4253 24.061 11.2037 24.2306 10.97 24.4063C10.8525 24.4938 10.7456 24.5759 10.5883 24.6831C10.5206 24.7181 10.6224 24.7043 10.2683 24.8475C10.3217 24.9557 9.05333 24.7599 9.0986 24.0828C9.08643 23.6282 9.20613 23.5878 9.23122 23.5166C9.26582 23.4607 9.28792 23.4332 9.3067 23.4091C9.34428 23.3622 9.3501 23.3569 9.36975 23.3344C9.71072 23.0011 9.70995 23.0841 9.80626 23.0192C10.3966 22.7323 10.8833 22.5476 11.3958 22.3391C11.4935 22.3 11.4934 22.3415 11.5653 22.3128C11.9361 22.1627 12.8988 21.7579 13.4299 21.5783C13.5995 21.52 13.6963 21.5255 13.7492 21.5086C13.9323 21.4505 13.8759 21.4183 13.9588 21.3909C14.0919 21.3458 14.8101 21.1515 15.0536 21.0788C15.1756 21.0417 15.3036 20.9596 15.4505 20.9258C15.4631 20.9228 15.4525 20.9684 15.4632 20.9658C15.7193 20.8902 15.5557 20.9053 15.6431 20.8797C16.2693 20.6975 16.9312 20.5024 17.6118 20.3202C17.7804 20.275 18.0459 20.2312 18.1903 20.1947C18.2459 20.1806 18.138 20.1781 18.3309 20.1285C18.3976 20.1114 18.4292 20.144 18.5033 20.1268C18.824 20.0522 18.8968 19.9011 19.1961 19.9295C19.7202 19.7858 20.6338 19.5252 21.1143 19.409C21.2292 19.3811 21.2888 19.3909 21.3975 19.3644C21.4743 19.3457 21.6026 19.2776 21.7221 19.2488C21.8419 19.2199 22.0406 19.2085 22.2712 19.1532C22.515 19.0947 22.8127 19.0046 22.868 18.992C22.9346 18.9766 22.9751 19.0122 23.0413 18.9964C23.2413 18.9487 23.7693 18.7841 24.0268 18.7213C24.3035 18.6538 24.4752 18.6372 24.57 18.6155C24.6577 18.5953 24.7523 18.5364 24.7924 18.5271C24.8549 18.5126 24.879 18.5514 24.9583 18.5334C25.0877 18.504 25.2158 18.4477 25.4101 18.4041C27.1593 18.0112 28.8976 17.6452 30.623 17.2917C31.4827 17.1153 32.3472 16.9414 33.1958 16.7657C33.6215 16.6768 34.0538 16.5887 34.4372 16.4916C34.5189 16.4728 34.6613 16.4211 34.5978 16.4492C34.6284 16.5402 34.273 16.1431 34.2575 17.2832C34.6257 17.9983 34.6163 17.6741 34.6417 17.744C34.6734 17.7549 34.594 17.727 34.5533 17.7145C34.3493 17.6512 34.1136 17.5712 33.9029 17.4932C33.525 17.3525 33.2998 17.2985 32.7705 17.0701C32.5491 16.974 32.6663 16.9737 32.4899 16.9103C32.4117 16.8821 32.4204 16.9236 32.3243 16.8857C31.9019 16.7185 31.4257 16.479 31.2488 16.4032C31.1762 16.3721 31.0793 16.3737 30.9335 16.311C29.8413 15.8418 28.5713 15.2582 27.4048 14.733C26.7908 14.4569 25.8574 14.05 25.1516 13.7265C23.2074 12.8358 21.1349 11.8563 19.3678 11.0316C16.7031 9.78765 14.043 8.57335 11.4093 7.28101C12.6091 7.9543 14.3014 8.74429 15.6799 9.40524C19.6615 11.3124 23.9328 13.264 28.0596 15.1437C29.4966 15.7953 31.3048 16.6066 32.9288 17.2827C32.9997 17.3121 33.1685 17.3463 33.3274 17.4112C33.3619 17.426 33.7726 17.641 33.9242 17.6938C33.8072 17.5491 34.4062 17.8467 34.5507 17.8843C34.6449 17.5297 34.4902 19.5019 34.2793 16.5209C34.8623 16.0379 34.4952 16.3738 34.4756 16.3426C34.3125 16.3991 34.069 16.4617 33.8124 16.5052C33.3445 16.5837 33.4612 16.5178 33.4357 16.5211C33.2647 16.5426 33.2192 16.6152 33.0945 16.6484C32.5803 16.7857 29.8603 17.3167 29.1038 17.4754C28.9076 17.5164 28.8932 17.4795 28.8497 17.4886C28.7346 17.5127 28.5732 17.5864 28.3883 17.6255C28.0505 17.6968 27.6547 17.7439 27.4696 17.7835C27.0255 17.8784 26.1921 18.1035 25.6165 18.2311C25.4541 18.2671 25.4558 18.2251 25.3824 18.2415C25.059 18.3133 24.2286 18.5477 23.8279 18.6392C23.1771 18.7873 22.5014 18.9161 21.843 19.0857C21.7969 19.0779 21.7508 19.0702 21.7047 19.0625C21.6431 19.0967 21.5819 19.1308 21.5197 19.1652C20.3972 19.4183 19.2716 19.7402 18.159 20.0406C18.0327 20.074 17.3875 20.2177 17.2851 20.2473C17.1966 20.2725 17.1219 20.3406 16.9918 20.3714C16.8079 20.4152 16.9529 20.2836 16.6644 20.3937C16.5873 20.4233 16.6748 20.4356 16.5169 20.4943C16.4655 20.5117 15.4439 20.8404 15.3897 20.8569C15.2958 20.8822 15.191 20.8334 15.167 20.8393C15.0421 20.8701 15.0642 20.9264 14.984 20.9582C14.7474 21.0521 14.4156 21.1207 14.378 21.1344C13.9031 21.3047 13.0354 21.6666 12.531 21.8319C12.4618 21.8542 12.4543 21.8091 12.4414 21.8124C12.3589 21.8343 12.3319 21.8996 12.2577 21.93C11.863 22.0897 11.2413 22.3081 10.8449 22.4666C10.8009 22.4842 10.7126 22.5484 10.6323 22.5803C10.1671 22.7664 10.2995 22.6677 10.2728 22.6771C10.2079 22.7015 10.1176 22.7884 9.94315 22.8743C9.80479 22.9712 9.79808 22.8245 9.28648 23.3333C9.24185 23.4872 9.34281 22.8377 9.03151 23.983C9.84002 25.9691 10.4925 24.6405 10.4258 24.8516C10.4892 24.8202 10.5076 24.8077 10.5286 24.7953C10.6132 24.7432 10.6486 24.7164 10.6875 24.6891C10.7716 24.629 10.8359 24.5808 10.9083 24.5266C11.1829 24.3195 11.4481 24.1154 11.6384 23.9705C11.9241 23.753 11.95 23.7963 11.9693 23.7826C12.0103 23.7533 12.0978 23.6355 12.2803 23.4904C12.6343 23.2093 12.6169 23.2726 12.7642 23.1593C12.7767 23.1499 12.7311 23.136 12.8939 23.0092C13.206 22.7646 13.9478 22.2724 14.288 22.0374C14.4192 21.9461 14.4286 21.8949 14.5658 21.8013C14.782 21.6531 15.3046 21.361 15.345 21.3351C15.3561 21.3279 15.3578 21.2762 15.4239 21.2335C15.4961 21.1869 15.5795 21.1592 15.6334 21.1244C15.9404 20.9263 16.4363 20.5214 16.3692 20.7442C16.4486 20.649 16.528 20.5537 16.6077 20.4581C17.2637 20.0459 17.8915 19.6236 18.5347 19.1709C18.6791 19.0691 18.8173 19.007 18.9398 18.9174C19.0589 18.8342 19.588 18.3729 19.6688 18.2985C19.803 18.2078 20.8475 17.238 20.83 16.6102C20.8976 15.8474 20.4914 15.4267 20.4351 15.3527C20.3614 15.282 20.4038 15.3806 20.2508 15.2275C19.9925 14.9694 19.6128 14.6045 19.5406 14.5479C19.5093 14.5239 19.5498 14.5878 19.2612 14.366C19.1064 14.2481 19.041 14.1615 18.9864 14.1206C18.9692 14.1082 18.9649 14.1647 18.6658 13.9355C18.4589 13.7775 18.3931 13.6833 18.3705 13.6666C18.3371 13.642 18.2345 13.6175 18.1031 13.5209C17.7955 13.2941 17.2586 12.8546 16.9674 12.6433C16.9121 12.6031 16.9016 12.6556 16.6796 12.4922C16.5192 12.3742 16.5709 12.3632 16.5114 12.3189C16.4165 12.2485 16.2464 12.186 16.0364 12.0346C15.7705 11.8451 13.8356 10.3942 13.7442 10.3089C13.6815 10.2527 13.6028 10.1947 13.5814 10.153C13.6223 10.1577 13.6632 10.1624 13.704 10.1671C13.9605 10.4415 13.8884 10.2885 13.9708 10.3419C14.0896 10.419 14.518 10.7414 14.634 10.8025C14.6753 10.8242 14.6153 10.7278 14.8289 10.8541C15.0597 10.9907 15.1109 11.122 15.2583 11.0982C15.4978 11.4135 15.866 11.524 15.5283 11.242C15.3388 11.0864 13.4228 9.65109 13.0359 9.35426C12.7204 9.11593 12.1071 8.69979 11.7245 8.40158C11.5 8.22739 10.9429 7.79689 11.0005 7.77014C10.8031 7.61047 10.9827 7.81779 10.9357 7.79162C10.8364 7.73677 10.2357 7.22564 10.1166 7.13441C9.52917 6.68789 8.75937 6.15916 8.24277 5.65421C8.27821 5.66343 8.3137 5.67267 8.34922 5.68193C8.49177 5.76137 9.05288 6.2577 9.16408 6.25355C8.3069 5.57577 7.45447 4.88754 6.6096 4.19313C6.58498 4.25329 5.54078 3.38768 5.50931 3.32402C5.54659 3.31656 5.58393 3.30914 5.62133 3.30177C6.13835 3.87879 6.1808 3.72005 6.52788 4.10853C6.68967 4.24307 6.67147 4.16469 6.75706 4.22294C7.61158 4.80304 6.7057 4.31174 7.34359 4.77531C7.20488 4.57098 7.72144 4.95777 7.9513 5.13127C8.004 5.17184 8.66466 5.72489 8.74624 5.78783C9.19957 6.14173 9.99975 6.72137 10.4272 7.10059C10.7788 7.37841 11.005 7.48807 11.3386 7.72724C11.5909 7.90778 11.4987 7.88226 11.6146 7.97046C11.8573 8.15509 12.0022 8.12844 12.0687 8.36689C12.2458 8.47606 12.4235 8.58515 12.6015 8.69398C12.5875 8.7128 12.5736 8.73161 12.5596 8.75043C12.6641 8.82805 12.7693 8.90602 12.874 8.9834C12.9187 8.98737 12.9635 8.9914 13.0083 8.99548C13.3227 9.26701 13.1501 9.20972 13.1732 9.30919C13.2429 9.3661 13.3119 9.42236 13.3817 9.4792C13.468 9.47925 13.554 9.47911 13.6399 9.47878C13.9606 9.7184 14.2814 9.9566 14.6037 10.1946C14.6108 10.2285 14.6184 10.2628 14.6258 10.297C14.6402 10.2785 14.6545 10.2601 14.6689 10.2417C15.222 10.6351 15.7767 11.0261 16.3341 11.4173C16.5031 11.4919 15.6331 10.8363 15.5669 10.7856C15.2014 10.5096 14.1946 9.82814 14.2421 9.75904C13.976 9.64307 13.294 9.12499 13.1255 8.90748C13.4469 9.15012 13.7702 9.39242 14.094 9.63354C14.0998 9.60328 14.1057 9.57302 14.1116 9.54275C14.4518 9.9294 14.5158 9.96805 14.9977 10.1844C14.9762 10.2151 14.9547 10.2457 14.9332 10.2764C15.3021 10.382 15.6938 10.934 15.802 10.8137C15.9507 10.9361 16.1013 11.0596 16.2496 11.1814C16.6019 11.4082 16.143 10.9304 17.4484 11.9182C17.5379 11.986 17.4968 12.007 17.6355 12.1023C17.6771 12.131 17.9404 12.2445 18.3765 12.5648C18.4447 12.6149 18.4279 12.6466 18.4977 12.7024C18.6561 12.8292 19.0287 13.0133 18.8108 12.9964C19.4492 13.5036 19.2332 13.2308 19.4605 13.3526C19.6149 13.4373 19.5451 13.4695 19.6753 13.549C19.8395 13.6544 19.7512 13.4794 20.373 14.0337C20.2958 13.9741 20.2208 13.9184 20.1478 13.8652C20.171 13.9079 20.1963 13.9525 20.2196 13.9958C20.6195 14.2741 20.5466 14.3039 20.8113 14.4149C20.9978 14.82 21.7013 14.7367 21.7512 16.7232C20.9696 19.1276 21.3585 18.0093 20.3738 18.884C20.2522 19.0165 20.1508 19.1261 20.023 19.2527C19.7733 19.3885 19.9133 19.2137 19.5927 19.4375C19.9015 19.3485 19.2209 19.7941 19.1687 19.9464C19.1436 19.9353 19.1189 19.9239 19.0942 19.9125C19.0263 19.9595 18.957 20.0071 18.8893 20.0533C18.8997 20.0689 18.9101 20.0846 18.9205 20.1003C18.8213 20.1509 18.7232 20.2002 18.6245 20.2494C18.5675 20.3101 18.5089 20.3716 18.4519 20.4318C18.3187 20.4731 18.1856 20.5137 18.0533 20.5534C17.9823 20.5967 17.9111 20.64 17.8403 20.6829C17.8775 20.692 17.9148 20.7012 17.9521 20.7103C17.8577 20.7606 17.7632 20.8109 17.669 20.8607C17.7978 20.8319 17.7614 20.9201 17.4836 21.0975C17.2549 21.2433 17.4591 20.9985 16.9918 21.3454C16.9598 21.3694 16.9342 21.4669 16.4831 21.7682C15.9432 22.1295 16.1831 21.917 16.0847 21.9781C16.0653 21.9903 15.9191 22.1253 15.7683 22.2291C15.6832 22.2877 15.5855 22.3183 15.5745 22.3256C15.5233 22.3606 15.5289 22.4039 15.4573 22.4527C15.2727 22.5779 15.0169 22.7268 14.8474 22.8468C14.7699 22.9013 14.7094 22.972 14.6742 22.9971C14.6194 23.0358 14.5289 23.0562 14.4732 23.0959C14.2674 23.2425 14.0248 23.5652 13.8322 23.5036C13.7238 23.7697 13.2009 23.9347 13.2913 23.9934C12.7416 24.3565 11.3961 25.5646 11.2674 25.4357C11.2234 25.4897 11.1824 25.5368 11.1038 25.6009C11.0464 25.6423 11.0535 25.6528 10.8615 25.7543C10.545 25.7166 11.6216 26.2167 9.1691 25.7824C6.462 23.0332 8.65775 23.0494 8.33393 22.9228C8.6665 22.4525 8.50445 22.628 8.89853 22.3041C9.1967 22.1055 9.20137 22.1525 9.33112 22.0797C9.56503 21.9594 9.4324 21.9943 9.5938 21.9191C9.95272 21.756 10.2555 21.6414 10.5759 21.5068C10.5355 21.549 10.493 21.5922 10.4534 21.6342C10.7892 21.5006 10.6555 21.498 10.9875 21.3489C11.6108 21.0723 11.3625 21.222 11.4782 21.2406C11.4287 21.1957 12.1855 20.9071 12.2655 20.8865C12.3133 20.8737 12.1386 21.0199 12.5925 20.8231C12.5591 20.8107 12.5258 20.7982 12.4927 20.7857C12.714 20.7356 13.2746 20.4899 13.3756 20.4633C13.421 20.4511 13.7234 20.5443 13.8939 20.3287C13.9278 20.3418 13.9618 20.3548 13.996 20.3679C14.2308 20.2584 14.4676 20.1502 14.7016 20.0447C14.7536 20.0721 14.8057 20.0994 14.8581 20.1268C14.9365 20.1015 15.0117 20.0774 15.09 20.0525C15.0269 20.0334 14.9642 20.0142 14.9019 19.995C15.3858 19.8568 15.9541 19.6234 16.0906 19.7143C16.1852 19.6615 16.2823 19.6083 16.3791 19.5554C16.457 19.5761 16.5354 19.5968 16.6143 19.6174C17.0873 19.4692 17.0856 19.4413 17.4019 19.3061C17.3982 19.341 17.394 19.3762 17.39 19.4113C17.6146 19.3005 18.0482 19.1371 18.3932 19.0396C18.5603 18.9923 18.8495 18.9633 18.8888 18.9489C18.9247 18.9349 19.2682 18.6637 19.347 18.8021C19.9011 18.5911 20.169 18.5974 20.3991 18.539C20.5497 18.501 20.6079 18.4489 20.7765 18.4041C21.0189 18.3397 21.2651 18.2991 21.4048 18.2633C21.484 18.2428 21.4906 18.2044 21.5454 18.1902C21.8045 18.1233 21.6615 18.1947 21.9345 18.128C21.9594 18.1218 22.1512 18.0317 22.3779 17.9849C22.5049 17.9585 22.8433 17.931 22.8719 17.9243C22.9995 17.8942 22.8759 17.8212 23.338 17.8324C23.3212 17.817 23.3043 17.8017 23.2875 17.7863C23.8183 17.6168 23.9219 17.6795 24.0324 17.6605C24.0465 17.6578 24.1712 17.5967 24.2509 17.5834C24.3857 17.561 24.4489 17.5922 24.4788 17.5875C24.5844 17.5708 24.9295 17.4741 25.1675 17.4654C25.0922 17.3531 25.8839 17.1333 26.0917 17.2339C26.2268 17.1757 26.3636 17.1172 26.4991 17.0591C26.5682 17.0681 26.6362 17.0774 26.7059 17.0863C26.7402 17.055 26.7744 17.0237 26.8085 16.9924C27.0258 16.9981 27.244 17.0038 27.4603 17.01C27.4626 16.9568 27.4649 16.9036 27.4672 16.8505C27.5255 16.8439 27.5858 16.837 27.6449 16.8304C27.6987 16.8607 27.7524 16.8911 27.8059 16.9215C27.8764 16.8984 27.9462 16.8755 28.0176 16.8523C28.0294 16.8195 28.0412 16.7867 28.053 16.7539C28.4342 16.6379 28.2929 16.9565 28.982 16.5567C29.1007 16.5555 29.2223 16.5537 29.3419 16.5523C29.4471 16.4139 29.7066 16.4296 29.8993 16.376C30.0372 16.3378 30.0207 16.2952 30.2069 16.255C30.3982 16.2139 30.3987 16.2579 30.4137 16.2551C30.5657 16.2259 30.6773 16.1636 30.7901 16.1477C30.8073 16.1452 30.8586 16.1869 31.0049 16.1595C31.1488 16.1327 31.2258 16.0608 31.4395 16.0265C31.547 16.0093 31.5927 16.0439 31.6891 16.0275C32.1564 15.9484 32.5722 15.637 32.9681 15.8173C33.0433 15.7677 33.5714 15.5354 33.7959 15.4892C34.1354 15.4198 34.0195 15.499 34.1394 15.4781C34.1479 15.4766 34.174 15.4658 34.2146 15.4503C34.2313 15.4437 34.2587 15.4331 34.2493 15.4349C34.2413 15.4378 34.2336 15.4363 34.1399 15.4801C34.0784 15.5158 34.0271 15.5107 33.7594 15.7364C33.3606 15.5894 33.157 18.4295 33.7824 18.4551C34.5027 18.958 34.1112 18.6895 34.2023 18.7541C34.3299 18.8167 33.1499 18.3823 32.8291 18.2437C32.7965 18.2303 32.5705 18.2282 32.2977 18.0008C31.801 17.8856 31.0055 17.3623 30.3587 17.2105C30.2774 17.1779 30.1886 17.1077 30.1511 17.0924C29.8278 16.9601 29.9137 17.0941 29.2525 16.6612C29.2901 16.7264 29.1149 16.6925 28.8761 16.582C28.5294 16.4213 28.8134 16.4579 28.5258 16.3361C28.5162 16.3574 28.5066 16.3787 28.497 16.4C27.8783 16.0526 27.7061 16.084 27.0577 15.7892C26.8238 15.6827 26.5006 15.4778 26.4452 15.4523C26.4245 15.443 26.1483 15.3782 26.1233 15.3672C25.9852 15.3056 25.9167 15.2456 25.8009 15.1922C25.4126 15.013 24.9165 14.8646 25.0564 14.7827C24.9379 14.7589 24.8149 14.733 24.6987 14.7102C24.3574 14.3959 23.9698 14.4319 23.9444 14.2681C23.8603 14.2605 23.7759 14.2527 23.6911 14.2447C21.9679 13.429 20.2399 12.6045 18.5242 11.7832C18.4366 11.7911 17.6909 11.4234 17.6551 11.399C17.491 11.2872 17.7189 11.2875 17.3477 11.1374C17.2899 11.1571 17.2321 11.1767 17.1742 11.1963C16.7147 10.9955 16.9507 11.0598 16.7832 10.9493C16.7057 10.9186 16.716 10.9598 16.613 10.914C16.06 10.6683 14.931 10.1382 14.3272 9.85638C14.2056 9.79969 14.2374 9.78066 14.1998 9.76286C14.0966 9.7145 13.8762 9.65341 13.6679 9.55517C12.3835 8.94902 10.5742 8.07012 9.29607 7.4299C9.20936 7.38642 9.21418 7.34812 9.15576 7.31848C9.07476 7.27755 8.87868 7.21765 8.79356 7.17398C8.71331 7.13292 8.67321 7.08314 8.58773 7.03913C8.19656 6.83735 7.64107 6.62675 7.25026 6.35106C7.21729 6.3278 6.83445 5.98338 6.82849 5.96984C6.79386 5.88986 7.22898 5.99575 6.61368 5.61169C7.22715 5.82062 7.10077 5.6173 6.3718 5.20238C6.75794 5.36692 7.14407 5.53144 7.53037 5.69604C7.53749 5.68239 7.54461 5.66875 7.55173 5.6551C7.23899 5.42288 6.90744 5.23801 6.38564 4.98343C6.4081 4.97829 6.43055 4.97316 6.453 4.96802C6.94702 5.12296 7.51174 5.3755 7.90654 5.4548C7.41909 5.1448 6.93231 4.83509 6.44532 4.52527C6.47598 4.52735 6.50664 4.52943 6.5373 4.53151C6.79786 4.62248 7.34757 4.86352 7.56515 4.93634C8.3967 5.2149 6.90942 4.54038 7.17892 4.59785C8.00886 4.99289 8.83928 5.38812 9.66962 5.78319C9.71796 5.75461 6.57605 4.12644 6.66912 4.01484C6.93434 4.12983 7.19964 4.24487 7.46493 4.3599C7.36378 4.27254 7.26259 4.18516 7.16139 4.09778C7.19832 4.10273 7.23525 4.10768 7.27218 4.11264C7.72484 4.29603 8.17753 4.47942 8.62994 4.66267C7.27789 4.05415 6.66408 3.74139 6.46338 3.33527C6.50272 3.34596 6.54216 3.35669 6.58156 3.3674C6.79651 3.66375 8.19151 4.26058 8.93416 4.57293C8.80799 4.45625 8.14962 4.18896 8.02742 4.09687C7.99284 4.07069 8.14195 4.10163 8.06089 4.04303C7.84899 3.89014 6.88424 3.36606 7.0532 3.38145C7.16177 3.39134 8.7784 4.09903 9.08716 4.24938C8.38765 3.84411 7.64436 3.47101 6.94856 3.05136C7.45881 3.16644 7.92691 3.23334 8.7721 3.62618C9.05442 3.69346 7.30678 2.77517 7.27946 2.72607C7.60296 2.84028 7.92668 2.95459 8.25018 3.06879C7.98526 2.95385 7.72005 2.83877 7.45515 2.72383C7.4594 2.71288 7.46365 2.70192 7.46789 2.69097C8.16723 2.96156 8.82858 3.16392 9.59936 3.53587C9.60071 3.46793 9.13544 3.25474 8.91093 3.14794ZM10.2445 6.77897C10.2626 6.72794 10.5026 6.92513 10.6395 7.03203C10.6245 7.00865 10.6096 6.98526 10.5946 6.96186C10.8809 7.19623 11.4221 7.63396 11.5033 7.57003C11.7226 7.72096 11.5765 7.71892 11.6389 7.77857C11.6636 7.80224 11.9686 7.96959 12.1542 8.18535C12.2071 8.22476 12.26 8.26399 12.3129 8.30329C12.3428 8.28475 12.3726 8.2662 12.4024 8.24764C12.4525 8.3346 12.5023 8.4213 12.5524 8.50809C11.7766 7.93953 11.0071 7.36363 10.2456 6.77985C10.2453 6.77956 10.2449 6.77927 10.2445 6.77897ZM18.034 12.437C18.3128 12.6585 18.7432 13.0054 18.7052 12.8675C18.5169 12.7371 18.331 12.6094 18.1449 12.4821C18.1069 12.4663 18.0713 12.4523 18.034 12.437ZM27.4376 17.1005C27.7455 17.1246 27.9987 16.9924 28.4498 16.9128C28.4453 16.8947 28.4409 16.8766 28.4364 16.8585C28.2619 16.9413 27.7708 17.0155 27.4376 17.1005ZM3.31879 1.51994C3.27661 1.47304 3.23596 1.42726 3.19428 1.3802C3.44737 1.47347 3.43512 1.55678 3.66008 1.74071C3.67348 1.7516 3.68405 1.73038 3.68869 1.73425C3.74289 1.77946 3.77545 1.84428 3.8244 1.8861C3.92164 1.9691 4.01324 2.01126 4.18366 2.15848C4.31452 2.27154 4.28805 2.30663 4.33493 2.34514C4.37696 2.37971 4.84463 2.6184 5.06502 2.87188C5.4827 3.35623 3.43345 1.64849 3.31879 1.51994ZM2.25263 0.304778C2.28507 0.346748 2.31686 0.386956 2.34846 0.425837C2.20209 0.349004 2.39487 0.58299 2.54855 0.74408C2.49105 0.782308 2.21474 0.419649 2.05596 0.226733C2.12292 0.255493 2.18822 0.281257 2.25263 0.304778ZM7.8866 5.41278C7.69185 5.26427 7.77468 5.22702 7.79766 5.21464C7.85801 5.26337 7.91915 5.31268 7.97927 5.36109C7.94838 5.37832 7.91749 5.39555 7.8866 5.41278ZM6.44347 4.27398C6.53802 4.28078 6.96264 4.59798 7.16023 4.75291C7.1687 4.75979 7.09632 4.73978 7.23592 4.8498C7.27736 4.8826 7.75478 5.12833 7.58658 5.1523C7.2047 4.86132 6.82383 4.56866 6.44403 4.27444C6.44384 4.27429 6.44366 4.27413 6.44347 4.27398ZM6.05084 3.9079C6.13955 3.95893 6.22649 4.00838 6.31506 4.05908C6.33887 4.11216 6.36199 4.16463 6.38535 4.21729C6.29425 4.15071 6.20086 4.0821 6.10997 4.01542C6.0907 3.97996 6.0704 3.94363 6.05084 3.9079ZM17.8109 10.736C17.8205 10.771 17.83 10.806 17.8395 10.8409C17.9151 10.8951 18.3644 10.9735 18.2482 10.8932C18.103 10.8411 17.9573 10.7887 17.8109 10.736ZM16.1486 9.88994C16.072 9.83847 15.9952 9.78693 15.9182 9.7353C15.803 9.73275 15.6876 9.73009 15.5719 9.72732C15.9736 9.95148 16.399 10.1919 16.3867 10.0336C16.4819 10.0785 16.5769 10.1231 16.6716 10.1677C16.5674 10.1818 16.5706 10.204 16.8025 10.3532C16.8893 10.3063 17.1322 10.4653 17.4326 10.5873C17.2217 10.483 17.0068 10.3767 16.7962 10.2725C16.8022 10.2599 16.8081 10.2472 16.8141 10.2345C17.2881 10.4632 16.7351 10.1048 16.4001 10.0086C16.3835 9.98023 16.3669 9.95182 16.3503 9.92339C16.2831 9.91228 16.2155 9.90093 16.1486 9.88994ZM17.2238 20.0122C17.2907 20.0078 17.358 20.0034 17.4257 19.9989C17.6244 19.7527 17.1665 20.0613 16.7687 20.0263C16.918 20.0974 16.3702 20.2533 16.3416 20.2701C16.4146 20.287 16.4881 20.3039 16.5621 20.3208C16.7806 20.2173 17.0006 20.1146 17.2238 20.0122ZM19.0681 19.6419C18.8241 19.6102 19.9079 19.3253 20.2819 19.2551C20.3713 19.238 20.5416 19.2479 20.6045 19.2259C20.6391 19.1984 20.6743 19.1707 20.7083 19.1433C20.7681 19.1943 21.4672 18.9513 21.739 18.8519C21.7708 18.8683 21.8027 18.8848 21.8346 18.9013C21.9353 18.8679 22.0355 18.8348 22.1357 18.8018C22.1282 18.8274 22.1206 18.8531 22.1131 18.8788C22.1841 18.8334 22.2553 18.7879 22.3267 18.7425C22.6243 18.6412 22.4649 18.8086 22.6847 18.7169C22.9293 18.6152 22.4953 18.6381 22.492 18.5885C22.2889 18.6486 21.8249 18.7867 21.6163 18.8378C21.4968 18.8671 21.611 18.7488 21.1173 18.9715C20.9982 18.9759 20.878 18.9807 20.7592 18.9854C20.5604 19.0723 20.3606 19.1601 20.1599 19.2486C20.1128 19.2267 20.0658 19.2047 20.0188 19.1828C19.9954 19.1832 19.529 19.3771 19.5615 19.3944C19.3521 19.3832 18.9482 19.4751 18.5254 19.5845C18.489 19.6125 18.4527 19.6405 18.4167 19.6686C18.8169 19.5222 18.5527 19.6517 18.683 19.6523C18.7571 19.6529 18.981 19.6339 19.0681 19.6419ZM20.474 11.9066C19.8084 11.6827 20.223 11.8045 19.541 11.4847C19.571 11.5453 19.6008 11.6059 19.6306 11.6664C19.9984 11.7538 20.5343 12.0613 20.4747 11.9069C20.4745 11.9068 20.4743 11.9067 20.474 11.9066ZM13.7057 8.8782C14.0791 9.02614 13.9262 8.88156 14.3941 9.07901C14.3943 9.07912 14.3945 9.07922 14.3948 9.07932C14.1601 8.96343 13.9217 8.84576 13.6877 8.73016C13.6938 8.77951 13.6997 8.82886 13.7057 8.8782ZM34.1117 16.1026C33.7614 16.167 33.8322 16.1834 33.4869 16.193C33.0033 16.38 33.4267 16.2761 33.44 16.347C33.5502 16.3012 33.6608 16.2551 33.7655 16.2097C34.0518 16.2138 33.8041 16.3051 33.8038 16.3117C33.8041 16.3116 33.8043 16.3116 33.8045 16.3115C33.8087 16.3328 33.8039 16.3387 33.9084 16.3282C33.9792 16.2528 34.0493 16.1771 34.1117 16.1026ZM32.5614 16.5353C32.6776 16.4617 32.7265 16.3886 32.3801 16.4304C32.3799 16.4305 32.3797 16.4305 32.3794 16.4306C32.376 16.5407 32.0353 16.5243 31.8855 16.563C31.8501 16.5824 31.8142 16.6018 31.7778 16.6213C32.0363 16.5934 32.2992 16.5645 32.5614 16.5353ZM26.9079 17.8321C26.8816 17.7168 27.1648 17.6441 26.7398 17.6245C26.6628 17.6433 26.5855 17.6623 26.5079 17.6812C26.4622 17.7177 26.4165 17.7543 26.3706 17.7908C25.3378 17.7973 25.121 18.2166 26.7607 17.7206C26.7609 17.7205 26.7611 17.7204 26.7613 17.7202C26.8098 17.7576 26.859 17.7949 26.9079 17.8321ZM28.6452 17.4499C28.6448 17.3865 28.6445 17.3231 28.6442 17.2597C28.8919 17.3602 29.1462 17.1602 29.5942 17.1738C29.6283 17.1473 29.6637 17.1205 29.6989 17.0938C29.8669 17.1007 31.4387 16.7833 31.0791 16.7611C30.9212 16.7516 30.61 16.8747 30.5829 16.8791C30.4889 16.894 30.3516 16.8683 30.1953 16.9043C30.1038 16.9255 29.9228 17.0276 29.7347 17.0671C29.3153 17.155 28.5133 17.1526 27.9937 17.4266C27.9503 17.4167 27.9068 17.4069 27.8631 17.3971C27.454 17.4963 27.6063 17.5243 27.208 17.5376C27.0074 17.882 28.7382 17.1953 28.4141 17.5092C28.4143 17.5092 28.4145 17.5091 28.4148 17.5091C28.4905 17.4895 28.5684 17.4696 28.6452 17.4499ZM29.7353 16.1691C29.7326 16.1101 29.2548 15.9868 29.411 15.9175C29.2471 15.8927 29.083 15.8677 28.9209 15.8434C28.9171 15.8547 28.9134 15.8659 28.9097 15.8772C29.0565 15.9329 29.2057 15.9895 29.3546 16.0457C29.3475 16.0631 29.3404 16.0804 29.3334 16.0978C29.5704 16.1301 30.4647 16.5564 30.4118 16.605C30.4715 16.6006 30.5305 16.5958 30.5889 16.5907C30.9945 16.8506 31.3961 16.9355 31.8453 17.2052C31.8919 17.1996 31.938 17.1938 31.9834 17.1877C32 17.2149 32.0163 17.242 32.0325 17.269C32.211 17.346 32.3793 17.418 32.5569 17.4927C33.158 17.6548 32.0796 17.1117 31.9478 17.0658C31.9298 17.0599 31.9118 17.105 31.7987 17.0656C31.595 16.9959 30.5264 16.4825 30.1782 16.3629C30.1883 16.3322 30.1984 16.3015 30.2085 16.2708C30.0509 16.2372 29.892 16.2028 29.7353 16.1691ZM24.6779 18.1919C24.6447 18.1658 24.6115 18.1397 24.5783 18.1136C24.1365 18.2457 23.8472 18.2821 23.9862 18.3616C23.9864 18.3615 23.9867 18.3615 23.9869 18.3614C24.2172 18.3046 24.4475 18.2481 24.6779 18.1919ZM16.3155 11.8521C16.2871 11.9117 16.4518 12.0588 16.7091 12.1845C16.709 12.1613 16.7089 12.1381 16.7088 12.1148C16.5566 12.0745 16.4625 11.8893 16.0852 11.6362C16.0662 11.6629 16.0472 11.6895 16.0282 11.7161C16.1236 11.7612 16.2201 11.807 16.3155 11.8521ZM25.0683 18.1196C25.214 18.1268 25.5725 17.928 25.3187 17.978C25.1245 18.0164 24.9903 18.1157 25.0683 18.1196ZM12.307 8.14806C12.398 8.1986 12.4889 8.24908 12.5797 8.29949C12.6404 8.29737 12.701 8.29523 12.7617 8.29308C12.7615 8.29297 12.7612 8.29287 12.761 8.29277C12.61 8.24468 12.4586 8.19644 12.307 8.14806ZM33.9855 18.0241C34.1615 18.0828 34.396 18.1505 34.4942 18.1804C34.443 18.0608 34.7434 18.7057 33.8727 17.5667C34.0441 14.8153 34.5014 16.3092 34.4453 16.0176C34.4756 16.0078 34.3965 16.0357 34.3334 16.0532C34.3356 16.0714 34.3376 16.0897 34.3397 16.1079C34.3437 16.2259 35.0644 15.2174 33.8729 16.7068C34.2293 19.3024 34.5274 17.8453 34.5068 18.1241C34.5302 18.1258 34.5076 18.1119 34.4934 18.1063C34.4937 18.1064 34.4939 18.1065 34.4942 18.1066C34.2938 18.031 33.9754 17.917 33.7475 17.8104C33.8219 17.8808 33.9044 17.9533 33.9855 18.0241ZM32.8412 17.472C32.8499 17.6127 32.9138 17.6589 33.4745 17.775C33.4592 17.7524 33.4436 17.7297 33.4276 17.7067C33.151 17.6119 32.9869 17.5778 33.0578 17.534C32.9862 17.5138 32.9119 17.4923 32.8412 17.472ZM31.2489 16.7899C31.3168 16.8174 31.8161 16.6708 31.7837 16.6565C31.7704 16.651 31.1089 16.7375 31.2489 16.7899ZM13.1477 9.60333C13.2364 9.68007 13.3268 9.75786 13.4158 9.8345C13.2816 9.75366 13.1467 9.67205 13.0124 9.59062C13.0576 9.59491 13.1026 9.59915 13.1477 9.60333ZM12.0008 8.98186C11.9435 8.91861 12.2303 8.98928 11.8472 8.66554C12.1402 8.88198 12.4347 9.09784 12.7292 9.31229C12.5808 9.22587 12.432 9.13883 12.2837 9.05186C12.2879 9.09625 12.2921 9.14064 12.2964 9.18501C12.1979 9.11748 12.0991 9.04957 12.0008 8.98186ZM11.7378 8.67963C11.8418 8.86773 11.013 8.2518 10.9427 8.18373C10.9271 8.16869 10.8859 8.05378 10.8646 8.01959C10.9893 8.11458 11.1136 8.20898 11.2383 8.30325C11.2093 8.25505 11.1802 8.2068 11.1513 8.1586C11.3013 8.26343 11.4508 8.36747 11.6008 8.47133C11.5259 8.44131 11.4509 8.41102 11.3762 8.3809C11.4965 8.48063 11.6165 8.57984 11.7378 8.67963ZM15.1043 11.1161C14.998 11.0372 14.8938 10.9597 14.7883 10.8811C14.7903 10.9228 14.7926 10.9648 14.7949 11.0067C14.859 11.0528 14.9227 11.0985 14.9861 11.144C15.0255 11.1348 15.065 11.1255 15.1043 11.1161ZM12.918 9.58208C13.1651 9.56838 13.38 10.1529 12.9659 9.69099C12.9243 9.64429 12.8943 9.58361 12.918 9.58208ZM10.6453 7.93308C10.253 7.77688 10.4797 7.63154 10.7393 7.92385C10.7522 7.93872 10.6747 7.94491 10.6453 7.93308ZM8.2429 6.05645C8.21787 6.0353 8.22343 5.93495 7.92984 5.7994C7.89502 5.75944 7.86025 5.71948 7.82565 5.67964C7.9446 5.7273 8.7704 6.35721 8.60794 6.33142C8.4823 6.23319 8.37002 6.16127 8.2429 6.05645ZM8.84337 6.92109C8.96781 7.01636 9.09175 7.11095 9.2163 7.2057C9.19174 7.15378 9.16685 7.10155 9.14224 7.04951C9.20706 7.09154 9.27187 7.13348 9.3366 7.17529C9.41263 7.29117 9.48893 7.40704 9.56535 7.52277C9.29308 7.31969 9.02149 7.11562 8.74999 6.91021C8.78111 6.91383 8.81223 6.91746 8.84337 6.92109ZM12.1048 9.49678C11.8825 9.2916 11.5657 9.0985 11.1797 8.80057C11.1795 8.80037 11.1794 8.80016 11.1793 8.79995C11.16 8.78494 11.1469 8.73087 11.0853 8.68254C11.0321 8.64265 9.95996 7.87129 10.079 7.88609C10.515 8.15446 10.618 8.33476 10.7963 8.30332C10.7991 8.34074 10.8019 8.37817 10.8047 8.41558C11.1665 8.75142 11.3363 8.75701 11.578 8.89392C11.5644 8.9102 11.5508 8.92648 11.5373 8.94276C11.6832 9.05484 11.8295 9.1668 11.9756 9.27818C11.963 9.25145 11.9507 9.22491 11.9382 9.19827C11.9902 9.23702 12.0427 9.27607 12.095 9.3149C12.1848 9.45977 12.3377 9.59124 12.1048 9.49678ZM8.30933 6.45326C8.09569 6.48963 7.06463 5.5211 6.5464 5.13936C6.86873 5.27805 7.23322 5.65967 7.52003 5.89181C8.07417 6.33974 7.7273 5.9849 7.8377 6.04037C7.89192 6.06755 8.14382 6.40089 8.30933 6.45326ZM13.0068 10.1266C12.7277 9.90613 12.5454 9.81774 12.3337 9.58792C12.3613 9.59379 12.3889 9.59964 12.4165 9.60547C12.4945 9.67702 13.1662 10.212 13.0068 10.1266ZM5.84362 4.50788C6.3367 4.98897 6.16707 4.66084 6.37471 4.97211C6.18747 4.82768 6.00389 4.68567 5.81689 4.54026C5.8258 4.52947 5.83471 4.51867 5.84362 4.50788ZM25.9703 18.5391C26.255 18.4805 26.5785 18.4401 26.7357 18.344C26.5404 18.3768 26.3459 18.4096 26.1505 18.4427C26.0902 18.4749 26.0302 18.507 25.9703 18.5391ZM18.051 21.0506C18.1188 21.0467 18.3602 20.9361 18.3866 20.929C18.436 20.9155 18.4281 20.9395 18.4302 20.9447C18.7546 20.8528 18.4393 20.8703 18.6737 20.7924C18.7128 20.7791 19.2895 20.6598 19.516 20.5992C19.8715 20.5033 20.2235 20.4196 20.3561 20.3855C20.5813 20.3273 20.9816 20.1782 21.3514 20.0866C21.5023 20.0492 21.5644 20.0747 21.7173 20.0372C22.6951 19.795 24.6182 19.3029 25.4974 19.1356C25.7142 19.0941 25.9315 19.099 26.0444 19.07C26.1302 19.0319 26.2161 18.9939 26.3024 18.9558C26.6152 19.0607 26.6763 18.8934 26.9707 18.8135C27.1577 18.7628 27.258 18.7924 27.2832 18.7869C27.4514 18.7496 27.5301 18.7082 27.6621 18.6758C27.8097 18.6396 28.0287 18.6159 28.0812 18.6005C28.1138 18.5907 27.993 18.5482 28.573 18.4259C29.1628 18.3017 29.7457 18.1858 30.3458 18.0629C30.1019 17.9086 29.9587 18.0794 29.7174 18.1378C29.6524 18.1535 29.6873 18.1135 29.6305 18.1269C29.4684 18.165 29.1671 18.2608 29.0315 18.2818C28.8865 18.3042 28.9206 18.2212 28.7425 18.287C28.7335 18.2903 28.7693 18.314 28.7271 18.3282C28.3069 18.4693 28.1514 18.448 27.6064 18.5634C27.244 18.6386 25.0529 19.1495 24.974 19.1482C24.5573 19.1301 26.8724 18.6191 27.1453 18.5706C27.2409 18.553 27.1485 18.6075 27.2363 18.5952C27.2732 18.5899 27.5893 18.4558 27.9135 18.3809C28.305 18.2903 29.108 18.1646 29.4811 18.0844C31.0924 17.7343 32.7054 17.4221 34.2896 17.067C35.5985 16.7455 33.8767 17.1483 33.2786 16.6965C32.5143 16.3889 31.7639 16.0654 31.0023 15.7336C30.9397 15.7063 30.8411 15.7055 30.6281 15.612C26.7197 13.8857 22.7303 11.9677 18.8038 10.1479C17.9516 9.75196 17.0875 9.38547 16.2397 8.95436C16.1211 8.92959 16.0021 8.90469 15.8829 8.87966C16.1669 8.98872 16.6384 9.28113 16.6845 9.3039C16.7009 9.3119 16.8184 9.33215 16.9845 9.41217C17.2177 9.52446 17.3087 9.59767 17.3283 9.6069C17.3883 9.63523 17.3615 9.59023 17.4187 9.61732C17.8446 9.8191 18.1773 9.96633 18.5674 10.1493C19.007 10.3555 19.2098 10.511 19.5557 10.6071C19.5824 10.6455 19.6091 10.6838 19.6358 10.7221C19.92 10.744 21.3428 11.423 21.9227 11.6996C22.1048 11.7866 22.0551 11.8086 22.1164 11.8372C22.1555 11.8554 22.1617 11.7991 22.6378 12.0329C22.8762 12.15 22.9208 12.2139 23.0439 12.2699C23.1104 12.3 23.1161 12.2599 23.2108 12.304C23.7529 12.5564 24.1991 12.7777 24.7282 13.0309C24.8755 13.1013 24.8659 13.1325 24.8997 13.1477C25.027 13.2051 25.2593 13.2522 25.5785 13.3999C26.0943 13.6387 27.1341 14.1167 27.5458 14.3337C27.6051 14.3651 27.6424 14.4248 27.6892 14.4455C27.7601 14.4768 27.8042 14.4523 27.8166 14.4577C28.0496 14.563 27.8944 14.5338 28.0521 14.5955C28.1356 14.628 28.2486 14.6286 28.4443 14.7115C28.7005 14.82 28.6322 14.8493 28.7424 14.893C28.7542 14.8974 28.7739 14.8644 28.8799 14.9109C29.2814 15.0871 29.8759 15.3431 30.253 15.5097C30.3642 15.5589 30.4384 15.6197 30.588 15.6858C30.8948 15.8255 32.6714 16.5651 32.8122 16.6329C32.8283 16.6411 32.6444 16.6271 32.9023 16.7302C32.9839 16.738 33.0673 16.7463 33.1495 16.7539C33.2547 16.8363 33.3709 16.9224 33.4795 17.0046C33.5223 16.8848 34.265 17.1376 34.2167 17.2574C34.3005 17.2918 34.3809 17.3241 34.4638 17.356C34.7009 17.4875 34.6601 16.7815 34.7278 16.8576C34.6755 16.8455 34.6256 16.8308 34.5689 16.8174C34.5609 16.8391 34.5557 16.8599 34.5483 16.8813C34.3575 16.8282 34.095 16.9929 34.0591 17.0017C33.9269 17.0343 33.8158 17.0325 33.7548 17.0469C33.5188 17.1022 33.0101 17.2476 32.7279 17.2904C32.7145 17.2923 32.7191 17.247 32.6373 17.2589C32.4911 17.2799 32.4913 17.3448 32.2849 17.312C32.2509 17.3383 32.2164 17.3647 32.1813 17.3912C32.1385 17.3903 32.0922 17.3902 32.0511 17.3889C31.8145 17.4437 31.5665 17.5007 31.3298 17.5554C31.5347 17.4375 31.2697 17.4511 31.0455 17.5571C30.9687 17.5932 31.0496 17.6219 31.024 17.6342C30.9857 17.6515 29.8997 17.8563 29.8191 17.8439C29.7693 17.8688 29.7227 17.893 29.6742 17.9176C29.6426 17.8955 29.6108 17.8734 29.579 17.8514C29.5526 17.867 29.5262 17.8826 29.4997 17.8983C29.2069 17.9093 28.4966 18.1764 28.3619 18.196C28.2898 18.2065 28.3275 18.0757 27.9907 18.1602C27.9858 18.1949 27.9809 18.2297 27.9759 18.2645C27.8989 18.2858 27.8208 18.3073 27.7446 18.3285C27.5988 18.3568 27.372 18.3472 27.3574 18.3103C27.3169 18.343 27.2763 18.3758 27.2356 18.4085C27.0967 18.3602 26.4478 18.5285 26.1948 18.6335C26.1125 18.6279 26.0309 18.6221 25.9491 18.6165C25.8518 18.6665 25.7542 18.7166 25.6566 18.7668C25.4194 18.8277 25.6619 18.7266 25.6101 18.734C25.5008 18.7497 24.9672 18.9486 24.9823 18.845C24.9072 18.8614 24.8319 18.8779 24.7568 18.8945C24.7243 18.9304 24.6919 18.9663 24.6594 19.0023C24.5097 18.9369 24.2941 19.0199 23.8294 19.0892C23.796 19.1195 23.7625 19.1499 23.7292 19.1803C23.5809 19.1816 23.4328 19.1831 23.2843 19.1847C23.2635 19.2273 23.2427 19.2698 23.2219 19.3123C23.1617 19.3315 23.1016 19.3508 23.0415 19.3701C22.8981 19.3186 22.694 19.4573 22.5728 19.4507C22.3947 19.4414 22.5102 19.3535 22.8164 19.2708C22.7799 19.2172 21.8647 19.4596 21.6549 19.5147C21.6718 19.5228 21.6884 19.5309 21.705 19.5389C21.9188 19.4785 22.1346 19.4181 22.3491 19.3583C22.5654 19.4626 21.9662 19.5614 21.702 19.6446C21.6777 19.6523 21.5497 19.7414 21.2778 19.8015C21.1708 19.8249 20.7414 19.8435 20.6612 19.8586C20.0202 19.9776 20.5132 19.9778 19.8679 20.032C20.0172 20.0771 19.6435 20.1021 19.2793 20.2126C19.2178 20.2309 18.7002 20.4344 18.6646 20.4461C18.443 20.5163 18.6718 20.3812 18.349 20.4876C18.3146 20.5162 18.2805 20.5448 18.2466 20.5734C18.1717 20.5938 18.0964 20.6145 18.0203 20.6355C17.5205 20.6016 17.4454 20.7512 17.2867 20.8128C17.223 20.8378 17.2946 20.7719 17.1285 20.8295C17.0671 20.8508 17.0026 20.9069 16.8331 20.9594C16.2971 21.126 16.0708 21.0339 15.6254 21.3421C15.5439 21.3434 15.4591 21.346 15.3773 21.3477C15.3353 21.3904 15.2932 21.4333 15.2503 21.4765C14.8381 21.5252 15.0015 21.5597 14.8621 21.6045C14.4911 21.7231 13.7315 21.9727 13.6439 21.9343C13.3785 22.1922 12.9402 22.1719 12.8193 22.2245C12.7504 22.2707 12.6858 22.3154 12.6173 22.3619C12.5233 22.3782 12.43 22.3945 12.337 22.411C12.4352 22.5338 11.9326 22.5746 11.889 22.5905C11.8373 22.6082 11.1738 22.9302 10.9201 23.0387C10.6679 23.1441 10.206 23.3074 10.1651 23.3289C10.1345 23.3467 10.0547 23.3785 9.8301 23.5339C9.71256 23.6271 9.71838 23.6293 9.62664 23.7663C10.812 25.316 10.1527 24.089 10.3302 24.2839C10.4186 24.2181 10.4957 24.1566 10.57 24.1008C10.8323 23.9031 12.3471 22.8055 12.2157 22.8255C12.1064 22.8848 11.9572 22.9782 11.8331 23.0622C11.6345 23.1936 11.009 23.6749 10.3054 24.1792C9.47743 22.7259 11.4553 23.1809 11.5604 22.9027C12.8822 22.374 14.2792 21.8684 15.6441 21.4537C15.7234 21.4295 15.7474 21.463 15.8164 21.4423C15.9222 21.4102 16.1764 21.2909 16.278 21.261C16.6654 21.1463 17.136 21.0158 17.3423 20.9579C17.8056 20.8273 18.1293 20.7627 18.4827 20.6709C18.592 20.6422 19.1393 20.4461 19.5236 20.3689C19.5956 20.3617 19.6689 20.3543 19.74 20.3476C19.5454 20.41 19.0398 20.5755 18.8006 20.6435C18.447 20.7434 18.2537 20.7639 18.122 20.8007C18.011 20.8313 17.4609 21.0228 17.2079 21.0975C17.1305 21.1202 17.1007 21.0862 17.0332 21.106C16.6687 21.2131 16.1841 21.3608 15.8813 21.4977C16.0061 21.4442 15.1924 21.6757 15.1518 21.6905C15.0814 21.7135 15.0111 21.7767 14.8666 21.8248C14.5815 21.9201 14.5936 21.8309 14.2664 22.0284C14.172 22.0363 14.0766 22.0449 13.9819 22.0535C14.0128 22.1532 12.864 22.417 12.6042 22.6616C12.6005 22.6736 14.0336 22.186 14.153 22.1521C14.8634 21.9155 15.9091 21.5527 16.6121 21.3634C16.8225 21.3054 17.4997 21.1768 17.5509 21.1616C17.6299 21.1373 17.5479 21.1219 17.5819 21.1109C18.2871 20.8835 17.9503 21.0565 18.051 21.0506ZM11.4349 9.08474C11.6112 9.22251 11.7873 9.35942 11.9648 9.49676C11.9377 9.50588 11.9107 9.51499 11.8837 9.52409C11.8066 9.45539 11.7302 9.38715 11.6534 9.31842C11.5817 9.28238 11.5104 9.2465 11.439 9.21046C11.4376 9.16856 11.4362 9.12665 11.4349 9.08474ZM10.9358 8.83174C10.7739 8.72407 10.7962 8.67884 10.762 8.64989C10.6601 8.56329 10.5557 8.50889 10.453 8.42958C10.643 8.42708 10.8638 8.66247 10.9358 8.83174ZM14.1396 11.2446C14.1077 11.2147 13.9436 10.9406 13.606 10.8409C13.4258 10.664 13.2478 10.4883 13.0684 10.3109C13.3758 10.6065 13.885 10.9022 14.0508 11.0245C14.1144 11.0715 14.1038 11.1117 14.1544 11.149C14.4465 11.3635 14.7831 11.4967 14.7389 11.6232C14.4826 11.3935 14.1802 11.2824 14.1396 11.2446ZM12.4005 9.92077C12.3698 9.86479 12.3389 9.80858 12.3086 9.75275C12.4767 9.87703 12.6455 10.0013 12.8137 10.1247C12.7522 10.1133 12.6906 10.1017 12.6288 10.0901C12.5523 10.0335 12.4767 9.97733 12.4005 9.92077ZM15.4837 20.5268C15.5924 20.4575 15.7016 20.388 15.8108 20.3184C15.7945 20.3056 15.6694 20.3858 15.6168 20.4038C15.617 20.4037 15.6172 20.4036 15.6174 20.4035C15.5582 20.4236 15.5662 20.3885 15.4674 20.4387C15.4728 20.4681 15.4783 20.4974 15.4837 20.5268ZM15.7762 8.73654C15.583 8.64406 13.7689 7.78826 13.8937 7.926C13.9557 7.99465 14.5898 8.25943 14.7715 8.34574C15.0155 8.46161 15.6504 8.84625 15.7762 8.73654ZM12.5742 7.21047C12.5124 7.26 13.6398 7.80478 13.7562 7.84598C13.737 7.82571 13.7104 7.78819 13.6812 7.76875C13.5381 7.67412 12.8107 7.34369 12.5742 7.21047ZM10.5261 23.4661C10.4186 23.475 10.31 23.4852 10.2005 23.4982C10.245 23.5286 10.2902 23.5589 10.3346 23.5897C10.3979 23.548 10.463 23.5063 10.5261 23.4661ZM19.813 20.3066C21.4478 19.8944 23.0871 19.5175 24.7297 19.1522C24.5897 19.2034 24.4493 19.2548 24.3093 19.3063C22.8938 19.618 21.3836 19.9504 20.0318 20.322C19.9586 20.3168 19.8856 20.3117 19.813 20.3066ZM14.4007 11.692C14.7499 11.9437 15.0618 12.1245 15.4117 12.4411C15.0176 12.2252 14.8855 12.03 14.4873 11.8405C14.4871 11.8403 14.4869 11.8402 14.4867 11.84C14.4581 11.7908 14.4295 11.7415 14.4007 11.692ZM18.614 18.2393C18.7033 18.1339 18.787 18.0309 18.8739 17.923C18.7466 18.0207 18.6198 18.1143 18.4918 18.2066C18.5326 18.2175 18.5728 18.2288 18.614 18.2393ZM34.174 17.3049C34.3009 17.2364 35.1419 17.0707 34.8622 17.0642C34.496 16.9402 34.1379 16.8028 33.9515 16.7786C33.9275 16.7755 34.1201 16.8866 33.7631 16.8277C34.019 16.9093 34.204 16.9582 34.2392 16.912C34.3107 16.9569 34.3772 16.9993 34.4482 17.0423C34.5777 17.0704 34.7116 17.0945 34.836 17.1198C34.784 17.1101 34.9133 17.4134 34.9009 17.0131C34.8641 17.021 34.7567 17.0414 34.6723 17.0508C34.6423 17.0836 34.6133 17.1156 34.5806 17.1483C34.4981 17.1364 34.4125 17.1241 34.3291 17.1107C34.0396 17.2156 34.2357 17.2338 34.174 17.3049ZM32.6312 17.6265C32.7063 17.6263 34.7355 17.1398 33.787 17.2381C33.5458 17.295 33.3099 17.3493 33.0668 17.4048C33.3028 17.5401 32.611 17.5213 32.5595 17.5281C32.2929 17.5663 31.978 17.6765 31.7882 17.714C31.6287 17.7454 31.5225 17.7344 31.4112 17.7586C31.0236 17.8427 30.4145 17.9717 30.3458 18.0629C30.6441 18.0018 30.9547 17.9375 31.2632 17.8709C31.5964 17.799 31.8967 17.8088 32.5004 17.5822C32.6558 17.5601 32.6121 17.6273 32.6312 17.6265ZM19.1899 17.6806C19.2284 17.7606 19.8209 17.1746 19.789 17.1364C19.7784 17.1257 19.596 17.3283 19.5643 17.3471C19.5641 17.3473 19.564 17.3475 19.5638 17.3476C19.5504 17.3567 19.5877 17.2797 19.4924 17.3621C19.3967 17.4716 19.292 17.5798 19.1899 17.6806ZM18.6679 9.91088C18.5892 9.82742 16.3523 8.79174 16.2803 8.77998C16.2601 8.77668 16.277 8.80517 16.2654 8.81156C16.8071 9.00072 17.5209 9.41481 18.0098 9.64982C18.146 9.71524 18.1179 9.66892 18.1259 9.67205C18.1262 9.67221 18.1266 9.67236 18.1269 9.67252C18.2058 9.70954 18.5278 9.94184 18.6679 9.91088ZM33.2025 16.5256C33.2941 16.575 33.3887 16.6251 33.4813 16.674C33.5154 16.6622 33.549 16.6502 33.582 16.638C33.5818 16.6379 33.5815 16.6378 33.5813 16.6377C33.4533 16.6004 33.3267 16.5629 33.2025 16.5256ZM29.8977 15.0268C29.914 15.052 29.9302 15.0772 29.9462 15.1023C30.1886 15.2127 30.4293 15.3217 30.6672 15.4287C30.6397 15.4267 30.6119 15.4247 30.5841 15.4225C30.9364 15.6045 31.1149 15.619 31.3047 15.7103C31.3044 15.7103 31.3042 15.7102 31.304 15.7101C31.3251 15.7202 31.3322 15.7607 31.4132 15.7969C31.5935 15.8782 32.1022 16.1088 32.1764 16.1023C32.3373 16.0914 31.2912 15.683 31.0975 15.5935C31.0111 15.5542 30.9217 15.4824 30.8682 15.4582C30.8098 15.4319 30.7141 15.4342 30.5757 15.3719C30.5353 15.3538 30.0937 15.1066 29.8977 15.0268ZM25.6435 13.1432C25.7027 13.2114 25.872 13.2501 25.9256 13.2815C25.9384 13.289 25.8209 13.2689 25.9437 13.3358C25.9883 13.3331 26.0328 13.3304 26.0773 13.3275C25.9344 13.267 25.7898 13.2055 25.6435 13.1432ZM20.013 16.5805C20.0228 16.617 19.8123 17.0188 19.7923 17.0301C19.7037 17.3109 20.1635 16.4407 20.013 16.5805ZM11.5987 9.91702C11.6961 10.1157 9.88755 8.6329 9.70809 8.49532C9.75465 8.45347 10.1575 8.8409 9.9782 8.59648C10.1698 8.803 10.7961 9.247 10.9328 9.36621C11.0155 9.43862 11.0054 9.49776 11.0177 9.50913C11.0664 9.55348 11.5631 9.84766 11.5987 9.91702ZM8.21325 7.27382C8.38015 7.42092 8.54685 7.56728 8.71444 7.71371C8.50389 7.55735 8.29425 7.40084 8.08441 7.24337C8.12732 7.25351 8.17026 7.26366 8.21325 7.27382ZM7.97713 7.12236C7.94504 7.17372 7.38448 6.66818 7.22178 6.55459C7.45957 6.61508 7.69025 6.92287 7.97713 7.12236ZM18.0095 14.6369C18.2666 14.8751 18.4924 14.8158 18.1074 14.6301C18.0957 14.6247 17.9989 14.6265 18.0095 14.6369ZM34.3363 17.5308C34.2818 17.4211 35.5988 17.8354 35.0446 16.8168C34.9969 16.7077 34.8902 17.5196 34.645 17.3924C34.3741 17.4016 34.7394 17.2671 34.1252 17.4461C34.1466 17.4221 34.1656 17.3985 34.1884 17.374C33.8212 17.4515 33.9719 17.5495 33.9076 17.5812C33.891 17.5901 33.6599 17.6298 33.6199 17.6468C33.128 17.8608 34.2825 17.5458 34.3363 17.5308ZM15.4214 20.0011C14.8097 20.3282 15.1031 20.234 14.5048 20.6169C14.5079 20.6626 15.3644 20.0796 15.4214 20.0011ZM27.7359 18.8607C28.4313 18.6949 29.0172 18.6255 29.6546 18.417C29.5885 18.3164 27.5473 18.8711 27.7359 18.8607ZM11.3653 6.07972C13.7943 7.44676 16.7245 8.75755 19.4057 10.0127C19.6969 10.1491 19.706 10.2021 19.8145 10.2477C19.8854 10.2775 19.8884 10.2397 19.9806 10.2828C23.3098 11.8359 26.5129 13.2862 29.7143 14.7455C29.9197 14.8396 30.8715 15.3441 31.128 15.3296C31.3211 15.3188 30.5907 15.0734 30.4681 15.0178C30.3818 14.9791 30.3944 14.9398 30.3358 14.9137C30.2733 14.8858 30.3139 14.9345 30.2405 14.9024C29.9275 14.7656 29.6043 14.6091 29.3195 14.4836C26.5854 13.2766 23.9484 12.0378 21.2508 10.772C20.9233 10.6182 21.0063 10.6208 20.9896 10.6128C20.9894 10.6127 20.9891 10.6127 20.9888 10.6127C19.2397 9.79021 17.2115 8.91762 15.3712 8.0188C14.0769 7.38355 12.783 6.7476 11.4892 6.11125C11.4479 6.10074 11.4066 6.09023 11.3653 6.07972ZM32.8185 17.7446C33.0177 17.8288 33.0306 17.6997 33.6755 17.6115C33.721 17.5799 33.7693 17.5476 33.8161 17.5157C33.4832 17.5938 33.1502 17.6695 32.8175 17.7448C32.8178 17.7447 32.8182 17.7446 32.8185 17.7446ZM33.2138 16.2623C33.174 16.0692 31.8078 15.6274 31.2218 15.3342C31.0808 15.3651 31.961 15.7048 32.1624 15.7987C32.2613 15.8455 32.7789 16.1579 33.2134 16.2805C33.2135 16.2745 33.2137 16.2684 33.2138 16.2623ZM13.4258 11.5611C13.5139 11.6188 13.6017 11.6762 13.69 11.7339C13.4868 11.5644 13.2856 11.3959 13.0834 11.226C13.416 11.4825 13.7491 11.7378 14.0825 11.9922C13.9982 11.9744 13.9155 11.9577 13.8314 11.94C13.6955 11.8134 13.5608 11.6875 13.4258 11.5611ZM14.5412 12.3416C13.9362 11.9242 14.6146 12.2961 14.7387 12.4355C14.8138 12.5197 14.6033 12.3844 14.5412 12.3416ZM16.0618 13.4989C15.7475 13.3503 15.1814 12.9525 15.4525 12.9959C15.7211 13.2572 15.9423 13.3562 16.361 13.6943C16.2833 13.6677 16.2063 13.6416 16.1289 13.6152C16.1286 13.615 16.1283 13.6148 16.1281 13.6146C16.1062 13.5762 16.083 13.5368 16.0618 13.4989ZM14.2251 12.2058C13.8759 11.8694 14.9927 12.6989 14.6108 12.4821C14.5931 12.4722 14.2395 12.2195 14.2251 12.2058ZM14.1992 7.27866C14.1302 7.29011 14.4631 7.44639 14.5743 7.5018C15.0528 7.74061 15.6775 8.01599 16.1769 8.2574C16.1446 8.22769 16.1123 8.19796 16.0799 8.16821C15.4551 7.8729 14.8247 7.57473 14.1992 7.27866ZM17.7465 8.99665C18.092 9.15922 18.4361 9.32102 18.7811 9.48312C18.8132 9.49821 18.9779 9.53782 18.8698 9.47784C18.4959 9.31782 18.1215 9.15744 17.7465 8.99665ZM30.513 18.4728C30.8025 18.4348 30.0046 18.7193 30.0152 18.592C30.1823 18.552 30.3465 18.5126 30.513 18.4728ZM27.8644 19.0843C28.0391 19.0349 28.2187 18.9846 28.3937 18.9354C28.3968 18.9491 28.4 18.9628 28.4032 18.9765C28.225 19.0121 28.0423 19.0487 27.8644 19.0843ZM12.856 6.61355C13.011 6.74002 13.4338 6.93143 13.6933 7.05501C13.532 6.93309 13.0944 6.749 12.856 6.61355ZM34.8265 17.5836C34.8189 17.5767 34.8826 17.5557 35.0008 17.5104C35.2011 17.7019 35.0854 16.4401 34.9459 16.6497C34.709 16.5719 34.5544 16.5039 34.7443 16.5344C34.868 16.5839 34.9049 16.5739 35.1628 16.6997C35.5779 18.2513 34.8387 17.3825 34.8265 17.5836ZM33.2596 15.9665C33.4917 16.0526 33.6643 16.132 33.5985 16.1616C33.4782 16.112 33.3533 16.0596 33.2363 16.01C33.2441 15.9955 33.2519 15.981 33.2596 15.9665ZM17.0651 14.3347C17.4088 14.5756 17.7501 14.8164 18.0868 15.0609C18.066 15.0629 18.045 15.0649 18.024 15.0668C17.6999 14.8322 17.371 14.6002 17.0394 14.368C17.048 14.3569 17.0565 14.3458 17.0651 14.3347ZM12.6957 6.39798C12.4314 6.28332 12.1653 6.16778 11.9014 6.05328C12.1575 6.18474 12.4159 6.31723 12.6725 6.44884C12.6805 6.43192 12.6885 6.41499 12.6965 6.39807C12.6962 6.39804 12.696 6.39801 12.6957 6.39798ZM12.2787 11.1252C13.279 11.937 11.9115 11.0252 11.6958 10.7445C11.6954 10.7444 11.6951 10.7442 11.6947 10.7441C11.6758 10.7195 11.751 10.7238 11.721 10.6809C11.8158 10.774 11.9095 10.8662 12.0045 10.9592C12.1146 11.0113 12.2245 11.0631 12.3347 11.1151C12.3611 11.1457 12.3874 11.1762 12.4136 11.2067C12.3688 11.1796 12.3238 11.1525 12.2787 11.1252ZM8.11421 8.01162C7.20248 7.28099 8.20268 7.94255 8.60843 8.3622C8.59338 8.37455 8.19799 8.07876 8.11421 8.01162ZM10.5535 9.86328C10.7063 9.96655 10.859 10.0693 11.0123 10.1721C11.0241 10.1956 11.0359 10.2192 11.0477 10.2427C10.9273 10.1675 10.8074 10.0924 10.6871 10.0168C10.6424 9.96553 10.5981 9.91452 10.5535 9.86328ZM15.3367 13.5686C15.5697 13.7502 15.9521 13.8613 15.1602 13.3402C15.1525 13.3519 15.1447 13.3637 15.1369 13.3754C15.1693 13.3957 15.2662 13.4485 15.2709 13.4531C15.2831 13.4661 15.2395 13.4928 15.3367 13.5686ZM6.19131 6.95051C6.16185 6.93351 6.05454 7.03806 5.88181 6.69989C5.79471 6.64117 5.70758 6.58231 5.62039 6.52328C5.6201 6.48083 5.61987 6.43842 5.6197 6.39605C5.91789 6.67202 5.99278 6.64708 6.01662 6.66471C6.12554 6.74513 6.02632 6.70846 6.09339 6.76346C6.26687 6.90578 6.67831 7.20791 6.43734 7.13852C6.35008 7.11292 6.22094 6.96762 6.19131 6.95051ZM6.75572 7.51347C6.72506 7.47302 6.87603 7.53832 6.85468 7.50548C6.83568 7.47673 6.48271 7.13623 6.63175 7.16187C6.69225 7.21451 6.75324 7.26748 6.81355 7.31982C6.82212 7.35247 6.83073 7.38514 6.83938 7.41783C6.91163 7.45196 6.9841 7.4862 7.05612 7.52001C7.1271 7.64025 7.30587 7.86496 7.02124 7.68962C7.11922 7.76244 7.21668 7.83468 7.31475 7.90724C7.37904 7.92798 7.44307 7.94849 7.50714 7.96897C7.45879 7.97684 7.41046 7.98472 7.36214 7.9926C7.15904 7.83288 6.95813 7.67414 6.75572 7.51347ZM3.84706 5.11359C3.87062 5.1089 3.89361 5.10373 3.91692 5.09882C3.55257 4.84 3.01009 4.39847 3.38938 4.56524C3.85674 4.94679 4.32976 5.32864 4.80099 5.70519C4.82287 5.74152 4.8449 5.77796 4.86708 5.81451C4.5548 5.48627 4.51353 5.75167 4.25427 5.45031C4.21114 5.39978 4.40869 5.45945 4.05705 5.23365C4.0566 5.25776 4.0557 5.28148 4.05495 5.30533C3.98573 5.24159 3.91552 5.17691 3.84706 5.11359ZM0.91943 2.49684C1.4971 3.11274 0.789627 2.51075 0.721186 2.34181C0.721372 2.34201 0.721558 2.34222 0.721744 2.34242C0.540268 1.91104 1.12356 2.6567 1.16577 2.68365C1.21854 2.73279 1.41633 2.77222 1.58834 3.14704C1.36823 2.9444 1.14358 2.73202 0.91943 2.49684ZM2.81894 4.24601C2.76693 4.20653 2.81274 4.20843 2.79117 4.19061C2.79099 4.19046 2.7908 4.1903 2.79061 4.19014C2.47881 3.93467 1.71244 3.3003 1.69338 3.15699C1.93081 3.36593 2.97771 4.23662 2.99985 4.33507C2.93855 4.30459 2.87952 4.276 2.81894 4.24601ZM5.07418 6.04261C5.23103 6.24794 4.78819 5.89407 4.69184 5.77873C4.67403 5.75632 4.9114 5.82966 5.07418 6.04261ZM18.6723 16.4744C18.3974 16.7837 18.8168 16.4353 18.7188 16.6056C18.7743 16.5461 18.8244 16.4877 18.8635 16.4357C18.8035 16.4476 18.7389 16.4613 18.6723 16.4744ZM22.9882 21.0542C23.1135 21.0318 23.0471 21.0125 23.0578 21.0095C23.1394 20.9915 23.2226 21.0005 23.2533 20.9904C23.8197 20.8025 23.4282 20.8636 23.421 20.8585C23.4012 20.8286 23.5445 20.7553 23.3252 20.7666C23.1995 20.8078 23.0742 20.8491 22.9492 20.8903C22.8819 20.8869 22.8136 20.8837 22.7458 20.8804C22.5008 20.9789 22.8358 20.9117 22.8858 20.9545C22.905 20.9715 22.6716 21.0515 22.9882 21.0542ZM17.9667 16.9187C17.9379 17.0143 17.8168 17.1957 18.0131 17.1243C18.0132 17.1241 18.0134 17.124 18.0136 17.1239C18.0507 17.11 18.1727 17.0252 18.2155 17.0111C18.4135 16.7555 18.2687 16.7707 17.9667 16.9187ZM20.7286 21.7054C20.5217 21.7427 20.3142 21.7807 20.1082 21.819C20.1028 21.7839 20.0975 21.7488 20.0922 21.7137C20.203 21.6953 20.3146 21.6769 20.4269 21.6585C20.461 21.6333 20.4949 21.6082 20.5291 21.583C20.3854 21.5775 20.2376 21.5732 20.0929 21.5685C19.9352 21.6231 19.771 21.6798 19.613 21.7354C19.6923 21.734 19.7718 21.7327 19.8518 21.7314C19.459 21.8541 19.5205 21.7495 19.1842 21.8043C19.0785 21.8662 18.9756 21.9276 18.8727 21.9893C18.6997 22.0019 18.5325 22.0135 18.3593 22.0274C18.0911 22.1177 18.0759 22.1483 18.2673 22.1337C18.1458 22.212 17.9759 22.1898 17.8193 22.2526C17.8061 22.2578 17.8427 22.2893 17.8309 22.2932C16.9964 22.5613 17.0136 22.4503 16.8789 22.4851C16.7816 22.5108 16.4277 22.6939 16.4293 22.7192C16.4323 22.7534 17.2461 22.6339 16.0318 23.0175C16.687 22.9026 17.378 22.6044 16.8761 22.617C17.0779 22.5684 17.9599 22.2789 18.0159 22.2684C18.1003 22.2507 18.0845 22.307 18.1896 22.2789C18.2513 22.2625 18.3823 22.1063 18.8946 22.0709C18.9519 22.036 19.0079 22.0016 19.0654 21.9669C19.1276 21.9662 19.1902 21.9654 19.2534 21.9646C19.1453 22.05 19.0404 22.1348 18.9361 22.2197C19.3913 22.0352 19.8208 22.0398 20.09 21.8738C20.3427 21.8207 20.4696 21.8002 20.3726 21.8743C20.4487 21.8552 20.5239 21.8363 20.599 21.8175C20.6419 21.7801 20.6852 21.7428 20.7286 21.7054ZM16.7488 17.8708C16.5047 17.967 16.492 18.1161 16.5292 18.0997C16.7387 18.0063 16.8752 17.821 16.7488 17.8708ZM22.5143 21.1008C22.2273 21.1371 21.941 21.1739 21.6561 21.2112C21.6649 21.2476 21.6736 21.2839 21.6824 21.3202C21.9583 21.2466 22.2359 21.1734 22.5143 21.1008ZM18.6514 16.3762C18.6839 16.3828 18.716 16.3897 18.7476 16.3967C18.8222 16.171 18.8705 16.2454 18.83 16.4422C18.8224 16.4813 18.7734 16.3947 18.7766 16.335C18.8239 16.175 18.7125 16.3101 18.6514 16.3762ZM9.61012 9.92488C9.71584 9.9817 9.82162 10.0384 9.92787 10.0952C9.9036 10.1163 9.87933 10.1374 9.85505 10.1586C9.80466 10.1278 9.75425 10.0969 9.70409 10.0662C9.67272 10.0191 9.6414 9.972 9.61012 9.92488ZM10.7204 10.6985C10.8883 10.8268 11.0569 10.9552 11.2257 11.0832C10.56 10.6256 11.0834 11.0316 10.6657 10.7718C10.6839 10.7474 10.7022 10.7229 10.7204 10.6985ZM12.4071 12.0192C12.3751 12.0191 12.343 12.019 12.3108 12.0189C12.1397 11.8943 11.9694 11.7699 11.7983 11.6446C11.8681 11.7766 11.937 11.9079 12.007 12.0397C12.0697 12.0857 12.1317 12.1311 12.1947 12.1771C12.2656 12.1245 12.3364 12.0719 12.4071 12.0192ZM28.5371 19.9674C28.6611 19.9421 29.08 19.7946 29.0579 19.7779C28.8725 19.7909 28.6887 19.8037 28.5042 19.8167C28.5112 19.8535 28.5181 19.8903 28.5251 19.9271C28.4961 19.9142 28.467 19.9014 28.4379 19.8885C28.3394 19.9239 28.2392 19.9597 28.1407 19.9951C28.0828 19.974 28.0248 19.953 27.9667 19.9321C27.923 19.9796 27.8792 20.0273 27.8353 20.0749C28.3408 20.034 28.3103 19.9731 28.4127 19.9518C28.4646 19.9411 28.5021 19.9568 28.5228 19.9643C28.5276 19.9653 28.5323 19.9664 28.5371 19.9674ZM22.3758 21.3783C22.9591 21.25 23.2705 21.077 23.7104 21.0605C23.4001 20.95 21.6974 21.5353 21.0523 21.5456C20.9955 21.5885 20.939 21.6315 20.8829 21.6744C21.2078 21.5682 21.4536 21.5683 21.6184 21.537C21.7499 21.5121 21.7289 21.4868 21.7389 21.4848C21.7394 21.4847 21.7399 21.4846 21.7403 21.4845C22.0448 21.4238 22.1462 21.4289 22.3758 21.3783ZM18.6648 16.1494C18.6337 16.123 18.5284 16.2501 18.5701 16.298C18.6518 16.2417 18.7158 16.1877 18.7342 16.1918C18.7194 16.1842 18.6716 16.153 18.6648 16.1494ZM12.4994 12.3105C12.5899 12.4023 12.8439 12.5632 12.7719 12.4419C12.7585 12.42 12.494 12.277 12.6949 12.2975C12.4588 12.1283 12.4478 12.258 12.4994 12.3105ZM12.6875 24.1455C12.5936 24.1853 12.4966 24.2267 12.4026 24.2672C12.3907 24.3004 12.3783 24.3338 12.3656 24.3673C12.4725 24.2931 12.5803 24.2189 12.6875 24.1455ZM18.4942 16.7058C18.5157 16.547 18.2924 16.5136 18.1744 16.2835C18.1067 16.2278 18.0362 16.1712 17.9649 16.1149C17.9647 16.1147 17.9645 16.1146 17.9643 16.1144C17.9409 16.1406 17.9175 16.1667 17.894 16.1928C18.1239 16.3736 18.3443 16.5561 18.4942 16.7058ZM18.8481 22.1927C18.7816 22.1939 18.7156 22.195 18.6499 22.196C18.5469 22.2439 18.438 22.2936 18.3341 22.3422C18.397 22.3388 18.4603 22.3354 18.524 22.3319C18.6345 22.2845 18.7387 22.2392 18.8481 22.1927ZM17.2956 15.7644C17.5516 15.9734 17.7206 15.9603 17.3781 15.7063C17.2336 15.5998 17.0238 15.5441 17.2956 15.7644ZM34.993 18.5361C34.8523 18.5641 34.7292 18.5841 34.6036 18.604C34.5665 18.6369 34.5338 18.6686 34.4965 18.7012C34.6535 18.6506 34.8141 18.5986 34.993 18.5361ZM11.1869 11.3341C11.2119 11.3235 11.2371 11.3129 11.2622 11.3023C11.3445 11.369 11.4262 11.4351 11.5084 11.5014C11.4732 11.5043 11.4381 11.5074 11.403 11.5105C11.3312 11.452 11.2589 11.393 11.1869 11.3341ZM34.1624 18.7192C34.071 18.7349 33.9739 18.7517 33.8808 18.7673C33.8189 18.7925 33.7613 18.8166 33.7009 18.8413C33.7896 18.8337 33.8804 18.8256 33.9686 18.8179C34.0302 18.7858 34.1007 18.7516 34.1624 18.7192ZM14.6812 13.8784C14.7732 13.9785 15.2534 14.2125 14.879 13.9185C14.6413 13.7319 14.667 13.863 14.6812 13.8784ZM14.0852 13.4878C14.4632 13.8236 14.3147 13.3834 13.7233 13.1769C14.2296 13.5097 14.063 13.4678 14.0852 13.4878ZM10.4104 10.9849C10.4003 10.9772 10.4151 10.9394 10.3345 10.8773C10.0445 10.6543 9.66463 10.348 9.45868 10.1882C8.96114 9.80688 7.39085 8.67009 7.28691 8.44017C7.26482 8.39231 7.39386 8.40372 7.38113 8.38896C7.34328 8.34607 7.06959 8.17291 7.14881 8.1689C7.39594 8.36579 7.64414 8.56237 7.89286 8.7581C7.80884 8.73912 7.72492 8.72014 7.64111 8.70118C8.27358 9.17306 8.06741 9.01325 8.29555 9.08948C8.38177 9.19618 8.46806 9.30271 8.55468 9.40924C8.80394 9.56273 9.05517 9.71659 9.30455 9.86777C9.2381 9.84638 9.17162 9.82489 9.10504 9.80328C9.42656 10.1039 9.34681 10.007 9.57149 10.1068C9.55774 10.1257 9.54398 10.1446 9.53023 10.1635C9.90108 10.3736 9.9259 10.4793 9.99938 10.5358C10.1509 10.6513 10.5083 10.5757 10.9243 11.2267C11.2482 11.302 11.0824 11.5139 11.3078 11.5101C11.6342 11.9352 10.8768 11.3114 10.5075 11.0291C10.5073 11.029 10.5072 11.0288 10.507 11.0287C10.4791 11.0074 10.5088 11.0608 10.4104 10.9849ZM12.6244 12.4418C12.3013 12.358 13.2909 13.087 13.0641 12.7071C13.0184 12.6672 12.9725 12.6271 12.9265 12.5868C12.8258 12.5386 12.7249 12.4901 12.6239 12.4414C12.6241 12.4415 12.6243 12.4417 12.6244 12.4418ZM16.9341 17.3238C16.0523 17.9751 16.609 17.6868 16.8793 17.423C16.9326 17.3707 16.9557 17.3326 16.9341 17.3238ZM23.2282 21.2744C23.2409 21.2565 23.2536 21.2386 23.2663 21.2207C22.9028 21.3186 22.1798 21.4318 22.2131 21.525C22.5502 21.4408 22.8901 21.3569 23.2282 21.2744ZM20.3551 22.0336C20.4351 22.0194 20.7549 21.9537 20.7079 21.9276C20.5643 21.9366 20.4201 21.946 20.2757 21.9558C20.2155 21.9878 20.1562 22.0197 20.0959 22.0519C20.1867 22.0344 20.3335 22.0375 20.3551 22.0336Z" fill="#B564D4"/>
</svg>
