<svg width="40" height="25" viewBox="0 0 40 25" fill="none" xmlns="http://www.w3.org/2000/svg">
<mask id="mask0_77408_358" style="mask-type:alpha" maskUnits="userSpaceOnUse" x="0" y="0" width="40" height="25">
<path d="M0 0H40V25H0V0Z" fill="#D9D9D9"/>
</mask>
<g mask="url(#mask0_77408_358)">
<path d="M14.3987 0.915916C14.4179 0.901518 14.8192 0.993102 14.8662 1.05693C14.9122 1.1207 14.7696 1.17558 14.8468 1.26943C14.8642 1.29529 15.2264 1.46207 15.2483 1.48094C15.4108 1.61414 14.8028 1.53718 14.7663 1.53676C14.3956 1.54938 14.785 1.74391 14.8109 1.78353C14.9203 1.95716 14.8179 2.08743 14.8962 2.22909C14.9469 2.32501 15.3457 2.37803 15.3269 2.44355C15.2622 2.66577 14.6951 2.68983 15.1601 2.9557C15.2595 3.01193 15.7029 3.00419 15.3434 3.13882C15.3206 3.14796 14.9942 3.24308 15.1872 3.33173C15.2116 3.34286 15.3396 3.35423 15.3502 3.36698C15.4124 3.45345 15.3068 3.49648 15.3482 3.58634C15.3902 3.67786 15.4551 3.78661 15.4045 3.88207C15.374 3.93973 15.1309 4.00095 15.0699 4.02406C14.8958 4.09158 15.1651 4.19933 14.9583 4.23656C14.7498 4.27354 14.4441 4.15323 14.3026 4.27573C14.6354 4.30355 14.977 4.33801 15.3114 4.36876C15.2798 4.66331 15.1549 4.93621 15.1523 5.2354C15.1534 5.27098 15.3321 5.24566 15.3385 5.28338C15.3578 5.44522 15.222 5.58883 15.2639 5.75832C15.2969 5.89287 15.4797 6.04801 15.5209 6.18723C15.1351 6.25323 15.2542 6.46464 15.2124 6.61223C15.1979 6.66398 15.0965 6.65591 15.0611 6.69155C14.9316 6.82835 15.2713 6.777 15.323 6.81787C15.5419 6.99114 14.7789 6.97038 14.7886 7.16942C14.7965 7.18183 15.1849 7.31992 15.2144 7.33981C15.3748 7.45679 15.0734 7.35276 15.0398 7.42011C14.9796 7.54433 14.8786 7.62994 14.9913 7.78047C15.0249 7.82487 15.2742 7.9391 15.0747 8.01647C15.0477 8.02636 14.9158 8.01578 14.9069 8.02431C14.7694 8.18076 15.1919 8.19922 15.3317 8.29654C15.4707 8.39331 15.1735 8.52558 15.0883 8.55212C15.0829 8.55381 15.0778 8.55557 15.0728 8.55702L15.0737 8.53548C14.9971 8.55845 14.9688 8.55379 14.9612 8.53939C14.9671 8.51588 14.9858 8.48806 14.9768 8.48553C14.7943 8.44343 14.7644 8.48715 14.7527 8.54527L14.7537 8.5296C14.7497 8.55099 14.7473 8.57472 14.7411 8.59619C14.3265 8.60004 14.3498 8.71119 14.7197 8.67747C14.7596 8.67339 14.7226 8.61194 14.7411 8.59619C15.1469 8.67183 15.1971 8.7958 14.8148 8.92326C14.6357 8.98301 14.4294 8.92033 14.5025 9.11324C14.5364 9.20046 14.8212 9.17194 14.8982 9.24837C15.0735 9.4244 14.8049 9.64955 14.8448 9.83103C14.8601 9.89621 15.0162 9.83438 15.032 9.87901C15.0733 9.99779 14.9548 10.1011 15.0136 10.2217C15.0192 10.2327 15.183 10.2082 15.1853 10.2453C15.2019 10.5253 15.0949 10.7706 15.0902 11.0649C15.0882 11.2064 15.1768 11.4615 15.1581 11.6084C15.1264 11.8638 14.8878 12.1772 14.9447 12.3957C14.9814 12.5381 15.1448 12.5079 15.2561 12.569C15.4719 12.6872 15.0846 12.8944 15.0243 12.9225C15.021 12.9189 14.9825 12.8023 14.9001 12.8657C14.7263 12.903 15.0187 12.9209 15.0243 12.9225C14.9855 12.9408 14.9477 13.1858 14.9787 13.2349C14.9965 13.2609 15.15 13.2469 15.1572 13.2604C15.2951 13.5884 15.3332 13.9168 15.26 14.2494C15.2521 14.2547 15.088 14.2464 15.0786 14.2592C15.001 14.4512 15.2129 14.5762 15.3385 14.7351C15.4641 14.8936 15.4214 15.0214 15.1232 15.1141C15.1599 15.2331 15.0278 15.4058 14.9477 15.5038C14.8686 15.6006 15.1953 15.6174 15.2115 15.6262C15.4241 15.8996 15.2305 16.0574 15.1989 16.3382C15.1834 16.474 15.2309 16.7384 15.2668 16.8856C15.2957 17.0006 15.2162 17.0691 15.2658 17.1764C15.2725 17.1908 15.4215 17.178 15.4287 17.1823C15.6073 17.3023 15.2408 17.2417 15.1746 17.2655C14.9352 17.3516 14.8081 17.4051 14.9186 17.5583C14.9439 17.5937 15.4713 17.7002 15.5025 17.7649C15.5407 17.8493 15.3521 17.8164 15.3967 17.904C15.4051 17.911 15.5166 17.9125 15.5112 17.9647C15.4858 18.2135 15.4139 18.4871 15.421 18.7461C15.4215 18.7822 15.6078 18.7403 15.6121 18.7922C15.6297 19.0329 15.617 19.3016 15.5238 19.5364C15.5003 19.5933 15.3707 19.5534 15.3317 19.5648C15.0981 19.6371 15.4282 19.7568 15.4384 19.7763C15.446 19.7983 15.4516 19.8207 15.4569 19.8419C15.5562 20.2322 15.2783 20.5337 15.4084 20.9416C15.4165 20.964 15.7769 21.151 15.4637 21.2227C15.4428 21.2261 15.1226 21.3026 15.3395 21.3754C15.3539 21.3796 15.5174 21.3357 15.4995 21.4195C15.4818 21.5064 15.5884 21.6462 15.4064 21.7622C15.348 21.7973 15.0302 21.8844 15.2813 22.0012C15.2989 22.0088 15.8702 22.1959 15.4734 22.2519C15.408 22.2602 14.9895 22.2435 15.2008 22.385C15.2419 22.4126 15.337 22.3648 15.3938 22.4389C15.4808 22.5492 15.3655 22.6943 15.5451 22.8521C15.5779 22.8785 15.8553 23.0086 15.6324 23.1028C15.5975 23.1164 15.4606 23.0764 15.4404 23.1283C15.233 23.4006 15.7941 23.6688 14.5277 24.8665C14.3411 24.9828 14.2468 24.9705 14.1775 24.9477C14.0367 24.9221 13.9264 24.8783 13.6412 24.8851C13.1523 24.8799 12.847 24.6718 12.6285 24.6843C12.4058 24.6826 12.4359 25.1229 12.1261 24.9663C11.9455 24.8666 11.774 24.7397 11.6091 24.5658C11.1107 24.0562 11.0112 23.5171 10.8177 23.1391C10.7852 23.0742 10.7027 23.1906 10.6479 23.1009C10.6163 23.0493 10.5799 22.9943 10.5412 22.9383C10.3433 22.652 10.0303 22.2537 10.066 21.8739C10.1025 21.517 10.4315 21.7279 10.3938 21.4978C10.375 21.3877 9.95971 21.5106 9.93407 21.4949C9.68705 21.3465 9.75329 21.0917 9.5878 20.9113C9.55317 20.8738 9.42843 20.9996 9.4006 20.9661C9.30418 20.8517 9.29828 20.6781 9.22214 20.5587C9.18738 20.5057 9.07642 20.5746 9.05919 20.5176C9.01623 20.3804 9.01161 20.2434 9.06501 20.0681C9.07284 20.053 9.25021 20.0577 9.21438 19.9643C9.15772 19.819 9.18034 19.6038 9.02912 19.4747C9.01972 19.4664 9.0098 19.4579 8.99905 19.4502C8.97753 19.4353 8.92312 19.4404 8.87296 19.4434C8.8273 19.9069 8.7635 20.3706 8.73329 20.8398C8.73115 20.8737 8.92568 20.8235 8.9234 20.8887C8.90557 21.2645 8.94451 21.6333 8.73814 22.0139C8.71794 22.0515 8.38021 22.0209 8.42679 22.1343C8.43579 22.1563 8.4748 22.3245 8.54609 22.3713C8.55978 22.377 8.71536 22.3537 8.71874 22.4076C8.73048 22.7319 8.68181 23.0584 8.57325 23.376C8.55517 23.4258 8.38894 23.3662 8.37441 23.4015C8.27572 23.654 8.39338 23.9477 8.23183 24.1859C8.12278 24.348 7.83316 24.2763 7.54318 24.3543C7.50245 24.3656 7.49169 24.4686 7.32494 24.4679C6.90494 24.4663 6.44692 24.399 5.99904 24.4033C5.90343 24.4045 6.00133 24.5473 5.77208 24.4562C5.75651 24.4493 5.68303 24.3459 5.60525 24.3181C5.55118 24.2988 5.37994 24.3236 5.31136 24.2858C5.24335 24.248 5.38637 24.2146 5.30651 24.1536C5.22542 24.0926 5.03127 24.1101 5.01262 23.9939C4.97073 23.728 5.0395 23.3703 5.12513 23.1087C5.15189 23.0249 5.25508 23.0711 5.27838 23.0137C5.32345 22.901 5.27593 22.7929 5.32882 22.6837C5.3477 22.6483 5.51103 22.6996 5.52669 22.6622C5.60822 22.4535 5.57432 22.2444 5.61786 22.0335C5.83349 20.9733 5.93797 19.9284 6.06015 18.8558C6.10059 18.4961 6.27008 18.0778 6.22116 17.7032C6.21485 17.6605 6.06861 17.6785 6.05627 17.6699C5.87784 17.5343 6.17134 17.5899 6.21437 17.5093C6.38456 17.179 6.41538 16.821 6.37538 16.4929C6.35745 16.3576 6.06029 16.4767 6.22989 16.3499C6.24189 16.341 6.39416 16.3838 6.41321 16.347C6.45477 16.2618 6.4354 16.1003 6.45103 16.0375C6.48218 15.9108 6.48175 15.8887 6.48983 15.7712C6.5025 15.6072 6.59026 15.4201 6.56549 15.2385C6.5578 15.2019 6.39789 15.2403 6.37441 15.1797C6.35104 15.1213 6.37378 14.959 6.41418 14.9094C6.45493 14.8592 6.57875 14.8894 6.60816 14.882C6.8546 14.8212 6.53162 14.6117 6.52475 14.5902C6.47577 14.3952 6.49026 14.2181 6.52475 14.0447C6.48884 13.9621 6.45138 13.8819 6.41709 13.8048C6.41827 13.8036 6.42121 13.8039 6.42485 13.8068C6.45033 13.8223 6.43113 13.8308 6.54706 13.94C6.59167 13.7534 6.65055 13.5673 6.67121 13.3651C6.68414 13.2481 6.68687 13.1344 6.70904 12.9627C6.72233 12.858 6.72395 12.751 6.78566 12.5426C6.85549 12.4351 6.75386 12.2822 7.29585 11.9227C8.12641 11.6276 8.36344 12.1231 8.44522 12.1607C8.58092 12.3155 8.61848 12.4028 8.66345 12.4897C8.77749 12.7429 8.8501 12.9836 8.99323 13.2251C9.01163 13.2566 9.15616 13.1295 9.17946 13.1673C9.42264 13.5763 9.6188 14.0174 9.70128 14.505C9.709 14.5534 9.53516 14.5675 9.53348 14.6196C9.53305 14.944 9.40333 15.4771 10.1319 15.3726C10.1799 15.5697 10.2368 15.8054 10.161 16.0228C10.1112 16.1603 9.90637 16.1186 10.0243 16.2236C10.0511 16.2465 10.1844 16.1567 10.2134 16.1952C10.3331 16.3639 10.3525 16.5855 10.4889 16.7455C10.5169 16.7774 10.6469 16.7245 10.6751 16.7269C10.8988 16.7546 10.6254 17.006 10.6101 17.0462C10.5112 17.3464 10.6329 17.5013 10.6984 17.7228C10.7135 17.7742 10.8739 17.6568 10.8953 17.7032C11.0013 17.9473 11.0698 18.1997 11.0796 18.4573C11.0814 18.5145 10.9159 18.5278 10.9069 18.5581C10.894 18.6237 10.9551 18.6379 11.0194 18.6472C11.0893 18.6586 11.1629 18.6652 11.1542 18.7314C11.1512 18.7585 11.0208 18.8003 11.0068 18.8108C10.8164 18.969 11.1464 18.889 11.162 18.9009C11.3427 19.0581 11.086 19.3374 11.2289 19.5109C11.2461 19.5309 11.3741 19.4008 11.4132 19.46C11.6715 19.8615 11.8947 20.3185 12.0466 20.8212C12.0701 20.8989 11.9311 20.9228 11.9195 20.9357C11.7501 21.1393 12.0596 21.0026 12.0863 21.016C12.272 21.1388 12.1322 21.4525 12.548 21.3598C12.5896 21.4611 12.6354 21.5603 12.6838 21.6584C12.8643 22.0246 13.0685 22.3496 13.2483 22.6347C13.2495 22.6338 13.2509 22.6328 13.2522 22.6318C13.3751 22.5464 13.7739 22.5238 13.5461 22.3772C13.5154 22.3577 13.0516 22.3772 13.0757 22.2372C13.0859 22.1835 13.0824 21.9318 13.1135 21.8641C13.1446 21.7958 13.2907 21.8444 13.2997 21.8406C13.5004 21.6534 13.5816 21.7289 13.8759 21.6379C14.1691 21.5467 13.4733 21.5632 13.3958 21.5233C13.3191 21.4836 13.4849 21.3468 13.5422 21.3147C13.5996 21.2821 13.6939 21.3257 13.7265 21.2961C13.9393 21.0981 13.3818 21.2018 13.2726 21.1336C13.0148 20.9708 13.5331 20.86 13.5868 20.7193C13.6 20.6824 13.4844 20.7099 13.4734 20.6762C13.4348 20.5365 13.5973 20.4628 13.454 20.3002C13.4292 20.2748 13.1244 20.1426 13.3541 20.0662C13.3879 20.0561 13.5147 20.0917 13.5451 20.0348C13.5793 19.9725 13.6065 19.8698 13.6014 19.7802C13.5996 19.7521 13.5939 19.7251 13.5839 19.7019C13.5539 19.6334 13.3402 19.7041 13.4084 19.6206C13.439 19.5833 13.5602 19.6574 13.6072 19.5863C13.6541 19.513 13.6534 19.3363 13.6509 19.2632C13.6478 19.1946 13.4879 19.2277 13.4763 19.2221C13.415 19.1875 13.3401 19.0531 13.3405 19.0409C13.3333 18.4485 13.6113 17.9021 13.5267 17.3223C13.519 17.2779 13.35 17.3057 13.3473 17.2988C13.2788 17.144 13.7281 17.2693 13.8798 17.1617C13.5356 17.1749 13.5975 17.1107 13.5606 17.0011C13.5423 16.9488 13.4094 16.9756 13.3958 16.9708C13.1945 16.8916 13.4555 16.8386 13.5092 16.8248C13.7063 16.7742 13.4745 16.7155 13.6062 16.6809C13.737 16.6468 13.9301 16.7286 13.9283 16.6241C13.8052 16.594 13.4824 16.6696 13.4307 16.5898C13.2359 16.2859 13.4899 15.7274 13.517 15.4842C13.544 15.2427 13.5225 15.1636 13.5674 15.023C13.6482 14.7688 13.4086 14.8608 13.2997 14.7028C13.1923 14.5446 13.7784 14.6223 13.905 14.6C14.0313 14.5779 13.9017 14.5533 13.9709 14.5256C14.0403 14.498 14.126 14.5582 14.1523 14.4932C14.1781 14.4276 13.9545 14.2485 13.8225 14.2249C13.543 14.1753 13.2491 14.2554 13.3521 14.0829C13.3593 14.0733 13.513 14.1052 13.5286 14.0673C13.6482 13.7657 13.6565 13.4513 13.7624 13.1497C13.7776 13.1085 13.9486 13.1453 13.9593 13.1213C14.0697 12.8702 13.7803 12.9595 13.4588 12.8207C13.8871 12.8529 14.1492 12.7764 14.1523 12.5857C14.1536 12.4718 13.9666 12.4899 13.8351 12.4153C13.7976 12.3923 13.9238 12.3129 13.8371 12.2978C13.5495 12.2483 13.227 12.3227 13.356 12.1264C13.3666 12.119 13.5185 12.1457 13.5286 12.1166C13.5915 11.9235 13.292 11.8993 13.2561 11.6906C13.2284 11.5266 13.4121 11.2359 13.4433 11.0502C13.9251 11.0573 13.8157 10.88 13.484 10.8064C13.4984 10.6859 13.481 10.5549 13.5277 10.4382C13.5439 10.3983 13.6833 10.4255 13.6984 10.4205C13.9341 10.3451 13.6154 10.2901 13.6004 10.2639C13.4798 9.9785 13.726 9.75084 13.4898 9.4785C13.4782 9.46872 13.1488 9.44774 13.3928 9.37861C13.4117 9.37566 13.561 9.46457 13.5742 9.33846C13.5881 9.21267 13.7699 8.97351 13.6179 8.79596C13.5803 8.75202 13.3118 8.63898 13.5248 8.55702C13.5538 8.54614 13.6495 8.56064 13.7032 8.54527C13.7436 8.53343 13.756 8.52162 13.7546 8.51099C13.7497 8.47262 13.6074 8.4378 13.8274 8.3974C14.1169 8.34423 14.3368 8.22098 14.1455 8.039C14.1373 8.03258 13.8753 7.97933 13.8807 7.92344C13.8913 7.8336 13.9514 7.70935 13.9535 7.61792C13.9538 7.57523 13.7939 7.59399 13.7847 7.58756C13.7041 7.28037 13.861 7.07434 13.9399 6.75813C13.954 6.70271 13.736 6.51648 13.9205 6.41344C14.1229 6.29851 14.9323 6.46961 14.7527 6.17058C14.6798 6.05194 13.6524 5.85128 14.1998 5.67116C14.0887 5.2595 14.3845 4.90465 14.2212 4.48921C14.2123 4.46981 13.9293 4.39172 13.936 4.34917C13.9474 4.28634 14.0832 4.26064 14.0951 4.21697C14.1485 4.02741 14.0461 3.84661 14.0776 3.66566C14.0895 3.59861 14.2273 3.63105 14.2415 3.54815C14.2549 3.46458 14.0767 3.39984 14.1746 3.29158C14.2496 3.21053 14.6311 3.1629 14.6848 3.05264C14.3157 3.01386 14.3288 2.94292 14.2445 2.79314C14.2277 2.76509 14.0975 2.78052 14.0825 2.7667C14.0213 2.7088 14.1314 2.67378 14.064 2.61786C14.0463 2.60417 13.9224 2.5906 13.9021 2.57869C13.7249 2.47544 14.0213 2.37293 14.0737 2.35346C14.2707 2.28427 14.1113 2.22738 14.193 2.16544C14.2743 2.10663 14.3547 2.21725 14.4084 2.14488C14.5195 1.99258 14.5252 1.7836 14.5548 1.62098C14.5652 1.55521 14.3924 1.57516 14.3899 1.56516C14.3676 1.42287 14.5678 1.31481 14.2503 1.17933C15.1251 1.24944 14.181 1.0807 14.3987 0.915916ZM32.8517 23.8147C32.8839 23.8689 33.1011 24.4992 33.0621 24.4307C33.0541 24.4147 32.997 24.2159 32.9739 24.1575C32.932 24.0517 33.0656 24.4696 32.9855 24.2486C32.9717 24.2102 32.864 23.8573 32.8517 23.8147ZM32.7033 22.0619C32.7925 22.0678 32.6708 22.0302 32.8226 22.0492C32.9255 22.0621 33.2102 22.1228 33.4918 22.1755C33.5316 22.1829 33.5397 22.179 33.7033 22.2117C34.1149 22.2942 34.5652 22.3875 35.0039 22.4751C35.0985 22.494 34.9987 22.4674 35.2261 22.5172C35.2414 22.5206 35.316 22.5407 35.3929 22.5574C35.4462 22.569 35.6135 22.6007 35.6819 22.6161C35.7499 22.6315 35.6109 22.6063 35.6897 22.625C35.7705 22.644 35.9602 22.6805 35.9826 22.6906C36.0302 22.7131 35.9729 22.7193 35.8963 22.717C35.8719 22.7161 35.7689 22.693 35.7479 22.6915C35.7075 22.6889 35.7558 22.7037 35.7071 22.6994C35.6869 22.697 35.5284 22.6632 35.5141 22.6622C35.4402 22.6577 35.4791 22.6755 35.4424 22.6788C35.2613 22.6949 35.1892 22.7331 35.1039 22.7709C35.0752 22.7833 34.9238 22.774 34.9836 22.8061C34.9908 22.8099 35.1332 22.839 35.1465 22.8423C35.3246 22.8879 35.0388 22.8234 34.9981 22.8188C34.8436 22.8025 34.8257 22.8179 34.8769 22.8463C34.8993 22.8585 35.1846 22.915 35.0243 22.8864C35.0115 22.884 34.8614 22.849 34.8449 22.8472C34.8085 22.8435 34.833 22.8573 34.8206 22.858C34.7956 22.859 34.7965 22.8602 34.7935 22.8659C34.7864 22.8729 34.7116 22.8661 34.743 22.8825C34.7548 22.887 34.9042 22.9192 34.9312 22.9285C34.9569 22.9377 34.9422 22.9431 34.905 22.9373C34.8675 22.9314 34.7458 22.9013 34.7178 22.8952C34.4834 22.8444 34.8014 22.929 34.8138 22.9334C34.9457 22.988 34.7554 22.9628 34.7508 22.9834C34.748 22.9993 34.8047 23.0318 34.7925 23.0451C34.7764 23.0603 34.6908 23.0551 34.7004 23.0764C34.7096 23.0805 34.8716 23.1211 34.8837 23.1263C34.8983 23.157 34.8719 23.1784 34.743 23.1694C34.7274 23.1676 34.5723 23.1202 34.55 23.1165C34.4153 23.0955 34.0983 23.026 34.7828 23.236C34.753 23.2389 34.7206 23.2437 34.5801 23.2115C34.4893 23.1906 34.3205 23.1337 34.3909 23.1626C34.4084 23.1695 34.5533 23.211 34.5694 23.2184C34.6213 23.2456 34.5702 23.2425 34.6441 23.2771C34.6611 23.2848 34.7933 23.3256 34.8177 23.3339C35.0109 23.4007 34.6881 23.3091 34.6616 23.3026C34.4822 23.2612 34.547 23.2926 34.5384 23.3046C34.5388 23.308 34.7146 23.3626 34.7217 23.3682C34.742 23.3927 34.7208 23.4045 34.6363 23.3927C34.6149 23.389 34.466 23.3341 34.4491 23.33C34.3778 23.3127 34.6629 23.4142 34.5985 23.3995C34.5835 23.3958 34.4556 23.3495 34.4414 23.3447C34.2186 23.2701 34.5259 23.3839 34.5384 23.3898C34.629 23.438 34.2972 23.3268 34.3386 23.3555C34.3487 23.3607 34.5047 23.4152 34.5132 23.423C34.5162 23.4272 34.5193 23.4311 34.5209 23.4348C34.5368 23.4722 34.477 23.4837 34.3492 23.4612C34.3264 23.4567 34.2089 23.4048 34.1931 23.3986C33.9604 23.307 34.2646 23.4362 34.2804 23.4446C34.3601 23.4918 34.0959 23.39 34.4618 23.5572C34.3147 23.5494 34.4918 23.7013 34.1465 23.5846C34.1374 23.5805 33.9946 23.5058 33.9875 23.5033C33.8993 23.4733 34.1306 23.5903 34.4045 23.7491C34.471 23.7884 34.1315 23.6153 34.1068 23.6022C34.0152 23.5555 33.8007 23.4374 33.7799 23.427C33.64 23.3573 34.3603 23.7477 34.3551 23.7579C34.3491 23.755 34.2225 23.6834 34.2086 23.6767C34.1665 23.6564 34.2168 23.6876 34.1708 23.6649C34.0625 23.6117 33.7148 23.4174 33.9128 23.5376C33.9385 23.5534 34.3441 23.7817 34.3201 23.7795C34.3107 23.7789 34.3083 23.7973 34.2804 23.7863C34.2516 23.7749 34.1242 23.6963 34.1184 23.6933C33.9421 23.6022 33.8731 23.5562 33.6189 23.4093C33.3672 23.2626 33.9648 23.6201 34.0311 23.663C34.0954 23.7047 33.9513 23.6277 33.9021 23.5993C33.8529 23.5712 33.7735 23.5192 33.745 23.5033C33.5616 23.4011 34.0367 23.689 34.1291 23.7511C34.3453 23.8988 33.9058 23.6324 33.8575 23.6091C33.8678 23.617 33.9431 23.6647 33.9525 23.6728C33.9835 23.7026 33.8467 23.618 33.9651 23.707C33.9849 23.7213 34.2384 23.9013 34.0466 23.7785C34.0187 23.7604 33.9123 23.6872 33.8866 23.6737C33.8482 23.6537 33.8207 23.6442 33.8526 23.6728C33.8766 23.6942 34.0536 23.8115 33.9972 23.7785C33.9714 23.7632 33.8713 23.6884 33.8323 23.6659C33.7945 23.6441 33.7923 23.6544 33.7935 23.66C33.7949 23.6656 33.9261 23.7583 33.9361 23.7658C33.9828 23.8019 34.037 23.8515 34.0418 23.8569C34.0326 23.9024 33.8004 23.7604 33.8478 23.8431C33.8512 23.8496 33.9788 23.9571 33.9836 23.9616C34.0296 24.0148 33.6915 23.7153 33.5733 23.6209C33.8354 23.8455 33.7868 23.8076 33.8109 23.8373C33.8232 23.8521 33.9223 23.9373 33.9341 23.9479C34.0833 24.0862 33.8835 23.9156 33.8429 23.8804C33.6944 23.7524 33.8649 23.909 33.7663 23.8236C33.6679 23.7375 33.5256 23.6045 33.5238 23.6091C33.6144 23.6932 33.8575 23.9067 33.8934 23.946C34.0252 24.095 33.8125 23.9506 33.7847 23.9411C33.7565 23.9336 33.7679 23.953 33.7314 23.9274C33.6651 23.8798 33.8338 24.0495 33.9002 24.1379C33.9657 24.2266 33.5701 23.7878 33.4831 23.6953C33.3972 23.603 33.4838 23.6992 33.4365 23.6493C33.3888 23.5984 33.3316 23.533 33.3124 23.5151C33.2946 23.4981 33.4403 23.6694 33.5267 23.7697C33.7111 23.9822 33.91 24.2005 33.8323 24.131C33.8263 24.1252 33.727 24.008 33.7149 23.9979C33.6288 23.9258 33.6066 23.9256 33.5403 23.8676C33.5357 23.8635 33.5309 23.8587 33.5258 23.8539C33.5142 23.8428 33.408 23.7068 33.4006 23.6992C33.3248 23.6198 33.508 23.8459 33.6984 24.1075C33.4377 23.766 33.2746 23.5591 33.2678 23.5592C33.2666 23.5636 33.378 23.712 33.453 23.8196C33.4755 23.8522 33.3967 23.7509 33.4482 23.8226C33.6163 24.0582 33.8098 24.3172 33.7227 24.2211C33.7149 24.211 33.6278 24.0866 33.6208 24.0801C33.5761 24.0375 33.7475 24.2833 33.7556 24.324C33.761 24.3553 33.6412 24.214 33.615 24.1947C33.3529 23.7868 33.4069 23.8841 33.5801 24.1702C33.5665 24.1631 33.5684 24.1833 33.5384 24.1477C33.5273 24.134 33.4576 24.0152 33.4491 24.0018C33.3242 23.8015 33.4856 24.076 33.4928 24.0919C33.5402 24.2081 33.4074 24.0005 33.5103 24.2192C33.515 24.2288 33.6749 24.5222 33.5529 24.3093C33.5443 24.2936 33.4764 24.1586 33.4637 24.1506C33.4501 24.1428 33.3551 23.9916 33.4181 24.134C33.434 24.1691 33.5515 24.4149 33.4501 24.227C33.4364 24.2014 33.3937 24.115 33.3686 24.0674C33.2892 23.9156 33.4408 24.2202 33.3085 23.9626C33.1762 23.7052 33.0772 23.5126 33.1582 23.6953C33.1627 23.7051 33.276 23.9446 33.2716 23.942C33.2645 23.9369 33.2375 23.8923 33.2328 23.8921C33.2326 23.8962 33.3013 24.043 33.3037 24.0488C33.3288 24.1409 33.2559 24.0093 33.2164 23.9558C33.2154 23.9608 33.2886 24.154 33.2154 23.9959C33.1329 23.8157 32.8182 23.0549 32.8866 23.238C32.9153 23.3111 33.3033 24.2819 33.0912 23.7834C33.1239 23.915 33.0098 23.6626 33.0612 23.848C33.064 23.8578 33.1612 24.1272 33.1591 24.1281C33.1534 24.1217 33.1058 23.998 33.1 23.9881C33.0777 23.9529 33.1096 24.0648 33.0951 24.0507C33.0892 24.0439 33.0434 23.9141 33.0369 23.9068C33.0371 23.9175 33.0883 24.0721 33.0554 23.9939C33.0287 23.9307 32.9005 23.573 32.8817 23.5327C33.0049 23.8864 32.999 23.8808 33.0253 23.9763C33.0306 23.9955 33.074 24.1178 33.0786 24.133C33.098 24.1965 33.061 24.0958 33.0825 24.1653C33.0877 24.1821 33.1293 24.3033 33.1359 24.324C33.193 24.5031 33.0928 24.2329 33.0757 24.1859C33.0106 24.0081 33.0621 24.1656 33.035 24.0958C33.008 24.0259 32.9822 23.9359 32.9642 23.8941C32.927 23.8076 32.9247 23.8296 32.9157 23.8265C32.9144 23.8314 32.9662 23.9816 32.969 23.991C32.9766 24.0341 32.9137 23.8643 33.0175 24.1878C32.7363 23.356 33.0403 24.2685 32.9768 24.1066C32.9713 24.0924 32.8402 23.6982 32.8235 23.6395C32.8069 23.5808 32.851 23.7025 32.8245 23.6111C32.8171 23.5856 32.7004 23.2183 32.6936 23.1959C32.6404 23.0206 32.8347 23.6023 32.8478 23.6404C32.9674 23.9883 32.8414 23.59 32.8332 23.5611C32.7977 23.4329 32.831 23.5135 32.8061 23.4221C32.7904 23.3644 32.6668 22.9997 32.6654 22.9883C32.6867 23.0252 32.8747 23.5597 32.7217 23.0921C32.7033 23.036 32.6497 22.8786 32.6266 22.81C32.6119 22.7979 32.5964 22.7855 32.5811 22.7728C32.5828 22.7737 32.5844 22.775 32.5859 22.7758C32.5903 22.778 32.5952 22.7795 32.5995 22.7816C32.608 22.789 32.6166 22.7962 32.6247 22.8032L32.6266 22.8042C32.6361 22.8123 32.6449 22.821 32.6538 22.8286C32.6511 22.8196 32.6485 22.8105 32.646 22.8022C32.611 22.7676 32.5818 22.7391 32.5801 22.7376C32.572 22.7299 32.5644 22.7231 32.5578 22.717C32.5674 22.7209 32.5768 22.725 32.5859 22.7288C32.603 22.7468 32.6213 22.7676 32.6422 22.7895C32.6366 22.7698 32.6324 22.7594 32.6383 22.7718C32.6275 22.7604 32.6154 22.7483 32.6034 22.7356C32.6072 22.7372 32.6112 22.739 32.615 22.7405C32.6474 22.777 32.6848 22.8202 32.6887 22.8247C32.7158 22.8566 32.6879 22.8244 32.6412 22.7748C32.6416 22.7756 32.6417 22.7767 32.6422 22.7777C32.6436 22.781 32.647 22.7884 32.6509 22.7983C32.6613 22.8098 32.6855 22.8354 32.712 22.8629C32.7044 22.8435 32.6954 22.8219 32.6877 22.8022C32.6692 22.7791 32.6535 22.7603 32.6509 22.7572C32.6499 22.756 32.6489 22.7543 32.648 22.7532C32.6536 22.7555 32.6592 22.758 32.6645 22.7601C32.6691 22.7663 32.6736 22.7727 32.678 22.7787C32.6763 22.7742 32.6747 22.7698 32.6732 22.766C32.6725 22.7651 32.6719 22.7639 32.6713 22.763L32.6732 22.764V22.763L32.6713 22.7621C32.6474 22.7304 32.6227 22.6987 32.6014 22.671C32.5098 22.5531 32.5917 22.6629 32.6635 22.7591C32.6583 22.757 32.6526 22.7546 32.647 22.7523C32.5583 22.6511 32.5253 22.6298 32.5675 22.6876C32.5683 22.6886 32.5895 22.711 32.6131 22.7376C32.609 22.7359 32.6046 22.7344 32.6005 22.7327C32.5692 22.6997 32.5346 22.6652 32.5064 22.6367C32.4479 22.5775 32.44 22.5707 32.4996 22.6357C32.4517 22.6198 32.3814 22.5976 32.3715 22.5936C32.3608 22.5892 32.3539 22.5847 32.3483 22.5819C32.3515 22.5845 32.3551 22.5876 32.3589 22.5907L32.356 22.5897C32.3526 22.5869 32.3495 22.5835 32.3463 22.5809C32.3413 22.5782 32.3371 22.5769 32.3337 22.575C32.3224 22.5661 32.3142 22.5598 32.3143 22.5603C32.3165 22.5632 32.3205 22.5663 32.324 22.5701C32.3179 22.5669 32.3092 22.5626 32.294 22.5564C32.291 22.5553 32.2833 22.5521 32.2726 22.5486C32.2609 22.5398 32.2499 22.531 32.2406 22.5241C32.2784 22.5359 32.3173 22.5488 32.326 22.5515C32.5483 22.6189 32.2701 22.5306 32.2319 22.5182C32.2235 22.512 32.2176 22.507 32.2154 22.5055C32.2312 22.509 32.2449 22.5135 32.2299 22.5074C32.2174 22.5027 32.0704 22.4587 32.0573 22.4546C31.9302 22.4143 32.1927 22.495 32.2251 22.5035C32.3097 22.5252 32.2993 22.5168 32.2813 22.5074C32.2709 22.503 32.1062 22.4564 32.0971 22.4526C32.0694 22.4372 32.0879 22.4353 32.1853 22.4546C32.2046 22.4585 32.3358 22.4959 32.3677 22.5045C32.5821 22.562 32.2915 22.4775 32.2639 22.4693C32.1386 22.431 32.257 22.4617 32.2358 22.4526C32.1302 22.4086 32.2122 22.4119 32.2649 22.4085C32.3326 22.4045 32.4657 22.4181 32.4375 22.388C32.4306 22.385 32.2623 22.3464 32.2522 22.3429C32.2129 22.3179 32.2854 22.3187 32.2377 22.291C32.2299 22.288 32.062 22.2507 32.0505 22.246C32.0265 22.2361 32.0375 22.2332 32.0922 22.2411C32.1195 22.2451 32.2623 22.2805 32.2881 22.2842C32.3442 22.2915 32.358 22.2888 32.3318 22.2773C32.3183 22.2721 32.1501 22.2375 32.1436 22.2333C32.1306 22.2096 32.1049 22.1835 32.3357 22.2107C32.3515 22.2126 32.7078 22.2884 32.6402 22.2705C32.5416 22.2491 32.4255 22.2237 32.3201 22.2009C32.2705 22.1582 32.3977 22.1519 32.4249 22.1226C32.4144 22.1192 32.2379 22.0842 32.2377 22.0815C32.2435 22.0662 32.1955 22.0403 32.3861 22.0619C32.4057 22.0642 32.737 22.1329 32.6877 22.1177C32.6782 22.1147 32.6355 22.0979 32.5646 22.0815C32.5518 22.0786 32.3979 22.0485 32.3939 22.0452C32.3737 22.0267 32.4122 22.0198 32.5093 22.0247C32.5268 22.0259 32.6886 22.0606 32.7033 22.0619ZM7.47625 23.943C7.46854 23.9454 7.45886 24.0134 7.46558 24.0184C7.65273 24.0644 7.67344 23.9191 7.47625 23.943ZM32.8885 23.6179C32.8499 23.5108 32.8878 23.6375 32.936 23.7717C32.9751 23.8798 32.9371 23.7523 32.8885 23.6179ZM32.7586 23.0842C32.819 23.2422 32.7262 22.9801 32.7983 23.1724C32.8716 23.3662 32.9765 23.6636 33.0282 23.7873C32.9156 23.4816 32.8003 23.1678 32.6868 22.86C32.6808 22.855 32.6747 22.8495 32.6683 22.8443C32.698 22.9226 32.7437 23.0455 32.7586 23.0842ZM33.5461 23.6688C33.5519 23.6742 33.5595 23.6762 33.5539 23.6708C33.418 23.5397 33.4031 23.5338 33.5461 23.6688ZM34.0069 23.5004C34.0219 23.5079 34.0399 23.5067 34.0263 23.4994C33.7524 23.3568 33.7165 23.3561 34.0069 23.5004ZM33.6121 23.4514C33.6196 23.4562 33.6279 23.4587 33.5859 23.4319C33.4501 23.3451 33.4865 23.3717 33.6121 23.4514ZM32.7392 22.8208C32.8371 23.0143 32.7825 22.9075 32.7906 22.9236C32.7918 22.9262 32.7941 22.929 32.7954 22.9315C32.9048 23.1515 32.8867 23.1142 32.8973 23.1322C32.7135 22.7657 32.6869 22.7207 32.8652 23.0597C32.9491 23.2185 33.0453 23.4039 33.0136 23.3339C32.998 23.3004 32.8628 23.0485 32.8264 22.9794C32.7425 22.8226 32.8724 23.0566 32.8536 23.0186L32.7673 22.8678C32.7658 22.8654 32.7534 22.8437 32.7382 22.8179C32.7386 22.8188 32.7387 22.8199 32.7392 22.8208ZM13.4064 23.2977C13.4065 23.2942 13.4074 23.2905 13.4074 23.2869C13.4083 23.2829 13.4019 23.2751 13.3919 23.2673C13.3977 23.2787 13.4024 23.2896 13.4064 23.2977ZM32.7789 22.9344C32.7797 22.9351 32.7801 22.9366 32.7809 22.9373C32.7804 22.9369 32.7797 22.9361 32.7789 22.9354C32.8282 23.0456 32.8724 23.1457 32.8769 23.1518C32.8743 23.1451 32.8132 23.0073 32.7634 22.8952C32.7622 22.8937 32.76 22.8914 32.7576 22.8884C32.7645 22.9038 32.7721 22.9191 32.7789 22.9344ZM32.6616 22.9011C32.669 22.9219 32.7796 23.2222 32.7149 23.0304C32.7067 23.0063 32.6643 22.8855 32.6606 22.8737C32.6396 22.8065 32.6755 22.9026 32.6616 22.8551C32.6596 22.8483 32.6579 22.8409 32.6557 22.8335C32.6471 22.8264 32.6377 22.8195 32.6286 22.812C32.636 22.8317 32.6468 22.8608 32.6616 22.9011ZM13.419 22.908C13.3981 22.9349 13.4412 22.9617 13.4607 22.9971C13.564 23.0062 13.6732 23.0289 13.6877 23.0216C13.7732 22.9667 13.5967 22.9299 13.4064 22.8884C13.4105 22.8949 13.4151 22.9014 13.419 22.908ZM32.8255 23.0059C32.8536 23.0615 32.8258 23.0049 32.7828 22.9158C32.7805 22.911 32.7784 22.906 32.776 22.9011L32.775 22.9001C32.796 22.9437 32.8229 23.0006 32.8255 23.0059ZM32.7721 22.9099C32.7965 22.9598 32.8389 23.048 32.7896 22.9383C32.7864 22.9311 32.7803 22.9138 32.7712 22.8942C32.7671 22.8889 32.7624 22.883 32.7576 22.8766C32.765 22.8927 32.7698 22.9052 32.7721 22.9099ZM32.7333 22.9207C32.7333 22.92 32.728 22.9063 32.7207 22.8874C32.7144 22.8821 32.7074 22.8766 32.7004 22.8707C32.7155 22.8987 32.732 22.9288 32.7333 22.9207ZM32.7527 22.8796C32.7562 22.8843 32.7598 22.8885 32.7624 22.8923C32.7588 22.8842 32.7543 22.8766 32.7508 22.8688C32.7488 22.8661 32.7471 22.8628 32.745 22.86C32.7478 22.8663 32.7499 22.8732 32.7527 22.8796ZM32.6887 22.7376C32.7011 22.7607 32.7193 22.7962 32.7198 22.7993C32.7192 22.7986 32.7168 22.7946 32.713 22.7895C32.7183 22.8015 32.7238 22.814 32.7295 22.8267C32.7328 22.8317 32.7358 22.8373 32.7392 22.8423C32.7279 22.8171 32.7191 22.7946 32.712 22.7787L32.713 22.7797C32.7236 22.8031 32.7357 22.8287 32.7459 22.8512C32.7524 22.8607 32.7576 22.8709 32.7634 22.8796C32.7309 22.8099 32.6893 22.7234 32.7518 22.8531L32.7692 22.8884C32.7539 22.8568 32.7372 22.8224 32.7207 22.7885C32.706 22.7635 32.6921 22.7389 32.6848 22.7268C32.6863 22.7302 32.6872 22.734 32.6887 22.7376ZM32.6974 22.8659C32.7051 22.8724 32.7128 22.8785 32.7198 22.8845C32.7179 22.8796 32.716 22.8742 32.7139 22.8688C32.7031 22.8581 32.6914 22.8468 32.68 22.8355C32.6846 22.8424 32.6908 22.8537 32.6974 22.8659ZM32.7353 22.8551C32.7363 22.8564 32.7382 22.8579 32.7392 22.859C32.7369 22.8539 32.7346 22.8486 32.7324 22.8433C32.7314 22.8421 32.7304 22.8407 32.7295 22.8394C32.7316 22.8444 32.733 22.8499 32.7353 22.8551ZM32.6654 22.8384C32.6723 22.8443 32.6794 22.8496 32.6858 22.8551C32.683 22.8475 32.6799 22.8401 32.6771 22.8326C32.6699 22.8254 32.6628 22.818 32.6557 22.811C32.6588 22.819 32.6617 22.8285 32.6654 22.8384ZM32.7004 22.7748L32.7091 22.7953C32.7113 22.7988 32.7135 22.8025 32.7159 22.8061C32.7123 22.7978 32.7097 22.7889 32.7062 22.7807C32.7047 22.7787 32.7028 22.7768 32.7013 22.7748C32.6992 22.7738 32.6968 22.7728 32.6945 22.7718C32.6965 22.7726 32.6985 22.774 32.7004 22.7748ZM32.6005 22.7807C32.6079 22.7845 32.6152 22.7875 32.6208 22.7904V22.7914L32.6218 22.7924H32.6208C32.6143 22.7892 32.6069 22.7854 32.5995 22.7816C32.5973 22.7797 32.5949 22.7777 32.5927 22.7758C32.5955 22.7772 32.598 22.7793 32.6005 22.7807ZM32.4967 22.6925C32.536 22.7262 32.5715 22.7586 32.5869 22.7718C32.5885 22.7733 32.591 22.7744 32.5927 22.7758C32.5869 22.7728 32.5803 22.7695 32.5733 22.766C32.539 22.7378 32.5038 22.7093 32.4715 22.6827C32.4799 22.6862 32.4885 22.6892 32.4967 22.6925ZM32.5733 22.766C32.5759 22.7681 32.5784 22.7707 32.5811 22.7728C32.5463 22.7552 32.4696 22.7144 32.4045 22.6808L32.5733 22.766ZM22.2066 10.3784C22.3124 10.2408 22.4162 10.2763 22.5005 10.5723C22.5863 10.5297 22.7183 10.6586 22.7896 10.7388C22.8597 10.8175 22.8719 10.4868 22.8788 10.4724C23.0887 10.259 23.2103 10.4586 23.4239 10.5096C23.5265 10.5339 23.7434 10.5141 23.8691 10.5008C23.9684 10.4895 24.0089 10.5789 24.1067 10.5498C24.1201 10.5412 24.1424 10.3979 24.1475 10.3912C24.2921 10.2401 24.1543 10.5883 24.1581 10.6575C24.1707 10.9098 24.1722 11.0426 24.3211 10.9709C24.3537 10.9516 24.605 10.4748 24.6751 10.4675C24.7616 10.4585 24.6675 10.6261 24.7585 10.6125C24.7668 10.61 24.8091 10.5009 24.8546 10.5253C24.9543 10.5785 25.054 10.6483 25.1533 10.7202C25.1999 10.7669 25.2569 10.813 25.325 10.8397C25.3427 10.8455 25.4023 10.6684 25.4288 10.6761C25.5534 10.7125 25.6924 10.7863 25.7886 10.9307C25.8117 10.967 25.7343 11.0753 25.7246 11.1138C25.6662 11.3461 25.8777 11.071 25.8924 11.0698C26.2228 11.0527 26.2863 11.4341 26.6499 11.4889C26.6698 11.4878 26.9962 11.2677 26.8798 11.5682C26.8713 11.5928 26.7456 11.8883 26.9186 11.7455C26.9301 11.7359 26.9907 11.5759 27.0427 11.6348C27.0938 11.6926 27.265 11.6859 27.2357 11.8982C27.2281 11.9667 27.0767 12.2583 27.323 12.1391C27.3369 12.124 27.8646 11.8356 27.6286 12.1646C27.5888 12.2191 27.2796 12.5006 27.5228 12.4486C27.5707 12.4393 27.6091 12.3407 27.6984 12.3536C27.8381 12.3765 27.8406 12.5577 28.0738 12.5641C28.1149 12.5623 28.414 12.4979 28.2813 12.6934C28.26 12.7233 28.1286 12.7766 28.1388 12.8236C28.1853 13.0437 28.3711 13.2101 28.3599 13.4543C28.3547 13.5384 28.1293 13.5813 28.0961 13.6707C28.0637 13.7616 28.0466 13.9098 28.164 13.9586C28.2824 14.0096 28.614 13.8406 28.6693 13.9586C28.7674 14.1767 28.7868 14.4029 28.7682 14.6205C28.737 14.8019 28.662 14.9837 28.648 15.164C28.6453 15.209 28.7717 15.1689 28.776 15.2355C28.7914 15.4822 28.9152 15.916 28.6392 16.1315C28.4185 16.3034 28.2534 16.0852 28.163 16.2157C28.1208 16.2781 28.538 16.3512 28.551 16.3675C28.6822 16.5215 28.4941 16.6235 28.5471 16.7612C28.5585 16.7895 28.7288 16.7673 28.7362 16.7915C28.763 16.8753 28.6851 16.9603 28.6955 17.0393C28.7008 17.0753 28.83 17.0751 28.8187 17.1078C28.7928 17.1863 28.7351 17.2521 28.6101 17.3233C28.5987 17.3296 28.4398 17.2743 28.4307 17.3321C28.4162 17.4254 28.2896 17.5339 28.4055 17.6504C28.4418 17.6848 28.7352 17.7079 28.5267 17.763C28.4828 17.7745 28.1298 17.7273 28.4297 17.8325C28.4807 17.8492 28.8806 18.0251 28.6092 18.0695C28.5375 18.0812 28.2433 18.0971 28.2842 18.141C28.293 18.1469 28.4515 18.1418 28.4637 18.1762C28.5037 18.2976 28.473 18.4188 28.5073 18.5454C28.5173 18.5792 28.6868 18.5521 28.6955 18.6032C28.7193 18.7447 28.6534 18.9101 28.5801 19.037C28.5528 19.0838 28.4251 19.0267 28.4084 19.0272C28.1606 19.0437 28.4756 19.1342 28.4908 19.1574C28.5804 19.3011 28.4129 19.3645 28.4278 19.4884C28.4325 19.5222 28.5883 19.533 28.6004 19.5423C28.7172 19.6381 28.4577 19.5293 28.4171 19.5628C28.3057 19.662 28.2849 19.7959 28.2697 19.9242C28.2641 19.9723 28.4518 19.9703 28.4443 20.0143C28.403 20.2723 28.2911 20.5517 28.067 20.7957C28.0247 20.8409 27.9163 20.7479 27.8817 20.7438C27.65 20.7147 27.8579 20.9686 27.8662 21.0121C27.9068 21.2066 27.7706 21.193 27.7071 21.3255C27.6929 21.3548 27.6772 21.3841 27.6606 21.4136C27.5163 21.765 26.9712 22.3267 26.261 22.5936C25.9474 22.716 25.6297 22.7629 25.355 22.765C24.8079 22.7651 24.4338 22.6391 24.0505 22.5593C24.0132 22.5509 23.9988 22.7399 23.9661 22.7356C23.5398 22.6573 23.2296 22.4376 22.8972 22.3273C22.8701 22.3178 22.8268 22.4927 22.7799 22.4839C22.6817 22.4631 22.5798 22.3962 22.5257 22.3008C22.4992 22.2545 22.6254 22.1528 22.5985 22.1089C22.5353 22.0074 22.4484 21.9406 22.3453 21.9101C22.3019 21.8989 22.2642 22.0869 22.2144 22.0589C21.8698 21.8655 21.542 21.6728 21.3832 21.2628C21.372 21.2344 21.5711 20.9271 21.4889 20.9514C21.4251 21.0305 21.3534 21.1268 21.2871 21.2129C20.8285 20.9378 20.5155 20.5104 20.1465 20.1592C20.1302 20.1457 20.0323 20.3151 20.001 20.2875C19.8222 20.1258 19.6118 20.008 19.5616 19.6989C19.5567 19.6687 19.7947 19.4252 19.7091 19.415C19.6929 19.4132 19.5853 19.3745 19.5151 19.4091C19.5047 19.4147 19.4109 19.5445 19.3822 19.5246C19.2211 19.406 19.0936 19.2339 19.0185 19.0252C19.0064 18.9912 19.1478 18.892 19.1407 18.8666C19.0884 18.6905 18.8724 18.6583 18.873 18.4416C18.8734 18.3014 19.0858 18.127 19.2483 17.8981C19.1306 17.8732 18.7203 17.9064 19.0563 17.7855C19.0794 17.7763 19.3942 17.6908 19.195 17.6396C19.1696 17.6331 19.0419 17.6324 19.0301 17.6239C18.9615 17.5655 19.0636 17.529 19.0175 17.4653C18.9703 17.4011 18.9007 17.3199 18.9486 17.2489C18.97 17.2171 19.107 17.1861 19.2018 17.1676C19.2049 17.1522 19.2062 17.1064 19.2105 17.0912C19.2443 17.0885 19.2733 17.0855 19.2891 17.0834C19.4618 17.0607 19.197 16.9694 19.4026 16.9698C19.5942 16.9699 19.8646 17.0561 20.0175 17.0227C20.0219 17.0183 20.0267 17.0143 20.0311 17.0099C19.7085 16.9595 19.3782 16.9051 19.0544 16.8532C19.0902 16.6865 19.2187 16.5357 19.2241 16.3675C19.2215 16.3472 19.0445 16.3459 19.0398 16.3235C19.0226 16.2285 19.1583 16.1623 19.1174 16.062C19.0848 15.9843 18.9029 15.887 18.8613 15.8084C19.2457 15.7952 19.1259 15.6696 19.1659 15.59C19.1799 15.5619 19.2816 15.5704 19.3162 15.5518C19.4432 15.4809 19.1068 15.4966 19.0534 15.4725C18.975 15.4354 19.0201 15.4169 19.1106 15.402C19.1145 15.3817 19.1148 15.3191 19.1203 15.2992C19.2855 15.296 19.5998 15.3085 19.5946 15.2424C19.5829 15.2335 19.1969 15.1333 19.1707 15.1229C19.0111 15.0543 19.3115 15.1261 19.3453 15.0935C19.4054 15.0316 19.5061 14.9897 19.3929 14.8987C19.3591 14.8723 19.1088 14.7987 19.3075 14.7616C19.3343 14.7567 19.4681 14.7673 19.4763 14.7625C19.6111 14.6754 19.19 14.6495 19.0495 14.5873C18.9093 14.5243 19.206 14.4518 19.291 14.4384C19.5088 14.4039 19.3836 14.478 19.4026 14.4825C19.6542 14.5255 19.6154 14.461 19.6392 14.4129C20.0535 14.4292 20.0324 14.36 19.6625 14.363C19.6223 14.3636 19.6583 14.404 19.6392 14.4129C19.2352 14.3477 19.1875 14.2643 19.5723 14.2034C19.7528 14.1752 19.9575 14.2271 19.8904 14.1015C19.8603 14.0442 19.5748 14.0432 19.5005 13.987C19.3327 13.8559 19.6117 13.7267 19.5859 13.5992C19.5765 13.552 19.4165 13.5758 19.4045 13.5424C19.3735 13.4521 19.5005 13.3931 19.4559 13.2966C19.4498 13.2876 19.2866 13.28 19.2891 13.2516C19.3079 13.0328 19.4519 12.8606 19.5316 12.619C19.5684 12.5028 19.5701 12.2476 19.6557 12.1186C19.7984 11.8921 20.1809 11.7562 20.3017 11.5535C20.3848 11.4166 20.251 11.3204 20.2328 11.1853C20.2103 10.9107 20.6655 11.0739 20.7139 11.1187C20.7121 11.1227 20.6207 11.2285 20.7265 11.2588C20.8518 11.3828 20.7176 11.1312 20.7139 11.1187C20.7538 11.1356 21.008 11.0434 21.0447 10.9983C21.064 10.9704 20.9904 10.8328 21.003 10.8211C21.1542 10.6822 21.3267 10.5848 21.5054 10.5322C21.6182 10.4925 21.7388 10.4811 21.8623 10.4999C21.8673 10.5072 21.885 10.6773 21.8953 10.681C22.04 10.7386 22.1003 10.5165 22.2066 10.3784ZM32.6713 22.7621V22.763C32.6691 22.7621 32.6667 22.761 32.6645 22.7601L32.6635 22.7591C32.666 22.7602 32.6688 22.7611 32.6713 22.7621ZM32.647 22.7523L32.648 22.7532C32.6376 22.7491 32.6263 22.7451 32.615 22.7405C32.6143 22.7396 32.6138 22.7384 32.6131 22.7376C32.6249 22.7424 32.6363 22.7478 32.647 22.7523ZM32.5432 22.7111C32.5588 22.7276 32.574 22.7455 32.5801 22.7523C32.5897 22.7635 32.5521 22.7319 32.5229 22.7092C32.4997 22.6912 32.558 22.744 32.519 22.7121C32.5173 22.7107 32.5097 22.7031 32.4986 22.6935C32.5138 22.6997 32.529 22.7053 32.5432 22.7111ZM32.6005 22.7327C32.6014 22.7336 32.6024 22.7347 32.6034 22.7356C32.5978 22.7333 32.5917 22.7311 32.5859 22.7288C32.585 22.7278 32.5839 22.7268 32.583 22.7258C32.5888 22.7282 32.5948 22.7304 32.6005 22.7327ZM32.517 22.6553C32.5347 22.6744 32.5565 22.6979 32.583 22.7258C32.5731 22.7218 32.563 22.7172 32.5529 22.7131C32.4785 22.644 32.5076 22.6735 32.5403 22.7082C32.5139 22.6974 32.4875 22.6865 32.4637 22.6769C32.4436 22.6604 32.4245 22.6448 32.4074 22.6308C32.4325 22.6399 32.4527 22.6478 32.4559 22.6485C32.467 22.6499 32.5787 22.6855 32.4637 22.6416C32.4529 22.6375 32.4205 22.6238 32.3851 22.6112C32.3842 22.6106 32.3831 22.61 32.3822 22.6093C32.4225 22.6231 32.4817 22.6432 32.517 22.6553ZM32.4026 22.6808C32.4269 22.6947 32.45 22.7088 32.4695 22.7199C32.4529 22.7105 32.4269 22.6948 32.3987 22.6788C32.3999 22.6794 32.4014 22.6801 32.4026 22.6808ZM32.4637 22.6769C32.4661 22.6789 32.469 22.6807 32.4715 22.6827C32.4454 22.6721 32.4177 22.661 32.389 22.6494C32.3848 22.6465 32.3799 22.6438 32.3754 22.6406C32.391 22.6469 32.424 22.6607 32.4637 22.6769ZM32.2522 22.5848C32.2651 22.5926 32.2815 22.6032 32.2978 22.6132C32.2939 22.6117 32.2901 22.6098 32.2862 22.6083C32.2911 22.6117 32.296 22.6166 32.3017 22.6201C32.3185 22.6303 32.3607 22.6551 32.4006 22.6788C32.3959 22.6764 32.3908 22.6743 32.3861 22.672C32.3587 22.656 32.3064 22.626 32.2552 22.5966C32.2641 22.6001 32.2741 22.6033 32.2843 22.6073C32.269 22.5981 32.2571 22.5898 32.2474 22.5838C32.2488 22.5844 32.2508 22.5843 32.2522 22.5848ZM32.2552 22.5966C32.2852 22.6138 32.3358 22.6437 32.3851 22.672L32.3832 22.671C32.3542 22.6545 32.3242 22.6371 32.3007 22.624C32.2431 22.5921 32.2805 22.6125 32.2396 22.5907C32.2445 22.5926 32.2499 22.5945 32.2552 22.5966ZM32.389 22.6494C32.4016 22.6583 32.4121 22.6669 32.4191 22.672C32.4073 22.6637 32.3947 22.6555 32.3832 22.6475C32.385 22.6482 32.3872 22.6487 32.389 22.6494ZM32.4996 22.6367C32.5048 22.6424 32.5108 22.6486 32.517 22.6553C32.5643 22.6716 32.5689 22.6733 32.4297 22.624C32.4209 22.6208 32.4007 22.6133 32.3754 22.6044C32.3695 22.5996 32.364 22.5948 32.3589 22.5907C32.4083 22.607 32.462 22.6245 32.4996 22.6367ZM32.3037 22.6152C32.3777 22.6612 32.5115 22.7446 32.3657 22.6553C32.3594 22.6515 32.3287 22.6322 32.2978 22.6132C32.2997 22.6139 32.3018 22.6145 32.3037 22.6152ZM32.3657 22.6367C32.371 22.6404 32.3774 22.6435 32.3832 22.6475C32.3693 22.6419 32.355 22.6356 32.3405 22.6299C32.3363 22.6265 32.3313 22.6224 32.326 22.6181C32.332 22.6212 32.344 22.6277 32.3657 22.6367ZM32.356 22.6259C32.3628 22.6307 32.3691 22.6361 32.3754 22.6406L32.3657 22.6367C32.2945 22.6071 32.3231 22.6151 32.3492 22.624C32.3514 22.6247 32.3539 22.6252 32.356 22.6259ZM32.3851 22.6112C32.3923 22.6171 32.3994 22.6243 32.4074 22.6308C32.4052 22.63 32.4029 22.6287 32.4006 22.6279C32.3951 22.6233 32.3881 22.6167 32.3803 22.6103C32.3817 22.6108 32.3836 22.6108 32.3851 22.6112ZM32.2251 22.5858L32.2998 22.6289C32.271 22.6144 32.2443 22.6008 32.2222 22.5897C32.1899 22.5751 32.1507 22.558 32.1494 22.5574C32.1391 22.5518 32.0512 22.5167 32.2251 22.5858ZM32.3754 22.6083C32.3856 22.6165 32.3952 22.6235 32.4006 22.6279C32.3886 22.6235 32.3755 22.6188 32.3628 22.6142C32.3591 22.61 32.354 22.6044 32.3483 22.5985C32.3571 22.6016 32.3664 22.6051 32.3754 22.6083ZM32.3415 22.6201C32.3436 22.6215 32.3467 22.6223 32.3492 22.624C32.3393 22.6206 32.329 22.6172 32.324 22.6161C32.3207 22.6135 32.3168 22.6109 32.3134 22.6083C32.3239 22.6123 32.3335 22.617 32.3415 22.6201ZM32.3163 22.5975C32.3281 22.6059 32.3407 22.6152 32.3531 22.624C32.3499 22.6228 32.3457 22.6217 32.3415 22.6201C32.3322 22.6137 32.3258 22.6097 32.325 22.6093C32.3077 22.5986 32.2966 22.5914 32.2901 22.5877C32.2945 22.5893 32.3041 22.5931 32.3163 22.5975ZM32.3628 22.6142C32.368 22.6199 32.3712 22.6222 32.3677 22.621C32.3666 22.6203 32.3629 22.6167 32.357 22.6122C32.3588 22.6129 32.361 22.6135 32.3628 22.6142ZM32.2241 22.5652C32.0387 22.4485 32.2919 22.6047 32.3143 22.6191C32.3109 22.6177 32.3071 22.6165 32.3037 22.6152C32.2835 22.6026 32.2672 22.5934 32.2629 22.5907C32.2609 22.5894 32.259 22.588 32.2571 22.5868C32.2556 22.586 32.2538 22.5854 32.2522 22.5848C32.2403 22.5776 32.231 22.5727 32.228 22.5711C32.2199 22.5665 32.1891 22.5481 32.2474 22.5838C32.2165 22.572 32.1903 22.562 32.1863 22.5603C32.1719 22.5543 32.1858 22.5587 32.1999 22.5633C32.2117 22.5671 32.223 22.5709 32.2173 22.5682C32.2117 22.5657 32.1784 22.5527 32.1485 22.5417C32.1515 22.5435 32.1535 22.5456 32.1553 22.5466C32.1988 22.5703 32.2248 22.5828 32.2396 22.5907C32.2348 22.5888 32.2296 22.5876 32.2251 22.5858C32.2095 22.5772 32.1745 22.5582 32.1407 22.5398C32.1196 22.532 32.1016 22.5252 32.099 22.5241C32.116 22.5294 32.1528 22.5406 32.2241 22.5652ZM32.3201 22.5848C32.3349 22.5959 32.3482 22.6057 32.357 22.6122C32.3423 22.6069 32.3279 22.6018 32.3163 22.5975C32.3001 22.5861 32.2855 22.5754 32.2755 22.5682C32.2903 22.5734 32.3054 22.5796 32.3201 22.5848ZM32.3774 22.6073C32.3784 22.6082 32.3793 22.6094 32.3803 22.6103C32.3787 22.6097 32.377 22.6089 32.3754 22.6083L32.3735 22.6063C32.3746 22.6067 32.3762 22.607 32.3774 22.6073ZM32.3754 22.6044C32.3775 22.6061 32.38 22.6075 32.3822 22.6093C32.3806 22.6087 32.3789 22.6079 32.3774 22.6073C32.3755 22.6058 32.3735 22.604 32.3715 22.6024C32.3728 22.6029 32.3742 22.6039 32.3754 22.6044ZM32.2852 22.5868C32.29 22.5911 32.3015 22.5994 32.3134 22.6083C32.301 22.6036 32.2871 22.5988 32.2736 22.5936C32.2616 22.5862 32.2482 22.5774 32.2348 22.5691C32.25 22.5744 32.2669 22.5804 32.2852 22.5868ZM32.3667 22.6005C32.369 22.6023 32.3713 22.6045 32.3735 22.6063C32.3631 22.6028 32.3543 22.5996 32.3483 22.5975C32.3467 22.596 32.345 22.5943 32.3434 22.5926C32.3513 22.5954 32.3594 22.5979 32.3667 22.6005ZM32.356 22.5897C32.361 22.5938 32.3664 22.5982 32.3715 22.6024C32.37 22.6019 32.3683 22.601 32.3667 22.6005C32.3611 22.596 32.3547 22.5921 32.3492 22.5877C32.3514 22.5885 32.3539 22.589 32.356 22.5897ZM32.3347 22.5828C32.3377 22.5859 32.3404 22.5896 32.3434 22.5926C32.3359 22.59 32.3279 22.5876 32.3201 22.5848C32.3152 22.5811 32.3099 22.577 32.3046 22.5731C32.3141 22.5762 32.3243 22.5794 32.3347 22.5828ZM32.3337 22.575C32.3384 22.5788 32.3437 22.5833 32.3492 22.5877C32.3444 22.5861 32.3394 22.5844 32.3347 22.5828C32.3307 22.5787 32.3274 22.5738 32.324 22.5701C32.3276 22.572 32.3308 22.5733 32.3337 22.575ZM32.2726 22.5486C32.2831 22.5565 32.294 22.5651 32.3046 22.5731C32.2886 22.5677 32.2738 22.5633 32.2619 22.5593C32.2521 22.5515 32.2449 22.5428 32.2377 22.5368C32.2508 22.5411 32.263 22.5454 32.2726 22.5486ZM32.2435 22.5535C32.2484 22.5551 32.2549 22.557 32.2619 22.5593L32.2629 22.5603C32.2652 22.5621 32.2704 22.5644 32.2755 22.5682C32.1745 22.5324 32.0892 22.5021 32.2435 22.5535ZM32.163 22.5006C32.1694 22.5021 32.1892 22.5081 32.2125 22.5153C32.2179 22.5207 32.2264 22.5274 32.2377 22.5368C32.1873 22.5205 32.1205 22.4997 32.1106 22.4957C32.0724 22.4799 32.1129 22.4889 32.163 22.5006ZM32.228 22.5172C32.2287 22.5175 32.2304 22.5178 32.2319 22.5182C32.2344 22.5201 32.2376 22.5219 32.2406 22.5241C32.2311 22.5211 32.2214 22.518 32.2125 22.5153C32.2093 22.5121 32.2062 22.5104 32.2047 22.5084C32.2106 22.5106 32.2183 22.5139 32.228 22.5172ZM32.2037 22.5045C32.2021 22.5048 32.2022 22.505 32.2047 22.5084C32.1786 22.4989 32.1883 22.5011 32.2037 22.5045ZM33.5684 22.2098C33.5762 22.2112 33.5846 22.2094 33.5772 22.2078C33.3929 22.1687 33.3765 22.1724 33.5684 22.2098ZM13.8768 20.7223C13.868 20.7236 13.8589 20.776 13.9089 20.7761C14.0701 20.7764 14.0262 20.7021 13.8768 20.7223ZM22.1708 11.5868C22.1264 11.5654 22.0467 11.8053 22.0534 11.9394C22.066 12.2229 22.1528 12.5082 22.0447 12.4202C22.0384 12.4099 22.0317 12.2585 22.0088 12.2459C21.9453 12.2146 21.8815 12.1976 21.8187 12.1861C21.7077 12.1624 21.6042 12.1653 21.4772 12.1479C21.4507 12.1439 21.3952 11.98 21.3773 11.9756C21.1842 11.9521 21.3669 12.1881 21.4937 12.4907C21.2704 12.1227 21.0841 11.9223 20.97 12.0148C20.9062 12.0691 21.0437 12.2003 21.1058 12.3252C21.1248 12.3608 20.9995 12.3083 21.0582 12.3741C21.2571 12.5861 21.5211 12.7724 21.3783 12.7463C21.3692 12.7434 21.2556 12.6406 21.2386 12.6434C21.1349 12.68 21.3802 12.8564 21.3764 12.9402C21.3738 13.0032 21.1561 13.0483 21.098 13.1331C20.6409 12.9783 20.7128 13.121 21.0253 13.2418C20.996 13.2994 20.999 13.3707 20.9418 13.4239C20.9225 13.4422 20.7913 13.4017 20.7731 13.4004C20.5323 13.3988 20.8444 13.4906 20.8546 13.5062C20.9485 13.6791 20.6906 13.7802 20.9127 13.9596C20.9244 13.9665 21.2513 14.0066 21.0068 14.0242C20.9898 14.0256 20.8428 13.9602 20.8245 14.032C20.8063 14.1031 20.6169 14.2313 20.7653 14.3454C20.8016 14.3734 21.0677 14.4522 20.8536 14.4913C20.8244 14.4965 20.729 14.4834 20.6751 14.4903C20.5036 14.5131 20.8395 14.5495 20.551 14.5716C20.2622 14.594 20.0437 14.6614 20.2357 14.7782C20.2454 14.7824 20.5052 14.8218 20.5015 14.8546C20.4915 14.9085 20.4319 14.9801 20.4297 15.0367C20.4291 15.0635 20.5958 15.0583 20.5985 15.0632C20.6673 15.2252 20.5598 15.3389 20.4705 15.4823C20.4582 15.5006 20.4462 15.526 20.4355 15.5528C20.423 15.5872 20.6401 15.7045 20.4569 15.7604C20.2548 15.8204 19.4479 15.6834 19.6276 15.8613C19.701 15.931 20.7237 16.1183 20.1775 16.1893C20.285 16.4441 19.9847 16.6305 20.1397 16.8954C20.1404 16.8957 20.1421 16.8955 20.1436 16.8963C20.2006 16.8387 20.2583 16.7818 20.3133 16.723C20.3794 16.6525 20.2493 16.6688 20.4472 16.5369C20.461 16.5282 20.5571 16.5137 20.6227 16.4674C20.6685 16.4349 20.7757 16.3013 20.839 16.2657C20.9019 16.2305 20.818 16.347 20.8992 16.3117C20.9811 16.275 21.1066 16.1273 21.1688 16.157C21.3136 16.2282 21.4158 16.4064 21.4734 16.5683C21.4906 16.6183 21.4016 16.6781 21.4103 16.7161C21.4282 16.7905 21.506 16.7947 21.519 16.8748C21.521 16.9024 21.3899 17.0049 21.3958 17.0305C21.4335 17.1687 21.5459 17.2168 21.6121 17.3272C21.9359 17.8691 22.3438 18.3118 22.7673 18.7442C22.9053 18.8858 23.008 19.1541 23.2105 19.2172C23.2345 19.2235 23.3076 19.0962 23.3182 19.0889C23.4803 18.9766 23.2914 19.2064 23.3056 19.2651C23.366 19.4983 23.5277 19.6217 23.7023 19.6627C23.7755 19.6782 23.866 19.3915 23.8429 19.5697C23.8401 19.5835 23.7462 19.7068 23.7547 19.7313C23.775 19.7873 23.8597 19.8047 23.8846 19.8331C23.9304 19.8874 23.94 19.8912 23.9933 19.9222C24.066 19.9662 24.1212 20.0815 24.2154 20.0867C24.2355 20.0858 24.2807 19.9324 24.3182 19.9193C24.3563 19.9074 24.4165 19.9485 24.4249 19.9927C24.4333 20.0375 24.3755 20.1502 24.3686 20.1788C24.3138 20.421 24.52 20.1381 24.5306 20.1328C24.7535 20.0633 24.8396 20.2802 24.971 20.2894C25.0121 20.2915 25.0494 20.2765 25.0738 20.2601C25.1074 20.2396 25.1258 20.2177 25.1484 20.214C25.1934 20.2093 25.301 20.2476 25.3803 20.1494C25.3876 20.139 25.2469 20.0137 25.2551 20.0025C25.3057 19.9339 25.3787 19.8466 25.4831 19.7538C25.5191 19.7401 25.5801 19.7091 25.6596 19.6666C25.6802 19.6577 25.8156 19.7497 25.8449 19.743C26.0177 19.7037 26.4129 19.5514 25.7479 19.2671C25.8009 19.1867 25.8568 19.0833 26.0175 19.0262C26.1207 18.99 26.2834 19.0851 26.2251 18.9968C26.2119 18.9769 26.0543 18.964 26.0456 18.9371C26.011 18.8242 26.0813 18.7217 26.0185 18.6051C26.005 18.5814 25.8655 18.5642 25.841 18.5542C25.647 18.4736 25.9942 18.445 26.0214 18.4289C26.2225 18.3167 26.1642 18.201 26.1834 18.0685C26.1878 18.0381 25.9975 18.053 25.9942 18.0234C25.9839 17.8678 26.0137 17.7114 26.1087 17.5652C26.1308 17.533 26.2867 17.5757 26.3066 17.5612C26.3858 17.4941 26.0853 17.4573 26.1543 17.3928C26.1691 17.3792 26.3055 17.3964 26.3211 17.3948C26.5593 17.3674 26.2301 17.3101 26.2202 17.2988C26.1267 17.1578 26.4814 17.0883 26.4375 16.9512C26.4286 16.9362 26.2578 16.9631 26.2513 16.9198C26.2149 16.6221 26.2684 16.3101 26.4084 16.013C26.43 15.967 26.5607 16.0001 26.5772 15.9974C26.827 15.9504 26.4971 15.9185 26.4792 15.9034C26.3875 15.7852 26.6689 15.67 26.2658 15.5939C26.344 15.2995 26.2937 15.0063 26.3046 14.7126C26.3136 14.5581 26.3405 14.4206 26.4278 14.2191C26.4305 14.2127 26.5893 14.1634 26.5927 14.1505C26.6308 13.9915 26.3957 14.1079 26.0864 14.1956C26.0122 14.2221 26.3196 13.989 26.3386 13.9664C26.4164 13.8955 26.6377 13.786 26.6528 13.7686C26.7486 13.6247 26.0663 14.0745 26.0321 14.031C26.0319 14.0285 26.1589 13.948 26.1688 13.9341C26.1963 13.8915 26.1378 13.9123 26.1679 13.8665C26.2393 13.7618 26.5304 13.4862 26.3046 13.5796C26.2761 13.5931 25.9375 13.9124 25.9137 13.8558C25.9048 13.8316 25.8217 13.7614 25.8167 13.7177C25.8126 13.6736 25.9275 13.5741 25.9302 13.5679C25.9863 13.3535 26.0656 13.3133 26.2066 13.0479C26.3411 12.7797 25.9247 13.3431 25.8614 13.3935C25.7997 13.4424 25.8381 13.2681 25.8546 13.2094C25.8719 13.1516 25.9472 13.0865 25.9516 13.0498C25.9735 12.8084 25.7139 13.3079 25.6227 13.3808C25.4138 13.5572 25.6385 13.0853 25.5917 12.9969C25.5799 12.9738 25.5353 13.0837 25.5131 13.0841C25.4275 13.0822 25.4651 12.9176 25.3172 13.0058C25.2923 13.0197 25.0867 13.2638 25.1523 13.0391C25.1621 13.0063 25.2373 12.9001 25.2212 12.8589C25.1968 12.797 25.128 12.7308 25.0602 12.7453C25.0103 12.7568 24.9575 12.9678 24.9419 12.8863C24.9349 12.8497 25.0268 12.7558 25.0088 12.6963C24.9907 12.637 24.8909 12.5939 24.8517 12.5798C24.8131 12.566 24.7639 12.7197 24.7556 12.7306C24.7114 12.7773 24.6093 12.8135 24.5995 12.8119C24.4585 12.7531 24.3409 12.6451 24.226 12.5318C24.1137 12.4017 23.9706 12.275 23.7867 12.2782C23.7619 12.2785 23.7343 12.4444 23.7294 12.4505C23.6363 12.5003 23.8082 12.0755 23.7828 11.9119C23.7116 12.2512 23.6918 12.1819 23.6257 12.2067C23.594 12.2194 23.5825 12.3542 23.5772 12.3673C23.4993 12.5592 23.522 12.2958 23.5228 12.241C23.5286 12.0403 23.4591 12.2662 23.4608 12.1323C23.4604 11.9991 23.537 11.8134 23.4743 11.8062C23.4405 11.9268 23.4364 12.254 23.387 12.3007C23.2106 12.4739 22.9373 12.2062 22.7954 12.1832C22.6613 12.1589 22.6183 12.1848 22.5374 12.145C22.3887 12.0741 22.4579 12.3103 22.3841 12.428C22.3113 12.5463 22.2899 11.9525 22.2639 11.8267C22.237 11.7018 22.2359 11.8335 22.2115 11.766C22.1868 11.6987 22.2132 11.6087 22.1708 11.5868ZM19.4414 17.9764C19.3743 18.04 19.3702 18.0816 19.4055 18.0695C19.4518 18.0382 19.476 18.009 19.4414 17.9764ZM19.7023 17.3331C19.53 17.2981 19.1835 17.2918 19.2949 17.3683C19.3069 17.373 19.5104 17.3849 19.6441 17.3918C19.6637 17.3726 19.6825 17.3523 19.7023 17.3331ZM19.3482 16.487C19.1417 16.5085 19.581 16.6071 19.6625 16.5967C19.9307 16.5611 19.5551 16.4647 19.3482 16.487ZM13.8749 15.9984C13.8672 16.0016 13.8596 16.0734 13.8671 16.0757C14.0555 16.1165 14.0712 15.968 13.8749 15.9984ZM26.6179 14.3503C26.9314 14.3305 26.9101 14.1198 26.6111 14.2572C26.5965 14.2645 26.6031 14.3492 26.6179 14.3503ZM9.1329 13.5414C9.25959 13.1891 9.15856 13.3713 9.13678 13.4523C9.11193 13.4865 9.08809 13.569 9.06404 13.6756C9.09314 13.6175 9.10959 13.5727 9.1329 13.5414ZM25.7838 12.7326C25.8653 12.5922 25.8015 12.6074 25.7382 12.7443C25.7351 12.7527 25.7587 12.7754 25.7838 12.7326ZM23.1417 11.8365C23.1779 11.6482 23.0871 11.6279 23.0961 11.8267C23.0977 11.8346 23.1401 11.8442 23.1417 11.8365ZM31.9283 11.4282C31.9583 11.3533 32.646 11.2737 32.5752 11.3567C32.5618 11.3719 32.3521 11.3372 32.2901 11.3587C32.1777 11.3983 32.6146 11.3985 32.3832 11.4448C32.3407 11.4533 31.9256 11.4326 31.9273 11.4282H31.9283ZM32.9331 0.0238175C32.988 0.0250732 33.1578 0.0083204 33.228 0.0130457C33.2972 0.0178058 33.1565 0.0348262 33.2387 0.0443818C33.3223 0.0538572 33.5144 0.037908 33.5393 0.0639668C33.5942 0.125149 33.543 0.211885 33.4705 0.279402C33.4476 0.300282 33.3428 0.296108 33.3221 0.310738C33.283 0.339658 33.3351 0.362032 33.2881 0.391037C33.272 0.400666 33.1058 0.398875 33.0912 0.408664C33.0211 0.462745 33.065 0.508669 33.033 0.561427C32.8712 0.8231 32.8205 1.07535 32.7576 1.33504C32.737 1.42067 32.5913 1.53133 32.6616 1.6151C32.6699 1.62488 32.8162 1.61085 32.8284 1.61216C33.0131 1.63298 32.7192 1.63844 32.68 1.66015C32.5294 1.74662 32.5202 1.83514 32.5801 1.9079C32.6061 1.93883 32.8942 1.89186 32.7343 1.93238C32.7234 1.93519 32.5681 1.93553 32.551 1.94511C32.5155 1.96681 32.5439 2.0031 32.5335 2.01953C32.5106 2.0506 32.5115 2.05606 32.5112 2.08416C32.5094 2.123 32.4355 2.17275 32.4724 2.21245C32.4808 2.2209 32.6395 2.2017 32.6674 2.2144C32.6945 2.22736 32.6826 2.2655 32.646 2.28001C32.6088 2.29443 32.4837 2.29494 32.455 2.29862C32.2151 2.32933 32.5507 2.35607 32.5607 2.36129C32.7058 2.45535 32.521 2.55218 32.5258 2.64723C32.5302 2.71946 32.5967 2.79442 32.5917 2.86365C32.5847 2.94597 32.5024 3.01998 32.5209 3.09867C32.5227 3.10694 32.7061 3.08814 32.712 3.09769C32.7393 3.20567 32.724 3.31553 32.6034 3.43064C32.5903 3.44203 32.4263 3.43638 32.4036 3.44826C32.2717 3.52187 31.9538 3.64414 32.6703 3.64705C32.6447 3.69361 32.6182 3.7501 32.4763 3.79785C32.3847 3.8285 32.2055 3.81291 32.2833 3.84094C32.3026 3.84686 32.4555 3.83012 32.4705 3.83996C32.5301 3.88258 32.4823 3.93418 32.5655 3.9751C32.5828 3.98334 32.7212 3.97394 32.7479 3.9751C32.9523 3.98635 32.6219 4.03979 32.5937 4.04952C32.4139 4.11904 32.4871 4.15987 32.486 4.216C32.4855 4.22903 32.6709 4.20514 32.679 4.21697C32.7092 4.28058 32.6962 4.34883 32.616 4.41674C32.5962 4.43141 32.4397 4.42708 32.42 4.43437C32.3473 4.46796 32.6483 4.45953 32.5869 4.49117C32.5738 4.49788 32.4357 4.50201 32.42 4.5039C32.185 4.5332 32.5198 4.53121 32.5287 4.53523C32.6322 4.58607 32.2849 4.63934 32.3366 4.69093C32.345 4.69672 32.5146 4.67454 32.5238 4.69191C32.578 4.81083 32.5366 4.94163 32.4036 5.06892C32.3828 5.08855 32.2523 5.08264 32.2358 5.08459C31.9867 5.11647 32.3185 5.11164 32.3357 5.11691C32.4296 5.16029 32.1493 5.21945 32.5529 5.23148C32.4237 5.44222 32.6591 5.63392 32.3095 5.85428C32.3022 5.85702 32.1436 5.86071 32.132 5.86604C32.0418 5.93248 32.2991 5.90709 32.6169 5.93165C32.6964 5.93786 32.3179 5.989 32.2891 5.99334C32.1872 6.00855 31.9428 6.01056 31.9196 6.01488C31.7648 6.05073 32.5758 6.00538 32.584 6.0423C32.5827 6.04354 32.4346 6.04627 32.4171 6.05013C32.3707 6.06236 32.4303 6.06923 32.3793 6.08147C32.2606 6.10962 31.8639 6.13808 32.0961 6.15981C32.1267 6.16246 32.5847 6.13291 32.5704 6.16667C32.562 6.18051 32.5722 6.23938 32.5432 6.25774C32.5146 6.27556 32.3694 6.2721 32.358 6.2734C32.1626 6.32833 32.0791 6.31626 31.7876 6.3537C31.498 6.39103 32.1926 6.34854 32.2707 6.3537C32.3482 6.3589 32.1876 6.40039 32.131 6.41148C32.075 6.42239 31.98 6.41757 31.9477 6.42617C31.7404 6.48446 32.2932 6.42893 32.4045 6.4389C32.6671 6.46238 32.1553 6.51804 32.1048 6.55445C32.0917 6.56428 32.2084 6.5509 32.2202 6.55837C32.2632 6.58843 32.104 6.61643 32.2532 6.64552C32.2795 6.65034 32.5874 6.66371 32.3618 6.69448C32.3286 6.6988 32.2012 6.69808 32.1727 6.71309C32.1306 6.73584 32.1045 6.77448 32.1485 6.79437C32.1814 6.80889 32.391 6.77943 32.3269 6.80318C32.298 6.81378 32.1732 6.80344 32.1291 6.82276C32.0856 6.84206 32.0929 6.88555 32.098 6.90208C32.1043 6.91813 32.2637 6.9013 32.2746 6.90208C32.3357 6.90695 32.4133 6.93369 32.4162 6.93734C32.4425 7.07773 32.1788 7.22239 32.2746 7.35548C32.2818 7.36583 32.4474 7.35046 32.454 7.35156C32.5268 7.38494 32.075 7.3787 31.9254 7.41227C32.2678 7.39096 32.2081 7.40976 32.2464 7.43382C32.2655 7.44543 32.3983 7.43145 32.4123 7.43186C32.6151 7.44012 32.3552 7.46688 32.3017 7.47299C32.106 7.49541 32.3383 7.49703 32.2076 7.51216C32.0782 7.52715 31.8854 7.51802 31.8876 7.54251C32.011 7.54317 32.3306 7.50869 32.3842 7.52489C32.5841 7.58621 32.3412 7.73182 32.3163 7.79124C32.293 7.85001 32.3161 7.86818 32.2736 7.90386C32.1969 7.96827 32.4342 7.93362 32.5452 7.96555C32.6561 7.99759 32.0701 8.00949 31.9428 8.02137C31.8172 8.03314 31.9461 8.03279 31.8779 8.04291C31.809 8.05304 31.722 8.04387 31.6965 8.06054C31.675 8.07746 31.8988 8.10778 32.0301 8.10656C32.31 8.10384 32.602 8.07013 32.5015 8.11636C32.4909 8.1189 32.3419 8.11952 32.326 8.12909C32.211 8.20692 32.207 8.28217 32.1058 8.35921C32.0908 8.36968 31.9208 8.3697 31.9089 8.37586C31.8028 8.44107 32.0912 8.40465 32.4142 8.4209C31.9869 8.43548 31.7261 8.46761 31.7246 8.51295C31.7244 8.54029 31.9111 8.52558 32.0437 8.53646C32.0832 8.53977 31.9567 8.56587 32.0447 8.56485C32.332 8.56161 32.6518 8.52754 32.5277 8.58052C32.5218 8.58287 32.3651 8.58481 32.3541 8.59227C32.2957 8.64091 32.5949 8.63109 32.6344 8.67845C32.6648 8.71572 32.4853 8.7942 32.4569 8.84002C31.9761 8.8638 32.0885 8.90082 32.421 8.90074C32.4093 8.92991 32.4287 8.95999 32.3851 8.98985C32.3702 9.00007 32.2333 9.00066 32.2154 9.00258C31.9804 9.03314 32.3028 9.02937 32.3163 9.03489C32.4424 9.09573 32.2011 9.16327 32.4433 9.21508C32.4601 9.2165 32.7823 9.20351 32.5432 9.2327C32.5265 9.23467 32.3744 9.2221 32.3628 9.25229C32.3526 9.28304 32.1762 9.34958 32.3328 9.38351C32.3706 9.39172 32.6432 9.40301 32.4327 9.43443C32.4041 9.43863 32.3084 9.44052 32.2552 9.44716C32.0859 9.46866 32.4231 9.45859 32.1378 9.48829C31.8516 9.51805 31.6379 9.56003 31.8381 9.59209C31.8482 9.59304 32.1049 9.59013 32.1087 9.60286C32.1028 9.62418 32.0498 9.65721 32.0515 9.67924C32.0529 9.68956 32.2112 9.67538 32.2212 9.6763C32.3178 9.74265 32.1733 9.80156 32.1126 9.88097C32.1012 9.89558 32.329 9.92401 32.1514 9.96029C31.9563 10 31.1403 10.0117 31.3366 10.07C31.4158 10.0935 32.4532 10.0752 31.9196 10.1522C32.0573 10.2415 31.7875 10.3447 31.9816 10.4313C31.9901 10.4351 32.2662 10.4344 32.2765 10.444C32.2709 10.4593 32.1391 10.4749 32.1281 10.4861C32.0899 10.5332 32.2062 10.5693 32.1921 10.6134C32.1864 10.6303 32.047 10.6327 32.0389 10.6526C32.0345 10.6724 32.2156 10.6765 32.13 10.7075C32.0634 10.7311 31.6885 10.7704 31.6451 10.7995C32.0159 10.7815 32.0101 10.8002 32.1097 10.8279C32.13 10.8329 32.2551 10.8202 32.2726 10.822C32.3396 10.8307 32.234 10.8475 32.3066 10.8553C32.3243 10.8572 32.451 10.8512 32.4724 10.8524C32.6596 10.8623 32.3766 10.9089 32.3269 10.917C32.1404 10.9477 32.3046 10.949 32.2319 10.9689C32.1587 10.9888 32.0646 10.9695 32.0204 10.9905C31.9298 11.0341 31.9521 11.0837 31.9487 11.1236C31.9479 11.1395 32.1156 11.1207 32.1203 11.1227C32.1641 11.1532 31.9871 11.1952 32.324 11.1961C31.455 11.2635 32.4086 11.2119 32.2377 11.2676C32.2238 11.272 31.812 11.2982 31.7508 11.2872C31.6903 11.2761 31.8171 11.2481 31.7227 11.2333C31.7003 11.2298 31.3132 11.2221 31.2891 11.2196C31.1064 11.2005 31.7166 11.1653 31.7537 11.1618C32.1173 11.126 31.7005 11.1151 31.6713 11.108C31.5379 11.0755 31.6223 11.0371 31.5267 11.0091C31.4636 10.991 31.0643 11.0097 31.0738 10.9924C31.1132 10.9344 31.6717 10.886 31.1824 10.8583C31.0774 10.8523 30.6386 10.8853 30.9826 10.8269C31.0061 10.823 31.3188 10.7772 31.1184 10.7701C31.093 10.7692 30.9646 10.7754 30.9535 10.7731C30.8832 10.7573 30.9841 10.7397 30.9341 10.7212C30.8841 10.7027 30.8104 10.6808 30.8526 10.6546C30.8798 10.6387 31.1167 10.6077 31.1746 10.5978C31.3411 10.5696 31.0647 10.5626 31.2678 10.54C31.4724 10.5173 31.7855 10.526 31.9166 10.4871C31.5831 10.5031 31.2405 10.5178 30.905 10.5332C30.9135 10.4624 31.017 10.3873 30.9991 10.3177C30.9938 10.3096 30.8205 10.3262 30.8109 10.3177C30.781 10.2797 30.9057 10.2385 30.8536 10.2002C30.8118 10.1706 30.6201 10.1457 30.5704 10.115C30.9504 10.0752 30.8191 10.0321 30.8517 9.99456C30.864 9.98157 30.9655 9.97673 30.9981 9.96616C31.1189 9.92631 30.7831 9.9599 30.7294 9.95343C30.5009 9.9255 31.2638 9.88258 31.2425 9.8369C31.228 9.83428 30.8336 9.82503 30.808 9.82221C30.642 9.80431 30.9485 9.81079 30.9787 9.79284C31.0321 9.7599 31.1281 9.73298 31.0078 9.70372C30.972 9.6952 30.7167 9.68392 30.9118 9.65378C30.9375 9.64985 31.0703 9.64458 31.0796 9.64203C31.2084 9.59691 30.7864 9.61748 30.6422 9.60286C30.4979 9.58822 30.7883 9.53868 30.872 9.52746C31.087 9.49847 30.9665 9.53701 30.9865 9.53725C31.241 9.53571 31.1968 9.5132 31.2173 9.49319C31.6309 9.46919 31.6047 9.44317 31.2367 9.47164C31.1968 9.47478 31.235 9.48832 31.2173 9.49319C30.81 9.49745 30.756 9.47036 31.1339 9.41876C31.3112 9.39461 31.5196 9.39883 31.4414 9.35707C31.4056 9.3382 31.1215 9.36055 31.0427 9.3463C30.8631 9.31362 31.1266 9.24524 31.0825 9.20431C31.0659 9.18967 30.9106 9.21318 30.8943 9.20333C30.851 9.17716 30.9664 9.14546 30.905 9.12009C30.8949 9.11834 30.74 9.13207 30.7343 9.12401C30.7123 9.05792 30.8135 8.99342 30.8129 8.92326C30.8112 8.8893 30.7194 8.83369 30.7353 8.79792C30.7633 8.73555 30.9963 8.64804 30.936 8.59913C30.8966 8.56766 30.7345 8.58334 30.6228 8.57465C30.4057 8.55774 30.7883 8.4886 30.8488 8.47868C30.8507 8.47882 30.8737 8.49414 30.9196 8.49337L31.0282 8.4777C31.032 8.47217 30.8531 8.47876 30.8488 8.47868C30.8872 8.47219 30.9213 8.41127 30.8895 8.40132C30.8702 8.39619 30.7171 8.40819 30.711 8.40524C30.5687 8.33452 30.5253 8.25776 30.5937 8.17511C30.6002 8.17347 30.771 8.16686 30.776 8.16336C30.849 8.114 30.6367 8.09559 30.5093 8.06446C30.3816 8.0332 30.4224 8.00119 30.7188 7.96359C30.6802 7.93706 30.809 7.88933 30.8875 7.86175C30.9655 7.83426 30.6289 7.84779 30.6218 7.84608C30.4054 7.79259 30.5961 7.74508 30.6228 7.67667C30.6352 7.64403 30.5845 7.58371 30.5461 7.55133C30.5154 7.52572 30.5926 7.5052 30.5413 7.48278C30.534 7.47982 30.387 7.4911 30.3783 7.49061C30.1972 7.47186 30.5652 7.46646 30.6305 7.45732C30.8677 7.42416 30.9937 7.40414 30.8798 7.37408C30.8506 7.36722 30.3236 7.36989 30.292 7.35646C30.2537 7.33907 30.4416 7.33733 30.3948 7.31925C30.3893 7.31781 30.2739 7.32326 30.2784 7.31043C30.298 7.25061 30.363 7.18275 30.3483 7.12242C30.3412 7.11512 30.1615 7.13404 30.1562 7.12242C30.1317 7.06716 30.1356 7.00448 30.2193 6.94517C30.2413 6.93067 30.3711 6.93245 30.4094 6.92754C30.6412 6.89754 30.3022 6.88934 30.2949 6.88544C30.1271 6.79294 30.4296 6.69969 30.2784 6.60439C30.2649 6.59902 29.9064 6.57472 30.2144 6.53976C30.2361 6.53727 30.5525 6.50231 30.3347 6.49667C30.321 6.49633 30.157 6.51625 30.1727 6.49472C30.1869 6.47324 30.0784 6.446 30.2561 6.40854C30.3129 6.39659 30.629 6.35871 30.3745 6.34489C30.353 6.34398 29.7832 6.33188 30.1766 6.29691C30.2428 6.29113 30.659 6.27186 30.4433 6.25088C30.4013 6.24706 30.3092 6.26284 30.2503 6.2499C30.1593 6.22982 30.2691 6.19139 30.0815 6.17058C30.0483 6.16698 29.763 6.15861 29.9778 6.12945C30.0119 6.12494 30.15 6.12303 30.1659 6.11281C30.2383 6.06359 30.1434 6.02087 30.2377 5.96984C30.2721 5.95193 30.4973 5.94877 30.5568 5.92871C30.6164 5.90855 30.6724 5.87071 30.5684 5.8582C30.4644 5.84584 30.1086 5.88371 30.0757 5.85918C29.945 5.74955 30.1496 5.62313 30.1746 5.50567C30.1761 5.48905 30.0505 5.50905 30.0466 5.48413C30.0321 5.39119 29.9043 5.23638 30.1737 5.14139C30.3894 5.06547 30.5603 5.13777 30.647 5.08361C30.6856 5.0578 30.2726 5.05342 30.2552 5.04836C30.1185 4.99877 30.302 4.94937 30.2425 4.90147C30.2295 4.89182 30.0626 4.91061 30.0524 4.90245C30.0218 4.87351 30.0947 4.83782 30.0796 4.80942C30.0712 4.79696 29.9435 4.80521 29.9525 4.79278C29.9736 4.76296 30.0271 4.73488 30.1465 4.70073C30.1587 4.69771 30.3201 4.7056 30.325 4.68408C30.3341 4.64918 30.4487 4.60061 30.324 4.56755C30.2856 4.55777 29.9909 4.57188 30.1931 4.53621C30.2361 4.52871 30.5913 4.51758 30.2833 4.5039C30.232 4.50156 29.8153 4.47334 30.0806 4.43535C30.1506 4.42534 30.4392 4.39435 30.3948 4.38247C30.3874 4.38093 30.2291 4.39622 30.2125 4.38541C30.1587 4.34681 30.1729 4.30284 30.1213 4.263C30.1065 4.25252 29.9432 4.27714 29.9273 4.26104C29.8837 4.21672 29.9228 4.1563 29.9719 4.10828C29.9921 4.09111 30.1262 4.0955 30.1417 4.09359C30.3801 4.06184 30.0604 4.06662 30.0369 4.06127C29.9214 4.0267 30.0717 3.98775 30.0301 3.95258C30.0181 3.94302 29.8644 3.95773 29.8497 3.95649C29.7133 3.94219 29.9933 3.94411 30.0233 3.92907C30.1079 3.88709 30.0935 3.8456 30.0718 3.80863C30.0623 3.79547 29.8861 3.8194 29.8788 3.80765C29.8442 3.73493 29.858 3.6561 29.9535 3.5785C29.9735 3.5642 30.1113 3.56532 30.1426 3.56088C30.3615 3.53002 30.0607 3.51708 30.0301 3.51191C29.8971 3.48856 30.0194 3.46975 29.9952 3.44434C29.8749 3.32036 29.9473 3.1562 29.9913 3.0311C30.0479 2.8682 30.1739 2.73698 30.132 2.58652C30.1253 2.57779 29.9478 2.59608 29.9409 2.58848C29.8913 2.48323 29.9575 2.37328 29.8992 2.26826C29.8926 2.26004 29.7201 2.28078 29.7071 2.26728C29.6792 2.2395 29.6868 2.20167 29.7411 2.16936C29.7686 2.15402 29.9187 2.16539 29.9419 2.14977C29.996 2.11329 30.0065 2.07611 29.9768 2.04304C29.9615 2.02979 29.7878 2.06027 29.7828 2.04206C29.7585 1.9126 29.7219 1.78517 29.9467 1.64154C29.9679 1.63149 30.3242 1.60515 30.2542 1.58964C30.1534 1.59337 30.035 1.59943 29.9273 1.60433C29.8599 1.41746 29.9756 1.22284 29.9855 1.03147C29.9797 1.02455 29.7937 1.04678 29.7935 1.03147C29.7915 0.941569 29.7351 0.856958 29.9215 0.755319C29.9429 0.745259 30.2776 0.732427 30.2261 0.708315C30.2164 0.703948 30.1691 0.66508 30.0951 0.658373C30.0838 0.657532 29.9258 0.673151 29.9205 0.660331C29.8932 0.585969 29.9253 0.504691 30.0175 0.424332C30.034 0.411519 30.2012 0.414946 30.2144 0.405726C30.3003 0.339448 30.1697 0.278628 30.3192 0.211834C30.4203 0.167113 30.7128 0.167226 30.9981 0.131535C31.0382 0.126415 31.0442 0.101191 31.2105 0.0913859C31.6295 0.0666372 32.089 0.0545428 32.5355 0.0267553C32.6315 0.0207728 32.527 -0.00616337 32.7605 0.00129472C32.777 0.00216169 32.8547 0.0219936 32.9331 0.0238175ZM31.7333 10.9121C31.6201 10.9283 31.7534 10.9519 31.8943 10.9317C32.0067 10.9155 31.874 10.892 31.7333 10.9121ZM31.4656 10.3647C31.7248 10.3229 31.3398 10.3226 31.1388 10.353C30.9379 10.3834 31.3867 10.3775 31.4656 10.3647ZM14.9612 8.53939C14.96 8.54429 14.9579 8.54884 14.9583 8.5531V8.53352C14.9586 8.53565 14.9602 8.53756 14.9612 8.53939ZM31.9574 7.66982C31.7689 7.67007 31.7556 7.70578 31.9506 7.68842C31.9583 7.68742 31.965 7.66996 31.9574 7.66982ZM31.7809 6.55935C31.6205 6.56846 31.6667 6.5834 31.8148 6.57012C31.8236 6.56922 31.8305 6.55656 31.7809 6.55935ZM32.1601 5.77203C31.8511 5.76671 31.8222 5.84962 32.1446 5.81511C32.161 5.81313 32.1748 5.77333 32.1601 5.77203ZM14.7081 4.91126C14.4396 5.01199 14.8193 5.11708 15.0262 5.04542C15.2327 4.97455 14.7896 4.88092 14.7081 4.91126ZM14.6004 3.66859C14.3848 3.78898 15.2225 3.87438 15.064 3.71658C15.0521 3.70728 14.6139 3.6618 14.6004 3.66859ZM14.5015 2.4318C14.3835 2.46526 14.5019 2.5987 14.6479 2.56106C14.7654 2.53144 14.6481 2.39269 14.5015 2.4318ZM14.3793 0.179519C14.4235 0.151279 14.8287 0.331883 14.8274 0.359701H14.8264C14.7649 0.720979 14.0446 0.696419 14.1669 0.45273C14.1883 0.402088 14.3719 0.594866 14.4433 0.536946C14.5741 0.410914 14.1451 0.302471 14.3793 0.179519ZM31.0912 0.205958C30.9024 0.206272 30.8889 0.242111 31.0844 0.224564C31.0922 0.223695 31.0989 0.206098 31.0912 0.205958Z" fill="url(#paint0_linear_77408_358)"/>
</g>
<defs>
<linearGradient id="paint0_linear_77408_358" x1="5" y1="0" x2="34.4907" y2="-1.66901" gradientUnits="userSpaceOnUse">
<stop stop-color="#CBF93E"/>
<stop offset="1" stop-color="#F4FE3F"/>
</linearGradient>
</defs>
</svg>
