<svg width="104" height="44" viewBox="0 0 104 44" fill="none" xmlns="http://www.w3.org/2000/svg">
<g opacity="0.7">
<path d="M75.625 22.0002L62.4928 8.96308L70.1146 1.51321L83.2467 14.5503L96.3789 1.51321L104 8.96308L90.8678 22.0002L104 35.1538L96.3789 42.603L83.2467 29.5666L70.1146 42.603L62.4928 35.1538L75.625 22.0002Z" fill="#B564D4"/>
<path fill-rule="evenodd" clip-rule="evenodd" d="M0 8.96308L13.1322 22.0002L0 35.0373L9.028 44.0002L22.1602 30.9631L35.2923 44.0002L44.321 35.0373L31.1888 22.0002L44.321 8.96308L35.2923 0.000183105L22.1602 13.0373L9.028 0.000183105L0 8.96308ZM35.2923 2.91034L22.1602 15.8309L9.028 2.7938L2.8138 8.96308L15.946 22.0002L2.8138 35.0373L9.028 41.2066L22.1602 28.1695L35.1751 41.3231L41.3893 35.1538L28.3744 22.1167L41.5065 9.07962L35.2923 2.91034Z" fill="#B564D4"/>
</g>
</svg>
