<svg width="128" height="128" viewBox="0 0 128 128" fill="none" xmlns="http://www.w3.org/2000/svg">
<path fill-rule="evenodd" clip-rule="evenodd" d="M1 66.156C1 66.859 1.207 67.323 1.323 67.774C2.079 70.707 3.704 73.224 5.632 75.52C8.378 78.792 11.741 81.426 15.186 83.903C18.174 86.051 21.223 88.151 24.223 90.283C24.738 90.649 25.225 91.07 25.784 91.519C25.303 91.779 24.903 92.008 24.487 92.219C20.528 94.227 16.719 96.478 13.208 99.205C11.092 100.849 9.046 102.596 7.601 104.879C5.276 108.551 4.453 112.463 6.186 116.64C6.692 117.86 7.464 118.914 8.553 119.693C8.906 119.945 9.302 120.195 9.715 120.293C10.773 120.542 11.851 120.705 12.922 120.902L15.955 120.9C19.309 120.601 22.362 119.452 25.121 117.548C29.433 114.572 32.338 110.582 33.587 105.461C34.495 101.739 34.532 98.013 33.462 94.308C33.3596 93.9648 33.2415 93.6264 33.108 93.294C32.978 92.961 32.825 92.637 32.645 92.222L39.521 88.268L39.624 88.356C39.499 88.765 39.366 89.173 39.253 89.586C38.436 92.57 37.893 95.606 38.088 98.703C38.296 102.003 39.217 105.092 41.149 107.849C42.711 110.079 46.433 110.162 48.093 107.924C48.682 107.129 49.253 106.298 49.682 105.411C50.803 103.096 51.841 100.74 52.912 98.4L53.099 97.972C53.022 99.08 52.932 100.053 52.891 101.027C52.827 102.548 52.916 104.06 53.436 105.507C53.881 106.745 54.638 107.67 56.056 107.833C57.026 107.944 57.799 107.5 58.512 106.937C59.6166 106.064 60.5321 104.976 61.203 103.738C63.104 100.247 65.056 96.777 66.779 93.198C68.643 89.327 70.273 85.343 72.004 81.406L72.29 80.708C72.699 82.315 72.984 83.889 73.509 85.379C74.119 87.108 74.874 88.796 75.696 90.437C76.085 91.212 76.04 91.715 75.501 92.365C73.245 95.085 71.028 97.838 68.809 100.588C68.318 101.195 67.829 101.813 67.42 102.476C67.1719 102.895 67.0088 103.358 66.94 103.84C66.8712 104.284 66.9767 104.737 67.2346 105.104C67.4924 105.471 67.8825 105.725 68.323 105.811C69.2121 106.002 70.1237 106.067 71.031 106.004C74.128 105.776 76.94 104.689 79.426 102.847C82.647 100.461 83.681 97.205 82.901 93.346C82.69 92.299 82.317 91.281 81.954 90.272C81.791 89.817 81.78 89.498 82.077 89.074C84.652 85.397 86.852 81.496 88.898 77.505C88.979 77.348 89.062 77.191 89.204 77.023C89.867 80.473 90.865 83.798 92.653 86.815C91.741 87.694 90.838 88.491 90.021 89.369C88.222 91.303 86.662 93.403 85.848 95.964C85.498 97.068 85.229 98.19 85.385 99.369C85.627 101.2 87.127 102.39 88.928 101.973C92.782 101.081 96.109 99.265 98.54 96.048C100.176 93.882 100.325 91.466 99.64 88.935C99.452 88.247 99.229 87.57 98.989 86.781C99.94 86.486 100.867 86.132 101.826 85.913C106.805 84.777 111.73 84.975 116.528 86.773C119.329 87.823 121.592 89.58 122.934 92.344C124.573 95.723 123.667 98.929 120.482 101.065C120.185 101.264 119.845 101.421 119.599 101.67C119.52 101.761 119.461 101.868 119.426 101.983C119.391 102.099 119.38 102.22 119.394 102.34C119.415 102.463 119.74 102.617 119.927 102.615C120.974 102.607 121.823 102.058 122.638 101.494C124.68 100.081 126.17 98.18 126.491 95.677L126.554 95.489L126.477 93.859C126.446 93.765 126.5 93.672 126.493 93.601C126.059 89.956 124.112 87.129 121.28 84.913C118 82.348 114.127 81.292 110.031 81.125C106.709 80.982 103.391 81.4927 100.266 82.628C99.369 82.953 98.48 83.338 97.578 83.701C97.457 83.482 97.327 83.272 97.22 83.055C96.294 81.159 95.172 79.347 94.924 77.173C94.748 75.629 94.532 74.087 94.899 72.56C95.252 71.091 95.712 69.647 96.145 68.198C96.368 67.452 96.211 67.034 95.499 66.698C95.2509 66.5743 94.9861 66.4874 94.713 66.44C92.963 66.186 91.237 66.331 89.542 66.824C88.942 66.999 88.506 67.335 88.373 67.999C88.297 68.38 88.142 68.745 88.034 69.121C87.591 70.684 87.277 72.277 86.561 73.766C84.767 77.501 82.719 81.095 80.623 84.663C80.396 85.048 80.157 85.426 79.871 85.893C79.135 84.353 78.35 82.971 78.112 81.351C77.843 79.519 77.631 77.69 78.087 75.872C78.426 74.516 78.869 73.185 79.277 71.847C79.47 71.211 79.381 70.877 78.805 70.542C78.514 70.373 78.185 70.223 77.857 70.174C76.0626 69.9007 74.2291 70.0507 72.503 70.612C71.96 70.788 71.675 71.139 71.509 71.699C71.021 73.351 70.605 75.043 69.92 76.614C67.146 82.974 64.292 89.301 61.441 95.627C60.846 96.948 60.149 98.223 59.478 99.509C59.308 99.835 59.06 100.122 58.848 100.428C58.678 100.227 58.612 100.089 58.613 99.951C58.618 99.138 58.521 98.301 58.676 97.515C59.152 95.1378 59.6781 92.771 60.254 90.416C60.724 88.47 61.271 86.542 61.792 84.609C61.967 83.962 61.97 83.357 61.505 82.813C60.724 81.902 59.092 81.702 58.124 82.404L57.696 82.646L57.779 81.956C57.983 80.477 58.024 79.003 57.618 77.546C57.112 75.73 55.816 74.685 53.932 74.743C53.054 74.77 52.132 74.92 51.319 75.24C47.9 76.58 45.271 78.953 43.033 81.808C42.8255 82.0731 42.5684 82.2952 42.276 82.462C39.383 84.066 36.481 85.65 33.58 87.24L30.351 89.009C29.485 88.183 28.698 87.326 27.805 86.599C25.078 84.375 22.307 82.206 19.561 80.007C17.127 78.058 14.769 76.028 12.965 73.447C11.623 71.527 10.758 69.426 10.675 67.052C10.57 64.027 11.428 61.263 12.968 58.69C14.938 55.398 17.625 52.756 20.579 50.363C23.704 47.833 27.084 45.685 30.587 43.724C35.488 40.981 40.529 38.553 45.934 36.95C51.476 35.306 57.099 34.365 62.899 35.021C65.179 35.279 67.393 35.801 69.426 36.916C70.983 37.769 72.26 38.886 72.854 40.632C73.44 42.35 73.422 44.091 73.016 45.836C72.191 49.37 70.256 52.283 67.821 54.886C63.827 59.153 58.955 62.058 53.47 63.977C50.3163 65.0818 47.035 65.7817 43.705 66.06C40.976 66.289 38.304 66.047 35.72 65.098C34.009 64.469 32.519 63.507 31.321 62.111C31.107 61.861 30.833 61.59 30.434 61.824C30.043 62.054 29.974 62.426 30.105 62.803C30.324 63.429 30.526 64.081 30.867 64.641C31.724 66.046 32.974 67.065 34.35 67.939C36.993 69.62 39.947 70.185 43.01 70.316C47.658 70.517 52.193 69.823 56.664 68.576C63.047 66.796 68.597 63.652 73.048 58.692C76.754 54.562 79.401 49.901 79.968 44.273C80.245 41.526 79.95 38.835 78.664 36.329C77.269 33.614 75.051 31.595 72.399 30.204C68.537 28.179 64.369 27 60.067 27H55.757C50.547 27 45.51 28.493 40.614 30.274C36.908 31.623 33.274 33.215 29.746 34.977C22.063 38.816 14.908 43.445 9.031 49.81C6.103 52.981 3.624 56.48 2.198 60.6C1.76761 61.8301 1.39684 63.0802 1.087 64.346M28.926 100.359C28.593 104.818 26.572 108.433 23.269 111.361C21.411 113.007 19.28 114.179 16.798 114.591C15.898 114.74 14.977 114.776 14.104 114.403C12.859 113.871 12.58 112.766 12.556 111.589C12.519 109.713 13.176 108.017 14.077 106.403C15.253 104.299 16.977 102.695 18.818 101.197C21.718 98.836 24.864 96.838 28.086 94.952L28.329 94.852C28.827 96.692 29.064 98.509 28.926 100.359ZM54.084 80.98C53.849 82.404 53.555 83.829 53.139 85.209C51.701 89.986 49.854 94.615 47.857 99.182C47.488 100.027 46.951 100.798 46.484 101.599C46.4046 101.722 46.3094 101.834 46.201 101.933C45.623 102.504 45.075 102.474 44.783 101.727C44.443 100.859 44.234 99.93 44.054 99.011C43.933 98.394 43.962 97.746 43.924 97.114C43.963 92.62 45.334 88.536 47.66 84.734C48.619 83.166 49.663 81.672 51.258 80.68C51.7542 80.3715 52.291 80.1339 52.853 79.974C53.703 79.735 54.225 80.128 54.084 80.98ZM71.248 102.848L77.417 95.645C77.674 98.32 73.127 103.66 71.248 102.848ZM90.951 98.001C90.515 98.251 90.04 98.431 89.593 98.662C89.184 98.874 89.049 98.66 89.037 98.308C89.031 98.0643 89.0623 97.8212 89.13 97.587C89.963 94.649 91.496 92.141 93.777 90.101L93.937 90.019C95.022 93.054 93.768 96.387 90.951 98.001Z" fill="#CB6699"/>
</svg>
