<svg width="40" height="25" viewBox="0 0 40 25" fill="none" xmlns="http://www.w3.org/2000/svg">
<mask id="mask0_77408_363" style="mask-type:alpha" maskUnits="userSpaceOnUse" x="0" y="0" width="40" height="25">
<path d="M0 0H40V25H0V0Z" fill="#D9D9D9"/>
</mask>
<g mask="url(#mask0_77408_363)">
<path d="M35.9681 20.7506C35.9997 20.7104 36.6425 20.4422 36.5956 20.5648C36.5851 20.5878 36.3684 20.5813 36.3142 20.6223C36.2136 20.68 36.6511 20.6386 36.4244 20.7239C36.3817 20.7307 35.9935 20.745 35.9681 20.7506ZM28.4499 4.00823C28.4411 4.03121 28.3244 4.32495 28.4234 4.15053C28.4359 4.12863 28.4915 4.01468 28.4995 4.00318C28.5439 3.94682 28.5088 4.04227 28.5448 4.00631C28.5815 3.96925 28.6324 3.91248 28.6302 3.9601C28.6284 3.98958 28.5359 4.21102 28.5143 4.26652C28.4527 4.42539 28.5923 4.1842 28.5093 4.37276C28.4258 4.5624 28.2694 4.8363 28.2318 4.96681C28.3818 4.66607 28.5374 4.35735 28.689 4.05522C28.7332 4.0909 28.7337 4.21132 28.789 4.22338C28.7969 4.22237 28.8704 4.06243 28.8812 4.05707C28.9218 4.04553 28.8886 4.17271 28.9401 4.14237C28.9806 4.11775 29.0928 3.96042 29.1381 3.92915C29.0597 4.09849 29.0406 4.16262 29.0438 4.18872C29.053 4.20003 29.0985 4.21091 29.1074 4.22269C29.1106 4.25114 29.1412 4.24037 29.146 4.26361C29.1494 4.27982 29.0945 4.36825 29.0838 4.401C29.0452 4.52073 29.2112 4.22413 29.2462 4.18288C29.3956 4.00953 28.9973 4.66003 29.0372 4.66841C29.039 4.66865 29.2796 4.33589 29.2973 4.31586C29.4056 4.1886 29.226 4.43767 29.221 4.47205C29.2138 4.53311 29.1747 4.62476 29.2658 4.54087C29.2929 4.51476 29.4498 4.31463 29.3565 4.48834C29.3441 4.51124 29.2706 4.62245 29.2664 4.63195C29.2205 4.75975 29.4571 4.4059 29.5534 4.29677C29.6498 4.18861 29.5102 4.44921 29.4671 4.52237C29.3586 4.70924 29.4039 4.59642 29.393 4.60979C29.2416 4.8166 29.283 4.79286 29.2838 4.81963C29.051 5.16559 29.0818 5.15649 29.285 4.84599C29.3069 4.81226 29.2765 4.83617 29.2838 4.81963C29.526 4.4887 29.5768 4.45971 29.3813 4.79006C29.2897 4.94401 29.162 5.10874 29.2337 5.06871C29.2672 5.04998 29.4276 4.81106 29.4853 4.75507C29.6169 4.62921 29.4995 4.87343 29.5517 4.86033C29.5711 4.85538 29.6533 4.71918 29.6698 4.71149C29.7137 4.69162 29.662 4.79881 29.7163 4.7645C29.7232 4.75838 29.813 4.62712 29.8216 4.62749C29.8786 4.6457 29.8561 4.76039 29.9003 4.7974C29.9231 4.8139 30.0157 4.77312 30.0282 4.80453C30.0493 4.85924 29.9505 5.08468 30.0174 5.06606C30.0618 5.05356 30.1608 4.91986 30.2398 4.83908C30.3916 4.68468 30.1812 5.0135 30.1476 5.06418C30.1464 5.06582 30.1038 5.08173 30.061 5.15556C29.9575 5.29711 30.1448 5.06713 30.1476 5.06418C30.1263 5.09711 30.1392 5.1548 30.1662 5.13614C30.1816 5.12481 30.2754 5.00375 30.2823 4.99922C30.4186 4.92992 30.493 4.93988 30.4961 5.03653C30.4932 5.0417 30.3828 5.17454 30.3815 5.18019C30.3611 5.26136 30.5156 5.11257 30.6193 5.03424C30.7233 4.95613 30.7154 5.00503 30.5368 5.24581C30.5772 5.23222 30.518 5.35484 30.4802 5.42782C30.4431 5.50005 30.6638 5.24193 30.6694 5.23786C30.7365 5.18825 30.7629 5.18204 30.7718 5.19613C30.7856 5.21885 30.7518 5.29625 30.7643 5.33197C30.774 5.35872 30.8423 5.35301 30.8867 5.34249C30.9221 5.33353 30.8812 5.40264 30.9287 5.37725C30.9371 5.37138 31.0308 5.25781 31.0361 5.25281C31.1707 5.1303 30.9212 5.40457 30.8814 5.45756C30.7372 5.6499 30.6605 5.75187 30.7551 5.68449C30.778 5.66752 31.136 5.28365 31.1692 5.26342C31.2058 5.24446 31.0774 5.38291 31.1193 5.35866C31.1236 5.35564 31.1973 5.27164 31.2038 5.27823C31.2233 5.32508 31.2157 5.40932 31.2585 5.43149C31.2641 5.43484 31.3814 5.28813 31.3919 5.29021C31.4388 5.302 31.4701 5.34004 31.4438 5.43292C31.4364 5.45675 31.3458 5.55033 31.3217 5.58111C31.1788 5.76453 31.4121 5.52741 31.4235 5.51983C31.5888 5.44757 31.4294 5.71678 31.5839 5.65854C31.5927 5.65481 31.8602 5.402 31.6633 5.64712C31.6499 5.66383 31.4487 5.91344 31.6028 5.75791C31.6124 5.74821 31.7142 5.61988 31.7166 5.6398C31.7171 5.66273 31.8082 5.59728 31.7039 5.74765C31.6706 5.7955 31.4717 6.0455 31.655 5.86826C31.6678 5.85576 32.0729 5.44229 31.8176 5.7481C31.775 5.79902 31.4953 6.1133 31.6562 5.96713C31.6874 5.93863 31.743 5.86286 31.7907 5.82674C31.8643 5.77132 31.8094 5.87187 31.9506 5.74599C31.9777 5.72154 32.1755 5.52131 32.0432 5.69136C32.0223 5.71812 31.926 5.82031 31.92 5.83768C31.8952 5.91669 31.9849 5.8703 31.9462 5.96584C31.9319 6.00008 31.7765 6.16647 31.7456 6.22042C31.7149 6.2743 31.6958 6.33479 31.7739 6.26611C31.8525 6.19683 32.0811 5.91443 32.1156 5.90489C32.2629 5.86683 32.186 6.08258 32.2288 6.16211C32.2352 6.17383 32.3128 6.07023 32.3288 6.07943C32.3865 6.1172 32.5544 6.10326 32.4176 6.34943C32.308 6.5468 32.1521 6.63508 32.1204 6.7266C32.107 6.76825 32.3892 6.47176 32.4079 6.45703C32.5271 6.38189 32.4273 6.54099 32.4925 6.52161C32.5081 6.51442 32.6118 6.3839 32.6221 6.38162C32.6578 6.37367 32.6258 6.44634 32.6503 6.44986C32.6619 6.45059 32.7454 6.35149 32.7461 6.3636C32.7468 6.39411 32.7244 6.44798 32.6598 6.55392C32.6524 6.56504 32.5386 6.67887 32.5459 6.6936C32.5581 6.71723 32.5046 6.82783 32.6065 6.75231C32.6373 6.72929 32.8305 6.50209 32.7105 6.67027C32.6837 6.70733 32.4513 6.9742 32.6674 6.75319C32.7043 6.71563 32.9999 6.42172 32.8391 6.63717C32.7965 6.69416 32.6183 6.92246 32.6527 6.89745C32.6585 6.89275 32.7573 6.76701 32.7746 6.75907C32.8306 6.73809 32.8443 6.77093 32.8995 6.75176C32.9164 6.74271 33.0097 6.6156 33.0298 6.60877C33.0815 6.59752 33.086 6.65565 33.0768 6.71563C33.0729 6.73819 32.9792 6.83878 32.9703 6.85078C32.826 7.04496 33.0395 6.80208 33.0572 6.78779C33.1517 6.71816 33.0702 6.84762 33.1149 6.834C33.1273 6.8302 33.2237 6.70713 33.234 6.69684C33.3321 6.60114 33.145 6.8103 33.1321 6.84043C33.0964 6.92463 33.1264 6.93293 33.1594 6.93421C33.1719 6.93379 33.2753 6.79212 33.2876 6.78944C33.3103 6.79247 33.3294 6.80076 33.3418 6.81634C33.3619 6.84172 33.366 6.88584 33.351 6.95276C33.3447 6.97486 33.2549 7.07793 33.2361 7.10428C33.1075 7.28547 33.3119 7.06368 33.3349 7.04228C33.4333 6.95226 33.3629 7.05247 33.3911 7.04648C33.5317 7.01182 33.5671 7.14343 33.6025 7.23488C33.6485 7.35295 33.6363 7.51018 33.7407 7.54589C33.7492 7.54502 33.851 7.40012 33.8607 7.39592C33.9459 7.40451 33.961 7.50596 34.052 7.5066C34.0593 7.50686 34.1561 7.36032 34.1718 7.35468C34.2033 7.34454 34.2183 7.36769 34.2011 7.42478C34.1917 7.45344 34.093 7.56663 34.0865 7.59196C34.0719 7.65062 34.0852 7.67531 34.1201 7.66661C34.1354 7.66239 34.2295 7.50747 34.2416 7.51258C34.3239 7.54984 34.4109 7.57495 34.3509 7.81716C34.3468 7.83382 34.1417 8.13786 34.1929 8.08784C34.2518 8.00516 34.32 7.90722 34.3824 7.81849C34.484 7.83742 34.5294 7.9358 34.5843 8.02237C34.5869 8.00981 34.5926 7.99902 34.6004 7.99068C34.6396 7.95038 34.7382 7.95696 34.755 7.90449C34.7559 7.89856 34.6001 7.80462 34.597 7.79498C34.6192 7.72054 34.6756 7.6716 34.8226 7.67846C34.8391 7.68095 34.9695 7.77542 34.9939 7.78296C35.1322 7.81967 35.4458 7.93744 34.8559 7.52287C34.8957 7.5129 34.9403 7.4982 35.0759 7.55379C35.164 7.58994 35.3065 7.70215 35.2537 7.64207C35.2387 7.62705 35.1085 7.54969 35.0989 7.53524C35.0676 7.4778 35.1273 7.47759 35.0757 7.40781C35.0629 7.39242 34.9467 7.31713 34.9259 7.30155C34.7612 7.17711 35.0602 7.34325 35.0839 7.35226C35.2607 7.41825 35.2161 7.35407 35.2404 7.32471C35.2461 7.31796 35.0814 7.22259 35.0812 7.21236C35.0824 7.16098 35.1209 7.13157 35.2145 7.14164C35.2366 7.14494 35.3652 7.23843 35.3838 7.24532C35.4575 7.26934 35.2049 7.10037 35.2696 7.11948C35.2841 7.12418 35.3987 7.19993 35.412 7.20772C35.6167 7.3271 35.3444 7.13864 35.335 7.1288C35.2718 7.04245 35.5791 7.21386 35.5577 7.15656C35.5548 7.14951 35.4063 7.06327 35.4038 7.04771C35.4081 6.95276 35.4948 6.9067 35.6565 6.91524C35.6813 6.9165 35.7863 6.99556 35.801 7.0043C36.0183 7.13074 35.7458 6.94255 35.732 6.92863C35.6736 6.85201 35.9269 6.98091 35.6001 6.74154C35.7925 6.70339 35.678 6.46497 36.0556 6.5493C36.0639 6.55288 36.1994 6.6443 36.2075 6.64558C36.308 6.66186 36.0859 6.52717 35.8348 6.33032C35.7716 6.28077 36.1051 6.47247 36.1298 6.48638C36.2195 6.537 36.4204 6.6771 36.4423 6.689C36.5841 6.75934 35.9009 6.31604 35.9069 6.2901C35.9085 6.29018 36.0339 6.37682 36.0478 6.38337C36.0907 6.40351 36.0451 6.36444 36.0923 6.38755C36.2021 6.44166 36.5385 6.6562 36.3561 6.50992C36.3319 6.4907 35.9396 6.23839 35.9697 6.23105C35.9822 6.22834 35.9976 6.19103 36.0287 6.19779C36.0601 6.20502 36.1828 6.29442 36.1887 6.29732C36.3717 6.38108 36.4346 6.43662 36.6896 6.58541C36.9431 6.73329 36.3543 6.3525 36.2922 6.3045C36.2318 6.25751 36.3808 6.32804 36.4315 6.35478C36.4823 6.38152 36.5588 6.43974 36.5886 6.45358C36.7822 6.54219 36.3047 6.25103 36.2174 6.1813C36.0114 6.0167 36.4567 6.28556 36.5118 6.2943C36.5239 6.29529 36.428 6.23743 36.419 6.2255C36.3956 6.1841 36.5369 6.26215 36.4263 6.16022C36.4076 6.14303 36.1588 5.95523 36.3572 6.06987C36.3859 6.08658 36.4905 6.16146 36.5202 6.17014C36.5642 6.18247 36.6016 6.17661 36.5736 6.14028C36.5512 6.11276 36.3688 6.0078 36.4315 6.03241C36.4605 6.04443 36.558 6.122 36.6018 6.13699C36.6449 6.15151 36.6569 6.12449 36.6596 6.11264C36.6608 6.1005 36.5259 6.01802 36.5149 6.00988C36.4669 5.97204 36.4141 5.91382 36.4126 5.90953C36.4486 5.81884 36.724 5.89492 36.6998 5.76737C36.6933 5.75504 36.553 5.66736 36.5512 5.66493C36.5085 5.60758 36.8747 5.87087 37.0108 5.93975C36.7201 5.75164 36.7777 5.77764 36.7555 5.74221C36.7436 5.72456 36.6303 5.65475 36.6193 5.6466C36.4564 5.5247 36.68 5.66164 36.7267 5.68971C36.8962 5.79112 36.7068 5.65583 36.8196 5.72323C36.931 5.78982 37.0843 5.90549 37.0952 5.89362C36.9943 5.82158 36.7181 5.65418 36.6803 5.61415C36.541 5.46465 36.8026 5.52922 36.8463 5.51135C36.8896 5.49355 36.877 5.47087 36.9267 5.47633C37.0169 5.48652 36.8088 5.36654 36.7307 5.28471C36.6538 5.20364 37.139 5.53822 37.248 5.60573C37.3554 5.67233 37.2493 5.59823 37.31 5.63298C37.3704 5.66767 37.437 5.72196 37.4648 5.72804C37.4923 5.7338 37.3197 5.58621 37.2107 5.50983C36.9798 5.34816 36.726 5.1968 36.8281 5.23065C36.8402 5.23713 36.96 5.32102 36.977 5.32522C37.1041 5.35001 37.1372 5.31384 37.2528 5.33098C37.269 5.33384 37.4057 5.43134 37.4203 5.43676C37.5349 5.46412 37.2839 5.31565 37.0257 5.11839C37.3827 5.36058 37.6102 5.49515 37.6289 5.47156C37.6345 5.45483 37.4798 5.35461 37.3774 5.27273C37.3463 5.24777 37.461 5.30774 37.3888 5.25709C37.1516 5.0906 36.8744 4.92275 36.9996 4.96768C37.0109 4.97391 37.1294 5.05666 37.1445 5.0616C37.2138 5.07054 36.965 4.90166 36.9519 4.85303C36.9429 4.81493 37.1205 4.87678 37.163 4.86998C37.3332 4.98341 37.4189 5.0333 37.4395 5.03932C37.4662 5.04601 37.3749 4.97123 37.219 4.85951C37.241 4.85061 37.237 4.82237 37.2854 4.8325C37.3024 4.8363 37.4171 4.91772 37.4302 4.92545C37.6331 5.04597 37.37 4.86198 37.3593 4.84994C37.2821 4.74227 37.5074 4.8487 37.3315 4.67879C37.3247 4.67234 37.0471 4.48307 37.2572 4.60944C37.2716 4.61817 37.3894 4.715 37.4122 4.70646C37.4338 4.69558 37.6034 4.76549 37.4902 4.654C37.4614 4.62632 37.2473 4.46095 37.4312 4.56772C37.4564 4.58244 37.5362 4.6383 37.5823 4.66603C37.7282 4.75366 37.4496 4.55991 37.6949 4.71263C37.9402 4.86595 38.1317 4.96941 37.9822 4.83502C37.978 4.83109 37.7629 4.67808 37.7658 4.66957C37.7793 4.66198 37.835 4.67571 37.8437 4.66317C37.8469 4.6568 37.712 4.57031 37.7042 4.5639C37.6539 4.47227 37.7972 4.52652 37.879 4.52112C37.8925 4.51969 37.7219 4.36917 37.8805 4.45535C38.056 4.55056 38.7235 5.0287 38.5877 4.88131C38.5309 4.82013 37.6846 4.21634 38.1491 4.49208C38.075 4.36478 38.3363 4.47057 38.2164 4.31018C38.2113 4.30317 37.9897 4.13783 37.9837 4.12548C37.995 4.12122 38.1094 4.19418 38.1216 4.19353C38.1719 4.1915 38.0938 4.10178 38.1247 4.08842C38.1377 4.08386 38.2471 4.16481 38.2629 4.16036C38.2767 4.15418 38.1317 4.04059 38.2149 4.0771C38.2789 4.10613 38.5928 4.31305 38.6401 4.32632C38.3373 4.10849 38.3503 4.10274 38.2833 4.02738C38.27 4.01268 38.1614 3.93944 38.1498 3.92861C38.1016 3.8841 38.193 3.93925 38.1388 3.89032C38.1253 3.8781 38.0215 3.80353 38.0051 3.7896C37.8624 3.66921 38.106 3.81846 38.1489 3.84637C38.3105 3.9467 38.1822 3.84373 38.2486 3.87836C38.3148 3.91425 38.3804 3.98276 38.4242 4.00013C38.5142 4.03548 38.5168 3.99854 38.5373 3.98202C38.5396 3.9723 38.4124 3.87971 38.4048 3.87238C38.3873 3.83375 38.5033 3.90166 38.3623 3.77201C38.3418 3.7532 38.3156 3.73003 38.2831 3.70209C38.9774 4.23731 38.2259 3.63964 38.38 3.72451C38.3925 3.73158 38.7235 3.98367 38.7647 4.02997C38.8043 4.07531 38.6948 4.00817 38.7598 4.07838C38.7676 4.08639 38.8162 4.13019 38.8732 4.18175C38.9613 4.26116 39.0707 4.35806 39.0826 4.36934C39.2153 4.49796 38.7296 4.11214 38.7021 4.09194C38.4098 3.87321 38.7214 4.14409 38.7446 4.16782C38.8358 4.26659 38.7552 4.22946 38.8193 4.3018C38.8606 4.34924 39.1849 4.59071 39.1704 4.59141C39.1182 4.58929 38.6545 4.27028 39.0335 4.58306C39.1153 4.65036 39.4769 4.90401 39.1809 4.71988C39.162 4.70767 38.8922 4.53724 39.0498 4.66207C39.0695 4.67773 39.1733 4.75163 39.1833 4.76084C39.2336 4.81069 39.145 4.75948 39.1775 4.79757C39.2105 4.83633 39.2613 4.89192 39.2175 4.87856C39.1899 4.86991 38.9862 4.74159 38.9353 4.71165C38.7899 4.6249 39.0099 4.79447 38.837 4.68347C38.6625 4.57178 38.4139 4.37811 38.2917 4.31967C38.5672 4.51244 38.8498 4.71254 39.1267 4.90659C39.0921 4.93525 38.9767 4.91141 38.9632 4.95628C38.9618 4.96217 39.1136 5.05978 39.1165 5.0691C39.1245 5.10638 39.0077 5.05139 39.034 5.10234C39.0551 5.14296 39.201 5.26806 39.2287 5.31367C38.9033 5.10899 38.9927 5.20792 38.9506 5.20816C38.9352 5.20752 38.8514 5.15052 38.8203 5.13655C38.7051 5.08582 38.9913 5.26691 39.0328 5.30233C39.2073 5.45105 38.5725 5.02364 38.5679 5.05832C38.5749 5.06571 38.8959 5.30621 38.9159 5.32271C39.0438 5.42952 38.7976 5.24658 38.7649 5.23713C38.7079 5.22239 38.6195 5.17959 38.7055 5.2665C38.7324 5.29296 38.9329 5.44798 38.7623 5.34905C38.7397 5.33595 38.6277 5.25816 38.6203 5.25489C38.4982 5.20328 38.8493 5.44203 38.9608 5.53459C39.0719 5.62771 38.8163 5.48116 38.7431 5.43783C38.5549 5.32574 38.6704 5.37738 38.6529 5.3649C38.4456 5.21686 38.4722 5.25377 38.4477 5.25241C38.0999 5.02133 38.111 5.04998 38.4231 5.25149C38.4567 5.27311 38.4306 5.24399 38.4477 5.25241C38.7818 5.48979 38.8145 5.53528 38.4843 5.34053C38.3297 5.24931 38.1614 5.12494 38.2075 5.19179C38.2291 5.22261 38.4716 5.37821 38.53 5.43182C38.6624 5.55363 38.42 5.43605 38.4391 5.4824C38.4467 5.49963 38.5802 5.57786 38.5913 5.59336C38.6161 5.6324 38.5092 5.58182 38.5484 5.63118C38.5536 5.63669 38.6883 5.72092 38.6906 5.72924C38.6826 5.77169 38.592 5.75435 38.5537 5.77968C38.5502 5.78197 38.546 5.78519 38.5436 5.78835C38.5315 5.80687 38.5837 5.88936 38.5557 5.89906C38.5068 5.91608 38.281 5.82529 38.3097 5.88693C38.3288 5.92675 38.4689 6.01351 38.5571 6.08316C38.7277 6.21808 38.3846 6.03028 38.3318 6.00074C38.3283 5.99665 38.305 5.96088 38.2325 5.92464C38.0859 5.83471 38.3207 5.993 38.3318 6.00074C38.2977 5.98199 38.2461 5.99402 38.2675 6.01778C38.2809 6.03149 38.4075 6.11348 38.4141 6.12038C38.502 6.24084 38.5064 6.30586 38.416 6.31032C38.4061 6.3047 38.2687 6.21255 38.2629 6.21119C38.1817 6.19375 38.3485 6.32714 38.4405 6.41804C38.5325 6.5089 38.4866 6.50257 38.2282 6.35024C38.2484 6.38599 38.1238 6.33631 38.0482 6.30526C37.9723 6.27414 38.2546 6.46334 38.2595 6.46819C38.4147 6.6222 38.2393 6.53702 38.1894 6.55724C38.1655 6.56686 38.1832 6.62811 38.2014 6.66795C38.2163 6.69967 38.1445 6.66572 38.1772 6.70718C38.1845 6.71456 38.3096 6.79509 38.3141 6.79882C38.4537 6.91273 38.1519 6.70267 38.0937 6.66896C37.8853 6.54871 37.7732 6.48614 37.8542 6.56812C37.8759 6.58908 38.3094 6.89353 38.3298 6.91903C38.3548 6.95107 38.1991 6.8429 38.2296 6.87925C38.232 6.88223 38.3266 6.94421 38.3226 6.95097C38.2825 6.97111 38.2016 6.96965 38.1884 7.01002C38.1863 7.01531 38.3434 7.11083 38.3455 7.12155C38.3432 7.16529 38.3149 7.19557 38.2218 7.17874C38.1977 7.1736 38.0911 7.09715 38.0577 7.07758C37.8579 6.96094 38.1252 7.15739 38.1347 7.16728C38.235 7.31367 37.9479 7.18821 38.0331 7.32653C38.041 7.33641 38.3285 7.557 38.0604 7.39679C38.0425 7.38608 37.7664 7.22156 37.943 7.35059C37.954 7.35866 38.0958 7.44218 38.0762 7.44547C38.0547 7.44799 38.1336 7.5268 37.9712 7.44332C37.9186 7.41622 37.6458 7.25418 37.8487 7.4083C37.8689 7.42327 38.329 7.7567 37.9925 7.54837C37.9365 7.51363 37.5853 7.28244 37.7535 7.41808C37.7867 7.44452 37.8697 7.49037 37.9127 7.5314C37.9787 7.5943 37.8735 7.55103 38.0192 7.67061C38.0465 7.69283 38.2755 7.86062 38.0877 7.7522C38.0581 7.73513 37.9429 7.65563 37.9256 7.65185C37.8457 7.63593 37.9064 7.71441 37.8079 7.68699C37.7723 7.67658 37.5867 7.54887 37.5291 7.52471C37.4718 7.50094 37.4099 7.48849 37.4904 7.55532C37.5717 7.62253 37.8825 7.80957 37.897 7.84037C37.9594 7.97381 37.7391 7.92278 37.6706 7.97068C37.6632 7.97882 37.7724 8.03964 37.7677 8.05578C37.7418 8.11367 37.7834 8.27004 37.5229 8.16506C37.3145 8.081 37.2035 7.94408 37.1101 7.92266C37.0657 7.91281 37.4022 8.15318 37.4173 8.16786C37.5097 8.27325 37.3401 8.1931 37.3694 8.25312C37.3778 8.26666 37.5218 8.35334 37.5254 8.36278C37.5386 8.39568 37.4651 8.37272 37.4654 8.39613C37.4686 8.40813 37.5729 8.47539 37.5633 8.47823C37.5338 8.48189 37.4775 8.466 37.3651 8.41515C37.3519 8.40815 37.225 8.31229 37.2123 8.32089C37.1914 8.33495 37.0759 8.29357 37.1655 8.38353C37.1929 8.41068 37.4422 8.57381 37.2603 8.47569C37.2216 8.45469 36.9251 8.25691 37.1733 8.44168C37.2161 8.47369 37.5457 8.72704 37.3123 8.59488C37.2502 8.55969 36.9989 8.4095 37.0322 8.44249C37.0421 8.45017 37.1751 8.5308 37.1838 8.54567C37.2122 8.59717 37.1825 8.61216 37.2091 8.66313C37.2167 8.67694 37.358 8.75678 37.3673 8.77555C37.3854 8.82424 37.329 8.83446 37.269 8.83164C37.2457 8.82928 37.1381 8.75044 37.1234 8.74169C36.914 8.62121 37.1787 8.80228 37.1964 8.81899C37.2778 8.90383 37.1385 8.83808 37.1584 8.8809C37.1646 8.893 37.2958 8.97384 37.3079 8.98326C37.4139 9.06896 37.1863 8.90841 37.1539 8.89793C37.0671 8.87167 37.0618 8.90163 37.0647 8.93367C37.066 8.94545 37.2204 9.03356 37.2238 9.04504C37.2229 9.10371 37.1796 9.13844 37.0696 9.12434C37.0485 9.12136 36.9344 9.03984 36.9066 9.02407C36.7128 8.9139 36.9578 9.0966 36.9798 9.11604C37.0793 9.20459 36.9718 9.14529 36.9815 9.17273C37.0303 9.30683 36.9038 9.35297 36.8165 9.39499C36.7048 9.44822 36.5485 9.4457 36.5216 9.54955C36.5198 9.55604 36.679 9.65217 36.6795 9.65905C36.6782 9.74334 36.5794 9.76257 36.5847 9.85301C36.5857 9.86051 36.7373 9.9483 36.7437 9.96341C36.7555 9.99406 36.7344 10.009 36.6767 9.99537C36.648 9.98824 36.5281 9.89493 36.5025 9.89014C36.443 9.87896 36.4198 9.89336 36.4311 9.92736C36.438 9.94286 36.5962 10.0281 36.5912 10.0396C36.5889 10.0457 36.5861 10.0519 36.5839 10.0579C36.5543 10.1353 36.5214 10.2042 36.2971 10.1569C36.2804 10.1533 35.969 9.96228 36.0194 10.0092C36.1047 10.0646 36.2062 10.1295 36.2977 10.1882C36.2799 10.3243 36.1081 10.3604 36.0265 10.4535C36.0327 10.4623 36.1917 10.5531 36.1862 10.5609C36.1533 10.6082 36.1704 10.68 35.9771 10.627C35.9542 10.619 35.6688 10.4418 35.7036 10.4829C35.7102 10.4911 35.7373 10.5343 35.7967 10.5782C35.8071 10.5854 35.9387 10.6615 35.9436 10.6729C35.9414 10.723 35.8876 10.7424 35.787 10.722C35.769 10.7175 35.6264 10.6277 35.6134 10.6246C35.5244 10.603 35.6148 10.6906 35.5083 10.5979C35.4799 10.6812 35.425 10.7806 35.4934 10.8343C35.5069 10.8407 35.6405 10.798 35.6558 10.7955C35.843 10.7763 35.5563 10.8457 35.5223 10.876C35.3936 10.9959 35.4037 11.0863 35.4791 11.1491C35.5132 11.1749 35.7848 11.0683 35.6364 11.143C35.6262 11.1482 35.472 11.1795 35.4582 11.1929C35.4276 11.2225 35.4643 11.255 35.4571 11.2743C35.4413 11.3118 35.4435 11.3168 35.4493 11.3475C35.4496 11.3494 35.4499 11.3523 35.4499 11.3543C35.4505 11.3979 35.3957 11.4623 35.4383 11.4993C35.4508 11.5065 35.601 11.4597 35.6318 11.4697C35.662 11.4804 35.6586 11.527 35.6246 11.5486C35.5907 11.5703 35.4677 11.5897 35.4386 11.5982C35.2058 11.6674 35.538 11.6441 35.5524 11.6477C35.7125 11.7214 35.54 11.8371 35.5597 11.9273C35.5724 11.9831 35.6279 12.0337 35.6502 12.0874C35.6546 12.0978 35.6576 12.1087 35.6588 12.12C35.6656 12.2 35.5978 12.2869 35.6296 12.3605C35.6328 12.3684 35.8132 12.3173 35.8188 12.3264C35.8644 12.4264 35.8681 12.5367 35.7688 12.6715C35.7562 12.685 35.5957 12.709 35.5752 12.7246C35.4578 12.8204 35.1634 12.9966 35.8744 12.8715C35.8572 12.922 35.8406 12.9831 35.7082 13.0556C35.6229 13.102 35.4433 13.1187 35.5245 13.1325C35.5441 13.1351 35.6939 13.0906 35.7107 13.0976C35.7771 13.1292 35.7395 13.1904 35.8292 13.2162C35.851 13.2201 35.9844 13.186 36.0097 13.1828C36.2156 13.1574 35.892 13.2701 35.869 13.2835C35.7027 13.3846 35.7838 13.4124 35.7922 13.4691C35.8006 13.4793 35.9752 13.4243 35.9843 13.4347C36.0255 13.4929 36.0244 13.5636 35.9566 13.6457C35.9405 13.6639 35.7804 13.6872 35.7649 13.6977C35.6989 13.7442 35.9967 13.6831 35.9407 13.7264C35.9289 13.7354 35.7926 13.7627 35.7775 13.7672C35.6625 13.8019 35.6894 13.8041 35.7457 13.7982C35.8017 13.7928 35.8871 13.7789 35.8912 13.7804C36.0025 13.8173 35.6657 13.9303 35.726 13.9752C35.7348 13.9804 35.9017 13.9306 35.9138 13.9481C35.9872 14.0669 35.9654 14.2219 35.8459 14.373C35.8257 14.3958 35.6978 14.3997 35.6798 14.4033C35.433 14.4596 35.7653 14.4254 35.7829 14.4301C35.8815 14.4705 35.6054 14.553 36.0114 14.5397C35.9084 14.7587 36.0992 14.9167 35.8768 15.1191C35.8555 15.1369 35.8313 15.1575 35.8022 15.1771C35.7983 15.18 35.6332 15.1957 35.6239 15.2016C35.5383 15.2723 35.7954 15.2289 36.1157 15.2249C36.1941 15.2238 35.8199 15.3052 35.7917 15.3122C35.6901 15.336 35.4415 15.3592 35.4218 15.3652C35.2712 15.4138 36.083 15.2975 36.0912 15.3317C36.0865 15.3334 35.9419 15.349 35.9245 15.3542C35.879 15.3702 35.9393 15.3721 35.8891 15.3885C35.7723 15.4265 35.3778 15.4914 35.6124 15.4906C35.6437 15.4902 36.1039 15.4176 36.0884 15.4525C36.0813 15.4668 36.0967 15.5225 36.0694 15.5432C36.0414 15.5637 35.8914 15.5758 35.8851 15.578C35.6949 15.6516 35.6102 15.6476 35.3221 15.7144C35.0365 15.7809 35.7258 15.669 35.8061 15.6658C35.8836 15.663 35.7273 15.7197 35.6718 15.7366C35.6165 15.7532 35.5202 15.7582 35.4893 15.7702C35.2886 15.8494 35.8361 15.7373 35.949 15.7354C36.2139 15.7309 35.7057 15.8392 35.6601 15.8806C35.6489 15.8914 35.7649 15.8667 35.777 15.8729C35.8218 15.8982 35.6671 15.9418 35.819 15.9547C35.8466 15.9567 36.155 15.938 35.9338 15.9923C35.9018 16.0002 35.7735 16.0133 35.7459 16.0313C35.7062 16.0584 35.6833 16.0999 35.7293 16.115C35.7634 16.1262 35.9704 16.0738 35.9097 16.1041C35.8819 16.1177 35.7565 16.1218 35.7142 16.1456C35.6726 16.1692 35.6836 16.2108 35.6905 16.2269C35.6974 16.2426 35.8552 16.2101 35.8674 16.2095C35.9298 16.2079 36.0104 16.2267 36.0121 16.2299C36.0388 16.3197 35.9438 16.4254 35.9029 16.5221C35.881 16.573 35.8748 16.6217 35.9126 16.6643C35.9232 16.6734 36.089 16.6425 36.0922 16.6437C36.1669 16.6701 35.715 16.7071 35.5682 16.7543C35.91 16.7012 35.8504 16.7236 35.8917 16.7444C35.9119 16.7541 36.0412 16.7292 36.057 16.7279C36.2611 16.717 36.0036 16.7677 35.9504 16.7788C35.7566 16.8194 35.9891 16.7991 35.8603 16.8264C35.7319 16.8536 35.5362 16.8627 35.5409 16.8869C35.6645 16.8758 35.9828 16.8108 36.0382 16.8215C36.2443 16.8632 36.0126 17.0319 35.9948 17.0926C35.9773 17.1529 36.0024 17.1682 35.9631 17.2079C35.8935 17.2791 36.1279 17.2208 36.2422 17.2408C36.3546 17.2607 35.7681 17.3338 35.6433 17.3586C35.5194 17.3832 35.6481 17.369 35.5809 17.3863C35.513 17.4035 35.4251 17.403 35.4017 17.4226C35.3793 17.4419 35.6087 17.4495 35.7406 17.4339C36.0206 17.401 36.3094 17.3361 36.2134 17.3921C36.2039 17.3957 36.0526 17.413 36.0387 17.4241C35.9321 17.513 35.9359 17.5862 35.8437 17.6743C35.8306 17.6864 35.6592 17.7073 35.6491 17.7148C35.5513 17.7925 35.835 17.7226 36.1591 17.6974C35.7347 17.7651 35.4788 17.8289 35.483 17.8754C35.4864 17.9035 35.6711 17.8646 35.8049 17.8578C35.8431 17.8562 35.7219 17.8985 35.8082 17.8859C36.0947 17.8433 36.4105 17.7662 36.2928 17.8334C36.2863 17.8365 36.1354 17.8592 36.1222 17.868C36.1076 17.883 36.1193 17.8908 36.1449 17.8936C36.2133 17.9016 36.3782 17.8812 36.4116 17.9079C36.445 17.9376 36.2794 18.0381 36.2596 18.086C35.7866 18.1916 35.9042 18.2082 36.2334 18.1479C36.2263 18.1777 36.2518 18.2026 36.2135 18.2397C36.2004 18.2523 36.0672 18.2782 36.0486 18.2836C35.8226 18.3571 36.1368 18.2943 36.1535 18.2966C36.2899 18.3326 36.0637 18.4422 36.3136 18.4568C36.3226 18.4571 36.6525 18.3892 36.4169 18.4611C36.4003 18.4656 36.2472 18.4762 36.2416 18.5108C36.2371 18.5425 36.1082 18.6196 36.1883 18.6484C36.1988 18.6518 36.2135 18.6549 36.2321 18.6566C36.2719 18.6599 36.5436 18.6379 36.3371 18.695C36.3085 18.7027 36.2137 18.7159 36.1616 18.729C35.9954 18.7709 36.3315 18.721 36.0496 18.7852C35.7672 18.8496 35.5586 18.9149 35.762 18.9225C35.7721 18.9222 36.0313 18.8892 36.0337 18.9021C36.0303 18.9242 35.9811 18.9629 35.9856 18.9845C35.9882 18.9947 36.1482 18.9632 36.1554 18.9637C36.2593 19.0213 36.119 19.0967 36.0645 19.1808C36.0578 19.1956 36.2851 19.2105 36.11 19.2584C35.9437 19.3026 35.3136 19.3535 35.2674 19.3904C35.2606 19.3969 35.2696 19.4033 35.2974 19.4094C35.3821 19.4259 36.418 19.3606 35.8866 19.461C36.0283 19.5442 35.76 19.6551 35.9572 19.7354C35.9658 19.7389 36.2531 19.7321 36.2546 19.7423C36.2483 19.7579 36.1181 19.7755 36.1064 19.7869C36.0687 19.8347 36.1862 19.869 36.1717 19.9138C36.1662 19.9308 36.0257 19.9338 36.0182 19.9538C36.0117 19.9739 36.1972 19.9771 36.11 20.009C36.0423 20.0331 35.6667 20.0746 35.6229 20.1039C35.9961 20.0835 35.99 20.1021 36.0904 20.1292C36.1106 20.1342 36.2396 20.1204 36.2555 20.1225C36.3223 20.1306 36.2161 20.1478 36.2895 20.1549C36.308 20.1566 36.4351 20.149 36.4567 20.15C36.5896 20.1559 36.4856 20.1823 36.3961 20.2001L36.3895 20.1555C36.3546 20.1688 36.3214 20.1802 36.3076 20.1848C36.1267 20.2451 36.2906 20.2226 36.2212 20.2536C36.1509 20.2839 36.0549 20.2784 36.0138 20.305C35.9284 20.3589 35.9559 20.4002 35.9551 20.4381C35.9617 20.451 36.1233 20.4205 36.1272 20.422C36.1721 20.4501 35.9992 20.5011 36.3362 20.4843C35.4669 20.5971 36.4225 20.4958 36.2532 20.5597C36.2338 20.5649 35.8269 20.6144 35.765 20.6047C35.7032 20.5951 35.8295 20.5595 35.7332 20.5514C35.705 20.549 35.3211 20.5687 35.2977 20.5696C35.1146 20.5713 35.7287 20.4944 35.7623 20.4883C36.1237 20.4265 35.7074 20.4499 35.6758 20.4493C35.5404 20.4378 35.6209 20.3987 35.523 20.3904C35.4576 20.3857 35.0622 20.463 35.0714 20.451C35.0761 20.4452 35.0916 20.4386 35.1118 20.43C35.1156 20.3998 35.0827 20.3098 35.0906 20.2799C35.2225 20.2289 35.5827 20.1863 35.1576 20.1646C35.0521 20.1593 34.6101 20.1957 34.9563 20.1351C34.982 20.1308 35.293 20.0834 35.0926 20.0779C35.0673 20.0772 34.9395 20.0857 34.9266 20.0837C34.8554 20.0689 34.9563 20.0497 34.9067 20.0324C34.8562 20.015 34.7819 19.9958 34.8242 19.9706C34.8501 19.9555 35.0874 19.9223 35.1466 19.9118C35.3151 19.8821 35.0366 19.8802 35.2409 19.855C35.4466 19.8293 35.7619 19.8313 35.8931 19.7907C35.5576 19.8126 35.2129 19.834 34.8755 19.8556C34.8832 19.7905 34.987 19.7184 34.9668 19.6551C34.9625 19.6476 34.784 19.6708 34.7764 19.6629C34.7449 19.6299 34.8699 19.5874 34.8155 19.5549C34.7724 19.5296 34.5792 19.5169 34.5282 19.4922C34.6553 19.4733 34.7256 19.4572 34.7632 19.4426C34.8367 19.4176 34.7861 19.3998 34.806 19.3793C34.8169 19.3683 34.9195 19.3568 34.9522 19.3457C35.0715 19.3035 34.7357 19.3584 34.6818 19.3581C34.4527 19.3583 35.2139 19.2533 35.1893 19.2145C35.1728 19.2135 34.7781 19.2457 34.7529 19.2464C34.5858 19.2495 34.8939 19.2225 34.9219 19.2041C34.9727 19.1705 35.0663 19.1362 34.9437 19.124C34.9071 19.1203 34.6509 19.1405 34.843 19.0901C34.869 19.0834 35.0007 19.0622 35.0089 19.0588C35.1334 19.0016 34.7131 19.072 34.5675 19.0765C34.4231 19.0809 34.7061 18.9994 34.7887 18.978C35.0012 18.9231 34.8841 18.9749 34.9048 18.9723C35.1591 18.9396 35.1121 18.9231 35.1302 18.9009C35.5407 18.8266 35.5114 18.8056 35.147 18.879C35.1077 18.8869 35.147 18.894 35.1302 18.9009C34.7681 18.9492 34.6831 18.9395 34.9315 18.8673C34.9622 18.8596 34.9983 18.8515 35.0391 18.8418C35.2138 18.7999 35.4212 18.7721 35.3393 18.7505C35.3018 18.741 35.0204 18.8032 34.9412 18.8067C34.7626 18.8168 35.0138 18.7211 34.9641 18.6921C34.9456 18.6826 34.7985 18.7304 34.7788 18.726C34.7324 18.7116 34.8397 18.6607 34.7742 18.647C34.7635 18.6472 34.6098 18.6905 34.6057 18.6824C34.571 18.6194 34.6579 18.5287 34.6434 18.45C34.6359 18.4119 34.5324 18.3627 34.5415 18.3192C34.5489 18.2835 34.601 18.2353 34.6475 18.19C34.6989 18.1393 34.7434 18.0926 34.7081 18.0684C34.6645 18.0382 34.5032 18.077 34.3897 18.0809C34.1716 18.088 34.5418 17.9655 34.6021 17.9478C34.6041 17.9473 34.6484 17.9705 34.7288 17.9393C34.9006 17.8993 34.603 17.948 34.6021 17.9478C34.6396 17.936 34.666 17.8684 34.6332 17.861C34.6131 17.8577 34.4613 17.8869 34.4549 17.8844C34.3037 17.8251 34.251 17.7483 34.3096 17.6553C34.3157 17.653 34.4838 17.6282 34.4903 17.6238C34.5592 17.5644 34.3441 17.5683 34.2127 17.5486C34.0815 17.5294 34.1184 17.4914 34.4111 17.4236C34.3707 17.4 34.495 17.339 34.5708 17.3037C34.646 17.2681 34.309 17.314 34.3021 17.313C34.0816 17.2794 34.266 17.2144 34.2871 17.1428C34.2973 17.1089 34.2396 17.051 34.1978 17.0217C34.1643 16.999 34.2394 16.9715 34.1864 16.9541C34.1792 16.9517 34.0295 16.9755 34.0235 16.9753C33.8403 16.9732 34.209 16.9338 34.2736 16.9185C34.5078 16.8629 34.6321 16.8332 34.5158 16.8134C34.4855 16.8091 33.9591 16.8595 33.925 16.8492C33.8832 16.8351 34.0726 16.815 34.0239 16.8009C34.0162 16.8005 33.9356 16.8125 33.9128 16.808C33.9091 16.8075 33.9065 16.8061 33.9066 16.8046C33.9217 16.7514 33.9805 16.6823 33.9606 16.6267C33.9582 16.6191 33.779 16.656 33.7692 16.6464C33.7391 16.5969 33.7364 16.5363 33.8144 16.4692C33.8346 16.4526 33.9655 16.4411 34.0034 16.4322C34.2315 16.3783 33.8904 16.4049 33.8833 16.4018C33.7063 16.3287 33.9979 16.2043 33.8369 16.1235C33.8197 16.1196 33.4628 16.1319 33.7664 16.0646C33.7873 16.0599 34.1006 15.9907 33.8813 16.0071C33.865 16.0088 33.7091 16.045 33.7199 16.0224C33.7332 15.9986 33.6188 15.9801 33.794 15.9232C33.8503 15.9048 34.1614 15.8354 33.9052 15.8454C33.8815 15.847 33.3118 15.8874 33.7017 15.8132C33.767 15.8008 34.1831 15.7429 33.9652 15.7406C33.9227 15.7402 33.8302 15.7654 33.7696 15.7566C33.6773 15.7432 33.7826 15.6923 33.5922 15.685C33.5561 15.6842 33.2735 15.698 33.4843 15.6478C33.518 15.64 33.6573 15.6256 33.6715 15.6128C33.7393 15.5517 33.6397 15.5097 33.729 15.4415C33.7611 15.4174 33.9885 15.3996 34.0466 15.3723C34.0779 15.3574 34.1074 15.3353 34.1117 15.318C34.1148 15.3046 34.0992 15.2941 34.0517 15.2906C33.9453 15.283 33.5888 15.3432 33.5561 15.3166C33.4173 15.2 33.6161 15.0558 33.6367 14.9504C33.6397 14.9349 33.5137 14.9602 33.5074 14.9394C33.4892 14.8567 33.3558 14.7681 33.6195 14.6696C33.8302 14.588 34.0058 14.6228 34.0885 14.5703C34.1278 14.544 33.7085 14.5923 33.6944 14.5909C33.5547 14.5726 33.7326 14.5104 33.6687 14.4813C33.6529 14.4762 33.4894 14.5158 33.48 14.5105C33.4468 14.4937 33.5154 14.4541 33.4982 14.4336C33.4874 14.4254 33.3633 14.452 33.3695 14.4412C33.3871 14.4142 33.4371 14.3832 33.5508 14.3342C33.5612 14.3297 33.7238 14.3095 33.7265 14.2904C33.7282 14.277 33.7495 14.2572 33.7624 14.2385C33.7786 14.2142 33.78 14.1902 33.7081 14.1851C33.6685 14.1826 33.378 14.2469 33.5733 14.1786C33.6149 14.164 33.9645 14.0924 33.6577 14.1324C33.6064 14.139 33.1881 14.1842 33.4455 14.1018C33.5138 14.08 33.7934 13.9992 33.7474 13.9957C33.7375 13.9962 33.5847 14.0386 33.567 14.0311C33.5075 14.0035 33.5142 13.9587 33.4568 13.9294C33.4409 13.9216 33.2824 13.9746 33.2635 13.962C33.2129 13.9272 33.2409 13.8619 33.2811 13.8067C33.2966 13.7862 33.4336 13.7662 33.4479 13.7616C33.6792 13.688 33.3583 13.7509 33.3371 13.7492C33.2169 13.736 33.3591 13.6705 33.3118 13.6435C33.2971 13.6367 33.148 13.6783 33.1335 13.6797C32.9971 13.6899 33.2731 13.6419 33.3012 13.6218C33.3774 13.5657 33.356 13.5276 33.328 13.4952C33.3171 13.4834 33.1432 13.5397 33.1358 13.5286C33.0886 13.4635 33.0884 13.3834 33.1691 13.2897C33.1847 13.2721 33.3214 13.2495 33.3531 13.2393C33.565 13.1698 33.2666 13.2093 33.234 13.2099C33.0985 13.2104 33.2146 13.171 33.187 13.1501C33.0454 13.0484 33.0878 12.8701 33.1087 12.7332C33.1127 12.7066 33.118 12.6792 33.1246 12.6535C33.1612 12.5057 33.2252 12.3691 33.1689 12.2384C33.1612 12.2301 32.9921 12.274 32.9794 12.2686C32.9111 12.158 32.9681 12.076 32.899 12.0185C32.8898 12.015 32.7264 12.0629 32.7102 12.0575C32.6993 12.0529 32.6927 12.0459 32.6909 12.0376C32.6879 12.0231 32.7003 12.0018 32.7311 11.9784C32.7557 11.9604 32.9038 11.9389 32.9253 11.9213C32.9731 11.88 32.9775 11.8447 32.9427 11.8219C32.9274 11.8124 32.7594 11.8769 32.751 11.8621C32.7037 11.7538 32.6421 11.6453 32.8326 11.4605C32.8432 11.4512 33.0181 11.395 33.0961 11.3634C33.095 11.359 33.0939 11.3545 33.093 11.35C33.002 11.3745 32.8996 11.4036 32.8056 11.4294C32.7319 11.3178 32.7437 11.1813 32.7467 11.0463C32.7479 10.9877 32.7474 10.9294 32.7374 10.8736C32.736 10.866 32.5598 10.9301 32.55 10.9184C32.5281 10.833 32.4516 10.7647 32.611 10.6233C32.628 10.609 32.9554 10.5176 32.8993 10.5066C32.8889 10.5047 32.8337 10.4796 32.7598 10.4906C32.7488 10.4924 32.6019 10.5431 32.5899 10.5339C32.5455 10.4689 32.5581 10.3827 32.63 10.2827C32.644 10.2664 32.808 10.2302 32.8178 10.2183C32.8203 10.2152 32.8209 10.2111 32.8228 10.2081C32.7901 10.1428 32.8021 9.99119 32.714 10.0044C32.7029 10.0063 32.6215 10.1287 32.6124 10.1392C32.4866 10.2763 32.6629 10.0403 32.6743 9.99789C32.7138 9.83515 32.6675 9.78515 32.5862 9.79642C32.5509 9.80354 32.4013 10.0526 32.4766 9.90537C32.4841 9.89243 32.5786 9.77187 32.5827 9.75457C32.5918 9.71563 32.5513 9.7203 32.5491 9.70344C32.545 9.67022 32.5411 9.66881 32.5245 9.65451C32.5025 9.63348 32.5195 9.55073 32.4727 9.5598C32.4609 9.56497 32.3737 9.69672 32.349 9.71204C32.3243 9.7269 32.3091 9.69911 32.3234 9.66319C32.3379 9.6271 32.4164 9.52923 32.4328 9.50428C32.5662 9.30065 32.3405 9.54898 32.3302 9.55485C32.1818 9.62138 32.243 9.42746 32.1847 9.38259C32.1399 9.34948 32.0525 9.36368 32.0153 9.324C31.972 9.27648 31.9829 9.17477 31.9254 9.14815C31.9178 9.148 31.8113 9.29375 31.8012 9.29455C31.7212 9.2592 31.6669 9.18961 31.6812 9.03789C31.6841 9.02132 31.793 8.9023 31.8023 8.87803C31.8299 8.7936 31.895 8.64725 31.8321 8.66883C31.7919 8.68325 31.6999 8.76632 31.5134 8.97525C31.504 8.93116 31.4899 8.88088 31.5585 8.74912C31.6027 8.6646 31.7312 8.53849 31.6652 8.58064C31.6501 8.59023 31.5563 8.71559 31.5397 8.72322C31.476 8.74553 31.4784 8.68153 31.3995 8.72201C31.3823 8.73197 31.2947 8.83973 31.2765 8.85851C31.1314 9.00557 31.3287 8.72522 31.3401 8.70239C31.4225 8.53252 31.3516 8.56595 31.3214 8.53539C31.314 8.52903 31.2002 8.68037 31.1892 8.67853C31.1338 8.66714 31.1057 8.62065 31.1237 8.52518C31.1298 8.50211 31.2407 8.38643 31.2481 8.36994C31.2778 8.30084 31.0775 8.52724 31.103 8.46417C31.1083 8.4509 31.2006 8.346 31.2098 8.33389C31.3518 8.14858 31.1342 8.38509 31.119 8.3972C31.0202 8.44695 31.2291 8.16212 31.1662 8.17285C31.158 8.17499 31.0515 8.3145 31.0365 8.31089C30.9356 8.2873 30.8938 8.18752 30.9178 8.02277C30.9214 7.99731 31.0163 7.90442 31.0265 7.89136C31.1815 7.69189 30.952 7.93971 30.939 7.94754C30.8518 7.99252 31.0129 7.75633 30.7285 8.0442C30.7053 7.83888 30.4424 7.90829 30.5692 7.53698C30.574 7.52899 30.6833 7.41003 30.6864 7.40096C30.7137 7.30059 30.5472 7.5012 30.3138 7.71965C30.2561 7.77337 30.4913 7.47114 30.509 7.44787C30.5717 7.36552 30.741 7.18582 30.7544 7.16707C30.843 7.03534 30.3054 7.64985 30.2805 7.63615C30.2885 7.62626 30.3818 7.52382 30.3907 7.5105C30.4162 7.47051 30.3726 7.51028 30.4017 7.46648C30.4702 7.36438 30.7291 7.06228 30.5568 7.21955C30.5346 7.24 30.2322 7.58952 30.2243 7.5614C30.2229 7.54786 30.1845 7.52423 30.1952 7.49324C30.2061 7.46226 30.312 7.35458 30.3157 7.34911C30.4224 7.17792 30.4865 7.12395 30.6691 6.89188C30.8507 6.66088 30.3905 7.18941 30.3335 7.24378C30.2775 7.29689 30.3677 7.15761 30.4009 7.11085C30.4343 7.06407 30.5032 6.99752 30.5206 6.96972C30.6334 6.78853 30.2797 7.21941 30.1967 7.29617C30.0025 7.47497 30.3294 7.07155 30.3442 7.01655C30.3472 7.00313 30.2736 7.09449 30.2618 7.09877C30.217 7.1135 30.3117 6.9837 30.1934 7.07696C30.1716 7.09456 29.9523 7.31053 30.0919 7.13036C30.1124 7.10411 30.2018 7.0122 30.2141 6.98315C30.2313 6.94055 30.23 6.90143 30.1895 6.92246C30.1592 6.93853 30.0283 7.10757 30.0606 7.04768C30.0756 7.02073 30.1655 6.93572 30.1861 6.89334C30.2062 6.85121 30.1794 6.83427 30.1671 6.82925C30.155 6.82462 30.0555 6.94757 30.0454 6.95781C30.002 6.99858 29.9375 7.04002 29.9299 7.04275C29.8383 6.98888 29.9437 6.71996 29.8075 6.72161C29.7954 6.72436 29.6939 6.84857 29.6872 6.85496C29.6197 6.89124 29.9325 6.56168 30.0171 6.43396C29.7934 6.69775 29.8248 6.64373 29.7858 6.65971C29.7663 6.6686 29.6844 6.77094 29.6734 6.7826C29.5308 6.92762 29.6944 6.72278 29.7277 6.68016C29.8496 6.52398 29.6902 6.69439 29.7712 6.59035C29.8516 6.48706 29.989 6.34901 29.9749 6.33748C29.8902 6.42833 29.6891 6.68459 29.6443 6.71542C29.5437 6.78514 29.535 6.72068 29.5418 6.64839C29.5459 6.59984 29.5562 6.54738 29.5506 6.52813C29.5352 6.48084 29.5096 6.48847 29.5197 6.43856C29.5367 6.34884 29.3965 6.54341 29.3056 6.61097C29.2156 6.67757 29.6013 6.2312 29.6796 6.13049C29.7574 6.03029 29.671 6.12722 29.711 6.07108C29.7515 6.01415 29.8157 5.95447 29.8235 5.92662C29.8309 5.89884 29.662 6.05346 29.5747 6.15381C29.3895 6.36608 29.2139 6.60259 29.2565 6.5033C29.2648 6.49124 29.3612 6.38155 29.3667 6.36491C29.4016 6.23931 29.3641 6.19864 29.3886 6.08287C29.3935 6.06556 29.504 5.9376 29.5089 5.92503C29.543 5.81145 29.3727 6.04867 29.1526 6.28745C29.4249 5.95351 29.5784 5.73843 29.5533 5.71463C29.5379 5.70035 29.4237 5.85018 29.3313 5.94648C29.3038 5.9751 29.3724 5.86591 29.3165 5.933C29.1313 6.1558 28.9418 6.41966 28.9947 6.29748C28.9981 6.29073 29.0967 6.17066 29.0998 6.15852C29.1117 6.0896 28.9235 6.32429 28.8731 6.33294C28.8352 6.33816 28.9074 6.16413 28.9007 6.12001C29.1932 5.73385 29.1011 5.80288 28.8911 6.06299C28.8827 6.03986 28.8534 6.04156 28.8648 5.99264C28.8695 5.97506 28.9552 5.86647 28.964 5.85319C29.094 5.65415 28.895 5.90894 28.8831 5.91765C28.7714 5.98937 28.883 5.76719 28.7063 5.93609C28.6955 5.94836 28.5049 6.21252 28.6348 6.00859C28.6439 5.99425 28.7448 5.87667 28.7339 5.85446C28.7247 5.83069 28.7922 5.66239 28.68 5.77167C28.6525 5.79833 28.4834 6.01467 28.5917 5.82988C28.6066 5.80466 28.6613 5.7268 28.6892 5.68077C28.7777 5.53375 28.5829 5.81179 28.7357 5.56623C28.8884 5.32027 28.9886 5.12634 28.8509 5.27457C28.8443 5.28234 28.6926 5.499 28.6864 5.49092C28.6776 5.47588 28.6889 5.41934 28.6749 5.41053C28.6679 5.40713 28.5845 5.54316 28.5777 5.55178C28.4845 5.60215 28.5334 5.45724 28.5189 5.3724C28.5134 5.3606 28.3745 5.53495 28.4493 5.37223C28.5064 5.24738 28.7323 4.88072 28.8201 4.70879C28.8156 4.70223 28.79 4.69541 28.7851 4.68912C28.8204 4.60918 28.8302 4.57103 28.788 4.61735C28.7332 4.67729 28.2338 5.59416 28.4472 5.09609C28.3224 5.18279 28.3865 4.90583 28.2361 5.04386C28.2295 5.04986 28.095 5.29791 28.0857 5.3002C28.0802 5.28748 28.1314 5.16726 28.1295 5.15354C28.1176 5.10206 28.0394 5.19198 28.0185 5.16168C28.0104 5.15044 28.0746 5.02758 28.066 5.01276C28.0557 4.99913 27.967 5.16109 27.9876 5.07211C28.0044 5.00364 28.1536 4.65783 28.1552 4.60761C27.9926 4.94348 27.9837 4.93194 27.9188 5.01015C27.9059 5.02678 27.8546 5.14488 27.8458 5.15823C27.8095 5.21401 27.847 5.11393 27.808 5.17603C27.7977 5.19305 27.7438 5.30551 27.733 5.32427C27.6398 5.4869 27.7404 5.22108 27.7587 5.17224C27.8263 4.99409 27.7495 5.14009 27.7707 5.0674C27.7918 4.99484 27.8487 4.9183 27.8555 4.87132C27.8693 4.77473 27.8262 4.77632 27.8032 4.75901C27.7934 4.753 27.7268 4.90762 27.7227 4.9126C27.6867 4.93555 27.729 4.80484 27.6224 4.97964C27.6165 5.00562 27.6033 5.0342 27.5876 5.06872C27.9071 4.25287 27.5458 5.1432 27.5804 4.96937C27.5843 4.95021 27.7298 4.56621 27.7594 4.51275C27.7892 4.46018 27.7598 4.58574 27.8179 4.50892C27.8232 4.50204 27.8526 4.44795 27.89 4.38444C27.8951 4.3899 27.9186 4.39456 27.9236 4.40029C27.9815 4.29578 28.054 4.16024 28.0632 4.14386C28.1545 3.98363 27.8853 4.54212 27.8712 4.57313C27.7212 4.90726 27.9241 4.54262 27.9421 4.51734C28.0239 4.40996 28.0099 4.4993 28.0726 4.42431C28.1136 4.37531 28.2863 4.01326 28.2946 4.02589C28.3159 4.0815 28.0856 4.59954 28.3342 4.17451C28.3876 4.08384 28.5719 3.67959 28.4499 4.00823ZM35.7126 20.217C35.6502 20.2266 35.6626 20.2373 35.7097 20.2418C35.7066 20.2532 35.7188 20.288 35.7174 20.2999C35.7561 20.2968 35.8179 20.2865 35.8794 20.268C35.8881 20.2654 35.8956 20.2625 35.9013 20.2603C35.9019 20.254 35.8962 20.236 35.8979 20.2302C35.9656 20.2139 35.8423 20.1974 35.7126 20.217ZM22.9085 4.19499C23.3969 4.11223 23.8171 4.12475 24.2109 4.16148C24.4079 4.1805 24.619 4.26059 24.8187 4.30752C24.941 4.33484 25.0816 4.35532 25.2275 4.3582C25.2733 4.35743 25.2752 4.2117 25.286 4.19956C25.4707 4.04803 25.3609 4.32909 25.4408 4.38968C25.7691 4.63421 26.0942 4.82491 26.3801 4.95726C26.5006 5.01278 26.5666 4.69899 26.5782 4.91159C26.5777 4.9265 26.4591 5.03144 26.4762 5.06596C26.5186 5.14392 26.6472 5.21257 26.6843 5.26149C26.7519 5.35294 26.7651 5.36468 26.8398 5.43685C26.9402 5.53643 26.9986 5.70558 27.1213 5.78607C27.1483 5.80292 27.2379 5.66497 27.2921 5.68287C27.3459 5.70108 27.4234 5.80832 27.4227 5.86517C27.4228 5.92275 27.3162 5.99154 27.299 6.01643C27.2708 6.05712 27.2623 6.08584 27.2661 6.10536C27.2796 6.18173 27.51 6.11657 27.5243 6.12334C27.8525 6.2977 27.8727 6.64369 28.0547 6.89011C28.1932 7.07711 28.3894 7.24218 28.5075 7.42808C28.6475 7.64991 28.6979 7.88251 28.8495 8.0849C28.8664 8.1049 29.0058 7.97637 29.0259 8.00182C29.2355 8.28015 29.404 8.58387 29.4777 8.94456C29.4828 8.98058 29.3221 9.0293 29.3195 9.07024C29.3157 9.32221 29.2038 9.77015 29.8888 9.51241C29.9384 9.65136 29.9995 9.81689 29.9379 10.0022C29.897 10.1197 29.7018 10.1394 29.8181 10.1904C29.8445 10.2016 29.9667 10.1 29.9958 10.1229C30.0735 10.1861 30.1165 10.2782 30.1719 10.3583C30.205 10.4067 30.2408 10.4471 30.2929 10.4836C30.3226 10.5024 30.4439 10.4308 30.4705 10.4268C30.6885 10.3987 30.4419 10.6676 30.4304 10.7016C30.3549 10.9737 30.4836 11.0746 30.5554 11.3174C30.5724 11.377 30.7332 11.2515 30.7568 11.3116C30.8002 11.4672 30.9003 11.661 30.7716 12.1119C30.5949 12.6236 30.1592 12.7704 30.0911 12.7734C30.0789 12.7753 30.0656 12.777 30.0533 12.7785C30.0003 12.7836 29.9657 12.6193 29.9369 12.6146C29.814 12.5947 29.9276 12.8784 29.8084 12.8633C29.7835 12.8593 29.7347 12.7284 29.7248 12.7163C29.5716 12.5255 29.6665 12.8526 29.6549 12.867C29.5148 13.0405 29.2667 12.7601 29.1141 12.8684C29.0952 12.8818 29.2019 13.0297 29.1444 13.0579C29.0682 13.0948 28.9877 13.1268 28.9054 13.154C28.5672 13.2669 28.1911 13.2823 27.8615 13.2094C27.7969 13.1956 27.8244 13.059 27.8184 13.0434C27.727 12.7993 27.7266 13.1414 27.7072 13.1564C27.5587 13.2643 27.3927 12.9933 27.318 13.4039C27.2482 13.3945 27.1793 13.3883 27.1106 13.3847C26.5235 13.3523 25.9569 13.5137 25.3862 13.1952C25.3781 13.1911 25.3903 13.023 25.3743 13.0149C25.1813 12.9229 25.2207 13.1834 25.0939 13.5024C25.0615 13.5809 24.9622 13.1971 24.9539 13.169C24.9229 13.0649 24.9541 12.8172 24.9438 12.7965C24.8572 12.6397 24.8716 13.4613 24.7526 13.4628C24.749 13.4614 24.7643 13.3092 24.7545 13.2941C24.7247 13.248 24.6924 13.307 24.6631 13.2556C24.6419 13.2186 24.6259 13.1544 24.6104 13.0914C24.5734 12.9477 24.5416 12.8043 24.4668 12.965C24.4527 12.995 24.4664 13.4616 24.3588 13.4393C24.3159 13.4295 24.1225 13.4321 24.0694 13.3994C24.018 13.3674 24.0589 13.2224 24.0569 13.2113C23.9217 13.0062 23.9791 12.9253 23.9246 12.6274C23.8723 12.3313 23.8531 13.0299 23.819 13.1074C23.7851 13.1836 23.69 13.0131 23.6693 12.9541C23.6484 12.8953 23.6864 12.802 23.6667 12.7681C23.535 12.5467 23.5762 13.1093 23.5194 13.2173C23.4088 13.4279 23.3648 13.1047 23.2922 12.9567C23.2758 12.9266 23.2585 12.9029 23.241 12.8933C23.2131 12.8789 23.23 12.9983 23.2034 13.0081C23.0977 13.044 23.0466 12.8795 22.9191 13.0187C22.8984 13.0439 22.7759 13.3428 22.7346 13.1103C22.7294 13.076 22.7645 12.9503 22.7246 12.9171C22.6639 12.8678 22.5509 12.8266 22.477 12.861C22.4224 12.8868 22.4551 13.1067 22.398 13.0331C22.3735 13 22.4407 12.8831 22.3932 12.8316C22.3455 12.7806 22.2103 12.7673 22.1584 12.7647C22.1077 12.7633 22.1134 12.9267 22.108 12.9374C22.0946 12.9609 22.0688 12.9846 22.043 13.0054C22.0745 13.0494 22.1087 13.0881 22.1447 13.1097C22.17 13.1302 22.2891 13.011 22.2963 13.011C22.4194 13.0525 22.0107 13.2649 21.94 13.4215C22.2033 13.1976 22.1836 13.2725 22.2631 13.3107C22.301 13.3278 22.3908 13.229 22.4047 13.2216C22.5983 13.1368 22.4188 13.3336 22.3841 13.3762C22.256 13.5303 22.4621 13.4144 22.3771 13.5178C22.2924 13.6214 22.1039 13.7005 22.1548 13.7585C22.2639 13.6961 22.4768 13.4448 22.5552 13.4552C22.7095 13.4769 22.8021 13.6196 22.8704 13.7732C22.9224 13.9001 22.965 14.0394 23.0114 14.1066C23.1106 14.2489 23.1669 14.2727 23.207 14.3756C23.2808 14.5613 23.4019 14.343 23.5589 14.3418C23.7151 14.3405 23.2691 14.7306 23.1927 14.8344C23.1174 14.9374 23.22 14.8553 23.187 14.9201C23.1541 14.985 23.0625 15.0175 23.0798 15.07C23.0989 15.1216 23.3488 15.0483 23.4511 14.9621C23.6686 14.7795 23.8263 14.5226 23.8475 14.6826C23.8458 14.6939 23.7265 14.791 23.7354 14.8212C23.8165 15.0578 23.9839 15.2169 24.0804 15.4425C24.0926 15.4741 23.9594 15.5859 23.9655 15.6057C24.0324 15.8108 24.1747 15.5472 24.4634 15.3689C24.1635 15.6792 24.033 15.9154 24.1378 16.01C24.1511 16.0219 24.1666 16.0257 24.1839 16.0219C24.2491 16.0076 24.3404 15.9014 24.4412 15.8498C24.4791 15.8309 24.4414 15.9672 24.5066 15.9072C24.7213 15.7094 24.8889 15.4264 24.9139 15.616C24.9142 15.625 24.799 15.7319 24.8076 15.7541C24.8747 15.8923 25.0812 15.6709 25.2197 15.7369C25.3278 15.7886 25.3745 16.0629 25.462 16.1697C25.1607 16.5493 25.3327 16.542 25.5772 16.3082C25.6381 16.3723 25.7238 16.4149 25.7637 16.5025C25.7766 16.533 25.6779 16.633 25.6717 16.6473C25.5762 16.8695 25.7961 16.639 25.8226 16.6349C26.0599 16.656 26.0542 16.9549 26.3523 16.8687C26.3635 16.8649 26.5636 16.5945 26.4664 16.826C26.459 16.8423 26.3199 16.9315 26.388 16.9931C26.4196 17.0215 26.4461 17.0891 26.484 17.1479C26.5287 17.217 26.5909 17.2744 26.6945 17.2413C26.7424 17.2257 26.9525 17.0397 26.8903 17.2517C26.8814 17.2808 26.822 17.3581 26.8034 17.4097C26.7458 17.5746 26.9434 17.2989 26.8292 17.5683C26.7149 17.8375 26.6885 18.0753 26.9055 17.9726C26.915 17.9659 27.0775 17.7544 27.11 17.7784C27.1626 17.8178 27.215 17.9138 27.2756 17.9461C27.3043 17.9592 27.366 17.8112 27.3748 17.8047C27.61 17.8291 27.6737 18.0329 27.8558 18.1973C27.8897 18.228 28.1002 18.0769 28.0973 18.2745C28.0958 18.4169 27.9083 18.7673 27.8575 18.9693C27.831 19.0757 27.8436 19.1423 27.9418 19.1132C28.0598 19.0807 28.5796 18.1704 28.5048 18.726C28.8314 18.7204 28.9881 19.0803 29.3382 19.0073C29.354 19.0042 29.4935 18.7497 29.5227 18.76C29.564 18.782 29.5424 18.9194 29.5707 18.9392C29.6161 18.9722 29.6683 18.9821 29.7215 18.9857C29.8065 18.9913 29.8956 18.9805 29.9701 19.0181C30.0164 19.0414 29.9537 19.1674 30.0082 19.1953C30.063 19.2227 30.164 19.0625 30.2123 19.1746C30.2483 19.2612 30.173 19.6371 30.2225 19.7049C30.3659 19.3602 30.4128 19.3863 30.5452 19.3393C30.5711 19.3303 30.6079 19.2034 30.6233 19.1928C30.6883 19.1505 30.674 19.2628 30.7409 19.2164C30.7574 19.2051 30.8189 19.0924 30.8363 19.0773C30.9905 18.9475 30.946 19.2566 30.9306 19.3067C30.9276 19.3205 30.9254 19.3327 30.9238 19.3435C30.8995 19.4872 31.0023 19.3912 31.0012 19.4743C31 19.5641 30.8855 19.5989 30.9074 19.6692C30.9544 19.8154 31.0959 19.8874 31.196 19.961C31.2363 19.989 31.3018 19.8306 31.3106 19.8291C31.4182 19.8488 31.4078 20.0582 31.6376 19.8022C31.2273 20.5802 31.7335 19.766 31.7614 19.986C31.76 20.0088 31.5653 20.3697 31.4934 20.3971C31.4215 20.4237 31.4301 20.2778 31.3267 20.3236C31.3022 20.3345 31.0194 20.6147 30.995 20.6281C30.8157 20.73 31.1441 20.2078 31.1606 20.1745C31.3178 19.8395 31.0038 20.1283 30.9627 20.1389C30.7855 20.1794 30.7465 20.0476 30.608 20.0671C30.5258 20.0791 30.3238 20.3464 30.2593 20.3672C30.2377 20.2559 30.4137 19.789 30.1156 20.1683C30.0489 20.2538 29.9024 20.6726 29.9564 20.3176C29.962 20.2928 30.006 19.9722 29.8901 20.1437C29.8755 20.1664 29.8299 20.286 29.8192 20.2936C29.7471 20.3415 29.7477 20.2334 29.6733 20.2595C29.5991 20.2857 29.5019 20.3294 29.4453 20.2635C29.4122 20.2228 29.4359 19.9762 29.4352 19.9136C29.4348 19.8794 29.4285 19.8601 29.4192 19.8502C29.3789 19.8089 29.2806 19.9328 29.3064 19.7654C29.3397 19.5575 29.5168 19.287 29.4676 19.127C29.3496 19.4419 29.2235 19.7645 29.102 20.0801C28.888 19.9897 28.7146 19.8062 28.4944 19.7332C28.4668 19.7251 28.4257 19.9033 28.3943 19.8982C28.2616 19.8748 28.2052 19.7114 28.0599 19.7042C27.9468 19.6994 27.761 19.8269 27.6366 19.8232C27.6849 19.6327 27.6581 19.55 27.6065 19.5043C27.5558 19.4596 27.4806 19.4497 27.4339 19.4078C27.4017 19.3779 27.4481 19.2871 27.4362 19.2439C27.3902 19.0838 27.2863 19.4102 27.2342 19.4448C27.01 19.5856 27.3478 18.8977 27.2053 18.8426C27.1912 18.8481 26.9178 19.152 26.8911 19.1692C26.7324 19.2724 26.9449 19.036 26.911 18.9824C26.8485 18.8848 26.8358 18.7667 26.6736 18.8118C26.6263 18.826 26.4246 19.003 26.4667 18.7984C26.473 18.7708 26.5438 18.6585 26.5425 18.6471C26.5008 18.4695 26.2787 18.8316 26.1393 18.9154C26 18.998 26.0569 18.6886 26.0834 18.6045C26.1495 18.3873 26.1729 18.5493 26.1873 18.5333C26.3551 18.3367 26.2628 18.33 26.2222 18.2786C26.4384 17.9217 26.3538 17.8972 26.1787 18.2263C26.1598 18.2622 26.2216 18.2562 26.2222 18.2786C25.9566 18.5954 25.8429 18.5846 25.9654 18.2066C26.0234 18.03 26.176 17.8816 26.0127 17.8637C26.0098 17.8634 26.006 17.8641 26.003 17.8645C25.9269 17.876 25.7949 18.1092 25.7052 18.1398C25.4909 18.2102 25.4966 17.8888 25.3593 17.8419C25.3092 17.8249 25.2579 17.9802 25.2202 17.9739C25.1195 17.9542 25.122 17.8102 25.0113 17.8039C25.0004 17.8051 24.9204 17.9471 24.8955 17.9329C24.7058 17.8165 24.6157 17.6161 24.4373 17.4728C24.3509 17.4038 24.1395 17.3513 24.0616 17.2646C23.9256 17.1147 23.8929 16.7747 23.728 16.71C23.6518 16.6799 23.5845 16.7414 23.5129 16.7992C23.4839 16.8228 23.4542 16.8465 23.423 16.8624C23.2145 16.9683 23.349 16.573 23.3736 16.5117C23.3745 16.5098 23.4691 16.5403 23.4876 16.4446C23.5818 16.2929 23.3752 16.5116 23.3736 16.5117C23.3887 16.4733 23.2742 16.3228 23.2258 16.322C23.1991 16.3226 23.1051 16.4451 23.0927 16.4437C22.8137 16.3838 22.597 16.2433 22.4557 16.013C22.4579 16.0046 22.5737 15.8889 22.5746 15.8738C22.5181 15.7155 22.3023 15.8041 22.1223 15.8071C22.0394 15.8085 21.9868 15.7863 21.9675 15.7366L21.9666 15.7376C21.9562 15.7407 21.8041 15.7464 21.7937 15.7557C21.7364 15.8177 22.0383 15.7989 22.0803 15.8566C22.1125 15.9017 21.9364 16.0031 21.9108 16.0597C21.4276 16.1 21.5428 16.1427 21.8778 16.1349C21.8674 16.1715 21.8888 16.2083 21.8458 16.2463C21.8293 16.2591 21.693 16.2633 21.6759 16.2661C21.4416 16.3093 21.7661 16.2971 21.7799 16.3036C21.9096 16.3754 21.6709 16.4648 21.9165 16.5227C21.9254 16.5247 22.2619 16.5006 22.0191 16.5427C22.0018 16.5454 21.8469 16.532 21.8381 16.5703C21.8294 16.609 21.6564 16.6933 21.8161 16.7318C21.8554 16.7412 22.1291 16.7505 21.9192 16.7939C21.8906 16.7997 21.7937 16.804 21.7405 16.8135C21.5719 16.8437 21.9104 16.8232 21.6253 16.866C21.4967 16.8853 21.3831 16.9088 21.3151 16.9307C21.3235 16.9365 21.3324 16.942 21.341 16.9482C21.358 16.9604 21.3752 16.9737 21.3923 16.9881C21.3965 16.992 21.3987 16.996 21.4002 17.0002C21.4813 16.9987 21.6023 16.9981 21.6018 17.0091C21.5965 17.0354 21.5452 17.0778 21.5488 17.1045C21.5509 17.1174 21.7141 17.0957 21.7197 17.0974C21.8204 17.1761 21.6778 17.2514 21.6211 17.3514C21.6104 17.3702 21.8418 17.3999 21.6654 17.4497C21.5871 17.4714 21.4057 17.4885 21.2311 17.5069C21.2395 17.5266 21.2444 17.5462 21.238 17.5671C21.2355 17.5708 21.1691 17.5362 21.1223 17.5188C21.1011 17.5212 21.0805 17.5254 21.0604 17.5278C21.0388 17.5522 21.037 17.5831 21.0231 17.6102C21.3177 17.6147 21.8383 17.6086 21.4594 17.6861C21.4538 17.6873 21.4471 17.6883 21.4411 17.6895C21.5848 17.7974 21.3185 17.9316 21.5194 18.0339C21.529 18.0385 21.8173 18.0304 21.817 18.0428C21.8113 18.0616 21.678 18.0834 21.6697 18.098C21.6343 18.1574 21.754 18.1987 21.7412 18.2528C21.7362 18.274 21.5965 18.2797 21.5896 18.3045C21.5841 18.3291 21.7698 18.329 21.6842 18.3702C21.6177 18.4006 21.2427 18.4624 21.202 18.4999C21.5741 18.4654 21.5699 18.4888 21.6719 18.5191C21.6918 18.5248 21.8196 18.5048 21.8365 18.5066C21.9037 18.5138 21.7994 18.5394 21.872 18.5458C21.8898 18.5474 22.018 18.5345 22.0397 18.535C22.2275 18.5376 21.9488 18.6072 21.8986 18.6191C21.7132 18.6655 21.8777 18.6591 21.8072 18.6864C21.7353 18.7153 21.638 18.6961 21.5958 18.7253C21.5086 18.7849 21.5371 18.8471 21.5395 18.8994C21.5426 18.9198 21.7027 18.8802 21.7115 18.8814C21.7595 18.9122 21.5919 18.9919 21.9281 18.942C21.0773 19.1576 22.0146 18.9477 21.8574 19.035C21.8409 19.0429 21.4508 19.1625 21.3833 19.1572C21.3182 19.15 21.4346 19.0853 21.3356 19.0769C21.3083 19.0768 20.9236 19.1104 20.8981 19.1069C20.7094 19.089 21.3086 18.9789 21.3503 18.9698C21.7089 18.8861 21.289 18.9101 21.2584 18.9C21.1199 18.8641 21.1996 18.8071 21.1011 18.7747C21.0359 18.7538 20.6368 18.7958 20.6422 18.7713C20.6748 18.6896 21.2363 18.6077 20.7409 18.5888C20.6348 18.5847 20.195 18.6394 20.5372 18.5545C20.561 18.5491 20.8717 18.4791 20.67 18.477C20.6442 18.4767 20.5177 18.489 20.5042 18.4867C20.4327 18.469 20.5325 18.4409 20.4811 18.42C20.4715 18.416 20.4618 18.4102 20.4515 18.4058C20.3612 18.4486 20.2696 18.4862 20.2277 18.4849C20.1454 18.4862 20.1361 18.3274 20.1283 18.3236C19.8751 18.2102 19.9156 18.1043 19.7324 17.8583C19.557 17.6091 19.8045 18.2608 19.7952 18.349C19.7838 18.4355 19.6039 18.3204 19.5579 18.2744C19.5109 18.2291 19.5203 18.127 19.4841 18.1041C19.2472 17.9551 19.5033 18.46 19.4746 18.585C19.4008 18.8804 19.1507 18.4102 19.0111 18.3938C18.9731 18.3895 19.0305 18.496 19.0025 18.515C18.8895 18.5872 18.776 18.4493 18.6717 18.6275C18.6545 18.6589 18.6129 18.9859 18.4873 18.7808C18.4695 18.7503 18.4681 18.6188 18.409 18.603C18.3716 18.5928 18.3239 18.588 18.2748 18.5905C18.2078 18.5942 18.1397 18.6103 18.094 18.6445C18.0353 18.6889 18.1508 18.883 18.0537 18.834C18.0117 18.8113 18.0566 18.6772 17.9804 18.6451C17.9044 18.6136 17.7337 18.6444 17.6677 18.656C17.6029 18.6681 17.6554 18.8227 17.6521 18.8357C17.6266 18.9011 17.5072 18.9911 17.4926 18.9938C16.9121 19.0639 16.3976 18.7977 15.8621 18.8975C15.8208 18.9048 15.848 19.0668 15.8436 19.0783C15.698 19.152 15.806 18.6965 15.7039 18.546C15.7234 18.8922 15.6619 18.8301 15.5609 18.8693C15.5133 18.8888 15.5406 19.0229 15.5365 19.0369C15.4666 19.241 15.4117 18.9785 15.3979 18.9248C15.3493 18.7276 15.2989 18.9613 15.2647 18.8299C15.2308 18.699 15.3056 18.5037 15.2078 18.5064C15.181 18.6305 15.2563 18.9533 15.1823 19.0072C14.9311 19.188 14.4848 19.0017 14.2324 18.9432C14.2054 18.9367 14.1799 18.9314 14.1578 18.9287C13.9331 18.9025 13.8624 18.9255 13.7305 18.8805C13.4958 18.7995 13.5821 19.0402 13.4342 19.1498C13.2872 19.2575 13.3605 18.6702 13.3401 18.5412C13.3201 18.414 13.2981 18.5433 13.2728 18.4733C13.2478 18.4034 13.3017 18.3181 13.2422 18.2916C13.182 18.2655 13.0152 18.4907 12.9941 18.6236C12.9479 18.9048 13.0207 19.2009 12.8615 19.0969C12.8523 19.0907 12.8822 18.9347 12.8469 18.9188C12.569 18.798 12.2788 18.7883 12.0013 18.6806C11.9633 18.6656 11.9978 18.4936 11.9761 18.4818C11.7447 18.3694 11.824 18.6619 11.6951 18.985C11.7269 18.5542 11.6597 18.2895 11.4828 18.2852C11.3762 18.2826 11.3935 18.4718 11.3238 18.604C11.3026 18.642 11.2293 18.5137 11.2148 18.6012C11.1672 18.8904 11.2348 19.2154 11.0537 19.0848C11.0463 19.0767 11.072 18.9206 11.0452 18.9101C10.8689 18.846 10.8425 19.1484 10.6502 19.1836C10.4991 19.2104 10.2319 19.0231 10.0602 18.991C10.0693 18.5061 9.9062 18.6151 9.83629 18.9486C9.72513 18.9337 9.60338 18.9513 9.49653 18.904C9.45999 18.8874 9.48578 18.7474 9.48141 18.7318C9.41289 18.4935 9.36001 18.8161 9.33564 18.83C9.07311 18.9504 8.86392 18.7017 8.61162 18.9385C8.60266 18.9471 8.58278 19.2836 8.51978 19.0372C8.51574 19.0202 8.60003 18.8677 8.48318 18.854C8.36588 18.8402 8.14806 18.6568 7.98277 18.8099C7.94275 18.8468 7.83896 19.119 7.76223 18.9044C7.75205 18.8752 7.76587 18.778 7.75133 18.7241C7.70433 18.5527 7.67052 18.8919 7.61685 18.6018C7.56303 18.3119 7.44639 18.094 7.27871 18.2906C7.27259 18.3021 7.22907 18.5641 7.17831 18.5595C7.09686 18.5509 6.98032 18.4936 6.89463 18.4936C6.85361 18.4939 6.87652 18.6613 6.86953 18.6652C6.59182 18.7541 6.39669 18.601 6.102 18.5303C6.04919 18.5171 5.88571 18.7418 5.78495 18.5593C5.67395 18.3591 5.80968 17.5397 5.53946 17.7299C5.43201 17.8074 5.27173 18.8457 5.09258 18.3017C4.71599 18.4269 4.37752 18.1421 3.99886 18.3229C3.98181 18.3309 3.92075 18.6187 3.88181 18.6157C3.82495 18.6077 3.79321 18.471 3.7515 18.4608C3.68839 18.4444 3.62734 18.4486 3.56814 18.4592C3.45621 18.4781 3.35433 18.5186 3.24353 18.5035C3.17965 18.494 3.2059 18.3536 3.13042 18.3433C3.05738 18.3339 2.99482 18.5168 2.89603 18.4243C2.82361 18.353 2.75234 17.972 2.65405 17.9239C2.63806 18.297 2.56174 18.2865 2.43382 18.38C2.4098 18.3984 2.42885 18.526 2.41789 18.5439C2.36803 18.6089 2.32707 18.5006 2.27999 18.5709C2.26849 18.588 2.2632 18.7163 2.25352 18.7377C2.17195 18.9215 2.05503 18.6311 2.03766 18.5791C1.96318 18.3859 1.91676 18.5489 1.85929 18.4713C1.79914 18.3936 1.89888 18.3053 1.82694 18.2564C1.68252 18.1554 1.48463 18.1654 1.33219 18.1501C1.27284 18.1448 1.30253 18.3154 1.29428 18.3207C1.1623 18.3558 1.0499 18.1659 0.952241 18.4987C0.932521 17.617 0.868502 18.5772 0.699019 18.3863C0.686375 18.3656 0.70804 17.9551 0.76682 17.8996C0.825041 17.8446 0.89538 17.9805 0.978823 17.892C0.997808 17.8682 1.12674 17.4935 1.14095 17.4681C1.26079 17.2926 1.23405 17.9067 1.23795 17.9452C1.28143 18.3163 1.43205 17.907 1.46576 17.8794C1.62553 17.7559 1.74451 17.8485 1.87731 17.7604C1.96214 17.7029 1.98861 17.2992 2.05325 17.3138C2.26308 17.3645 2.31859 17.9333 2.53969 17.4502C2.58668 17.3461 2.56142 16.9034 2.70317 17.2575C2.71163 17.2813 2.81613 17.6017 2.89058 17.4037C2.89968 17.3786 2.90494 17.2487 2.91616 17.238C2.99097 17.171 3.03839 17.2749 3.12119 17.229C3.20096 17.1822 3.3051 17.1119 3.39465 17.1585C3.44837 17.1872 3.51299 17.4299 3.53846 17.4897C3.55611 17.532 3.57511 17.5469 3.59427 17.5488C3.64979 17.5537 3.70712 17.4373 3.738 17.5928C3.77959 17.801 3.67884 18.1119 3.80074 18.249C3.81481 17.9132 3.83441 17.5684 3.85132 17.2307C4.11925 17.2501 4.38886 17.3657 4.65932 17.3574C4.69305 17.3554 4.66359 17.1762 4.69969 17.1689C4.8526 17.1441 4.98484 17.2749 5.14348 17.2275C5.26595 17.1896 5.40698 17.0021 5.53469 16.9563C5.60517 17.3418 5.79959 17.2158 5.93732 17.2534C5.98523 17.267 5.98053 17.3696 6.01435 17.4038C6.14177 17.5294 6.08753 17.1902 6.12367 17.1362C6.28031 16.911 6.28149 17.6805 6.46204 17.6649C6.47366 17.6564 6.5942 17.2597 6.61161 17.2313C6.71685 17.0674 6.62747 17.3713 6.68958 17.4052C6.8061 17.4626 6.88522 17.5623 7.02505 17.4452C7.06616 17.4102 7.16683 17.1564 7.24104 17.355C7.25075 17.3813 7.24301 17.5163 7.25106 17.5247C7.39764 17.6591 7.40956 17.2341 7.49665 17.091C7.58381 16.9487 7.71026 17.2449 7.73577 17.33C7.80184 17.5487 7.68167 17.4237 7.67652 17.4437C7.62794 17.6985 7.72455 17.6569 7.79781 17.6796C7.80204 18.0971 7.90425 18.0732 7.87304 17.7009C7.86909 17.661 7.81258 17.6985 7.79781 17.6796C7.86879 17.271 7.98241 17.22 8.10129 17.6047C8.15664 17.7849 8.09854 17.993 8.27609 17.9196C8.35681 17.8863 8.33061 17.5994 8.4021 17.5212C8.56687 17.3448 8.77383 17.6154 8.94159 17.5759C9.00234 17.5613 8.94615 17.4022 8.98779 17.3869C9.09807 17.3463 9.19399 17.4657 9.30495 17.4069C9.31416 17.3976 9.29312 17.2363 9.32705 17.2346C9.58729 17.219 9.8125 17.3269 10.0838 17.3331C10.2153 17.336 10.4508 17.2478 10.5869 17.2673C10.8215 17.3006 11.1101 17.5423 11.3123 17.486C11.443 17.4496 11.4154 17.2856 11.4728 17.1739C11.5842 16.9574 11.7711 17.3476 11.7969 17.4089C11.7913 17.4128 11.6881 17.451 11.7454 17.5337C11.7784 17.7084 11.7952 17.4153 11.7969 17.4089C11.8141 17.4481 12.0405 17.4869 12.0849 17.4558C12.1086 17.4377 12.0972 17.2848 12.1094 17.2774C12.414 17.1399 12.7123 17.1009 13.0192 17.1752C13.0245 17.1784 13.0159 17.3544 13.0284 17.3597C13.2053 17.4376 13.3183 17.2238 13.4655 17.0974C13.6123 16.9711 13.7253 17.014 13.8125 17.3139C13.9209 17.2763 14.0805 17.4089 14.1698 17.4893C14.1961 17.5127 14.2163 17.4994 14.2309 17.4696C14.2676 17.3974 14.2754 17.2272 14.2812 17.2225C14.5287 17.0072 14.6725 17.2006 14.9295 17.2299C15.0534 17.2443 15.295 17.1925 15.4259 17.1539C15.5304 17.1229 15.5928 17.2027 15.6882 17.151C15.7009 17.144 15.6867 16.993 15.6904 16.9862C15.7922 16.8045 15.747 17.1755 15.7701 17.2412C15.8557 17.48 15.9042 17.607 16.0405 17.4914C16.0705 17.4643 16.1524 16.9315 16.2064 16.8977C16.2763 16.8571 16.2568 17.0482 16.3314 17.0001C16.3375 16.9946 16.3335 16.8793 16.3785 16.8826C16.597 16.8991 16.832 16.9577 17.0402 16.9331C17.068 16.9302 17.0212 16.7474 17.0615 16.7393C17.1942 16.715 17.3237 16.7031 17.4411 16.7208C17.4063 16.6967 17.3728 16.6716 17.3418 16.6447C17.2591 16.5723 17.1898 16.4869 17.1513 16.389C17.0287 16.0796 17.3826 16.0687 17.2544 15.9033C17.1908 15.8241 16.912 16.156 16.8863 16.1579C16.6326 16.1804 16.5807 15.9469 16.38 15.9105C16.3385 15.9032 16.2969 16.0731 16.2624 16.0651C16.1433 16.0385 16.067 15.9161 15.96 15.8783C15.912 15.8627 15.8621 15.9828 15.825 15.9531C15.7347 15.8831 15.6717 15.791 15.6282 15.6332C15.6243 15.6188 15.7555 15.5019 15.6845 15.46C15.5693 15.3922 15.4736 15.2106 15.2806 15.2541C15.2229 15.2685 15.09 15.5337 15.0929 15.3068C15.0934 15.259 15.2753 14.9488 15.036 15.1753C14.9956 15.2132 14.6385 15.5019 14.6731 15.2188C14.6825 15.1434 14.7544 14.8544 14.6856 14.8699C14.6755 14.8743 14.6312 15.0299 14.5836 15.0243C14.4166 15 14.2729 14.9109 14.1027 14.8825C14.0571 14.8756 14.0418 15.0525 13.9762 15.037C13.7953 14.9941 13.6119 14.8566 13.4759 14.7312C13.4264 14.6851 13.526 14.5828 13.5299 14.5661C13.5694 14.3158 13.3844 14.5864 13.3519 14.5944C13.16 14.6266 13.12 14.4349 12.972 14.4061C12.9309 14.3978 12.8853 14.5505 12.8719 14.5594C12.7374 14.6435 12.9179 14.4203 12.8847 14.3692C12.7923 14.2254 12.6393 14.1628 12.4972 14.1139C12.4454 14.0967 12.4184 14.2852 12.3728 14.2692C12.0977 14.1662 11.8322 14.012 11.6212 13.792C11.5826 13.7502 11.6759 13.6414 11.6806 13.6078C11.714 13.3743 11.4713 13.5931 11.4356 13.6074L11.376 13.6221C11.2707 13.6348 11.2708 13.5363 11.1808 13.5117C10.6709 13.3762 10.1458 13.0106 9.69303 12.6844C9.38369 12.4556 9.05851 12.2047 8.68741 11.7745C8.48485 11.5134 8.27196 11.2537 8.00823 10.8543C7.97272 10.7985 7.84726 10.9508 7.81314 10.9007C7.58029 10.5366 7.30387 9.95063 7.40657 9.11259C7.4407 8.89573 7.47922 8.58159 7.60604 8.1771C7.63126 8.09952 7.42399 8.14911 7.46439 8.0153C7.54503 7.73788 7.78261 7.35768 8.06035 7.14719C8.19224 7.04693 8.15408 7.30584 8.28013 7.21046C8.34082 7.16583 8.40275 7.12202 8.46438 7.0797C8.57449 7.02561 8.68143 6.94097 8.78039 6.83523C8.83412 6.77765 8.62979 6.70721 8.70965 6.64213C9.1927 6.23384 9.98036 5.8053 10.7403 5.83547C10.7973 5.84424 10.8552 5.85493 10.9145 5.86917C10.9519 5.87824 11.0524 6.23094 11.113 6.14976C11.0993 6.04882 11.0768 5.93025 11.0587 5.82303C11.7812 5.62769 12.6297 5.5826 13.5999 5.61426C13.6403 5.61463 13.5731 5.42015 13.6537 5.42171C13.8995 5.42889 14.1513 5.43389 14.4034 5.4826C14.5678 5.51812 14.7305 5.5773 14.888 5.69265C14.9203 5.71771 14.856 6.0506 14.9655 6.01552C14.9861 6.00891 15.1485 5.98608 15.2005 5.9188C15.2076 5.90848 15.2025 5.74707 15.2532 5.74888C15.5512 5.76715 15.8541 5.8481 16.1342 5.9881C16.1795 6.01103 16.1038 6.17184 16.136 6.18979C16.3611 6.31433 16.6435 6.2261 16.8502 6.4143C16.988 6.54095 16.8864 6.82195 16.9218 7.11979C16.9278 7.16196 17.0225 7.18489 16.9997 7.3515C16.9429 7.77037 16.8246 8.22033 16.7698 8.66771C16.7925 8.76976 16.7857 8.66147 16.779 8.89918C16.7757 8.915 16.6808 8.97863 16.6456 9.05319C16.6226 9.10579 16.6213 9.2782 16.5802 9.34272C16.5386 9.40595 16.5289 9.26083 16.4639 9.33366C16.4007 9.40838 16.3925 9.60324 16.2868 9.61081C16.0391 9.62515 15.7302 9.52233 15.4992 9.41095C15.4283 9.37615 15.4812 9.27772 15.432 9.24892C15.3368 9.19326 15.2313 9.23038 15.1382 9.16723C15.1078 9.14496 15.1726 8.98705 15.1404 8.96716C14.9577 8.86577 14.7683 8.88145 14.5775 8.81842C14.3742 8.75118 14.1702 8.68976 13.9664 8.63247C13.4558 8.45274 12.8012 8.46929 12.0593 8.54516C11.8277 8.56802 11.5368 8.53458 11.2676 8.56905C11.2074 8.57462 11.151 8.59097 11.1045 8.62263C11.0837 8.63724 11.1394 8.77269 11.1395 8.7873C11.1363 8.98258 11.0641 8.69385 11.0057 8.67287C10.7768 8.58994 10.5529 8.70657 10.4021 8.89884C10.3367 8.98196 10.5987 9.14659 10.4163 9.08384C10.4032 9.07937 10.3246 8.94041 10.2913 8.94615C10.2433 8.955 10.1918 9.00186 10.1464 9.0433C10.1429 9.04777 10.1403 9.05123 10.1352 9.0501C10.1078 9.04435 10.1065 9.04737 10.0943 9.06424C10.0771 9.08327 9.97281 9.13494 9.98642 9.25437C9.99121 9.27846 10.152 9.27923 10.1729 9.31842C10.1883 9.34744 10.1763 9.41273 10.1509 9.46721C10.1458 9.45877 10.1377 9.45158 10.1287 9.44748C10.0909 9.43217 9.96438 9.43779 9.93568 9.4359C9.69293 9.44887 10.0319 9.45654 10.0422 9.44381C10.1895 9.47325 10.1816 9.80501 10.3992 10.0328C10.413 10.0473 10.4278 10.0619 10.4429 10.0762C10.5411 10.1666 10.745 10.2459 10.9263 10.3657C11.1624 10.5226 11.3532 10.7251 11.6259 10.855C11.6544 10.868 11.7104 10.6863 11.7455 10.7011C12.0601 10.8486 12.3646 11.02 12.6423 11.2526C12.6928 11.2956 12.7463 11.3429 12.7958 11.3909C12.8253 11.4219 12.7044 11.5441 12.7303 11.5834C12.8962 11.8212 13.1162 12.2983 13.5756 11.7227C13.7189 11.8262 13.8956 11.9469 13.971 12.1468C14.0193 12.2754 13.8517 12.3931 13.997 12.3799C14.0297 12.3768 14.068 12.2197 14.1117 12.2254C14.2945 12.2521 14.4456 12.3844 14.6376 12.389C14.6769 12.3896 14.7312 12.2584 14.7517 12.2395C14.9196 12.0927 14.8942 12.4607 14.911 12.4968C15.0385 12.7661 15.2242 12.7771 15.4175 12.8775C15.4624 12.901 15.4937 12.7051 15.5399 12.7215C15.7785 12.809 16.0068 12.9392 16.1913 13.1246C16.2316 13.1665 16.1149 13.2893 16.1307 13.3167C16.2017 13.4347 16.3597 13.1725 16.4305 13.2813C16.4452 13.3042 16.3728 13.4226 16.3699 13.4381C16.3248 13.6794 16.5228 13.4084 16.5446 13.4052C16.7854 13.4109 16.7537 13.7889 16.9652 13.838C16.9904 13.8415 17.018 13.6606 17.084 13.6852C17.5295 13.8524 17.9567 14.1195 18.3124 14.4573C18.3673 14.5095 18.2627 14.6031 18.2582 14.6205C18.231 14.7688 18.2827 14.7411 18.3374 14.6895C18.3788 14.6514 18.4217 14.6004 18.4338 14.5992C18.6424 14.6024 18.6693 14.9358 18.969 14.6366C19.3031 14.9031 19.6774 15.0502 20.0447 15.2782C20.0978 15.2738 20.1765 15.2681 20.1798 15.2651C20.2518 15.2023 20.035 15.184 19.9047 15.1486C19.7752 15.1133 19.815 15.0724 20.1106 15.019C20.0711 14.9871 20.198 14.9265 20.2754 14.8908C20.3521 14.8554 20.0217 14.8799 20.0069 14.8786C19.7859 14.8177 19.9755 14.7548 19.9986 14.6696C20.01 14.6291 19.9542 14.5552 19.9134 14.5159C19.8814 14.4851 19.9579 14.4585 19.9046 14.4323C19.897 14.4289 19.7479 14.4464 19.7411 14.4458C19.5579 14.4274 19.927 14.4115 19.993 14.3986C20.23 14.3518 20.356 14.3243 20.2398 14.2902C20.2108 14.2824 19.6853 14.2991 19.6475 14.284C19.606 14.2635 19.7965 14.2548 19.7482 14.2335C19.7418 14.232 19.6302 14.2425 19.6311 14.2275C19.6472 14.1533 19.7086 14.0672 19.6902 13.9933C19.6845 13.9841 19.5026 14.0126 19.4966 13.9985C19.4687 13.9311 19.4686 13.8549 19.5492 13.7796C19.5697 13.7609 19.7014 13.7592 19.74 13.7521C19.972 13.709 19.6292 13.7076 19.6223 13.703C19.4483 13.594 19.7468 13.4719 19.5892 13.3598C19.5799 13.3536 19.2109 13.3325 19.521 13.2812C19.5437 13.2773 19.8588 13.2265 19.6389 13.2254C19.623 13.2258 19.464 13.2543 19.4764 13.228C19.4902 13.2009 19.3778 13.17 19.5547 13.1197C19.6108 13.104 19.9279 13.0472 19.6705 13.0377C19.6541 13.0371 19.2145 13.0381 19.36 13.0034L19.3612 13.018C19.3829 13.0125 19.4176 13.0068 19.4684 12.9994C19.5334 12.99 19.9538 12.9511 19.7354 12.9334C19.6931 12.9301 19.6013 12.9518 19.5408 12.9386C19.4477 12.9174 19.5549 12.8688 19.3641 12.8502C19.3283 12.8471 19.0448 12.8475 19.2574 12.8041C19.2917 12.7973 19.4313 12.7898 19.4462 12.7768C19.5159 12.7155 19.4166 12.665 19.5072 12.6003C19.5405 12.5774 19.7666 12.5641 19.8253 12.537C19.8837 12.5096 19.9372 12.4619 19.832 12.4512C19.7259 12.4408 19.3698 12.5006 19.336 12.4723C19.196 12.3443 19.3918 12.1813 19.4079 12.0353C19.4083 12.0146 19.2834 12.0442 19.2777 12.0136C19.2555 11.8995 19.1138 11.711 19.3772 11.5792C19.5887 11.4753 19.7667 11.5606 19.85 11.4894C19.8876 11.4549 19.4682 11.4625 19.4524 11.4564C19.3113 11.3967 19.4921 11.3278 19.4289 11.2663C19.4147 11.2541 19.2457 11.2833 19.2364 11.2723C19.204 11.2345 19.2756 11.1841 19.2584 11.1461C19.2486 11.1293 19.1217 11.1426 19.1303 11.1253C19.1498 11.0843 19.2013 11.044 19.3195 10.9961C19.3305 10.9918 19.4926 11.0025 19.498 10.9736C19.5039 10.9253 19.6193 10.8587 19.4914 10.8105C19.4516 10.7965 19.1563 10.8135 19.3593 10.7645C19.4031 10.7541 19.7587 10.7436 19.4486 10.7189C19.3963 10.7158 18.9764 10.6616 19.2429 10.6124C19.3139 10.5996 19.604 10.5631 19.5587 10.5443C19.5513 10.5417 19.3922 10.5586 19.3753 10.5417C19.321 10.4816 19.3353 10.4146 19.2849 10.3483C19.271 10.3304 19.105 10.3582 19.0895 10.331C19.0471 10.2553 19.0898 10.158 19.1436 10.0826C19.1639 10.0549 19.3015 10.0779 19.3165 10.0762C19.558 10.0515 19.2362 10.0224 19.214 10.0102C19.1021 9.93701 19.258 9.8908 19.2214 9.82535C19.2096 9.80755 19.0556 9.80924 19.0414 9.80487C18.9083 9.75826 19.1857 9.80502 19.219 9.7844C19.2708 9.75169 19.2916 9.71489 19.2974 9.67703C19.2986 9.67506 19.2915 9.66925 19.2835 9.6625C19.2718 9.65696 19.0993 9.65123 19.0911 9.64695C19.0617 9.61981 19.0797 9.56533 19.1781 9.50164C19.1971 9.48984 19.3374 9.4938 19.3693 9.49083C19.5923 9.46921 19.2867 9.44727 19.2575 9.4422C19.1252 9.41845 19.2475 9.40392 19.2239 9.37834C19.1051 9.25778 19.1754 9.08362 19.2146 8.94307C19.2649 8.76124 19.3826 8.60548 19.3304 8.43285C19.3272 8.4217 19.1423 8.45118 19.1371 8.44187C19.0802 8.32377 19.1375 8.19089 19.0695 8.07214C19.0617 8.06304 18.8906 8.09711 18.8763 8.08213C18.8464 8.05128 18.851 8.00675 18.9021 7.96635C18.9272 7.94656 19.0787 7.95071 19.1021 7.93131C19.1534 7.88541 19.1605 7.83899 19.1278 7.80279C19.1134 7.78732 18.9415 7.83408 18.9327 7.81392C18.8955 7.66129 18.8454 7.51613 19.0553 7.32666C19.0748 7.31335 19.4306 7.25526 19.359 7.24194C19.258 7.25394 19.139 7.27061 19.0313 7.28454C18.9428 7.0671 19.0365 6.82413 19.0225 6.59348C19.0195 6.58453 18.8366 6.62726 18.8299 6.61029C18.8171 6.50375 18.748 6.4049 18.9222 6.26662C18.9399 6.25277 19.2764 6.20709 19.2219 6.18222C19.2107 6.17697 19.1584 6.13586 19.0848 6.1347C19.0736 6.13469 18.9195 6.1668 18.9099 6.15298C18.8723 6.06676 18.8928 5.96342 18.9749 5.85859C18.99 5.84159 19.1595 5.83139 19.1705 5.819C19.2343 5.74596 19.1511 5.69184 19.1984 5.62171C19.1506 5.54149 19.0934 5.46296 19.1731 5.3367C19.3291 5.09865 19.5134 4.9352 19.6814 4.82167C19.9846 4.59006 20.1922 4.52572 20.2989 4.50148C20.374 4.48775 20.3934 4.59849 20.4391 4.59775C20.5214 4.59958 20.5159 4.54266 20.5548 4.5755C20.5666 4.58601 20.6294 4.68973 20.6564 4.72687C20.6641 4.73156 20.6727 4.73273 20.6812 4.72974C20.983 4.62605 21.1497 4.5078 21.3613 4.45634C21.9467 4.32786 22.4236 4.2676 22.9085 4.19499ZM32.1333 19.8007C32.1633 19.8274 31.9875 19.9887 32.0137 20.0633C32.0768 20.2041 32.2523 19.7948 32.2957 20.049C32.3037 20.0959 32.0775 20.4656 32.062 20.4601L32.0619 20.4591C31.9954 20.4312 31.9508 20.3441 31.9374 20.243C31.9153 20.0321 32.0656 19.8005 32.1098 19.7889C32.1168 19.7916 32.1255 19.7945 32.1333 19.8007ZM30.2594 20.3691L30.2573 20.3673L30.2593 20.3672L30.2594 20.3691ZM30.2573 20.3673C30.2517 20.3687 30.2478 20.3717 30.2447 20.3684C30.2399 20.363 30.2352 20.3572 30.2315 20.3508L30.2573 20.3673ZM35.1073 19.6837C34.9063 19.7185 35.3552 19.6976 35.4355 19.6832C35.6962 19.6348 35.3089 19.6485 35.1073 19.6837ZM29.8235 19.5231C29.7945 19.2944 29.502 20.0882 29.6617 19.9626C29.6736 19.9472 29.8228 19.5421 29.8235 19.5231ZM30.6766 19.6627C30.7115 19.5488 30.572 19.6203 30.5319 19.7617C30.4963 19.873 30.6289 19.801 30.6766 19.6627ZM28.8803 19.385C28.8921 19.1068 28.6921 19.444 28.6773 19.6574C28.6643 19.8701 28.8772 19.4701 28.8803 19.385ZM21.6236 19.2903C21.6845 19.1658 22.2548 18.9437 22.2075 19.0268C22.1977 19.0457 21.9884 19.0782 21.9357 19.1177C21.8433 19.1979 22.2577 19.0502 22.0573 19.1793C22.0215 19.2036 21.6389 19.3159 21.6187 19.3143L21.6236 19.2903ZM21.2996 18.6389C21.1876 18.6648 21.3228 18.6874 21.4627 18.6559C21.5754 18.6311 21.4398 18.6074 21.2996 18.6389ZM20.7175 18.1605C20.7239 18.1991 20.7208 18.2333 20.6994 18.262C20.7053 18.2606 20.7105 18.2598 20.7148 18.2587C20.882 18.2197 20.6033 18.2188 20.8067 18.1855C21.0114 18.1523 21.3266 18.1547 21.4564 18.1028C21.2129 18.1227 20.9644 18.1411 20.7175 18.1605ZM35.6242 17.0065C35.435 17.0248 35.4248 17.0618 35.6189 17.0255C35.6266 17.024 35.6317 17.0059 35.6242 17.0065ZM14.7018 18.5734C14.7372 18.3835 14.6018 18.3692 14.6307 18.5665C14.6346 18.5743 14.7003 18.5811 14.7018 18.5734ZM20.6654 17.9561C20.6471 17.9599 20.6342 17.9634 20.6261 17.9662C20.6286 17.97 20.6314 17.9735 20.6338 17.9773C20.7027 17.9854 20.9396 17.9759 20.9952 17.9633C21.255 17.9049 20.8664 17.9146 20.6654 17.9561ZM18.9735 18.0667C18.9288 17.9112 18.8766 17.9724 18.9351 18.112C18.9407 18.1194 18.9864 18.1137 18.9735 18.0667ZM35.337 15.9199C35.1773 15.9459 35.2251 15.9566 35.372 15.9278C35.3807 15.9261 35.3867 15.9118 35.337 15.9199ZM0.191061 17.9998C0.442985 18.0754 0.558736 18.7897 0.234233 18.6684C0.181402 18.6444 0.392185 18.4648 0.327172 18.3923C0.215647 18.2618 0.0402904 18.6772 -0.0489954 18.4174C-0.0624291 18.371 0.169363 18.014 0.191061 17.9998ZM17.631 16.9443C17.6945 17.1044 17.7151 16.9707 17.7255 16.8787C17.6862 16.8599 17.6474 16.8396 17.6089 16.8188C17.6185 16.864 17.6227 16.9216 17.631 16.9443ZM2.19982 17.9886C2.16342 17.8723 2.04486 17.9992 2.08715 18.1439C2.12102 18.2594 2.24411 18.133 2.19982 17.9886ZM3.25191 17.5083C3.24358 17.5177 3.21866 17.9655 3.22582 17.9778C3.34928 18.1873 3.39628 17.3428 3.25191 17.5083ZM4.48902 17.4909C4.41857 17.2878 4.34186 17.7337 4.37364 17.8159C4.47901 18.0825 4.56042 17.6965 4.48902 17.4909ZM19.2966 16.4175C19.3483 16.4897 19.4428 16.6222 19.4354 16.5217C19.4014 16.4919 19.3759 16.4166 19.2966 16.4175ZM35.6466 15.1086C35.432 15.1179 35.3545 15.1608 35.4331 15.1693C35.4684 15.1725 35.5354 15.1693 35.6346 15.1527C35.6382 15.1519 35.6418 15.1484 35.6447 15.145C35.6543 15.1322 35.658 15.1087 35.6466 15.1086ZM21.9574 15.0878C21.9589 15.0121 21.8458 15.0857 21.7669 15.1426C21.8969 15.1328 21.9729 15.1308 21.9148 15.1657C21.9013 15.1691 21.7534 15.1739 21.7391 15.186C21.6278 15.2848 21.6274 15.3772 21.5296 15.4747C21.5127 15.4878 21.3426 15.4927 21.3328 15.5006C21.2306 15.5832 21.5182 15.5315 21.8439 15.5439C21.4134 15.5721 21.1517 15.6177 21.154 15.6741C21.158 15.7068 21.344 15.6853 21.4772 15.6955C21.5176 15.6986 21.3913 15.7329 21.48 15.7296C21.6732 15.7224 21.8801 15.7 21.96 15.7048C21.9549 15.6454 21.9826 15.558 22.0538 15.4385C21.9589 15.3957 21.9548 15.2023 21.9574 15.0878ZM21.3468 15.0625C21.221 15.08 21.3509 15.0752 21.2824 15.0893C21.2137 15.1034 21.1271 15.0948 21.1023 15.1159C21.0779 15.1373 21.3073 15.1692 21.4404 15.1645C21.4786 15.1632 21.5168 15.1585 21.5544 15.1561C21.5026 15.1311 21.4672 15.0972 21.4401 15.0538C21.4002 15.0573 21.3673 15.0596 21.3468 15.0625ZM21.9774 14.5325C21.9511 14.5227 21.8402 14.605 21.7714 14.6729C21.7488 14.7028 21.7298 14.7321 21.7183 14.7537C21.7229 14.7588 21.7328 14.7607 21.75 14.7579C21.7585 14.7562 21.9711 14.5809 21.9757 14.5718C21.9865 14.5479 21.9857 14.5361 21.9774 14.5325ZM22.465 14.027C22.3014 14.1273 22.3607 14.2196 22.4963 14.0744C22.4998 14.0666 22.4716 14.0229 22.465 14.027ZM25.6628 13.0441C25.7232 12.733 25.4696 12.7045 25.5293 13.0296C25.5347 13.0463 25.659 13.0596 25.6628 13.0441ZM23.2908 12.5697C23.2947 12.4078 23.24 12.451 23.2503 12.6015C23.2511 12.6104 23.2893 12.6196 23.2908 12.5697ZM27.7777 11.3065C27.7777 11.3599 27.7843 11.4026 27.8337 11.4283C27.8524 11.4369 27.8636 11.4115 27.872 11.3693C27.8665 11.341 27.8575 11.314 27.8335 11.2941C27.8249 11.2869 27.8026 11.2938 27.7777 11.3065ZM24.4856 6.70613C24.4749 6.80713 24.4667 6.92659 24.4578 7.03471C24.0898 7.05327 23.77 7.0026 23.6163 7.00193C23.5006 7.01929 23.3868 7.03984 23.2767 7.06609C23.2557 7.07157 23.3432 7.2486 23.3034 7.25986C23.0707 7.32258 22.8797 7.43838 22.63 7.3289C22.6058 7.31824 22.4882 6.99804 22.4527 7.06715C22.4455 7.08014 22.3883 7.15501 22.4062 7.22873C22.41 7.24105 22.4855 7.37978 22.4706 7.39197C22.437 7.41814 22.4113 7.43404 22.4198 7.4177C22.1926 7.54906 21.9675 7.61747 21.9244 7.57794C21.9184 7.57041 21.8952 7.53358 21.8726 7.49597C21.8303 7.50084 21.7198 7.51038 21.7061 7.5214C21.6724 7.55139 21.7048 7.5954 21.6953 7.61636C21.6754 7.65676 21.6789 7.66266 21.6815 7.69882C21.6834 7.74872 21.6126 7.81469 21.6538 7.86277C21.6647 7.87259 21.8211 7.84062 21.8502 7.85546C21.8785 7.8709 21.87 7.91921 21.8345 7.93905C21.7979 7.95888 21.6725 7.96632 21.6442 7.97232C21.4066 8.02145 21.7434 8.03918 21.7561 8.04544C21.9111 8.15686 21.7322 8.29089 21.7439 8.41094C21.754 8.50335 21.8257 8.59807 21.8244 8.68653C21.8223 8.79529 21.7428 8.89089 21.7645 8.9952C21.7732 9.00469 21.9545 8.98079 21.9574 8.99405C21.9884 9.13778 21.9749 9.28926 21.8504 9.44476C21.8362 9.45959 21.6712 9.4434 21.6487 9.45839C21.5143 9.55783 21.1868 9.67861 21.9031 9.77554C21.8859 9.81423 21.8671 9.86271 21.8285 9.90513C21.7979 9.92435 21.754 9.9418 21.6876 9.9559C21.5926 9.97639 21.4143 9.93763 21.4875 9.97723C21.504 9.98607 21.6604 9.98712 21.6755 9.99903C21.7299 10.0493 21.6774 10.099 21.7573 10.1481C21.774 10.158 21.9161 10.1592 21.9417 10.1623C22.1453 10.1875 21.8111 10.217 21.7814 10.2265C21.5964 10.289 21.668 10.3397 21.6654 10.4006C21.6665 10.4144 21.8506 10.3938 21.8608 10.4061C21.89 10.4747 21.8774 10.549 21.7975 10.6259C21.7785 10.6429 21.617 10.6375 21.5993 10.6461C21.5274 10.685 21.8318 10.6737 21.7692 10.7105C21.7563 10.7183 21.6188 10.7239 21.602 10.7262C21.3681 10.7624 21.6973 10.7572 21.7117 10.7613C21.8181 10.8182 21.4699 10.8889 21.5253 10.9501C21.538 10.9558 21.7062 10.9245 21.715 10.9453C21.7159 10.9473 21.7157 10.9499 21.7166 10.952C21.7761 10.9499 21.8385 10.95 21.9038 10.9533C21.9058 10.9534 21.9087 10.9526 21.9106 10.9527C21.9517 10.9535 21.9149 10.7651 21.9756 10.7651C22.2469 10.77 22.4122 10.8041 22.5597 10.9102C22.5943 10.9372 22.5547 11.0637 22.5579 11.1033C22.5803 11.3429 22.6923 11.0129 22.7039 11.0071C22.9659 10.8866 23.1285 11.1447 23.366 11.0869C23.4043 11.0819 23.4427 11.0745 23.4797 11.0639C23.506 11.0548 23.6896 10.7031 23.7191 11.0197C23.7219 11.0433 23.7562 11.3639 23.8178 11.1488C23.8209 11.1311 23.8007 10.9702 23.8548 10.9899C23.9099 11.0105 24.0035 10.905 24.0707 11.0898C24.0918 11.1494 24.1367 11.4699 24.2203 11.2176C24.2278 11.1956 24.3547 10.6285 24.3867 11.0246C24.3918 11.0903 24.3764 11.5126 24.4719 11.2979C24.4897 11.2561 24.4606 11.1619 24.5069 11.1039C24.5418 11.06 24.5816 11.0649 24.6247 11.059C24.6683 11.0528 24.7168 11.0343 24.7619 10.9399C24.7781 10.9046 24.8447 10.6222 24.8976 10.8386C24.9059 10.8729 24.8904 11.0119 24.9182 11.029C25.0535 11.1044 25.1971 11.0093 25.336 11.1054C25.385 11.1401 25.3617 11.3678 25.4135 11.4282C25.4657 11.4886 25.57 11.5451 25.6222 11.4405C25.6742 11.3355 25.6109 10.9735 25.6901 10.943C26.0333 10.8112 26.38 11.0154 26.7164 11.0312C26.7656 11.033 26.7197 10.9046 26.7917 10.8986C26.8418 10.8942 26.8994 10.8861 26.9584 10.8761C27.0982 10.8531 27.2476 10.8238 27.3831 10.8333C27.3022 10.6991 27.2438 10.5484 27.2244 10.3809C27.2204 10.3368 27.3526 10.2846 27.3752 10.2608C27.5335 10.0938 27.2291 10.1816 27.1942 10.1806C27.0356 10.175 27.1217 10.0812 27.0601 10.027C26.7587 9.76495 26.5682 9.32718 26.4068 9.00381C26.1969 8.58464 26.0928 8.21129 25.8056 7.89991C25.7868 7.88173 25.6577 8.01655 25.6405 8.00166C25.5423 7.91007 25.4644 7.80864 25.3906 7.71452C25.3018 7.6014 25.2137 7.49345 25.1053 7.42637C25.0894 7.41635 24.9836 7.55855 24.9546 7.54849C24.8942 7.52644 24.8538 7.47498 24.8543 7.40093C24.856 7.36476 24.9764 7.27286 24.9742 7.23822C24.9667 7.1572 24.9279 7.11012 24.8763 7.10811C24.8549 7.10843 24.7713 7.27037 24.7537 7.26124C24.5986 7.20593 24.8341 7.29515 24.5873 7.04857C24.5768 7.0406 24.5662 7.03218 24.5558 7.02371C24.5346 7.00404 24.5412 6.63973 24.4856 6.70613ZM27.6293 10.9199C27.6475 10.9339 27.6666 10.9483 27.6831 10.9664C27.7805 11.0697 27.7797 11.1737 27.7767 11.2586C27.786 11.2504 27.7933 11.2432 27.7944 11.2366C27.8177 11.1009 27.7458 11.0009 27.6731 10.9163C27.6655 10.9075 27.6487 10.9103 27.6293 10.9199ZM28.8836 10.6346C28.8055 10.6485 28.6977 10.6843 28.5918 10.7448C28.6057 10.7943 28.6316 10.8828 28.667 10.8729C28.7432 10.8509 28.8884 10.9154 28.9176 10.7621C28.9208 10.7423 28.8992 10.6837 28.8836 10.6346ZM29.0358 10.7701C29.0591 10.8077 29.0856 10.7918 28.9904 10.6827C29.0161 10.6471 28.9965 10.6284 28.9486 10.6273C28.9715 10.664 29.0106 10.7361 29.0358 10.7701ZM30.7157 7.47203C30.9329 7.2495 30.9089 7.18425 30.7031 7.4378C30.693 7.4509 30.7049 7.48181 30.7157 7.47203ZM36.1748 6.66493C36.1602 6.65712 36.1335 6.67194 36.1458 6.68103C36.3975 6.86225 36.4543 6.83311 36.1748 6.66493ZM36.7798 6.47903C36.9155 6.56717 36.8835 6.53236 36.7562 6.45354C36.7486 6.44885 36.7376 6.45157 36.7798 6.47903ZM30.5369 6.79789C30.5316 6.80477 30.5335 6.81564 30.5657 6.77887C30.6725 6.6567 30.6328 6.68258 30.5369 6.79789ZM21.852 7.34088C21.7774 7.39549 21.7693 7.4668 21.6928 7.38238C21.6919 7.38137 21.6905 7.38074 21.6896 7.3797C21.6946 7.41299 21.7091 7.44435 21.7316 7.47326C21.7447 7.48966 21.8085 7.48368 21.8613 7.4773C21.8413 7.4442 21.8236 7.41475 21.8195 7.41019C21.8033 7.39207 21.8176 7.37354 21.852 7.34088ZM37.0902 5.78429C37.2452 5.89387 37.2708 5.88356 37.1035 5.77928C37.0968 5.77523 37.0845 5.77979 37.0902 5.78429ZM29.8581 6.32356C29.9863 6.18352 29.9762 6.15453 29.8529 6.3083C29.8481 6.31447 29.8528 6.32884 29.8581 6.32356ZM16.6019 7.16174C16.6671 6.97981 16.5334 6.94352 16.5328 7.14293C16.5335 7.15093 16.5984 7.16867 16.6019 7.16174ZM38.6053 4.65449C38.3771 4.52077 38.6898 4.75039 38.8648 4.8556C39.0392 4.95974 38.6748 4.69557 38.6053 4.65449ZM37.084 4.80299C37.0336 4.7572 37.0693 4.76908 37.219 4.85951C37.2063 4.86217 37.1976 4.86809 37.1878 4.87285C37.184 4.87454 37.179 4.87578 37.1744 4.87689C37.1333 4.8455 37.1029 4.8199 37.084 4.80299ZM27.6187 4.63699C27.6311 4.67972 27.4057 5.34438 27.3544 5.23584C27.3485 5.21626 27.4777 5.04764 27.4884 4.9828C27.5154 4.86857 27.2943 5.24857 27.3773 5.02622C27.3953 4.98681 27.6184 4.63617 27.6187 4.63601L27.6187 4.63699ZM38.4977 4.10873C38.4021 4.04627 38.4974 4.14122 38.6175 4.21844C38.7132 4.28001 38.6171 4.18693 38.4977 4.10873ZM28.0397 4.64454C28.082 4.53763 28.0052 4.64701 27.9529 4.78003C27.911 4.88691 27.987 4.77725 28.0397 4.64454ZM28.6969 4.33089C28.7737 4.14292 28.5601 4.54061 28.5302 4.61502C28.4314 4.8597 28.6191 4.51974 28.6969 4.33089ZM38.1444 3.48126C38.1609 3.48552 38.3198 3.62039 38.3758 3.65038C38.4849 3.69491 38.1147 3.45822 38.3256 3.56435C38.3648 3.58211 38.6856 3.80445 38.7007 3.82455C38.6304 3.87164 38.0681 3.45612 38.1444 3.48126Z" fill="url(#paint0_linear_77408_363)"/>
</g>
<defs>
<linearGradient id="paint0_linear_77408_363" x1="-1.05725" y1="6.14758" x2="36.4781" y2="-1.03548" gradientUnits="userSpaceOnUse">
<stop stop-color="#CBF93E"/>
<stop offset="1" stop-color="#F4FE3F"/>
</linearGradient>
</defs>
</svg>
