<svg width="27" height="18" viewBox="0 0 27 18" fill="none" xmlns="http://www.w3.org/2000/svg">
<path d="M7.80134 13.6897C7.99508 11.7 8.78693 10.4391 9.48432 8.74767C10.2661 6.86449 11.1006 4.73631 12.2127 2.5185C12.3518 2.24782 12.5282 1.92017 12.7031 1.64068C13.1431 1.413 12.0875 0.605937 15.129 0.31541C17.8171 1.84231 16.4932 2.08229 16.8173 2.50005C16.8742 2.87601 16.8972 3.18993 16.9179 3.49456C16.9869 4.70121 17.0243 5.67427 17.124 6.63608C17.2657 8.06889 17.5266 9.5106 17.8825 10.9276C18.0608 11.6356 18.2638 12.3315 18.4951 13.0186C18.6112 13.3645 18.7341 13.7101 18.8625 14.0592C18.9266 14.2336 18.9923 14.4092 19.0597 14.5895C19.0934 14.6797 19.1282 14.7727 19.1651 14.8739C19.1773 14.9227 19.165 14.8073 19.2628 15.198C19.3625 15.1454 19.2678 17.1536 17.7356 17.2507C16.9609 17.2689 16.9366 17.1131 16.801 17.0749C16.4511 16.8887 16.4579 16.8567 16.3709 16.7943C16.1645 16.625 16.1309 16.5355 16.0682 16.4787C15.5174 15.9629 14.7257 15.2153 14.2545 14.747C13.3559 13.7448 11.6598 12.6648 10.5538 12.0967C10.1039 11.8539 9.62383 11.6256 9.47277 11.4561C9.29454 11.3691 9.18581 11.4127 9.14287 11.399C9.14245 11.3988 9.14202 11.3985 9.1416 11.3982C9.00878 11.3549 8.67262 11.1591 8.59107 11.133C8.5788 11.129 8.63173 11.2122 8.44403 11.1228C8.4272 11.1151 8.45784 11.0825 8.29261 11.0219C8.25081 11.0051 7.66793 10.8696 7.50163 10.8212C6.96002 10.6547 5.61295 10.2056 4.9565 10.0426C4.85495 10.0167 4.79063 10.0249 4.68325 9.99887C4.62786 9.98544 4.5508 9.94025 4.53356 9.93627C4.45853 9.91868 4.10473 9.95698 4.27433 9.75906C3.92743 9.69499 4.0124 9.79347 3.99384 9.83989C3.62147 9.76523 3.46271 9.62416 3.34323 9.71792C2.85294 9.61302 2.57531 9.59288 1.80698 9.42491C1.667 9.37202 1.65339 9.45696 1.09371 9.11308C0.69876 9.26261 0.251697 6.66939 0.843479 6.57576C1.20482 6.23103 1.27602 6.25384 1.38664 6.18869C1.74818 6.02534 1.8597 6.015 2.02383 5.96748C2.33073 5.88786 2.58123 5.83746 2.84446 5.78523C3.86705 5.58728 4.84556 5.43686 5.83171 5.28445C5.82932 5.2658 5.82692 5.24714 5.82452 5.22849C6.42105 5.20899 6.59283 5.05386 6.94124 5.1097C7.14558 5.0535 7.33818 4.99933 7.54204 4.94358C12.7844 4.21831 17.9445 3.38129 23.1642 2.69976C23.385 2.67265 23.4465 2.70442 23.8224 2.66221C24.0343 2.63957 24.2692 2.59915 24.6125 2.56817C24.7079 2.56134 24.7912 2.55119 24.9872 2.55789C25.1459 2.60867 24.9972 2.37296 25.9258 2.85695C26.7864 3.1287 26.5587 5.39106 26.3263 5.30991C26.1447 5.5394 26.0816 5.57146 26.0273 5.62161C25.7103 5.87199 25.7834 5.81267 25.6398 5.9209C25.2492 6.21158 24.6511 6.58744 24.2192 6.87982C24.1234 6.94483 24.0654 7.01573 24.0552 7.0226C23.9913 7.06563 23.9629 7.03648 23.901 7.0778C23.8273 7.12711 23.7528 7.21448 23.6661 7.27182C23.3413 7.487 22.9931 7.73639 22.9547 7.76166C22.7557 7.89243 22.6916 7.88843 22.6751 7.89909C22.4525 8.04428 22.5559 8.01694 22.5006 8.05189C22.2111 8.23487 21.9627 8.29603 21.6257 8.62536C21.6179 8.59104 21.6102 8.55674 21.6024 8.52245C21.2947 8.70746 21.5402 8.64713 21.4886 8.70091C21.4685 8.72161 20.8265 9.14054 20.777 9.17186C20.6018 9.28273 20.5746 9.24854 20.5593 9.2581C20.5234 9.28054 20.1198 9.61108 19.8804 9.72589C19.5945 9.86343 19.8521 9.58383 19.778 9.61346C19.7654 9.61856 19.4984 9.80862 19.4463 9.81013C19.3895 9.81233 19.6248 9.65523 19.614 9.64736C19.6073 9.64155 19.1815 9.85309 19.2334 9.76834C19.2716 9.69274 19.8301 9.38217 19.9323 9.28999C19.9492 9.2748 19.8855 9.2558 19.9009 9.24316C19.9628 9.19349 21.1849 8.3705 21.2448 8.34003C21.1948 8.40181 21.1442 8.46404 21.0929 8.52669C21.1799 8.47098 21.2647 8.41678 21.3505 8.36185C21.242 8.45745 21.1294 8.55583 21.0213 8.65108C21.3079 8.69014 21.7369 8.16603 21.7064 8.07069C21.6918 8.02704 21.2948 8.15702 21.5673 7.89306C21.5145 7.91491 21.4592 7.93843 21.4076 7.9595C21.3239 8.03849 21.2354 8.12073 21.1513 8.19991C21.2203 8.16767 21.2933 8.13274 21.3633 8.09974C21.3473 8.12664 21.3312 8.15361 21.3149 8.18065C21.1462 8.3201 20.98 8.45776 20.8125 8.59615C20.7144 8.6502 20.7106 8.60532 20.6438 8.64103C19.8004 9.09204 20.3827 8.84798 19.8561 9.1803C19.7697 9.21283 19.6849 9.24425 19.5992 9.27631C19.6739 9.33157 19.4147 9.43929 19.1573 9.65742C19.1748 9.61158 19.1924 9.56571 19.2098 9.51992C18.8166 9.80184 17.9226 10.2296 18.2295 10.2119C18.1298 10.2628 18.0308 10.3131 17.9313 10.3638C17.8678 10.4372 17.8043 10.5106 17.7409 10.5839C17.632 10.6535 17.5229 10.7232 17.414 10.7928C17.4058 10.7816 17.3976 10.7705 17.3894 10.7593C17.4749 10.7018 17.5605 10.6442 17.6461 10.5867C17.5583 10.5948 17.4705 10.603 17.3828 10.6111C17.3236 10.6593 17.2643 10.7076 17.2051 10.7558C17.4921 10.611 17.1794 10.8995 17.1257 11.0026C16.9139 11.1696 16.731 11.2056 16.6543 11.2532C16.6184 11.2754 16.2751 11.66 16.3593 11.4345C16.156 11.5919 15.9529 11.7491 15.7487 11.9073C15.6593 11.9546 15.5708 12.0013 15.481 12.0489C15.6257 11.8726 15.057 12.1615 15.4284 11.8783C15.7045 11.6676 15.8105 11.6698 15.9466 11.5776C16.0697 11.4943 16.1123 11.4161 16.2452 11.3245C17.1421 10.7072 17.8828 10.2194 18.7516 9.65852C18.924 9.54729 19.0664 9.42748 19.1824 9.35309C19.3127 9.26955 19.1806 9.42022 19.337 9.30022C19.5022 9.17343 19.5161 9.11342 19.5609 9.08234C19.5888 9.06309 19.6995 9.03434 19.7824 8.97866C20.1209 8.75154 20.5972 8.38738 20.6468 8.35422C20.7009 8.31859 21.6797 7.70042 21.7296 7.67391C21.7555 7.66045 21.7856 7.8088 21.9105 7.54451C21.9764 7.49659 22.041 7.44951 22.1043 7.40332C22.1095 7.43354 22.1146 7.46378 22.1197 7.49404C22.4514 7.1413 22.3486 7.28274 22.7215 7.01865C23.1638 6.70481 23.7227 6.32298 24.2907 5.92555C24.5759 5.72588 24.8622 5.52277 25.139 5.31829C25.3349 5.15532 25.158 5.38046 25.7076 4.84512C25.9515 4.89788 25.6902 3.31264 25.349 3.41688C25.1361 3.32997 25.0869 3.3422 25.0175 3.33099C24.9154 3.32079 24.8474 3.32223 24.7951 3.32277C24.679 3.325 24.6005 3.33101 24.5133 3.3378C24.2233 3.36274 24.1236 3.40806 23.8039 3.44631C23.51 3.48106 22.734 3.47963 22.9176 3.59552C22.2585 3.55973 22.1778 3.77951 21.8402 3.6947C21.8034 3.71851 21.7639 3.7427 21.7284 3.76635C21.3737 3.73304 21.2693 3.81846 20.8905 3.87996C20.7272 3.90655 20.9077 3.79561 20.5834 3.93604C20.5206 3.93751 20.457 3.9391 20.3926 3.9408C20.4046 3.9183 20.4164 3.8958 20.4283 3.87331C20.0599 3.94104 20.0361 3.93353 20.0881 4.00444C19.9114 4.01461 19.7251 4.02617 19.5489 4.03641C19.5304 4.06461 19.5118 4.09282 19.4932 4.12103C19.5878 4.15603 23.6052 3.52667 24.2061 3.45822C24.3899 3.4576 24.552 3.43277 24.923 3.44134C24.9902 3.44835 25.01 3.43275 25.2144 3.49121C25.5448 3.28542 25.7425 5.05463 25.5378 4.86047C25.3618 5.02486 25.3518 5.01099 25.3016 5.05233C25.2155 5.11703 25.1142 5.19553 25.0159 5.27072C24.6209 5.57326 24.2428 5.85591 24.0151 6.00702C23.8353 6.12596 23.7224 6.13472 23.4604 6.30749C23.1973 6.48096 22.9017 6.74652 22.7632 6.84331C22.3048 7.16667 20.1163 8.62693 21.5608 7.56698C21.5031 7.57214 21.4452 7.57746 21.3868 7.58308C20.85 8.06024 21.0291 7.86854 20.535 8.1891C20.3254 8.32495 19.8708 8.70552 19.8265 8.5821C20.1965 8.30518 20.6272 8.06471 20.9578 7.83985C20.992 7.81663 21.3523 7.50384 21.5652 7.37899C21.7558 7.26748 21.6992 7.45238 22.0195 7.0709C22.3864 6.98266 22.4942 6.7631 22.563 6.70064C22.6846 6.59072 22.7359 6.63516 22.8759 6.54855C23.0273 6.45508 23.104 6.34947 23.1232 6.33592C23.3218 6.20015 24.3646 5.46389 24.4259 5.4497C24.3914 5.48869 24.3542 5.52942 24.3208 5.56745C24.6016 5.39057 24.5072 5.37481 24.5727 5.31793C24.627 5.27907 24.6775 5.24275 24.732 5.20334C24.7189 5.23008 24.7064 5.25641 24.6937 5.2828C25.0082 5.04977 24.7491 5.17959 25.1812 4.86146C25.0024 4.81984 26.3405 4.81519 25.1041 3.68327C24.8238 3.62455 24.8018 3.64795 24.7074 3.6396C24.5466 3.63394 24.4439 3.63197 24.4257 3.6352C24.415 3.63726 24.5315 3.6632 24.386 3.68055C24.1391 3.70988 23.7333 3.75654 23.6783 3.71405C23.5629 3.73464 23.5802 3.78069 23.5647 3.78364C23.4943 3.79519 22.3499 3.95817 22.1426 3.98954C21.5726 4.07313 20.9407 4.14903 20.3272 4.24158C20.2632 4.25121 20.3 4.21524 20.2355 4.22513C20.135 4.24052 19.618 4.36053 19.5417 4.37459C19.3465 4.41002 18.8315 4.46261 18.7525 4.48773C18.7415 4.49126 18.9136 4.50896 18.7207 4.54886C18.5055 4.5933 18.6146 4.52188 18.6028 4.52297C18.1527 4.56677 17.8757 4.6448 17.5754 4.69469C17.4782 4.71082 17.2865 4.69561 17.1515 4.72721C17.1358 4.73085 17.1728 4.76469 17.1574 4.76878C16.9519 4.81835 16.7422 4.77559 16.6516 4.78376C16.4288 4.80392 16.5566 4.83928 16.5452 4.84129C16.3982 4.86388 16.1934 4.87371 15.9701 4.90812C14.967 5.06265 14.1476 5.18384 13.0793 5.33572C12.9452 5.35481 12.7807 5.34104 12.7602 5.34398C12.697 5.35351 12.7214 5.39431 12.5378 5.42014C12.151 5.47441 11.7937 5.52903 11.4105 5.58473C11.3333 5.59594 11.2945 5.56054 11.2357 5.56834C11.0389 5.59479 10.3836 5.79988 10.3522 5.67058C9.97748 5.84512 9.7026 5.78407 9.38973 5.83233C8.64378 5.94706 7.48329 6.14888 6.73732 6.25121C6.57795 6.273 6.50002 6.25097 6.41364 6.26281C6.25697 6.28381 5.37178 6.44604 5.31893 6.44979C5.22382 6.45516 5.26048 6.29678 4.80627 6.50518C4.53755 6.56004 4.55207 6.49556 4.49605 6.50176C4.04661 6.5536 3.63679 6.76879 3.69464 6.63049C3.17764 6.76026 2.8528 6.89946 2.61144 6.8342C2.62053 6.89289 2.39744 6.96748 2.04817 7.05744C2.36753 6.8586 2.31325 6.80452 3.06208 6.66615C3.07361 6.66411 3.05993 6.70913 3.07144 6.7071C3.17602 6.6887 3.40004 6.62376 3.57126 6.59426C3.75108 6.56316 3.65673 6.60949 3.73017 6.59542C3.79385 6.5832 3.78343 6.54477 3.87788 6.52713C4.19016 6.46927 4.44896 6.41382 4.62753 6.38269C4.73957 6.3632 4.86089 6.37811 4.94836 6.36349C5.2755 6.30819 5.96659 6.16847 6.38592 6.10604C6.47225 6.09326 6.44106 6.13773 6.63291 6.11072C6.65515 6.1076 6.73219 6.05417 6.89481 6.02012C7.05814 5.98597 7.19613 5.98496 7.29923 5.96466C7.38725 5.94743 7.34393 5.91748 7.52714 5.88682C7.6814 5.86032 9.41673 5.62258 9.5087 5.61519C9.64488 5.60313 9.71708 5.64372 9.79919 5.62514C9.81358 5.62164 9.83128 5.56932 9.88058 5.55839C10.7008 5.37637 12.547 5.17233 13.495 5.03478C15.4766 4.74674 17.3024 4.45769 19.3001 4.16808C19.3351 4.15458 19.3701 4.1411 19.4048 4.12765C19.1982 4.15603 19.0027 4.18293 18.7965 4.21141C18.792 4.18871 18.7875 4.166 18.783 4.14329C18.5104 4.17768 18.5542 4.22678 18.5664 4.25837C18.4637 4.25862 18.3599 4.25902 18.2554 4.25956C18.1816 4.3512 17.4996 4.39301 17.15 4.44264C16.9261 4.4743 16.6575 4.54342 16.5398 4.55774C16.288 4.58854 16.2868 4.53853 16.267 4.54055C16.2324 4.54432 15.8885 4.63758 15.6334 4.67235C15.2583 4.72356 15.2054 4.654 14.7026 4.79175C14.0385 4.84727 13.3129 4.97248 12.6049 5.08244C12.7296 4.99292 12.1044 5.15176 11.8172 5.19292C10.0673 5.44317 7.91959 5.73414 6.13969 5.98998C5.9102 6.02305 5.73309 6.00957 5.6049 6.03177C5.5362 6.04364 5.51408 6.09687 5.41961 6.10573C5.40368 6.10709 5.38117 6.06426 5.20116 6.08692C4.7551 6.14142 3.66347 6.40924 3.3629 6.37939C2.97827 6.45721 2.60254 6.53209 2.17498 6.65007C2.0697 6.68033 1.95802 6.7115 1.80291 6.7737C1.72048 6.81474 1.6565 6.80501 1.40438 7.01396C0.784649 7.2261 1.63076 8.88023 1.68843 8.64032C2.17534 8.82189 2.25781 8.78402 2.47531 8.82772C3.21926 8.94013 3.93653 9.07698 4.6611 9.24355C4.69294 9.27042 4.72486 9.29738 4.75647 9.32434C5.05318 9.29333 6.118 9.64097 6.64944 9.79628C7.58051 10.0601 8.7551 10.4172 9.48691 10.7371C9.6438 10.8045 9.77517 10.8957 9.93277 10.9678C10.0006 10.9989 10.0994 11.0062 10.1695 11.0389C10.9629 11.4055 11.9783 11.974 12.6835 12.4362C13.5028 12.9648 14.1418 13.503 14.857 14.2297C15.2087 14.5763 15.5626 14.9276 15.9246 15.2823C16.1064 15.4601 16.2899 15.639 16.4848 15.8219C16.583 15.9135 16.6825 16.006 16.8049 16.1095C16.8746 16.1652 16.907 16.2056 17.0894 16.3162C17.1535 16.3379 17.1292 16.4028 17.5365 16.4509C18.425 16.5573 18.5312 15.1629 18.4529 15.2833C18.3992 15.116 18.4126 15.1677 18.3961 15.1206C17.1033 11.9046 16.3191 8.65307 16.1281 5.26922C16.0692 4.42199 16.0854 3.58568 15.9467 2.598C15.8911 2.33337 15.9186 2.12038 15.6182 1.62671C15.1357 0.739887 13.7337 1.50959 13.7401 1.68201C13.3338 2.18806 13.1851 2.53277 12.9621 2.94802C12.1489 4.54785 11.4879 6.14915 10.8396 7.77053C10.8052 7.85745 10.7692 7.83838 10.7425 7.90583C10.5838 8.30312 10.2758 9.20967 10.1099 9.66416C9.97595 10.0263 9.71519 10.5851 9.73114 10.7324C10.2673 9.4612 10.7731 8.11375 11.3351 6.80605C11.375 6.71322 11.4156 6.71587 11.4209 6.70465C11.5211 6.4963 11.4157 6.61205 11.5422 6.3014C11.5829 6.19731 12.1008 5.29756 11.9411 5.36167C12.0791 5.15207 12.8245 3.57384 12.9755 3.25875C13.0184 3.16257 12.9526 3.21278 12.9603 3.19333C12.9942 3.10861 13.055 3.09944 13.0947 3.02537C13.1906 2.84066 13.4396 2.31294 13.4948 2.23117C13.5646 2.12454 13.6928 1.90707 13.9664 1.63987C14.0631 1.18117 15.7544 1.61543 15.6083 1.91723C15.7842 2.34682 15.7814 2.23305 15.8476 2.52929C15.8845 2.74658 15.8158 2.52805 15.8544 2.99153C15.8753 3.22221 15.9463 3.97712 15.9526 4.15523C15.9604 4.33585 15.9369 4.53415 15.9506 4.7786C15.9689 5.13048 16.0342 5.88388 16.0762 6.23533C16.0785 6.25613 16.1234 6.30431 16.1272 6.35582C16.1352 6.46296 16.0824 6.43574 16.0849 6.51683C16.0808 6.59997 16.2553 7.99444 16.3 8.22922C16.3253 8.39183 16.3736 8.49906 16.3885 8.58877C16.4003 8.65917 16.3605 8.67383 16.3725 8.74534C16.3763 8.76715 16.4453 8.95027 16.4806 9.14078C16.5115 9.3186 16.6179 10.0007 16.6363 10.0787C16.6474 10.1294 16.6639 10.0676 16.6968 10.2176C16.727 10.3544 16.7104 10.4527 16.7282 10.5307C16.7696 10.7116 16.8509 10.905 16.8998 11.0953C17.0419 11.6418 16.9924 11.6254 16.9991 11.6587C17.02 11.7504 17.0724 11.775 17.0816 11.8043C17.1201 11.9288 17.2175 12.2324 17.2531 12.3426C17.297 12.4795 17.275 12.5489 17.3218 12.6971C17.357 12.808 17.4655 13.0125 17.5519 13.2596C17.7459 13.817 18.0002 14.4691 18.2122 15.0274C18.2845 15.2413 18.2129 15.045 18.3049 15.4544C16.2655 17.4413 17.2708 15.7871 17.0028 16.045C16.9402 15.9999 16.8926 15.9651 16.8524 15.9368C16.7719 15.8797 16.7176 15.8439 16.6864 15.815C16.2362 15.3953 15.5631 14.6274 15.1833 14.247C15.0246 14.0904 14.3484 13.4481 13.9616 13.1321C13.9172 13.0946 13.9781 13.1063 13.9252 13.0688C13.798 12.9795 13.7711 13.0363 13.711 12.9864C13.6821 12.9622 13.6352 12.8821 13.549 12.8127C13.1013 12.4536 12.7479 12.2637 12.5247 12.1225C10.3485 10.7656 7.85355 9.84918 5.47859 9.21837C5.21656 9.14812 4.8824 9.09958 4.49221 8.97327C4.48421 8.95212 4.47626 8.93099 4.46818 8.90984C4.45 8.9246 4.43187 8.9394 4.41379 8.95421C3.95984 8.86182 3.7843 8.84911 3.32505 8.73704C3.28558 8.72751 3.17868 8.62032 3.08413 8.71164C2.63792 8.55447 2.87948 8.67567 2.52974 8.62502C2.34624 8.59632 2.18894 8.5771 1.91822 8.49187C1.83007 8.44712 1.79899 8.51368 1.49797 8.23525C0.95576 7.56564 1.72808 7.03537 1.72485 7.06666C1.91745 6.96702 2.00506 6.95267 2.10426 6.92129C2.20899 6.91476 2.10254 6.95239 1.8065 7.11829C1.81927 7.20133 1.23683 7.05357 1.49323 8.04732C1.83255 8.46679 1.85416 8.31072 1.93266 8.36255C2.06124 8.39486 2.12461 8.3993 2.14004 8.40348C2.2384 8.42543 2.31977 8.49355 2.40205 8.51059C2.64613 8.56014 2.86858 8.55385 2.91255 8.60988C3.21572 8.61231 2.84488 8.57258 2.88907 8.53472C3.08271 8.58697 3.27752 8.6416 3.47072 8.69808C3.60185 8.56277 4.64523 8.99539 4.59536 8.86745C4.67581 8.91028 4.75686 8.95365 4.8368 8.99715C5.24775 8.94737 5.44672 9.10409 5.93107 9.28443C5.90022 9.25632 5.86907 9.2282 5.83834 9.20025C5.8495 9.19468 6.30226 9.29228 6.12133 9.32367C6.60503 9.35307 6.53691 9.51513 6.97772 9.51472C7.22249 9.57186 7.05784 9.5971 7.48538 9.7289C7.73834 9.80747 8.0624 9.8726 8.34136 9.96645C8.40556 9.98817 8.41938 10.038 8.47598 10.058C8.53275 10.0781 8.57413 10.0486 8.64316 10.0724C8.78541 10.1212 8.95711 10.2172 9.04468 10.2482C9.12362 10.2763 9.24855 10.2852 9.43607 10.357C10.0805 10.6111 9.87346 10.5865 9.96681 10.6466C10.0701 10.7151 10.1781 10.6884 10.3938 10.7993C10.4155 10.8104 10.3402 10.8224 10.4123 10.8548C10.4703 10.8809 10.5199 10.8521 10.7133 10.9361C10.7941 10.9646 11.9513 11.5506 12.1167 11.6544C12.3806 11.8003 12.9257 12.185 13.1766 12.361C13.274 12.4279 13.3992 12.4703 13.5007 12.5448C13.8395 12.7902 14.3485 13.2097 14.7239 13.5825C15.0769 13.9304 15.6358 14.599 15.8838 14.7378C16.3875 15.2199 16.4709 15.3864 16.5075 15.423C16.6117 15.5259 16.6878 15.5406 16.8273 15.6663C16.9545 15.7741 17.0026 15.8479 17.2745 16.0178C19.337 14.5668 17.7277 15.2989 17.9679 14.9884C17.8557 14.6992 17.7431 14.406 17.6327 14.1061C17.412 13.5074 17.2013 12.8851 17.0182 12.2623C16.6491 11.0125 16.3759 9.74997 16.1913 8.68686C15.9752 7.45642 15.8493 6.21135 15.7839 4.95426C15.7494 4.32281 15.7384 3.68722 15.6724 3.01568C15.6239 2.66898 15.6485 2.37755 15.3879 1.86839C14.737 0.905376 13.8657 1.99425 13.7838 2.16408C12.4081 4.4921 11.5486 6.85806 10.6142 9.26642C10.627 9.28588 10.6399 9.30531 10.6527 9.32474C10.8756 8.75893 11.1631 8.10498 11.3923 7.55122C11.6963 6.81133 12.085 5.68522 12.4411 5.19974C12.3559 5.42042 12.1569 5.75851 12.2205 5.77812C12.3916 5.391 12.5686 4.99993 12.7485 4.61611C12.7156 4.61486 12.6826 4.61366 12.6496 4.6125C12.8266 4.20165 13.0265 3.79167 13.2249 3.38651C13.26 3.31533 13.21 3.35281 13.2408 3.29169C13.2751 3.2239 13.2769 3.28263 13.2836 3.27007C13.3704 3.10056 13.3753 3.03156 13.3859 3.01204C13.415 2.95967 13.4158 3.01446 13.5079 2.86006C13.6783 2.57534 13.7421 2.33932 13.8044 2.46709C13.8577 2.37938 13.9156 2.28828 13.9835 2.19272C13.9741 2.14943 13.9624 2.10993 13.9573 2.06225C14.3723 1.22946 15.7546 2.20081 15.4309 2.51458C15.4828 2.63639 15.5276 2.75285 15.57 2.87183C15.5456 2.94349 15.5202 3.01511 15.4939 3.08476C15.5231 3.09519 15.5522 3.1058 15.5814 3.11655C15.6173 3.75935 15.6631 4.41508 15.6912 5.00203C15.7105 5.40845 15.7058 5.50747 15.7338 5.86731C15.8022 6.6674 15.6802 5.87646 15.6795 6.54756C15.7105 6.50983 15.7416 6.47205 15.7727 6.43424C15.7953 6.5433 15.8184 6.65125 15.8422 6.75993C15.822 6.83885 15.8022 6.91817 15.7827 6.99783C15.9647 7.32009 15.8775 7.5516 15.8835 7.59785C15.8891 7.63524 15.9904 7.75022 15.9771 8.15918C16.0702 7.97615 16.025 8.46239 16.0313 8.50022C16.0362 8.53644 16.1408 8.98537 16.1757 9.17172C16.2019 9.31722 16.2372 9.63021 16.2841 9.84544C16.3254 10.0352 16.3615 10.0072 16.3648 10.021C16.4191 10.2535 16.3561 10.1142 16.3923 10.2831C16.4287 10.452 16.4934 10.5744 16.4989 10.6113C16.5017 10.6299 16.4503 10.5776 16.4666 10.6621C16.5099 10.889 16.644 11.2853 16.7122 11.5399C16.7362 11.6303 16.7363 11.7523 16.7636 11.8531C16.8055 12.0073 16.8674 12.067 16.8922 12.1564C16.9007 12.1872 16.8952 12.4043 16.9809 12.645C16.9973 12.6908 17.1732 12.786 17.0439 13.027C17.0749 13.0323 17.1059 13.0376 17.1369 13.0428C17.4728 13.834 17.3505 14.1351 17.6717 14.4259C17.872 15.0211 17.647 14.6455 17.6601 14.7143C17.6689 14.759 17.7618 14.9424 17.7691 14.965C17.7811 15.0031 17.7552 15.0057 17.7711 15.0468C18.1422 15.3053 17.1309 15.9814 17.2476 15.7892C17.1957 15.7694 17.2019 15.8015 17.0838 15.7212C16.5563 15.3441 16.3184 14.8988 17.0889 15.6734C17.0981 15.6628 17.1073 15.6522 17.1164 15.6417C16.8963 15.4706 16.4289 15.0044 16.6362 15.1068C16.7217 15.1487 17.0261 15.4456 17.2875 15.6487C17.5514 16.1073 18.4154 15.0945 17.3484 15.6235C17.1898 15.4741 17.0792 15.441 16.8923 15.1286C16.7289 14.9649 16.616 15.0331 16.4274 14.7774C16.4341 14.8462 16.4379 14.9121 16.4449 14.9811C16.0983 14.7244 15.779 14.2992 15.5288 14.0877C15.4426 14.0145 15.0102 13.8867 15.2251 13.8006C15.082 13.6753 14.4881 13.0491 14.3503 12.9666C14.3167 12.9464 14.214 12.9926 13.8044 12.6242C13.7827 12.5897 13.7607 12.5552 13.7385 12.5208C14.1671 12.7945 13.4761 12.2214 13.7348 12.2811C13.775 12.3685 14.0776 12.6389 14.1118 12.6995C14.1712 12.8018 13.8838 12.6353 14.2157 12.8893C14.5351 12.9209 13.8946 12.5034 14.0888 12.4436C13.5967 12.1642 13.5908 12.0798 13.4888 12.0028C13.0479 11.6842 12.7458 11.5206 12.31 11.2481C12.1864 11.2141 12.9587 11.7289 13.0594 11.783C12.6384 11.6619 13.2445 12.051 13.533 12.17C13.5323 12.2153 13.5313 12.2606 13.5301 12.3058C13.2223 12.0604 12.9034 11.8409 12.552 11.6657C12.5374 11.6406 12.5227 11.6154 12.5078 11.5903C12.5944 11.6173 12.6806 11.6448 12.7669 11.6732C12.5045 11.4734 12.6192 11.667 12.289 11.3654C12.2563 11.3952 12.2237 11.4252 12.1911 11.4551C11.8356 11.2369 11.4714 11.0298 11.1021 10.8304C10.8702 10.8068 10.1537 10.4341 10.3333 10.398C10.04 10.2532 10.3821 10.476 10.0924 10.3714C9.96614 10.3256 9.7291 10.2224 9.6833 10.1714C9.74901 10.0848 10.1102 10.2337 10.248 10.2192C10.1978 10.148 8.48492 9.54924 8.67255 9.50163C8.54005 9.43965 8.58255 9.5202 8.32928 9.45089C7.62135 9.25566 6.56147 8.81617 5.94911 8.80763C6.59392 9.07911 6.81629 9.0493 7.32671 9.20029C7.65865 9.28169 9.60908 9.96398 9.13504 9.91151C9.21022 9.92544 9.28564 9.93996 9.36097 9.95501C9.41942 10.0137 9.47734 10.0728 9.5347 10.1323C9.33622 10.0545 9.13541 9.98093 8.93311 9.91045C8.89661 9.86191 8.85989 9.81349 8.82275 9.76512C8.79251 9.77895 8.76229 9.79283 8.73209 9.80676C8.64533 9.78036 8.5587 9.7546 8.4716 9.7292C8.50488 9.71105 8.53819 9.69296 8.57153 9.67492C8.44108 9.62397 8.31008 9.57412 8.17867 9.52518C8.20258 9.57271 8.22631 9.62026 8.24992 9.66785C7.62275 9.46891 7.84148 9.51803 7.51322 9.34061C7.25384 9.25302 7.67439 9.45693 7.11571 9.30588C6.46449 9.13422 6.92147 9.14749 6.07399 8.93053C6.05681 8.94513 6.03966 8.95975 6.02254 8.97438C5.84348 8.90462 5.66426 8.83649 5.48376 8.76975C5.50229 8.79868 5.52091 8.82766 5.53939 8.85663C5.16045 8.7458 4.6224 8.66341 4.51515 8.54589C4.89462 8.6788 4.92804 8.52494 4.83328 8.47168C4.74968 8.44621 0.891499 7.39418 2.99346 7.30117C3.77237 7.13491 4.37076 7.08712 5.07482 6.88888C4.5755 6.90318 2.89122 7.26024 2.55453 7.30912C2.51887 7.31393 2.49607 7.16588 2.32653 7.38315C1.8092 7.31691 2.18643 8.21919 2.58928 8.10163C2.97533 8.15627 3.37658 8.21696 3.78484 8.30216C3.75159 8.33835 3.71842 8.3746 3.68525 8.41088C3.20122 8.22245 2.7014 8.34079 2.79401 8.19028C2.69307 8.17343 2.59224 8.15732 2.48952 8.1399C2.48481 8.16766 2.4801 8.19542 2.47538 8.22318C2.31463 8.19299 2.17898 8.18332 1.95535 8.10055C1.96608 8.07452 1.97681 8.04849 1.98754 8.02246C1.56589 7.95562 2.08777 7.29874 2.15224 7.37841C2.15726 7.34705 2.16576 7.31472 2.16947 7.28406C2.58858 7.2028 3.83351 6.81964 3.30551 7.09018C3.47752 7.05643 3.65866 7.0224 3.83859 6.98956C3.83433 6.96941 3.83007 6.94926 3.82581 6.9291C3.89939 6.91286 3.97557 6.8963 4.05433 6.87943C4.0315 6.90243 4.00897 6.9254 3.98675 6.94833C4.33033 6.85262 4.68838 6.89118 4.89935 6.7903C4.74949 6.80123 4.58799 6.81447 4.43896 6.82598C4.73076 6.80227 5.26118 6.65798 5.30798 6.65027C5.45583 6.62565 5.53986 6.65408 5.69764 6.63059C5.84148 6.60909 5.81737 6.58063 5.84453 6.57738C6.62021 6.48571 6.35357 6.70413 6.68299 6.44439C6.72612 6.46592 6.76945 6.48744 6.81296 6.50893C6.86016 6.47787 6.90641 6.44696 6.95364 6.41592C7.18159 6.38242 7.41008 6.34909 7.63932 6.31586C7.55734 6.29313 7.4759 6.27034 7.39504 6.24749C7.73366 6.17912 7.9057 6.22376 7.93826 6.22036C8.0322 6.21004 8.0687 6.15989 8.09779 6.15534C9.49455 5.94589 8.64951 6.11408 9.37442 6.17164C9.61108 6.07033 9.35289 6.04342 9.30678 5.98359C9.63949 5.96476 9.74394 5.93058 10.0907 5.88242C10.1814 5.86987 10.2844 5.8905 10.342 5.8824C10.3923 5.87534 10.5412 5.81487 10.66 5.79706C10.8584 5.76728 11.126 5.75043 11.3977 5.70975C11.625 5.67558 12.3111 5.54766 12.7943 5.47693C13.0001 5.44691 12.957 5.48522 13.0102 5.47753C13.0323 5.47431 13.1873 5.4134 13.3194 5.39405C14.3966 5.23664 15.5055 5.10165 16.588 4.94715C17.3519 4.83821 18.123 4.69871 18.8878 4.59504C19.0522 4.5728 18.969 4.61253 19.0405 4.60355C19.0651 4.60037 19.0873 4.54818 19.3406 4.53266C19.4339 4.52681 19.3326 4.57521 19.4233 4.5643C19.4669 4.55906 19.482 4.51392 19.7316 4.4695C20.1958 4.38727 20.4496 4.4098 20.4909 4.40241C20.5677 4.38856 20.5407 4.35668 20.6414 4.34158C21.1512 4.26542 21.5637 4.20332 22.0184 4.13958C22.2287 4.10863 23.6821 3.91518 23.765 3.91478C23.944 3.90834 23.7879 4.00002 24.0173 3.97192C24.0777 3.94654 24.1446 3.92067 24.2061 3.89569C24.1033 3.89192 23.9986 3.88908 23.8917 3.88694C24.1794 3.87837 24.4941 3.81119 24.7307 3.80331C24.7773 3.81443 24.7504 3.75614 25.1352 3.8647C25.5604 5.52464 24.9835 4.52777 25.0053 4.78278C25.0604 4.72367 25.0927 4.68811 25.1819 4.59937C25.1381 4.62017 25.1072 4.62735 25.0771 4.63475C24.8045 4.85729 24.4864 5.0935 24.1804 5.30687C24.0716 5.38312 24.0912 5.33413 23.9791 5.41208C23.3278 5.86193 23.5565 5.84708 22.8038 6.09391C23.028 5.96551 23.7824 5.40674 23.8967 5.33394C23.9793 5.28244 24.3875 5.22371 24.1655 5.14364C24.7835 4.69973 24.3124 5.1753 24.872 4.7334C24.8468 4.72264 24.8214 4.71198 24.7956 4.70168C24.9799 4.67937 25.1766 3.90709 24.8671 4.00705C24.79 4.10667 23.96 4.12023 23.4948 4.18778C22.8383 4.27916 22.0878 4.40803 21.4378 4.50101C21.2185 4.53243 21.0753 4.50656 21.0505 4.51008C21.0103 4.51589 20.901 4.57062 20.8175 4.58235C20.5081 4.62567 19.5666 4.68855 19.3431 4.83032C21.1864 4.58682 22.9884 4.27268 24.862 4.1471C25.3705 3.76499 23.9192 5.37555 23.8191 5.32118C23.7456 5.36993 23.7846 5.29629 23.7618 5.30955C23.5939 5.40774 23.4876 5.54852 23.4379 5.5831C23.3988 5.61025 23.3059 5.64363 23.169 5.73907C23.144 5.75642 23.1525 5.78362 23.1251 5.80263C22.9455 5.9267 22.7679 6.04836 22.5863 6.17285C22.5744 6.18065 22.5074 6.17844 22.462 6.20938C22.4165 6.24047 22.3927 6.3048 22.3809 6.31299C22.2393 6.4094 21.9704 6.5611 21.8363 6.65176C21.7885 6.68423 21.8381 6.68567 21.7839 6.72214C21.6164 6.83479 21.643 6.7481 21.4448 6.8999C21.3801 6.94958 21.4098 6.98209 21.2742 7.06676C21.1778 7.12693 21.1462 7.05463 21.1297 7.06237C21.108 7.07294 20.8229 7.33911 20.6881 7.36865C20.8435 7.10239 20.4346 7.53088 20.4889 7.56246C20.352 7.63744 20.2199 7.70911 20.0838 7.78341C20.049 7.8241 20.0139 7.86494 19.9785 7.90594C19.4305 8.19641 19.1382 8.43918 18.6237 8.76041C18.5984 8.77621 18.1562 9.0345 18.165 9.00433C18.4 8.80497 18.6534 8.63305 18.8509 8.57766C19.0513 8.29611 19.1102 8.37388 19.5329 8.07057C19.6753 7.96835 19.6664 7.93437 19.6828 7.92283C20.2349 7.53238 21.1299 6.91246 21.5619 6.73664C21.6533 6.64313 21.2653 6.89309 21.4024 6.77704C21.4782 6.716 23.4011 5.36187 22.8435 5.87966C22.9062 5.83274 22.9687 5.78592 23.0306 5.73941C23.0368 5.60723 23.3668 5.40757 23.3911 5.51838C23.4093 5.47955 23.4249 5.44251 23.4441 5.4029C23.494 5.34594 23.5592 5.28853 23.6526 5.21588C23.7624 5.11279 24.8056 4.45009 24.8736 4.2758C24.1291 4.29129 23.4061 4.40945 23.3339 4.41993C23.3336 4.44506 23.3333 4.4702 23.333 4.49533C23.8504 4.40586 24.8923 4.47725 24.8561 4.2488C24.3696 4.61372 23.8654 4.97559 23.3032 5.32259C23.347 5.32054 23.3928 5.31705 23.4377 5.31421C22.9879 5.58833 22.5338 5.86037 22.082 6.12888C22.5159 5.78223 23.2271 5.25002 23.7234 4.94109C23.8102 4.8873 23.768 4.95704 23.7898 4.94648C23.8478 4.91787 23.8684 4.83442 24.0471 4.69942C24.2257 4.56597 24.6977 4.26405 24.7425 4.23086C24.847 4.00017 24.9089 4.60606 24.6836 4.50287C24.4713 4.51581 24.6111 4.46652 24.5683 4.46865C24.3882 4.47877 24.2283 4.51577 24.0828 4.52862C23.8678 4.54732 23.422 4.53083 23.2836 4.65258C23.4356 4.63825 23.5922 4.62373 23.7405 4.61087C22.9251 4.7462 22.2568 4.70373 21.4598 4.91415C21.2937 5.06293 21.9584 4.95577 21.4016 5.08514C21.5031 5.06956 21.606 5.0538 21.7103 5.03792C21.7311 5.00868 21.7517 4.97946 21.7721 4.95026C21.9474 4.94552 22.1304 4.9399 22.3114 4.93474C22.256 4.91854 22.203 4.90203 22.1504 4.88548C22.7732 4.78432 23.4128 4.67917 23.6447 4.778C23.6541 4.74628 23.6635 4.71458 23.6728 4.6829C24.2719 4.63739 25.072 4.47746 24.8771 4.65358C24.9206 4.59932 24.6566 4.84116 24.6128 4.18272C24.7073 3.83717 24.5757 4.18862 24.5279 4.20224C24.4973 4.22913 23.9241 4.6037 24.1398 4.38432C23.5741 4.74635 23.8335 4.75151 23.6857 4.86552C23.2896 5.05065 22.7178 5.5877 22.9143 5.30162C22.8605 5.33324 22.8027 5.36752 22.7478 5.3998C22.6296 5.59946 22.3958 5.6266 22.185 5.72625C22.1213 5.76713 22.0517 5.81205 21.9888 5.85227C21.965 5.90813 21.9404 5.96449 21.915 6.02136C21.2222 6.30442 21.6551 6.52458 21.1752 6.41759C21.2072 6.3701 21.2386 6.32298 21.2695 6.27623C21.3636 6.20019 21.4645 6.1195 21.5578 6.04379C21.1415 6.31522 20.7232 6.58612 20.304 6.85707C19.7236 7.12694 19.4858 7.4177 18.8574 7.74395C18.8074 7.78898 18.7589 7.833 18.7095 7.87757C18.7197 7.77316 18.9388 7.64054 18.5234 7.87549C18.4581 7.85027 18.7195 7.66598 18.8667 7.62009C18.9021 7.60927 18.6764 7.81355 18.9583 7.62625C19.149 7.49954 18.765 7.67448 19.3496 7.31264C19.3208 7.31509 19.292 7.31757 19.2632 7.32008C19.3247 7.27925 19.3872 7.23773 19.4496 7.19631C19.5229 7.18611 19.5958 7.17614 19.6683 7.16643C19.7842 7.03212 19.8271 6.92439 20.1571 6.71902C20.0817 6.79426 20.2356 6.76906 20.3956 6.6599C20.3826 6.64047 20.3695 6.62103 20.3564 6.6016C20.7335 6.32914 20.639 6.4759 20.9297 6.21463C20.9718 6.20868 21.0139 6.20267 21.0572 6.19586C21.1894 6.0141 21.8012 5.53471 21.7492 5.70924C21.8629 5.49651 22.2726 5.27711 22.4604 5.25632C22.4582 5.22958 22.4559 5.20289 22.4536 5.17624C22.5256 5.12091 22.5971 5.06579 22.6682 5.01089C22.7162 4.99475 22.7674 4.97645 22.8164 4.95957C22.8598 4.91233 22.9058 4.86322 22.9494 4.81574C22.9934 4.81355 23.0394 4.80994 23.0844 4.80699C23.1512 4.72617 23.2195 4.64418 23.2876 4.56197C23.348 4.54225 23.4116 4.52018 23.4725 4.49984C23.4517 4.45562 23.944 4.09022 24.1001 4.01317C24.1321 3.97198 24.1654 3.9296 24.1981 3.88767C24.2323 3.89112 24.2668 3.8944 24.3008 3.89797C24.3216 3.85946 24.3433 3.82025 24.3663 3.78035C24.6608 3.97638 23.7064 2.64407 24.7307 4.93423C24.9771 5.11205 24.581 4.97617 24.5764 4.99013C24.4359 5.00113 23.9367 5.12813 23.8473 5.13563C23.76 5.14223 23.7176 5.10624 23.645 5.11119C22.4863 5.19101 22.974 5.24201 22.7464 5.28841C22.6208 5.31435 22.5299 5.28794 22.4196 5.3068C22.2284 5.33885 21.2895 5.51661 21.2262 5.52048C21.147 5.52411 21.3082 5.32089 21.0582 5.40173C21.0629 5.49834 20.4941 5.47816 20.7699 5.576C20.5432 5.59521 20.3099 5.61545 20.0795 5.63541C20.1201 5.74516 19.8313 5.71089 19.5208 5.76047C19.0894 5.8293 18.1163 6.04175 18.136 5.92068C18.0348 5.96212 17.9333 6.00361 17.8338 6.04484C17.1121 6.10934 16.4206 6.24663 15.7104 6.34967C13.6082 6.65491 11.3234 6.96245 9.2295 7.25596C9.12908 7.27001 9.1378 7.22996 9.06585 7.24001C8.68278 7.29364 7.70426 7.471 7.16888 7.54659C7.00001 7.57033 6.91068 7.54662 6.85576 7.55354C6.67058 7.57664 6.72222 7.61833 6.63833 7.63019C6.50739 7.64845 5.79651 7.71627 5.55313 7.75176C5.43125 7.76939 5.30227 7.83037 5.15615 7.8426C5.14383 7.84367 5.15958 7.80016 5.14918 7.80119C4.89348 7.83915 5.05275 7.84773 4.96755 7.86025C4.35367 7.95155 3.69201 8.06467 3.05531 8.19347C2.90002 8.22468 2.65446 8.25443 2.54588 8.28468C2.50591 8.29614 2.57337 8.30514 2.45683 8.3418C2.43243 8.34777 2.37592 8.33798 2.44657 8.2928C3.17026 6.54644 2.12766 7.22102 2.42004 7.10092C2.494 7.09923 2.5785 7.10822 2.70008 7.18061C3.21886 7.254 4.16627 7.40277 4.64553 7.51349C4.75964 7.53918 4.8098 7.57486 4.91831 7.59988C4.99523 7.61765 5.13889 7.61456 5.25889 7.64371C5.3789 7.67283 5.55893 7.75358 5.78819 7.81283C6.02927 7.87488 6.33496 7.9392 6.38768 7.95443C6.45266 7.97287 6.46965 8.02323 6.53432 8.04113C6.72907 8.09492 7.26295 8.20585 7.51591 8.27843C7.78759 8.35583 7.94358 8.42767 8.036 8.45658C8.12169 8.48319 8.23283 8.48034 8.27207 8.49279C8.33304 8.51208 8.33409 8.5578 8.41129 8.58295C8.53765 8.62411 8.67636 8.64194 8.86597 8.70738C12.2923 9.86208 15.3697 12.1915 17.6029 14.6038C17.7305 14.726 17.8544 14.8293 17.9299 14.8802C17.8732 14.8838 18.2567 14.9159 17.5755 14.7848C15.7347 16.6303 17.1159 15.5564 16.8303 15.6993C16.7949 15.607 16.7534 15.4964 16.7068 15.3646C16.6307 15.1494 16.7067 15.2238 16.6357 15.0603C16.604 14.9872 16.5782 15.0181 16.5413 14.9248C16.377 14.5105 16.2325 14.0057 16.1694 13.8219C16.144 13.7486 16.0778 13.6782 16.0269 13.5274C15.6454 12.4027 15.2977 11.0444 15.0418 9.79797C14.903 9.13738 14.7147 8.13271 14.6239 7.36022C14.4932 6.29829 14.4304 5.17653 14.3908 4.12456C14.3676 3.60841 14.3419 3.07499 14.2656 2.69963C14.2602 2.40452 13.9887 2.87125 14.9556 2.77618C15.2085 2.62551 14.9388 2.8177 14.8575 2.98177C13.5398 5.29759 12.5278 8.07923 11.5252 10.7046C12.0572 9.48857 12.7054 7.79967 13.2934 6.44783C13.7176 5.47396 14.1611 4.47488 14.6495 3.5545C14.6009 3.0276 16.3904 3.00456 14.1769 2.66186C14.0678 2.41306 14.277 3.30566 14.2778 3.77425C14.3586 5.97648 14.591 8.36933 15.1008 10.5667C15.4342 12.1057 16.0576 14.0414 16.6545 15.6156C16.6675 15.651 16.6944 15.701 16.724 15.7601C16.7952 15.6124 16.5225 16.5989 16.8539 15.0586C18.9579 14.1373 17.7804 14.9456 18.0031 14.7921C18.0324 14.8209 17.7748 14.5205 17.6722 14.4192C17.7012 14.5841 17.3609 14.1366 17.2332 14.0138C17.0729 13.8618 16.7069 13.5707 16.3533 13.1827C16.0316 12.83 16.1524 12.8956 16.1352 12.8753C16.0253 12.7456 15.9399 12.7478 15.8442 12.6626C15.4903 12.2392 13.1383 10.4872 12.4262 10.1701C12.2476 10.0731 12.2603 10.0364 12.2201 10.0148C12.1131 9.95803 11.9421 9.91266 11.7704 9.82583C11.4602 9.66846 11.1179 9.46419 10.9458 9.38336C10.5453 9.19062 9.69805 8.86573 9.13518 8.67086C8.97667 8.61417 8.99982 8.57962 8.928 8.5545C8.61104 8.44153 7.77482 8.22369 7.3848 8.10933C6.75149 7.92132 6.10615 7.70704 5.44108 7.5542C5.40377 7.52611 5.36623 7.49805 5.32867 7.47007C5.25816 7.47226 5.18756 7.47464 5.11674 7.47719C4.55909 7.33557 3.98884 7.22112 3.41566 7.1251C3.13262 7.07693 2.82597 7.03419 2.58161 6.99419C2.51807 7.01361 2.11129 6.78261 2.61104 7.08715C2.76854 10.0961 2.39521 8.09462 2.583 8.43741C2.66195 8.40824 3.25097 8.31166 3.35564 8.29278C3.43541 8.27659 3.51377 8.21513 3.63675 8.19818C3.81588 8.17335 3.66537 8.28863 3.94696 8.21124C4.02367 8.19038 3.94651 8.16719 4.09484 8.12854C4.14356 8.11426 5.14817 7.92538 5.20525 7.91953C5.29943 7.90812 5.3911 7.97251 5.41444 7.97036C5.53598 7.95923 5.52147 7.90059 5.60312 7.8816C5.84263 7.82555 6.16519 7.81467 6.20221 7.80784C6.6788 7.71969 7.55381 7.53401 8.0611 7.4849C8.13022 7.47827 8.12892 7.52387 8.14119 7.52346C8.22054 7.52066 8.26153 7.46269 8.33629 7.45003C8.73616 7.3828 9.37238 7.32111 9.77464 7.26952C9.82118 7.26348 9.91577 7.22442 9.99963 7.21425C10.4705 7.15767 10.324 7.21955 10.3509 7.21721C10.4145 7.21194 10.5205 7.15214 10.6881 7.12447C11.1192 7.05292 11.9525 6.93618 12.4184 6.87139C12.7668 6.82306 12.7691 6.87311 12.7921 6.87074C12.8413 6.86537 12.9713 6.80617 13.2 6.7683C13.6401 6.69526 13.5956 6.74133 13.7768 6.71332C13.792 6.71111 13.7601 6.67704 13.9607 6.64398C14.3489 6.57999 15.2279 6.49143 15.6443 6.42992C15.8037 6.40639 15.8366 6.36439 16.0008 6.34022C16.2602 6.30185 16.8537 6.2578 16.8986 6.25136C16.9113 6.24955 16.9351 6.20328 17.0118 6.1924C17.0962 6.18044 17.1818 6.19038 17.2442 6.18141C17.5979 6.13068 18.2041 5.97048 18.0539 6.14476C18.1639 6.09146 18.273 6.03832 18.3811 5.98534C19.1294 5.88781 19.8525 5.77198 20.5907 5.66272C20.7563 5.63825 20.8986 5.64772 21.0399 5.62699C21.1762 5.60683 21.7953 5.47482 21.8951 5.46061C22.0813 5.43346 23.125 5.29096 23.2553 5.27871C23.5031 5.25376 23.7635 5.28536 23.8608 5.26163C23.9429 5.24208 23.8653 5.21545 24.0156 5.18812C24.2866 5.13831 24.7351 5.14417 24.7807 5.14511C24.7924 5.14456 24.7877 5.1377 24.807 5.13006C24.8154 5.12627 24.8334 5.12243 24.8419 5.11985C24.8424 5.1178 24.8567 5.12055 24.7969 5.11062C24.7588 5.08998 24.7591 5.16302 24.4382 4.94439C23.8417 4.51038 24.3271 3.6182 24.3342 3.69628C24.4988 3.5476 24.1675 3.77395 24.1587 3.77733C24.1428 3.78901 24.196 3.81248 23.9076 4.0158C23.7088 4.15505 23.6003 4.1853 23.58 4.19978C23.5476 4.22263 23.4971 4.30865 23.3678 4.39841C23.0681 4.60675 22.4927 4.94916 22.2025 5.14388C22.1452 5.18233 22.1949 5.20776 21.9677 5.35784C21.8095 5.46215 21.8119 5.4133 21.7522 5.45216C21.6585 5.51321 21.5439 5.64906 21.3331 5.79034C21.0707 5.96796 19.0771 7.24995 18.968 7.30718C18.8944 7.34619 18.8156 7.39844 18.7698 7.40378C18.7876 7.36743 18.8053 7.33112 18.8229 7.29487C19.1637 7.15174 18.9974 7.16551 19.0742 7.10763C19.1839 7.02503 19.6294 6.73811 19.7229 6.65344C19.7567 6.62284 19.6458 6.64531 19.8367 6.49007C20.0383 6.32565 20.1801 6.32292 20.2058 6.17872C20.5795 6.06766 20.8039 5.76631 20.4295 5.97925C20.2233 6.09719 18.2487 7.37362 17.8451 7.63616C17.5194 7.84834 16.9303 8.28122 16.5279 8.54162C16.2915 8.69442 15.7122 9.07696 15.7054 9.0142C15.4939 9.14783 15.7446 9.04644 15.7054 9.08215C15.6235 9.15661 14.9537 9.56063 14.8321 9.64445C14.2308 10.058 13.5035 10.6244 12.8761 10.9654C12.895 10.9345 12.914 10.9034 12.9331 10.8724C13.0496 10.7599 13.6846 10.3774 13.7128 10.2718C12.8193 10.8809 11.9152 11.4681 11.0078 12.1337C11.0553 12.1703 9.94915 13.0112 9.88491 13.0334C9.88627 12.9945 9.88596 12.957 9.88676 12.9186C10.5757 12.5219 10.4258 12.4543 10.9027 12.1951C11.0778 12.0663 10.9986 12.0643 11.0769 11.9948C11.8733 11.3088 11.1456 12.0619 11.779 11.57C11.5387 11.6487 12.0668 11.2551 12.2959 11.0882C12.348 11.05 13.0647 10.5848 13.1487 10.5267C13.6171 10.2015 14.4047 9.62338 14.8952 9.34034C15.2676 9.09541 15.4418 8.9174 15.7707 8.68238C16.0201 8.50419 15.967 8.58267 16.0871 8.50261C16.3389 8.33474 16.3613 8.18942 16.6062 8.2068C16.7657 8.07711 16.9257 7.94718 17.0856 7.81727C17.0986 7.83673 17.1117 7.85619 17.1248 7.87566C17.2321 7.80362 17.3379 7.73266 17.4455 7.66047C17.4641 7.6199 17.4826 7.57937 17.501 7.53887C17.8572 7.3385 17.748 7.47968 17.8483 7.49232C17.9243 7.44682 17.9999 7.40154 18.0753 7.35649C18.104 7.27585 18.1326 7.19536 18.1608 7.11504C18.4898 6.89928 18.819 6.68326 19.1483 6.46696C19.1824 6.47222 19.2161 6.4777 19.2503 6.48286C19.2379 6.46301 19.2256 6.44316 19.2133 6.42331C19.7659 6.04603 20.3096 5.67417 20.8609 5.29439C20.9857 5.16481 20.0895 5.73702 20.0195 5.78112C19.6398 6.02247 18.6707 6.71878 18.6225 6.65082C18.4251 6.85822 17.716 7.31538 17.4572 7.39923C17.7901 7.18131 18.1226 6.96366 18.4558 6.74539C18.4296 6.72934 18.4034 6.7133 18.3772 6.69727C18.8518 6.51421 18.9065 6.47005 19.2711 6.09673C19.2924 6.12753 19.3136 6.15833 19.3349 6.18913C19.557 5.88299 20.2002 5.71564 20.1241 5.57304C20.2865 5.47912 20.4509 5.38368 20.6144 5.28869C20.9387 5.04432 20.352 5.29753 21.6871 4.44295C21.7803 4.383 21.7811 4.43214 21.9169 4.33518C21.9543 4.30824 22.1455 4.10524 22.5686 3.81664C22.634 3.772 22.6601 3.79707 22.7301 3.75336C22.8927 3.65232 23.1583 3.37591 23.0852 3.56892C23.7082 3.16159 23.3994 3.26646 23.5633 3.09987C23.674 2.98683 23.6866 3.06098 23.8089 2.95247C23.8256 2.96316 24.095 2.55816 23.478 3.25474C23.4024 3.39372 22.8441 4.05484 23.3941 5.15843C24.0635 6.12268 24.3308 5.92262 24.4819 6.01852C24.7733 6.09245 24.7912 6.0715 24.8205 6.07761C24.861 6.07978 24.7726 6.07881 24.633 6.0834C24.6975 6.07324 24.7553 6.06447 24.7968 6.05782C24.773 6.04042 24.7496 6.02326 24.7172 6.00697C24.411 6.07624 24.4138 6.01389 24.2564 6.1352C23.9844 6.11845 23.7455 6.14354 23.3674 6.19987C22.6239 6.31198 23.0266 6.3727 22.153 6.33638C22.0141 6.37644 21.8871 6.415 21.7456 6.4556C21.5162 6.44163 21.6954 6.36086 21.3471 6.39691C21.6328 6.4693 20.9027 6.52835 20.8002 6.64182C20.7844 6.62034 20.7686 6.59886 20.7527 6.57738C20.677 6.58779 20.6 6.5984 20.5225 6.60907C20.5249 6.62772 20.5272 6.64638 20.5296 6.66503C20.4289 6.66469 20.3267 6.6646 20.2229 6.66474C20.1489 6.69379 20.0735 6.72304 20.0019 6.75179C19.8731 6.72997 19.7422 6.70846 19.6095 6.68725C19.5313 6.69541 19.4537 6.7035 19.3749 6.71179C19.4035 6.73605 19.4321 6.76033 19.4607 6.78462C19.3592 6.78931 19.2566 6.79418 19.1529 6.79921C19.2785 6.82806 19.2093 6.89206 18.8975 6.93427C18.6387 6.9694 18.9125 6.83413 18.365 6.95129C18.3267 6.95956 18.266 7.03703 17.7417 7.12172C17.1111 7.22366 17.4121 7.13111 17.2991 7.14537C17.2774 7.14815 17.0865 7.20996 16.9084 7.24024C16.8068 7.25752 16.7039 7.24409 16.6903 7.24609C16.6271 7.25637 16.6141 7.29791 16.5261 7.31188C16.3054 7.34673 16.0015 7.37068 15.7855 7.40359C15.6868 7.41858 15.5968 7.455 15.5526 7.46163C15.484 7.47172 15.391 7.44914 15.3222 7.45917C15.0673 7.49651 14.6944 7.66947 14.5525 7.52436C14.3279 7.70904 13.7863 7.60344 13.8386 7.69802C13.1753 7.75526 11.4401 8.13591 11.4673 7.9605C11.1174 8.15912 11.1337 8.05044 10.9787 8.07567C10.8052 8.10389 10.8999 8.11829 10.7613 8.13765C10.4358 8.18315 10.1257 8.21734 9.80484 8.26509C9.85158 8.23452 9.89847 8.20393 9.94549 8.17332C9.60781 8.21658 9.73158 8.25268 9.38838 8.31512C8.76117 8.42945 9.01796 8.3469 8.91592 8.30067C8.95001 8.35494 8.20143 8.46025 8.12733 8.46399C8.08173 8.46628 8.26761 8.36062 7.81379 8.45566C7.84223 8.47488 7.87073 8.4941 7.8993 8.51331C7.6869 8.51375 7.13337 8.64139 7.03256 8.64945C6.9861 8.65306 6.72826 8.50307 6.53227 8.68535C6.50254 8.66645 6.47291 8.64753 6.44339 8.62861C6.21239 8.69404 5.98086 8.75994 5.74594 8.82698C5.70083 8.79175 5.65601 8.75649 5.61149 8.7212C5.53608 8.73365 5.46609 8.74525 5.38719 8.75842C5.44524 8.7866 5.49983 8.81539 5.5549 8.84413C5.08498 8.90438 4.53154 9.06104 4.42044 8.95326C4.32294 8.9944 4.23843 9.03343 4.14244 9.07484C4.07009 9.04555 3.99993 9.01599 3.93191 8.98617C3.4906 9.08128 3.48814 9.11112 3.21661 9.21588C3.22009 9.18159 3.22384 9.14726 3.22785 9.11288C3.13343 9.15714 2.98737 9.21335 2.87845 9.26139C2.8315 9.28249 2.76958 9.31322 2.82274 9.29878C2.86399 9.27004 2.8552 9.35575 3.26106 9.01364C3.44368 8.99737 4.14897 7.50168 3.50869 6.75078C3.07306 6.1751 2.92013 6.22617 2.83811 6.16281C2.34178 5.97533 2.83857 6.18179 2.82475 6.16083C2.84937 6.16093 3.26875 6.05016 3.29019 6.21001C3.89736 6.24674 4.14017 6.36999 4.37843 6.41737C4.53319 6.44872 4.61121 6.42779 4.78611 6.46268C5.03635 6.51264 5.2818 6.58931 5.42497 6.62167C5.50717 6.64014 5.53067 6.60902 5.58737 6.62193C5.85442 6.68331 5.69013 6.67922 5.96984 6.74916C5.9958 6.75552 6.20905 6.76587 6.43946 6.8353C6.57138 6.87452 6.87475 7.0124 6.90334 7.02056C7.02919 7.05602 6.95632 6.93151 7.35407 7.16637C7.34687 7.14474 7.33973 7.12314 7.33247 7.1015C7.87899 7.21298 7.94118 7.32174 8.04751 7.36024C8.06117 7.36493 8.20162 7.37479 8.27883 7.40388C8.40916 7.45303 8.4493 7.51251 8.47805 7.52379C8.57938 7.56324 8.93545 7.65982 9.15175 7.78085C9.14266 7.64215 9.97486 7.89572 10.106 8.10612C10.2623 8.13848 10.417 8.17218 10.583 8.21371C10.6429 8.26531 10.6997 8.31618 10.7532 8.36619C10.802 8.36266 10.8459 8.35707 10.892 8.35252C11.061 8.48644 11.2382 8.62551 11.41 8.76401C11.4445 8.72335 11.479 8.68271 11.5135 8.64211C11.5654 8.6733 11.6178 8.70488 11.6699 8.73649C11.6948 8.79392 11.7194 8.85134 11.7442 8.90895C11.8159 8.93519 11.8873 8.96154 11.9593 8.98849C11.9894 8.97034 12.0195 8.95223 12.0497 8.93415C12.4348 9.09092 12.1127 9.23518 12.9327 9.39377C13.031 9.47405 13.129 9.55531 13.2267 9.63773C13.4063 9.60885 13.6038 9.80358 13.7959 9.90663C13.9315 9.97955 13.9485 9.93633 14.1273 10.0491C14.3062 10.163 14.2756 10.1959 14.2893 10.205C14.4322 10.3025 14.5619 10.3452 14.6627 10.4249C14.6779 10.437 14.6883 10.506 14.8189 10.6041C14.9492 10.7026 15.0617 10.717 15.2502 10.8757C15.3465 10.9574 15.3481 11.0139 15.4328 11.0871C15.8252 11.4246 16.4192 11.683 16.4686 12.0998C16.5482 12.1317 17.0364 12.4506 17.2043 12.6256C17.4658 12.8983 17.3256 12.8316 17.4265 12.944C17.4406 12.9599 17.5346 13.0287 17.7554 13.2497C17.7951 13.2894 17.8058 13.2596 17.8117 13.2649C17.9411 13.3919 18.1271 13.5821 18.3065 13.7605C18.3939 13.8476 18.4843 13.9355 18.5437 13.9908C18.5716 14.0172 18.5993 14.0398 18.5718 14.0202C18.5488 14.0065 18.5498 13.9932 18.3637 13.8973C18.171 13.8981 18.443 13.5273 16.9594 13.8257C15.0006 14.9246 15.915 16.0143 15.8123 16.0075C15.9264 16.3367 15.7046 15.9532 15.7052 15.6577C15.4574 15.2347 15.2933 14.2986 14.9728 13.6969C14.941 13.6078 14.9345 13.4933 14.9215 13.4556C14.8105 13.1282 14.7554 13.2674 14.659 12.4683C14.6339 12.5423 14.5439 12.3739 14.4788 12.1187C14.3821 11.735 14.5335 11.9856 14.4478 11.6803C14.4252 11.686 14.4026 11.6918 14.3799 11.6975C14.2636 10.974 14.1342 10.8561 13.9834 10.1381C13.9299 9.88032 13.9083 9.48477 13.8982 9.42709C13.8938 9.40537 13.7872 9.12765 13.7823 9.10022C13.7542 8.94695 13.7655 8.85591 13.7443 8.72287C13.6735 8.2837 13.5331 7.76466 13.6775 7.84309C13.6338 7.72516 13.5909 7.60767 13.5486 7.48891C13.6357 7.014 13.4109 6.6919 13.5395 6.5831C13.5039 6.50406 13.4685 6.42486 13.4333 6.34518C13.3562 5.37284 13.3437 4.35221 13.2968 3.53222C13.3886 3.27314 12.7283 2.12545 13.5849 3.4135C15.8103 4.65479 15.8478 3.15195 15.8116 3.43724C15.7866 3.45896 15.6384 3.69329 15.5568 3.8391C15.573 3.89254 15.221 4.53931 15.1995 4.57347C15.0928 4.72041 15.0878 4.50743 14.9484 4.84853C14.9689 4.90411 14.9891 4.9603 15.0104 5.01446C14.8248 5.44233 14.8822 5.22133 14.7784 5.37718C14.7508 5.45002 14.7907 5.44161 14.7493 5.53834C14.524 6.05924 14.0578 7.15035 13.8215 7.73943C13.7735 7.85833 13.7525 7.8284 13.7374 7.86519C13.6966 7.96626 13.6514 8.18079 13.5701 8.38433C13.0663 9.63894 12.3696 11.4523 11.9548 12.6868C11.9267 12.7697 11.8874 12.7729 11.8679 12.8306C11.8413 12.9093 11.8137 13.1067 11.7846 13.194C11.7577 13.2751 11.7149 13.3215 11.6854 13.4102C11.5514 13.8116 11.4394 14.3698 11.2405 14.7802C11.2228 14.8165 10.9571 15.2298 10.946 15.2352C10.8748 15.2806 10.8926 14.8567 10.6382 15.4929C10.723 14.8868 10.5422 15.0385 10.2892 15.7854C10.3672 15.4001 10.4553 15.0097 10.5475 14.6152C10.5328 14.6105 10.5181 14.6058 10.5035 14.6012C10.3323 14.9358 10.2098 15.2813 10.0731 15.8113C10.0631 15.792 10.0533 15.7722 10.0435 15.7519C10.0893 15.2645 10.235 14.6843 10.244 14.2929C10.0252 14.8082 9.81011 15.3228 9.61431 15.8398C9.61 15.809 9.60472 15.7825 9.60033 15.7526C9.63169 15.4909 9.76312 14.9239 9.79579 14.7028C9.91871 13.8594 9.52824 15.3976 9.53577 15.1305C9.76496 14.2659 10.0171 13.4057 10.2754 12.5438C10.2289 12.4995 9.17222 15.7825 9.06824 15.7284C9.12375 15.4492 9.18514 15.1725 9.24849 14.8965C9.18264 15.0054 9.11457 15.1248 9.04942 15.2359C9.04742 15.198 9.04439 15.1642 9.04238 15.1267C9.1354 14.6556 9.23699 14.1851 9.34108 13.7174C9.15479 14.4233 9.01972 14.9369 8.88745 15.3133C8.82118 15.5022 8.75585 15.6559 8.68519 15.7845C8.65002 15.848 8.61358 15.905 8.57489 15.9584C8.55605 15.9826 8.5357 16.0108 8.51553 16.0342C8.50534 16.0465 8.49504 16.0584 8.4845 16.0706C8.47947 16.0752 8.4739 16.0827 8.46965 16.0822C8.46858 16.0822 8.46767 16.0811 8.46767 16.0754C8.83446 16.0957 6.90448 15.965 9.64143 15.9121C9.80934 16.5245 9.69239 16.1174 9.71726 16.1915C9.71631 16.1778 9.72411 16.2647 9.71415 16.123C9.70018 16.0846 9.74948 16.0834 9.60746 15.8394C8.91733 15.084 8.3884 16.1098 8.47812 15.9928C8.44803 16.0902 8.46121 16.0543 8.45753 16.0661C8.45552 16.0746 8.45483 16.0774 8.45435 16.0787C8.45292 16.0816 8.45349 16.0732 8.45326 16.0693C8.45321 16.0592 8.45354 16.047 8.4539 16.035C8.45454 16.0114 8.45506 15.9895 8.45586 15.9667C8.68798 15.6499 9.01238 14.2107 9.20214 13.4351C9.10618 13.5803 8.9566 14.2596 8.88811 14.3957C8.86835 14.4342 8.87296 14.2818 8.82925 14.3721C8.71347 14.6013 8.38584 15.6505 8.36863 15.4849C8.34963 15.3644 8.75527 13.6623 8.85814 13.3363C8.57405 14.0871 8.33413 14.8561 8.06633 15.6677C8.07478 15.1123 8.05214 14.6439 8.29623 13.7458C8.31122 13.4548 7.71652 15.3389 7.67965 15.4039C7.72832 15.0419 7.78203 14.6974 7.83702 14.3569C7.7705 14.6409 7.70557 14.9265 7.6434 15.2229C7.6318 15.2209 7.62021 15.219 7.60862 15.2171C7.74122 14.4457 7.82862 13.7659 8.07063 12.9489C8.00332 12.9578 7.86907 13.4481 7.80134 13.6897ZM14.5352 9.41143C14.4924 9.37822 14.7521 9.21354 14.8963 9.11772C14.8695 9.12449 14.8427 9.13125 14.8159 9.13801C15.1281 8.93963 15.7093 8.57295 15.6748 8.47597C15.8864 8.31891 15.8381 8.45582 15.9141 8.4167C15.9439 8.40144 16.2009 8.16812 16.4635 8.06591C16.5176 8.02932 16.5715 7.99281 16.6255 7.95627C16.6178 7.92205 16.6101 7.88783 16.6024 7.85361C16.7003 7.83576 16.798 7.81802 16.8956 7.8004C16.1095 8.33619 15.3235 8.87212 14.5363 9.41064C14.5359 9.4109 14.5355 9.41117 14.5352 9.41143ZM22.3477 4.08721C22.6391 3.90769 23.0762 3.63352 22.9392 3.62076C22.7693 3.74717 22.5971 3.87379 22.4227 4.00113C22.3984 4.02936 22.3734 4.05805 22.3477 4.08721ZM11.336 8.82161C11.5704 9.03067 11.8545 9.0816 12.2709 9.31274C12.2789 9.29588 12.2868 9.27902 12.2948 9.26215C12.101 9.21199 11.657 8.95813 11.336 8.82161ZM7.62785 15.2922C7.57256 15.3585 7.5174 15.4283 7.46376 15.5006C7.57758 15.1412 7.67737 15.128 7.90752 14.8367C7.92169 14.8191 7.89921 14.8102 7.90425 14.8041C7.96121 14.7354 8.03747 14.6916 8.08914 14.6347C8.19247 14.5217 8.25411 14.4154 8.43665 14.2384C8.57996 14.1009 8.60814 14.1364 8.65783 14.0882C8.6976 14.0472 9.03428 13.5812 9.33615 13.4005C9.90747 13.0295 7.77407 14.9314 7.62785 15.2922ZM6.81088 17.79C6.81093 17.7225 6.81142 17.6523 6.81287 17.5791C6.87806 17.7956 6.8628 17.3727 6.91053 16.9856C6.96183 17.0161 6.89425 17.7605 6.92147 18C6.88445 17.9332 6.84741 17.8635 6.81088 17.79ZM12.545 11.2328C12.3505 11.3733 12.3362 11.2853 12.3314 11.2594C12.3957 11.2155 12.4589 11.1724 12.5221 11.1294C12.5297 11.1639 12.5374 11.1983 12.545 11.2328ZM11.0429 12.3169C11.076 12.2228 11.4931 11.887 11.704 11.7408C11.7133 11.7344 11.6723 11.7991 11.8197 11.6946C11.8664 11.6613 12.2383 11.2739 12.2131 11.4421C11.8246 11.7257 11.428 12.0079 11.0435 12.3164C11.0433 12.3166 11.0431 12.3167 11.0429 12.3169ZM10.5837 12.6214C10.6565 12.5444 10.7239 12.4719 10.7982 12.3945C10.8575 12.3823 10.9147 12.3717 10.9723 12.361C10.8847 12.4344 10.7902 12.5135 10.7032 12.5875C10.6638 12.5984 10.624 12.6097 10.5837 12.6214ZM14.5435 4.39811C14.5781 4.39001 14.6127 4.38212 14.6472 4.37445C14.6992 4.30473 14.7752 3.88855 14.6966 3.99209C14.645 4.12553 14.5949 4.25929 14.5435 4.39811ZM13.7531 5.9841C13.7052 6.05905 13.6568 6.13574 13.6095 6.21019C13.6126 6.32114 13.6151 6.43399 13.6186 6.54524C13.8203 6.15126 14.0418 5.74143 13.8854 5.75391C13.9265 5.661 13.9659 5.5724 14.0077 5.47918C14.0247 5.58104 14.0473 5.57518 14.1876 5.35281C14.1383 5.26946 14.2873 5.03828 14.4026 4.75324C14.3037 4.95194 14.2037 5.15789 14.1079 5.35848C14.0951 5.35271 14.0824 5.34694 14.0696 5.34117C14.2821 4.8868 13.941 5.41856 13.8601 5.74118C13.8325 5.75749 13.8049 5.77389 13.7773 5.79041C13.7689 5.85538 13.7612 5.91915 13.7531 5.9841ZM3.39922 8.5318C3.34069 8.52933 3.27154 8.5293 3.21293 8.52738C3.02664 8.75501 3.44954 8.48505 3.821 8.56364C3.68787 8.47628 4.20798 8.38418 4.23787 8.37187C4.1701 8.34636 4.10508 8.32044 4.0393 8.29477C3.81682 8.37356 3.6079 8.45128 3.39922 8.5318ZM2.70429 6.86642C2.49569 6.73922 3.58942 6.91342 3.96094 7.01304C4.05046 7.03586 4.20096 7.11812 4.26696 7.12561C4.3103 7.11577 4.3533 7.10594 4.39668 7.09627C4.4302 7.16749 5.16557 7.25949 5.45618 7.29875C5.47701 7.32802 5.49786 7.35734 5.51872 7.3867C5.6235 7.40358 5.72858 7.42106 5.83311 7.43891C5.81435 7.45804 5.79562 7.4772 5.77694 7.49637C5.86115 7.48944 5.94563 7.48287 6.0305 7.47669C6.342 7.52886 6.12253 7.60048 6.36046 7.62542C6.62329 7.65357 6.23181 7.46531 6.25088 7.41997C6.04028 7.37446 5.5638 7.27953 5.35254 7.22979C5.23116 7.20143 5.38956 7.14609 4.84264 7.12293C4.73328 7.07366 4.62309 7.02487 4.51251 6.97667C4.29255 6.96724 4.07276 6.96014 3.85309 6.95541C3.81981 6.91565 3.78622 6.87591 3.75261 6.83625C3.7307 6.82598 3.22411 6.80918 3.24547 6.83854C3.14008 6.76716 2.26935 6.55359 2.62827 6.68447C2.72393 6.40553 3.42128 8.50338 2.84195 8.57053C3.77887 5.88957 2.21459 6.84398 2.49694 6.67152C2.48111 6.66693 2.4866 6.67364 2.48351 6.67983C2.48081 6.69333 2.47145 6.71435 2.47043 6.73168C2.46422 6.75239 2.63545 6.82555 2.70429 6.86642ZM13.9319 2.69502C13.5126 2.7518 15.5833 3.16494 15.2613 2.99307C15.3033 3.00813 15.3466 3.02368 15.3717 3.0584C15.6841 3.12181 13.6633 3.063 13.8636 2.73768C13.8251 2.62427 13.8896 2.74731 13.932 2.6953C13.932 2.6952 13.932 2.69511 13.9319 2.69502ZM12.8961 8.37864C13.015 8.01077 12.8816 8.16634 13.0457 7.70425C13.0458 7.70403 13.0459 7.70382 13.046 7.7036C12.9462 7.93692 12.8479 8.16978 12.7505 8.40358C12.7991 8.39523 12.8476 8.38691 12.8961 8.37864ZM16.8604 13.227C16.6059 12.9503 16.6358 13.0258 16.4377 12.7387C16.0183 12.4376 16.3344 12.7328 16.2838 12.7842C16.3812 12.8504 16.4786 12.9166 16.5769 12.9838C16.7294 13.2289 16.5164 13.0666 16.5116 13.0709C16.5117 13.0711 16.5119 13.0712 16.5121 13.0714C16.4968 13.0867 16.4876 13.0841 16.5546 13.1685C16.657 13.1885 16.7575 13.2065 16.8604 13.227ZM15.6216 12.1428C15.759 12.2054 15.8548 12.2061 15.5884 11.9235C15.5882 11.9233 15.588 11.9232 15.5878 11.923C15.4931 11.9808 15.2805 11.6808 15.148 11.583C15.1074 11.5648 15.0669 11.5469 15.0262 11.5292C15.2308 11.7267 15.4244 11.9266 15.6216 12.1428ZM10.4704 9.08532C10.5161 8.97639 10.7933 9.08948 10.4554 8.81693C10.3777 8.78462 10.2954 8.75119 10.2151 8.71944C10.1532 8.72139 10.0924 8.72416 10.0317 8.72725C9.12862 8.14691 8.69843 8.34123 10.4152 8.90669C10.4154 8.90672 10.4157 8.90675 10.416 8.90678C10.4353 8.96662 10.4538 9.0263 10.4704 9.08532ZM12.0837 9.85291C12.1238 9.80376 12.1639 9.75462 12.2042 9.7056C12.3371 9.94388 12.6668 9.95497 13.0074 10.2729C13.0523 10.277 13.0974 10.2814 13.1424 10.2859C13.2748 10.3897 14.67 11.3444 14.4216 11.0624C14.3146 10.9331 13.9917 10.7828 13.9673 10.7659C13.8849 10.7057 13.8026 10.5882 13.6555 10.4995C13.5702 10.448 13.3604 10.3922 13.1881 10.2909C12.8051 10.0619 12.1673 9.52978 11.5821 9.42316C11.5534 9.38825 11.5246 9.35337 11.4956 9.31851C11.1088 9.14481 11.2124 9.25999 10.8855 9.02911C10.5163 9.17556 12.3184 9.70634 11.8641 9.75174C11.8643 9.75185 11.8645 9.75196 11.8648 9.75207C11.9376 9.7852 12.0109 9.81898 12.0837 9.85291ZM15.3468 12.5251C15.3898 12.486 15.1786 12.0349 15.332 12.1123C15.2469 11.9698 15.1627 11.8265 15.0796 11.6823C15.0685 11.6864 15.0574 11.6906 15.0462 11.6947C15.0954 11.8469 15.1457 11.9988 15.1971 12.1503C15.1792 12.1558 15.1614 12.1614 15.1435 12.167C15.268 12.3787 15.5304 13.3427 15.4597 13.3299C15.5024 13.3714 15.5454 13.4137 15.5886 13.456C15.665 13.9361 15.8756 14.2922 15.9826 14.7985C16.0181 14.8277 16.0536 14.8567 16.0891 14.8857C16.0806 14.9166 16.072 14.9472 16.0634 14.9775C16.1263 15.1529 16.1898 15.3268 16.2525 15.4978C16.534 16.0243 16.2137 14.9116 16.1542 14.7774C16.1461 14.76 16.1018 14.7802 16.0536 14.6709C15.9657 14.4812 15.6212 13.3362 15.4883 12.9932C15.5181 12.9806 15.5479 12.9681 15.5776 12.9556C15.4991 12.8113 15.4227 12.6694 15.3468 12.5251ZM8.34376 8.14593C8.32828 8.10652 8.31271 8.06711 8.29713 8.02773C7.84508 7.91695 7.57717 7.80829 7.65832 7.94561C7.65855 7.94568 7.65878 7.94575 7.65901 7.94582C7.88676 8.01026 8.11501 8.07671 8.34376 8.14593ZM21.2569 5.46671C21.3036 5.51355 21.4934 5.41406 21.6937 5.22076C21.672 5.21273 21.6502 5.20475 21.6284 5.19679C21.5431 5.32201 21.3382 5.34521 20.98 5.60363C20.9983 5.63071 21.0167 5.65779 21.035 5.68487C21.1114 5.61059 21.1803 5.54131 21.2569 5.46671ZM8.72029 8.28553C8.84209 8.36679 9.25999 8.39018 9.01226 8.29688C8.82247 8.2259 8.65459 8.24158 8.72029 8.28553ZM12.2918 9.77197C12.3332 9.68075 12.3747 9.59003 12.4163 9.49937C12.4086 9.44099 12.4011 9.38249 12.3936 9.32388C12.3935 9.3241 12.3934 9.32432 12.3934 9.32453C12.3589 9.47411 12.3254 9.62222 12.2918 9.77197ZM17.7692 14.1083C17.5293 13.8838 17.2812 13.6453 17.0359 13.4095C17.0207 13.42 17.0056 13.4306 16.9904 13.4412C17.2809 13.6343 17.3276 13.7797 17.3819 13.839C17.3817 13.8387 17.3814 13.8385 17.3812 13.8382C17.5531 14.0262 17.7168 14.2 17.8687 14.3717C17.8355 14.2847 17.8037 14.1981 17.7692 14.1083ZM16.4562 15.6799C16.406 15.7282 16.3852 15.774 16.4067 15.8556C16.4113 15.8739 16.4238 15.9086 16.4292 15.92C16.4596 15.8159 16.2371 16.2095 16.4457 15.1159C17.6998 13.4784 18.0849 14.6172 18.1123 14.4673C18.3053 14.594 18.1474 14.5185 18.0711 14.4738C18.0738 14.4972 18.0756 14.5199 18.0765 14.5415C18.1171 14.5737 18.1511 14.5956 18.1495 14.5903C17.9106 14.8712 19.1432 13.33 16.5222 15.1572C16.4734 16.8554 16.5184 15.6246 16.5483 15.8617C16.5182 15.8016 16.4881 15.743 16.4562 15.6799ZM14.5229 11.2136C14.5554 11.2851 15.0138 11.5888 15.0027 11.556C15.0009 11.5392 14.4627 11.0671 14.5229 11.2136ZM18.1143 7.61756C18.2149 7.56131 18.3173 7.50389 18.4183 7.44737C18.2983 7.54467 18.178 7.6421 18.058 7.73938C18.0768 7.69873 18.0956 7.65812 18.1143 7.61756ZM17.1603 8.47708C17.0827 8.50948 17.2412 8.26433 16.8148 8.51456C17.1118 8.31239 17.4084 8.11048 17.7057 7.90813C17.5756 8.01782 17.4471 8.12648 17.317 8.23616C17.3599 8.24724 17.4028 8.25834 17.4457 8.26945C17.3503 8.33888 17.2556 8.40781 17.1603 8.47708ZM16.793 8.62183C17.0025 8.58674 16.1602 9.16005 16.0755 9.20408C16.0566 9.21373 15.936 9.21471 15.8973 9.22352C16.0251 9.13755 16.1526 9.05179 16.2803 8.96594C16.2259 8.97727 16.1715 8.98861 16.1171 8.99995C16.2626 8.89363 16.4083 8.78723 16.5537 8.68102C16.5015 8.74132 16.4493 8.80165 16.397 8.862C16.5291 8.78191 16.6609 8.70194 16.793 8.62183ZM20.1716 6.32747C20.0635 6.39772 19.956 6.46743 19.848 6.53745C19.8877 6.55019 19.9273 6.56298 19.9668 6.57583C20.0303 6.53308 20.0935 6.49047 20.1582 6.44694C20.1627 6.40706 20.1672 6.36723 20.1716 6.32747ZM18.019 7.82462C18.0876 7.58895 18.7019 7.59143 18.1363 7.81736C18.0791 7.84012 18.0127 7.84718 18.019 7.82462ZM15.748 9.40146C15.4793 9.72044 15.4132 9.45937 15.7685 9.31006C15.7864 9.30274 15.7682 9.37767 15.748 9.40146ZM13.2581 11.0855C13.2316 11.1025 13.1359 11.0681 12.9251 11.3058C12.8779 11.3266 12.8291 11.3485 12.7814 11.3696C12.8608 11.269 13.6951 10.676 13.6237 10.8228C13.4953 10.9112 13.393 10.9971 13.2581 11.0855ZM14.2503 10.7807C14.3762 10.693 14.5026 10.6049 14.6286 10.5172C14.5726 10.5239 14.5157 10.5313 14.4592 10.5384C14.5184 10.4901 14.577 10.4421 14.6355 10.3941C14.7672 10.3589 14.9 10.3229 15.0314 10.2878C14.7586 10.4801 14.4855 10.6728 14.2124 10.8659C14.225 10.8375 14.2377 10.8091 14.2503 10.7807ZM17.675 8.55457C17.4111 8.69273 17.1302 8.92255 16.7285 9.18551C16.7283 9.18557 16.7281 9.18563 16.7278 9.1857C16.7077 9.19873 16.6528 9.19305 16.588 9.23484C16.5328 9.27043 15.4785 10.0257 15.5291 9.91961C15.915 9.59535 16.1164 9.55849 16.1421 9.38078C16.1781 9.39045 16.214 9.40015 16.2499 9.40983C16.6774 9.1813 16.7373 9.0241 16.9426 8.84341C16.9535 8.86157 16.9644 8.87973 16.9753 8.89789C17.1265 8.79897 17.2782 8.69975 17.4292 8.60096C17.4003 8.60358 17.3715 8.60621 17.3425 8.60884C17.3957 8.57318 17.4483 8.53789 17.5018 8.50203C17.6665 8.46701 17.8384 8.36931 17.675 8.55457ZM13.6534 11.1423C13.6224 11.3568 12.4235 12.0379 11.9072 12.4355C12.1304 12.1643 12.597 11.9257 12.8967 11.7228C13.478 11.3296 13.0435 11.5537 13.1272 11.4654C13.1683 11.4219 13.5543 11.2843 13.6534 11.1423ZM18.5554 7.93017C18.2587 8.11362 18.1178 8.25259 17.8336 8.37232C17.8481 8.34847 17.8627 8.32459 17.8772 8.30075C17.9694 8.25185 18.687 7.81118 18.5554 7.93017ZM11.1211 12.9603C11.708 12.5929 11.3509 12.6789 11.7014 12.5556C11.5159 12.7004 11.3348 12.8433 11.1463 12.9939C11.1379 12.9827 11.1295 12.9715 11.1211 12.9603ZM9.26988 9.1218C9.54216 9.22745 9.83232 9.37754 10.0209 9.39336C9.83751 9.30419 9.65722 9.22103 9.47438 9.14019C9.40628 9.13372 9.33784 9.1275 9.26988 9.1218ZM2.66339 7.43991C2.60081 7.43872 2.35797 7.54628 2.33363 7.55493C2.28358 7.56982 2.29183 7.54551 2.28928 7.54047C1.98238 7.65035 2.27304 7.60595 2.0762 7.71425C1.86844 7.72965 2.49965 7.89542 2.71733 7.92177C3.07073 7.97485 3.4207 8.0447 3.55197 8.06903C3.77353 8.10947 4.19375 8.14522 4.55611 8.22569C4.70562 8.25892 4.74856 8.30934 4.89801 8.34409C5.85992 8.56042 7.73802 9.05964 8.55691 9.37608C8.75956 9.45275 8.93592 9.57192 9.04414 9.60792C9.1353 9.62187 9.22605 9.63632 9.31725 9.65168C9.51363 9.91075 9.65403 9.80489 9.93633 9.91133C10.1147 9.9798 10.1736 10.0633 10.1968 10.0736C10.3508 10.1434 10.4364 10.157 10.5583 10.2098C10.6951 10.2692 10.8786 10.3823 10.9281 10.4018C10.9585 10.4144 10.8947 10.3048 11.413 10.5654C11.9399 10.833 12.45 11.1188 12.9604 11.4387C12.8948 11.1615 12.6726 11.1888 12.4559 11.0733C12.3975 11.0422 12.4497 11.0352 12.3988 11.008C12.2556 10.9307 11.9674 10.8097 11.852 10.7406C11.7277 10.666 11.8055 10.6229 11.6294 10.5627C11.6205 10.5597 11.6327 10.6004 11.5918 10.5852C11.1815 10.4332 11.0781 10.3225 10.5827 10.0869C10.2695 9.90314 8.18158 9.14102 8.11139 9.1196C7.76913 8.88186 9.98281 9.66161 10.2177 9.81858C10.3029 9.86089 10.1983 9.85006 10.2742 9.89205C10.3061 9.90957 10.6345 9.98951 10.9324 10.1267C11.2939 10.2904 11.9855 10.6927 12.3167 10.8787C13.7565 11.6436 15.0334 12.745 16.1331 13.885C16.5263 14.4336 18.005 15.0857 17.3216 15.4739C17.0406 14.7276 16.7557 13.9694 16.5046 13.1979C16.4832 13.132 16.4178 13.0574 16.3506 12.8423C15.728 10.8292 15.297 8.72034 15.103 6.57792C14.8186 4.86499 15.364 0.303266 13.9677 3.41812C13.5525 4.22815 13.2123 5.07547 12.8189 5.91345C12.7995 6.0297 12.7795 6.14796 12.761 6.26368C12.8548 5.98396 13.1279 5.51757 13.1492 5.47271C13.1566 5.45653 13.1727 5.34109 13.2469 5.17954C13.3532 4.94786 13.423 4.86234 13.4321 4.84237C13.459 4.78371 13.4148 4.80987 13.4406 4.75418C13.6322 4.34108 13.7763 4.01943 13.9638 3.64829C14.1783 3.2286 14.3323 3.05943 14.4597 2.7423C14.5001 2.7224 14.5385 2.70655 14.5778 2.69024C14.7986 2.06634 14.778 2.81397 14.8432 3.59815C14.853 3.79259 14.8096 3.76062 14.8131 3.82621C14.815 3.86809 14.8694 3.84689 14.8806 4.36239C14.8862 4.62251 14.8501 4.69348 14.8573 4.82382C14.8614 4.89523 14.8996 4.88163 14.9046 4.98374C14.9348 5.57721 14.9556 6.06126 15.0033 6.64208C15.0171 6.80554 14.9854 6.81048 14.9895 6.847C15.0047 6.98128 15.0834 7.20928 15.1262 7.54956C15.192 8.11145 15.3795 9.21967 15.448 9.67798C15.4574 9.74522 15.4306 9.80816 15.4412 9.85698C15.4574 9.93098 15.5032 9.95168 15.5061 9.96462C15.559 10.2118 15.4906 10.0709 15.5353 10.2345C15.5597 10.3228 15.6249 10.4057 15.6775 10.611C15.7476 10.8819 15.6822 10.8409 15.7148 10.9535C15.7185 10.9653 15.7563 10.96 15.785 11.0712C15.8925 11.4936 16.0667 12.1012 16.1851 12.4964C16.2189 12.6098 16.2198 12.702 16.2686 12.8605C16.3544 13.1826 17.0098 14.9574 17.0568 15.1019C17.0612 15.1177 16.9491 14.9817 17.0454 15.2296C17.0945 15.2927 17.1442 15.3569 17.1931 15.4199C17.1986 15.4872 17.2029 15.5516 17.2073 15.6176C16.9947 15.8336 17.9598 15.0048 17.7517 15.1459C17.7071 15.2927 17.1337 14.7964 17.2337 14.7035C17.1789 14.6437 17.1239 14.5832 17.0679 14.5213C16.8822 14.4687 16.822 14.3629 16.5475 14.1684C16.5308 14.1127 16.5129 14.0557 16.4953 13.999C16.4731 14.0033 16.4507 14.0076 16.4283 14.0118C16.3718 13.8137 16.0933 13.6821 16.0673 13.6573C15.9693 13.5638 15.9138 13.473 15.8675 13.4285C15.6941 13.2628 15.3062 12.9237 15.1009 12.7144C15.0915 12.7046 15.1311 12.6818 15.0731 12.6218C14.9679 12.514 14.9165 12.5525 14.8148 12.367C14.7722 12.3552 14.7296 12.3438 14.687 12.3326C14.6609 12.2981 14.6344 12.2636 14.6077 12.2293C14.4112 12.0748 14.2103 11.9265 14.0058 11.7844C14.2323 11.8594 14.0461 11.6693 13.8096 11.5756C13.7298 11.5441 13.7653 11.623 13.7386 11.6128C13.7063 11.5915 12.7801 10.9774 12.7274 10.9222C12.6749 10.9078 12.6225 10.8939 12.57 10.8801C12.561 10.8425 12.5518 10.8049 12.5425 10.7673C12.5123 10.7615 12.4824 10.7559 12.4523 10.7504C12.2252 10.5627 11.51 10.3208 11.3937 10.255C11.3314 10.219 11.4432 10.1389 11.1271 9.99884C11.102 10.0233 11.0769 10.0478 11.0519 10.0723C10.9789 10.0423 10.9057 10.0125 10.8328 9.9831C10.7006 9.91695 10.5297 9.77446 10.5399 9.73618C10.4882 9.73803 10.4365 9.73995 10.3848 9.74194C10.3107 9.62078 9.67447 9.37137 9.40606 9.3237C9.34122 9.27389 9.27571 9.22436 9.20989 9.1752C9.10104 9.16444 8.99225 9.15457 8.88389 9.1456C8.65145 9.07206 8.90967 9.11424 8.86201 9.09323C8.76095 9.04732 8.20696 8.9435 8.27247 8.86285C8.20018 8.83877 8.1279 8.81499 8.05555 8.79144C8.00976 8.80612 7.96403 8.82087 7.91837 8.83572C7.82349 8.70444 7.5981 8.66796 7.16626 8.50241C7.12279 8.51265 7.07954 8.52299 7.03613 8.53333C6.90849 8.46268 6.78082 8.39258 6.65257 8.32273C6.61422 8.34995 6.57616 8.37728 6.53784 8.40454C6.47684 8.39252 6.41614 8.38067 6.35539 8.36886C6.25792 8.25519 6.01408 8.27971 5.91157 8.21686C5.7619 8.12532 5.9027 8.10066 6.20952 8.17438C6.20383 8.108 5.28993 7.89332 5.07829 7.8499C5.08937 7.86464 5.10046 7.87939 5.11155 7.89415C5.32825 7.93739 5.54473 7.98292 5.76052 8.03052C5.90003 8.22348 5.33274 8.03141 5.06094 7.98687C5.03631 7.98294 4.88478 8.00421 4.61703 7.9376C4.51364 7.91119 4.12311 7.74101 4.04551 7.72082C3.42043 7.55603 3.8639 7.76342 3.26225 7.5456C3.37873 7.64806 3.0279 7.51647 2.66043 7.47299C2.62483 7.58161 1.94327 6.94701 2.37518 7.80347C2.09705 8.26495 2.22017 8.02168 2.39366 7.99232C2.41596 7.96554 2.45043 7.93578 2.4765 7.90905C2.54225 7.89041 2.61068 7.87268 2.68505 7.8545C3.1511 7.91469 3.23238 7.77924 3.39042 7.73084C3.45585 7.71154 3.37969 7.77041 3.54257 7.72952C3.60542 7.71398 3.66764 7.6652 3.83753 7.63115C4.36772 7.52596 4.57763 7.64711 5.04155 7.40585C5.12041 7.41621 5.20625 7.42548 5.28194 7.43652C5.32723 7.40071 5.37319 7.36482 5.4198 7.32885C5.83128 7.34334 5.668 7.2862 5.81069 7.26395C6.18697 7.20513 6.95543 7.09986 7.02957 7.15599C7.32742 6.95393 7.73963 7.06525 7.86839 7.03935C7.94187 7.00915 8.01249 6.97942 8.08532 6.94937C8.1768 6.95424 8.26896 6.95904 8.36176 6.96377C8.29717 6.82121 8.77659 6.89787 8.8227 6.8932C8.8769 6.88715 9.57484 6.73642 9.83981 6.6976C10.1055 6.65852 10.5693 6.63063 10.6098 6.62471C10.6554 6.6179 11.0991 6.51052 11.4493 6.45926C11.757 6.41378 13.5839 6.20569 13.4599 6.15616C13.3381 6.15506 13.1664 6.16376 13.0186 6.17646C12.5596 6.2154 9.88646 6.57576 9.20303 6.6696C7.83766 6.85491 6.40766 7.07863 5.0383 7.29277C4.95756 7.30547 4.93909 7.26899 4.87156 7.27952C4.76585 7.29619 4.51144 7.37953 4.40303 7.39771C4.02352 7.46018 3.5477 7.54237 3.34727 7.58159C2.89178 7.67154 2.56502 7.71367 2.26155 7.81351C2.00389 7.9882 2.39986 7.5259 2.81591 7.71382C2.88363 7.73612 2.95043 7.75851 3.01806 7.7813C2.82872 7.75814 2.25527 7.71718 2.12013 7.65351C2.10705 8.02955 2.50823 7.64769 2.58941 7.68629C2.69269 7.65703 3.23557 7.50317 3.48794 7.45537C3.56556 7.44015 3.5956 7.47615 3.65865 7.46411C4.02796 7.39338 4.49694 7.31041 4.81759 7.21537C4.68948 7.24998 5.49957 7.13992 5.5471 7.13253C5.62217 7.12023 5.68965 7.07036 5.84037 7.04595C6.13432 6.9985 6.09947 7.0852 6.4511 6.94801C6.54184 6.95724 6.63371 6.96633 6.72665 6.9753C6.71853 6.8681 7.86246 6.83652 8.15976 6.66007C8.16562 6.6438 6.70287 6.82889 6.57985 6.847C5.8561 6.94833 4.79154 7.14821 4.09219 7.25508C3.88174 7.28577 3.20722 7.34866 3.16102 7.36075C3.08441 7.37826 3.16254 7.40019 3.12776 7.40866C2.42443 7.58655 2.76275 7.44066 2.66339 7.43991ZM17.0755 9.04147C17.2601 8.92288 17.445 8.80408 17.6296 8.68556C17.6294 8.71392 17.6291 8.74233 17.629 8.77065C17.5407 8.81892 17.4521 8.86734 17.3634 8.91588C17.3068 8.9707 17.2506 9.02528 17.1942 9.07996C17.1546 9.06712 17.1151 9.05429 17.0755 9.04147ZM16.6808 9.42454C16.5293 9.54048 16.4941 9.50463 16.4562 9.52712C16.3433 9.59413 16.2602 9.67401 16.1542 9.74443C16.2105 9.56517 16.4997 9.43574 16.6808 9.42454ZM19.969 7.26847C19.9302 7.28779 19.621 7.34335 19.4171 7.62197C19.1937 7.72696 18.9692 7.83267 18.7474 7.93654C19.1229 7.75333 19.5667 7.38379 19.7348 7.27352C19.7984 7.2318 19.8335 7.25492 19.885 7.2211C20.1789 7.02719 20.4183 6.75996 20.5197 6.84655C20.2185 7.00452 20.0186 7.24342 19.969 7.26847ZM18.1659 8.42398C18.1039 8.43325 18.0418 8.44259 17.9795 8.45201C18.1501 8.33757 18.3206 8.22321 18.4904 8.10925C18.4597 8.16259 18.4289 8.21603 18.3979 8.26955C18.3203 8.32118 18.243 8.37267 18.1659 8.42398ZM17.3525 5.57654C17.4786 5.55904 17.6048 5.54155 17.7295 5.5243C17.72 5.50587 17.5769 5.52613 17.522 5.52054C17.5222 5.52051 17.5225 5.52048 17.5227 5.52044C17.4615 5.514 17.4834 5.48545 17.374 5.48968C17.3667 5.51864 17.3595 5.54762 17.3525 5.57654ZM12.6241 6.37149C12.5358 6.56316 11.8055 8.37409 11.9363 8.24658C11.9996 8.18138 12.2171 7.55084 12.2925 7.36856C12.3921 7.12312 12.7378 6.49352 12.6241 6.37149ZM11.3369 9.57974C11.3901 9.63593 11.8336 8.50002 11.8672 8.38545C11.8485 8.40534 11.8133 8.43349 11.7963 8.46306C11.7132 8.60692 11.4458 9.33986 11.3369 9.57974ZM10.314 6.38989C10.4169 6.41089 10.5211 6.43173 10.623 6.45293C10.5905 6.41045 10.5581 6.36797 10.5257 6.32549C10.4552 6.34693 10.3843 6.36844 10.314 6.38989ZM3.10059 7.77357C4.73357 8.05839 6.32895 8.50268 7.90297 9.00044C7.75851 8.97473 7.61405 8.94995 7.46967 8.92595C6.11507 8.50364 4.64966 8.08959 3.2896 7.87703C3.22672 7.84232 3.16412 7.80791 3.10059 7.77357ZM20.4702 7.18517C20.8214 6.94947 21.0905 6.72659 21.5017 6.5141C21.1685 6.80371 20.9437 6.85647 20.6374 7.15702C20.6372 7.15716 20.637 7.15729 20.6368 7.15742C20.5812 7.16674 20.5247 7.17659 20.4702 7.18517ZM21.0641 4.87635C21.1808 4.8274 21.3132 4.77635 21.4316 4.72729C21.2826 4.74749 21.1232 4.7692 20.9746 4.78951C21.0046 4.81844 21.0344 4.84738 21.0641 4.87635ZM15.8725 13.9164C16.2356 14.174 16.9476 15.0601 17.2715 15.2345C17.2925 15.2452 17.1622 15.0815 17.459 15.2514C17.2606 15.0968 17.1189 14.9781 17.0666 15.0053C17.0246 14.9396 16.982 14.8728 16.9388 14.8051C16.8383 14.7278 16.7365 14.6484 16.6347 14.5686C16.6829 14.5389 16.6745 14.535 16.5071 14.4235C16.4536 14.3514 16.3993 14.2786 16.3448 14.2053C16.3006 14.1945 16.2584 14.1856 16.2148 14.1754C16.1818 14.0972 16.1504 14.0204 16.1173 13.9421C15.8776 13.7553 15.9641 13.9292 15.8725 13.9164ZM14.7718 12.8328C14.8302 12.8789 16.3085 14.2904 15.7245 13.5594C15.5501 13.3926 15.3769 13.227 15.1999 13.0588C15.2189 13.3282 14.8512 12.7543 14.8083 12.7166C14.6241 12.5285 14.3376 12.3506 14.1891 12.2334C14.0615 12.1321 14.003 12.0482 13.9097 11.981C13.5936 11.7498 13.0723 11.4177 12.9604 11.4387C13.2163 11.5991 13.4723 11.7687 13.7297 11.9494C14.0015 12.143 14.1938 12.3655 14.7299 12.7019C14.8395 12.8123 14.7599 12.8182 14.7718 12.8328ZM21.814 4.68326C21.8071 4.76009 22.5757 4.63955 22.5797 4.60925C22.5767 4.59199 22.3299 4.62495 22.2912 4.62343C22.291 4.62346 22.2907 4.62349 22.2905 4.62352C22.2748 4.62269 22.3488 4.58373 22.2268 4.59184C22.0907 4.622 21.9499 4.6529 21.814 4.68326ZM13.7287 3.54032C13.6283 3.60631 12.6433 5.80102 12.6436 5.87791C12.6412 5.89778 12.6689 5.8805 12.6757 5.8917C12.842 5.35204 13.231 4.65561 13.4649 4.17756C13.5305 4.04305 13.484 4.07102 13.4872 4.06302C13.4873 4.0627 13.4875 4.06239 13.4876 4.06207C13.523 3.98714 13.7555 3.67969 13.7287 3.54032ZM17.3975 15.3055C17.4284 15.3565 17.4243 15.7118 17.4875 15.4566C17.7268 15.3843 17.5648 15.4806 17.5588 15.4727C17.559 15.4728 17.5592 15.4729 17.5593 15.4731C17.5249 15.5575 17.45 15.4192 17.3975 15.3055ZM16.3287 11.9206C16.3196 11.9491 16.3105 11.9776 16.3014 12.006C16.3692 12.2552 16.4401 12.5034 16.5146 12.7512C16.498 12.7291 16.4814 12.7069 16.4649 12.6847C16.5566 13.066 16.6635 13.2016 16.7216 13.4015C16.7215 13.4012 16.7214 13.401 16.7213 13.4008C16.7276 13.4223 16.7037 13.459 16.7295 13.5383C16.7876 13.7202 16.9602 14.2406 17.0159 14.2906C17.1308 14.397 16.7292 13.373 16.6723 13.175C16.6448 13.0861 16.6393 12.9712 16.6229 12.9171C16.6049 12.8581 16.5408 12.7901 16.4979 12.6456C16.4846 12.6032 16.3911 12.122 16.3287 11.9206ZM15.3785 7.47009C15.3515 7.55357 15.4086 7.71434 15.4109 7.77549C15.4115 7.79017 15.3654 7.68178 15.3748 7.81949C15.4011 7.85534 15.4274 7.89095 15.4538 7.92643C15.4275 7.77473 15.4023 7.6223 15.3785 7.47009ZM23.1069 4.47732C23.0799 4.47259 22.6708 4.52836 22.6513 4.53612C22.4119 4.63537 23.2668 4.51739 23.1069 4.47732ZM17.904 9.17055C18.1192 9.14446 16.1688 10.3371 15.9882 10.4652C15.9626 10.408 16.4487 10.1561 16.1649 10.2446C16.4161 10.1319 17.0257 9.69274 17.1798 9.60565C17.2732 9.55278 17.3256 9.58188 17.34 9.57427C17.3962 9.5438 17.8288 9.17928 17.904 9.17055ZM14.3999 11.4852C14.5858 11.3737 14.7721 11.262 14.9593 11.1499C14.7501 11.2995 14.5422 11.4483 14.3344 11.5973C14.3566 11.5597 14.3783 11.5225 14.3999 11.4852ZM14.1893 11.6616C14.2292 11.7068 13.5927 12.0831 13.4413 12.203C13.5639 11.9964 13.9205 11.8704 14.1893 11.6616ZM24.3817 4.85042C24.6793 4.68262 24.688 4.44881 24.4031 4.75638C24.3942 4.76618 24.3692 4.85697 24.3817 4.85042ZM15.767 14.1731C15.8075 14.2147 16.2776 14.7607 16.3298 14.7703C16.4893 14.7958 16.1252 14.4912 16.0377 14.3552C15.8947 14.1339 16.1962 14.365 15.7283 13.9522C15.7596 13.9567 15.7902 13.9606 15.8219 13.9656C15.5669 13.7055 15.5608 13.8816 15.5026 13.8476C15.4845 13.8369 15.3303 13.6698 15.2944 13.6461C14.8563 13.3618 15.7285 14.1336 15.767 14.1731ZM17.5112 5.07309C16.8334 5.1134 17.1305 5.15272 16.4461 5.24498C16.4294 5.28883 17.427 5.12129 17.5112 5.07309ZM10.5041 10.4013C11.1411 10.6842 11.6263 10.9881 12.226 11.242C12.2521 11.1082 10.3566 10.288 10.5041 10.4013ZM10.3404 10.8592C11.4332 8.3514 12.4847 5.40309 13.8609 2.82085C14.0179 2.54548 14.0773 2.541 14.1344 2.44408C14.1719 2.38263 14.1385 2.36707 14.1969 2.2863C15.1028 0.952881 15.3263 3.32663 15.3317 3.93255C15.3743 4.81555 15.4173 5.68324 15.5047 6.54493C15.6743 8.26694 15.9992 9.95198 16.4319 11.6081C16.4825 11.8173 16.7071 12.847 16.8903 13.0239C17.0246 13.1581 16.7319 12.4627 16.6991 12.3414C16.6728 12.2508 16.7112 12.2356 16.6937 12.1753C16.6753 12.1114 16.6637 12.172 16.6418 12.0978C16.5491 11.7836 16.4669 11.4354 16.3919 11.1487C15.6064 8.32612 15.5561 5.5425 15.2922 2.56562C15.2169 2.19593 15.2479 2.25751 15.2462 2.2388C15.2461 2.23855 15.2459 2.2383 15.2457 2.23805C12.6882 1.63385 12.9212 5.25985 11.9311 6.7953C11.3725 8.09408 10.8439 9.40505 10.3572 10.7358C10.3515 10.7771 10.3459 10.8182 10.3404 10.8592ZM14.7821 13.0503C14.8247 13.2586 14.9388 13.1934 15.3536 13.6725C15.4053 13.6937 15.4558 13.7137 15.5075 13.735C15.2661 13.5053 15.0273 13.2691 14.7813 13.0496C14.7815 13.0499 14.7818 13.0501 14.7821 13.0503ZM17.5998 15.1383C17.7165 14.9784 17.1089 13.7065 16.9485 13.095C16.8305 13.0114 17.1611 13.8699 17.2295 14.0758C17.2615 14.1793 17.3823 14.7536 17.586 15.1501C17.5906 15.1462 17.5952 15.1422 17.5998 15.1383ZM20.0258 8.04302C20.1088 7.98137 20.1893 7.92137 20.2732 7.85911C20.0489 7.98752 19.827 8.11425 19.6019 8.24304C19.9498 8.02382 20.2949 7.80638 20.6432 7.58637C20.5996 7.65756 20.554 7.73014 20.5106 7.80124C20.3504 7.88094 20.1872 7.96262 20.0258 8.04302ZM21.1195 7.28545C20.5312 7.69783 21.1028 7.20041 21.2715 7.13629C21.375 7.09635 21.18 7.24298 21.1195 7.28545ZM22.6988 6.28548C22.4571 6.52523 21.8974 6.91046 22.0289 6.67384C22.3598 6.51781 22.5289 6.34553 22.9781 6.07655C22.9303 6.13782 22.8763 6.20323 22.8284 6.2644C22.8281 6.26459 22.8279 6.26479 22.8276 6.26499C22.7851 6.27151 22.7422 6.27834 22.6988 6.28548ZM20.8886 7.52998C20.4578 7.73592 21.5999 6.99471 21.2727 7.27101C21.258 7.28355 20.9058 7.5217 20.8886 7.52998ZM11.27 7.98491C11.2862 8.05233 11.4185 7.71441 11.466 7.6032C11.6704 7.12157 11.9094 6.49353 12.1278 5.994C12.0998 6.02651 12.0717 6.05916 12.0436 6.09195C11.7774 6.71994 11.5199 7.35103 11.27 7.98491ZM12.8167 4.43258C12.9733 4.09249 13.1355 3.75103 13.3047 3.41433C13.3208 3.382 13.3646 3.22047 13.3019 3.32552C13.1313 3.6937 12.9716 4.06258 12.8167 4.43258ZM12.7954 11.849C13.0202 12.0148 12.2779 11.6919 12.3693 11.6076C12.5125 11.6859 12.6548 11.7664 12.7954 11.849ZM10.4686 10.6561C10.6337 10.7214 10.7988 10.7881 10.9624 10.8557C10.9564 10.8685 10.9504 10.8812 10.9443 10.8939C10.787 10.8136 10.6278 10.7342 10.4686 10.6561ZM10.7181 9.34981C10.8294 9.1881 10.9832 8.75926 11.0861 8.49544C10.9771 8.66259 10.8306 9.10569 10.7181 9.34981ZM15.9567 14.6016C15.9615 14.5618 16.7749 15.3666 16.4494 15.1305C16.2839 14.9545 16.1196 14.7775 15.9567 14.6016ZM17.8477 14.9703C17.9413 15.1947 17.9989 15.3827 17.9325 15.3519C17.8882 15.2259 17.8439 15.1043 17.8 14.9829C17.8159 14.9787 17.8318 14.9745 17.8477 14.9703ZM23.805 5.63976C24.1382 5.40069 24.4759 5.15554 24.8057 4.90576C24.8021 4.92588 24.7982 4.94626 24.7939 4.96693C24.474 5.20856 24.1502 5.44368 23.8279 5.67499C23.8203 5.66325 23.8126 5.6515 23.805 5.63976ZM10.5184 9.52538C10.4292 9.79453 10.341 10.0655 10.2548 10.3369C10.3587 10.0715 10.4644 9.80675 10.5711 9.54401C10.5535 9.53755 10.536 9.53109 10.5184 9.52462C10.5184 9.52487 10.5184 9.52513 10.5184 9.52538ZM19.246 8.95499C20.3251 8.30985 19.0335 9.26027 18.7051 9.36431C18.7048 9.36457 18.7046 9.36484 18.7043 9.3651C18.6755 9.37418 18.7035 9.30576 18.6541 9.31884C18.7706 9.26311 18.8866 9.20779 19.0034 9.15183C19.0874 9.06754 19.1704 8.98397 19.2549 8.89935C19.2919 8.88549 19.3288 8.87167 19.3657 8.85791C19.3259 8.89018 19.286 8.92254 19.246 8.95499ZM15.0652 11.8086C14.1203 12.4379 15.0243 11.7021 15.5369 11.455C15.544 11.473 15.1517 11.7509 15.0652 11.8086ZM17.525 10.127C17.6686 10.0193 17.812 9.91182 17.9559 9.80401C17.9815 9.80103 18.0071 9.79806 18.0327 9.7951C17.9247 9.88163 17.8173 9.96785 17.7095 10.0543C17.648 10.0785 17.5864 10.1028 17.525 10.127ZM22.5208 6.98464C22.7699 6.83048 23.0013 6.51456 22.2502 7.06744C22.2585 7.07883 22.2668 7.09021 22.2751 7.1016C22.3046 7.0788 22.3884 7.00591 22.3936 7.00364C22.4094 6.99712 22.4202 7.04668 22.5208 6.98464ZM13.5337 13.2958C13.5113 13.3176 13.5758 13.4532 13.2196 13.5109C13.1412 13.576 13.0646 13.64 12.9897 13.7028C12.9495 13.6908 12.9089 13.679 12.8687 13.667C13.2002 13.4696 13.198 13.3914 13.2197 13.3747C13.322 13.2972 13.2628 13.379 13.3319 13.3323C13.512 13.2103 13.9065 12.914 13.777 13.1198C13.7308 13.1934 13.5564 13.2738 13.5337 13.2958ZM14.2159 12.9334C14.1694 12.95 14.2723 12.8276 14.2356 12.8377C14.2031 12.8467 13.7866 13.0764 13.8514 12.9436C13.9177 12.9022 13.9844 12.8606 14.0498 12.8199C14.0828 12.8218 14.1158 12.8236 14.1489 12.8254C14.2006 12.7679 14.2543 12.709 14.3051 12.6521C14.4371 12.6225 14.6979 12.5234 14.4546 12.7372C14.5495 12.6677 14.646 12.5972 14.7405 12.5282C14.7776 12.4743 14.8151 12.4203 14.8527 12.3661C14.8463 12.4142 14.8399 12.4622 14.8337 12.5102C14.6279 12.6509 14.4231 12.7912 14.2159 12.9334ZM11.3053 15.0204C11.3044 14.9972 11.3036 14.9738 11.3029 14.9505C10.9934 15.2391 10.5221 15.6634 10.7201 15.3394C11.1427 14.9682 11.5902 14.6069 12.0417 14.2538C12.0802 14.2424 12.1189 14.2309 12.1578 14.2193C11.7871 14.4309 12.0307 14.5356 11.6946 14.7111C11.638 14.7411 11.7338 14.563 11.4541 14.848C11.4767 14.8541 11.4992 14.8603 11.5218 14.8665C11.4496 14.9173 11.3773 14.9687 11.3053 15.0204ZM9.29577 17.1769C9.39731 16.9003 9.37945 17.1842 9.31386 17.3262C9.31387 17.3261 9.31389 17.3259 9.31391 17.3257C9.13199 17.5807 9.26674 17.0174 9.28235 17.0555C9.29354 17.0282 9.21235 16.9077 9.48361 16.7738C9.37696 16.9477 9.31036 17.0591 9.29577 17.1769ZM10.3661 15.8182C10.3272 15.8591 10.3313 15.8169 10.3134 15.8341C10.3132 15.8342 10.313 15.8344 10.3129 15.8345C10.0283 16.0901 9.55432 16.6865 9.46093 16.6926C9.52623 16.5173 10.3495 15.6641 10.4627 15.6641C10.4311 15.7144 10.3969 15.7676 10.3661 15.8182ZM12.4128 14.0844C12.6389 13.9902 12.2159 14.3138 12.0897 14.3758C12.065 14.387 12.1803 14.1808 12.4128 14.0844ZM22.1077 3.38907C21.5786 3.49534 22.2856 3.43696 22.0471 3.5247C22.1517 3.50602 22.2541 3.4877 22.3522 3.47004C22.2728 3.44273 22.1913 3.41574 22.1077 3.38907ZM5.51533 9.8252C5.62889 9.86303 5.58324 9.81546 5.59338 9.81771C5.66902 9.83947 5.73339 9.88616 5.76369 9.89165C6.33203 9.99516 5.97241 9.86345 5.96803 9.85521C5.96544 9.81961 6.1227 9.82364 5.93024 9.72894C5.80386 9.70531 5.68167 9.68362 5.55896 9.66249C5.50386 9.62816 5.44894 9.59407 5.39369 9.56007C5.14325 9.53512 5.455 9.62892 5.47626 9.68989C5.48438 9.7137 5.25379 9.67723 5.51533 9.8252ZM21.1354 3.40653C21.0574 3.47657 20.8493 3.57993 21.0704 3.60953C21.0706 3.6095 21.0709 3.60946 21.0711 3.60943C21.1121 3.61477 21.2691 3.59944 21.3176 3.60822C21.6564 3.48322 21.5014 3.42223 21.1354 3.40653ZM3.33148 9.4226C3.13954 9.37132 2.94482 9.32171 2.75414 9.27498C2.7634 9.24073 2.77268 9.20649 2.78196 9.17226C2.88392 9.19948 2.9878 9.22766 3.09091 9.25634C3.13053 9.24725 3.17042 9.23829 3.21013 9.22938C3.08741 9.16527 2.96287 9.1018 2.83999 9.03958C2.68037 9.02597 2.52204 9.01521 2.34289 8.99929C2.42138 9.0315 2.49441 9.0622 2.56557 9.0928C2.13631 9.03629 2.34464 9.01959 1.7702 8.82636C1.88537 8.77508 0.384471 8.92596 1.11817 7.04468C1.61722 6.48828 1.61415 6.64083 1.73399 6.54361C2.03319 6.46648 2.1942 6.46786 2.39073 6.45256C2.69099 6.36645 2.70013 6.34086 2.49906 6.34726C2.63202 6.27294 2.81331 6.30327 2.97714 6.25243C2.99082 6.24823 2.95653 6.214 2.96878 6.21103C3.85301 6.00969 3.81215 6.13266 3.95846 6.10967C4.05207 6.09591 4.43321 5.95724 4.4342 5.93251C4.4373 5.89908 3.60425 5.90851 4.87287 5.69024C4.20498 5.71 3.46135 5.93783 3.9755 5.9792C3.75928 6.00197 2.84459 6.21006 2.77318 6.22412C2.68396 6.23692 2.70793 6.18064 2.59136 6.20475C2.50116 6.23269 2.47683 6.30744 1.70322 6.46494C1.55659 6.66045 1.61414 6.03763 0.853669 7.40916C1.15945 9.8877 1.7261 8.72446 1.77573 9.00941C1.76902 8.73477 0.873284 10.1043 0.787608 7.20969C1.57756 6.00777 1.49124 6.50576 1.64401 6.32217C1.48931 6.45656 1.54468 6.09731 0.804521 7.02518C0.361717 9.85709 1.77639 8.90467 1.68424 9.13367C1.95892 9.21994 2.05625 9.23316 2.17932 9.26202C2.41053 9.31194 2.56673 9.33969 2.71683 9.31787C2.95373 9.36965 3.07041 9.40292 2.95808 9.43139C3.0303 9.44442 3.10278 9.4578 3.17482 9.4714C3.22708 9.45501 3.27907 9.4387 3.33148 9.4226ZM19.5774 3.70563C19.3188 3.68622 19.2401 3.81647 19.2815 3.81746C19.5122 3.82249 19.7112 3.71586 19.5774 3.70563ZM5.09901 9.64996C4.84303 9.55263 4.58615 9.45872 4.32747 9.36823C4.31913 9.40463 4.31079 9.44104 4.30245 9.47745C4.56847 9.5313 4.83371 9.5888 5.09901 9.64996ZM22.1759 3.29532C22.2055 3.31964 22.2348 3.344 22.2639 3.3684C22.5607 3.22605 22.8797 3.33295 23.0347 3.28286C23.0669 3.27212 22.9944 3.23145 22.9274 3.22929C22.8891 3.22715 22.2265 3.27883 22.1759 3.29532ZM17.2936 11.0271C17.3786 10.9474 17.4637 10.8676 17.5488 10.7878C17.5611 10.8175 17.5733 10.8472 17.5856 10.8769C17.5417 10.9135 17.4977 10.95 17.4538 10.9866C17.4004 11.0001 17.347 11.0136 17.2936 11.0271ZM18.3535 10.2555C18.5252 10.1433 18.6979 10.0305 18.8692 9.91861C18.2351 10.3787 18.7763 10.0326 18.4045 10.3315C18.3875 10.3061 18.3705 10.2808 18.3535 10.2555ZM20.116 9.14965C20.1056 9.17924 20.0952 9.20887 20.0848 9.23852C19.9139 9.35321 19.7441 9.46719 19.5722 9.58251C19.7174 9.5637 19.8612 9.54578 20.0052 9.52776C20.0683 9.48558 20.1312 9.44361 20.1936 9.40188C20.1678 9.31777 20.1419 9.2337 20.116 9.14965ZM10.4396 11.7568C10.5462 11.8094 10.938 11.9437 10.9317 11.9175C10.792 11.8167 10.6503 11.7169 10.5069 11.618C10.4897 11.6512 10.4725 11.6845 10.4553 11.7178C10.4417 11.6903 10.4281 11.6629 10.4143 11.6355C10.3199 11.6051 10.2252 11.5751 10.1306 11.5455C10.0999 11.4947 10.0687 11.4437 10.0377 11.393C9.9768 11.4056 9.91602 11.4183 9.85507 11.4311C10.2562 11.6923 10.269 11.6277 10.3574 11.6708C10.4022 11.6929 10.4203 11.7276 10.4311 11.7458C10.4339 11.7495 10.4368 11.7531 10.4396 11.7568ZM4.85882 9.83474C5.40251 9.98147 5.73375 9.97437 6.11614 10.1699C5.89525 9.91518 4.22836 9.664 3.67326 9.41212C3.60716 9.42723 3.54127 9.44258 3.47516 9.4581C3.79686 9.49686 4.00364 9.60218 4.15528 9.6448C4.27592 9.67886 4.26964 9.64737 4.27893 9.64989C4.27937 9.64999 4.27981 9.6501 4.28025 9.6502C4.56321 9.72806 4.64458 9.77754 4.85882 9.83474ZM22.5923 3.10182C22.4334 3.07755 22.1541 3.11891 22.1604 3.1836C22.3137 3.18227 22.4754 3.18 22.6265 3.17936C22.5927 3.16699 22.6195 3.10596 22.5923 3.10182ZM20.4161 9.16663C20.5297 9.11579 20.7627 8.93694 20.6266 8.96083C20.6018 8.96554 20.3832 9.1598 20.4675 8.98127C20.2346 9.13952 20.3508 9.19586 20.4161 9.16663ZM8.40598 5.19567C8.50826 5.17819 8.61384 5.16024 8.71504 5.14299C8.73488 5.11348 8.75475 5.08396 8.77466 5.05444C8.65363 5.10119 8.52851 5.1486 8.40598 5.19567ZM23.9406 2.89211C24.1056 3.00417 24.3171 2.85164 24.6658 2.93931C24.729 2.93709 24.7983 2.93457 24.9017 2.93755C25.1433 3.19117 24.5485 1.87566 26.241 3.91135C26.2454 3.9268 26.2497 3.94298 26.2535 3.95887C26.3307 4.12623 26.3693 4.30913 26.3809 4.46999C25.3544 1.39401 25.0848 3.18308 24.9995 2.83759C24.8756 2.82942 24.8194 2.83138 24.7551 2.8321C24.633 2.8345 24.5362 2.84085 24.4484 2.8469C24.2656 2.85997 24.1066 2.87531 23.9406 2.89211ZM1.79411 6.3197C1.90199 6.30048 1.98526 6.29362 2.06568 6.28824C2.20506 6.23041 2.3158 6.18441 2.44068 6.13622C2.36613 6.13939 2.30448 6.13998 2.22527 6.14565C2.09743 6.1946 1.96532 6.24509 1.79411 6.3197ZM25.24 5.87229C25.5309 5.679 25.5689 5.51196 25.2106 5.77523C25.0601 5.8851 24.935 6.07304 25.24 5.87229ZM15.2249 15.2316C15.1497 15.1442 15.0739 15.0561 14.9993 14.9692C14.9553 14.9587 14.911 14.9479 14.8664 14.9369C14.9864 15.0356 15.1046 15.1327 15.2249 15.2316ZM19.09 10.0412C19.0882 10.0143 19.0863 9.98728 19.0844 9.96032C19.1723 9.90707 19.2588 9.85473 19.3471 9.80114C19.3386 9.83485 19.3301 9.86862 19.3216 9.90233C19.2447 9.94843 19.1675 9.99474 19.09 10.0412ZM14.6854 14.6797C14.6228 14.6118 14.562 14.5456 14.4994 14.4777C14.4474 14.4426 14.3967 14.4087 14.3445 14.3734C14.398 14.4418 14.45 14.5088 14.5034 14.5772C14.5639 14.6112 14.6244 14.6452 14.6854 14.6797ZM22.5906 7.70211C22.7121 7.65379 23.0896 7.29061 22.694 7.53267C22.4389 7.68884 22.5729 7.70895 22.5906 7.70211ZM22.0293 8.11606C22.4657 7.88578 22.009 7.86611 21.6204 8.34101C22.098 7.98975 22.0033 8.12964 22.0293 8.11606ZM18.5226 10.6418C18.5123 10.6485 18.4818 10.6218 18.3993 10.6754C18.1022 10.8686 17.7047 11.1168 17.493 11.2561C16.9831 11.5911 15.4769 12.6912 15.2324 12.7203C15.1817 12.7258 15.228 12.6087 15.2107 12.6159C15.1608 12.6373 14.9208 12.8414 14.9395 12.7655C15.1947 12.5933 15.446 12.424 15.7013 12.2523C15.6593 12.3252 15.6175 12.3979 15.5761 12.4704C16.1973 12.0275 15.9902 12.1701 16.1265 11.9812C16.2506 11.9352 16.3761 11.8883 16.5001 11.8424C16.7156 11.6596 16.9321 11.4763 17.1478 11.2936C17.1079 11.3486 17.0682 11.4034 17.0281 11.4584C17.4038 11.2581 17.2906 11.3 17.4514 11.1238C17.4648 11.1429 17.4782 11.162 17.4916 11.1812C17.7996 10.9058 17.905 10.9194 17.9796 10.8703C18.1326 10.7693 18.1729 10.4094 18.9075 10.2477C19.0781 9.97405 19.2238 10.2003 19.2911 9.99039C19.7891 9.83569 18.9698 10.3203 18.5938 10.5667C18.5936 10.5668 18.5934 10.5669 18.5932 10.5671C18.5648 10.5856 18.6235 10.5764 18.5226 10.6418ZM20.5779 9.09769C20.3943 9.36728 21.3947 8.70864 20.9681 8.78424C20.9161 8.81234 20.8624 8.84156 20.8111 8.8692C20.7341 8.94486 20.6562 9.02117 20.5773 9.09809C20.5775 9.09796 20.5777 9.09782 20.5779 9.09769ZM19.9881 3.29442C18.8969 3.49573 19.5265 3.47908 19.8941 3.3594C19.9662 3.33579 20.0035 3.31192 19.9881 3.29442ZM5.60976 10.13C5.62848 10.1201 5.6473 10.1102 5.66622 10.1004C5.32533 10.0171 4.67155 9.79449 4.6579 9.89334C4.97572 9.967 5.2968 10.047 5.60976 10.13ZM2.87968 9.56986C2.95287 9.58851 3.25285 9.65914 3.22317 9.61628C3.09685 9.56557 2.97015 9.51578 2.84292 9.46688C2.7789 9.47211 2.71645 9.47783 2.65203 9.48342C2.73724 9.5034 2.85936 9.56461 2.87968 9.56986Z" fill="#B564D4"/>
</svg>
