<svg width="43" height="30" viewBox="0 0 43 30" fill="none" xmlns="http://www.w3.org/2000/svg">
<path d="M13.098 22.3936C13.6537 19.086 14.7226 16.9316 15.8567 14.0478C17.1211 10.8549 18.5442 7.20777 20.3697 3.53798C21.1758 2.55448 19.9449 1.88473 23.459 0.2824C27.1774 1.29326 25.5305 2.43721 25.9595 2.92522C26.0532 3.51196 26.0918 4.02421 26.1261 4.52863C26.2404 6.53341 26.2963 8.2736 26.4672 9.94745C26.7099 12.4594 27.161 14.9767 27.7774 17.4522C28.086 18.6883 28.4397 19.9135 28.8396 21.1112C29.0403 21.714 29.2526 22.3155 29.4727 22.9169C29.5831 23.2186 29.6947 23.5183 29.809 23.8238C29.866 23.9762 29.9232 24.1287 29.9816 24.2866C30.0115 24.3672 30.0418 24.4496 30.0705 24.529C29.7106 24.6625 31.8221 24.4053 28.925 26.8595C27.0605 26.968 27.7151 26.6336 27.4543 26.6099C26.9338 26.2474 26.9627 26.1705 26.8336 26.0634C25.9068 25.2104 24.5766 23.9036 23.7736 23.1051C22.1868 21.3214 19.1196 19.2872 17.1995 18.324C16.4122 17.9046 15.5785 17.508 15.2957 17.2763C14.9944 17.1313 14.8003 17.1342 14.7256 17.1063C14.7248 17.1058 14.724 17.1054 14.7231 17.1049C14.4871 17.013 13.8815 16.7036 13.7389 16.6538C13.7175 16.6463 13.8258 16.7511 13.4916 16.6039C13.4617 16.5911 13.505 16.5628 13.2155 16.4548C13.142 16.4245 12.1404 16.1373 11.853 16.0493C10.9129 15.7443 8.58874 14.9986 7.44416 14.7068C7.26812 14.6609 7.1594 14.6575 6.97318 14.611C6.87627 14.5868 6.73805 14.5261 6.70815 14.5189C6.57793 14.487 5.98075 14.4662 6.23853 14.2897C5.63822 14.1649 5.79727 14.2817 5.77279 14.3266C5.12469 14.188 4.83269 14.0201 4.64034 14.0985C3.81964 13.9252 3.14382 13.8305 2.136 13.6329C2.0021 13.6024 1.8664 13.5762 1.62299 13.4908C1.5054 13.4391 1.35874 13.43 0.978227 13.1263C0.268203 12.9549 0.589329 10.4434 0.980651 10.523C1.87537 9.89554 1.86924 10.0814 2.17522 9.95768C2.65938 9.82169 3.09589 9.73023 3.52185 9.64235C5.23285 9.29838 6.8886 9.03667 8.57088 8.76878C8.56885 8.75006 8.56682 8.73135 8.56479 8.71263C9.55935 8.62779 9.88068 8.44894 10.4552 8.46858C10.8022 8.38959 11.1376 8.31277 11.4842 8.23449C20.3974 6.93661 29.2221 5.55871 38.081 4.39171C38.456 4.34525 38.5557 4.37156 39.1853 4.29993C39.5348 4.26181 39.9436 4.20136 40.4616 4.15976C40.6045 4.15015 40.734 4.13873 40.9648 4.14577C41.1311 4.17828 41.0827 4.04318 41.8278 4.36102C42.3614 4.25831 42.9192 6.75888 42.4664 6.84248C42.2595 7.14158 42.1664 7.19127 42.0989 7.25627C41.6752 7.59627 41.6933 7.57066 41.4727 7.73878C40.8233 8.22659 39.833 8.88507 39.1048 9.38702C38.9437 9.49826 38.8353 9.60472 38.8183 9.6164C38.7105 9.69031 38.6788 9.66355 38.5739 9.73517C38.4499 9.81985 38.3119 9.95184 38.1661 10.0506C37.6188 10.4217 37.0242 10.842 36.9596 10.8855C36.6241 11.111 36.5299 11.1276 36.5023 11.1461C36.1265 11.3972 36.2878 11.3298 36.1949 11.3908C35.7077 11.7102 35.3206 11.8669 34.7153 12.3806C34.7148 12.3413 34.7143 12.302 34.7137 12.2627C34.1981 12.5906 34.5815 12.4355 34.4877 12.5183C34.4513 12.5502 33.3645 13.2742 33.2809 13.3288C32.9855 13.522 32.956 13.4894 32.9302 13.5061C32.8697 13.5454 32.1645 14.0824 31.7722 14.3018C31.3036 14.5644 31.7758 14.1379 31.6564 14.1986C31.636 14.209 31.1785 14.5294 31.1007 14.5485C31.0156 14.57 31.4155 14.3003 31.402 14.2943C31.3939 14.2894 30.6936 14.6887 30.798 14.5681C30.879 14.4632 31.808 13.8992 31.9894 13.7528C32.0193 13.7287 31.9308 13.7267 31.9578 13.7061C32.0658 13.625 34.1438 12.2157 34.2421 12.1586C34.1482 12.2505 34.0532 12.3433 33.957 12.4367C34.104 12.3399 34.247 12.2457 34.3919 12.1501C34.2003 12.3029 34.0018 12.4602 33.8108 12.6123C34.2235 12.565 35.0277 11.783 35.013 11.6767C35.0055 11.6282 34.3752 11.9187 34.8639 11.506C34.7787 11.5501 34.6894 11.597 34.6059 11.64C34.4565 11.7642 34.2988 11.8939 34.1485 12.0185C34.2612 11.9563 34.3807 11.8894 34.4952 11.8259C34.4628 11.8641 34.4302 11.9024 34.3974 11.9407C34.1023 12.167 33.8116 12.3901 33.5187 12.6145C33.3558 12.7129 33.3645 12.6595 33.2539 12.7252C31.8575 13.5551 32.8 13.0643 31.9116 13.6443C31.7728 13.7126 31.6369 13.779 31.4992 13.8466C31.5924 13.8892 31.173 14.1066 30.7207 14.458C30.7614 14.3963 30.8022 14.3345 30.8428 14.2729C30.1684 14.7471 28.7033 15.5655 29.1647 15.4422C29.0002 15.5373 28.8371 15.6315 28.673 15.7264C28.5551 15.837 28.4372 15.9476 28.3195 16.0581C28.1354 16.1792 27.951 16.3004 27.7669 16.4215C27.7583 16.4106 27.7497 16.3997 27.7411 16.3888C27.8866 16.2902 28.0322 16.1916 28.1778 16.093C28.0449 16.132 27.9119 16.1711 27.779 16.2102C27.6755 16.2887 27.572 16.3672 27.4685 16.4457C27.9414 16.1738 27.3841 16.6296 27.2713 16.7733C26.903 17.0475 26.6198 17.1522 26.4907 17.2358C26.4303 17.2748 25.7967 17.8585 25.9944 17.5552C25.6419 17.8148 25.2895 18.0746 24.9355 18.3357C24.7878 18.4231 24.6413 18.5097 24.4926 18.5978C24.7642 18.3342 23.8273 18.8764 24.4696 18.4068C24.9474 18.0574 25.104 18.0249 25.3356 17.8671C25.5451 17.7245 25.6336 17.6148 25.8604 17.4587C27.3905 16.407 28.6476 15.5663 30.1179 14.5939C30.4097 14.401 30.6597 14.2076 30.8558 14.0784C31.0762 13.9333 30.8316 14.1609 31.1023 13.9627C31.3883 13.7532 31.4283 13.6754 31.5048 13.6226C31.5524 13.5899 31.726 13.5181 31.867 13.4227C32.4425 13.0334 33.2664 12.4311 33.3507 12.3741C33.4425 12.3128 35.0926 11.2335 35.1748 11.1845C35.2177 11.1594 35.2142 11.3309 35.4846 10.9663C35.5976 10.8859 35.7084 10.807 35.8169 10.7295C35.8148 10.7648 35.8126 10.8 35.8104 10.8353C36.4153 10.2937 36.2176 10.501 36.8538 10.054C37.6084 9.52285 38.5574 8.86851 39.5165 8.19007C39.9988 7.84871 40.481 7.50258 40.9456 7.15602C41.2418 6.906 41.1219 7.14604 41.816 6.4232C42.169 6.30834 41.5563 4.83221 41.3503 4.99179C41.1619 4.92606 41.0921 4.92909 41.0213 4.91997C40.8937 4.9084 40.7998 4.90999 40.7228 4.91107C40.5533 4.91455 40.4204 4.92416 40.2825 4.93484C39.8072 4.97498 39.6359 5.02864 39.0965 5.09217C38.5999 5.15 37.2905 5.21815 37.5903 5.31895C36.4792 5.34255 36.3253 5.57293 35.76 5.51908C35.6954 5.54669 35.6262 5.57495 35.5658 5.60202C34.9676 5.60216 34.7823 5.69877 34.1381 5.79723C33.8594 5.83992 34.1725 5.71042 33.6141 5.8836C33.5074 5.89121 33.3994 5.89902 33.2903 5.90701C33.3126 5.88304 33.3348 5.85909 33.357 5.83515C32.7257 5.93976 32.6893 5.93412 32.7699 6.00097C32.469 6.02862 32.1552 6.05819 31.855 6.08596C31.821 6.11636 31.7869 6.14677 31.7527 6.17719C31.9077 6.20296 38.7683 5.1731 39.7683 5.07422C40.0647 5.06269 40.384 5.01975 40.9026 5.02946C40.9882 5.03563 41.04 5.02818 41.2301 5.07642C41.4465 4.81184 41.923 6.61041 41.6236 6.4768C41.3991 6.69871 41.3578 6.69658 41.273 6.76565C41.1192 6.88074 40.9498 7.01153 40.7834 7.13794C40.1154 7.64605 39.4698 8.11982 39.0863 8.38231C38.7846 8.5881 38.6154 8.63693 38.1736 8.93644C37.73 9.2371 37.2074 9.66117 36.9719 9.82545C36.1922 10.3744 32.4765 12.8834 34.9592 11.1098C34.8718 11.1355 34.7845 11.161 34.6961 11.1872C33.7467 11.9481 34.0741 11.6545 33.2377 12.2097C32.8831 12.4451 32.0861 13.0601 32.06 12.9242C32.6982 12.4637 33.4148 12.0273 33.9774 11.6432C34.0357 11.6034 34.6704 11.1021 35.0262 10.8787C35.3444 10.6792 35.201 10.9242 35.7985 10.3512C36.37 10.1215 36.6002 9.81669 36.7219 9.71746C36.9376 9.54202 36.9982 9.58001 37.2335 9.42688C37.4869 9.26213 37.6345 9.1068 37.6671 9.08386C38.0058 8.8513 39.7753 7.59686 39.8686 7.5573C39.8043 7.61793 39.7389 7.67924 39.6764 7.73826C40.145 7.42502 40.0104 7.43807 40.1254 7.34494C40.2165 7.27898 40.302 7.2168 40.3941 7.14947C40.3668 7.18676 40.3393 7.22423 40.3127 7.26094C40.8459 6.86504 40.4195 7.11966 41.161 6.56848C41.0374 6.60794 42.4123 5.97386 41.1248 5.27191C40.8218 5.2143 40.7187 5.23514 40.5839 5.22975C40.3276 5.22887 40.1499 5.23435 40.1239 5.23814C40.1068 5.24079 40.2962 5.26019 40.0548 5.28615C39.6406 5.33051 38.9537 5.41088 38.8628 5.37279C38.6695 5.40282 38.6922 5.44827 38.6661 5.4525C38.5476 5.46887 36.6006 5.73688 36.2441 5.78919C35.2737 5.92711 34.1962 6.06497 33.151 6.21815C33.0416 6.23415 33.1074 6.19411 32.9972 6.21043C32.8289 6.23531 31.9413 6.40763 31.8106 6.42941C31.4766 6.48448 30.5992 6.5886 30.466 6.62148C30.4469 6.62616 30.7368 6.62707 30.4063 6.68659C30.0375 6.75294 30.2291 6.66975 30.209 6.67202C29.4416 6.76113 28.9696 6.86718 28.4555 6.94782C28.289 6.97393 27.968 6.97735 27.736 7.02294C27.7091 7.0282 27.7683 7.05882 27.742 7.06451C27.3894 7.1353 27.0381 7.11302 26.8854 7.13019C26.5064 7.17297 26.7193 7.19601 26.6998 7.19919C26.4485 7.2369 26.1025 7.26722 25.7211 7.32464C24.0104 7.58218 22.6136 7.78813 20.7934 8.05165C20.5648 8.08477 20.2883 8.08767 20.2534 8.09276C20.1454 8.10895 20.1826 8.14785 19.8699 8.19293C19.2111 8.28778 18.6027 8.38002 17.9487 8.47649C17.8173 8.49587 17.7554 8.46396 17.6554 8.47798C17.3211 8.52511 16.1921 8.80206 16.1523 8.67409C15.5032 8.89039 15.0433 8.85769 14.5117 8.93958C13.2412 9.13486 11.2577 9.46537 9.98941 9.65208C9.71992 9.69163 9.59167 9.67776 9.44571 9.69928C9.17258 9.73883 7.66351 10.0044 7.57897 10.0139C7.4231 10.0297 7.48669 9.86614 6.71301 10.1298C6.23955 10.2203 6.28687 10.1503 6.19038 10.1636C5.42476 10.2712 4.71282 10.5447 4.82729 10.3955C3.94896 10.5946 3.39271 10.7854 2.99809 10.7586C3.01194 10.8193 2.62862 10.9165 2.0525 11.106C2.59644 10.8143 2.51265 10.7695 3.77362 10.516C3.79389 10.5121 3.7634 10.5607 3.78402 10.5567C3.95347 10.5243 4.32429 10.4291 4.63012 10.3736C4.9269 10.3198 4.76783 10.3787 4.88926 10.3554C5.00196 10.3339 4.99407 10.2949 5.14949 10.2659C5.67556 10.168 6.12537 10.0788 6.42115 10.027C6.61299 9.99354 6.81893 9.99381 6.96432 9.96922C7.52916 9.87282 8.69607 9.6539 9.41585 9.54286C9.5618 9.5204 9.5048 9.56902 9.82915 9.52061C9.86545 9.51521 10.0064 9.45147 10.2822 9.39925C10.5608 9.34663 10.7873 9.33149 10.9706 9.29846C11.1202 9.27145 11.0505 9.24567 11.3615 9.19478C11.6292 9.14976 14.574 8.72395 14.7343 8.70651C14.965 8.67994 15.0826 8.71358 15.2229 8.68609C15.2475 8.68102 15.2823 8.6261 15.3682 8.60957C16.7717 8.338 19.9099 7.93986 21.5255 7.70378C24.9018 7.20942 28.0183 6.73299 31.4211 6.24388C31.4817 6.22674 31.5421 6.20964 31.6023 6.19259C31.249 6.24176 30.9181 6.28792 30.5655 6.33725C30.56 6.31468 30.5546 6.29211 30.5491 6.26953C30.0878 6.33084 30.1547 6.37665 30.1729 6.40739C29.9992 6.41777 29.8216 6.42872 29.6471 6.43926C29.5139 6.53939 28.355 6.6496 27.761 6.73455C27.3787 6.78906 26.9192 6.88581 26.7182 6.91219C26.2892 6.96868 26.2921 6.9181 26.2583 6.92213C26.1992 6.92947 25.6097 7.05839 25.1745 7.11943C24.5367 7.20898 24.4537 7.14378 23.5901 7.33445C22.4627 7.45795 21.2239 7.65896 20.0169 7.84331C20.2365 7.73964 19.1641 7.96516 18.6753 8.03661C15.6936 8.47166 12.0404 8.99256 9.01083 9.45266C8.62564 9.5112 8.321 9.51883 8.10714 9.5553C7.99008 9.57523 7.95438 9.63072 7.78448 9.65221C7.75573 9.65573 7.72428 9.61434 7.4223 9.65764C6.66408 9.76383 4.80051 10.1706 4.30447 10.1818C3.65377 10.3139 3.01786 10.4392 2.3207 10.6427C2.1322 10.7027 1.97948 10.7376 1.68727 10.888C1.704 10.8513 0.559195 11.543 1.35927 12.5175C1.78601 12.8887 1.84225 12.8021 1.9776 12.8629C2.42672 12.9869 2.72265 13.0168 3.05064 13.0724C4.31717 13.2727 5.56711 13.5228 6.81216 13.8202C6.86987 13.8536 6.92847 13.8873 6.98586 13.9209C7.48116 13.9372 9.32583 14.5061 10.2327 14.7777C11.8264 15.2421 13.8392 15.8875 15.1163 16.4657C15.3965 16.5913 15.6288 16.73 15.8966 16.855C16.0133 16.9095 16.1713 16.9453 16.2926 17.003C17.6513 17.6421 19.4136 18.6164 20.6381 19.4397C22.0522 20.3685 23.205 21.3938 24.4113 22.623C25.0132 23.2209 25.611 23.8188 26.226 24.4244C26.5333 24.7263 26.8444 25.0312 27.1755 25.3394C27.3437 25.4942 27.5006 25.643 27.7346 25.8243C27.7944 25.8681 27.8533 25.919 28.0046 25.9991C28.1576 25.9537 27.9478 26.5015 29.1176 25.848C29.7443 24.7978 29.2701 24.9662 29.3315 24.8558C29.2741 24.6949 29.2472 24.6261 29.2057 24.5151C27.0249 19.0312 25.6998 13.3469 25.394 7.52294C25.2983 6.06462 25.327 4.61993 25.0871 3.01498C24.9887 2.5945 25.0526 2.23841 24.5156 1.54336C23.412 0.520571 22.5056 1.72596 22.3267 1.93927C21.7651 2.67333 21.4675 3.30235 21.1105 3.98477C19.7622 6.66978 18.6401 9.40586 17.5532 12.1607C17.4954 12.3086 17.4605 12.2866 17.4158 12.4013C17.1497 13.077 16.6099 14.6087 16.3321 15.381C16.1079 15.9955 15.7096 16.9569 15.696 17.1935C16.5365 15.0152 17.3936 12.7252 18.3238 10.4943C18.3897 10.3365 18.4338 10.3304 18.4423 10.3112C18.6027 9.95312 18.4591 10.1633 18.6731 9.63683C18.7423 9.45981 19.538 7.89442 19.3448 8.03986C19.5471 7.66841 20.7866 4.9779 21.0434 4.45908C21.1186 4.29661 21.0298 4.39395 21.044 4.36137C21.1053 4.22067 21.1801 4.18316 21.2412 4.06614C21.4063 3.74026 21.8203 2.90261 21.9191 2.74938C22.0236 2.58216 22.2339 2.22441 22.5988 1.83268C22.7094 1.33358 24.6366 1.38197 24.6115 1.94236C24.9079 2.5798 24.8675 2.42735 24.9783 2.8964C25.0399 3.2502 24.9519 2.88256 25.0299 3.64924C25.0716 4.03042 25.1724 5.3041 25.183 5.60874C25.1964 5.91541 25.1783 6.25476 25.1994 6.67326C25.2272 7.2772 25.3242 8.57413 25.3875 9.18017C25.391 9.21652 25.4388 9.30055 25.4457 9.39026C25.4602 9.5751 25.4054 9.52363 25.413 9.66393C25.4093 9.80541 25.6971 12.2115 25.7728 12.6162C25.8154 12.8967 25.8766 13.0851 25.9019 13.2397C25.9219 13.361 25.8829 13.3811 25.9036 13.5048C25.9102 13.5436 26.0015 13.8607 26.0615 14.189C26.1147 14.4984 26.3167 15.6661 26.3481 15.8007C26.367 15.8883 26.3748 15.7861 26.4309 16.0448C26.4822 16.2803 26.4801 16.4435 26.5105 16.5776C26.5812 16.889 26.6964 17.2281 26.779 17.5562C27.0189 18.4988 26.9669 18.4611 26.9793 18.5182C27.0175 18.6756 27.077 18.7265 27.092 18.7774C27.1546 18.9927 27.3141 19.5187 27.3732 19.7092C27.4464 19.9474 27.4367 20.0585 27.5151 20.3117C27.5741 20.5014 27.7322 20.8673 27.877 21.2931C28.2021 22.2545 28.6285 23.3832 28.9865 24.3283C29.0935 24.6126 29.0738 24.6688 29.1063 24.7592C29.1297 24.8299 29.1342 24.8111 29.1878 25.001C29.3424 24.9533 28.8197 26.1531 28.3808 25.9335C28.0965 25.885 28.0965 25.8419 28.0389 25.8187C27.858 25.7144 27.8001 25.6625 27.728 25.6122C27.5897 25.511 27.5036 25.4464 27.449 25.3971C26.6839 24.6975 25.5093 23.4126 24.8611 22.7643C24.5937 22.5025 23.4415 21.3604 22.7715 20.7998C22.6946 20.7337 22.7863 20.7724 22.6969 20.7031C22.4823 20.5378 22.4628 20.6016 22.3578 20.5137C22.3072 20.4714 22.2112 20.3502 22.0608 20.2292C21.2796 19.6031 20.6805 19.2506 20.2948 19.0023C16.5447 16.6287 12.2434 15.0302 8.17983 13.9409C7.72936 13.8182 7.16167 13.7069 6.48547 13.5109C6.46886 13.4877 6.45197 13.4644 6.43514 13.4411C6.40685 13.4534 6.37863 13.4658 6.35047 13.4782C5.57212 13.3086 5.27325 13.2685 4.47999 13.0886C4.41199 13.0734 4.21712 12.9488 4.068 13.0298C3.28894 12.8104 3.71342 12.9649 3.11923 12.8721C2.81819 12.8248 2.52929 12.7798 2.18171 12.6903C2.06185 12.4321 1.58517 13.4986 1.38262 11.5009C1.95604 10.7726 1.97536 11.0659 2.16494 10.9448C2.32051 10.9465 2.24111 10.8268 1.5818 11.3572C1.88594 13.9059 2.46585 12.2828 2.47046 12.6087C2.6218 12.6389 2.76082 12.7164 2.89696 12.7421C3.30039 12.8171 3.68282 12.8403 3.76368 12.9031C4.28066 12.9453 3.64367 12.856 3.71487 12.8233C4.0517 12.9017 4.38691 12.9836 4.72188 13.0692C4.92609 12.9454 6.74653 13.557 6.64238 13.4182C6.78454 13.4763 6.92659 13.5349 7.06823 13.5942C7.74982 13.6142 8.10421 13.8121 8.94699 14.0969C8.88999 14.0611 8.83346 14.0256 8.77688 13.9902C8.79554 13.9866 9.5634 14.1767 9.26995 14.1751C10.0755 14.2996 9.99346 14.4574 10.7222 14.5459C11.1375 14.6566 10.8704 14.6483 11.6022 14.8787C12.0353 15.0161 12.5822 15.157 13.0602 15.3234C13.17 15.3617 13.2037 15.4189 13.3009 15.4539C13.3981 15.4891 13.4598 15.4672 13.5778 15.5096C13.8214 15.5969 14.1236 15.745 14.2739 15.802C14.4088 15.8532 14.615 15.8953 14.9355 16.0263C16.0481 16.4965 15.6997 16.4089 15.8663 16.503C16.0469 16.6084 16.212 16.6088 16.5837 16.7959C16.6208 16.8147 16.5052 16.8069 16.6277 16.864C16.727 16.9106 16.7966 16.8912 17.1255 17.0434C17.2623 17.0947 19.2401 18.1236 19.5236 18.3066C19.9755 18.563 20.9258 19.2132 21.3574 19.5243C21.5251 19.6424 21.7247 19.7406 21.8992 19.8717C22.4826 20.3048 23.3515 21.0381 24.0066 21.7032C24.6037 22.2956 25.5993 23.4041 25.9808 23.6763C26.8335 24.5076 27.0038 24.7548 27.0671 24.8174C27.2449 24.9904 27.3538 25.0371 27.5902 25.2486C27.951 25.1154 27.2568 26.8814 28.9939 24.9531C28.8965 24.6885 28.8071 24.4585 28.7121 24.2092C28.524 23.7171 28.3337 23.2126 28.1478 22.6986C27.7752 21.6703 27.4198 20.6012 27.1093 19.5277C26.4843 17.3773 26.0205 15.2095 25.7119 13.3821C25.3506 11.2661 25.1439 9.12454 25.0378 6.96825C24.9823 5.88757 24.9637 4.79883 24.8484 3.67859C24.7621 3.10326 24.8102 2.59265 24.3459 1.84632C23.1027 0.745614 22.5503 2.27921 22.2762 2.56767C20.0203 6.46142 18.529 10.5287 16.9662 14.6225C16.9758 14.6509 16.9853 14.6793 16.9949 14.7077C17.363 13.7417 17.8273 12.6197 18.2094 11.6745C18.7162 10.4114 19.4216 8.51456 19.9409 7.65237C19.7903 8.0249 19.4854 8.6149 19.551 8.63001C19.8376 7.96709 20.1309 7.30486 20.4332 6.64529C20.3966 6.65224 20.36 6.65926 20.3233 6.66634C20.6266 5.97048 20.9583 5.27218 21.2929 4.58691C21.3525 4.46511 21.2851 4.53839 21.3372 4.43373C21.3953 4.31759 21.3811 4.40897 21.3922 4.38736C21.5366 4.10109 21.5617 3.99304 21.5796 3.95922C21.6289 3.86732 21.6097 3.96037 21.7603 3.69305C22.0303 3.21604 22.1814 2.83201 22.2162 3.00709C22.3052 2.85719 22.3989 2.70551 22.5036 2.55194C22.5042 2.49292 22.5051 2.43459 22.5064 2.37666C23.1074 1.13829 24.8723 2.24406 24.5511 2.83507C24.6207 3.03183 24.6798 3.23347 24.7332 3.43278C24.7152 3.55165 24.6953 3.66893 24.6738 3.78335C24.7039 3.80222 24.734 3.82132 24.764 3.84063C24.8439 4.92256 24.8984 6.04176 24.9466 7.04619C24.98 7.74482 24.9794 7.91209 25.0244 8.52917C25.1345 9.90027 24.9688 8.54258 25.0071 9.68791C25.0359 9.62528 25.0648 9.56287 25.0939 9.50077C25.1231 9.68756 25.1533 9.87584 25.1844 10.0619C25.1695 10.1962 25.155 10.3297 25.141 10.4637C25.3478 11.0287 25.2803 11.416 25.2902 11.4957C25.2993 11.5596 25.4104 11.7664 25.4375 12.4605C25.5136 12.1598 25.517 12.981 25.5281 13.0459C25.5364 13.1076 25.6941 13.8825 25.7531 14.2006C25.7978 14.4509 25.8742 14.9844 25.9522 15.3538C26.0208 15.6796 26.0544 15.6378 26.0597 15.6616C26.1487 16.0611 26.0638 15.8171 26.1256 16.1067C26.1879 16.3962 26.2736 16.6123 26.285 16.6751C26.2907 16.7069 26.2294 16.6106 26.2592 16.7549C26.3386 17.1425 26.5424 17.8289 26.6577 18.266C26.6983 18.4213 26.7198 18.6247 26.7662 18.7973C26.8377 19.0619 26.9139 19.1731 26.9565 19.3265C26.9711 19.3793 27.005 19.7384 27.1427 20.1546C27.1691 20.2338 27.3739 20.4268 27.285 20.7976C27.3192 20.8132 27.3534 20.8286 27.3876 20.844C27.909 22.2195 27.8488 22.6794 28.2617 23.228C28.6144 24.2414 28.2848 23.5785 28.3145 23.6931C28.3335 23.7659 28.4781 24.0885 28.4902 24.1238C28.5122 24.1889 28.4848 24.1873 28.511 24.2563C28.5968 24.8307 29.5239 25.3126 28.3054 25.5571C28.1416 25.4987 28.1896 25.5511 27.9705 25.404C27.0951 24.7397 26.6123 24.0613 27.9602 25.3448C27.969 25.334 27.9779 25.3231 27.9867 25.3123C27.6043 25.0198 26.8156 24.2293 27.1323 24.44C27.2683 24.5241 27.7588 25.0376 28.2443 25.3735C29.2179 24.6607 28.8325 24.373 28.33 25.3569C27.9928 25.1212 27.8633 25.0407 27.4895 24.5588C27.2088 24.2832 27.0768 24.3327 26.7331 23.9237C26.7639 24.0165 26.7973 24.1116 26.827 24.2029C26.2664 23.7356 25.6878 23.0487 25.2735 22.6723C25.1352 22.5468 24.4996 22.2148 24.7622 22.1766C24.526 21.9585 23.4926 20.8867 23.2682 20.7314C23.2132 20.6936 23.0879 20.7081 22.3702 20.0844C22.3271 20.0324 22.2836 19.9805 22.2398 19.9288C22.9539 20.4333 21.7583 19.4553 22.1557 19.6254C22.2432 19.7483 22.7702 20.2031 22.8389 20.2949C22.9581 20.4493 22.4913 20.1255 23.0511 20.5797C23.5161 20.7394 22.4626 19.9616 22.7211 19.9586C21.9208 19.4256 21.879 19.3236 21.7054 19.1921C20.9533 18.6462 20.4475 18.3507 19.7004 17.8903C19.5017 17.8083 20.832 18.6712 20.9978 18.7752C20.3269 18.4856 21.3623 19.1616 21.8239 19.4146C21.8375 19.4707 21.8507 19.5267 21.8637 19.5827C21.3304 19.1657 20.7837 18.7894 20.1947 18.4634C20.1647 18.4285 20.1347 18.3938 20.1045 18.3591C20.2444 18.4194 20.3842 18.4812 20.5234 18.5441C20.0649 18.2183 20.2976 18.4849 19.7025 18.0215C19.6612 18.0462 19.62 18.071 19.5788 18.0958C18.9678 17.7246 18.3423 17.3737 17.7078 17.0367C17.3383 16.9396 16.106 16.3147 16.3808 16.3254C15.8782 16.08 16.4776 16.4261 15.9928 16.2282C15.781 16.1419 15.375 15.9582 15.288 15.8884C15.3727 15.8101 15.9861 16.0787 16.1986 16.1C16.1079 15.9967 13.2099 14.8949 13.5012 14.8989C13.2725 14.8014 13.359 14.8975 12.9313 14.7658C11.7347 14.3946 9.90545 13.723 8.89059 13.5984C10.0067 14.0076 10.3681 14.0195 11.2372 14.2836C11.8026 14.425 15.1234 15.6244 14.3424 15.4562C14.4674 15.4905 14.5922 15.5256 14.7175 15.562C14.8257 15.6419 14.9331 15.7225 15.0395 15.8039C14.7017 15.6639 14.359 15.5313 14.0144 15.4046C13.9446 15.3429 13.8734 15.281 13.8027 15.2197C13.7566 15.2274 13.7104 15.2352 13.6642 15.243C13.5174 15.1938 13.3702 15.1454 13.2224 15.0978C13.2729 15.0859 13.3235 15.0742 13.374 15.0625C13.1502 14.977 12.9257 14.8936 12.7005 14.8119C12.7496 14.8682 12.7981 14.9245 12.8468 14.981C11.7777 14.6279 12.1459 14.73 11.5714 14.4713C11.1274 14.3245 11.8597 14.6274 10.91 14.3526C9.80275 14.0403 10.56 14.1436 9.11979 13.7518C9.094 13.7639 9.06828 13.7759 9.04237 13.788C8.73249 13.6798 8.42303 13.5746 8.11148 13.4719C8.14713 13.5055 8.18284 13.5392 8.2186 13.573C7.56955 13.3864 6.65633 13.2102 6.45907 13.0716C7.11483 13.2717 7.14539 13.1186 6.97955 13.0471C6.92265 12.9876 -0.0997536 11.3941 3.57545 11.1794C4.89677 10.8938 5.91136 10.7755 7.11697 10.4901C6.27854 10.5598 3.39308 11.1399 2.83695 11.261C2.78406 11.2715 2.75711 11.1205 2.45207 11.3833C1.49267 11.4192 2.57627 12.4366 3.16119 12.3457C3.81678 12.4454 4.50238 12.5606 5.19959 12.7075C5.14869 12.7399 5.09734 12.7723 5.04643 12.8048C4.20752 12.5411 3.37576 12.6024 3.51581 12.4601C3.34394 12.4306 3.17193 12.4026 2.9988 12.3738C2.99417 12.4015 2.98954 12.4293 2.9849 12.4571C2.7207 12.4117 2.46717 12.3749 2.17306 12.2935C2.18086 12.2665 2.18867 12.2394 2.19647 12.2124C1.89805 12.3171 1.87358 11.3461 2.17045 11.4221C2.18416 11.3864 2.20119 11.3499 2.21255 11.3159C2.90136 11.1136 5.04727 10.5705 4.1174 10.9189C4.42573 10.8571 4.71716 10.8015 5.02663 10.744C5.02185 10.724 5.01707 10.7039 5.01229 10.6839C5.15069 10.6554 5.26617 10.6314 5.39975 10.6044C5.35963 10.6306 5.32002 10.6568 5.28093 10.6828C5.88029 10.5395 6.45437 10.5401 6.8362 10.4097C6.58446 10.4383 6.31224 10.4709 6.05553 10.5017C6.54567 10.4422 7.46453 10.2316 7.53902 10.2193C7.78548 10.178 7.93433 10.1956 8.19783 10.1545C8.44037 10.1165 8.40319 10.0903 8.4489 10.0839C9.76862 9.90269 9.29847 10.1548 9.87801 9.85447C9.94807 9.87166 10.0185 9.88881 10.0892 9.90592C10.1744 9.86874 10.2575 9.83193 10.3395 9.79531C10.7242 9.73666 11.118 9.67703 11.5054 9.61879C11.37 9.60452 11.2355 9.59013 11.1021 9.57563C11.6769 9.46977 11.9673 9.49588 12.0212 9.4891C12.1803 9.46855 12.2469 9.41368 12.2963 9.40595C14.6745 9.04335 13.2336 9.30446 14.4496 9.28609C14.8633 9.15754 14.4259 9.15819 14.3546 9.10226C14.922 9.04732 15.0974 9.00223 15.6898 8.91656C15.844 8.89431 16.0157 8.90448 16.1137 8.89023C16.1987 8.87788 16.4581 8.8006 16.66 8.7702C16.9973 8.71933 17.4522 8.67414 17.9147 8.60473C18.3016 8.54646 19.4742 8.34554 20.2978 8.22418C20.6485 8.17259 20.5718 8.2159 20.6624 8.20265C20.7001 8.19711 20.9681 8.1194 21.1933 8.08626C23.029 7.81638 24.9165 7.56729 26.762 7.30225C28.0638 7.11536 29.3806 6.8974 30.6833 6.71709C30.964 6.67829 30.8193 6.72679 30.9413 6.71062C30.9828 6.70505 31.028 6.64956 31.4549 6.6094C31.6135 6.59428 31.4372 6.65331 31.592 6.63333C31.6664 6.62372 31.6962 6.57647 32.1235 6.50694C32.9145 6.37851 33.3426 6.37667 33.4133 6.36514C33.5448 6.34362 33.502 6.31395 33.6742 6.28884C34.5422 6.16258 35.2479 6.05983 36.0214 5.95261C36.379 5.90056 38.8547 5.57329 38.9938 5.5682C39.2987 5.5469 39.0236 5.65232 39.416 5.60559C39.5161 5.57572 39.6372 5.54394 39.7387 5.51477C39.568 5.51811 39.3907 5.52338 39.2093 5.52989C39.6955 5.49831 40.2319 5.40737 40.6181 5.39298C40.6692 5.40268 40.7414 5.34605 41.1682 5.45326C41.75 7.15017 40.9247 6.24613 40.9284 6.53223C41.027 6.43949 41.1032 6.3756 41.2379 6.2471C41.1784 6.28232 41.131 6.30172 41.0847 6.32121C40.6076 6.69649 40.0751 7.09614 39.5562 7.4631C39.3715 7.59433 39.416 7.5273 39.2267 7.66089C38.1232 8.4346 38.4645 8.33914 37.274 8.89346C37.6474 8.66138 38.9394 7.72167 39.1314 7.59205C39.2687 7.50143 39.8871 7.28987 39.5873 7.26643C40.637 6.50539 39.7918 7.25897 40.7514 6.51596C40.7172 6.51197 40.6851 6.5065 40.651 6.50246C40.97 6.38826 41.3068 5.47011 40.8354 5.59506C40.7236 5.68507 39.3046 5.75626 38.5155 5.86667C37.3934 6.0163 36.1149 6.2174 35.0065 6.3737C34.6307 6.42677 34.3935 6.41401 34.3504 6.42008C34.2817 6.42985 34.0911 6.4959 33.9483 6.51591C33.4231 6.58926 31.8215 6.74525 31.4322 6.91064C34.57 6.49206 37.6539 5.95404 40.8296 5.73512C41.6749 5.17879 39.1858 7.63189 39.0212 7.60266C38.8977 7.68735 38.9788 7.58351 38.9409 7.60752C38.6621 7.78535 38.4593 7.99457 38.3752 8.0536C38.3089 8.10003 38.1614 8.17218 37.928 8.33568C37.8856 8.36533 37.8893 8.39591 37.8428 8.42839C37.5374 8.64113 37.2354 8.84991 36.927 9.06292C36.9071 9.07634 36.8083 9.09631 36.7313 9.14927C36.6541 9.20252 36.598 9.28925 36.578 9.30321C36.3371 9.46876 35.8901 9.74406 35.6623 9.89951C35.581 9.95512 35.6541 9.94036 35.562 10.003C35.2772 10.1968 35.3451 10.0816 35.002 10.3333C34.8902 10.4155 34.9237 10.4454 34.6955 10.5938C34.5329 10.6996 34.5096 10.6216 34.4826 10.6365C34.4471 10.6566 33.9384 11.0765 33.729 11.1573C34.0453 10.7806 33.3007 11.4396 33.3711 11.4601C33.1437 11.5971 32.9247 11.7284 32.6988 11.8642C32.6339 11.9255 32.5687 11.987 32.5031 12.0487C31.5961 12.585 31.084 12.9782 30.2167 13.5407C30.1741 13.5683 29.4344 14.0301 29.4572 13.9903C29.8702 13.6692 30.3018 13.3754 30.613 13.2423C31.001 12.8324 31.0634 12.9078 31.7886 12.3975C32.0328 12.2255 32.0306 12.187 32.0587 12.1674C33.0039 11.5079 34.5316 10.4535 35.2283 10.0947C35.394 9.9499 34.7381 10.3848 34.9791 10.1971C35.112 10.0987 38.3944 7.79548 37.4019 8.6174C37.5105 8.53829 37.6167 8.46075 37.724 8.38231C37.7757 8.21818 38.3278 7.86129 38.3273 7.98963C38.3666 7.93587 38.4022 7.8846 38.4432 7.82949C38.535 7.74268 38.6495 7.65018 38.8112 7.52863C38.99 7.3406 40.8249 6.297 40.8533 5.86403C39.5719 5.89722 38.3492 6.10229 38.222 6.11555C38.2193 6.14098 38.2166 6.16642 38.2139 6.19186C39.1189 6.07822 40.7833 5.94071 40.8898 5.91524C40.0622 6.53876 39.2039 7.16197 38.2615 7.77815C38.3265 7.76104 38.3958 7.7409 38.4625 7.72247C37.7104 8.2118 36.9507 8.69779 36.1951 9.17749C36.9501 8.60782 38.1736 7.71641 39.0051 7.16535C39.1511 7.06882 39.0656 7.16981 39.1011 7.14932C39.1952 7.09453 39.2537 6.98403 39.5601 6.75554C39.8669 6.52939 40.655 5.9869 40.7293 5.93263C40.9553 5.65389 40.8734 6.17119 40.5172 6.09541C40.148 6.11935 40.3931 6.06273 40.3187 6.06717C40.0088 6.08788 39.7322 6.13767 39.4853 6.16187C39.1187 6.19729 38.3606 6.21978 38.1178 6.35509C38.3744 6.32733 38.6427 6.29875 38.8969 6.27302C37.501 6.47971 36.3701 6.50138 35.0051 6.79008C34.7106 6.95662 35.8423 6.78487 34.8904 6.9689C35.0647 6.94321 35.2377 6.91778 35.4169 6.89157C35.4549 6.85995 35.4926 6.82838 35.5301 6.79684C35.8283 6.77521 36.1397 6.75203 36.4441 6.73016C36.3507 6.7191 36.2654 6.70699 36.1769 6.69533C37.2416 6.53375 38.3335 6.37007 38.7193 6.45017C38.7381 6.4173 38.7568 6.38445 38.7752 6.35163C39.7867 6.24736 41.2117 6.05894 40.9046 6.24505C40.9302 6.17911 40.9012 6.49332 40.6791 5.8918C40.6317 5.49164 40.5438 5.92622 40.428 5.96904C40.3767 6.01262 39.4114 6.67986 39.8007 6.33121C38.8496 6.9778 39.2297 6.89239 38.9744 7.08469C38.3311 7.44874 37.3112 8.301 37.6945 7.88329C37.6047 7.9403 37.5089 8.00139 37.4165 8.06002C37.1774 8.3448 36.8226 8.45664 36.4781 8.64957C36.3707 8.72095 36.253 8.79931 36.1468 8.86972C36.0934 8.94614 36.0388 9.02339 35.9828 9.10149C34.8642 9.67986 35.4351 9.80417 34.7583 9.83315C34.821 9.76445 34.8828 9.69637 34.9437 9.62893C35.1077 9.50465 35.2834 9.37217 35.4461 9.24844C34.7415 9.71952 34.0332 10.19 33.3237 10.6602C32.3753 11.1827 31.9287 11.6164 30.8907 12.223C30.8019 12.2946 30.7157 12.3644 30.6282 12.4351C30.6769 12.3043 31.0448 12.0699 30.3524 12.4943C30.2636 12.4852 30.711 12.1736 30.9444 12.0688C31.0003 12.0439 30.5996 12.368 31.0783 12.0459C31.4023 11.828 30.7759 12.169 31.7603 11.5334C31.7168 11.5459 31.6732 11.5585 31.6296 11.5711C31.7341 11.5009 31.8403 11.4294 31.9462 11.3582C32.0583 11.3214 32.1697 11.285 32.2805 11.2491C32.4959 11.0466 32.5943 10.9009 33.1503 10.5404C33.0141 10.6574 33.2508 10.5754 33.5234 10.3889C33.5102 10.3695 33.497 10.3501 33.4839 10.3307C34.1316 9.87229 33.944 10.083 34.4597 9.6668C34.5239 9.64556 34.5886 9.62399 34.655 9.60129C34.9093 9.33546 35.972 8.54333 35.8383 8.77457C36.0756 8.47605 36.754 8.06905 37.0386 7.98013C37.044 7.94802 37.0494 7.91599 37.0546 7.88404C37.1789 7.79197 37.3031 7.69977 37.4258 7.60843C37.502 7.57249 37.5841 7.53234 37.6618 7.49515C37.7411 7.42249 37.8257 7.34605 37.9053 7.27294C37.9708 7.2555 38.0405 7.23505 38.1077 7.21632C38.2323 7.09432 38.3612 6.96901 38.4882 6.84451C38.5837 6.79965 38.6844 6.75082 38.7817 6.70421C38.7647 6.65779 39.6135 6.03226 39.8679 5.88013C39.928 5.81774 39.9917 5.75243 40.0537 5.68824C40.102 5.68102 40.1512 5.67308 40.1994 5.66595C40.2422 5.61075 40.2862 5.55466 40.3305 5.49889C40.6964 5.59759 39.6907 4.52773 40.8099 6.53923C40.732 6.67438 40.3766 6.57928 40.3024 6.59067C40.0507 6.6099 39.1898 6.77816 39.0345 6.79404C38.8879 6.80781 38.8157 6.77549 38.6915 6.78684C36.7177 6.97052 37.5412 6.97974 37.1498 7.0474C36.933 7.08552 36.7838 7.06696 36.5939 7.09658C36.2693 7.1464 34.6571 7.41701 34.5536 7.42664C34.4188 7.43801 34.7116 7.21648 34.2797 7.32265C34.2779 7.42012 33.3177 7.45471 33.7759 7.52703C33.3887 7.5687 32.994 7.61164 32.6007 7.65457C32.6585 7.76191 32.1747 7.75512 31.6431 7.83608C30.9078 7.94793 29.2407 8.25973 29.2852 8.13514C29.1093 8.1873 28.9356 8.23917 28.7626 8.29097C27.5361 8.42806 26.3521 8.63674 25.1416 8.8128C21.5563 9.33454 17.6618 9.88162 14.0942 10.4029C13.9234 10.4278 13.9423 10.3862 13.8199 10.4041C13.1638 10.4998 11.4976 10.7849 10.5822 10.9216C10.2975 10.9639 10.1423 10.9508 10.051 10.9636C9.73754 11.0074 9.81986 11.0442 9.67775 11.0655C9.4432 11.1004 8.25489 11.2467 7.82818 11.3134C7.62531 11.3447 7.38944 11.4238 7.14749 11.4526C7.12684 11.4551 7.1579 11.4089 7.14044 11.4112C6.70929 11.4795 6.97942 11.4689 6.82772 11.493C5.77216 11.662 4.6503 11.8558 3.55041 12.0918C3.27696 12.1504 2.86451 12.2241 2.67072 12.2864C2.60119 12.3098 2.70179 12.3014 2.51502 12.3727C2.48408 12.263 2.39761 12.9129 2.72912 11.7715C1.93362 10.564 2.963 11.4251 3.24246 11.4199C4.13899 11.5535 5.71411 11.8324 6.52498 12.0237C6.71771 12.0681 6.80505 12.1128 6.98843 12.1563C7.11776 12.187 7.35451 12.2073 7.55684 12.2578C7.75845 12.308 8.06827 12.4228 8.45458 12.5256C8.8613 12.6332 9.37224 12.7579 9.4604 12.7836C9.56961 12.8149 9.60813 12.8716 9.71769 12.9027C10.0491 12.9964 10.945 13.2165 11.3719 13.3445C11.8305 13.4809 12.098 13.5897 12.254 13.6397C12.3985 13.6858 12.5784 13.7062 12.6446 13.7279C12.7473 13.7614 12.7579 13.8104 12.8881 13.8539C13.1008 13.925 13.3288 13.9742 13.6471 14.087C19.4045 16.0878 24.4002 19.9716 28.2795 24.1083C28.4682 24.2983 28.8569 24.5797 28.7249 24.501C28.8481 24.1946 27.3955 25.3525 27.7402 25.3514C27.7654 25.4295 27.7407 25.3548 27.7284 25.3248C27.701 25.2535 27.6715 25.1766 27.6404 25.0952C27.5776 24.9305 27.5063 24.7408 27.4253 24.5167C27.2939 24.1524 27.3928 24.2888 27.2788 24.0083C27.2283 23.884 27.2072 23.9279 27.146 23.7677C26.8755 23.062 26.6148 22.2151 26.5101 21.9037C26.4681 21.7796 26.3829 21.6517 26.2988 21.3962C25.6704 19.4961 25.0875 17.2039 24.669 15.0971C24.4424 13.984 24.1448 12.2814 23.9986 10.9814C23.7866 9.18889 23.6872 7.3047 23.618 5.50911C23.5758 4.62173 23.5365 3.71554 23.3808 3.00188C23.2304 2.52978 23.4211 2.93922 23.8289 2.77463C23.7926 2.78266 23.5025 3.12635 23.3164 3.44113C21.0236 7.54336 19.3139 12.2198 17.6322 16.7494C18.4733 14.6391 19.5795 11.7468 20.5728 9.42228C21.2896 7.74736 22.0407 6.03477 22.8841 4.42211C23.0184 3.64077 24.994 2.75635 23.2349 2.77061C23.1723 2.62109 23.4801 4.07683 23.4918 4.90419C23.6278 8.67545 23.9861 12.6617 24.8318 16.3797C25.3857 18.9803 26.401 22.224 27.4272 24.9121C27.4503 24.9746 27.4916 25.0628 27.5398 25.171C27.5635 25.2241 27.5889 25.282 27.6132 25.3409C27.892 25.1881 26.5946 26.4168 28.3167 24.3513C29.6894 24.6316 28.3155 24.0412 28.3081 23.8859C28.4072 24.1175 27.778 23.3948 27.5618 23.1828C27.2884 22.9192 26.6934 22.3985 26.0785 21.7477C25.5221 21.1591 25.7061 21.2883 25.6764 21.2554C25.4845 21.0432 25.3699 21.0162 25.2084 20.865C24.6492 20.1577 20.7704 17.211 19.5729 16.6699C19.274 16.5046 19.2839 16.4669 19.2163 16.4301C19.0366 16.3331 18.7639 16.2322 18.4747 16.0836C17.9548 15.8154 17.3666 15.4892 17.078 15.3517C16.3948 15.0211 15.0184 14.4445 14.0713 14.1085C13.8061 14.0113 13.8358 13.9796 13.7154 13.9364C13.1851 13.7426 11.7861 13.3361 11.1259 13.1394C10.0535 12.8158 8.9585 12.4671 7.84262 12.1953C7.77715 12.1598 7.71058 12.1242 7.64479 12.0889C7.52897 12.0793 7.41317 12.0701 7.29714 12.0612C6.35761 11.823 5.39948 11.6215 4.43639 11.4502C3.4969 11.6648 2.31164 9.47495 2.70587 12.4401C2.84543 12.381 3.87155 12.1791 4.04662 12.1471C4.1937 12.1165 4.32325 12.0442 4.53796 12.0087C4.83364 11.9606 4.5812 12.0958 5.05923 11.9802C5.191 11.9488 5.05224 11.9372 5.32446 11.8752C5.39651 11.8551 7.13397 11.5354 7.22083 11.5253C7.37624 11.5034 7.53589 11.5562 7.57232 11.5518C7.77675 11.5266 7.75894 11.4685 7.89761 11.4399C8.31727 11.3535 8.85202 11.3076 8.92203 11.2954C9.72642 11.153 11.2344 10.8659 12.0968 10.7611C12.2139 10.7469 12.2069 10.7934 12.2277 10.7917C12.3616 10.7803 12.4366 10.717 12.5638 10.6961C13.2507 10.5838 14.3254 10.4542 15.0141 10.3587C15.0933 10.3477 15.2568 10.298 15.3993 10.2789C16.2034 10.1713 15.9472 10.25 15.9934 10.2447C16.1017 10.2326 16.2846 10.1611 16.5732 10.1151C17.3078 9.9973 18.7291 9.79194 19.5235 9.6781C20.1171 9.5931 20.116 9.6437 20.1551 9.63892C20.2387 9.62841 20.4647 9.5549 20.855 9.493C21.6064 9.37372 21.5265 9.42509 21.8357 9.37812C21.8617 9.37432 21.811 9.34301 22.1536 9.28897C22.8162 9.18436 24.3108 9.00537 25.0218 8.90088C25.2941 8.86087 25.3526 8.81513 25.6332 8.77401C26.0764 8.70884 27.084 8.60473 27.1609 8.59367C27.1828 8.59053 27.226 8.54144 27.3573 8.52267C27.5013 8.50207 27.6455 8.50357 27.7519 8.48822C28.3536 8.40165 29.3958 8.17884 29.1245 8.3705C29.3161 8.3055 29.5061 8.24076 29.6943 8.1763C30.9695 8.00333 32.2035 7.8149 33.4637 7.6324C33.7476 7.59132 33.985 7.58747 34.2274 7.55264C34.4618 7.51872 35.519 7.32602 35.6915 7.30192C36.007 7.25662 37.7932 7.01431 38.0146 6.99087C38.4401 6.94286 38.8806 6.95217 39.047 6.92016C39.1896 6.89335 39.0593 6.87293 39.3187 6.83276C39.7827 6.7594 40.5655 6.73392 40.6712 6.73466C40.6959 6.7336 40.6829 6.72696 40.7258 6.7186C40.7461 6.71456 40.7793 6.71003 40.8204 6.70808C41.0268 6.4436 40.2481 7.86948 40.3773 5.35866C40.5014 5.23421 40.0713 5.53856 40.0334 5.56343C40.0051 5.58428 40.0777 5.59426 39.584 5.95114C39.2455 6.19436 39.0742 6.26997 39.0399 6.29473C38.985 6.33406 38.8812 6.45891 38.6606 6.6146C38.1494 6.97602 37.1867 7.59218 36.6936 7.92877C36.5964 7.99519 36.6616 8.00989 36.2761 8.27048C36.0079 8.45147 36.0278 8.39042 35.9262 8.45847C35.7676 8.56467 35.5535 8.76969 35.195 9.01321C34.7494 9.31902 31.3758 11.5479 31.1954 11.6534C31.0737 11.7254 30.9398 11.8153 30.87 11.837C30.9081 11.7868 30.9461 11.7366 30.984 11.6865C31.5361 11.3987 31.2847 11.4707 31.4174 11.3746C31.6068 11.2374 32.3607 10.7391 32.5268 10.6047C32.5868 10.5561 32.4151 10.6203 32.7484 10.3673C33.1008 10.0995 33.3122 10.0489 33.3969 9.86417C33.9876 9.60394 34.4183 9.16033 33.7934 9.54576C33.4489 9.75962 30.1058 11.9735 29.4221 12.4273C28.8703 12.7942 27.8563 13.5176 27.1753 13.9687C26.7753 14.2334 25.7926 14.8922 25.8026 14.8179C25.4458 15.0511 25.8505 14.8443 25.7807 14.9008C25.6352 15.0188 24.5118 15.7339 24.3044 15.8767C23.2796 16.5809 22.0195 17.5141 20.9817 18.1394C21.0196 18.0953 21.0577 18.0511 21.0959 18.0068C21.3046 17.8303 22.3678 17.1523 22.4436 17.0139C20.9259 18.0569 19.3877 19.0638 17.872 20.1866C17.9294 20.2126 16.0783 21.6325 15.9826 21.6848C15.9974 21.6349 16.0093 21.5875 16.0227 21.539C17.1271 20.81 16.9412 20.774 17.7023 20.297C17.9928 20.0804 17.8812 20.1032 18.0151 19.9917C19.3858 18.8834 18.0909 20.0482 19.1703 19.241C18.7944 19.4146 19.6903 18.7635 20.0843 18.4823C20.1738 18.4179 21.3831 17.6113 21.5262 17.5127C22.3239 16.9598 23.6773 15.9925 24.4958 15.4845C25.1269 15.0621 25.4426 14.7872 26.0062 14.3914C26.4336 14.0913 26.3296 14.2047 26.5335 14.0672C26.9612 13.7789 27.0412 13.5942 27.3992 13.5342C27.6777 13.3231 27.957 13.1116 28.2361 12.9001C28.2493 12.9195 28.2624 12.9389 28.2755 12.9584C28.4581 12.8349 28.638 12.7132 28.821 12.5895C28.8616 12.5338 28.9021 12.4783 28.9425 12.4227C29.5358 12.0602 29.3283 12.2686 29.4731 12.2508C29.6006 12.1701 29.7276 12.0897 29.8539 12.0098C29.9225 11.9018 29.9908 11.7942 30.0587 11.6868C30.6166 11.3144 31.1751 10.9414 31.7338 10.5679C31.7826 10.563 31.8309 10.5586 31.8801 10.5534C31.8682 10.5333 31.8562 10.5132 31.8443 10.493C32.7863 9.84884 33.7147 9.21301 34.6555 8.56382C34.8828 8.36355 33.367 9.36326 33.2488 9.44026C32.6069 9.86208 30.9434 11.034 30.8936 10.967C30.5337 11.2858 29.3337 12.0788 28.9224 12.2669C29.4868 11.8907 30.0506 11.5148 30.6156 11.1378C30.5819 11.1269 30.5482 11.116 30.5144 11.1052C31.2782 10.7242 31.3736 10.6522 32.0354 10.0751C32.0571 10.1056 32.0788 10.1361 32.1004 10.1667C32.529 9.71902 33.5382 9.30002 33.4714 9.15096C33.7433 8.98171 34.0185 8.80997 34.2916 8.63924C34.8523 8.23089 33.8985 8.74131 36.1592 7.24112C36.3168 7.13604 36.3025 7.19584 36.5354 7.03073C36.5993 6.98489 36.9496 6.67109 37.6729 6.16816C37.7843 6.09059 37.8154 6.11216 37.9332 6.03408C38.2078 5.85293 38.6956 5.41438 38.5219 5.68074C39.585 4.95041 39.0926 5.18879 39.3928 4.92019C39.5934 4.73913 39.5898 4.82507 39.7892 4.65907C39.8365 4.66961 40.1912 4.08315 39.4592 5.03144C39.3195 5.15422 39.0088 6.45084 39.7376 7.13151C40.2642 7.62957 40.4569 7.57521 40.5853 7.62765C40.7954 7.67532 40.8021 7.66211 40.7953 7.66577C40.7678 7.66689 40.5952 7.6709 40.3338 7.68611C40.452 7.67123 40.566 7.65806 40.6613 7.6486C40.6094 7.63266 40.5581 7.61736 40.4988 7.60308C39.9158 7.69545 39.946 7.63334 39.6588 7.76845C39.1871 7.77432 38.7741 7.82093 38.1244 7.91233C36.8461 8.09457 37.5282 8.11805 36.0467 8.16435C35.8116 8.21758 35.5855 8.26976 35.3458 8.32394C34.9585 8.33183 35.2667 8.23313 34.6765 8.30281C35.1487 8.34922 33.9134 8.47864 33.7266 8.60399C33.7018 8.58377 33.677 8.56356 33.652 8.54335C33.5231 8.56123 33.3883 8.57995 33.26 8.59778C33.2622 8.61646 33.2644 8.63513 33.2666 8.6538C33.0957 8.66334 32.9222 8.67329 32.7461 8.68364C32.6171 8.72044 32.4891 8.75712 32.3642 8.7934C32.1482 8.78392 31.9265 8.77527 31.7057 8.76655C31.5737 8.78236 31.4405 8.79836 31.3061 8.81454C31.3524 8.8363 31.3986 8.85808 31.4447 8.87987C31.2721 8.89467 31.0976 8.90976 30.9213 8.92514C31.131 8.94202 31.0099 9.01337 30.4768 9.08718C30.0342 9.14858 30.5136 8.98386 29.5738 9.15721C29.5078 9.16948 29.3993 9.2537 28.5023 9.39206C27.4267 9.55816 27.9437 9.43449 27.7512 9.46021C27.714 9.46525 27.3862 9.54684 27.0813 9.5955C26.9074 9.62324 26.7345 9.61998 26.7114 9.62337C26.6033 9.64016 26.5772 9.68361 26.427 9.70662C26.0514 9.76396 25.5343 9.81896 25.1653 9.87422C24.9968 9.8994 24.8409 9.94546 24.7653 9.95667C24.6481 9.97389 24.4938 9.96028 24.3762 9.97745C23.9409 10.0412 23.2935 10.2545 23.0676 10.1218C22.6692 10.3321 21.7637 10.2803 21.8426 10.3709C20.7152 10.4966 17.7415 11.0632 17.8059 10.8824C17.1923 11.1209 17.2325 11.0086 16.9678 11.0505C16.6717 11.0973 16.8308 11.1019 16.5929 11.1364C16.0392 11.2166 15.5094 11.2844 14.9634 11.3667C15.0454 11.3307 15.1277 11.2947 15.2102 11.2587C14.6365 11.3382 14.8383 11.3622 14.2535 11.462C13.1778 11.6458 13.6237 11.534 13.4556 11.498C13.5075 11.5494 12.2343 11.7368 12.1038 11.7495C12.0262 11.7569 12.3502 11.6293 11.5758 11.7751C11.6217 11.7915 11.6677 11.808 11.7138 11.8244C11.3589 11.8473 10.3994 12.0399 10.2321 12.0588C10.1554 12.0673 9.72889 11.9446 9.38202 12.1515C9.33408 12.1356 9.28633 12.1197 9.23878 12.1037C8.84258 12.1963 8.44097 12.2904 8.0332 12.3865C7.96136 12.3558 7.89006 12.325 7.81933 12.2942C7.69435 12.315 7.56224 12.3372 7.43173 12.3592C7.52359 12.3816 7.6214 12.403 7.71084 12.4259C6.90064 12.5438 5.96481 12.7696 5.77042 12.6774C5.60548 12.7311 5.44803 12.7837 5.28113 12.8388C5.16307 12.8182 5.05674 12.7957 4.93389 12.7766C4.17014 12.9363 4.15992 12.9682 3.67588 13.1228C3.68925 13.0862 3.69991 13.0502 3.71121 13.0141C3.5318 13.0785 3.27472 13.1621 3.06635 13.2424C2.97938 13.2729 2.82376 13.3564 2.99439 13.2769C3.05405 13.2344 3.12651 13.2487 3.41936 12.9166C3.85075 12.7475 3.72689 10.6981 3.283 10.5825C2.70057 10.1038 2.80009 10.2875 2.76374 10.247C2.76063 10.2511 3.27671 10.3909 3.32794 10.3937C3.38654 10.3988 4.08063 10.3355 4.12963 10.501C5.12563 10.6098 5.5411 10.7721 5.93708 10.8539C6.19409 10.908 6.31922 10.8977 6.60936 10.9596C7.02536 11.0484 7.43567 11.1663 7.67391 11.2231C7.81011 11.2554 7.84427 11.2271 7.93813 11.2497C8.38172 11.3576 8.11396 11.3258 8.57942 11.4462C8.6227 11.4573 8.97216 11.5049 9.35525 11.6185C9.56993 11.6816 10.0915 11.8838 10.1402 11.8979C10.3526 11.9592 10.2104 11.8132 10.9024 12.1371C10.8867 12.1129 10.871 12.0887 10.8553 12.0645C11.7661 12.2871 11.8847 12.4157 12.0643 12.4775C12.0873 12.4852 12.3162 12.5237 12.446 12.5701C12.6654 12.6486 12.7411 12.7202 12.7895 12.7381C12.9601 12.8007 13.5495 12.9776 13.9166 13.1544C13.8773 13.0027 15.2378 13.4586 15.4827 13.7213C15.7292 13.7923 15.9873 13.872 16.2369 13.9531C16.3354 14.0229 16.4276 14.0912 16.5175 14.1585C16.5881 14.1653 16.6588 14.1723 16.7296 14.1794C17.0326 14.3767 17.3397 14.5784 17.6408 14.7807C17.6839 14.7443 17.7271 14.7079 17.7703 14.6716C17.8591 14.721 17.9471 14.7704 18.0359 14.8204C18.0892 14.892 18.1422 14.9638 18.1948 15.0355C18.3115 15.0845 18.4293 15.1347 18.546 15.1847C18.5873 15.1724 18.629 15.1603 18.6706 15.1481C19.2978 15.4332 18.8527 15.5054 20.1288 15.9216C20.2978 16.0425 20.4656 16.1648 20.6324 16.2888C20.8919 16.3077 21.2352 16.5923 21.5436 16.7712C21.7613 16.8978 21.7741 16.8514 22.0634 17.0391C22.3521 17.2282 22.3171 17.2589 22.3393 17.2738C22.5709 17.4337 22.7672 17.5251 22.9318 17.6524C22.9565 17.6717 22.9908 17.7581 23.2017 17.918C23.4122 18.0788 23.5736 18.1312 23.8783 18.3864C24.034 18.5176 24.0522 18.5884 24.1887 18.7064C24.8324 19.2596 25.6429 19.7459 25.8618 20.3312C25.9796 20.4013 26.7496 21.0036 27.0383 21.3C27.4872 21.761 27.276 21.6229 27.4501 21.8089C27.4761 21.8365 27.6259 21.9618 28.004 22.3393C28.0729 22.408 28.0767 22.3713 28.0868 22.3808C28.3071 22.5979 28.6296 22.9237 28.9451 23.2297C29.099 23.3791 29.264 23.534 29.3616 23.6174C29.3076 23.6283 29.8544 23.7917 28.8815 23.4273C28.7042 23.415 28.0697 23.1193 27.1764 23.9193C26.4496 24.7351 26.6737 25.3198 26.6654 25.4414C26.7314 25.7965 26.7488 25.7377 26.7445 25.7444C26.7299 25.7033 26.7154 25.663 26.7016 25.6252C26.6833 25.574 26.4975 25.309 26.4021 24.7518C26.0353 24.011 25.6602 22.4798 25.2087 21.4511C25.1592 21.3049 25.1319 21.122 25.1107 21.0571C24.931 20.4971 24.8981 20.7267 24.6626 19.4167C24.6486 19.5318 24.526 19.2438 24.4177 18.8193C24.2568 18.181 24.4535 18.6131 24.3175 18.1025C24.2949 18.1082 24.2722 18.1138 24.2496 18.1195C24.021 16.9235 23.8708 16.7105 23.6253 15.5141C23.5378 15.0827 23.4721 14.4379 23.4544 14.3356C23.4469 14.2968 23.3084 13.8289 23.3009 13.7842C23.2564 13.5291 23.2587 13.3801 23.2243 13.1593C23.1093 12.429 22.9275 11.5609 23.0795 11.7028C23.0262 11.5053 22.9739 11.3059 22.923 11.1076C22.977 10.3295 22.7338 9.77853 22.8572 9.60675C22.817 9.47269 22.7773 9.3386 22.7381 9.20536C22.6084 7.57909 22.5897 5.90323 22.4956 4.43786C22.6377 3.90908 21.5388 2.15654 22.8426 3.65104C25.4008 4.18139 24.3508 3.36352 24.3947 3.70463C24.2486 3.89902 24.0355 4.25925 23.8695 4.55881C23.8618 4.65045 23.2475 5.82106 23.2155 5.88182C23.0487 6.15504 23.1076 5.80552 22.8492 6.40127C22.856 6.48626 22.8655 6.56577 22.8737 6.6483C22.5414 7.39684 22.6716 7.01713 22.5105 7.30016C22.4593 7.42562 22.5061 7.40185 22.4344 7.56665C22.0375 8.47012 21.2391 10.354 20.8337 11.369C20.7517 11.5729 20.7357 11.5306 20.71 11.5939C20.6399 11.7683 20.5375 12.1273 20.3986 12.4784C19.5376 14.6436 18.3655 17.7615 17.6667 19.9375C17.6189 20.0857 17.5772 20.0971 17.5448 20.1981C17.5006 20.3354 17.4331 20.6702 17.3862 20.8191C17.3426 20.9578 17.288 21.045 17.2403 21.197C17.022 21.8903 16.7999 22.8381 16.5154 23.5638C16.4902 23.6269 16.1363 24.3698 16.1242 24.3807C16.0417 24.47 16.1343 23.7549 15.7563 24.8709C15.9521 23.8372 15.7329 24.1199 15.3419 25.4273C15.4877 24.7607 15.6492 24.0921 15.8171 23.4184C15.8025 23.4133 15.7879 23.4083 15.7734 23.4032C15.5335 23.9923 15.3426 24.5888 15.1126 25.5079C15.1054 25.477 15.0984 25.4452 15.0917 25.4127C15.2198 24.5807 15.4759 23.5907 15.5564 22.9394C15.2336 23.8344 14.9163 24.7304 14.6314 25.6329C14.6317 25.5819 14.6305 25.5376 14.6307 25.4882C14.7044 25.0422 14.9389 24.0753 15.0126 23.7023C15.2902 22.2806 14.6109 24.9051 14.6663 24.4597C15.0529 22.9823 15.479 21.5107 15.914 20.0417C15.8663 19.9749 14.163 25.6062 14.0826 25.5333C14.1826 25.0598 14.2925 24.5902 14.4058 24.1218C14.318 24.3149 14.2274 24.5229 14.141 24.719C14.1455 24.6551 14.1476 24.6009 14.1517 24.5391C14.3271 23.7424 14.5164 22.9487 14.7111 22.1556C14.3872 23.3555 14.1579 24.2295 13.9597 24.8743C13.8607 25.1968 13.7693 25.4628 13.6783 25.6842C13.6332 25.7935 13.588 25.8924 13.5419 25.9839C13.5197 26.0254 13.4955 26.0736 13.4725 26.1129C13.4607 26.1338 13.4491 26.1534 13.4371 26.1741C13.4315 26.1822 13.4251 26.1946 13.4203 26.1971C13.4191 26.1979 13.4179 26.1983 13.4177 26.1934C13.7847 26.2305 11.852 26.0184 14.6026 26.0556C14.7422 26.6117 14.6456 26.2407 14.6666 26.3052C14.6658 26.2949 14.6728 26.3772 14.664 26.2459C14.653 26.2108 14.6896 26.2069 14.5775 25.991C14.2015 25.2868 13.2643 26.1862 13.43 26.1059C13.3965 26.2115 13.4113 26.1729 13.4074 26.1848C13.4056 26.1927 13.405 26.1946 13.4047 26.195C13.4039 26.1947 13.4051 26.1822 13.4054 26.1754C13.4064 26.159 13.408 26.1398 13.4095 26.121C13.4127 26.0835 13.4156 26.0485 13.419 26.012C13.6866 25.4751 14.2728 23.0283 14.616 21.7169C14.4883 21.9732 14.2097 23.121 14.1147 23.3582C14.0874 23.4252 14.1185 23.1736 14.0571 23.33C13.8932 23.7293 13.3847 25.5116 13.3945 25.2398C13.3856 25.0492 14.1007 22.1746 14.2717 21.6189C13.8384 22.9033 13.4444 24.2269 13.0565 25.5814C13.1412 24.681 13.1941 23.9138 13.6075 22.3961C13.6713 21.9164 12.7298 25.1128 12.6935 25.211C12.7944 24.6206 12.9068 24.0461 13.0211 23.4799C12.904 23.956 12.7897 24.4351 12.6819 24.9238C12.6702 24.9224 12.6585 24.9211 12.6468 24.9197C12.8988 23.6489 13.1111 22.5139 13.5129 21.1297C13.4404 21.1565 13.2111 21.9851 13.098 22.3936ZM23.939 15.6907C23.8863 15.6643 24.3243 15.3772 24.569 15.2124C24.5271 15.2296 24.4851 15.2467 24.4432 15.2639C24.9699 14.9182 25.9502 14.2782 25.9302 14.1714C26.2947 13.9096 26.1791 14.0926 26.3044 14.0197C26.3536 13.9912 26.8099 13.6214 27.2326 13.4097C27.3246 13.3471 27.4165 13.2847 27.5084 13.2222C27.508 13.183 27.5075 13.1438 27.5071 13.1046C27.6581 13.0504 27.8089 12.9964 27.9594 12.9425C26.6201 13.8568 25.2813 14.771 23.941 15.6893C23.9403 15.6897 23.9397 15.6902 23.939 15.6907ZM37.2557 6.57841C37.7464 6.25808 38.4863 5.76494 38.2877 5.79667C37.9933 6.01323 37.6959 6.22948 37.395 6.44665C37.3498 6.48979 37.3034 6.53371 37.2557 6.57841ZM17.5409 14.8255C17.9584 15.125 18.412 15.26 19.1068 15.6404C19.1145 15.6234 19.1222 15.6064 19.13 15.5895C18.8226 15.4775 18.0743 15.0657 17.5409 14.8255ZM12.3126 25.3323C12.2315 25.4364 12.1522 25.5438 12.0755 25.6542C12.2854 25.141 12.4053 25.1 12.7652 24.6481C12.7873 24.6209 12.762 24.6154 12.7699 24.6059C12.8597 24.4978 12.9672 24.4181 13.0484 24.328C13.2109 24.1492 13.3204 23.9903 13.6135 23.7024C13.843 23.4793 13.8719 23.5153 13.9525 23.4372C14.0181 23.37 14.6172 22.6618 15.0958 22.3324C15.9921 21.6663 12.4833 24.8152 12.3126 25.3323ZM11.1659 29.0515C11.1662 28.9408 11.1673 28.8273 11.1697 28.7111C11.2332 29.0574 11.2172 28.3719 11.2885 27.795C11.334 27.8307 11.2447 28.98 11.2762 29.4025C11.2392 29.2887 11.2021 29.1719 11.1659 29.0515ZM20.4061 18.5764C20.0728 18.8134 20.0805 18.71 20.0816 18.68C20.1906 18.605 20.2983 18.531 20.4054 18.4575C20.4056 18.4972 20.4058 18.5368 20.4061 18.5764ZM17.8651 20.4016C17.9406 20.2747 18.6507 19.7187 19.007 19.4737C19.0226 19.4629 18.9421 19.5552 19.1904 19.3799C19.2682 19.3248 19.939 18.729 19.8484 18.9427C19.1861 19.4178 18.5145 19.8886 17.8661 20.4008C17.8657 20.4011 17.8654 20.4013 17.8651 20.4016ZM17.1112 20.9322C17.2407 20.8112 17.3597 20.6989 17.4901 20.5786C17.5784 20.5441 17.6644 20.5115 17.75 20.4794C17.6017 20.5992 17.4411 20.7289 17.2934 20.8498C17.2339 20.8762 17.1725 20.9042 17.1112 20.9322ZM22.516 5.79783C22.5568 5.7766 22.5988 5.75305 22.6405 5.73025C22.7203 5.60084 22.9298 4.91254 22.8085 5.10297C22.7081 5.33534 22.6133 5.56204 22.516 5.79783ZM21.2016 8.55675C21.1286 8.69073 21.0559 8.82466 20.984 8.95756C20.959 9.13511 20.9326 9.31705 20.9089 9.49353C21.2321 8.80713 21.5864 8.09032 21.4086 8.15239C21.4786 7.99245 21.5476 7.83568 21.6172 7.67915C21.6108 7.83463 21.6352 7.82366 21.8529 7.4259C21.8207 7.3038 22.0461 6.89938 22.2574 6.40561C22.0891 6.75531 21.9233 7.1079 21.7618 7.4573C21.749 7.45158 21.7362 7.44586 21.7235 7.44014C22.0814 6.6579 21.559 7.59606 21.3836 8.13883C21.3485 8.17249 21.3132 8.20678 21.2787 8.23944C21.2531 8.34453 21.2274 8.45031 21.2016 8.55675ZM4.0873 12.3868C3.97605 12.3956 3.88381 12.4008 3.77098 12.4111C3.41364 12.6782 4.17982 12.3281 4.79774 12.3591C4.57996 12.2881 5.48985 12.1205 5.53369 12.1061C5.42486 12.0883 5.31651 12.0705 5.20212 12.0541C4.8308 12.1613 4.44923 12.2731 4.0873 12.3868ZM3.20897 11.0995C2.84442 10.9451 4.70645 11.2516 5.32622 11.4078C5.47719 11.4435 5.73645 11.5495 5.84618 11.5667C5.91622 11.5628 5.98624 11.5591 6.05626 11.5554C6.12129 11.6327 7.34602 11.8411 7.82751 11.9319C7.86658 11.966 7.9049 11.9999 7.94369 12.034C8.11875 12.0695 8.29263 12.1056 8.46722 12.1427C8.43968 12.1594 8.41209 12.1762 8.3844 12.1929C8.52151 12.2004 8.65861 12.2085 8.79601 12.2171C9.31561 12.3283 8.96789 12.3633 9.35874 12.4327C9.79081 12.5105 9.12262 12.2411 9.14693 12.1975C8.79557 12.111 8.00121 11.9291 7.64705 11.843C7.44342 11.7938 7.69573 11.7603 6.79417 11.6504C6.60713 11.5824 6.41964 11.5154 6.23093 11.4492C5.86794 11.407 5.50426 11.3685 5.14085 11.334C5.08113 11.2887 5.02049 11.2434 4.96039 11.1984C4.92316 11.1844 4.08264 11.1032 4.12248 11.1365C3.83315 11.0157 2.94276 10.8803 2.59516 10.7816C2.59503 10.8161 2.53445 10.7279 2.85931 11.0213C2.25725 10.5464 2.69004 10.921 2.67859 10.9123C2.75235 10.951 3.08281 11.0492 3.20897 11.0995ZM23.0245 2.91914C22.5592 2.86886 24.6345 2.87111 23.8695 3.22581C23.9393 3.2044 24.0022 3.19468 24.063 3.19043C24.4412 3.01975 22.9529 3.29673 22.9241 2.87432C22.8927 2.78424 22.9962 3.01165 23.0247 2.91978C23.0247 2.91957 23.0246 2.91935 23.0245 2.91914ZM19.6604 12.6378C19.8792 12.0129 19.6951 12.2972 19.9878 11.5096C19.988 11.5093 19.9881 11.5089 19.9883 11.5085C19.8216 11.9105 19.6575 12.3116 19.4948 12.7143C19.55 12.6888 19.6052 12.6633 19.6604 12.6378ZM26.7805 21.9879C26.3395 21.5238 26.4066 21.6365 26.04 21.1801C25.3686 20.6258 25.8971 21.1344 25.8461 21.1854C26.0029 21.3112 26.1582 21.4357 26.3123 21.5591C26.6064 21.9465 26.2582 21.6483 26.2535 21.6528C26.2538 21.6531 26.2541 21.6534 26.2544 21.6536C26.239 21.6689 26.2252 21.6616 26.347 21.8011C26.4907 21.8626 26.6376 21.9273 26.7805 21.9879ZM24.7522 20.1092C24.952 20.2344 25.0798 20.2643 24.645 19.8177C24.6447 19.8174 24.6443 19.8171 24.644 19.8168C24.534 19.8591 24.1528 19.4013 23.9416 19.2356C23.8804 19.1992 23.8189 19.1631 23.7574 19.1274C24.0977 19.4419 24.4301 19.7693 24.7522 20.1092ZM16.2548 14.8872C16.3019 14.7787 16.751 14.9736 16.1714 14.5861C16.0469 14.5312 15.9183 14.476 15.7867 14.4208C15.6914 14.4076 15.5945 14.3942 15.5012 14.3829C13.9533 13.5357 13.3408 13.6323 16.1304 14.6755C16.1308 14.6756 16.1312 14.6757 16.1316 14.6758C16.1729 14.7463 16.2139 14.8167 16.2548 14.8872ZM18.964 16.2047C19.0123 16.16 19.0607 16.1153 19.1092 16.0707C19.3758 16.3821 19.8806 16.4894 20.4784 16.9636C20.5469 16.982 20.6149 17.0005 20.6835 17.0196C20.9191 17.1718 23.2132 18.7716 22.7709 18.3507C22.5814 18.1575 22.0731 17.8734 22.0324 17.8456C21.8959 17.7472 21.7427 17.5804 21.502 17.4292C21.363 17.3419 21.0376 17.2105 20.753 17.0394C20.1198 16.6523 19.011 15.855 18.0777 15.5727C18.0239 15.5249 17.9705 15.4776 17.9168 15.4302C17.2716 15.127 17.4612 15.2849 16.8934 14.9373C16.3585 14.9983 19.2903 16.0999 18.5996 16.0259C18.5999 16.0261 18.6003 16.0263 18.6007 16.0265C18.7221 16.0854 18.8428 16.1445 18.964 16.2047ZM25.3942 19.6345C25.4321 19.5793 25.135 18.8051 25.3087 18.9589C25.1958 18.7107 25.0848 18.4618 24.9755 18.2115C24.9645 18.2164 24.9536 18.2213 24.9427 18.2262C25.0179 18.4837 25.0948 18.7403 25.1738 18.9967C25.156 19.0026 25.1382 19.0084 25.1204 19.0143C25.2835 19.3831 25.7327 20.9935 25.6583 20.9621C25.7114 21.0381 25.7647 21.1141 25.8183 21.1901C25.9904 21.9786 26.289 22.5979 26.5134 23.4356C26.5577 23.4897 26.603 23.546 26.6474 23.5999C26.6449 23.6475 26.6424 23.6949 26.6397 23.7419C26.7457 24.037 26.8533 24.3311 26.9614 24.6241C27.39 25.5449 26.7847 23.6672 26.6943 23.4408C26.6818 23.4108 26.6381 23.4331 26.5627 23.2468C26.4235 22.9197 25.8269 21.0107 25.6257 20.42C25.6549 20.4056 25.6842 20.3912 25.7134 20.3768C25.6051 20.1303 25.4988 19.8831 25.3942 19.6345ZM12.6927 13.373C12.66 13.3277 12.6273 13.2825 12.5945 13.2373C11.842 13.0258 11.3836 12.859 11.5418 13.0203C11.5422 13.0204 11.5426 13.0206 11.543 13.0207C11.9262 13.1343 12.3094 13.2513 12.6927 13.373ZM35.187 8.64234C35.2411 8.68406 35.5547 8.49878 35.9149 8.19416C35.8853 8.19161 35.8556 8.18911 35.8259 8.18667C35.6584 8.36906 35.3464 8.46693 34.732 8.90252C34.7505 8.92953 34.7689 8.95654 34.7874 8.98355C34.9244 8.86728 35.0493 8.75926 35.187 8.64234ZM13.3273 13.6021C13.5399 13.7152 14.2128 13.8335 13.7978 13.6781C13.4801 13.56 13.2128 13.541 13.3273 13.6021ZM18.6729 15.0483C18.7388 14.8901 18.8051 14.7318 18.8714 14.5745C18.8766 14.4814 18.882 14.3881 18.8875 14.2947C18.8873 14.2951 18.8872 14.2955 18.887 14.2958C18.8147 14.547 18.7438 14.7966 18.6729 15.0483ZM28.3293 23.5032C27.9164 23.1128 27.4995 22.7051 27.0829 22.2978C27.066 22.3066 27.0491 22.3153 27.0321 22.3241C27.4938 22.6888 27.6107 22.9036 27.7027 23.0002C27.7023 22.9998 27.7019 22.9994 27.7014 22.9989C28.0027 23.3147 28.2879 23.6078 28.5629 23.8924C28.4836 23.7632 28.4091 23.6362 28.3293 23.5032ZM27.2261 24.9692C27.1834 25.0375 27.1705 25.1043 27.2168 25.2515C27.2398 25.3247 27.2776 25.4178 27.3311 25.5373C27.5917 25.4972 26.1747 25.6729 28.1659 24.05C29.4071 23.9887 28.896 24.1826 29.0144 24.1663C29.0311 24.188 28.9557 24.1448 28.8838 24.0975C28.894 24.1269 28.9063 24.1578 28.915 24.1851C28.8781 24.2189 29.4552 24.3239 28.5286 24.0901C26.3723 24.7281 27.6306 25.6971 27.4083 25.5091C27.3977 25.4829 27.3836 25.4466 27.3747 25.4226C27.3358 25.3183 27.3284 25.2723 27.3737 25.2978C27.3255 25.19 27.2761 25.0803 27.2261 24.9692ZM22.9589 18.5692C23.0273 18.6667 23.7591 19.1975 23.7328 19.1533C23.727 19.1298 22.8319 18.3683 22.9589 18.5692ZM29.8278 12.3153C29.9954 12.2133 30.1659 12.1093 30.3341 12.0068C30.1245 12.1654 29.9146 12.3241 29.7051 12.4826C29.7461 12.4268 29.787 12.371 29.8278 12.3153ZM28.135 13.6802C28.0094 13.7455 28.3234 13.3939 27.61 13.8405C28.1158 13.4955 28.6212 13.1508 29.1276 12.8053C28.8992 12.9823 28.6735 13.1575 28.4451 13.3344C28.5053 13.3337 28.5654 13.333 28.6255 13.3323C28.4614 13.4487 28.2987 13.5642 28.135 13.6802ZM27.5431 13.9786C27.8654 13.8664 26.4306 14.8451 26.2908 14.9269C26.2596 14.945 26.0804 14.9861 26.0201 15.0097C26.2374 14.8624 26.4543 14.7155 26.6715 14.5684C26.5871 14.6003 26.5027 14.6322 26.4183 14.664C26.6684 14.4861 26.9188 14.308 27.1688 14.1302C27.0719 14.2211 26.975 14.312 26.8781 14.4029C27.0998 14.2614 27.3213 14.1202 27.5431 13.9786ZM33.2981 10.0573C33.1149 10.1791 32.9328 10.3 32.75 10.4214C32.8048 10.4238 32.8594 10.4262 32.9139 10.4288C33.0219 10.3555 33.1297 10.2823 33.2396 10.2077C33.2593 10.1575 33.2788 10.1073 33.2981 10.0573ZM29.6198 12.5995C29.7975 12.2893 30.7089 12.0885 29.7964 12.5518C29.7041 12.5985 29.6032 12.6292 29.6198 12.5995ZM25.7414 15.2764C25.2401 15.7548 25.2258 15.4581 25.8011 15.158C25.8301 15.1431 25.779 15.2406 25.7414 15.2764ZM21.5084 18.1594C21.4637 18.1889 21.3328 18.1788 20.9447 18.5394C20.8675 18.5809 20.7887 18.6236 20.7115 18.6653C20.8614 18.5155 22.2871 17.5137 22.1342 17.7169C21.9158 17.8674 21.7363 18.0066 21.5084 18.1594ZM23.0763 17.4574C23.2913 17.3082 23.5066 17.1589 23.722 17.0098C23.6368 17.0366 23.55 17.0645 23.464 17.0919C23.5671 17.0133 23.6696 16.9352 23.7718 16.8572C23.9784 16.7705 24.187 16.6823 24.3931 16.596C23.9264 16.9214 23.4598 17.2473 22.9927 17.5739C23.0205 17.5351 23.0483 17.4963 23.0763 17.4574ZM28.8743 13.6041C28.438 13.8602 27.9469 14.2337 27.2662 14.6877C27.2658 14.6879 27.2654 14.688 27.2651 14.6882C27.2311 14.7107 27.1513 14.722 27.0417 14.7945C26.9482 14.8562 25.1407 16.1275 25.2499 15.9814C25.9269 15.4575 26.2376 15.3458 26.3329 15.1204C26.3832 15.1203 26.4334 15.1202 26.4836 15.1201C27.1916 14.6995 27.3311 14.4879 27.6939 14.1994C27.7043 14.2179 27.7146 14.2365 27.725 14.255C27.9813 14.0842 28.2384 13.9128 28.4944 13.7422C28.4507 13.755 28.407 13.7678 28.3632 13.7806C28.4536 13.7194 28.5431 13.6589 28.6339 13.5975C28.8898 13.5001 29.1764 13.324 28.8743 13.6041ZM22.0754 18.0975C21.9608 18.3694 19.9627 19.6038 19.0807 20.2592C19.496 19.8529 20.2583 19.4079 20.7682 19.0592C21.7551 18.3846 21.0398 18.8034 21.1922 18.6675C21.267 18.6007 21.8826 18.3041 22.0754 18.0975ZM30.3823 12.5504C29.8828 12.8726 29.6289 13.0889 29.1684 13.3292C29.1976 13.2953 29.2269 13.2613 29.2561 13.2275C29.4087 13.1372 30.616 12.3616 30.3823 12.5504ZM17.7722 21.1756C18.7362 20.5201 18.1935 20.748 18.741 20.4763C18.4254 20.7186 18.1168 20.9581 17.7975 21.2091C17.7891 21.198 17.7807 21.1868 17.7722 21.1756ZM14.3829 14.6284C14.8415 14.8078 15.3379 15.0479 15.6357 15.1149C15.329 14.9684 15.0222 14.8305 14.7136 14.6979C14.6035 14.6741 14.4932 14.6509 14.3829 14.6284ZM3.00441 11.3762C2.88649 11.3881 2.47582 11.5473 2.43942 11.5625C2.35361 11.5908 2.37098 11.5633 2.36772 11.5584C1.86137 11.7732 2.27679 11.621 2.04454 11.8261C1.94039 11.8926 2.98146 12.1249 3.35679 12.1772C3.95868 12.2729 4.55471 12.3918 4.77819 12.435C5.15562 12.5069 5.86401 12.6049 6.47999 12.7465C6.73406 12.8049 6.81306 12.8642 7.06755 12.9254C8.70379 13.3075 11.8905 14.2045 13.2866 14.7369C13.6323 14.8656 13.9438 15.0369 14.1267 15.1025C14.2772 15.1399 14.4271 15.1782 14.5768 15.2178C14.9519 15.5517 15.1541 15.4722 15.6265 15.6684C15.9249 15.7944 16.0404 15.9039 16.08 15.9222C16.3412 16.043 16.4797 16.0821 16.6859 16.176C16.9172 16.2813 17.2351 16.4614 17.3185 16.4981C17.3691 16.5215 17.2421 16.3763 18.1207 16.825C19.0148 17.2862 19.8808 17.7759 20.7441 18.3272C20.5624 17.974 20.2366 17.9357 19.8722 17.731C19.7741 17.6761 19.8518 17.6844 19.7665 17.6366C19.5253 17.5005 19.0478 17.2714 18.8505 17.1573C18.6367 17.0333 18.7467 17.0076 18.4563 16.8857C18.4416 16.8797 18.4717 16.9299 18.4042 16.9004C17.725 16.6054 17.5335 16.4492 16.6918 16.0441C16.1562 15.7311 12.6349 14.3849 12.5079 14.3629C11.9058 14.0252 15.6561 15.3791 16.0461 15.6412C16.1919 15.7122 16.0235 15.6712 16.1548 15.7394C16.2104 15.7682 16.7482 15.9475 17.2516 16.1873C17.8621 16.4732 19.046 17.1383 19.6037 17.4596C22.0385 18.784 24.138 20.6703 26.0242 22.6168C26.7092 23.3956 29.1378 25.3356 28.1211 24.8417C27.6395 23.5648 27.1634 22.2759 26.7437 20.9619C26.708 20.8497 26.6237 20.7151 26.5113 20.348C25.4734 16.9249 24.75 13.3388 24.429 9.69955C24.2572 7.88334 24.2358 6.04559 24.1127 4.25208C24.0691 3.47022 23.8249 1.96861 23.5379 2.29145C22.9686 2.72227 22.5429 3.64924 22.1341 4.41934C21.428 5.81059 20.8282 7.25025 20.1809 8.69027C20.1298 8.88194 20.0787 9.07467 20.029 9.26551C20.2014 8.79544 20.6259 7.97393 20.6597 7.9004C20.6722 7.87277 20.7204 7.68243 20.8446 7.40612C21.0231 7.00932 21.124 6.85502 21.1394 6.82059C21.1853 6.71951 21.1287 6.77349 21.1724 6.67751C21.4956 5.97095 21.7472 5.41768 22.0651 4.78047C22.4293 4.0582 22.6608 3.74227 22.9121 3.21243C22.9683 3.16581 23.0234 3.12269 23.0769 3.0834C23.1271 2.92867 23.6597 2.01189 23.712 2.48026C23.9862 3.11893 24.0136 4.11284 24.0508 4.62333C24.0694 4.95645 24.0242 4.89979 24.0304 5.01202C24.0336 5.08437 24.0891 5.05054 24.1158 5.92947C24.129 6.37228 24.0947 6.49122 24.1059 6.71363C24.112 6.83389 24.1499 6.8135 24.1581 6.98696C24.2073 7.99362 24.2495 8.81618 24.3325 9.8015C24.3563 10.078 24.325 10.0846 24.3314 10.1463C24.3556 10.3749 24.4497 10.7651 24.5204 11.3431C24.6287 12.2959 24.9397 14.1801 25.0706 14.953C25.0889 15.0669 25.0694 15.1679 25.0867 15.251C25.1129 15.3766 25.1628 15.4178 25.1676 15.4398C25.255 15.8596 25.1656 15.6147 25.234 15.894C25.2713 16.0443 25.35 16.1926 25.4341 16.5422C25.5462 17.0037 25.4728 16.9247 25.5235 17.1169C25.5292 17.1372 25.5675 17.1344 25.6144 17.3238C25.7904 18.0421 26.0749 19.0767 26.2723 19.7482C26.3287 19.9413 26.3461 20.0915 26.4277 20.3609C26.5704 20.9086 27.6558 23.9309 27.7463 24.1758C27.7545 24.2019 27.6016 23.9562 27.7631 24.3795C27.8317 24.4946 27.9002 24.6095 27.9683 24.7232C28.0707 24.7587 27.7995 25.9405 28.2692 24.822C29.2455 25.0681 27.5663 24.2007 27.8066 24.1106C27.7106 24.0114 27.6141 23.9107 27.515 23.8068C27.2431 23.6699 27.1256 23.5077 26.6846 23.1469C26.6416 23.0649 26.5972 22.9814 26.555 22.9C26.5261 22.8976 26.4971 22.8952 26.468 22.8927C26.3239 22.607 25.8984 22.3275 25.8557 22.2859C25.6874 22.1217 25.5828 21.9815 25.5047 21.905C25.211 21.6188 24.5689 21.0226 24.2261 20.6759C24.21 20.6596 24.2567 20.6435 24.159 20.5449C23.9817 20.3674 23.9214 20.397 23.7214 20.1211C23.6585 20.0909 23.5956 20.061 23.5325 20.0315C23.4848 19.9777 23.4368 19.9242 23.3886 19.871C23.0637 19.6041 22.7309 19.3476 22.3916 19.1011C22.7409 19.2723 22.4155 18.9711 22.0427 18.7769C21.9168 18.7114 21.9926 18.82 21.9505 18.7985C21.9005 18.7567 20.3395 17.7158 20.2406 17.6389C20.1573 17.6056 20.0738 17.5727 19.9901 17.54C19.9655 17.4931 19.941 17.4463 19.9163 17.3994C19.869 17.3834 19.8216 17.3675 19.7742 17.3518C19.3768 17.061 18.2062 16.5722 18.0063 16.4649C17.8992 16.4058 18.0525 16.346 17.5224 16.0975C17.4896 16.1181 17.4568 16.1388 17.4241 16.1594C17.3014 16.1045 17.1801 16.0507 17.0572 15.9967C16.8334 15.8853 16.5274 15.6777 16.5332 15.6374C16.4519 15.625 16.3715 15.6132 16.2906 15.6013C16.1366 15.4419 15.0886 14.9977 14.6454 14.8814C14.5304 14.811 14.4148 14.7413 14.2984 14.6721C14.1219 14.6345 13.9441 14.5981 13.7677 14.5635C13.3769 14.4307 13.8026 14.5355 13.7212 14.5019C13.5492 14.4282 12.6288 14.1947 12.7187 14.1232C12.5962 14.0818 12.4739 14.041 12.3514 14.0006C12.2797 14.0066 12.2079 14.0126 12.1364 14.0189C11.9556 13.8592 11.581 13.7727 10.8411 13.512C10.7718 13.5142 10.7025 13.5166 10.6332 13.519C10.4104 13.4192 10.1873 13.3204 9.96366 13.2221C9.90575 13.2435 9.84764 13.2649 9.78964 13.2863C9.68722 13.2621 9.58449 13.2378 9.4823 13.2139C9.3 13.0754 8.90668 13.056 8.72567 12.971C8.46261 12.8476 8.69335 12.8473 9.20759 12.9816C9.18825 12.9095 7.64732 12.52 7.29043 12.442C7.31126 12.4592 7.33168 12.4763 7.35229 12.4935C7.71731 12.5747 8.08167 12.6597 8.44517 12.7483C8.70821 12.9755 7.73935 12.6721 7.28295 12.5815C7.24091 12.5732 6.99364 12.5695 6.53911 12.458C6.36328 12.4137 5.69002 12.1789 5.55806 12.1473C4.49553 11.8894 5.26064 12.1626 4.22949 11.8605C4.43527 11.9803 3.83931 11.7998 3.20957 11.7134C3.10315 11.7051 2.18426 11.5878 2.26166 11.5824C2.57635 12.361 2.06446 12.1054 2.4643 12.0148C2.50684 11.9792 2.56482 11.9403 2.61528 11.9052C2.73357 11.8685 2.85809 11.8347 2.97269 11.8052C3.76067 11.7808 3.91783 11.6357 4.17856 11.5645C4.28697 11.5363 4.15724 11.6061 4.43954 11.5409C4.54016 11.5177 4.66737 11.4559 4.9466 11.4007C5.85438 11.2236 6.1891 11.3232 7.00485 11.0207C7.13633 11.0219 7.27068 11.0229 7.40775 11.0234C7.4921 10.981 7.56921 10.9398 7.65162 10.8978C8.33474 10.8664 8.08029 10.8248 8.31877 10.7865C8.96507 10.6825 10.2603 10.4921 10.3892 10.5396C10.9093 10.3018 11.5975 10.3695 11.8155 10.3295C11.9439 10.2906 12.0679 10.2525 12.1931 10.2142C12.3466 10.2093 12.5013 10.2044 12.657 10.1992C12.5619 10.0614 13.3662 10.0874 13.4435 10.0779C13.5338 10.0662 14.7329 9.83798 15.1823 9.77098C15.6355 9.70314 16.4201 9.62641 16.4915 9.61581C16.5691 9.60412 17.3302 9.44856 17.9265 9.36023C18.4517 9.28162 21.5598 8.88257 21.3551 8.84521C21.1495 8.85654 20.8582 8.88297 20.6073 8.91103C19.8277 8.99699 15.273 9.64111 14.1096 9.81005C11.7809 10.1444 9.34497 10.5259 7.0119 10.9058C6.87503 10.9282 6.85448 10.8921 6.73266 10.9121C6.54554 10.9429 6.10741 11.0588 5.92782 11.0899C5.27138 11.2021 4.4813 11.3454 4.12622 11.4172C3.35991 11.5751 2.78247 11.6631 2.28113 11.8603C1.8634 12.0287 2.85297 11.7736 3.50009 11.977C3.61618 12.0078 3.73185 12.0389 3.84765 12.0705C3.51486 12.0187 2.61047 11.9321 2.25301 11.8209C1.83129 12.0132 2.73636 11.6453 2.84449 11.6461C3.01733 11.594 3.94682 11.3505 4.38275 11.2672C4.51298 11.2414 4.54879 11.2762 4.66638 11.2534C5.28452 11.1334 6.11071 10.9861 6.64474 10.8538C6.42883 10.9035 7.80873 10.6954 7.88549 10.6835C8.01362 10.6622 8.13868 10.6027 8.39183 10.5613C8.88719 10.4805 8.826 10.5715 9.4331 10.3926C9.59127 10.3909 9.73932 10.3909 9.8953 10.3896C9.88894 10.2818 11.8308 10.1229 12.3484 9.91223C12.3635 9.8941 9.86568 10.2435 9.66258 10.2752C8.42913 10.459 6.62287 10.7826 5.41999 10.9833C5.07161 11.0386 3.92453 11.1959 3.8433 11.2169C3.70448 11.2478 3.83754 11.2579 3.77819 11.2717C2.58727 11.5612 3.17062 11.3615 3.00441 11.3762ZM27.8275 14.3969C28.1397 14.191 28.4526 13.9848 28.7647 13.779C28.7553 13.8137 28.7457 13.8484 28.7364 13.883C28.5898 13.9712 28.4428 14.0596 28.2954 14.1482C28.1938 14.2339 28.0928 14.3191 27.9915 14.4045C27.9369 14.402 27.8822 14.3995 27.8275 14.3969ZM27.1185 14.9952C26.8563 15.1869 26.8155 15.1548 26.7521 15.1948C26.563 15.314 26.4139 15.4391 26.2339 15.5602C26.375 15.3228 26.846 15.0689 27.1185 14.9952ZM32.694 11.2738C32.6302 11.3103 32.1534 11.4808 31.7609 11.8885C31.3956 12.0907 31.0282 12.2942 30.6654 12.4945C31.2819 12.1464 32.0598 11.5481 32.3447 11.3577C32.4527 11.2856 32.4973 11.3022 32.5846 11.2439C33.0833 10.9096 33.5247 10.5035 33.6473 10.5756C33.1493 10.8688 32.7757 11.2268 32.694 11.2738ZM29.6452 13.282C29.5501 13.3139 29.4548 13.3459 29.3594 13.378C29.6495 13.1818 29.9394 12.9858 30.2283 12.7904C30.1655 12.8657 30.1025 12.9411 30.0393 13.0167C29.9075 13.1054 29.7762 13.1939 29.6452 13.282ZM27.994 7.86405C28.2065 7.83408 28.4239 7.80346 28.6362 7.7736C28.622 7.75585 28.3778 7.79067 28.2852 7.7905C28.2856 7.79044 28.286 7.79038 28.2864 7.79033C28.1836 7.78989 28.2228 7.75884 28.0379 7.77394C28.0233 7.80398 28.0087 7.83401 27.994 7.86405ZM19.8506 9.47386C19.702 9.80171 18.4652 12.8975 18.6407 12.6608C18.725 12.5399 19.1135 11.4702 19.2409 11.1581C19.4089 10.7386 19.9464 9.63819 19.8506 9.47386ZM17.6797 14.9611C17.7233 15.0399 18.4676 13.0943 18.5325 12.9018C18.5074 12.9385 18.4624 12.9925 18.4369 13.0444C18.3118 13.2968 17.8512 14.5469 17.6797 14.9611ZM16.015 9.40848C16.1865 9.41904 16.3602 9.4293 16.5313 9.43999C16.481 9.40023 16.43 9.36056 16.379 9.32091C16.2573 9.35013 16.136 9.37932 16.015 9.40848ZM3.98515 12.0729C6.75787 12.5678 9.46826 13.3332 12.1436 14.1911C11.9024 14.1332 11.6609 14.0768 11.4193 14.0217C9.11321 13.2981 6.6218 12.5953 4.31427 12.203C4.20488 12.1593 4.09545 12.116 3.98515 12.0729ZM33.4647 11.0057C34.0618 10.6011 34.5329 10.2394 35.2109 9.84257C34.624 10.3074 34.2732 10.4468 33.7219 10.9157C33.7216 10.9159 33.7212 10.9162 33.7209 10.9164C33.6354 10.9462 33.5484 10.9771 33.4647 11.0057ZM34.339 6.78981C34.5422 6.72882 34.7686 6.66472 34.9747 6.60351C34.7193 6.63844 34.4501 6.67542 34.1954 6.71052C34.2435 6.73691 34.2914 6.76334 34.339 6.78981ZM25.6813 22.5655C26.2649 23.0442 27.5322 24.4927 28.0507 24.8309C28.0825 24.8496 27.8411 24.5973 28.3189 24.9132C27.9823 24.6514 27.7475 24.4364 27.6846 24.4552C27.6042 24.3533 27.521 24.2475 27.4395 24.1427C27.2732 24.0017 27.109 23.8609 26.9419 23.7165C26.9969 23.6935 26.983 23.6843 26.7185 23.4762C26.6189 23.3582 26.5207 23.2414 26.4216 23.1236C26.3599 23.0951 26.2976 23.0661 26.2346 23.0363C26.1635 22.92 26.0917 22.8028 26.0218 22.6874C25.63 22.3478 25.8092 22.6149 25.6813 22.5655ZM23.8129 20.7128C23.9113 20.7906 26.3994 23.2245 25.3564 22.0306C25.0617 21.7429 24.7665 21.455 24.4727 21.1695C24.5897 21.538 23.8979 20.6359 23.8253 20.5736C23.5089 20.2594 23.0475 19.929 22.7967 19.7277C22.5815 19.5541 22.4703 19.4286 22.314 19.3122C21.7842 18.9119 20.9066 18.3379 20.7441 18.3272C21.1769 18.6038 21.6092 18.8966 22.042 19.2101C22.4985 19.5454 22.8538 19.8909 23.7117 20.5257C23.9 20.7102 23.7915 20.6892 23.8129 20.7128ZM35.6261 6.52241C35.6025 6.60136 36.9227 6.40589 36.9279 6.37563C36.9237 6.3585 36.5044 6.41467 36.4382 6.4169C36.4378 6.41695 36.4374 6.41701 36.437 6.41706C36.4104 6.41771 36.5397 6.37125 36.3317 6.39102C36.1029 6.43375 35.8544 6.47936 35.6261 6.52241ZM21.8261 4.68039C21.6823 4.80921 20.0076 8.55447 19.9953 8.67932C19.9876 8.71174 20.0227 8.67687 20.0274 8.69299C20.3463 7.78873 20.9616 6.57418 21.3523 5.75887C21.4633 5.52658 21.4031 5.5843 21.4089 5.57069C21.4091 5.57014 21.4094 5.56959 21.4097 5.56905C21.4712 5.43738 21.8151 4.89572 21.8261 4.68039ZM28.1642 24.5862C28.2149 24.7535 28.2657 24.9211 28.3145 25.087C28.3509 25.1196 28.3933 25.1599 28.4213 25.1818C28.4212 25.1816 28.4212 25.1813 28.4211 25.1811C28.3461 24.9922 28.2507 24.7843 28.1642 24.5862ZM26.3213 18.8271C26.3166 18.8724 26.312 18.9177 26.3074 18.963C26.4222 19.3877 26.5422 19.8106 26.668 20.2324C26.6463 20.1927 26.6245 20.1527 26.6028 20.113C26.772 20.758 26.9136 21.0018 27.0161 21.3411C27.016 21.3407 27.0159 21.3403 27.0158 21.3399C27.0268 21.3763 27.0087 21.4311 27.0526 21.566C27.1515 21.8758 27.449 22.7602 27.5207 22.8539C27.6667 23.0534 27.015 21.2974 26.9181 20.9604C26.8709 20.8089 26.8428 20.6194 26.8149 20.5273C26.7843 20.4266 26.703 20.3017 26.6304 20.0555C26.608 19.9834 26.4211 19.1721 26.3213 18.8271ZM24.7689 11.2315C24.7483 11.3709 24.8196 11.6472 24.8274 11.7512C24.8292 11.776 24.7731 11.588 24.7947 11.8221C24.8244 11.885 24.8543 11.9478 24.8843 12.0106C24.8437 11.7512 24.8053 11.4918 24.7689 11.2315ZM37.8325 6.19385C37.7904 6.19098 37.0901 6.28515 37.0561 6.29492C36.6416 6.41739 38.0995 6.21972 37.8325 6.19385ZM29.0163 14.2796C29.3441 14.1764 26.0647 16.2785 25.7556 16.495C25.736 16.4336 26.5386 15.9648 26.0888 16.1671C26.4981 15.9461 27.5442 15.208 27.801 15.0507C27.9568 14.9552 28.0252 14.9733 28.049 14.9592C28.1422 14.9034 28.9018 14.3152 29.0163 14.2796ZM23.0711 18.2685C23.3824 18.0705 23.6948 17.872 24.0086 17.6728C23.6501 17.9251 23.2941 18.1759 22.9377 18.4274C22.9827 18.374 23.0271 18.3212 23.0711 18.2685ZM22.7019 18.5542C22.7465 18.5961 21.6821 19.2682 21.4189 19.4657C21.6676 19.1717 22.236 18.8991 22.7019 18.5542ZM39.9997 6.82922C40.488 6.51968 40.5796 6.22307 40.062 6.70485C40.046 6.7199 39.9791 6.84174 39.9997 6.82922ZM25.627 22.8736C25.6947 22.9429 26.526 23.8507 26.5979 23.8795C26.8241 23.9713 26.2222 23.43 26.0567 23.2155C25.7892 22.8693 26.2752 23.2857 25.4978 22.5618C25.542 22.5793 25.586 22.5967 25.6298 22.6138C25.1926 22.1705 25.2464 22.4068 25.1546 22.3392C25.1274 22.3192 24.8587 22.0371 24.8038 21.9943C24.1066 21.4498 25.5635 22.8089 25.627 22.8736ZM28.3102 7.33789C27.1612 7.44614 27.6602 7.45629 26.4928 7.61853C26.4609 7.66451 28.1623 7.3952 28.3102 7.33789ZM16.6514 16.3771C17.7308 16.8766 18.5742 17.3686 19.5698 17.8565C19.5779 17.6955 16.3925 16.1997 16.6514 16.3771ZM16.3232 17.2671C18.0372 12.9485 19.8716 7.91991 22.1803 3.52744C22.4434 3.05715 22.5136 3.03816 22.6155 2.86637C22.6819 2.75815 22.637 2.75945 22.7377 2.61389C23.0613 1.77555 24.3748 2.05295 24.3299 2.94085C24.4752 3.70101 24.512 4.45976 24.5538 5.21084C24.6249 6.71547 24.6893 8.19924 24.831 9.6711C25.1045 12.6143 25.6434 15.4973 26.3759 18.328C26.4616 18.686 26.8872 20.4304 27.1205 20.7591C27.2898 21.0088 26.8422 19.8019 26.7867 19.5946C26.7423 19.4397 26.78 19.4219 26.7506 19.3186C26.7195 19.2089 26.7182 19.3073 26.6818 19.1802C26.5275 18.6414 26.3823 18.0474 26.2581 17.5562C24.9493 12.7293 24.8989 7.92398 24.4162 2.90268C24.2794 2.28813 24.3079 2.3985 24.3054 2.36826C24.3052 2.36787 24.305 2.36748 24.3048 2.36709C23.8759 0.936298 22.4806 2.60446 22.2374 3.18407C21.8121 3.93341 21.4326 4.72382 21.0632 5.5201C20.328 7.11298 19.6405 8.75414 18.982 10.3285C18.0527 12.5493 17.1738 14.7911 16.3675 17.0622C16.3526 17.1308 16.3384 17.1973 16.3232 17.2671ZM23.8994 21.0044C24.0293 21.2982 24.1652 21.258 24.8921 22.0499C24.9682 22.0956 25.0471 22.1442 25.1235 22.1902C24.7163 21.7942 24.3112 21.3891 23.8981 21.0031C23.8986 21.0035 23.899 21.004 23.8994 21.0044ZM28.346 24.3645C28.435 24.1358 27.4861 21.9285 27.1969 20.8888C27.0528 20.7266 27.5838 22.2047 27.7047 22.5547C27.7615 22.7308 28.0199 23.6915 28.3337 24.3801C28.3378 24.3749 28.3419 24.3697 28.346 24.3645ZM32.5291 12.2003C32.6721 12.0976 32.811 11.9976 32.9554 11.8938C32.5813 12.125 32.2111 12.3532 31.8355 12.585C32.4226 12.2021 33.0047 11.8223 33.5922 11.4381C33.5047 11.5394 33.4138 11.6431 33.3263 11.7444C33.0631 11.8948 32.7945 12.0487 32.5291 12.2003ZM34.3956 10.9124C33.3903 11.6114 34.3983 10.8142 34.6692 10.6797C34.8354 10.5965 34.4989 10.8405 34.3956 10.9124ZM37.0568 9.16348C36.6224 9.53807 35.6691 10.1959 35.9405 9.8623C36.4802 9.56149 36.7868 9.29397 37.5369 8.81406C37.4464 8.90524 37.3462 9.00306 37.255 9.09447C37.2546 9.0948 37.2541 9.09514 37.2536 9.09548C37.1888 9.1176 37.1232 9.14027 37.0568 9.16348ZM33.9745 11.2877C33.2693 11.6822 35.2016 10.3978 34.6274 10.8439C34.6016 10.8641 34.0026 11.272 33.9745 11.2877ZM17.9736 12.4012C17.9755 12.5058 18.1994 11.9299 18.2777 11.7399C18.6156 10.9157 19.03 9.8501 19.3951 8.99755C19.356 9.05671 19.3169 9.11608 19.2777 9.17567C18.8289 10.2458 18.3949 11.3212 17.9736 12.4012ZM20.5566 6.338C20.8191 5.76176 21.0939 5.17639 21.3762 4.60733C21.4036 4.55178 21.4988 4.28582 21.3977 4.46881C21.1045 5.08699 20.825 5.71484 20.5566 6.338ZM20.6207 18.7651C21.0132 19.041 19.785 18.4019 19.8979 18.3339C20.1412 18.4741 20.3822 18.6177 20.6207 18.7651ZM16.6633 16.6551C16.9422 16.7763 17.2189 16.8989 17.4957 17.0247C17.4898 17.0374 17.4838 17.0502 17.4778 17.063C17.2072 16.9245 16.9365 16.7892 16.6633 16.6551ZM17.0602 14.733C17.2167 14.4463 17.4814 13.7168 17.6544 13.2675C17.4971 13.5625 17.2364 14.3129 17.0602 14.733ZM26.0328 23.5191C26.0266 23.47 27.4098 24.8366 26.8865 24.4063C26.6 24.1118 26.3163 23.8157 26.0328 23.5191ZM28.5772 24.1519C28.7309 24.5369 28.8346 24.8458 28.7559 24.7829C28.6796 24.5725 28.6041 24.3679 28.5281 24.1607C28.5445 24.1578 28.5609 24.1548 28.5772 24.1519ZM38.897 8.00013C39.4646 7.59361 40.0382 7.17768 40.5983 6.75402C40.5854 6.7812 40.5742 6.80713 40.5611 6.83438C40.0178 7.24418 39.4672 7.6433 38.9192 8.03585C38.9118 8.02394 38.9044 8.01203 38.897 8.00013ZM16.8046 15.0632C16.6486 15.518 16.4934 15.9787 16.3426 16.4369C16.5111 15.9845 16.6839 15.5298 16.8575 15.0813C16.8399 15.0748 16.8223 15.0684 16.8047 15.062C16.8047 15.0624 16.8046 15.0628 16.8046 15.0632ZM31.0782 13.5717C32.8878 12.4268 30.6646 14.0146 30.1435 14.2504C30.143 14.2508 30.1425 14.2512 30.1421 14.2516C30.0964 14.2722 30.1599 14.1795 30.0824 14.2118C30.2733 14.1052 30.4632 13.9993 30.6547 13.8922C30.8066 13.7616 30.9566 13.6321 31.1092 13.5009C31.1687 13.4717 31.228 13.4426 31.2871 13.4136C31.2177 13.4661 31.148 13.5188 31.0782 13.5717ZM23.9533 18.4424C22.349 19.5262 23.9268 18.3257 24.7671 17.8536C24.7719 17.8731 24.1002 18.3432 23.9533 18.4424ZM28.1459 15.5722C28.3938 15.3932 28.6412 15.2145 28.8895 15.0353C28.9285 15.0232 28.9675 15.011 29.0065 14.9989C28.8183 15.1403 28.6311 15.2811 28.4432 15.4224C28.3441 15.4723 28.2448 15.5224 28.1459 15.5722ZM36.5683 10.0789C36.9854 9.80785 37.4303 9.34402 36.1411 10.2703C36.1497 10.2815 36.1583 10.2927 36.1669 10.3038C36.2185 10.2658 36.3653 10.1491 36.3738 10.1446C36.3994 10.1313 36.399 10.1886 36.5683 10.0789ZM21.2019 20.7736C21.1616 20.8079 21.2138 20.9518 20.6646 21.1444C20.5261 21.2515 20.3914 21.3561 20.2584 21.4597C20.2023 21.4588 20.1465 21.4577 20.0908 21.4566C20.6497 21.0997 20.6724 21.0044 20.7101 20.9765C20.8875 20.8466 20.7727 20.9672 20.8906 20.8864C21.1984 20.6752 21.8779 20.181 21.6195 20.4764C21.5265 20.5824 21.2428 20.7389 21.2019 20.7736ZM22.3303 20.1014C22.2561 20.1372 22.4482 19.953 22.3904 19.9777C22.3395 19.9994 21.6477 20.42 21.7867 20.2357C21.8982 20.1629 22.011 20.0894 22.1209 20.0178C22.1692 20.0091 22.2175 20.0004 22.266 19.9915C22.3611 19.9039 22.46 19.8138 22.5537 19.7272C22.7589 19.647 23.1776 19.4388 22.7477 19.7815C22.9108 19.6649 23.077 19.5463 23.2393 19.4303C23.3118 19.3521 23.3847 19.2736 23.4581 19.1948C23.433 19.2557 23.4081 19.3166 23.3833 19.3773C23.0329 19.6178 22.6833 19.8582 22.3303 20.1014ZM17.3419 23.7215C17.3487 23.692 17.3557 23.6623 17.3628 23.6326C16.815 24.113 15.9873 24.8516 16.3878 24.3504C17.1255 23.7063 17.896 23.0882 18.6754 22.4827C18.7357 22.4545 18.7963 22.4262 18.8574 22.3976C18.2422 22.7972 18.5631 22.842 18.0133 23.1856C17.9208 23.2443 18.1218 22.9816 17.6174 23.4464C17.6478 23.4463 17.6783 23.4461 17.7088 23.4459C17.5869 23.5366 17.4637 23.6292 17.3419 23.7215ZM13.69 27.8724C13.917 27.0815 13.7503 27.9301 13.6879 28.1713C13.6879 28.171 13.6879 28.1706 13.688 28.1703C13.4792 28.6933 13.6756 27.5478 13.7206 27.5642C13.7507 27.4927 13.6996 27.2695 14.1011 26.9183C13.8928 27.2648 13.7325 27.5456 13.69 27.8724ZM15.7089 25.1219C15.6386 25.1922 15.6601 25.1336 15.628 25.1643C15.6277 25.1646 15.6274 25.1649 15.6271 25.1651C15.1316 25.6055 14.2285 26.7148 14.108 26.7899C14.265 26.4242 15.7417 24.9077 15.9032 24.8771C15.8401 24.9562 15.771 25.0417 15.7089 25.1219ZM19.2785 22.1363C19.6434 21.9371 18.9095 22.496 18.7037 22.6198C18.6635 22.643 18.9041 22.3399 19.2785 22.1363ZM36.2397 5.18458C35.3392 5.34133 36.5328 5.2168 36.1264 5.32736C36.3009 5.29917 36.4795 5.27056 36.6467 5.24362C36.5146 5.22338 36.379 5.2037 36.2397 5.18458ZM8.3479 14.5847C8.54644 14.6468 8.46066 14.5878 8.4782 14.5922C8.60989 14.63 8.72763 14.6923 8.7799 14.7042C9.7452 14.9242 9.12135 14.715 9.11383 14.7058C9.10301 14.6678 9.36353 14.7021 9.0283 14.5655C8.81403 14.5162 8.60171 14.468 8.39194 14.4221C8.29428 14.3757 8.19572 14.3293 8.09735 14.2832C7.67235 14.2099 8.21193 14.3668 8.25885 14.4352C8.27689 14.4618 7.88339 14.3793 8.3479 14.5847ZM34.596 5.29419C34.4571 5.37267 34.0944 5.49752 34.4667 5.50611C34.4671 5.50606 34.4675 5.506 34.4679 5.50595C34.5369 5.50738 34.8047 5.47671 34.8861 5.48094C35.4665 5.32257 35.2164 5.27465 34.596 5.29419ZM4.58039 13.7932C4.24428 13.7124 3.90744 13.6352 3.57037 13.5618C3.58224 13.5281 3.59413 13.4943 3.60604 13.4605C3.78613 13.502 3.96685 13.5447 4.14712 13.5884C4.21363 13.5846 4.28095 13.581 4.34749 13.5775C4.1291 13.4943 3.91031 13.4127 3.69024 13.3327C3.4159 13.2979 3.14093 13.2667 2.85412 13.2335C2.98273 13.2738 3.10613 13.3128 3.23051 13.3527C2.53941 13.2546 2.74499 13.2244 2.05696 13.0341C1.90189 12.9989 1.82779 13.054 1.40454 12.8074C1.16123 12.8818 0.68621 11.291 1.15057 11.044C1.4289 10.7298 1.51662 10.726 1.61055 10.658C2.14405 10.4443 2.37705 10.4521 2.69319 10.3988C3.18242 10.2632 3.23246 10.2301 2.88071 10.2729C3.1305 10.1696 3.38734 10.1825 3.68562 10.1029C3.71026 10.0964 3.65503 10.0666 3.67707 10.0616C5.15493 9.73729 5.08736 9.87183 5.32881 9.83003C5.50197 9.80145 6.14634 9.61565 6.15058 9.59045C6.16279 9.55576 4.76709 9.66316 6.91239 9.29191C5.78812 9.38935 4.5207 9.71608 5.37662 9.6939C5.01658 9.74123 3.45238 10.0795 3.35272 10.1029C3.20111 10.1298 3.23823 10.0703 3.0558 10.1101C2.89751 10.1694 2.87862 10.1627 1.57201 10.5828C1.47112 10.6636 1.33329 10.6523 0.997507 11.1136C0.371258 11.954 1.41296 13.0262 1.49793 12.9572C1.82642 13.1439 1.93452 13.1608 2.07195 13.2158C1.91555 13.1974 1.81319 13.2407 1.39586 13.0467C1.28032 13.1547 0.225469 11.761 0.900608 11.0046C1.2544 10.5323 1.39254 10.5349 1.49616 10.448C1.3876 10.5247 1.2526 10.517 0.895182 10.9575C0.223358 11.559 1.1715 13.1935 1.31446 13.0756C1.75634 13.3265 1.83777 13.2963 1.99112 13.3463C2.25848 13.4137 2.4461 13.4496 2.626 13.4859C2.9819 13.5555 3.26098 13.6044 3.51153 13.6008C3.92787 13.6852 4.13016 13.7358 3.94149 13.7494C4.06685 13.7726 4.19336 13.7966 4.31844 13.8208C4.40578 13.8114 4.49265 13.8021 4.58039 13.7932ZM31.9349 5.74792C31.4986 5.75363 31.3529 5.89342 31.4229 5.89035C31.8133 5.87274 32.1604 5.74518 31.9349 5.74792ZM7.61732 14.3223C7.16923 14.1732 6.72037 14.0302 6.26803 13.8931C6.25952 13.9295 6.25101 13.9659 6.2425 14.0022C6.70234 14.1027 7.15975 14.2094 7.61732 14.3223ZM36.3637 5.08327C36.4116 5.10511 36.4592 5.12702 36.5063 5.14899C37.0189 4.97752 37.5466 5.057 37.8141 4.99242C37.8696 4.97867 37.7503 4.94402 37.6371 4.94788C37.5756 4.94853 36.4518 5.06154 36.3637 5.08327ZM27.5126 16.7475C27.6645 16.622 27.8166 16.4964 27.9686 16.3708C27.9772 16.4029 27.9859 16.4351 27.9946 16.4673C27.9176 16.5265 27.8406 16.5857 27.7636 16.6448C27.6799 16.6791 27.5963 16.7133 27.5126 16.7475ZM29.3348 15.4542C29.6259 15.2603 29.9186 15.0654 30.2089 14.8722C29.1193 15.6438 30.0344 15.0421 29.386 15.53C29.3689 15.5047 29.3519 15.4795 29.3348 15.4542ZM32.3072 13.5207C32.2823 13.5603 32.2573 13.5999 32.2323 13.6395C31.9418 13.836 31.653 14.0314 31.3608 14.2291C31.5824 14.158 31.8017 14.0884 32.0212 14.0187C32.1285 13.9464 32.2352 13.8743 32.3413 13.8027C32.33 13.7087 32.3186 13.6147 32.3072 13.5207ZM16.9201 17.8989C17.1048 17.9906 17.7655 18.2668 17.7474 18.2347C17.4973 18.0747 17.2436 17.9164 16.9879 17.7602C16.97 17.7931 16.952 17.826 16.9341 17.8589C16.9046 17.8234 16.8752 17.788 16.8457 17.7526C16.6876 17.69 16.5287 17.6279 16.3693 17.5664C16.306 17.4994 16.2432 17.4329 16.1797 17.3663C16.0855 17.3626 15.9913 17.3592 15.8978 17.3562C16.6113 17.7691 16.6121 17.7007 16.7653 17.7761C16.8426 17.8146 16.881 17.8596 16.9034 17.8837C16.909 17.8888 16.9145 17.8938 16.9201 17.8989ZM7.24325 14.4715C8.18689 14.7238 8.75076 14.7871 9.41791 15.0666C9.01774 14.7536 6.14636 14.1693 5.16278 13.8336C5.05243 13.8391 4.94154 13.8448 4.83088 13.8509C5.38611 13.939 5.75346 14.0818 6.01826 14.1512C6.22918 14.2067 6.21306 14.173 6.22932 14.1772C6.23008 14.1774 6.23085 14.1775 6.23161 14.1777C6.72505 14.3067 6.87081 14.3729 7.24325 14.4715ZM37.0846 4.84899C36.8171 4.83907 36.3434 4.90663 36.3476 4.97164C36.6077 4.95587 36.8804 4.93874 37.1347 4.92443C37.0807 4.91473 37.13 4.85072 37.0846 4.84899ZM32.7471 13.442C32.9321 13.3423 33.3353 13.0468 33.1256 13.1211C33.0873 13.1351 32.7006 13.4445 32.8829 13.1988C32.4866 13.469 32.6408 13.4993 32.7471 13.442ZM12.9163 8.39757C13.0908 8.36884 13.2666 8.33997 13.4437 8.31097C13.4808 8.27879 13.5168 8.24678 13.5534 8.21467C13.3445 8.27501 13.1267 8.33682 12.9163 8.39757ZM39.3646 4.52295C39.6309 4.62407 40.0049 4.45226 40.5342 4.52986C40.9468 4.7178 40.0066 3.68119 42.1661 5.18386C42.174 5.19651 42.1817 5.20944 42.1893 5.22256C42.3033 5.34928 42.4013 5.51727 42.4599 5.70252C41.0189 3.2459 41.181 4.71322 40.9856 4.42572C40.8432 4.4173 40.7585 4.41916 40.6665 4.42083C40.4948 4.4248 40.3356 4.4354 40.1992 4.44539C39.9074 4.46731 39.6436 4.4936 39.3646 4.52295ZM1.75709 10.3838C1.93496 10.331 2.06063 10.3094 2.1973 10.2852C2.41022 10.2021 2.6259 10.1283 2.8151 10.0636C2.70765 10.0753 2.58273 10.0922 2.47148 10.1074C2.2505 10.1837 2.04859 10.2525 1.75709 10.3838ZM40.9136 7.80986C41.3938 7.47489 41.5017 7.25482 40.9025 7.6992C40.6496 7.8853 40.4095 8.15813 40.9136 7.80986ZM25.2593 24.1075C25.1248 23.9605 24.9945 23.8177 24.8624 23.673C24.7984 23.6424 24.7341 23.6115 24.671 23.5819C24.8667 23.7568 25.062 23.9312 25.2593 24.1075ZM30.4974 14.9485C30.5033 14.9163 30.5092 14.884 30.5151 14.8517C30.6626 14.7576 30.8079 14.6651 30.9563 14.5704C30.9329 14.6143 30.9093 14.6584 30.8859 14.7023C30.7569 14.784 30.6274 14.8661 30.4974 14.9485ZM24.3349 23.1687C24.2287 23.0568 24.1187 22.9413 24.0128 22.83C23.931 22.7649 23.8468 22.6974 23.7657 22.633C23.8593 22.7418 23.9579 22.8555 24.0517 22.9645C24.1473 23.0338 24.2409 23.101 24.3349 23.1687ZM36.4406 10.9333C36.6362 10.8337 37.3103 10.2646 36.6481 10.6918C36.2204 10.9675 36.4122 10.9475 36.4406 10.9333ZM35.4766 11.6252C36.1964 11.1996 35.5271 11.3268 34.7987 12.0353C35.6191 11.4483 35.4338 11.6504 35.4766 11.6252ZM29.4617 15.8694C29.4442 15.881 29.4075 15.8585 29.2677 15.9513C28.7645 16.2856 28.0942 16.7205 27.735 16.9608C26.8701 17.5386 24.2788 19.3839 23.907 19.5013C23.83 19.525 23.9364 19.3663 23.9085 19.3809C23.8276 19.4236 23.4055 19.7533 23.4577 19.6543C23.8918 19.3586 24.3198 19.0677 24.7538 18.773C24.668 18.876 24.5826 18.9788 24.4977 19.0812C25.5626 18.333 25.2094 18.5763 25.4725 18.3003C25.6715 18.2028 25.8731 18.1037 26.0719 18.0065C26.4508 17.7116 26.8313 17.4158 27.2103 17.1212C27.1333 17.2016 27.0568 17.2816 26.9796 17.3622C27.6019 16.9928 27.4203 17.0816 27.7158 16.8131C27.7296 16.832 27.7433 16.8509 27.7571 16.8698C28.303 16.4314 28.4551 16.4131 28.5818 16.3284C28.8414 16.1544 29.0171 15.7019 30.16 15.2609C30.5013 14.8705 30.6449 15.0982 30.8123 14.8198C31.6014 14.466 30.2292 15.3289 29.5915 15.7541C29.5912 15.7544 29.5909 15.7546 29.5905 15.7548C29.5424 15.7869 29.6326 15.7561 29.4617 15.8694ZM33.0093 13.3042C32.6504 13.694 34.3461 12.5588 33.6891 12.7924C33.6029 12.844 33.5139 12.8974 33.4288 12.9481C33.2903 13.066 33.1501 13.1849 33.0083 13.3049C33.0087 13.3047 33.009 13.3045 33.0093 13.3042ZM32.6676 5.29127C30.8054 5.60139 31.8674 5.52368 32.5023 5.36629C32.6266 5.33532 32.6921 5.30749 32.6676 5.29127ZM8.56489 14.9248C8.59477 14.9181 8.62476 14.9115 8.65486 14.9049C8.05952 14.7459 6.92088 14.3954 6.91233 14.4963C7.4653 14.6303 8.01691 14.7736 8.56489 14.9248ZM3.82388 13.8805C3.95234 13.9092 4.47736 14.0246 4.42053 13.9764C4.19681 13.906 3.97263 13.8372 3.74786 13.7701C3.6376 13.7667 3.52863 13.7639 3.41996 13.7615C3.5664 13.7925 3.7894 13.8725 3.82388 13.8805Z" fill="#B564D4"/>
</svg>
