<svg width="40" height="25" viewBox="0 0 40 25" fill="none" xmlns="http://www.w3.org/2000/svg">
<mask id="mask0_77408_369" style="mask-type:alpha" maskUnits="userSpaceOnUse" x="0" y="0" width="40" height="25">
<path d="M0 0H40V25H0V0Z" fill="#D9D9D9"/>
</mask>
<g mask="url(#mask0_77408_369)">
<path d="M37.85 2.84745C37.8674 2.83354 38.2723 2.89809 38.3197 2.96994C38.3657 3.04129 38.2223 3.10872 38.2994 3.20918C38.3187 3.23472 38.6763 3.40988 38.6975 3.42737C38.8578 3.5704 38.2505 3.49643 38.2153 3.49819C37.8441 3.51976 38.2346 3.71974 38.2588 3.75848C38.3675 3.94149 38.2674 4.07514 38.3477 4.22548C38.4005 4.3229 38.7995 4.36552 38.7815 4.43506C38.7217 4.66529 38.1586 4.72115 38.6308 4.97671C38.7173 5.02283 39.0521 5.00902 38.9274 5.10303C38.9061 5.11876 38.8711 5.13831 38.8202 5.1614C38.7959 5.17184 38.477 5.28982 38.6733 5.37289C38.6987 5.38325 38.8264 5.38782 38.8366 5.40064C38.9022 5.48684 38.7993 5.53911 38.8453 5.63127C38.8914 5.72456 38.9613 5.83542 38.9158 5.93846C38.8873 6.00057 38.6479 6.07704 38.5892 6.10689C38.4209 6.18974 38.6946 6.28542 38.4907 6.33656C38.2856 6.38889 37.9757 6.28036 37.8423 6.42173C38.1747 6.42902 38.5159 6.44325 38.8501 6.45331C38.8367 6.75909 38.7315 7.06286 38.7516 7.37105C38.7557 7.40848 38.9325 7.36716 38.941 7.40741C38.9723 7.5787 38.8485 7.73435 38.9042 7.91173C38.9485 8.05001 39.1428 8.19594 39.1961 8.3395C38.8196 8.44141 38.9564 8.65366 38.9294 8.81129C38.9196 8.86657 38.8185 8.86881 38.7873 8.90985C38.6732 9.06249 39.005 8.9774 39.0598 9.01512C39.294 9.1772 38.5349 9.23205 38.5651 9.43715C38.5725 9.44955 38.9791 9.55882 39.0057 9.57495C39.177 9.68118 38.866 9.60253 38.8405 9.67735C38.7939 9.81331 38.7033 9.91378 38.8318 10.0611C38.8705 10.1048 39.1297 10.1968 38.941 10.2984C38.9155 10.3117 38.7819 10.3153 38.7748 10.3252C38.7559 10.3541 38.7507 10.3782 38.7564 10.3979C38.7869 10.4984 39.1019 10.4929 39.227 10.5654C39.376 10.6513 39.0975 10.8232 39.0163 10.8602C38.8068 10.9559 38.919 10.8058 38.8975 10.8027C38.6415 10.7708 38.6927 10.8775 38.6781 10.9626C38.2673 11.0063 38.3014 11.1228 38.6646 11.0516C38.7041 11.0436 38.6613 10.9812 38.6781 10.9626C39.0882 11.0054 39.1503 11.1291 38.7844 11.3023C38.613 11.3835 38.4012 11.3366 38.4936 11.5339C38.536 11.6231 38.8163 11.5646 38.9004 11.6391C39.0918 11.8099 38.8487 12.0731 38.9071 12.2612C38.9289 12.3289 39.0776 12.2487 39.0975 12.2947C39.1505 12.4165 39.045 12.5382 39.1159 12.6593C39.1243 12.6695 39.2821 12.6281 39.2879 12.6669C39.334 12.9633 39.2551 13.2333 39.2821 13.5454C39.2954 13.6966 39.4104 13.9574 39.4077 14.1158C39.4034 14.3894 39.2009 14.7464 39.2811 14.9723C39.333 15.1196 39.4919 15.0708 39.6087 15.1244C39.8349 15.2292 39.4751 15.4868 39.4173 15.5235C39.4148 15.523 39.3636 15.3989 39.2879 15.4756C39.1188 15.5329 39.4161 15.5221 39.4173 15.5235C39.381 15.5473 39.3698 15.8107 39.4057 15.8594C39.426 15.8856 39.5761 15.8561 39.5845 15.8699C39.7565 16.2058 39.8305 16.5514 39.7923 16.9159C39.7836 16.9223 39.6166 16.9288 39.6125 16.9436C39.5558 17.1572 39.7784 17.2691 39.9188 17.4317C39.9372 17.4528 39.9529 17.4738 39.9652 17.4939C40.0466 17.632 39.9904 17.7519 39.741 17.8623C39.7883 17.9892 39.6719 18.1884 39.6 18.3035C39.5287 18.4171 39.8652 18.4132 39.8725 18.4221C40.1019 18.7218 39.9247 18.8982 39.8889 19.2949C39.8286 19.4655 40.0478 19.5018 39.6154 20.382C39.5056 20.8307 38.1788 21.2235 37.9399 21.0232C37.6396 20.9437 37.5582 20.8703 37.4771 20.8174C37.3637 20.7363 37.268 20.6455 37.165 20.5993C37.1407 20.588 37.0646 20.7186 37.0548 20.7179C36.7836 20.7208 37.0996 20.5123 37.1147 20.4385C37.1801 20.1805 37.2229 20.0486 37.019 20.0078C36.9727 19.9992 36.5204 20.2912 36.447 20.2624C36.3533 20.2246 36.5111 20.1163 36.4103 20.0806C36.4016 20.0772 36.3208 20.1604 36.2818 20.115C36.2467 20.0741 36.2122 20.0313 36.1774 19.9868C36.0382 19.8082 35.8998 19.6095 35.732 19.4499C35.7038 19.4225 35.6053 19.5851 35.5619 19.5475C35.3597 19.3702 35.1604 19.1485 35.0469 18.8978C35.0192 18.8355 35.1412 18.7787 35.1609 18.7427C35.2757 18.5257 34.9436 18.6587 34.9242 18.648C34.4792 18.3946 34.4704 17.9182 34.0458 17.6279C34.0214 17.6135 33.6084 17.673 33.7936 17.4097C33.8061 17.391 33.9995 17.1273 33.7782 17.1953C33.7627 17.2025 33.6695 17.3422 33.6216 17.2546C33.5733 17.1658 33.3879 17.1016 33.4487 16.8852C33.4524 16.8721 33.4628 16.8504 33.4748 16.8259C33.5156 16.7431 33.5772 16.6209 33.4796 16.5953C33.4705 16.6411 33.4621 16.6863 33.4516 16.7283C33.432 16.8026 33.2976 16.7522 33.2815 16.757C33.0412 16.8442 33.365 16.8984 33.3839 16.9274C33.4969 17.11 33.3449 17.2489 33.3849 17.4183C33.3966 17.4641 33.5509 17.432 33.5646 17.4412C33.6986 17.5372 33.4206 17.4649 33.3897 17.5264C33.3028 17.6961 33.3144 17.8884 33.3327 18.0633C33.3402 18.1249 33.5121 18.0606 33.5231 18.1111C33.5233 18.1122 33.524 18.1139 33.524 18.115C33.5512 18.4595 33.5312 18.8149 33.4119 19.2011C33.3884 19.2747 33.253 19.2198 33.2206 19.2337C32.995 19.3228 33.2794 19.5254 33.2999 19.5887C33.3498 19.7133 33.3375 19.8184 33.2873 19.9724C33.0561 20.1506 33.7671 20.2608 32.0051 21.3132C30.7901 21.5547 30.5399 21.0795 30.374 21.0318C29.0008 19.7168 29.3161 19.5218 28.9767 18.9179C28.754 18.3804 28.6258 17.9217 28.4144 17.4546C28.3583 17.3303 28.2935 17.2005 28.2211 17.0719C28.1992 17.034 28.0549 17.1532 28.0337 17.1216C27.8099 16.7593 27.669 16.3635 27.4626 15.9943C27.4302 16.0367 27.3868 16.0795 27.3273 16.1225C27.3141 16.1296 27.1576 16.0686 27.1486 16.1379C27.1349 16.2529 27.0107 16.3908 27.1273 16.5302C27.1635 16.571 27.4563 16.5888 27.2491 16.6642C27.2045 16.6797 26.8531 16.638 27.1524 16.7551C27.1922 16.7699 27.4531 16.8978 27.4239 16.9857C27.4161 17.0088 27.3882 17.0286 27.3322 17.0422C27.2603 17.0592 26.9674 17.0959 27.0084 17.1484C27.0171 17.1555 27.1753 17.1417 27.1872 17.1848C27.2263 17.3365 27.1954 17.4939 27.222 17.6728C27.2302 17.7202 27.4013 17.6721 27.4066 17.7456C27.4203 17.9466 27.3316 18.2309 27.1853 18.5131C27.1306 18.6147 27.0272 18.4972 27.0104 18.5006C26.7437 18.54 27.0133 18.725 27.0123 18.7791C27.0056 18.9421 26.93 19.0537 26.8635 19.1274C26.8114 19.1802 26.7538 19.2287 26.7282 19.3054C26.7139 19.35 26.8616 19.4043 26.8683 19.4193C26.9282 19.5722 26.7343 19.3652 26.6751 19.3992C26.5092 19.4956 26.4068 19.6593 26.3031 19.8174C26.2658 19.8756 26.4535 19.9277 26.4161 19.9801C26.1965 20.293 25.8489 20.6035 25.4083 20.7667C25.3258 20.7962 25.2978 20.6523 25.2663 20.6347C25.0553 20.5086 25.0521 20.8487 25.0208 20.895C24.9005 21.0959 24.7749 21.016 24.6179 21.094C24.6045 21.1005 24.5901 21.1069 24.5763 21.1131C24.0565 21.3929 23.352 21.4301 22.8274 21.3993C22.1252 21.3599 21.6092 21.1714 20.9712 21.049C20.9306 21.0407 20.9252 21.2263 20.889 21.2222C20.8567 21.217 20.8237 21.2109 20.7914 21.2041C20.365 21.1142 19.9956 20.9111 19.602 20.7811C19.567 20.7691 19.5397 20.9477 19.4802 20.9332C19.3582 20.9046 19.2236 20.8253 19.143 20.7198C19.1041 20.6689 19.2423 20.5759 19.2039 20.5275C19.111 20.4144 18.9943 20.3337 18.8628 20.2873C18.8065 20.2677 18.7894 20.4636 18.7227 20.426C18.268 20.1714 17.8348 19.8946 17.5989 19.405C17.5837 19.3696 17.7922 19.0772 17.6945 19.0853C17.6256 19.1579 17.5493 19.2478 17.4781 19.3274C17.3812 19.2586 17.2891 19.1856 17.2008 19.1083C16.7911 18.7454 16.4593 18.3318 16.0258 17.8097C16.0029 17.7816 15.8979 17.9512 15.8519 17.8968C15.7812 17.8114 15.7033 17.721 15.6209 17.6087C15.4959 17.4411 15.3765 17.2602 15.3571 16.9876C15.3543 16.9508 15.6424 16.7751 15.5475 16.7264C15.5297 16.7177 15.4129 16.6249 15.331 16.6326C15.318 16.6353 15.2022 16.7421 15.1716 16.7053C15.0617 16.5671 14.9698 16.3997 14.901 16.2182C14.8321 16.4253 14.7355 16.6413 14.7822 16.801C14.8248 16.9477 14.9867 16.9099 15.1001 16.9695C15.3198 17.0842 14.9422 17.3174 14.8836 17.3494C14.8808 17.3476 14.8372 17.2238 14.7571 17.2948C14.5883 17.3405 14.8746 17.3478 14.8836 17.3494C14.8461 17.372 14.8191 17.6273 14.8518 17.6767C14.8705 17.7037 15.024 17.6834 15.0305 17.6977C15.1813 18.0358 15.2336 18.3797 15.1735 18.7303C15.1657 18.7363 14.9974 18.7338 14.9928 18.7485C14.9551 18.861 15.0013 18.9497 15.073 19.0308C15.1327 19.1024 15.21 19.1657 15.2692 19.2423C15.3994 19.4077 15.3605 19.5459 15.0663 19.6528C15.1062 19.7805 14.9781 19.9724 14.8991 20.0825C14.8221 20.1921 15.1562 20.2097 15.1629 20.2203C15.2347 20.3298 15.2592 20.4247 15.2547 20.5418C15.2519 20.6015 15.2443 20.6604 15.2228 20.7629C15.2104 20.8162 15.2007 20.8723 15.1552 21.0194C15.1222 21.0962 15.1272 21.1875 14.9136 21.4931C14.8751 21.9488 13.1143 22.163 13.0603 21.8567C12.636 21.5389 12.7057 21.4953 12.5887 21.3696C12.4615 21.2059 12.2265 20.9762 12.0959 20.8557C11.9918 20.7608 12.0104 20.6495 11.8998 20.5753C11.8847 20.5649 11.7693 20.6616 11.7616 20.6605C11.536 20.6441 11.8762 20.4988 11.9162 20.4394C12.0591 20.2259 12.1327 20.1082 11.9481 20.0251C11.9056 20.0059 11.3957 20.1832 11.3307 20.137C11.2479 20.0759 11.4282 20.009 11.3384 19.9485C11.3304 19.9436 11.2313 20.0037 11.2041 19.9495C11.0779 19.6957 10.9862 19.3976 10.8379 19.1494C10.8345 19.1442 10.8278 19.143 10.8195 19.1447C10.7751 19.1535 10.6752 19.2389 10.6475 19.1973C10.4936 18.9592 10.3629 18.6838 10.3277 18.4116C10.32 18.3447 10.453 18.3255 10.4823 18.2968C10.655 18.1226 10.3027 18.1567 10.2851 18.1418C10.0083 17.8578 10.0403 17.5093 9.9141 17.247C9.88127 17.1792 9.83392 17.1072 9.76722 17.0355C9.7492 17.018 9.33354 16.9863 9.57493 16.7704C9.59192 16.7545 9.84034 16.5419 9.60875 16.5551C9.59186 16.5583 9.4694 16.674 9.44256 16.5752C9.42346 16.5039 9.3333 16.4251 9.3237 16.313C9.27197 16.2982 9.21054 16.2804 9.19036 16.2986C9.06459 16.4132 9.03165 16.5715 9.01643 16.7101C9.01228 16.7604 9.1997 16.7501 9.19326 16.7943C9.16392 17.0181 9.11446 17.2227 9.03286 17.3704C9.01697 17.4177 8.99973 17.4636 8.98068 17.5092C8.9543 17.5695 8.82252 17.5161 8.78935 17.5255C8.56023 17.5901 8.84386 17.7561 8.86859 17.7905C8.98166 17.9454 8.85352 17.9858 8.85989 18.113C8.87111 18.3287 8.85403 18.5634 8.81254 18.8155C8.79146 18.942 8.76475 19.0743 8.72461 19.2289C8.7032 19.3099 8.68015 19.3925 8.63668 19.5207C8.61148 19.5909 8.59301 19.6562 8.51397 19.8222C8.46212 19.9083 8.45521 20.0031 8.16224 20.3246C7.99873 20.4602 7.59012 20.974 6.54567 20.8356C5.60764 20.5948 5.48612 20.1789 5.34555 20.0107C4.96166 19.1981 5.11747 19.3524 5.04118 19.1313C4.98232 18.8675 4.9387 18.6325 4.88367 18.3963C4.80787 18.071 4.71516 17.7519 4.54934 17.4192C4.53133 17.3828 4.37936 17.4911 4.36092 17.4613C4.14056 17.0662 4.01815 16.6286 3.77246 16.2364C3.75221 16.2045 3.61857 16.3264 3.58114 16.2776C3.50418 16.1779 3.44406 16.0323 3.4391 15.8957C3.43626 15.8289 3.60627 15.8377 3.60143 15.7723C3.58869 15.619 3.53141 15.4749 3.44006 15.3541C3.40102 15.3033 3.28331 15.4652 3.24487 15.3943C3.172 15.2593 3.09883 15.1271 3.02843 14.9914C2.84114 14.6305 2.68037 14.2549 2.63612 13.8095C2.63191 13.7673 2.93772 13.5709 2.83711 13.5282C2.74494 13.5685 2.63998 13.6232 2.54336 13.6698C2.10778 12.9646 1.83108 12.1827 1.44954 11.4497C1.43218 11.4208 1.29466 11.5616 1.26208 11.5042C1.07649 11.1621 0.846366 10.8593 0.817594 10.4276C0.814303 10.3846 1.11755 10.2346 1.01665 10.1616C0.997583 10.1473 0.872266 10.0224 0.78764 10.0228C0.777851 10.0239 0.71115 10.0795 0.663957 10.0927C0.646415 10.097 0.630442 10.0947 0.621441 10.0821C0.431902 9.8081 0.283932 9.48874 0.194348 9.14718C0.180271 9.09157 0.353769 9.05806 0.346053 9.01799C0.282916 8.73384 0.0148716 8.53106 0.000126636 8.16437C-0.00703995 7.91524 0.291494 7.8659 0.508387 7.65144C0.538719 7.62197 0.496951 7.49663 0.651395 7.43516C1.04063 7.28346 1.48689 7.16834 1.89885 6.99878C1.98671 6.96322 1.86471 6.92196 2.09887 6.89256C2.11483 6.89132 2.2041 6.91108 2.2815 6.89256C2.33482 6.87945 2.48709 6.80477 2.55689 6.79112C2.62515 6.77661 2.50287 6.84781 2.59071 6.84376C2.68058 6.83949 2.8447 6.7399 2.89895 6.79591C3.02802 6.93493 3.16741 7.27899 3.24101 7.55191C3.26443 7.63798 3.15172 7.65425 3.16371 7.71556C3.18874 7.83735 3.28987 7.90723 3.30768 8.03231C3.31118 8.07402 3.14486 8.11567 3.15404 8.15768C3.18659 8.30459 3.25804 8.42405 3.32797 8.54812C3.3676 8.61837 3.40763 8.69196 3.4391 8.77109C3.86347 9.85346 4.32997 10.8496 4.79768 11.8908C4.95146 12.2338 5.02971 12.7069 5.26632 13.021C5.29428 13.0569 5.41177 12.9684 5.42672 12.9703C5.65239 13.0077 5.36999 13.1004 5.37551 13.1961C5.3875 13.3914 5.436 13.5797 5.50789 13.7531C5.57696 13.9192 5.66702 14.0726 5.76492 14.2076C5.85149 14.3262 6.04703 14.0708 5.9659 14.2718C5.95782 14.2858 5.80573 14.3209 5.80743 14.3627C5.81447 14.4597 5.91489 14.6008 5.93401 14.6679C5.97104 14.7992 5.98202 14.8183 6.03547 14.933C6.10735 15.0908 6.12613 15.3094 6.23646 15.4632C6.26079 15.495 6.38239 15.3832 6.43358 15.4287C6.48526 15.4759 6.54425 15.6335 6.53407 15.7005C6.5234 15.7676 6.39932 15.7974 6.37753 15.8182C6.23413 15.9518 6.43413 16.0073 6.5389 16.0345C6.60838 15.8756 6.70006 15.7174 6.84135 15.6163C6.9652 15.5282 7.10117 15.6901 7.07229 15.5292C7.06528 15.4932 6.90531 15.4872 6.90609 15.4364C6.91526 15.2192 7.03637 15.0193 7.0288 14.8C7.02657 14.7555 6.89178 14.72 6.8713 14.7005C6.71282 14.5386 7.08533 14.4954 7.12253 14.4708C7.24752 14.3799 7.31459 14.2858 7.36024 14.1875C7.41253 14.0744 7.43882 13.9547 7.49165 13.8296C7.51468 13.7751 7.31546 13.7708 7.33028 13.7158C7.41771 13.4283 7.55525 13.1492 7.75061 12.9186C7.79434 12.8676 7.91542 12.9847 7.94483 12.9655C8.06803 12.8733 7.80656 12.7219 7.91971 12.6306C7.94333 12.6114 8.06049 12.6817 8.07721 12.6841C8.3232 12.7122 8.05335 12.5126 8.05209 12.4889C8.06281 12.3323 8.19323 12.2644 8.31588 12.1923C8.31609 12.0992 8.31548 12.0058 8.30815 11.9138C8.30173 11.8351 8.1836 11.9167 8.16514 11.8028C8.14166 11.6546 8.10066 11.4726 8.06755 11.2774C8.0511 11.1807 8.03618 11.0806 8.02696 10.9836C8.0224 10.9355 8.01973 10.8866 8.01827 10.842C8.01767 10.8209 8.01668 10.7983 8.0173 10.7817C8.01773 10.7746 8.01843 10.7672 8.0202 10.7692C8.02122 10.7709 8.02337 10.7787 8.02793 10.8018C8.03359 10.8222 8.02515 10.8278 8.08108 11.0238C8.10251 11.055 8.021 10.9637 8.25694 11.4171C8.26919 11.4355 8.33364 11.547 8.45406 11.6841C8.47121 11.6469 8.4869 11.608 8.50527 11.5712C8.69711 11.1826 8.96662 10.791 9.20775 10.508C9.22596 10.4873 9.25652 10.493 9.28699 10.5051C9.2867 10.4982 9.28645 10.4888 9.28699 10.4745C9.28755 10.4636 9.28771 10.4499 9.29182 10.4228C9.29733 10.4089 9.28797 10.3746 9.35462 10.2487C9.30127 10.0524 10.1796 9.93441 10.1914 10.1664C10.35 10.3927 10.2838 10.3443 10.2996 10.3578C10.3026 10.3671 10.3047 10.3747 10.3064 10.3807C10.3179 10.4242 10.3179 10.4311 10.3199 10.4372C10.3235 10.4502 10.3268 10.4611 10.3286 10.4678C10.3327 10.4845 10.3354 10.4964 10.3373 10.5109C10.3406 10.5363 10.3404 10.5621 10.3393 10.5874C10.3366 10.6354 10.3297 10.6864 10.3315 10.7291C10.3359 10.8189 10.3792 10.8956 10.5799 10.9415C10.5672 11.3169 10.623 11.6831 10.6775 12.0487C10.7512 11.9995 10.8186 11.9525 10.8794 11.9071C10.8881 11.9184 10.8959 11.9251 10.8958 11.9291C10.8953 12.1145 10.7992 12.214 10.7132 12.3176C10.7481 12.5749 10.7774 12.8339 10.7702 13.0976C10.7651 13.2554 10.749 13.416 10.718 13.5808C10.7091 13.5924 10.5506 13.6078 10.548 13.6306C10.5153 13.9089 10.7559 13.8061 11.1016 13.8947C11.1883 13.9159 10.8533 14.1357 10.8301 14.156C10.7419 14.2239 10.4928 14.2449 10.4774 14.2641C10.3612 14.4225 11.1388 14.189 11.1828 14.3359C11.1767 14.3416 11.0327 14.3634 11.0224 14.3799C10.99 14.4326 11.0581 14.4543 11.0214 14.5081C10.9341 14.6302 10.5686 14.786 10.834 14.8526C10.8719 14.8588 11.2965 14.6886 11.322 14.8258C11.3315 14.882 11.4243 15.1085 11.4225 15.1828C11.4196 15.2568 11.2672 15.2678 11.2601 15.2747C11.1483 15.523 11.045 15.4867 10.8137 15.689C10.5857 15.8922 11.213 15.6009 11.2997 15.6058C11.3856 15.611 11.2942 15.8032 11.2572 15.8584C11.2201 15.9133 11.1158 15.9124 11.0997 15.9541C10.9978 16.2299 11.4505 15.8946 11.579 15.9101C11.8814 15.9428 11.4724 16.2741 11.492 16.4307C11.4984 16.4718 11.5877 16.3942 11.6138 16.4211C11.6198 16.4279 11.6256 16.4353 11.6302 16.4422C11.7026 16.5533 11.6177 16.6854 11.807 16.7675C11.8405 16.7819 12.1757 16.7756 12.0041 16.9446C11.978 16.9686 11.8487 16.9903 11.8476 17.0565C11.846 17.1559 11.8886 17.3155 11.9684 17.3848C12.0277 17.4357 12.184 17.274 12.1626 17.3819C12.1521 17.4294 12.0099 17.4159 12.0012 17.5015C11.9929 17.5878 12.081 17.7574 12.1172 17.8202C12.1534 17.8822 12.279 17.7784 12.2921 17.7781C12.3629 17.7827 12.4927 17.8686 12.4989 17.8795C12.5523 17.9759 12.5973 18.0749 12.638 18.1743C12.8244 18.6262 12.9181 19.1154 13.2468 19.4844C13.2782 19.5189 13.4022 19.4032 13.4091 19.4069C13.5549 19.4993 13.1108 19.6411 13.0487 19.8174C13.3248 19.6152 13.3098 19.7038 13.4052 19.7753C13.4275 19.7912 13.4606 19.7752 13.4903 19.7552C13.4929 19.7036 13.4984 19.6556 13.5144 19.5983C13.5877 19.3318 13.3518 19.4324 13.2381 19.2738C13.1253 19.1128 13.7117 19.1751 13.8372 19.1475C13.9589 19.121 13.8386 19.0989 13.8951 19.0681C13.8965 19.0674 13.8984 19.0668 13.9 19.0662C13.9679 19.0357 14.0556 19.0937 14.0797 19.0269C14.1034 18.9577 13.8729 18.778 13.7405 18.758C13.4603 18.7167 13.1713 18.811 13.2671 18.626C13.2731 18.6157 13.4265 18.6426 13.442 18.604C13.5492 18.2856 13.5443 17.9549 13.6372 17.6365C13.6501 17.5928 13.8211 17.624 13.8323 17.5991C13.9317 17.332 13.6471 17.4368 13.3212 17.3044C13.7486 17.3208 14.0061 17.2311 14.0014 17.0317C13.9982 16.9124 13.8137 16.9388 13.6797 16.8671C13.6392 16.8454 13.763 16.7549 13.6748 16.7427C13.3868 16.7026 13.0695 16.7936 13.1888 16.5838C13.1951 16.5748 13.3502 16.597 13.3608 16.5666C13.4153 16.3626 13.1156 16.3485 13.0709 16.1321C13.0362 15.9623 13.2075 15.6512 13.2303 15.4555C13.7099 15.4426 13.5935 15.2631 13.2603 15.2C13.2693 15.0732 13.2461 14.9366 13.2874 14.8134C13.3014 14.771 13.4404 14.793 13.4565 14.7876C13.6871 14.6985 13.3672 14.6546 13.3511 14.6278C13.2185 14.3361 13.4549 14.0865 13.2081 13.8115C13.1986 13.8021 12.8664 13.7955 13.1057 13.7129C13.1223 13.7076 13.2771 13.7953 13.2854 13.6631C13.2932 13.5292 13.4641 13.2757 13.3057 13.0937C13.2751 13.0599 13.0944 12.9811 13.1299 12.9052C13.1389 12.8854 13.1618 12.8659 13.2033 12.8468C13.2316 12.8341 13.3272 12.8451 13.3801 12.8267C13.5484 12.7669 13.2116 12.7436 13.4961 12.6707C13.7809 12.5998 13.9922 12.4591 13.7927 12.2774C13.7869 12.2716 13.5208 12.2294 13.5231 12.1722C13.5291 12.0771 13.5839 11.9463 13.5821 11.8478C13.5802 11.8026 13.4186 11.8309 13.412 11.8238C13.3187 11.5087 13.4687 11.2845 13.5405 10.9501C13.5539 10.8892 13.3329 10.7054 13.5144 10.5913C13.714 10.4661 14.5235 10.6246 14.3396 10.3185C14.2645 10.1938 13.2394 10.0111 13.7792 9.80749C13.7452 9.68826 13.7423 9.57195 13.7521 9.45629C13.7775 9.1622 13.8848 8.87333 13.7521 8.56726C13.744 8.54776 13.4582 8.48464 13.4603 8.43998C13.4673 8.37328 13.602 8.33795 13.612 8.29069C13.6542 8.09199 13.5401 7.90838 13.5589 7.71651C13.566 7.64428 13.7048 7.66939 13.7135 7.58254C13.7208 7.49671 13.5391 7.43645 13.6275 7.32033C13.6954 7.23128 14.0697 7.14371 14.1145 7.02558C13.7453 7.02015 13.7524 6.93836 13.6555 6.79495C13.6368 6.76736 13.5091 6.79599 13.4922 6.78347C13.426 6.72987 13.5322 6.68 13.4603 6.62939C13.4416 6.61737 13.3181 6.61633 13.2961 6.60643C13.1106 6.52006 13.3936 6.38066 13.4439 6.3557C13.6317 6.26348 13.4681 6.21923 13.5415 6.14804C13.6154 6.07747 13.708 6.1828 13.7531 6.10115C13.8461 5.92877 13.8265 5.70776 13.8323 5.53271C13.8339 5.46356 13.6677 5.50912 13.6613 5.50017C13.6188 5.35561 13.798 5.20971 13.4623 5.12982C14.3302 5.03013 13.3799 5.0428 13.5521 4.83699C13.5662 4.82072 13.9764 4.79954 14.0372 4.86187C14.097 4.92438 13.9694 5.01921 14.0633 5.1059C14.0892 5.12735 14.4701 5.24388 14.4933 5.25997C14.6745 5.38554 14.0612 5.40252 14.0275 5.40926C13.6641 5.48465 14.0782 5.62861 14.1068 5.66668C14.2375 5.83914 14.1517 5.98644 14.2449 6.13081C14.3058 6.22515 14.7064 6.23602 14.6952 6.30977C14.6535 6.55688 14.0933 6.64217 14.5783 6.87629C14.682 6.92637 15.1215 6.87874 14.7754 7.0562C14.7513 7.06853 14.4384 7.19981 14.6372 7.27726C14.6634 7.28689 14.7899 7.28749 14.8005 7.30023C14.8694 7.38569 14.7676 7.44257 14.816 7.53565C14.8644 7.62878 14.9364 7.74118 14.8923 7.84762C14.8646 7.91067 14.6276 7.99191 14.5686 8.02179C14.4005 8.1067 14.6742 8.20214 14.471 8.25433C14.2658 8.30672 13.9552 8.19944 13.8217 8.3395C14.1543 8.34755 14.496 8.36264 14.8305 8.37395C14.8158 8.68635 14.7045 8.99138 14.7136 9.307C14.7171 9.34472 14.8949 9.30967 14.901 9.35102C14.9071 9.39526 14.904 9.4384 14.8962 9.47925C14.8722 9.607 14.8067 9.72799 14.8411 9.86683C14.8777 10.0098 15.0619 10.1716 15.1049 10.3195C14.722 10.3978 14.8434 10.6175 14.8044 10.7702C14.7901 10.8228 14.6898 10.8173 14.6556 10.8544C14.5301 10.9957 14.8673 10.9364 14.9194 10.9769C15.1412 11.1492 14.3797 11.1488 14.3957 11.3501C14.4027 11.3633 14.8016 11.494 14.8266 11.5109C14.9904 11.6237 14.685 11.5296 14.6546 11.5999C14.5993 11.7286 14.5023 11.8187 14.6218 11.9702C14.6584 12.0153 14.9104 12.1183 14.7165 12.2057C14.6905 12.217 14.5589 12.213 14.5493 12.2219C14.436 12.37 14.7518 12.3881 14.9262 12.4526C14.9412 12.324 15.0521 12.219 15.0286 12.0774C15.0072 11.9547 14.8446 11.7905 14.8237 11.6535C15.2117 11.6519 15.1259 11.4473 15.1938 11.3233C15.2174 11.2812 15.3144 11.309 15.3552 11.286C15.5057 11.1983 15.1685 11.1661 15.1252 11.1185C15.0927 11.0807 15.0913 11.0549 15.1107 11.0391C15.1938 10.9827 15.6836 11.0927 15.7059 10.9712C15.7074 10.9635 15.3473 10.7563 15.3252 10.7348C15.1931 10.6063 15.4647 10.76 15.5098 10.7176C15.5907 10.6381 15.7026 10.5998 15.6238 10.4544C15.5999 10.4124 15.3828 10.2588 15.589 10.2525C15.6157 10.2516 15.7389 10.2945 15.7523 10.2917C15.9156 10.2088 15.5149 10.0798 15.4016 9.96539C15.2895 9.85182 15.6026 9.8297 15.6895 9.83429C15.9127 9.84343 15.7651 9.90622 15.7813 9.91659C16.0095 10.0308 15.995 9.93975 16.0354 9.88596C16.4304 10.0067 16.4347 9.91761 16.076 9.83046C16.0369 9.82123 16.0574 9.87983 16.0354 9.88596C15.6685 9.70685 15.6529 9.59162 16.047 9.61227C16.2316 9.62236 16.4098 9.73681 16.392 9.56825C16.3839 9.49176 16.1074 9.41838 16.0567 9.33188C15.9437 9.13288 16.2622 9.04807 16.2867 8.89072C16.2951 8.83297 16.1324 8.82159 16.1321 8.77971C16.1369 8.66548 16.2827 8.62662 16.2789 8.50219C16.2786 8.49047 16.124 8.44171 16.1359 8.4084C16.2461 8.15428 16.4566 7.98438 16.6867 7.70216C16.7782 7.59007 16.9216 7.34251 17.138 7.17965C17.1918 7.13931 17.2389 7.1099 17.281 7.08874C17.7051 6.88492 18.0959 7.04758 18.3178 6.94902C18.4635 6.88856 18.4095 6.73502 18.4637 6.61695C18.58 6.38669 18.8403 6.7564 18.8647 6.816C18.8572 6.82044 18.7433 6.86353 18.8115 6.94041C18.8553 7.10558 18.8627 6.83291 18.8647 6.816C18.8884 6.85171 19.131 6.88774 19.1807 6.86098C19.207 6.84523 19.1997 6.69304 19.2135 6.68586C19.556 6.56344 19.9034 6.5745 20.203 6.71265C20.2062 6.72204 20.1634 6.88191 20.175 6.88969C20.2197 6.92138 20.2644 6.9302 20.3102 6.9251C20.4089 6.90776 20.5145 6.79659 20.6243 6.73179C20.7779 6.64177 20.8667 6.70813 20.8649 7.01123C20.9673 6.99929 21.0668 7.15929 21.1229 7.25621C21.1773 7.35078 21.2777 7.04142 21.2881 7.03036C21.5589 6.88657 21.6325 7.1058 21.8476 7.20262C21.9504 7.24916 22.1798 7.27225 22.3124 7.28013C22.4171 7.28575 22.4477 7.37982 22.553 7.36626C22.5671 7.36461 22.6064 7.2281 22.6138 7.21697C22.7793 7.08989 22.6004 7.40811 22.5964 7.47727C22.5846 7.72503 22.5785 7.8578 22.7452 7.80838C22.7825 7.79641 23.0826 7.35633 23.1559 7.35573C23.2481 7.35595 23.14 7.51126 23.238 7.50789C23.2475 7.50528 23.2968 7.4033 23.3443 7.43229C23.5282 7.54392 23.7174 7.70024 23.9357 7.86676C23.8646 7.73161 23.7976 7.59732 23.8091 7.44091C23.8239 7.24786 24.1104 7.1702 24.3212 6.96051C24.3493 6.92752 24.3129 6.84827 24.4546 6.76433C24.8017 6.53238 25.2292 6.35703 25.5987 6.1088C25.6303 6.07319 25.6346 6.06142 25.5291 5.89923C25.6539 5.8637 24.6844 5.37629 24.7145 5.46763C24.3678 5.33759 25.7129 5.67298 25.6673 5.81214C25.7781 5.92662 25.9121 6.02035 25.9977 6.01119C26.0567 6.00567 26.1843 5.88735 26.2692 5.89731C26.3541 5.90779 26.2529 6.01761 26.3572 6.04086C26.4629 6.06444 26.6212 5.95124 26.7031 6.06C26.8888 6.30819 27.0114 6.67733 27.0713 6.9672C27.0904 7.05867 26.9774 7.06587 26.9853 7.12893C27.003 7.25558 27.0991 7.33577 27.1089 7.46483C27.1104 7.50708 26.9409 7.53588 26.9466 7.57871C26.9643 7.69183 27.0013 7.78614 27.0461 7.88494C27.0934 7.98956 27.1505 8.09819 27.1872 8.21509C27.5345 9.31514 27.9692 10.3457 28.4076 11.4114C28.5522 11.7627 28.6192 12.2424 28.8511 12.5655C28.8786 12.6026 28.9975 12.5154 29.0125 12.5176C29.238 12.5604 28.9535 12.6475 28.9574 12.7444C28.9746 13.1286 29.1362 13.4874 29.3372 13.7684C29.423 13.8869 29.6187 13.6318 29.5372 13.8335C29.5278 13.8477 29.377 13.8821 29.3797 13.9244C29.3867 14.0218 29.4861 14.162 29.5063 14.2306C29.5439 14.3617 29.5546 14.3801 29.6097 14.4957C29.6831 14.6532 29.7055 14.8729 29.8193 15.0239C29.8446 15.0557 29.964 14.9394 30.0165 14.9847C30.0691 15.0307 30.1306 15.1855 30.1228 15.2536C30.1137 15.3204 29.9912 15.3537 29.9701 15.3751C29.7916 15.553 30.1751 15.5825 30.1952 15.601C30.421 15.8387 30.4937 16.1163 30.5788 16.3895C30.5968 16.4465 30.6151 16.503 30.6349 16.558C30.6856 16.4836 30.8227 16.4121 30.8397 16.3895C31.0225 16.1189 30.9504 15.9203 30.9547 15.668C30.9557 15.6097 30.7689 15.6777 30.7624 15.622C30.7354 15.3298 30.7511 15.0263 30.8349 14.7397C30.854 14.6759 31.0136 14.7341 31.032 14.7043C31.1065 14.5702 30.8046 14.5389 30.8697 14.4105C30.8833 14.3839 31.0175 14.3987 31.0349 14.3943C31.2706 14.3175 30.94 14.2489 30.9296 14.2287C30.8296 13.9753 31.1804 13.8148 31.1335 13.5703C31.1275 13.5412 30.954 13.6045 30.947 13.5234C30.9429 13.4706 30.9396 13.417 30.9373 13.3636C30.9313 13.3581 30.9248 13.3514 30.919 13.3425C30.8814 13.2847 30.8356 13.2185 30.7885 13.1531C30.7142 13.0337 30.392 12.6623 30.69 12.976C30.7484 13.0145 30.7865 13.0778 30.9344 13.1617C30.9348 12.9807 30.9441 12.7971 30.9663 12.6143C31 12.3456 31.0485 12.0921 31.1528 11.7894C31.1906 11.6845 31.3052 11.7805 31.3238 11.7769C31.5869 11.7209 31.2808 11.5695 31.3084 11.4717C31.1683 11.3254 32.1195 10.9409 32.1867 11.2028C32.3319 11.3156 32.3479 11.3773 32.3916 11.4334C32.4665 11.5427 32.5386 11.6004 32.753 11.5626C32.8037 11.6697 32.8522 11.7689 32.9027 11.865C32.9727 11.9992 33.0489 12.1294 33.1259 12.2573C33.0122 12.2383 32.9276 12.1582 32.8631 12.2717C32.8173 12.3633 33.2286 12.4873 33.2409 12.51C33.2648 12.5565 33.2756 12.5978 33.2805 12.6392C33.2938 12.6166 33.3057 12.5945 33.3173 12.5741C33.5966 13.0264 33.8674 13.4767 33.9782 14.0296C33.9777 14.0426 33.8311 14.1139 33.8371 14.1368C33.9102 14.4169 34.0978 14.2347 34.4604 14.2134C34.5512 14.2076 34.3113 14.5312 34.2951 14.5569C34.2343 14.6505 34.0037 14.7479 33.9956 14.7713C33.9377 14.9602 34.6022 14.4945 34.6961 14.6306C34.6922 14.6381 34.5613 14.7021 34.557 14.7215C34.5434 14.783 34.6159 14.786 34.5976 14.8498C34.5535 14.9966 34.2501 15.2496 34.5251 15.2421C34.5606 15.2405 34.9231 14.9546 34.9908 15.0871C35.0182 15.1413 35.1764 15.3466 35.1957 15.422C35.2139 15.4977 35.0655 15.5453 35.0633 15.5531C35.0554 15.6059 35.0443 15.6487 35.0314 15.6842C34.9778 15.8329 34.8787 15.8653 34.7396 16.0699C34.5702 16.3232 35.1052 15.8876 35.1918 15.8728C35.277 15.8591 35.2372 16.0723 35.215 16.135C35.192 16.1972 35.09 16.2195 35.0846 16.2642C35.0525 16.5584 35.4126 16.1283 35.5426 16.1139C35.8476 16.0799 35.5268 16.4969 35.5851 16.646C35.6012 16.6842 35.6697 16.5869 35.7011 16.6077C35.8246 16.6914 35.7581 16.859 35.9764 16.8891C36.0123 16.8942 36.3325 16.7938 36.217 17.0049C36.1994 17.0353 36.0806 17.0927 36.0992 17.157C36.1273 17.254 36.2164 17.3961 36.3146 17.4412C36.387 17.4741 36.4887 17.273 36.5011 17.3838C36.5056 17.433 36.3639 17.4595 36.3823 17.5456C36.4003 17.6314 36.5371 17.7719 36.591 17.8231C36.6445 17.8734 36.7335 17.7388 36.7466 17.7341C36.8163 17.7186 36.9698 17.7688 36.9785 17.7781C37.2248 18.0223 37.4019 18.3122 37.5988 18.5877C37.7353 18.7782 37.8822 18.9609 38.0607 19.1045C38.0852 18.855 38.1722 18.5354 38.1776 18.3839C38.1857 18.1266 38.1563 18.0466 38.1882 17.8939C38.2292 17.6955 38.1236 17.7019 38.0153 17.6614C37.9723 17.6463 37.9286 17.6238 37.8935 17.5791C37.7701 17.4202 38.3603 17.4508 38.4839 17.4154C38.6061 17.3809 38.4764 17.3662 38.5419 17.3302C38.6079 17.2947 38.6982 17.3508 38.7178 17.2786C38.737 17.208 38.4974 17.038 38.3641 17.0259C38.0818 16.9999 37.7984 17.1097 37.8829 16.9187C37.8902 16.9083 38.0431 16.9268 38.0559 16.8862C38.1432 16.5548 38.1186 16.2198 38.1911 15.89C38.2013 15.8449 38.374 15.8662 38.3834 15.8402C38.4656 15.5617 38.1876 15.6867 37.8539 15.5704C38.2818 15.5618 38.5341 15.4563 38.5168 15.2527C38.5064 15.1312 38.323 15.1696 38.1844 15.1034C38.1426 15.0833 38.261 14.9853 38.1728 14.978C37.8827 14.9541 37.5715 15.0663 37.6771 14.845C37.6822 14.8353 37.8405 14.8482 37.8481 14.8163C37.8895 14.6061 37.5892 14.6098 37.5312 14.3914C37.4859 14.2209 37.6372 13.8934 37.6481 13.6928C38.1263 13.6519 37.9993 13.4761 37.6626 13.4306C37.6639 13.3011 37.6326 13.1635 37.6665 13.0354C37.6781 12.9915 37.818 13.0064 37.8336 12.9999C38.0584 12.8969 37.739 12.8695 37.7196 12.843C37.5698 12.5531 37.7906 12.286 37.5283 12.0191C37.5175 12.0097 37.186 12.0213 37.421 11.9243C37.438 11.9185 37.5964 11.9992 37.5969 11.864C37.5969 11.7275 37.7529 11.4593 37.5843 11.2831C37.5436 11.241 37.2652 11.1458 37.4684 11.0372C37.4964 11.023 37.5927 11.0291 37.6442 11.0075C37.8081 10.9378 37.4708 10.9309 37.7505 10.842C38.0182 10.7573 38.2153 10.6115 38.0491 10.4477C38.0415 10.4401 38.0322 10.4324 38.023 10.4247C38.0157 10.4191 37.7494 10.392 37.7476 10.3329C37.748 10.2386 37.7942 10.0979 37.7863 9.99984C37.7819 9.95319 37.6239 9.99188 37.6152 9.98549C37.502 9.67134 37.6353 9.43398 37.6819 9.08881C37.6908 9.02593 37.4569 8.85474 37.6297 8.72516C37.8196 8.58294 38.6375 8.68594 38.4327 8.39118C38.3505 8.27325 37.3129 8.15056 37.8404 7.91173C37.6955 7.48423 37.963 7.08314 37.7737 6.65332C37.7639 6.63373 37.4785 6.57146 37.4809 6.52604C37.488 6.4577 37.6218 6.4206 37.6317 6.37293C37.6736 6.17035 37.5619 5.98241 37.5843 5.7863C37.5927 5.71164 37.7312 5.74106 37.7418 5.65328C37.752 5.56513 37.5702 5.49937 37.6626 5.38246C37.7335 5.29382 38.1114 5.21948 38.1612 5.10303C38.0246 5.09514 37.9397 5.0789 37.8829 5.05422C37.7866 5.01109 37.7698 4.94425 37.7138 4.84847C37.6966 4.81965 37.5683 4.84173 37.5515 4.82838C37.4883 4.7701 37.5969 4.72479 37.5283 4.66856C37.5102 4.65498 37.3857 4.64673 37.365 4.63507C37.1857 4.535 37.4793 4.40664 37.5312 4.38625C37.7252 4.30545 37.5666 4.24799 37.6462 4.18146C37.7262 4.11597 37.8082 4.2312 37.8607 4.1518C37.969 3.98691 37.9733 3.76452 38.0037 3.59101C38.0149 3.52279 37.8454 3.54505 37.8394 3.53551C37.818 3.38247 38.019 3.26714 37.7032 3.12784C38.5758 3.18163 37.6371 3.02531 37.85 2.84745ZM14.53 20.6165C14.3531 20.7528 14.9226 20.9221 14.817 20.6538C14.8105 20.6425 14.5385 20.6102 14.53 20.6165ZM13.8159 20.6088C13.8092 20.6124 13.7857 20.6781 13.7821 20.6777C13.7528 20.9673 14.088 20.5391 13.8159 20.6088ZM13.4168 20.3236C13.2795 20.3927 13.3179 20.495 13.3415 20.5351C13.3478 20.5327 13.3577 20.513 13.3656 20.4921C13.3822 20.4482 13.3981 20.3943 13.413 20.3437C13.4148 20.3375 13.4151 20.3299 13.4168 20.3236ZM13.4613 20.1456C13.378 20.2001 13.2948 20.2422 13.3424 20.3026C13.3709 20.2902 13.4054 20.2654 13.442 20.2356C13.45 20.2041 13.4558 20.1734 13.4613 20.1456ZM38.2694 19.4767C38.2722 19.4786 38.2756 19.4812 38.2791 19.4834C38.3985 19.5321 38.5269 19.7094 38.5815 19.5887C38.5148 19.5565 38.3772 19.5104 38.2675 19.4748L38.2694 19.4767ZM38.1022 19.4126C38.072 19.4587 38.0502 19.5051 38.0481 19.5475C38.0847 19.4992 38.116 19.4624 38.1419 19.4346C38.1294 19.4308 38.1198 19.4277 38.1138 19.426C38.1094 19.4224 38.1061 19.4171 38.1022 19.4126ZM38.454 19.248C38.5819 19.0847 38.3726 19.2854 38.3728 19.3494C38.3702 19.3594 38.3652 19.3681 38.3622 19.3762C38.402 19.3651 38.4439 19.2586 38.454 19.248ZM31.119 18.8011C30.8644 18.9202 30.7305 19.1288 30.716 19.1715C30.6362 19.3535 30.6761 19.3229 30.6813 19.3179C30.7054 19.2855 30.7368 19.1935 30.7692 19.1064C30.7847 19.0639 30.9434 19.1294 30.9692 19.0863C31.0148 19.0064 31.0745 18.9058 31.119 18.8011ZM38.5651 18.9054C38.5576 18.9097 38.5526 18.9856 38.5603 18.9877C38.749 19.0258 38.7591 18.865 38.5651 18.9054ZM39.2734 18.8202C39.1168 18.9287 39.7067 18.9275 39.5613 18.8164C39.5502 18.8114 39.2876 18.8148 39.2734 18.8202ZM18.6125 7.69642C18.5174 7.70691 18.5572 7.88785 18.5226 8.02466C18.5127 8.06429 18.4288 7.95272 18.4347 8.03997C18.4596 8.32478 18.5716 8.62336 18.4337 8.52802C18.4271 8.52354 18.4031 8.36872 18.3825 8.36438C18.2469 8.33924 18.3189 8.6277 18.2675 8.69262C18.2564 8.70691 18.2357 8.70809 18.2231 8.69454C18.1645 8.67835 18.0252 8.67799 17.9603 8.72612C17.591 8.42122 17.589 8.60424 17.8404 8.82373C17.7854 8.88085 17.7561 8.96353 17.6771 9.01225C17.6499 9.02815 17.5386 8.94851 17.5225 8.94335C17.2874 8.88328 17.5539 9.06794 17.5573 9.08881C17.5763 9.31898 17.2861 9.37775 17.4327 9.65055C17.4429 9.66246 17.7424 9.78993 17.4993 9.75103C17.4823 9.74839 17.3647 9.63292 17.3196 9.71562C17.2747 9.79697 17.0452 9.90628 17.1476 10.0812C17.1734 10.1241 17.4015 10.2851 17.1814 10.2793C17.1514 10.2784 17.0639 10.2391 17.0094 10.2343C16.8356 10.2205 17.1484 10.345 16.8616 10.3022C16.5746 10.2596 16.3384 10.293 16.4857 10.4812C16.494 10.4887 16.735 10.5979 16.7186 10.6362C16.6915 10.6985 16.61 10.7746 16.5911 10.8429C16.5845 10.8755 16.7474 10.9025 16.7486 10.909C16.7695 11.1325 16.6121 11.2465 16.4857 11.4324C16.475 11.4482 16.4648 11.4652 16.4548 11.4822C16.4319 11.5237 16.6161 11.7001 16.4239 11.7406C16.2116 11.7888 15.4391 11.5078 15.5774 11.7865C15.6356 11.9056 16.6273 12.1904 16.076 12.2612C16.1603 12.5847 15.8633 12.8533 16.0422 13.177C16.0533 13.1921 16.3352 13.2425 16.3331 13.2736C16.325 13.3204 16.1912 13.3454 16.1813 13.3799C16.1403 13.5245 16.2578 13.6553 16.2451 13.7933C16.2399 13.8455 16.1012 13.8341 16.0963 13.8976C16.0935 13.9614 16.2764 13.9934 16.1939 14.0832C16.1298 14.1511 15.7609 14.2433 15.7243 14.3349C15.8239 14.3282 15.8965 14.3274 15.9514 14.3321C16.2091 14.2421 16.4755 14.153 16.7302 14.0469C16.8188 14.0105 16.6901 13.96 16.9263 13.9301C16.9429 13.9289 17.0371 13.961 17.1157 13.9473C17.1703 13.9377 17.3213 13.8592 17.394 13.8536C17.4664 13.8475 17.3439 13.9209 17.4327 13.9225C17.5223 13.9223 17.6937 13.8379 17.7399 13.8871C17.8454 14.0036 17.8762 14.1906 17.883 14.3569C17.8839 14.4083 17.7814 14.4387 17.7796 14.4775C17.777 14.554 17.8531 14.582 17.8472 14.6641C17.8433 14.6922 17.6876 14.7543 17.6887 14.7818C17.6972 14.9334 17.806 15.0226 17.8607 15.1646C17.9437 15.3801 18.0504 15.601 18.1651 15.823C18.2734 16.1104 18.6767 16.5632 19.0338 16.9513C19.0533 16.9724 19.073 16.9954 19.0918 17.0192C19.2318 17.2016 19.3627 17.4545 19.5768 17.5436C19.6049 17.5538 19.6778 17.4329 19.6909 17.424C19.8694 17.33 19.6704 17.5443 19.6918 17.6097C19.781 17.8658 19.989 18.0212 20.202 18.0834C20.2926 18.109 20.3631 17.8172 20.3576 18.0011C20.3536 18.0177 20.2596 18.1348 20.2726 18.1609C20.3032 18.2209 20.4109 18.2497 20.4436 18.2805C20.5065 18.3413 20.5205 18.3468 20.5905 18.3839C20.6856 18.4357 20.7721 18.56 20.8939 18.5733C20.9197 18.5753 20.9518 18.42 20.9973 18.4087C21.0425 18.3989 21.1298 18.4468 21.149 18.493C21.167 18.5396 21.1107 18.651 21.1064 18.6796C21.0739 18.9204 21.2984 18.6522 21.3152 18.6451C21.3876 18.6336 21.4514 18.6377 21.5104 18.6509C21.6944 18.6918 21.8475 18.8331 22.0418 18.8576C22.2344 18.8813 22.4433 18.8292 22.6245 18.8336C22.8403 18.8396 23.0377 18.9061 23.2496 18.8557C23.2718 18.8504 23.215 18.6746 23.24 18.6662C23.4081 18.6229 23.5749 18.5846 23.7444 18.5647C23.8028 18.5675 23.8707 18.5737 23.9579 18.5772C23.9813 18.5777 24.0461 18.7287 24.0768 18.736C24.254 18.7951 24.7297 18.7838 24.2449 18.2508C24.3318 18.1934 24.4325 18.1068 24.6111 18.0949C24.7267 18.086 24.8404 18.2375 24.8247 18.1226C24.8209 18.0967 24.6754 18.037 24.6778 18.0049C24.6821 17.9685 24.6931 17.9348 24.7068 17.9025C24.7357 17.8292 24.7612 17.7952 24.7232 17.7245C24.7109 17.7048 24.5776 17.6683 24.5541 17.6575C24.3665 17.5799 24.7043 17.5931 24.7367 17.5743C24.9442 17.4666 24.8903 17.3185 24.9107 17.157C24.9151 17.1192 24.7249 17.1456 24.7213 17.1092C24.7166 17.0095 24.7227 16.9058 24.7425 16.8029C24.7608 16.7096 24.7915 16.6154 24.8363 16.5235C24.8575 16.4811 25.0148 16.5285 25.0344 16.5092C25.1132 16.4196 24.8126 16.3839 24.8807 16.2986C24.8949 16.2804 25.0309 16.2965 25.0469 16.2938C25.2834 16.25 24.9577 16.19 24.9455 16.1752C24.8513 15.997 25.204 15.8949 25.16 15.7225C25.1542 15.7021 24.9802 15.7427 24.9735 15.6862C24.9353 15.3039 24.9874 14.9019 25.1242 14.5234C25.1452 14.4648 25.2755 14.5048 25.2923 14.5014C25.5411 14.4395 25.2119 14.4029 25.1938 14.3837C25.1012 14.2339 25.3806 14.087 24.9773 13.9933C25.01 13.8276 25.0157 13.6605 25.0112 13.4995C24.9974 13.0567 24.8884 12.6796 25.0044 12.2009C25.0059 12.1925 25.1637 12.1531 25.1696 12.1358C25.195 11.9303 24.9619 12.047 24.6295 12.0659C24.5499 12.0725 24.8546 11.8476 24.8807 11.8229C24.961 11.7537 25.1969 11.6792 25.2131 11.6611C25.3153 11.5143 24.5899 11.8735 24.5406 11.7865C24.5403 11.7829 24.6773 11.7284 24.6894 11.7128C24.7179 11.6664 24.6529 11.6684 24.6846 11.62C24.7601 11.5089 25.0921 11.2932 24.8392 11.3157C24.8055 11.32 24.4176 11.5641 24.385 11.4698C24.3729 11.4315 24.2711 11.283 24.2671 11.2219C24.2646 11.1627 24.4065 11.1147 24.414 11.1071C24.4161 11.1019 24.4187 11.0966 24.4208 11.0917C24.5131 10.9008 24.604 10.8849 24.7889 10.6869C24.7803 10.6702 24.7724 10.653 24.7638 10.6362C24.6391 10.7073 24.4159 10.865 24.3686 10.8793C24.2924 10.902 24.3654 10.7313 24.3937 10.6764C24.4231 10.6231 24.5152 10.5889 24.5271 10.552C24.594 10.3041 24.22 10.7158 24.1058 10.7511C23.8425 10.8406 24.1721 10.4446 24.1338 10.331C24.1237 10.3022 24.0555 10.398 24.0304 10.3884C23.9331 10.3488 24.0017 10.193 23.8188 10.2219C23.7872 10.2262 23.5162 10.3923 23.6236 10.1884C23.639 10.1587 23.7413 10.0789 23.7289 10.0295C23.7096 9.95556 23.6388 9.85912 23.5579 9.84769C23.4983 9.83949 23.4089 10.0362 23.4013 9.94721C23.3979 9.90701 23.5162 9.84578 23.5038 9.77783C23.4905 9.70965 23.3782 9.62703 23.3337 9.59792C23.2894 9.57025 23.2133 9.71178 23.2033 9.71754C23.145 9.74941 23.0202 9.74877 23.0119 9.74338C22.9354 9.68971 22.8658 9.62677 22.8013 9.55868C22.6239 9.35146 22.3889 9.06983 22.0515 9.01225C22.0178 9.00636 21.9761 9.17041 21.9703 9.17111C21.8421 9.19513 22.0864 8.81339 22.0631 8.64477C21.9527 8.96596 21.9297 8.89197 21.8399 8.89933C21.7972 8.90438 21.7724 9.03429 21.7645 9.04574C21.6439 9.21366 21.6924 8.95943 21.6997 8.90507C21.7266 8.70985 21.6126 8.9118 21.6292 8.78162C21.645 8.65119 21.7649 8.49008 21.6872 8.46678C21.6276 8.57571 21.5818 8.89466 21.5094 8.92517C21.2399 9.04022 20.9107 8.68735 20.7383 8.61511C20.5688 8.54301 20.5049 8.55 20.4127 8.48113C20.245 8.35698 20.255 8.60221 20.1131 8.67827C19.9714 8.75348 20.167 8.20611 20.1808 8.08016C20.1939 7.95568 20.1456 8.07418 20.1411 8.0036C20.137 7.93227 20.2017 7.86056 20.1595 7.82369C20.146 7.81212 20.1174 7.82256 20.0841 7.8457C20.0083 7.89551 19.9132 8.01082 19.8822 8.09547C19.7888 8.35782 19.7831 8.65178 19.688 8.52994C19.6822 8.5227 19.7336 8.37751 19.7102 8.35673C19.5196 8.2014 19.2927 8.16619 19.0734 8.05815C19.044 8.04208 19.0731 7.8775 19.056 7.86389C18.8576 7.75506 18.9259 8.04174 18.8473 8.36247C18.8477 7.9399 18.7768 7.68127 18.6125 7.69642ZM31.1402 17.469C31.1588 17.4604 31.1625 17.4429 31.1373 17.3953C31.132 17.3858 31.1144 17.3827 31.0919 17.3819C31.109 17.4107 31.1242 17.4404 31.1402 17.469ZM30.7209 16.7599C30.7789 16.8741 30.8487 16.988 30.919 17.1006C30.9138 16.9745 30.9117 16.8471 30.8639 16.7273C30.848 16.6891 30.726 16.6945 30.689 16.6862C30.6997 16.7104 30.7087 16.7359 30.7209 16.7599ZM35.302 16.8068C35.1807 16.9101 35.266 16.9433 35.3638 16.8307C35.3696 16.824 35.3398 16.7751 35.302 16.8068ZM11.1789 16.5216C11.0364 16.5939 11.1102 16.6424 11.2331 16.557C11.2395 16.5505 11.2227 16.5 11.1789 16.5216ZM9.35462 15.8498C9.36526 16.0019 9.21761 16.0718 9.21258 16.2087C9.21264 16.2349 9.27619 16.2524 9.32467 16.2642C9.32891 16.2328 9.33902 16.1985 9.35946 16.1618C9.39422 16.0974 9.649 15.885 9.36525 15.8508C9.36359 15.8507 9.35987 15.8499 9.35462 15.8498ZM14.8914 15.5503C14.9079 15.6283 14.9285 15.7149 14.9436 15.7953C14.9573 15.7871 14.9663 15.7796 14.9658 15.7713C14.9557 15.6927 14.9254 15.6205 14.8914 15.5503ZM15.0209 12.5272C15.0433 12.6177 14.8294 12.7299 14.759 12.7559C14.545 12.8372 14.6643 12.7006 14.644 12.6947C14.3902 12.6497 14.4352 12.755 14.416 12.8382C14.2761 12.8453 14.1862 12.8641 14.1435 12.8832C14.0611 12.9188 14.155 12.9572 14.3966 12.9243C14.4199 12.9211 14.4166 12.8978 14.4131 12.8765C14.4106 12.8609 14.4087 12.8454 14.416 12.8382C14.4793 12.8482 14.5343 12.8606 14.5802 12.8736C14.8293 12.9408 14.8186 13.0496 14.502 13.176C14.3264 13.2473 14.1179 13.1886 14.1986 13.3875C14.2358 13.4764 14.5198 13.4341 14.5996 13.5119C14.7811 13.6889 14.5239 13.9353 14.5715 14.1225C14.5894 14.1901 14.7416 14.1197 14.759 14.1655C14.8049 14.2877 14.6924 14.4014 14.7561 14.5244C14.7641 14.5349 14.9247 14.5029 14.9281 14.5416C14.9402 14.6655 14.9285 14.7833 14.9136 14.9014C15.0277 14.8316 15.1864 14.7701 15.3272 14.6689C15.3536 14.65 15.3454 14.5969 15.4151 14.5445C15.4147 14.5408 15.4142 14.5372 15.4141 14.5349C15.3815 14.5188 15.3349 14.5023 15.2721 14.4852C15.1657 14.4557 14.7308 14.5288 15.0634 14.3636C15.0843 14.3528 15.3922 14.2287 15.189 14.1828C15.1634 14.177 15.0361 14.1852 15.0238 14.1761C14.9505 14.1131 15.0486 14.0621 14.9967 13.9914C14.9442 13.9199 14.8683 13.8315 14.9088 13.7435C14.934 13.6907 15.1703 13.619 15.2286 13.5942C15.3946 13.5238 15.12 13.4521 15.3233 13.4095C15.5281 13.3687 15.8385 13.4485 15.9717 13.3445C15.639 13.3374 15.2973 13.3238 14.9629 13.3129C14.9779 13.0562 15.0979 12.8096 15.1088 12.5521C15.1088 12.5365 15.0655 12.5317 15.0209 12.5272ZM33.639 13.7713C33.3291 13.8544 33.5009 14.1803 33.7289 13.9406C33.7387 13.9256 33.655 13.7682 33.639 13.7713ZM15.7272 13.843C15.9287 13.7266 15.0895 13.7334 15.2634 13.8517C15.276 13.8584 15.7076 13.85 15.7272 13.843ZM10.4832 13.2325C10.4298 13.2699 10.3649 13.3011 10.2832 13.3282C10.2592 13.4092 10.3422 13.4986 10.519 13.4172C10.5343 13.4102 10.5174 13.2367 10.5016 13.2334C10.4954 13.2327 10.4891 13.2329 10.4832 13.2325ZM15.5475 12.842C15.8145 12.7643 15.4384 12.6658 15.2315 12.7205C15.0258 12.7785 15.4651 12.867 15.5475 12.842ZM33.3443 12.1884C33.4036 12.1477 33.4543 12.0807 33.4728 12.1348C33.4567 12.1861 33.5451 12.1716 33.3173 12.5741C33.2527 12.4695 33.1897 12.3633 33.1259 12.2573C33.189 12.2679 33.2612 12.261 33.3443 12.1884ZM25.2189 12.4095C25.5345 12.3966 25.4942 12.1349 25.2006 12.2822C25.1868 12.2916 25.2037 12.4071 25.2189 12.4095ZM11.5993 10.5999C11.598 10.6246 11.5965 10.6567 11.5906 10.7099C11.5774 10.7826 11.6176 10.6115 11.5432 10.9578C11.4463 11.0839 11.617 11.3561 10.8794 11.9071C10.8193 11.8287 10.5889 11.5967 10.6649 11.5205C10.853 11.3318 10.8235 11.7837 11.1674 11.5654C11.3013 11.3585 11.4118 11.7152 11.6012 10.5137C11.6013 10.5304 11.6014 10.5522 11.5993 10.5999ZM9.29568 10.4793C9.29293 10.4851 9.29093 10.4942 9.28892 10.5051C9.32635 10.5203 9.36275 10.5452 9.37202 10.5472C9.63446 10.5659 9.31668 10.4299 9.29568 10.4793ZM24.3927 10.1386C24.5076 10.0276 24.4342 10.0158 24.3406 10.1309C24.336 10.1385 24.3579 10.1718 24.3927 10.1386ZM14.2575 8.98354C13.9954 9.1051 14.3772 9.19835 14.5802 9.11178C14.7826 9.02597 14.3374 8.94588 14.2575 8.98354ZM21.2659 8.4017C21.3485 8.23234 21.2425 8.18632 21.2108 8.37874C21.2127 8.38692 21.2609 8.40737 21.2659 8.4017ZM0.76155 7.9682C0.57436 8.01557 0.641074 8.17131 0.79537 8.04762C0.801514 8.04275 0.76966 7.96731 0.76155 7.9682ZM14.0787 7.68015C13.8736 7.82475 14.7099 7.85325 14.5425 7.69546C14.533 7.68629 14.0907 7.67166 14.0787 7.68015ZM24.5589 7.22272C24.373 7.2703 24.4297 7.41466 24.5889 7.29927C24.5949 7.29364 24.5667 7.22078 24.5589 7.22272ZM38.6124 7.18444C38.8123 7.09481 38.3667 7.02618 38.2868 7.06482C38.0277 7.19476 38.4121 7.27485 38.6124 7.18444ZM13.8758 6.39015C13.7627 6.43595 13.8932 6.5666 14.0343 6.51073C14.1478 6.46559 14.0171 6.33342 13.8758 6.39015ZM38.1042 5.75855C37.8971 5.90161 38.7332 5.9411 38.568 5.78247C38.5575 5.7732 38.1163 5.75026 38.1042 5.75855ZM37.9592 4.45229C37.8428 4.49081 37.9644 4.63175 38.109 4.58435C38.2247 4.54658 38.1041 4.40637 37.9592 4.45229ZM13.4159 4.02548C13.4575 3.9987 13.8494 4.17451 13.8662 4.2006C13.8338 4.5234 13.1435 4.71922 13.2207 4.36807C13.2348 4.30443 13.4419 4.50461 13.5048 4.42453C13.6186 4.27626 13.184 4.17691 13.4159 4.02548ZM37.9235 2.00053C37.9715 1.98608 38.3125 2.27334 38.311 2.29336H38.31C38.1953 2.59204 37.4749 2.63957 37.6404 2.29527C37.6711 2.23581 37.8188 2.48778 37.9003 2.42159C38.0478 2.30278 37.6559 2.09052 37.9235 2.00053Z" fill="url(#paint0_linear_77408_369)"/>
</g>
<defs>
<linearGradient id="paint0_linear_77408_369" x1="0" y1="2" x2="37.7951" y2="-1.54009" gradientUnits="userSpaceOnUse">
<stop stop-color="#CBF93E"/>
<stop offset="1" stop-color="#F4FE3F"/>
</linearGradient>
</defs>
</svg>
